<svg xmlns="http://www.w3.org/2000/svg" xmlns:xlink="http://wwww3.org/1999/xlink" width="100%" height="100%" stroke-linecap="round" stroke-linejoin="round" viewBox="-1000 -1000 2000 2000" xml:space="preserve"><g><path fill="#000" stroke-width="0" d="M 375.2776 -683.3333 L 404.1451 -666.6667 L 404.1451 -633.3334 L 375.2777 -616.6667 L 346.41020000000003 -633.3333 L 346.4101 -666.6666 Z"/><path fill="#000" stroke-width="0" d="M 404.1451 -633.3333 L 433.0126 -616.6667 L 433.0126 -583.3334 L 404.1452 -566.6667 L 375.27770000000004 -583.3333 L 375.2776 -616.6666 Z"/><path fill="#000" stroke-width="0" d="M 375.2776 -583.3333 L 404.1451 -566.6667 L 404.1451 -533.3334 L 375.2777 -516.6667 L 346.41020000000003 -533.3333 L 346.4101 -566.6666 Z"/><path fill="#000" stroke-width="0" d="M 317.5426 -583.3333 L 346.4101 -566.6667 L 346.4101 -533.3334 L 317.54269999999997 -516.6667 L 288.6752 -533.3333 L 288.6751 -566.6666 Z"/><path fill="#000" stroke-width="0" d="M 288.6751 -633.3333 L 317.5426 -616.6667 L 317.5426 -583.3334 L 288.67519999999996 -566.6667 L 259.8077 -583.3333 L 259.8076 -616.6666 Z"/><path fill="#000" stroke-width="0" d="M 317.5426 -683.3333 L 346.4101 -666.6667 L 346.4101 -633.3334 L 317.54269999999997 -616.6667 L 288.6752 -633.3333 L 288.6751 -666.6666 Z"/><path fill="#000" stroke-width="0" d="M 461.8802 -533.3333 L 490.7477 -516.6667 L 490.7477 -483.3334 L 461.8803 -466.6667 L 433.0128 -483.3333 L 433.0127 -516.6666 Z"/><path fill="#000" stroke-width="0" d="M 490.7477 -483.3333 L 519.6152 -466.6667 L 519.6152 -433.3334 L 490.7478 -416.6667 L 461.88030000000003 -433.3333 L 461.8802 -466.6666 Z"/><path fill="#000" stroke-width="0" d="M 461.8802 -433.3333 L 490.7477 -416.6667 L 490.7477 -383.3334 L 461.8803 -366.6667 L 433.0128 -383.3333 L 433.0127 -416.6666 Z"/><path fill="#000" stroke-width="0" d="M 404.1452 -433.3333 L 433.0127 -416.6667 L 433.0127 -383.3334 L 404.14529999999996 -366.6667 L 375.2778 -383.3333 L 375.2777 -416.6666 Z"/><path fill="#000" stroke-width="0" d="M 375.2777 -483.3333 L 404.1452 -466.6667 L 404.1452 -433.3334 L 375.27779999999996 -416.6667 L 346.4103 -433.3333 L 346.4102 -466.6666 Z"/><path fill="#000" stroke-width="0" d="M 404.1452 -533.3333 L 433.0127 -516.6667 L 433.0127 -483.3334 L 404.14529999999996 -466.6667 L 375.2778 -483.3333 L 375.2777 -516.6666 Z"/><path fill="#000" stroke-width="0" d="M 375.2777 -383.3333 L 404.1452 -366.6667 L 404.1452 -333.3334 L 375.27779999999996 -316.6667 L 346.4103 -333.3333 L 346.4102 -366.6666 Z"/><path fill="#000" stroke-width="0" d="M 404.1452 -333.3333 L 433.0127 -316.6667 L 433.0127 -283.3334 L 404.14529999999996 -266.6667 L 375.2778 -283.3333 L 375.2777 -316.6666 Z"/><path fill="#000" stroke-width="0" d="M 375.2777 -283.3333 L 404.1452 -266.6667 L 404.1452 -233.3334 L 375.27779999999996 -216.6667 L 346.4103 -233.3333 L 346.4102 -266.6666 Z"/><path fill="#000" stroke-width="0" d="M 317.54269999999997 -283.3333 L 346.4102 -266.6667 L 346.4102 -233.3334 L 317.54279999999994 -216.6667 L 288.6753 -233.3333 L 288.67519999999996 -266.6666 Z"/><path fill="#000" stroke-width="0" d="M 288.67519999999996 -333.3333 L 317.54269999999997 -316.6667 L 317.54269999999997 -283.3334 L 288.67529999999994 -266.6667 L 259.8078 -283.3333 L 259.80769999999995 -316.6666 Z"/><path fill="#000" stroke-width="0" d="M 317.54269999999997 -383.3333 L 346.4102 -366.6667 L 346.4102 -333.3334 L 317.54279999999994 -316.6667 L 288.6753 -333.3333 L 288.67519999999996 -366.6666 Z"/><path fill="#000" stroke-width="0" d="M 202.07259999999997 -383.33320000000003 L 230.94009999999997 -366.6666 L 230.94009999999997 -333.3333 L 202.07269999999997 -316.6666 L 173.20519999999996 -333.33320000000003 L 173.20509999999996 -366.66650000000004 Z"/><path fill="#000" stroke-width="0" d="M 230.94009999999997 -333.33320000000003 L 259.8076 -316.6666 L 259.8076 -283.3333 L 230.94019999999998 -266.6666 L 202.07269999999997 -283.33320000000003 L 202.07259999999997 -316.66650000000004 Z"/><path fill="#000" stroke-width="0" d="M 202.07259999999997 -283.33320000000003 L 230.94009999999997 -266.6666 L 230.94009999999997 -233.33330000000004 L 202.07269999999997 -216.66660000000002 L 173.20519999999996 -233.33320000000003 L 173.20509999999996 -266.66650000000004 Z"/><path fill="#000" stroke-width="0" d="M 144.33759999999995 -283.33320000000003 L 173.20509999999996 -266.6666 L 173.20509999999996 -233.33330000000004 L 144.33769999999996 -216.66660000000002 L 115.47019999999995 -233.33320000000003 L 115.47009999999995 -266.66650000000004 Z"/><path fill="#000" stroke-width="0" d="M 115.47009999999996 -333.33320000000003 L 144.33759999999995 -316.6666 L 144.33759999999995 -283.3333 L 115.47019999999996 -266.6666 L 86.60269999999996 -283.33320000000003 L 86.60259999999997 -316.66650000000004 Z"/><path fill="#000" stroke-width="0" d="M 144.33759999999995 -383.33320000000003 L 173.20509999999996 -366.6666 L 173.20509999999996 -333.3333 L 144.33769999999996 -316.6666 L 115.47019999999995 -333.33320000000003 L 115.47009999999995 -366.66650000000004 Z"/><path fill="#000" stroke-width="0" d="M 115.47 -533.3332 L 144.3375 -516.6666 L 144.3375 -483.3333 L 115.4701 -466.6666 L 86.6026 -483.33320000000003 L 86.60249999999999 -516.6665 Z"/><path fill="#000" stroke-width="0" d="M 144.33749999999998 -483.33320000000003 L 173.20499999999998 -466.6666 L 173.20499999999998 -433.3333 L 144.33759999999998 -416.6666 L 115.47009999999997 -433.33320000000003 L 115.46999999999997 -466.66650000000004 Z"/><path fill="#000" stroke-width="0" d="M 115.47 -433.33320000000003 L 144.3375 -416.6666 L 144.3375 -383.3333 L 115.4701 -366.6666 L 86.6026 -383.33320000000003 L 86.60249999999999 -416.66650000000004 Z"/><path fill="#000" stroke-width="0" d="M 57.73499999999999 -433.33320000000003 L 86.60249999999999 -416.6666 L 86.60249999999999 -383.3333 L 57.735099999999996 -366.6666 L 28.867599999999992 -383.33320000000003 L 28.867499999999993 -416.66650000000004 Z"/><path fill="#000" stroke-width="0" d="M 28.867499999999993 -483.33320000000003 L 57.73499999999999 -466.6666 L 57.73499999999999 -433.3333 L 28.867599999999992 -416.6666 L 0.00009999999999266151 -433.33320000000003 L -7.105427357601002e-15 -466.66650000000004 Z"/><path fill="#000" stroke-width="0" d="M 57.73499999999999 -533.3332 L 86.60249999999999 -516.6666 L 86.60249999999999 -483.3333 L 57.735099999999996 -466.6666 L 28.867599999999992 -483.33320000000003 L 28.867499999999993 -516.6665 Z"/><path fill="#000" stroke-width="0" d="M 202.0725 -683.3333 L 230.94 -666.6667 L 230.94 -633.3334 L 202.0726 -616.6667 L 173.2051 -633.3333 L 173.20499999999998 -666.6666 Z"/><path fill="#000" stroke-width="0" d="M 230.94 -633.3333 L 259.8075 -616.6667 L 259.8075 -583.3334 L 230.9401 -566.6667 L 202.0726 -583.3333 L 202.0725 -616.6666 Z"/><path fill="#000" stroke-width="0" d="M 202.0725 -583.3333 L 230.94 -566.6667 L 230.94 -533.3334 L 202.0726 -516.6667 L 173.2051 -533.3333 L 173.20499999999998 -566.6666 Z"/><path fill="#000" stroke-width="0" d="M 144.33749999999998 -583.3333 L 173.20499999999998 -566.6667 L 173.20499999999998 -533.3334 L 144.33759999999998 -516.6667 L 115.47009999999997 -533.3333 L 115.46999999999997 -566.6666 Z"/><path fill="#000" stroke-width="0" d="M 115.46999999999998 -633.3333 L 144.33749999999998 -616.6667 L 144.33749999999998 -583.3334 L 115.47009999999999 -566.6667 L 86.60259999999998 -583.3333 L 86.60249999999999 -616.6666 Z"/><path fill="#000" stroke-width="0" d="M 144.33749999999998 -683.3333 L 173.20499999999998 -666.6667 L 173.20499999999998 -633.3334 L 144.33759999999998 -616.6667 L 115.47009999999997 -633.3333 L 115.46999999999997 -666.6666 Z"/><path fill="#000" stroke-width="0" d="M 635.0851999999999 -233.3333 L 663.9526999999998 -216.6667 L 663.9526999999998 -183.3334 L 635.0852999999998 -166.6667 L 606.2177999999999 -183.3333 L 606.2176999999999 -216.6666 Z"/><path fill="#000" stroke-width="0" d="M 663.9526999999999 -183.3333 L 692.8201999999999 -166.6667 L 692.8201999999999 -133.3334 L 663.9527999999999 -116.66669999999999 L 635.0853 -133.3333 L 635.0852 -166.6666 Z"/><path fill="#000" stroke-width="0" d="M 635.0851999999999 -133.3333 L 663.9526999999998 -116.66669999999999 L 663.9526999999998 -83.3334 L 635.0852999999998 -66.66669999999999 L 606.2177999999999 -83.33330000000001 L 606.2176999999999 -116.6666 Z"/><path fill="#000" stroke-width="0" d="M 577.3502 -133.3333 L 606.2176999999999 -116.66669999999999 L 606.2176999999999 -83.3334 L 577.3503 -66.66669999999999 L 548.4828 -83.33330000000001 L 548.4827 -116.6666 Z"/><path fill="#000" stroke-width="0" d="M 548.4826999999999 -183.3333 L 577.3501999999999 -166.6667 L 577.3501999999999 -133.3334 L 548.4827999999999 -116.66669999999999 L 519.6152999999999 -133.3333 L 519.6152 -166.6666 Z"/><path fill="#000" stroke-width="0" d="M 577.3502 -233.3333 L 606.2176999999999 -216.6667 L 606.2176999999999 -183.3334 L 577.3503 -166.6667 L 548.4828 -183.3333 L 548.4827 -216.6666 Z"/><path fill="#000" stroke-width="0" d="M 721.6877999999999 -83.33330000000001 L 750.5552999999999 -66.66669999999999 L 750.5552999999999 -33.3334 L 721.6878999999999 -16.6667 L 692.8204 -33.3333 L 692.8203 -66.6666 Z"/><path fill="#000" stroke-width="0" d="M 750.5553 -33.3333 L 779.4227999999999 -16.6667 L 779.4227999999999 16.6666 L 750.5554 33.3333 L 721.6879 16.6667 L 721.6878 -16.6666 Z"/><path fill="#000" stroke-width="0" d="M 721.6877999999999 16.6667 L 750.5552999999999 33.3333 L 750.5552999999999 66.6666 L 721.6878999999999 83.33330000000001 L 692.8204 66.66669999999999 L 692.8203 33.3334 Z"/><path fill="#000" stroke-width="0" d="M 663.9528 16.6667 L 692.8203 33.3333 L 692.8203 66.6666 L 663.9529 83.33330000000001 L 635.0854 66.66669999999999 L 635.0853000000001 33.3334 Z"/><path fill="#000" stroke-width="0" d="M 635.0853 -33.3333 L 663.9527999999999 -16.6667 L 663.9527999999999 16.6666 L 635.0853999999999 33.3333 L 606.2179 16.6667 L 606.2178 -16.6666 Z"/><path fill="#000" stroke-width="0" d="M 663.9528 -83.33330000000001 L 692.8203 -66.66669999999999 L 692.8203 -33.3334 L 663.9529 -16.6667 L 635.0854 -33.3333 L 635.0853000000001 -66.6666 Z"/><path fill="#000" stroke-width="0" d="M 635.0852999999998 66.66669999999999 L 663.9527999999998 83.33330000000001 L 663.9527999999998 116.6666 L 635.0853999999998 133.3333 L 606.2178999999999 116.66669999999999 L 606.2177999999999 83.3334 Z"/><path fill="#000" stroke-width="0" d="M 663.9527999999999 116.66669999999999 L 692.8202999999999 133.3333 L 692.8202999999999 166.6666 L 663.9528999999999 183.3333 L 635.0853999999999 166.6667 L 635.0853 133.3334 Z"/><path fill="#000" stroke-width="0" d="M 635.0852999999998 166.6667 L 663.9527999999998 183.3333 L 663.9527999999998 216.6666 L 635.0853999999998 233.3333 L 606.2178999999999 216.6667 L 606.2177999999999 183.3334 Z"/><path fill="#000" stroke-width="0" d="M 577.3503 166.6667 L 606.2177999999999 183.3333 L 606.2177999999999 216.6666 L 577.3503999999999 233.3333 L 548.4829 216.6667 L 548.4828 183.3334 Z"/><path fill="#000" stroke-width="0" d="M 548.4827999999999 116.66669999999999 L 577.3502999999998 133.3333 L 577.3502999999998 166.6666 L 548.4828999999999 183.3333 L 519.6153999999999 166.6667 L 519.6152999999999 133.3334 Z"/><path fill="#000" stroke-width="0" d="M 577.3503 66.66669999999999 L 606.2177999999999 83.33330000000001 L 606.2177999999999 116.6666 L 577.3503999999999 133.3333 L 548.4829 116.66669999999999 L 548.4828 83.3334 Z"/><path fill="#000" stroke-width="0" d="M 461.88019999999995 66.6668 L 490.74769999999995 83.33340000000001 L 490.74769999999995 116.6667 L 461.8802999999999 133.3334 L 433.01279999999997 116.6668 L 433.01269999999994 83.3335 Z"/><path fill="#000" stroke-width="0" d="M 490.74769999999995 116.6668 L 519.6152 133.3334 L 519.6152 166.6667 L 490.7477999999999 183.3334 L 461.8803 166.6668 L 461.88019999999995 133.33350000000002 Z"/><path fill="#000" stroke-width="0" d="M 461.88019999999995 166.6668 L 490.74769999999995 183.3334 L 490.74769999999995 216.6667 L 461.8802999999999 233.3334 L 433.01279999999997 216.6668 L 433.01269999999994 183.33350000000002 Z"/><path fill="#000" stroke-width="0" d="M 404.14519999999993 166.6668 L 433.01269999999994 183.3334 L 433.01269999999994 216.6667 L 404.1452999999999 233.3334 L 375.27779999999996 216.6668 L 375.2776999999999 183.33350000000002 Z"/><path fill="#000" stroke-width="0" d="M 375.2776999999999 116.6668 L 404.14519999999993 133.3334 L 404.14519999999993 166.6667 L 375.2777999999999 183.3334 L 346.41029999999995 166.6668 L 346.4101999999999 133.33350000000002 Z"/><path fill="#000" stroke-width="0" d="M 404.14519999999993 66.6668 L 433.01269999999994 83.33340000000001 L 433.01269999999994 116.6667 L 404.1452999999999 133.3334 L 375.27779999999996 116.6668 L 375.2776999999999 83.3335 Z"/><path fill="#000" stroke-width="0" d="M 375.27759999999995 -83.3332 L 404.14509999999996 -66.66659999999999 L 404.14509999999996 -33.333299999999994 L 375.2776999999999 -16.666599999999995 L 346.4102 -33.3332 L 346.41009999999994 -66.6665 Z"/><path fill="#000" stroke-width="0" d="M 404.14509999999996 -33.3332 L 433.01259999999996 -16.6666 L 433.01259999999996 16.6667 L 404.14519999999993 33.333400000000005 L 375.2777 16.6668 L 375.27759999999995 -16.6665 Z"/><path fill="#000" stroke-width="0" d="M 375.27759999999995 16.666800000000002 L 404.14509999999996 33.333400000000005 L 404.14509999999996 66.6667 L 375.2776999999999 83.33340000000001 L 346.4102 66.6668 L 346.41009999999994 33.3335 Z"/><path fill="#000" stroke-width="0" d="M 317.54259999999994 16.666800000000002 L 346.41009999999994 33.333400000000005 L 346.41009999999994 66.6667 L 317.5426999999999 83.33340000000001 L 288.67519999999996 66.6668 L 288.67509999999993 33.3335 Z"/><path fill="#000" stroke-width="0" d="M 288.67509999999993 -33.3332 L 317.54259999999994 -16.6666 L 317.54259999999994 16.6667 L 288.6751999999999 33.333400000000005 L 259.80769999999995 16.6668 L 259.8075999999999 -16.6665 Z"/><path fill="#000" stroke-width="0" d="M 317.54259999999994 -83.3332 L 346.41009999999994 -66.66659999999999 L 346.41009999999994 -33.333299999999994 L 317.5426999999999 -16.666599999999995 L 288.67519999999996 -33.3332 L 288.67509999999993 -66.6665 Z"/><path fill="#000" stroke-width="0" d="M 461.88009999999997 -233.3333 L 490.7476 -216.6667 L 490.7476 -183.3334 L 461.88019999999995 -166.6667 L 433.0127 -183.3333 L 433.01259999999996 -216.6666 Z"/><path fill="#000" stroke-width="0" d="M 490.7476 -183.3333 L 519.6151 -166.6667 L 519.6151 -133.3334 L 490.74769999999995 -116.66669999999999 L 461.8802 -133.3333 L 461.88009999999997 -166.6666 Z"/><path fill="#000" stroke-width="0" d="M 461.88009999999997 -133.3333 L 490.7476 -116.66669999999999 L 490.7476 -83.3334 L 461.88019999999995 -66.66669999999999 L 433.0127 -83.33330000000001 L 433.01259999999996 -116.6666 Z"/><path fill="#000" stroke-width="0" d="M 404.14509999999996 -133.3333 L 433.01259999999996 -116.66669999999999 L 433.01259999999996 -83.3334 L 404.14519999999993 -66.66669999999999 L 375.2777 -83.33330000000001 L 375.27759999999995 -116.6666 Z"/><path fill="#000" stroke-width="0" d="M 375.27759999999995 -183.3333 L 404.14509999999996 -166.6667 L 404.14509999999996 -133.3334 L 375.2776999999999 -116.66669999999999 L 346.4102 -133.3333 L 346.41009999999994 -166.6666 Z"/><path fill="#000" stroke-width="0" d="M 404.14509999999996 -233.3333 L 433.01259999999996 -216.6667 L 433.01259999999996 -183.3334 L 404.14519999999993 -166.6667 L 375.2777 -183.3333 L 375.27759999999995 -216.6666 Z"/><path fill="#000" stroke-width="0" d="M 375.2776 216.6667 L 404.1451 233.3333 L 404.1451 266.6666 L 375.2777 283.3333 L 346.41020000000003 266.6667 L 346.4101 233.3334 Z"/><path fill="#000" stroke-width="0" d="M 404.1451 266.6667 L 433.0126 283.3333 L 433.0126 316.6666 L 404.1452 333.3333 L 375.27770000000004 316.6667 L 375.2776 283.3334 Z"/><path fill="#000" stroke-width="0" d="M 375.2776 316.6667 L 404.1451 333.3333 L 404.1451 366.6666 L 375.2777 383.3333 L 346.41020000000003 366.6667 L 346.4101 333.3334 Z"/><path fill="#000" stroke-width="0" d="M 317.5426 316.6667 L 346.4101 333.3333 L 346.4101 366.6666 L 317.54269999999997 383.3333 L 288.6752 366.6667 L 288.6751 333.3334 Z"/><path fill="#000" stroke-width="0" d="M 288.6751 266.6667 L 317.5426 283.3333 L 317.5426 316.6666 L 288.67519999999996 333.3333 L 259.8077 316.6667 L 259.8076 283.3334 Z"/><path fill="#000" stroke-width="0" d="M 317.5426 216.6667 L 346.4101 233.3333 L 346.4101 266.6666 L 317.54269999999997 283.3333 L 288.6752 266.6667 L 288.6751 233.3334 Z"/><path fill="#000" stroke-width="0" d="M 461.8802 366.6667 L 490.7477 383.3333 L 490.7477 416.6666 L 461.8803 433.3333 L 433.0128 416.6667 L 433.0127 383.3334 Z"/><path fill="#000" stroke-width="0" d="M 490.7477 416.6667 L 519.6152 433.3333 L 519.6152 466.6666 L 490.7478 483.3333 L 461.88030000000003 466.6667 L 461.8802 433.3334 Z"/><path fill="#000" stroke-width="0" d="M 461.8802 466.6667 L 490.7477 483.3333 L 490.7477 516.6666 L 461.8803 533.3333 L 433.0128 516.6667 L 433.0127 483.3334 Z"/><path fill="#000" stroke-width="0" d="M 404.1452 466.6667 L 433.0127 483.3333 L 433.0127 516.6666 L 404.14529999999996 533.3333 L 375.2778 516.6667 L 375.2777 483.3334 Z"/><path fill="#000" stroke-width="0" d="M 375.2777 416.6667 L 404.1452 433.3333 L 404.1452 466.6666 L 375.27779999999996 483.3333 L 346.4103 466.6667 L 346.4102 433.3334 Z"/><path fill="#000" stroke-width="0" d="M 404.1452 366.6667 L 433.0127 383.3333 L 433.0127 416.6666 L 404.14529999999996 433.3333 L 375.2778 416.6667 L 375.2777 383.3334 Z"/><path fill="#000" stroke-width="0" d="M 375.2777 516.6667 L 404.1452 533.3333 L 404.1452 566.6666 L 375.27779999999996 583.3333 L 346.4103 566.6667 L 346.4102 533.3334 Z"/><path fill="#000" stroke-width="0" d="M 404.1452 566.6667 L 433.0127 583.3333 L 433.0127 616.6666 L 404.14529999999996 633.3333 L 375.2778 616.6667 L 375.2777 583.3334 Z"/><path fill="#000" stroke-width="0" d="M 375.2777 616.6667 L 404.1452 633.3333 L 404.1452 666.6666 L 375.27779999999996 683.3333 L 346.4103 666.6667 L 346.4102 633.3334 Z"/><path fill="#000" stroke-width="0" d="M 317.54269999999997 616.6667 L 346.4102 633.3333 L 346.4102 666.6666 L 317.54279999999994 683.3333 L 288.6753 666.6667 L 288.67519999999996 633.3334 Z"/><path fill="#000" stroke-width="0" d="M 288.67519999999996 566.6667 L 317.54269999999997 583.3333 L 317.54269999999997 616.6666 L 288.67529999999994 633.3333 L 259.8078 616.6667 L 259.80769999999995 583.3334 Z"/><path fill="#000" stroke-width="0" d="M 317.54269999999997 516.6667 L 346.4102 533.3333 L 346.4102 566.6666 L 317.54279999999994 583.3333 L 288.6753 566.6667 L 288.67519999999996 533.3334 Z"/><path fill="#000" stroke-width="0" d="M 202.07259999999997 516.6668 L 230.94009999999997 533.3334 L 230.94009999999997 566.6667 L 202.07269999999997 583.3334 L 173.20519999999996 566.6668 L 173.20509999999996 533.3335 Z"/><path fill="#000" stroke-width="0" d="M 230.94009999999997 566.6668 L 259.8076 583.3334 L 259.8076 616.6667 L 230.94019999999998 633.3334 L 202.07269999999997 616.6668 L 202.07259999999997 583.3335 Z"/><path fill="#000" stroke-width="0" d="M 202.07259999999997 616.6668 L 230.94009999999997 633.3334 L 230.94009999999997 666.6667 L 202.07269999999997 683.3334 L 173.20519999999996 666.6668 L 173.20509999999996 633.3335 Z"/><path fill="#000" stroke-width="0" d="M 144.33759999999995 616.6668 L 173.20509999999996 633.3334 L 173.20509999999996 666.6667 L 144.33769999999996 683.3334 L 115.47019999999995 666.6668 L 115.47009999999995 633.3335 Z"/><path fill="#000" stroke-width="0" d="M 115.47009999999996 566.6668 L 144.33759999999995 583.3334 L 144.33759999999995 616.6667 L 115.47019999999996 633.3334 L 86.60269999999996 616.6668 L 86.60259999999997 583.3335 Z"/><path fill="#000" stroke-width="0" d="M 144.33759999999995 516.6668 L 173.20509999999996 533.3334 L 173.20509999999996 566.6667 L 144.33769999999996 583.3334 L 115.47019999999995 566.6668 L 115.47009999999995 533.3335 Z"/><path fill="#000" stroke-width="0" d="M 115.47 366.66679999999997 L 144.3375 383.3334 L 144.3375 416.6667 L 115.4701 433.3334 L 86.6026 416.66679999999997 L 86.60249999999999 383.33349999999996 Z"/><path fill="#000" stroke-width="0" d="M 144.33749999999998 416.66679999999997 L 173.20499999999998 433.3334 L 173.20499999999998 466.6667 L 144.33759999999998 483.3334 L 115.47009999999997 466.66679999999997 L 115.46999999999997 433.33349999999996 Z"/><path fill="#000" stroke-width="0" d="M 115.47 466.66679999999997 L 144.3375 483.3334 L 144.3375 516.6667 L 115.4701 533.3334 L 86.6026 516.6668 L 86.60249999999999 483.33349999999996 Z"/><path fill="#000" stroke-width="0" d="M 57.73499999999999 466.66679999999997 L 86.60249999999999 483.3334 L 86.60249999999999 516.6667 L 57.735099999999996 533.3334 L 28.867599999999992 516.6668 L 28.867499999999993 483.33349999999996 Z"/><path fill="#000" stroke-width="0" d="M 28.867499999999993 416.66679999999997 L 57.73499999999999 433.3334 L 57.73499999999999 466.6667 L 28.867599999999992 483.3334 L 0.00009999999999266151 466.66679999999997 L -7.105427357601002e-15 433.33349999999996 Z"/><path fill="#000" stroke-width="0" d="M 57.73499999999999 366.66679999999997 L 86.60249999999999 383.3334 L 86.60249999999999 416.6667 L 57.735099999999996 433.3334 L 28.867599999999992 416.66679999999997 L 28.867499999999993 383.33349999999996 Z"/><path fill="#000" stroke-width="0" d="M 202.0725 216.6667 L 230.94 233.3333 L 230.94 266.6666 L 202.0726 283.3333 L 173.2051 266.6667 L 173.20499999999998 233.3334 Z"/><path fill="#000" stroke-width="0" d="M 230.94 266.6667 L 259.8075 283.3333 L 259.8075 316.6666 L 230.9401 333.3333 L 202.0726 316.6667 L 202.0725 283.3334 Z"/><path fill="#000" stroke-width="0" d="M 202.0725 316.6667 L 230.94 333.3333 L 230.94 366.6666 L 202.0726 383.3333 L 173.2051 366.6667 L 173.20499999999998 333.3334 Z"/><path fill="#000" stroke-width="0" d="M 144.33749999999998 316.6667 L 173.20499999999998 333.3333 L 173.20499999999998 366.6666 L 144.33759999999998 383.3333 L 115.47009999999997 366.6667 L 115.46999999999997 333.3334 Z"/><path fill="#000" stroke-width="0" d="M 115.46999999999998 266.6667 L 144.33749999999998 283.3333 L 144.33749999999998 316.6666 L 115.47009999999999 333.3333 L 86.60259999999998 316.6667 L 86.60249999999999 283.3334 Z"/><path fill="#000" stroke-width="0" d="M 144.33749999999998 216.6667 L 173.20499999999998 233.3333 L 173.20499999999998 266.6666 L 144.33759999999998 283.3333 L 115.47009999999997 266.6667 L 115.46999999999997 233.3334 Z"/><path fill="#000" stroke-width="0" d="M -144.33759999999995 216.6667 L -115.47009999999995 233.3333 L -115.47009999999995 266.6666 L -144.33749999999995 283.3333 L -173.20499999999996 266.6667 L -173.20509999999996 233.3334 Z"/><path fill="#000" stroke-width="0" d="M -115.47009999999996 266.6667 L -86.60259999999997 283.3333 L -86.60259999999997 316.6666 L -115.46999999999996 333.3333 L -144.33749999999995 316.6667 L -144.33759999999995 283.3334 Z"/><path fill="#000" stroke-width="0" d="M -144.33759999999995 316.6667 L -115.47009999999995 333.3333 L -115.47009999999995 366.6666 L -144.33749999999995 383.3333 L -173.20499999999996 366.6667 L -173.20509999999996 333.3334 Z"/><path fill="#000" stroke-width="0" d="M -202.07259999999997 316.6667 L -173.20509999999996 333.3333 L -173.20509999999996 366.6666 L -202.07249999999996 383.3333 L -230.93999999999997 366.6667 L -230.94009999999997 333.3334 Z"/><path fill="#000" stroke-width="0" d="M -230.94009999999997 266.6667 L -202.07259999999997 283.3333 L -202.07259999999997 316.6666 L -230.93999999999997 333.3333 L -259.80749999999995 316.6667 L -259.8076 283.3334 Z"/><path fill="#000" stroke-width="0" d="M -202.07259999999997 216.6667 L -173.20509999999996 233.3333 L -173.20509999999996 266.6666 L -202.07249999999996 283.3333 L -230.93999999999997 266.6667 L -230.94009999999997 233.3334 Z"/><path fill="#000" stroke-width="0" d="M -57.73499999999999 366.6667 L -28.867499999999993 383.3333 L -28.867499999999993 416.6666 L -57.73489999999999 433.3333 L -86.60239999999999 416.6667 L -86.60249999999999 383.3334 Z"/><path fill="#000" stroke-width="0" d="M -28.867499999999993 416.6667 L 7.105427357601002e-15 433.3333 L 7.105427357601002e-15 466.6666 L -28.867399999999993 483.3333 L -57.734899999999996 466.6667 L -57.73499999999999 433.3334 Z"/><path fill="#000" stroke-width="0" d="M -57.73499999999999 466.6667 L -28.867499999999993 483.3333 L -28.867499999999993 516.6666 L -57.73489999999999 533.3333 L -86.60239999999999 516.6667 L -86.60249999999999 483.3334 Z"/><path fill="#000" stroke-width="0" d="M -115.47 466.6667 L -86.60249999999999 483.3333 L -86.60249999999999 516.6666 L -115.4699 533.3333 L -144.3374 516.6667 L -144.3375 483.3334 Z"/><path fill="#000" stroke-width="0" d="M -144.33749999999998 416.6667 L -115.46999999999997 433.3333 L -115.46999999999997 466.6666 L -144.33739999999997 483.3333 L -173.20489999999998 466.6667 L -173.20499999999998 433.3334 Z"/><path fill="#000" stroke-width="0" d="M -115.47 366.6667 L -86.60249999999999 383.3333 L -86.60249999999999 416.6666 L -115.4699 433.3333 L -144.3374 416.6667 L -144.3375 383.3334 Z"/><path fill="#000" stroke-width="0" d="M -144.33749999999998 516.6667 L -115.46999999999997 533.3333 L -115.46999999999997 566.6666 L -144.33739999999997 583.3333 L -173.20489999999998 566.6667 L -173.20499999999998 533.3334 Z"/><path fill="#000" stroke-width="0" d="M -115.46999999999998 566.6667 L -86.60249999999999 583.3333 L -86.60249999999999 616.6666 L -115.46989999999998 633.3333 L -144.33739999999997 616.6667 L -144.33749999999998 583.3334 Z"/><path fill="#000" stroke-width="0" d="M -144.33749999999998 616.6667 L -115.46999999999997 633.3333 L -115.46999999999997 666.6666 L -144.33739999999997 683.3333 L -173.20489999999998 666.6667 L -173.20499999999998 633.3334 Z"/><path fill="#000" stroke-width="0" d="M -202.0725 616.6667 L -173.20499999999998 633.3333 L -173.20499999999998 666.6666 L -202.0724 683.3333 L -230.9399 666.6667 L -230.94 633.3334 Z"/><path fill="#000" stroke-width="0" d="M -230.94 566.6667 L -202.0725 583.3333 L -202.0725 616.6666 L -230.9399 633.3333 L -259.8074 616.6667 L -259.8075 583.3334 Z"/><path fill="#000" stroke-width="0" d="M -202.0725 516.6667 L -173.20499999999998 533.3333 L -173.20499999999998 566.6666 L -202.0724 583.3333 L -230.9399 566.6667 L -230.94 533.3334 Z"/><path fill="#000" stroke-width="0" d="M -317.5426 516.6668 L -288.6751 533.3334 L -288.6751 566.6667 L -317.5425 583.3334 L -346.40999999999997 566.6668 L -346.4101 533.3335 Z"/><path fill="#000" stroke-width="0" d="M -288.6751 566.6668 L -259.8076 583.3334 L -259.8076 616.6667 L -288.675 633.3334 L -317.54249999999996 616.6668 L -317.5426 583.3335 Z"/><path fill="#000" stroke-width="0" d="M -317.5426 616.6668 L -288.6751 633.3334 L -288.6751 666.6667 L -317.5425 683.3334 L -346.40999999999997 666.6668 L -346.4101 633.3335 Z"/><path fill="#000" stroke-width="0" d="M -375.2776 616.6668 L -346.4101 633.3334 L -346.4101 666.6667 L -375.27750000000003 683.3334 L -404.145 666.6668 L -404.1451 633.3335 Z"/><path fill="#000" stroke-width="0" d="M -404.1451 566.6668 L -375.2776 583.3334 L -375.2776 616.6667 L -404.14500000000004 633.3334 L -433.0125 616.6668 L -433.0126 583.3335 Z"/><path fill="#000" stroke-width="0" d="M -375.2776 516.6668 L -346.4101 533.3334 L -346.4101 566.6667 L -375.27750000000003 583.3334 L -404.145 566.6668 L -404.1451 533.3335 Z"/><path fill="#000" stroke-width="0" d="M -404.1452 366.66679999999997 L -375.2777 383.3334 L -375.2777 416.6667 L -404.1451 433.3334 L -433.01259999999996 416.66679999999997 L -433.0127 383.33349999999996 Z"/><path fill="#000" stroke-width="0" d="M -375.2777 416.66679999999997 L -346.4102 433.3334 L -346.4102 466.6667 L -375.2776 483.3334 L -404.14509999999996 466.66679999999997 L -404.1452 433.33349999999996 Z"/><path fill="#000" stroke-width="0" d="M -404.1452 466.66679999999997 L -375.2777 483.3334 L -375.2777 516.6667 L -404.1451 533.3334 L -433.01259999999996 516.6668 L -433.0127 483.33349999999996 Z"/><path fill="#000" stroke-width="0" d="M -461.8802 466.66679999999997 L -433.0127 483.3334 L -433.0127 516.6667 L -461.8801 533.3334 L -490.7476 516.6668 L -490.7477 483.33349999999996 Z"/><path fill="#000" stroke-width="0" d="M -490.7477 416.66679999999997 L -461.8802 433.3334 L -461.8802 466.6667 L -490.74760000000003 483.3334 L -519.6151 466.66679999999997 L -519.6152 433.33349999999996 Z"/><path fill="#000" stroke-width="0" d="M -461.8802 366.66679999999997 L -433.0127 383.3334 L -433.0127 416.6667 L -461.8801 433.3334 L -490.7476 416.66679999999997 L -490.7477 383.33349999999996 Z"/><path fill="#000" stroke-width="0" d="M -317.54269999999997 216.6667 L -288.67519999999996 233.3333 L -288.67519999999996 266.6666 L -317.5426 283.3333 L -346.41009999999994 266.6667 L -346.4102 233.3334 Z"/><path fill="#000" stroke-width="0" d="M -288.67519999999996 266.6667 L -259.80769999999995 283.3333 L -259.80769999999995 316.6666 L -288.6751 333.3333 L -317.54259999999994 316.6667 L -317.54269999999997 283.3334 Z"/><path fill="#000" stroke-width="0" d="M -317.54269999999997 316.6667 L -288.67519999999996 333.3333 L -288.67519999999996 366.6666 L -317.5426 383.3333 L -346.41009999999994 366.6667 L -346.4102 333.3334 Z"/><path fill="#000" stroke-width="0" d="M -375.2777 316.6667 L -346.4102 333.3333 L -346.4102 366.6666 L -375.2776 383.3333 L -404.14509999999996 366.6667 L -404.1452 333.3334 Z"/><path fill="#000" stroke-width="0" d="M -404.1452 266.6667 L -375.2777 283.3333 L -375.2777 316.6666 L -404.1451 333.3333 L -433.01259999999996 316.6667 L -433.0127 283.3334 Z"/><path fill="#000" stroke-width="0" d="M -375.2777 216.6667 L -346.4102 233.3333 L -346.4102 266.6666 L -375.2776 283.3333 L -404.14509999999996 266.6667 L -404.1452 233.3334 Z"/><path fill="#000" stroke-width="0" d="M -404.14519999999993 -233.3333 L -375.2776999999999 -216.6667 L -375.2776999999999 -183.3334 L -404.14509999999996 -166.6667 L -433.0125999999999 -183.3333 L -433.01269999999994 -216.6666 Z"/><path fill="#000" stroke-width="0" d="M -375.2776999999999 -183.3333 L -346.4101999999999 -166.6667 L -346.4101999999999 -133.3334 L -375.27759999999995 -116.66669999999999 L -404.1450999999999 -133.3333 L -404.14519999999993 -166.6666 Z"/><path fill="#000" stroke-width="0" d="M -404.14519999999993 -133.3333 L -375.2776999999999 -116.66669999999999 L -375.2776999999999 -83.3334 L -404.14509999999996 -66.66669999999999 L -433.0125999999999 -83.33330000000001 L -433.01269999999994 -116.6666 Z"/><path fill="#000" stroke-width="0" d="M -461.88019999999995 -133.3333 L -433.01269999999994 -116.66669999999999 L -433.01269999999994 -83.3334 L -461.88009999999997 -66.66669999999999 L -490.7475999999999 -83.33330000000001 L -490.74769999999995 -116.6666 Z"/><path fill="#000" stroke-width="0" d="M -490.74769999999995 -183.3333 L -461.88019999999995 -166.6667 L -461.88019999999995 -133.3334 L -490.7476 -116.66669999999999 L -519.6151 -133.3333 L -519.6152 -166.6666 Z"/><path fill="#000" stroke-width="0" d="M -461.88019999999995 -233.3333 L -433.01269999999994 -216.6667 L -433.01269999999994 -183.3334 L -461.88009999999997 -166.6667 L -490.7475999999999 -183.3333 L -490.74769999999995 -216.6666 Z"/><path fill="#000" stroke-width="0" d="M -317.54259999999994 -83.33330000000001 L -288.67509999999993 -66.66669999999999 L -288.67509999999993 -33.3334 L -317.54249999999996 -16.6667 L -346.4099999999999 -33.3333 L -346.41009999999994 -66.6666 Z"/><path fill="#000" stroke-width="0" d="M -288.67509999999993 -33.3333 L -259.8075999999999 -16.6667 L -259.8075999999999 16.6666 L -288.67499999999995 33.3333 L -317.5424999999999 16.6667 L -317.54259999999994 -16.6666 Z"/><path fill="#000" stroke-width="0" d="M -317.54259999999994 16.6667 L -288.67509999999993 33.3333 L -288.67509999999993 66.6666 L -317.54249999999996 83.33330000000001 L -346.4099999999999 66.66669999999999 L -346.41009999999994 33.3334 Z"/><path fill="#000" stroke-width="0" d="M -375.27759999999995 16.6667 L -346.41009999999994 33.3333 L -346.41009999999994 66.6666 L -375.2775 83.33330000000001 L -404.1449999999999 66.66669999999999 L -404.14509999999996 33.3334 Z"/><path fill="#000" stroke-width="0" d="M -404.14509999999996 -33.3333 L -375.27759999999995 -16.6667 L -375.27759999999995 16.6666 L -404.145 33.3333 L -433.01249999999993 16.6667 L -433.01259999999996 -16.6666 Z"/><path fill="#000" stroke-width="0" d="M -375.27759999999995 -83.33330000000001 L -346.41009999999994 -66.66669999999999 L -346.41009999999994 -33.3334 L -375.2775 -16.6667 L -404.1449999999999 -33.3333 L -404.14509999999996 -66.6666 Z"/><path fill="#000" stroke-width="0" d="M -404.14509999999996 66.66669999999999 L -375.27759999999995 83.33330000000001 L -375.27759999999995 116.6666 L -404.145 133.3333 L -433.01249999999993 116.66669999999999 L -433.01259999999996 83.3334 Z"/><path fill="#000" stroke-width="0" d="M -375.27759999999995 116.66669999999999 L -346.41009999999994 133.3333 L -346.41009999999994 166.6666 L -375.2775 183.3333 L -404.1449999999999 166.6667 L -404.14509999999996 133.3334 Z"/><path fill="#000" stroke-width="0" d="M -404.14509999999996 166.6667 L -375.27759999999995 183.3333 L -375.27759999999995 216.6666 L -404.145 233.3333 L -433.01249999999993 216.6667 L -433.01259999999996 183.3334 Z"/><path fill="#000" stroke-width="0" d="M -461.88009999999997 166.6667 L -433.01259999999996 183.3333 L -433.01259999999996 216.6666 L -461.88 233.3333 L -490.74749999999995 216.6667 L -490.7476 183.3334 Z"/><path fill="#000" stroke-width="0" d="M -490.7476 116.66669999999999 L -461.88009999999997 133.3333 L -461.88009999999997 166.6666 L -490.7475 183.3333 L -519.615 166.6667 L -519.6151 133.3334 Z"/><path fill="#000" stroke-width="0" d="M -461.88009999999997 66.66669999999999 L -433.01259999999996 83.33330000000001 L -433.01259999999996 116.6666 L -461.88 133.3333 L -490.74749999999995 116.66669999999999 L -490.7476 83.3334 Z"/><path fill="#000" stroke-width="0" d="M -577.3502 66.6668 L -548.4827 83.33340000000001 L -548.4827 116.6667 L -577.3501 133.3334 L -606.2176 116.6668 L -606.2176999999999 83.3335 Z"/><path fill="#000" stroke-width="0" d="M -548.4826999999999 116.6668 L -519.6152 133.3334 L -519.6152 166.6667 L -548.4825999999999 183.3334 L -577.3500999999999 166.6668 L -577.3501999999999 133.33350000000002 Z"/><path fill="#000" stroke-width="0" d="M -577.3502 166.6668 L -548.4827 183.3334 L -548.4827 216.6667 L -577.3501 233.3334 L -606.2176 216.6668 L -606.2176999999999 183.33350000000002 Z"/><path fill="#000" stroke-width="0" d="M -635.0851999999999 166.6668 L -606.2176999999999 183.3334 L -606.2176999999999 216.6667 L -635.0850999999999 233.3334 L -663.9525999999998 216.6668 L -663.9526999999998 183.33350000000002 Z"/><path fill="#000" stroke-width="0" d="M -663.9526999999999 116.6668 L -635.0852 133.3334 L -635.0852 166.6667 L -663.9526 183.3334 L -692.8200999999999 166.6668 L -692.8201999999999 133.33350000000002 Z"/><path fill="#000" stroke-width="0" d="M -635.0851999999999 66.6668 L -606.2176999999999 83.33340000000001 L -606.2176999999999 116.6667 L -635.0850999999999 133.3334 L -663.9525999999998 116.6668 L -663.9526999999998 83.3335 Z"/><path fill="#000" stroke-width="0" d="M -663.9528 -83.3332 L -635.0853000000001 -66.66659999999999 L -635.0853000000001 -33.333299999999994 L -663.9527 -16.666599999999995 L -692.8202 -33.3332 L -692.8203 -66.6665 Z"/><path fill="#000" stroke-width="0" d="M -635.0853 -33.3332 L -606.2178 -16.6666 L -606.2178 16.6667 L -635.0852 33.333400000000005 L -663.9526999999999 16.6668 L -663.9527999999999 -16.6665 Z"/><path fill="#000" stroke-width="0" d="M -663.9528 16.666800000000002 L -635.0853000000001 33.333400000000005 L -635.0853000000001 66.6667 L -663.9527 83.33340000000001 L -692.8202 66.6668 L -692.8203 33.3335 Z"/><path fill="#000" stroke-width="0" d="M -721.6877999999999 16.666800000000002 L -692.8203 33.333400000000005 L -692.8203 66.6667 L -721.6877 83.33340000000001 L -750.5551999999999 66.6668 L -750.5552999999999 33.3335 Z"/><path fill="#000" stroke-width="0" d="M -750.5553 -33.3332 L -721.6878 -16.6666 L -721.6878 16.6667 L -750.5552 33.333400000000005 L -779.4227 16.6668 L -779.4227999999999 -16.6665 Z"/><path fill="#000" stroke-width="0" d="M -721.6877999999999 -83.3332 L -692.8203 -66.66659999999999 L -692.8203 -33.333299999999994 L -721.6877 -16.666599999999995 L -750.5551999999999 -33.3332 L -750.5552999999999 -66.6665 Z"/><path fill="#000" stroke-width="0" d="M -577.3503 -233.3333 L -548.4828 -216.6667 L -548.4828 -183.3334 L -577.3502 -166.6667 L -606.2176999999999 -183.3333 L -606.2177999999999 -216.6666 Z"/><path fill="#000" stroke-width="0" d="M -548.4827999999999 -183.3333 L -519.6152999999999 -166.6667 L -519.6152999999999 -133.3334 L -548.4826999999999 -116.66669999999999 L -577.3501999999999 -133.3333 L -577.3502999999998 -166.6666 Z"/><path fill="#000" stroke-width="0" d="M -577.3503 -133.3333 L -548.4828 -116.66669999999999 L -548.4828 -83.3334 L -577.3502 -66.66669999999999 L -606.2176999999999 -83.33330000000001 L -606.2177999999999 -116.6666 Z"/><path fill="#000" stroke-width="0" d="M -635.0852999999998 -133.3333 L -606.2177999999999 -116.66669999999999 L -606.2177999999999 -83.3334 L -635.0851999999999 -66.66669999999999 L -663.9526999999998 -83.33330000000001 L -663.9527999999998 -116.6666 Z"/><path fill="#000" stroke-width="0" d="M -663.9527999999999 -183.3333 L -635.0853 -166.6667 L -635.0853 -133.3334 L -663.9526999999999 -116.66669999999999 L -692.8201999999999 -133.3333 L -692.8202999999999 -166.6666 Z"/><path fill="#000" stroke-width="0" d="M -635.0852999999998 -233.3333 L -606.2177999999999 -216.6667 L -606.2177999999999 -183.3334 L -635.0851999999999 -166.6667 L -663.9526999999998 -183.3333 L -663.9527999999998 -216.6666 Z"/><path fill="#000" stroke-width="0" d="M -144.33759999999995 -683.3333 L -115.47009999999995 -666.6667 L -115.47009999999995 -633.3334 L -144.33749999999995 -616.6667 L -173.20499999999996 -633.3333 L -173.20509999999996 -666.6666 Z"/><path fill="#000" stroke-width="0" d="M -115.47009999999996 -633.3333 L -86.60259999999997 -616.6667 L -86.60259999999997 -583.3334 L -115.46999999999996 -566.6667 L -144.33749999999995 -583.3333 L -144.33759999999995 -616.6666 Z"/><path fill="#000" stroke-width="0" d="M -144.33759999999995 -583.3333 L -115.47009999999995 -566.6667 L -115.47009999999995 -533.3334 L -144.33749999999995 -516.6667 L -173.20499999999996 -533.3333 L -173.20509999999996 -566.6666 Z"/><path fill="#000" stroke-width="0" d="M -202.07259999999997 -583.3333 L -173.20509999999996 -566.6667 L -173.20509999999996 -533.3334 L -202.07249999999996 -516.6667 L -230.93999999999997 -533.3333 L -230.94009999999997 -566.6666 Z"/><path fill="#000" stroke-width="0" d="M -230.94009999999997 -633.3333 L -202.07259999999997 -616.6667 L -202.07259999999997 -583.3334 L -230.93999999999997 -566.6667 L -259.80749999999995 -583.3333 L -259.8076 -616.6666 Z"/><path fill="#000" stroke-width="0" d="M -202.07259999999997 -683.3333 L -173.20509999999996 -666.6667 L -173.20509999999996 -633.3334 L -202.07249999999996 -616.6667 L -230.93999999999997 -633.3333 L -230.94009999999997 -666.6666 Z"/><path fill="#000" stroke-width="0" d="M -57.73499999999999 -533.3333 L -28.867499999999993 -516.6667 L -28.867499999999993 -483.3334 L -57.73489999999999 -466.6667 L -86.60239999999999 -483.3333 L -86.60249999999999 -516.6666 Z"/><path fill="#000" stroke-width="0" d="M -28.867499999999993 -483.3333 L 7.105427357601002e-15 -466.6667 L 7.105427357601002e-15 -433.3334 L -28.867399999999993 -416.6667 L -57.734899999999996 -433.3333 L -57.73499999999999 -466.6666 Z"/><path fill="#000" stroke-width="0" d="M -57.73499999999999 -433.3333 L -28.867499999999993 -416.6667 L -28.867499999999993 -383.3334 L -57.73489999999999 -366.6667 L -86.60239999999999 -383.3333 L -86.60249999999999 -416.6666 Z"/><path fill="#000" stroke-width="0" d="M -115.47 -433.3333 L -86.60249999999999 -416.6667 L -86.60249999999999 -383.3334 L -115.4699 -366.6667 L -144.3374 -383.3333 L -144.3375 -416.6666 Z"/><path fill="#000" stroke-width="0" d="M -144.33749999999998 -483.3333 L -115.46999999999997 -466.6667 L -115.46999999999997 -433.3334 L -144.33739999999997 -416.6667 L -173.20489999999998 -433.3333 L -173.20499999999998 -466.6666 Z"/><path fill="#000" stroke-width="0" d="M -115.47 -533.3333 L -86.60249999999999 -516.6667 L -86.60249999999999 -483.3334 L -115.4699 -466.6667 L -144.3374 -483.3333 L -144.3375 -516.6666 Z"/><path fill="#000" stroke-width="0" d="M -144.33749999999998 -383.3333 L -115.46999999999997 -366.6667 L -115.46999999999997 -333.3334 L -144.33739999999997 -316.6667 L -173.20489999999998 -333.3333 L -173.20499999999998 -366.6666 Z"/><path fill="#000" stroke-width="0" d="M -115.46999999999998 -333.3333 L -86.60249999999999 -316.6667 L -86.60249999999999 -283.3334 L -115.46989999999998 -266.6667 L -144.33739999999997 -283.3333 L -144.33749999999998 -316.6666 Z"/><path fill="#000" stroke-width="0" d="M -144.33749999999998 -283.3333 L -115.46999999999997 -266.6667 L -115.46999999999997 -233.3334 L -144.33739999999997 -216.6667 L -173.20489999999998 -233.3333 L -173.20499999999998 -266.6666 Z"/><path fill="#000" stroke-width="0" d="M -202.0725 -283.3333 L -173.20499999999998 -266.6667 L -173.20499999999998 -233.3334 L -202.0724 -216.6667 L -230.9399 -233.3333 L -230.94 -266.6666 Z"/><path fill="#000" stroke-width="0" d="M -230.94 -333.3333 L -202.0725 -316.6667 L -202.0725 -283.3334 L -230.9399 -266.6667 L -259.8074 -283.3333 L -259.8075 -316.6666 Z"/><path fill="#000" stroke-width="0" d="M -202.0725 -383.3333 L -173.20499999999998 -366.6667 L -173.20499999999998 -333.3334 L -202.0724 -316.6667 L -230.9399 -333.3333 L -230.94 -366.6666 Z"/><path fill="#000" stroke-width="0" d="M -317.5426 -383.33320000000003 L -288.6751 -366.6666 L -288.6751 -333.3333 L -317.5425 -316.6666 L -346.40999999999997 -333.33320000000003 L -346.4101 -366.66650000000004 Z"/><path fill="#000" stroke-width="0" d="M -288.6751 -333.33320000000003 L -259.8076 -316.6666 L -259.8076 -283.3333 L -288.675 -266.6666 L -317.54249999999996 -283.33320000000003 L -317.5426 -316.66650000000004 Z"/><path fill="#000" stroke-width="0" d="M -317.5426 -283.33320000000003 L -288.6751 -266.6666 L -288.6751 -233.33330000000004 L -317.5425 -216.66660000000002 L -346.40999999999997 -233.33320000000003 L -346.4101 -266.66650000000004 Z"/><path fill="#000" stroke-width="0" d="M -375.2776 -283.33320000000003 L -346.4101 -266.6666 L -346.4101 -233.33330000000004 L -375.27750000000003 -216.66660000000002 L -404.145 -233.33320000000003 L -404.1451 -266.66650000000004 Z"/><path fill="#000" stroke-width="0" d="M -404.1451 -333.33320000000003 L -375.2776 -316.6666 L -375.2776 -283.3333 L -404.14500000000004 -266.6666 L -433.0125 -283.33320000000003 L -433.0126 -316.66650000000004 Z"/><path fill="#000" stroke-width="0" d="M -375.2776 -383.33320000000003 L -346.4101 -366.6666 L -346.4101 -333.3333 L -375.27750000000003 -316.6666 L -404.145 -333.33320000000003 L -404.1451 -366.66650000000004 Z"/><path fill="#000" stroke-width="0" d="M -404.1452 -533.3332 L -375.2777 -516.6666 L -375.2777 -483.3333 L -404.1451 -466.6666 L -433.01259999999996 -483.33320000000003 L -433.0127 -516.6665 Z"/><path fill="#000" stroke-width="0" d="M -375.2777 -483.33320000000003 L -346.4102 -466.6666 L -346.4102 -433.3333 L -375.2776 -416.6666 L -404.14509999999996 -433.33320000000003 L -404.1452 -466.66650000000004 Z"/><path fill="#000" stroke-width="0" d="M -404.1452 -433.33320000000003 L -375.2777 -416.6666 L -375.2777 -383.3333 L -404.1451 -366.6666 L -433.01259999999996 -383.33320000000003 L -433.0127 -416.66650000000004 Z"/><path fill="#000" stroke-width="0" d="M -461.8802 -433.33320000000003 L -433.0127 -416.6666 L -433.0127 -383.3333 L -461.8801 -366.6666 L -490.7476 -383.33320000000003 L -490.7477 -416.66650000000004 Z"/><path fill="#000" stroke-width="0" d="M -490.7477 -483.33320000000003 L -461.8802 -466.6666 L -461.8802 -433.3333 L -490.74760000000003 -416.6666 L -519.6151 -433.33320000000003 L -519.6152 -466.66650000000004 Z"/><path fill="#000" stroke-width="0" d="M -461.8802 -533.3332 L -433.0127 -516.6666 L -433.0127 -483.3333 L -461.8801 -466.6666 L -490.7476 -483.33320000000003 L -490.7477 -516.6665 Z"/><path fill="#000" stroke-width="0" d="M -317.54269999999997 -683.3333 L -288.67519999999996 -666.6667 L -288.67519999999996 -633.3334 L -317.5426 -616.6667 L -346.41009999999994 -633.3333 L -346.4102 -666.6666 Z"/><path fill="#000" stroke-width="0" d="M -288.67519999999996 -633.3333 L -259.80769999999995 -616.6667 L -259.80769999999995 -583.3334 L -288.6751 -566.6667 L -317.54259999999994 -583.3333 L -317.54269999999997 -616.6666 Z"/><path fill="#000" stroke-width="0" d="M -317.54269999999997 -583.3333 L -288.67519999999996 -566.6667 L -288.67519999999996 -533.3334 L -317.5426 -516.6667 L -346.41009999999994 -533.3333 L -346.4102 -566.6666 Z"/><path fill="#000" stroke-width="0" d="M -375.2777 -583.3333 L -346.4102 -566.6667 L -346.4102 -533.3334 L -375.2776 -516.6667 L -404.14509999999996 -533.3333 L -404.1452 -566.6666 Z"/><path fill="#000" stroke-width="0" d="M -404.1452 -633.3333 L -375.2777 -616.6667 L -375.2777 -583.3334 L -404.1451 -566.6667 L -433.01259999999996 -583.3333 L -433.0127 -616.6666 Z"/><path fill="#000" stroke-width="0" d="M -375.2777 -683.3333 L -346.4102 -666.6667 L -346.4102 -633.3334 L -375.2776 -616.6667 L -404.14509999999996 -633.3333 L -404.1452 -666.6666 Z"/></g></svg>