<svg xmlns="http://www.w3.org/2000/svg" xmlns:xlink="http://wwww3.org/1999/xlink" width="100%" height="100%" stroke-linecap="round" stroke-linejoin="round" viewBox="-1000 -1000 2000 2000" xml:space="preserve"><g><path fill="#000" stroke-width="0" d="M 0 -855.9509628511977 L 50.1553 -819.5109628511976 L 30.9976 -760.5498628511976 L -30.9978 -760.5499628511977 L -50.1553 -819.5111628511977 Z"/><path fill="#000" stroke-width="0" d="M 81.153 -796.9898628511977 L 131.3083 -760.5498628511976 L 112.1506 -701.5887628511977 L 50.15520000000001 -701.5888628511977 L 30.99770000000001 -760.5500628511977 Z"/><path fill="#000" stroke-width="0" d="M 50.1553 -701.5887628511977 L 100.3106 -665.1487628511976 L 81.15289999999999 -606.1876628511976 L 19.157499999999995 -606.1877628511977 L 0 -665.1489628511977 Z"/><path fill="#000" stroke-width="0" d="M -50.1553 -701.5887628511977 L 0 -665.1487628511976 L -19.1577 -606.1876628511976 L -81.1531 -606.1877628511977 L -100.3106 -665.1489628511977 Z"/><path fill="#000" stroke-width="0" d="M -81.153 -796.9898628511977 L -30.99770000000001 -760.5498628511976 L -50.15540000000001 -701.5887628511977 L -112.1508 -701.5888628511977 L -131.3083 -760.5500628511977 Z"/><path fill="#000" stroke-width="0" d="M 212.4612 -701.5888628511977 L 262.6165 -665.1488628511977 L 243.4588 -606.1877628511977 L 181.46339999999998 -606.1878628511978 L 162.3059 -665.1490628511978 Z"/><path fill="#000" stroke-width="0" d="M 293.6142 -642.6277628511978 L 343.7695 -606.1877628511977 L 324.61179999999996 -547.2266628511977 L 262.6164 -547.2267628511978 L 243.45889999999997 -606.1879628511978 Z"/><path fill="#000" stroke-width="0" d="M 262.6165 -547.2266628511977 L 312.7718 -510.7866628511978 L 293.61409999999995 -451.8255628511978 L 231.61869999999996 -451.82566285119776 L 212.46119999999996 -510.7868628511978 Z"/><path fill="#000" stroke-width="0" d="M 162.3059 -547.2266628511977 L 212.46120000000002 -510.7866628511978 L 193.3035 -451.8255628511978 L 131.3081 -451.82566285119776 L 112.15060000000001 -510.7868628511978 Z"/><path fill="#000" stroke-width="0" d="M 131.3082 -642.6277628511978 L 181.4635 -606.1877628511977 L 162.3058 -547.2266628511977 L 100.3104 -547.2267628511978 L 81.1529 -606.1879628511978 Z"/><path fill="#000" stroke-width="0" d="M 131.3082 -451.82576285119774 L 181.4635 -415.38576285119774 L 162.3058 -356.42466285119775 L 100.3104 -356.4247628511977 L 81.1529 -415.38596285119775 Z"/><path fill="#000" stroke-width="0" d="M 212.46120000000002 -392.86466285119775 L 262.61650000000003 -356.42466285119775 L 243.45880000000002 -297.46356285119776 L 181.4634 -297.46366285119774 L 162.3059 -356.42486285119776 Z"/><path fill="#000" stroke-width="0" d="M 181.4635 -297.46356285119776 L 231.61880000000002 -261.02356285119777 L 212.46110000000002 -202.06246285119775 L 150.4657 -202.06256285119775 L 131.3082 -261.0237628511978 Z"/><path fill="#000" stroke-width="0" d="M 81.1529 -297.46356285119776 L 131.3082 -261.02356285119777 L 112.1505 -202.06246285119775 L 50.155100000000004 -202.06256285119775 L 30.997600000000006 -261.0237628511978 Z"/><path fill="#000" stroke-width="0" d="M 50.155199999999994 -392.86466285119775 L 100.31049999999999 -356.42466285119775 L 81.15279999999998 -297.46356285119776 L 19.157399999999992 -297.46366285119774 L -0.00010000000000331966 -356.42486285119776 Z"/><path fill="#000" stroke-width="0" d="M -131.3083 -451.82576285119774 L -81.153 -415.38576285119774 L -100.3107 -356.42466285119775 L -162.30610000000001 -356.4247628511977 L -181.46359999999999 -415.38596285119775 Z"/><path fill="#000" stroke-width="0" d="M -50.1553 -392.86466285119775 L 0 -356.42466285119775 L -19.1577 -297.46356285119776 L -81.1531 -297.46366285119774 L -100.3106 -356.42486285119776 Z"/><path fill="#000" stroke-width="0" d="M -81.153 -297.46356285119776 L -30.99770000000001 -261.02356285119777 L -50.15540000000001 -202.06246285119775 L -112.1508 -202.06256285119775 L -131.3083 -261.0237628511978 Z"/><path fill="#000" stroke-width="0" d="M -181.46359999999999 -297.46356285119776 L -131.30829999999997 -261.02356285119777 L -150.46599999999998 -202.06246285119775 L -212.4614 -202.06256285119775 L -231.6189 -261.0237628511978 Z"/><path fill="#000" stroke-width="0" d="M -212.4613 -392.86466285119775 L -162.30599999999998 -356.42466285119775 L -181.4637 -297.46356285119776 L -243.4591 -297.46366285119774 L -262.6166 -356.42486285119776 Z"/><path fill="#000" stroke-width="0" d="M -212.4612 -701.5889628511977 L -162.3059 -665.1489628511977 L -181.46359999999999 -606.1878628511977 L -243.459 -606.1879628511978 L -262.6165 -665.1491628511977 Z"/><path fill="#000" stroke-width="0" d="M -131.3082 -642.6278628511977 L -81.1529 -606.1878628511977 L -100.3106 -547.2267628511977 L -162.306 -547.2268628511978 L -181.4635 -606.1880628511977 Z"/><path fill="#000" stroke-width="0" d="M -162.3059 -547.2267628511977 L -112.15060000000001 -510.78676285119775 L -131.3083 -451.82566285119776 L -193.30370000000002 -451.82576285119774 L -212.46120000000002 -510.78696285119776 Z"/><path fill="#000" stroke-width="0" d="M -262.6165 -547.2267628511977 L -212.46119999999996 -510.78676285119775 L -231.61889999999997 -451.82566285119776 L -293.61429999999996 -451.82576285119774 L -312.7718 -510.78696285119776 Z"/><path fill="#000" stroke-width="0" d="M -293.6142 -642.6278628511977 L -243.45889999999997 -606.1878628511977 L -262.6166 -547.2267628511977 L -324.61199999999997 -547.2268628511978 L -343.7695 -606.1880628511977 Z"/><path fill="#000" stroke-width="0" d="M 556.2306 -451.82576285119774 L 606.3859 -415.38576285119774 L 587.2282 -356.42466285119775 L 525.2328 -356.4247628511977 L 506.07529999999997 -415.38596285119775 Z"/><path fill="#000" stroke-width="0" d="M 637.3836 -392.86466285119775 L 687.5389 -356.42466285119775 L 668.3812 -297.46356285119776 L 606.3858 -297.46366285119774 L 587.2283 -356.42486285119776 Z"/><path fill="#000" stroke-width="0" d="M 606.3859 -297.46356285119776 L 656.5412 -261.02356285119777 L 637.3835 -202.06246285119775 L 575.3881 -202.06256285119775 L 556.2306 -261.0237628511978 Z"/><path fill="#000" stroke-width="0" d="M 506.07529999999997 -297.46356285119776 L 556.2306 -261.02356285119777 L 537.0729 -202.06246285119775 L 475.0775 -202.06256285119775 L 455.91999999999996 -261.0237628511978 Z"/><path fill="#000" stroke-width="0" d="M 475.07759999999996 -392.86466285119775 L 525.2329 -356.42466285119775 L 506.07519999999994 -297.46356285119776 L 444.0798 -297.46366285119774 L 424.92229999999995 -356.42486285119776 Z"/><path fill="#000" stroke-width="0" d="M 768.6918 -297.46366285119774 L 818.8471 -261.02366285119774 L 799.6894 -202.06256285119773 L 737.694 -202.06266285119773 L 718.5364999999999 -261.02386285119775 Z"/><path fill="#000" stroke-width="0" d="M 849.8448 -238.50256285119775 L 900.0001 -202.06256285119775 L 880.8424 -143.10146285119774 L 818.847 -143.10156285119774 L 799.6895 -202.06276285119776 Z"/><path fill="#000" stroke-width="0" d="M 818.8471 -143.10146285119777 L 869.0024 -106.66146285119774 L 849.8447 -47.700362851197745 L 787.8493 -47.70046285119775 L 768.6918 -106.66166285119775 Z"/><path fill="#000" stroke-width="0" d="M 718.5364999999999 -143.10146285119777 L 768.6918 -106.66146285119774 L 749.5341 -47.700362851197745 L 687.5387 -47.70046285119775 L 668.3811999999999 -106.66166285119775 Z"/><path fill="#000" stroke-width="0" d="M 687.5387999999999 -238.50256285119775 L 737.6940999999999 -202.06256285119775 L 718.5364 -143.10146285119774 L 656.5409999999999 -143.10156285119774 L 637.3834999999999 -202.06276285119776 Z"/><path fill="#000" stroke-width="0" d="M 687.5388 -47.700562851197745 L 737.6941 -11.26056285119774 L 718.5364000000001 47.70053714880226 L 656.541 47.70043714880226 L 637.3835 -11.260762851197743 Z"/><path fill="#000" stroke-width="0" d="M 768.6918000000001 11.260537148802257 L 818.8471000000001 47.70053714880226 L 799.6894000000001 106.66163714880227 L 737.6940000000001 106.66153714880227 L 718.5365 47.70033714880226 Z"/><path fill="#000" stroke-width="0" d="M 737.6941 106.66163714880224 L 787.8494000000001 143.10163714880224 L 768.6917000000001 202.06273714880226 L 706.6963000000001 202.06263714880225 L 687.5388 143.10143714880223 Z"/><path fill="#000" stroke-width="0" d="M 637.3835 106.66163714880224 L 687.5388 143.10163714880224 L 668.3811000000001 202.06273714880226 L 606.3857 202.06263714880225 L 587.2282 143.10143714880223 Z"/><path fill="#000" stroke-width="0" d="M 606.3858 11.260537148802257 L 656.5411 47.70053714880226 L 637.3834 106.66163714880227 L 575.388 106.66153714880227 L 556.2305 47.70033714880226 Z"/><path fill="#000" stroke-width="0" d="M 424.92229999999995 -47.700562851197745 L 475.07759999999996 -11.26056285119774 L 455.9198999999999 47.70053714880226 L 393.92449999999997 47.70043714880226 L 374.76699999999994 -11.260762851197743 Z"/><path fill="#000" stroke-width="0" d="M 506.07529999999997 11.260537148802257 L 556.2306 47.70053714880226 L 537.0729 106.66163714880227 L 475.0775 106.66153714880227 L 455.91999999999996 47.70033714880226 Z"/><path fill="#000" stroke-width="0" d="M 475.07759999999996 106.66163714880224 L 525.2329 143.10163714880224 L 506.07519999999994 202.06273714880226 L 444.0798 202.06263714880225 L 424.92229999999995 143.10143714880223 Z"/><path fill="#000" stroke-width="0" d="M 374.76699999999994 106.66163714880224 L 424.92229999999995 143.10163714880224 L 405.7645999999999 202.06273714880226 L 343.76919999999996 202.06263714880225 L 324.6116999999999 143.10143714880223 Z"/><path fill="#000" stroke-width="0" d="M 343.76929999999993 11.260537148802257 L 393.92459999999994 47.70053714880226 L 374.7668999999999 106.66163714880227 L 312.77149999999995 106.66153714880227 L 293.6139999999999 47.70033714880226 Z"/><path fill="#000" stroke-width="0" d="M 343.7694 -297.4637628511977 L 393.92470000000003 -261.0237628511977 L 374.767 -202.0626628511977 L 312.77160000000003 -202.0627628511977 L 293.6141 -261.0239628511977 Z"/><path fill="#000" stroke-width="0" d="M 424.92240000000004 -238.50266285119773 L 475.07770000000005 -202.06266285119773 L 455.92 -143.1015628511977 L 393.92460000000005 -143.10166285119772 L 374.7671 -202.06286285119774 Z"/><path fill="#000" stroke-width="0" d="M 393.92470000000003 -143.10156285119774 L 444.08000000000004 -106.66156285119771 L 424.9223 -47.70046285119772 L 362.92690000000005 -47.70056285119772 L 343.7694 -106.66176285119772 Z"/><path fill="#000" stroke-width="0" d="M 293.6141 -143.10156285119774 L 343.7694 -106.66156285119771 L 324.6117 -47.70046285119772 L 262.6163 -47.70056285119772 L 243.4588 -106.66176285119772 Z"/><path fill="#000" stroke-width="0" d="M 262.6164 -238.50266285119773 L 312.7717 -202.06266285119773 L 293.614 -143.1015628511977 L 231.6186 -143.10166285119772 L 212.4611 -202.06286285119774 Z"/><path fill="#000" stroke-width="0" d="M 343.7694 202.06253714880233 L 393.92470000000003 238.50253714880233 L 374.767 297.4636371488023 L 312.77160000000003 297.46353714880235 L 293.6141 238.50233714880233 Z"/><path fill="#000" stroke-width="0" d="M 424.92240000000004 261.0236371488023 L 475.07770000000005 297.4636371488023 L 455.92 356.4247371488023 L 393.92460000000005 356.42463714880233 L 374.7671 297.4634371488023 Z"/><path fill="#000" stroke-width="0" d="M 393.92470000000003 356.4247371488023 L 444.08000000000004 392.8647371488023 L 424.9223 451.8258371488023 L 362.92690000000005 451.8257371488023 L 343.7694 392.8645371488023 Z"/><path fill="#000" stroke-width="0" d="M 293.6141 356.4247371488023 L 343.7694 392.8647371488023 L 324.6117 451.8258371488023 L 262.6163 451.8257371488023 L 243.4588 392.8645371488023 Z"/><path fill="#000" stroke-width="0" d="M 262.6164 261.0236371488023 L 312.7717 297.4636371488023 L 293.614 356.4247371488023 L 231.6186 356.42463714880233 L 212.4611 297.4634371488023 Z"/><path fill="#000" stroke-width="0" d="M 556.2306 356.42463714880233 L 606.3859 392.86463714880233 L 587.2282 451.8257371488023 L 525.2328 451.82563714880234 L 506.07529999999997 392.8644371488023 Z"/><path fill="#000" stroke-width="0" d="M 637.3836 415.3857371488023 L 687.5389 451.8257371488023 L 668.3812 510.7868371488023 L 606.3858 510.78673714880233 L 587.2283 451.8255371488023 Z"/><path fill="#000" stroke-width="0" d="M 606.3859 510.7868371488023 L 656.5412 547.2268371488024 L 637.3835 606.1879371488023 L 575.3881 606.1878371488023 L 556.2306 547.2266371488023 Z"/><path fill="#000" stroke-width="0" d="M 506.07529999999997 510.7868371488023 L 556.2306 547.2268371488024 L 537.0729 606.1879371488023 L 475.0775 606.1878371488023 L 455.91999999999996 547.2266371488023 Z"/><path fill="#000" stroke-width="0" d="M 475.07759999999996 415.3857371488023 L 525.2329 451.8257371488023 L 506.07519999999994 510.7868371488023 L 444.0798 510.78673714880233 L 424.92229999999995 451.8255371488023 Z"/><path fill="#000" stroke-width="0" d="M 475.0776 606.1877371488023 L 525.2329 642.6277371488023 L 506.0752 701.5888371488023 L 444.07980000000003 701.5887371488022 L 424.9223 642.6275371488023 Z"/><path fill="#000" stroke-width="0" d="M 556.2306 665.1488371488023 L 606.3859 701.5888371488023 L 587.2282 760.5499371488023 L 525.2328 760.5498371488022 L 506.07529999999997 701.5886371488023 Z"/><path fill="#000" stroke-width="0" d="M 525.2329 760.5499371488023 L 575.3882 796.9899371488024 L 556.2305 855.9510371488024 L 494.2351 855.9509371488023 L 475.07759999999996 796.9897371488023 Z"/><path fill="#000" stroke-width="0" d="M 424.9223 760.5499371488023 L 475.0776 796.9899371488024 L 455.9199 855.9510371488024 L 393.9245 855.9509371488023 L 374.767 796.9897371488023 Z"/><path fill="#000" stroke-width="0" d="M 393.9246 665.1488371488023 L 444.0799 701.5888371488023 L 424.9222 760.5499371488023 L 362.9268 760.5498371488022 L 343.7693 701.5886371488023 Z"/><path fill="#000" stroke-width="0" d="M 212.46110000000002 606.1877371488023 L 262.6164 642.6277371488023 L 243.45870000000002 701.5888371488023 L 181.4633 701.5887371488022 L 162.30580000000003 642.6275371488023 Z"/><path fill="#000" stroke-width="0" d="M 293.6141 665.1488371488023 L 343.7694 701.5888371488023 L 324.6117 760.5499371488023 L 262.6163 760.5498371488022 L 243.4588 701.5886371488023 Z"/><path fill="#000" stroke-width="0" d="M 262.6164 760.5499371488023 L 312.7717 796.9899371488024 L 293.614 855.9510371488024 L 231.6186 855.9509371488023 L 212.4611 796.9897371488023 Z"/><path fill="#000" stroke-width="0" d="M 162.30580000000003 760.5499371488023 L 212.46110000000004 796.9899371488024 L 193.30340000000004 855.9510371488024 L 131.30800000000002 855.9509371488023 L 112.15050000000004 796.9897371488023 Z"/><path fill="#000" stroke-width="0" d="M 131.30810000000002 665.1488371488023 L 181.46340000000004 701.5888371488023 L 162.30570000000003 760.5499371488023 L 100.31030000000003 760.5498371488022 L 81.15280000000003 701.5886371488023 Z"/><path fill="#000" stroke-width="0" d="M 131.30820000000003 356.42453714880236 L 181.4635 392.86453714880236 L 162.30580000000003 451.82563714880234 L 100.31040000000003 451.82553714880237 L 81.15290000000003 392.86433714880235 Z"/><path fill="#000" stroke-width="0" d="M 212.46120000000002 415.38563714880235 L 262.61650000000003 451.82563714880234 L 243.45880000000002 510.78673714880233 L 181.4634 510.78663714880236 L 162.3059 451.82543714880234 Z"/><path fill="#000" stroke-width="0" d="M 181.4635 510.78673714880233 L 231.61880000000002 547.2267371488024 L 212.46110000000002 606.1878371488024 L 150.4657 606.1877371488023 L 131.3082 547.2265371488023 Z"/><path fill="#000" stroke-width="0" d="M 81.15290000000003 510.78673714880233 L 131.30820000000003 547.2267371488024 L 112.15050000000002 606.1878371488024 L 50.15510000000003 606.1877371488023 L 30.997600000000034 547.2265371488023 Z"/><path fill="#000" stroke-width="0" d="M 50.15520000000002 415.38563714880235 L 100.31050000000002 451.82563714880234 L 81.15280000000001 510.78673714880233 L 19.15740000000002 510.78663714880236 L -0.00009999999997489795 451.82543714880234 Z"/><path fill="#000" stroke-width="0" d="M -343.7694 202.06253714880233 L -293.6141 238.50253714880233 L -312.77180000000004 297.4636371488023 L -374.7672 297.46353714880235 L -393.92470000000003 238.50233714880233 Z"/><path fill="#000" stroke-width="0" d="M -262.6164 261.0236371488023 L -212.4611 297.4636371488023 L -231.6188 356.4247371488023 L -293.6142 356.42463714880233 L -312.7717 297.4634371488023 Z"/><path fill="#000" stroke-width="0" d="M -293.6141 356.4247371488023 L -243.4588 392.8647371488023 L -262.61650000000003 451.8258371488023 L -324.6119 451.8257371488023 L -343.7694 392.8645371488023 Z"/><path fill="#000" stroke-width="0" d="M -393.92470000000003 356.4247371488023 L -343.7694 392.8647371488023 L -362.92710000000005 451.8258371488023 L -424.9225 451.8257371488023 L -444.08000000000004 392.8645371488023 Z"/><path fill="#000" stroke-width="0" d="M -424.92240000000004 261.0236371488023 L -374.7671 297.4636371488023 L -393.92480000000006 356.4247371488023 L -455.9202 356.42463714880233 L -475.07770000000005 297.4634371488023 Z"/><path fill="#000" stroke-width="0" d="M -131.30820000000003 356.42463714880233 L -81.15290000000003 392.86463714880233 L -100.31060000000002 451.8257371488023 L -162.30600000000004 451.82563714880234 L -181.4635 392.8644371488023 Z"/><path fill="#000" stroke-width="0" d="M -50.15520000000002 415.3857371488023 L 0.00009999999997489795 451.8257371488023 L -19.157600000000023 510.7868371488023 L -81.15300000000002 510.78673714880233 L -100.31050000000002 451.8255371488023 Z"/><path fill="#000" stroke-width="0" d="M -81.15290000000003 510.7868371488023 L -30.997600000000034 547.2268371488024 L -50.15530000000003 606.1879371488023 L -112.15070000000003 606.1878371488023 L -131.30820000000003 547.2266371488023 Z"/><path fill="#000" stroke-width="0" d="M -181.4635 510.7868371488023 L -131.3082 547.2268371488024 L -150.4659 606.1879371488023 L -212.46130000000002 606.1878371488023 L -231.61880000000002 547.2266371488023 Z"/><path fill="#000" stroke-width="0" d="M -212.46120000000002 415.3857371488023 L -162.3059 451.8257371488023 L -181.4636 510.7868371488023 L -243.45900000000003 510.78673714880233 L -262.61650000000003 451.8255371488023 Z"/><path fill="#000" stroke-width="0" d="M -212.46120000000002 606.1877371488023 L -162.3059 642.6277371488023 L -181.4636 701.5888371488023 L -243.45900000000003 701.5887371488022 L -262.61650000000003 642.6275371488023 Z"/><path fill="#000" stroke-width="0" d="M -131.3082 665.1488371488023 L -81.1529 701.5888371488023 L -100.3106 760.5499371488023 L -162.306 760.5498371488022 L -181.4635 701.5886371488023 Z"/><path fill="#000" stroke-width="0" d="M -162.3059 760.5499371488023 L -112.15060000000001 796.9899371488024 L -131.3083 855.9510371488024 L -193.30370000000002 855.9509371488023 L -212.46120000000002 796.9897371488023 Z"/><path fill="#000" stroke-width="0" d="M -262.61650000000003 760.5499371488023 L -212.46120000000002 796.9899371488024 L -231.61890000000002 855.9510371488024 L -293.6143 855.9509371488023 L -312.77180000000004 796.9897371488023 Z"/><path fill="#000" stroke-width="0" d="M -293.61420000000004 665.1488371488023 L -243.45890000000003 701.5888371488023 L -262.61660000000006 760.5499371488023 L -324.612 760.5498371488022 L -343.76950000000005 701.5886371488023 Z"/><path fill="#000" stroke-width="0" d="M -475.07770000000005 606.1877371488023 L -424.92240000000004 642.6277371488023 L -444.0801000000001 701.5888371488023 L -506.07550000000003 701.5887371488022 L -525.2330000000001 642.6275371488023 Z"/><path fill="#000" stroke-width="0" d="M -393.92470000000003 665.1488371488023 L -343.7694 701.5888371488023 L -362.92710000000005 760.5499371488023 L -424.9225 760.5498371488022 L -444.08000000000004 701.5886371488023 Z"/><path fill="#000" stroke-width="0" d="M -424.92240000000004 760.5499371488023 L -374.7671 796.9899371488024 L -393.92480000000006 855.9510371488024 L -455.9202 855.9509371488023 L -475.07770000000005 796.9897371488023 Z"/><path fill="#000" stroke-width="0" d="M -525.2330000000001 760.5499371488023 L -475.07770000000005 796.9899371488024 L -494.2354000000001 855.9510371488024 L -556.2308 855.9509371488023 L -575.3883000000001 796.9897371488023 Z"/><path fill="#000" stroke-width="0" d="M -556.2307000000001 665.1488371488023 L -506.07540000000006 701.5888371488023 L -525.2331 760.5499371488023 L -587.2285 760.5498371488022 L -606.3860000000001 701.5886371488023 Z"/><path fill="#000" stroke-width="0" d="M -556.2306 356.42453714880236 L -506.07529999999997 392.86453714880236 L -525.233 451.82563714880234 L -587.2284 451.82553714880237 L -606.3859 392.86433714880235 Z"/><path fill="#000" stroke-width="0" d="M -475.07759999999996 415.38563714880235 L -424.92229999999995 451.82563714880234 L -444.08 510.78673714880233 L -506.07539999999995 510.78663714880236 L -525.2329 451.82543714880234 Z"/><path fill="#000" stroke-width="0" d="M -506.07529999999997 510.78673714880233 L -455.91999999999996 547.2267371488024 L -475.0777 606.1878371488024 L -537.0731 606.1877371488023 L -556.2306 547.2265371488023 Z"/><path fill="#000" stroke-width="0" d="M -606.3859 510.78673714880233 L -556.2306 547.2267371488024 L -575.3883 606.1878371488024 L -637.3837 606.1877371488023 L -656.5412 547.2265371488023 Z"/><path fill="#000" stroke-width="0" d="M -637.3836 415.38563714880235 L -587.2283 451.82563714880234 L -606.386 510.78673714880233 L -668.3814 510.78663714880236 L -687.5389 451.82543714880234 Z"/><path fill="#000" stroke-width="0" d="M -556.2306 -451.82576285119774 L -506.07529999999997 -415.38576285119774 L -525.233 -356.42466285119775 L -587.2284 -356.4247628511977 L -606.3859 -415.38596285119775 Z"/><path fill="#000" stroke-width="0" d="M -475.07759999999996 -392.86466285119775 L -424.92229999999995 -356.42466285119775 L -444.08 -297.46356285119776 L -506.07539999999995 -297.46366285119774 L -525.2329 -356.42486285119776 Z"/><path fill="#000" stroke-width="0" d="M -506.07529999999997 -297.46356285119776 L -455.91999999999996 -261.02356285119777 L -475.0777 -202.06246285119775 L -537.0731 -202.06256285119775 L -556.2306 -261.0237628511978 Z"/><path fill="#000" stroke-width="0" d="M -606.3859 -297.46356285119776 L -556.2306 -261.02356285119777 L -575.3883 -202.06246285119775 L -637.3837 -202.06256285119775 L -656.5412 -261.0237628511978 Z"/><path fill="#000" stroke-width="0" d="M -637.3836 -392.86466285119775 L -587.2283 -356.42466285119775 L -606.386 -297.46356285119776 L -668.3814 -297.46366285119774 L -687.5389 -356.42486285119776 Z"/><path fill="#000" stroke-width="0" d="M -343.7694 -297.46366285119774 L -293.6141 -261.02366285119774 L -312.77180000000004 -202.06256285119773 L -374.7672 -202.06266285119773 L -393.92470000000003 -261.02386285119775 Z"/><path fill="#000" stroke-width="0" d="M -262.6164 -238.50256285119775 L -212.4611 -202.06256285119775 L -231.6188 -143.10146285119774 L -293.6142 -143.10156285119774 L -312.7717 -202.06276285119776 Z"/><path fill="#000" stroke-width="0" d="M -293.6141 -143.10146285119777 L -243.4588 -106.66146285119774 L -262.61650000000003 -47.700362851197745 L -324.6119 -47.70046285119775 L -343.7694 -106.66166285119775 Z"/><path fill="#000" stroke-width="0" d="M -393.92470000000003 -143.10146285119777 L -343.7694 -106.66146285119774 L -362.92710000000005 -47.700362851197745 L -424.9225 -47.70046285119775 L -444.08000000000004 -106.66166285119775 Z"/><path fill="#000" stroke-width="0" d="M -424.92240000000004 -238.50256285119775 L -374.7671 -202.06256285119775 L -393.92480000000006 -143.10146285119774 L -455.9202 -143.10156285119774 L -475.07770000000005 -202.06276285119776 Z"/><path fill="#000" stroke-width="0" d="M -424.9224 -47.700562851197745 L -374.76709999999997 -11.26056285119774 L -393.9248 47.70053714880226 L -455.92019999999997 47.70043714880226 L -475.0777 -11.260762851197743 Z"/><path fill="#000" stroke-width="0" d="M -343.76939999999996 11.260537148802257 L -293.61409999999995 47.70053714880226 L -312.7718 106.66163714880227 L -374.76719999999995 106.66153714880227 L -393.9247 47.70033714880226 Z"/><path fill="#000" stroke-width="0" d="M -374.76709999999997 106.66163714880224 L -324.61179999999996 143.10163714880224 L -343.7695 202.06273714880226 L -405.76489999999995 202.06263714880225 L -424.9224 143.10143714880223 Z"/><path fill="#000" stroke-width="0" d="M -475.0777 106.66163714880224 L -424.9224 143.10163714880224 L -444.0801 202.06273714880226 L -506.0755 202.06263714880225 L -525.233 143.10143714880223 Z"/><path fill="#000" stroke-width="0" d="M -506.0754 11.260537148802257 L -455.9201 47.70053714880226 L -475.0778 106.66163714880227 L -537.0732 106.66153714880227 L -556.2307 47.70033714880226 Z"/><path fill="#000" stroke-width="0" d="M -687.5389 -47.700562851197745 L -637.3836 -11.26056285119774 L -656.5413 47.70053714880226 L -718.5367 47.70043714880226 L -737.6942 -11.260762851197743 Z"/><path fill="#000" stroke-width="0" d="M -606.3859 11.260537148802257 L -556.2306 47.70053714880226 L -575.3883 106.66163714880227 L -637.3837 106.66153714880227 L -656.5412 47.70033714880226 Z"/><path fill="#000" stroke-width="0" d="M -637.3836 106.66163714880224 L -587.2283 143.10163714880224 L -606.386 202.06273714880226 L -668.3814 202.06263714880225 L -687.5389 143.10143714880223 Z"/><path fill="#000" stroke-width="0" d="M -737.6942 106.66163714880224 L -687.5389 143.10163714880224 L -706.6966 202.06273714880226 L -768.692 202.06263714880225 L -787.8495 143.10143714880223 Z"/><path fill="#000" stroke-width="0" d="M -768.6919 11.260537148802257 L -718.5366 47.70053714880226 L -737.6943 106.66163714880227 L -799.6897 106.66153714880227 L -818.8472 47.70033714880226 Z"/><path fill="#000" stroke-width="0" d="M -768.6918 -297.4637628511977 L -718.5364999999999 -261.0237628511977 L -737.6941999999999 -202.0626628511977 L -799.6895999999999 -202.0627628511977 L -818.8471 -261.0239628511977 Z"/><path fill="#000" stroke-width="0" d="M -687.5387999999999 -238.50266285119773 L -637.3834999999999 -202.06266285119773 L -656.5411999999999 -143.1015628511977 L -718.5365999999999 -143.10166285119772 L -737.6940999999999 -202.06286285119774 Z"/><path fill="#000" stroke-width="0" d="M -718.5364999999999 -143.10156285119774 L -668.3811999999999 -106.66156285119771 L -687.5388999999999 -47.70046285119772 L -749.5342999999999 -47.70056285119772 L -768.6918 -106.66176285119772 Z"/><path fill="#000" stroke-width="0" d="M -818.8471 -143.10156285119774 L -768.6918 -106.66156285119771 L -787.8494999999999 -47.70046285119772 L -849.8448999999999 -47.70056285119772 L -869.0024 -106.66176285119772 Z"/><path fill="#000" stroke-width="0" d="M -849.8448 -238.50266285119773 L -799.6895 -202.06266285119773 L -818.8471999999999 -143.1015628511977 L -880.8426 -143.10166285119772 L -900.0001 -202.06286285119774 Z"/><path fill="#000" stroke-width="0" d="M 0 -47.700562851197745 L 50.1553 -11.26056285119774 L 30.9976 47.70053714880226 L -30.9978 47.70043714880226 L -50.1553 -11.260762851197743 Z"/><path fill="#000" stroke-width="0" d="M 81.153 11.260537148802257 L 131.3083 47.70053714880226 L 112.1506 106.66163714880227 L 50.15520000000001 106.66153714880227 L 30.99770000000001 47.70033714880226 Z"/><path fill="#000" stroke-width="0" d="M 50.1553 106.66163714880224 L 100.3106 143.10163714880224 L 81.15289999999999 202.06273714880226 L 19.157499999999995 202.06263714880225 L 0 143.10143714880223 Z"/><path fill="#000" stroke-width="0" d="M -50.1553 106.66163714880224 L 0 143.10163714880224 L -19.1577 202.06273714880226 L -81.1531 202.06263714880225 L -100.3106 143.10143714880223 Z"/><path fill="#000" stroke-width="0" d="M -81.153 11.260537148802257 L -30.99770000000001 47.70053714880226 L -50.15540000000001 106.66163714880227 L -112.1508 106.66153714880227 L -131.3083 47.70033714880226 Z"/><path fill="#000" stroke-width="0" d="M 0 -547.2267628511977 L 50.1553 -510.78676285119775 L 30.9976 -451.82566285119776 L -30.9978 -451.82576285119774 L -50.1553 -510.78696285119776 Z"/><path fill="#000" stroke-width="0" d="M 556.2306 -143.10156285119774 L 606.3859 -106.66156285119774 L 587.2282 -47.700462851197734 L 525.2328 -47.70056285119774 L 506.07529999999997 -106.66176285119774 Z"/><path fill="#000" stroke-width="0" d="M 343.7694 510.78673714880233 L 393.92470000000003 547.2267371488024 L 374.767 606.1878371488024 L 312.77160000000003 606.1877371488023 L 293.6141 547.2265371488023 Z"/><path fill="#000" stroke-width="0" d="M -343.7694 510.78673714880233 L -293.6141 547.2267371488024 L -312.77180000000004 606.1878371488024 L -374.7672 606.1877371488023 L -393.92470000000003 547.2265371488023 Z"/><path fill="#000" stroke-width="0" d="M -556.2306 -143.10156285119774 L -506.07529999999997 -106.66156285119774 L -525.233 -47.700462851197734 L -587.2284 -47.70056285119774 L -606.3859 -106.66176285119774 Z"/><path fill="#000" stroke-width="0" d="M 0 261.02363714880227 L 50.1553 297.46363714880226 L 30.9976 356.42473714880225 L -30.9978 356.4246371488023 L -50.1553 297.46343714880226 Z"/><path fill="#000" stroke-width="0" d="M -212.4612 106.66153714880227 L -162.3059 143.10153714880227 L -181.46359999999999 202.06263714880228 L -243.459 202.06253714880228 L -262.6165 143.10133714880226 Z"/><path fill="#000" stroke-width="0" d="M -131.3082 -143.10156285119774 L -81.1529 -106.66156285119774 L -100.3106 -47.700462851197734 L -162.306 -47.70056285119774 L -181.4635 -106.66176285119774 Z"/><path fill="#000" stroke-width="0" d="M 131.3083 -143.10156285119774 L 181.46359999999999 -106.66156285119774 L 162.3059 -47.700462851197734 L 100.3105 -47.70056285119774 L 81.153 -106.66176285119774 Z"/><path fill="#000" stroke-width="0" d="M 212.4612 106.66163714880224 L 262.6165 143.10163714880224 L 243.4588 202.06273714880226 L 181.46339999999998 202.06263714880225 L 162.3059 143.10143714880223 Z"/><path fill="#000" stroke-width="0" d="M 0 -665.1488628511977 L -50.1553 -701.5888628511977 L -30.9976 -760.5499628511977 L 30.9978 -760.5498628511976 L 50.1553 -701.5886628511977 Z"/><path fill="#000" stroke-width="0" d="M 212.4612 -510.78676285119775 L 162.3059 -547.2267628511978 L 181.46359999999999 -606.1878628511978 L 243.459 -606.1877628511977 L 262.6165 -547.2265628511977 Z"/><path fill="#000" stroke-width="0" d="M 131.3082 -261.02366285119774 L 81.1529 -297.46366285119774 L 100.3106 -356.4247628511977 L 162.306 -356.42466285119775 L 181.4635 -297.46346285119773 Z"/><path fill="#000" stroke-width="0" d="M -131.3083 -261.02366285119774 L -181.46359999999999 -297.46366285119774 L -162.3059 -356.4247628511977 L -100.3105 -356.42466285119775 L -81.153 -297.46346285119773 Z"/><path fill="#000" stroke-width="0" d="M -212.4612 -510.7868628511977 L -262.6165 -547.2268628511978 L -243.4588 -606.1879628511978 L -181.46339999999998 -606.1878628511977 L -162.3059 -547.2266628511977 Z"/><path fill="#000" stroke-width="0" d="M 556.2306 -261.02366285119774 L 506.07529999999997 -297.46366285119774 L 525.233 -356.4247628511977 L 587.2284 -356.42466285119775 L 606.3859 -297.46346285119773 Z"/><path fill="#000" stroke-width="0" d="M 768.6918 -106.66156285119774 L 718.5364999999999 -143.10156285119774 L 737.6941999999999 -202.06266285119776 L 799.6895999999999 -202.06256285119775 L 818.8471 -143.10136285119773 Z"/><path fill="#000" stroke-width="0" d="M 687.5388 143.10153714880227 L 637.3835 106.66153714880227 L 656.5412 47.70043714880226 L 718.5366 47.70053714880226 L 737.6941 106.66173714880226 Z"/><path fill="#000" stroke-width="0" d="M 424.92229999999995 143.10153714880227 L 374.76699999999994 106.66153714880227 L 393.9247 47.70043714880226 L 455.92009999999993 47.70053714880226 L 475.07759999999996 106.66173714880226 Z"/><path fill="#000" stroke-width="0" d="M 343.7694 -106.66166285119772 L 293.6141 -143.10166285119772 L 312.77180000000004 -202.06276285119773 L 374.7672 -202.06266285119773 L 393.92470000000003 -143.1014628511977 Z"/><path fill="#000" stroke-width="0" d="M 343.7694 392.86463714880233 L 293.6141 356.42463714880233 L 312.77180000000004 297.46353714880235 L 374.7672 297.4636371488023 L 393.92470000000003 356.42483714880234 Z"/><path fill="#000" stroke-width="0" d="M 556.2306 547.2267371488024 L 506.07529999999997 510.78673714880233 L 525.233 451.82563714880234 L 587.2284 451.8257371488023 L 606.3859 510.78693714880234 Z"/><path fill="#000" stroke-width="0" d="M 475.0776 796.9898371488023 L 424.9223 760.5498371488022 L 444.08000000000004 701.5887371488022 L 506.0754 701.5888371488023 L 525.2329 760.5500371488023 Z"/><path fill="#000" stroke-width="0" d="M 212.46110000000002 796.9898371488023 L 162.30580000000003 760.5498371488022 L 181.4635 701.5887371488022 L 243.45890000000003 701.5888371488023 L 262.6164 760.5500371488023 Z"/><path fill="#000" stroke-width="0" d="M 131.30820000000003 547.2266371488024 L 81.15290000000003 510.78663714880236 L 100.31060000000002 451.82553714880237 L 162.30600000000004 451.82563714880234 L 181.4635 510.78683714880236 Z"/><path fill="#000" stroke-width="0" d="M -343.7694 392.86463714880233 L -393.92470000000003 356.42463714880233 L -374.767 297.46353714880235 L -312.77160000000003 297.4636371488023 L -293.6141 356.42483714880234 Z"/><path fill="#000" stroke-width="0" d="M -131.30820000000003 547.2267371488024 L -181.4635 510.78673714880233 L -162.30580000000003 451.82563714880234 L -100.31040000000003 451.8257371488023 L -81.15290000000003 510.78693714880234 Z"/><path fill="#000" stroke-width="0" d="M -212.46120000000002 796.9898371488023 L -262.61650000000003 760.5498371488022 L -243.45880000000002 701.5887371488022 L -181.4634 701.5888371488023 L -162.3059 760.5500371488023 Z"/><path fill="#000" stroke-width="0" d="M -475.07770000000005 796.9898371488023 L -525.2330000000001 760.5498371488022 L -506.0753 701.5887371488022 L -444.07990000000007 701.5888371488023 L -424.92240000000004 760.5500371488023 Z"/><path fill="#000" stroke-width="0" d="M -556.2306 547.2266371488024 L -606.3859 510.78663714880236 L -587.2282 451.82553714880237 L -525.2328 451.82563714880234 L -506.07529999999997 510.78683714880236 Z"/><path fill="#000" stroke-width="0" d="M -556.2306 -261.02366285119774 L -606.3859 -297.46366285119774 L -587.2282 -356.4247628511977 L -525.2328 -356.42466285119775 L -506.07529999999997 -297.46346285119773 Z"/><path fill="#000" stroke-width="0" d="M -343.7694 -106.66156285119774 L -393.92470000000003 -143.10156285119774 L -374.767 -202.06266285119776 L -312.77160000000003 -202.06256285119775 L -293.6141 -143.10136285119773 Z"/><path fill="#000" stroke-width="0" d="M -424.9224 143.10153714880227 L -475.0777 106.66153714880227 L -455.91999999999996 47.70043714880226 L -393.9246 47.70053714880226 L -374.76709999999997 106.66173714880226 Z"/><path fill="#000" stroke-width="0" d="M -687.5389 143.10153714880227 L -737.6942 106.66153714880227 L -718.5365 47.70043714880226 L -656.5411 47.70053714880226 L -637.3836 106.66173714880226 Z"/><path fill="#000" stroke-width="0" d="M -768.6918 -106.66166285119772 L -818.8471 -143.10166285119772 L -799.6894 -202.06276285119773 L -737.694 -202.06266285119773 L -718.5364999999999 -143.1014628511977 Z"/><path fill="#000" stroke-width="0" d="M 0 143.10153714880227 L -50.1553 106.66153714880227 L -30.9976 47.70043714880226 L 30.9978 47.70053714880226 L 50.1553 106.66173714880226 Z"/><path fill="#000" stroke-width="0" d="M 0 -356.42466285119775 L -50.1553 -392.86466285119775 L -30.9976 -451.82576285119774 L 30.9978 -451.82566285119776 L 50.1553 -392.86446285119774 Z"/><path fill="#000" stroke-width="0" d="M -81.153 -415.38576285119774 L -131.3083 -451.82576285119774 L -112.1506 -510.7868628511977 L -50.15520000000001 -510.78676285119775 L -30.99770000000001 -451.82556285119773 Z"/><path fill="#000" stroke-width="0" d="M -50.1553 -510.7868628511977 L -100.3106 -547.2268628511978 L -81.15289999999999 -606.1879628511978 L -19.157499999999995 -606.1878628511977 L 0 -547.2266628511977 Z"/><path fill="#000" stroke-width="0" d="M 50.1553 -510.7868628511977 L 0 -547.2268628511978 L 19.1577 -606.1879628511978 L 81.1531 -606.1878628511977 L 100.3106 -547.2266628511977 Z"/><path fill="#000" stroke-width="0" d="M 81.153 -415.38576285119774 L 30.99770000000001 -451.82576285119774 L 50.15540000000001 -510.7868628511977 L 112.1508 -510.78676285119775 L 131.3083 -451.82556285119773 Z"/><path fill="#000" stroke-width="0" d="M 556.2306 47.70053714880227 L 506.07529999999997 11.260537148802264 L 525.233 -47.70056285119774 L 587.2284 -47.700462851197734 L 606.3859 11.260737148802267 Z"/><path fill="#000" stroke-width="0" d="M 475.07759999999996 -11.260562851197733 L 424.92229999999995 -47.70056285119774 L 444.08 -106.66166285119775 L 506.07539999999995 -106.66156285119774 L 525.2329 -47.70036285119774 Z"/><path fill="#000" stroke-width="0" d="M 506.07529999999997 -106.66166285119772 L 455.91999999999996 -143.10166285119772 L 475.0777 -202.06276285119773 L 537.0731 -202.06266285119773 L 556.2306 -143.1014628511977 Z"/><path fill="#000" stroke-width="0" d="M 606.3859 -106.66166285119772 L 556.2306 -143.10166285119772 L 575.3883 -202.06276285119773 L 637.3837 -202.06266285119773 L 656.5412 -143.1014628511977 Z"/><path fill="#000" stroke-width="0" d="M 637.3836 -11.260562851197733 L 587.2283 -47.70056285119774 L 606.386 -106.66166285119775 L 668.3814 -106.66156285119774 L 687.5389 -47.70036285119774 Z"/><path fill="#000" stroke-width="0" d="M 343.7694 701.5888371488023 L 293.6141 665.1488371488023 L 312.77180000000004 606.1877371488023 L 374.7672 606.1878371488024 L 393.92470000000003 665.1490371488023 Z"/><path fill="#000" stroke-width="0" d="M 262.6164 642.6277371488023 L 212.4611 606.1877371488023 L 231.6188 547.2266371488023 L 293.6142 547.2267371488024 L 312.7717 606.1879371488023 Z"/><path fill="#000" stroke-width="0" d="M 293.6141 547.2266371488024 L 243.4588 510.78663714880236 L 262.61650000000003 451.82553714880237 L 324.6119 451.82563714880234 L 343.7694 510.78683714880236 Z"/><path fill="#000" stroke-width="0" d="M 393.92470000000003 547.2266371488024 L 343.7694 510.78663714880236 L 362.92710000000005 451.82553714880237 L 424.9225 451.82563714880234 L 444.08000000000004 510.78683714880236 Z"/><path fill="#000" stroke-width="0" d="M 424.92240000000004 642.6277371488023 L 374.7671 606.1877371488023 L 393.92480000000006 547.2266371488023 L 455.9202 547.2267371488024 L 475.07770000000005 606.1879371488023 Z"/><path fill="#000" stroke-width="0" d="M -343.7694 701.5888371488023 L -393.92470000000003 665.1488371488023 L -374.767 606.1877371488023 L -312.77160000000003 606.1878371488024 L -293.6141 665.1490371488023 Z"/><path fill="#000" stroke-width="0" d="M -424.92240000000004 642.6277371488023 L -475.07770000000005 606.1877371488023 L -455.92 547.2266371488023 L -393.92460000000005 547.2267371488024 L -374.7671 606.1879371488023 Z"/><path fill="#000" stroke-width="0" d="M -393.92470000000003 547.2266371488024 L -444.08000000000004 510.78663714880236 L -424.9223 451.82553714880237 L -362.92690000000005 451.82563714880234 L -343.7694 510.78683714880236 Z"/><path fill="#000" stroke-width="0" d="M -293.6141 547.2266371488024 L -343.7694 510.78663714880236 L -324.6117 451.82553714880237 L -262.6163 451.82563714880234 L -243.4588 510.78683714880236 Z"/><path fill="#000" stroke-width="0" d="M -262.6164 642.6277371488023 L -312.7717 606.1877371488023 L -293.614 547.2266371488023 L -231.6186 547.2267371488024 L -212.4611 606.1879371488023 Z"/><path fill="#000" stroke-width="0" d="M -556.2306 47.70053714880227 L -606.3859 11.260537148802264 L -587.2282 -47.70056285119774 L -525.2328 -47.700462851197734 L -506.07529999999997 11.260737148802267 Z"/><path fill="#000" stroke-width="0" d="M -637.3836 -11.260562851197733 L -687.5389 -47.70056285119774 L -668.3812 -106.66166285119775 L -606.3858 -106.66156285119774 L -587.2283 -47.70036285119774 Z"/><path fill="#000" stroke-width="0" d="M -606.3859 -106.66166285119772 L -656.5412 -143.10166285119772 L -637.3835 -202.06276285119773 L -575.3881 -202.06266285119773 L -556.2306 -143.1014628511977 Z"/><path fill="#000" stroke-width="0" d="M -506.07529999999997 -106.66166285119772 L -556.2306 -143.10166285119772 L -537.0729 -202.06276285119773 L -475.0775 -202.06266285119773 L -455.91999999999996 -143.1014628511977 Z"/><path fill="#000" stroke-width="0" d="M -475.07759999999996 -11.260562851197733 L -525.2329 -47.70056285119774 L -506.07519999999994 -106.66166285119775 L -444.0798 -106.66156285119774 L -424.92229999999995 -47.70036285119774 Z"/><path fill="#000" stroke-width="0" d="M 0 451.82573714880226 L -50.1553 415.38573714880226 L -30.9976 356.4246371488023 L 30.9978 356.42473714880225 L 50.1553 415.38593714880227 Z"/><path fill="#000" stroke-width="0" d="M -81.153 392.8646371488023 L -131.3083 356.4246371488023 L -112.1506 297.4635371488023 L -50.15520000000001 297.46363714880226 L -30.99770000000001 356.4248371488023 Z"/><path fill="#000" stroke-width="0" d="M -50.1553 297.4635371488023 L -100.3106 261.0235371488023 L -81.15289999999999 202.06243714880227 L -19.157499999999995 202.06253714880228 L 0 261.0237371488023 Z"/><path fill="#000" stroke-width="0" d="M 50.1553 297.4635371488023 L 0 261.0235371488023 L 19.1577 202.06243714880227 L 81.1531 202.06253714880228 L 100.3106 261.0237371488023 Z"/><path fill="#000" stroke-width="0" d="M 81.153 392.8646371488023 L 30.99770000000001 356.4246371488023 L 50.15540000000001 297.4635371488023 L 112.1508 297.46363714880226 L 131.3083 356.4248371488023 Z"/><path fill="#000" stroke-width="0" d="M -212.4612 297.46363714880226 L -262.6165 261.02363714880227 L -243.4588 202.06253714880225 L -181.46339999999998 202.06263714880225 L -162.3059 261.0238371488023 Z"/><path fill="#000" stroke-width="0" d="M -293.6142 238.50253714880228 L -343.7695 202.06253714880228 L -324.61179999999996 143.10143714880226 L -262.6164 143.10153714880227 L -243.45889999999997 202.06273714880228 Z"/><path fill="#000" stroke-width="0" d="M -262.6165 143.1014371488023 L -312.7718 106.66143714880226 L -293.61409999999995 47.70033714880227 L -231.61869999999996 47.70043714880227 L -212.46119999999996 106.66163714880227 Z"/><path fill="#000" stroke-width="0" d="M -162.3059 143.1014371488023 L -212.46120000000002 106.66143714880226 L -193.3035 47.70033714880227 L -131.3081 47.70043714880227 L -112.15060000000001 106.66163714880227 Z"/><path fill="#000" stroke-width="0" d="M -131.3082 238.50253714880228 L -181.4635 202.06253714880228 L -162.3058 143.10143714880226 L -100.3104 143.10153714880227 L -81.1529 202.06273714880228 Z"/><path fill="#000" stroke-width="0" d="M -131.3082 47.70053714880227 L -181.4635 11.260537148802264 L -162.3058 -47.70056285119774 L -100.3104 -47.700462851197734 L -81.1529 11.260737148802267 Z"/><path fill="#000" stroke-width="0" d="M -212.46120000000002 -11.260562851197733 L -262.61650000000003 -47.70056285119774 L -243.45880000000002 -106.66166285119775 L -181.4634 -106.66156285119774 L -162.3059 -47.70036285119774 Z"/><path fill="#000" stroke-width="0" d="M -181.4635 -106.66166285119772 L -231.61880000000002 -143.10166285119772 L -212.46110000000002 -202.06276285119773 L -150.4657 -202.06266285119773 L -131.3082 -143.1014628511977 Z"/><path fill="#000" stroke-width="0" d="M -81.1529 -106.66166285119772 L -131.3082 -143.10166285119772 L -112.1505 -202.06276285119773 L -50.155100000000004 -202.06266285119773 L -30.997600000000006 -143.1014628511977 Z"/><path fill="#000" stroke-width="0" d="M -50.155199999999994 -11.260562851197733 L -100.31049999999999 -47.70056285119774 L -81.15279999999998 -106.66166285119775 L -19.157399999999992 -106.66156285119774 L 0.00010000000000331966 -47.70036285119774 Z"/><path fill="#000" stroke-width="0" d="M 131.3083 47.70053714880227 L 81.153 11.260537148802264 L 100.3107 -47.70056285119774 L 162.30610000000001 -47.700462851197734 L 181.46359999999999 11.260737148802267 Z"/><path fill="#000" stroke-width="0" d="M 50.1553 -11.260562851197733 L 0 -47.70056285119774 L 19.1577 -106.66166285119775 L 81.1531 -106.66156285119774 L 100.3106 -47.70036285119774 Z"/><path fill="#000" stroke-width="0" d="M 81.153 -106.66166285119772 L 30.99770000000001 -143.10166285119772 L 50.15540000000001 -202.06276285119773 L 112.1508 -202.06266285119773 L 131.3083 -143.1014628511977 Z"/><path fill="#000" stroke-width="0" d="M 181.46359999999999 -106.66166285119772 L 131.30829999999997 -143.10166285119772 L 150.46599999999998 -202.06276285119773 L 212.4614 -202.06266285119773 L 231.6189 -143.1014628511977 Z"/><path fill="#000" stroke-width="0" d="M 212.4613 -11.260562851197733 L 162.30599999999998 -47.70056285119774 L 181.4637 -106.66166285119775 L 243.4591 -106.66156285119774 L 262.6166 -47.70036285119774 Z"/><path fill="#000" stroke-width="0" d="M 212.4612 297.46373714880224 L 162.3059 261.02373714880224 L 181.46359999999999 202.06263714880222 L 243.459 202.06273714880223 L 262.6165 261.02393714880225 Z"/><path fill="#000" stroke-width="0" d="M 131.3082 238.50263714880225 L 81.1529 202.06263714880225 L 100.3106 143.10153714880224 L 162.306 143.10163714880224 L 181.4635 202.06283714880226 Z"/><path fill="#000" stroke-width="0" d="M 162.3059 143.10153714880227 L 112.15060000000001 106.66153714880224 L 131.3083 47.700437148802244 L 193.30370000000002 47.70053714880225 L 212.46120000000002 106.66173714880225 Z"/><path fill="#000" stroke-width="0" d="M 262.6165 143.10153714880227 L 212.46119999999996 106.66153714880224 L 231.61889999999997 47.700437148802244 L 293.61429999999996 47.70053714880225 L 312.7718 106.66173714880225 Z"/><path fill="#000" stroke-width="0" d="M 293.6142 238.50263714880225 L 243.45889999999997 202.06263714880225 L 262.6166 143.10153714880224 L 324.61199999999997 143.10163714880224 L 343.7695 202.06283714880226 Z"/></g></svg>