<svg xmlns="http://www.w3.org/2000/svg" viewBox="-1000 -1000 2000 2000" width="100%" height="100%"
    xml:space="preserve" xmlns:xlink="http://wwww3.org/1999/xlink" stroke-linecap="round"
    stroke-linejoin="round"><g><path fill="#000000" stroke-width="0" d="M 0 -779.4228788646685 L 28.125 -730.7088788646686 L -28.125 -730.7088788646686 Z"></path><path fill="#000000" stroke-width="0" d="M 28.125 -730.7088788646685 L 56.25 -681.9948788646684 L 0 -681.9948788646684 Z"></path><path fill="#000000" stroke-width="0" d="M -28.125 -730.7088788646685 L 0 -681.9948788646684 L -56.25 -681.9948788646684 Z"></path><path fill="#000000" stroke-width="0" d="M 56.25 -681.9950788646685 L 84.375 -633.2810788646684 L 28.125 -633.2810788646684 Z"></path><path fill="#000000" stroke-width="0" d="M 84.375 -633.2810788646685 L 112.5 -584.5670788646685 L 56.25 -584.5670788646685 Z"></path><path fill="#000000" stroke-width="0" d="M 28.125 -633.2810788646685 L 56.25 -584.5670788646685 L 0 -584.5670788646685 Z"></path><path fill="#000000" stroke-width="0" d="M -56.25 -681.9949788646685 L -28.125 -633.2809788646684 L -84.375 -633.2809788646684 Z"></path><path fill="#000000" stroke-width="0" d="M -28.125 -633.2809788646686 L 0 -584.5669788646685 L -56.25 -584.5669788646685 Z"></path><path fill="#000000" stroke-width="0" d="M -84.375 -633.2809788646686 L -56.25 -584.5669788646685 L -112.5 -584.5669788646685 Z"></path><path fill="#000000" stroke-width="0" d="M 112.5 -584.5671788646684 L 140.625 -535.8531788646685 L 84.375 -535.8531788646685 Z"></path><path fill="#000000" stroke-width="0" d="M 140.625 -535.8531788646685 L 168.75 -487.13917886466845 L 112.5 -487.13917886466845 Z"></path><path fill="#000000" stroke-width="0" d="M 84.375 -535.8531788646685 L 112.5 -487.13917886466845 L 56.25 -487.13917886466845 Z"></path><path fill="#000000" stroke-width="0" d="M 168.75 -487.1393788646684 L 196.875 -438.4253788646684 L 140.625 -438.4253788646684 Z"></path><path fill="#000000" stroke-width="0" d="M 196.875 -438.4253788646684 L 225 -389.7113788646684 L 168.75 -389.7113788646684 Z"></path><path fill="#000000" stroke-width="0" d="M 140.625 -438.4253788646684 L 168.75 -389.7113788646684 L 112.5 -389.7113788646684 Z"></path><path fill="#000000" stroke-width="0" d="M 56.25 -487.1392788646684 L 84.375 -438.4252788646684 L 28.125 -438.4252788646684 Z"></path><path fill="#000000" stroke-width="0" d="M 84.375 -438.4252788646684 L 112.5 -389.71127886466843 L 56.25 -389.71127886466843 Z"></path><path fill="#000000" stroke-width="0" d="M 28.125 -438.4252788646684 L 56.25 -389.71127886466843 L 0 -389.71127886466843 Z"></path><path fill="#000000" stroke-width="0" d="M -112.5 -584.5671788646684 L -84.375 -535.8531788646685 L -140.625 -535.8531788646685 Z"></path><path fill="#000000" stroke-width="0" d="M -84.375 -535.8531788646685 L -56.25 -487.13917886466845 L -112.5 -487.13917886466845 Z"></path><path fill="#000000" stroke-width="0" d="M -140.625 -535.8531788646685 L -112.5 -487.13917886466845 L -168.75 -487.13917886466845 Z"></path><path fill="#000000" stroke-width="0" d="M -56.25 -487.1393788646684 L -28.125 -438.4253788646684 L -84.375 -438.4253788646684 Z"></path><path fill="#000000" stroke-width="0" d="M -28.125 -438.4253788646684 L 0 -389.7113788646684 L -56.25 -389.7113788646684 Z"></path><path fill="#000000" stroke-width="0" d="M -84.375 -438.4253788646684 L -56.25 -389.7113788646684 L -112.5 -389.7113788646684 Z"></path><path fill="#000000" stroke-width="0" d="M -168.75 -487.1392788646684 L -140.625 -438.4252788646684 L -196.875 -438.4252788646684 Z"></path><path fill="#000000" stroke-width="0" d="M -140.625 -438.4252788646684 L -112.5 -389.71127886466843 L -168.75 -389.71127886466843 Z"></path><path fill="#000000" stroke-width="0" d="M -196.875 -438.4252788646684 L -168.75 -389.71127886466843 L -225 -389.71127886466843 Z"></path><path fill="#000000" stroke-width="0" d="M 225 -389.7114788646684 L 253.125 -340.9974788646684 L 196.875 -340.9974788646684 Z"></path><path fill="#000000" stroke-width="0" d="M 253.125 -340.9974788646684 L 281.25 -292.2834788646684 L 225 -292.2834788646684 Z"></path><path fill="#000000" stroke-width="0" d="M 196.875 -340.9974788646684 L 225 -292.2834788646684 L 168.75 -292.2834788646684 Z"></path><path fill="#000000" stroke-width="0" d="M 281.25 -292.28367886466845 L 309.375 -243.56967886466845 L 253.125 -243.56967886466845 Z"></path><path fill="#000000" stroke-width="0" d="M 309.375 -243.56967886466842 L 337.5 -194.85567886466842 L 281.25 -194.85567886466842 Z"></path><path fill="#000000" stroke-width="0" d="M 253.125 -243.56967886466842 L 281.25 -194.85567886466842 L 225 -194.85567886466842 Z"></path><path fill="#000000" stroke-width="0" d="M 168.75 -292.2835788646684 L 196.875 -243.56957886466842 L 140.625 -243.56957886466842 Z"></path><path fill="#000000" stroke-width="0" d="M 196.875 -243.56957886466842 L 225 -194.85557886466842 L 168.75 -194.85557886466842 Z"></path><path fill="#000000" stroke-width="0" d="M 140.625 -243.56957886466842 L 168.75 -194.85557886466842 L 112.5 -194.85557886466842 Z"></path><path fill="#000000" stroke-width="0" d="M 337.5 -194.85577886466842 L 365.625 -146.14177886466842 L 309.375 -146.14177886466842 Z"></path><path fill="#000000" stroke-width="0" d="M 365.625 -146.14177886466842 L 393.75 -97.42777886466843 L 337.5 -97.42777886466843 Z"></path><path fill="#000000" stroke-width="0" d="M 309.375 -146.14177886466842 L 337.5 -97.42777886466843 L 281.25 -97.42777886466843 Z"></path><path fill="#000000" stroke-width="0" d="M 393.75 -97.42797886466843 L 421.875 -48.713978864668434 L 365.625 -48.713978864668434 Z"></path><path fill="#000000" stroke-width="0" d="M 421.875 -48.71397886466843 L 450 0.00002113533157199754 L 393.75 0.00002113533157199754 Z"></path><path fill="#000000" stroke-width="0" d="M 365.625 -48.71397886466843 L 393.75 0.00002113533157199754 L 337.5 0.00002113533157199754 Z"></path><path fill="#000000" stroke-width="0" d="M 281.25 -97.42787886466843 L 309.375 -48.71387886466843 L 253.125 -48.71387886466843 Z"></path><path fill="#000000" stroke-width="0" d="M 309.375 -48.71387886466843 L 337.5 0.00012113533156821177 L 281.25 0.00012113533156821177 Z"></path><path fill="#000000" stroke-width="0" d="M 253.125 -48.71387886466843 L 281.25 0.00012113533156821177 L 225 0.00012113533156821177 Z"></path><path fill="#000000" stroke-width="0" d="M 112.5 -194.85577886466842 L 140.625 -146.14177886466842 L 84.375 -146.14177886466842 Z"></path><path fill="#000000" stroke-width="0" d="M 140.625 -146.14177886466842 L 168.75 -97.42777886466843 L 112.5 -97.42777886466843 Z"></path><path fill="#000000" stroke-width="0" d="M 84.375 -146.14177886466842 L 112.5 -97.42777886466843 L 56.25 -97.42777886466843 Z"></path><path fill="#000000" stroke-width="0" d="M 168.75 -97.42797886466843 L 196.875 -48.713978864668434 L 140.625 -48.713978864668434 Z"></path><path fill="#000000" stroke-width="0" d="M 196.875 -48.71397886466843 L 225 0.00002113533157199754 L 168.75 0.00002113533157199754 Z"></path><path fill="#000000" stroke-width="0" d="M 140.625 -48.71397886466843 L 168.75 0.00002113533157199754 L 112.5 0.00002113533157199754 Z"></path><path fill="#000000" stroke-width="0" d="M 56.25 -97.42787886466843 L 84.375 -48.71387886466843 L 28.125 -48.71387886466843 Z"></path><path fill="#000000" stroke-width="0" d="M 84.375 -48.71387886466843 L 112.5 0.00012113533156821177 L 56.25 0.00012113533156821177 Z"></path><path fill="#000000" stroke-width="0" d="M 28.125 -48.71387886466843 L 56.25 0.00012113533156821177 L 0 0.00012113533156821177 Z"></path><path fill="#000000" stroke-width="0" d="M -225 -389.7114788646684 L -196.875 -340.9974788646684 L -253.125 -340.9974788646684 Z"></path><path fill="#000000" stroke-width="0" d="M -196.875 -340.9974788646684 L -168.75 -292.2834788646684 L -225 -292.2834788646684 Z"></path><path fill="#000000" stroke-width="0" d="M -253.125 -340.9974788646684 L -225 -292.2834788646684 L -281.25 -292.2834788646684 Z"></path><path fill="#000000" stroke-width="0" d="M -168.75 -292.28367886466845 L -140.625 -243.56967886466845 L -196.875 -243.56967886466845 Z"></path><path fill="#000000" stroke-width="0" d="M -140.625 -243.56967886466842 L -112.5 -194.85567886466842 L -168.75 -194.85567886466842 Z"></path><path fill="#000000" stroke-width="0" d="M -196.875 -243.56967886466842 L -168.75 -194.85567886466842 L -225 -194.85567886466842 Z"></path><path fill="#000000" stroke-width="0" d="M -281.25 -292.2835788646684 L -253.125 -243.56957886466842 L -309.375 -243.56957886466842 Z"></path><path fill="#000000" stroke-width="0" d="M -253.125 -243.56957886466842 L -225 -194.85557886466842 L -281.25 -194.85557886466842 Z"></path><path fill="#000000" stroke-width="0" d="M -309.375 -243.56957886466842 L -281.25 -194.85557886466842 L -337.5 -194.85557886466842 Z"></path><path fill="#000000" stroke-width="0" d="M -112.5 -194.85577886466842 L -84.375 -146.14177886466842 L -140.625 -146.14177886466842 Z"></path><path fill="#000000" stroke-width="0" d="M -84.375 -146.14177886466842 L -56.25 -97.42777886466843 L -112.5 -97.42777886466843 Z"></path><path fill="#000000" stroke-width="0" d="M -140.625 -146.14177886466842 L -112.5 -97.42777886466843 L -168.75 -97.42777886466843 Z"></path><path fill="#000000" stroke-width="0" d="M -56.25 -97.42797886466843 L -28.125 -48.713978864668434 L -84.375 -48.713978864668434 Z"></path><path fill="#000000" stroke-width="0" d="M -28.125 -48.71397886466843 L 0 0.00002113533157199754 L -56.25 0.00002113533157199754 Z"></path><path fill="#000000" stroke-width="0" d="M -84.375 -48.71397886466843 L -56.25 0.00002113533157199754 L -112.5 0.00002113533157199754 Z"></path><path fill="#000000" stroke-width="0" d="M -168.75 -97.42787886466843 L -140.625 -48.71387886466843 L -196.875 -48.71387886466843 Z"></path><path fill="#000000" stroke-width="0" d="M -140.625 -48.71387886466843 L -112.5 0.00012113533156821177 L -168.75 0.00012113533156821177 Z"></path><path fill="#000000" stroke-width="0" d="M -196.875 -48.71387886466843 L -168.75 0.00012113533156821177 L -225 0.00012113533156821177 Z"></path><path fill="#000000" stroke-width="0" d="M -337.5 -194.85577886466842 L -309.375 -146.14177886466842 L -365.625 -146.14177886466842 Z"></path><path fill="#000000" stroke-width="0" d="M -309.375 -146.14177886466842 L -281.25 -97.42777886466843 L -337.5 -97.42777886466843 Z"></path><path fill="#000000" stroke-width="0" d="M -365.625 -146.14177886466842 L -337.5 -97.42777886466843 L -393.75 -97.42777886466843 Z"></path><path fill="#000000" stroke-width="0" d="M -281.25 -97.42797886466843 L -253.125 -48.713978864668434 L -309.375 -48.713978864668434 Z"></path><path fill="#000000" stroke-width="0" d="M -253.125 -48.71397886466843 L -225 0.00002113533157199754 L -281.25 0.00002113533157199754 Z"></path><path fill="#000000" stroke-width="0" d="M -309.375 -48.71397886466843 L -281.25 0.00002113533157199754 L -337.5 0.00002113533157199754 Z"></path><path fill="#000000" stroke-width="0" d="M -393.75 -97.42787886466843 L -365.625 -48.71387886466843 L -421.875 -48.71387886466843 Z"></path><path fill="#000000" stroke-width="0" d="M -365.625 -48.71387886466843 L -337.5 0.00012113533156821177 L -393.75 0.00012113533156821177 Z"></path><path fill="#000000" stroke-width="0" d="M -421.875 -48.71387886466843 L -393.75 0.00012113533156821177 L -450 0.00012113533156821177 Z"></path><path fill="#000000" stroke-width="0" d="M 450 -0.00007886466849527096 L 478.125 48.7139211353315 L 421.875 48.7139211353315 Z"></path><path fill="#000000" stroke-width="0" d="M 478.125 48.7139211353315 L 506.25 97.4279211353315 L 450 97.4279211353315 Z"></path><path fill="#000000" stroke-width="0" d="M 421.875 48.7139211353315 L 450 97.4279211353315 L 393.75 97.4279211353315 Z"></path><path fill="#000000" stroke-width="0" d="M 506.25 97.4277211353315 L 534.375 146.1417211353315 L 478.125 146.1417211353315 Z"></path><path fill="#000000" stroke-width="0" d="M 534.375 146.1417211353315 L 562.5 194.8557211353315 L 506.25 194.8557211353315 Z"></path><path fill="#000000" stroke-width="0" d="M 478.125 146.1417211353315 L 506.25 194.8557211353315 L 450 194.8557211353315 Z"></path><path fill="#000000" stroke-width="0" d="M 393.75 97.4278211353315 L 421.875 146.1418211353315 L 365.625 146.1418211353315 Z"></path><path fill="#000000" stroke-width="0" d="M 421.875 146.1418211353315 L 450 194.8558211353315 L 393.75 194.8558211353315 Z"></path><path fill="#000000" stroke-width="0" d="M 365.625 146.1418211353315 L 393.75 194.8558211353315 L 337.5 194.8558211353315 Z"></path><path fill="#000000" stroke-width="0" d="M 562.5 194.8556211353315 L 590.625 243.5696211353315 L 534.375 243.5696211353315 Z"></path><path fill="#000000" stroke-width="0" d="M 590.625 243.5696211353315 L 618.75 292.2836211353315 L 562.5 292.2836211353315 Z"></path><path fill="#000000" stroke-width="0" d="M 534.375 243.5696211353315 L 562.5 292.2836211353315 L 506.25 292.2836211353315 Z"></path><path fill="#000000" stroke-width="0" d="M 618.75 292.28342113533154 L 646.875 340.99742113533154 L 590.625 340.99742113533154 Z"></path><path fill="#000000" stroke-width="0" d="M 646.875 340.99742113533154 L 675 389.71142113533153 L 618.75 389.71142113533153 Z"></path><path fill="#000000" stroke-width="0" d="M 590.625 340.99742113533154 L 618.75 389.71142113533153 L 562.5 389.71142113533153 Z"></path><path fill="#000000" stroke-width="0" d="M 506.25 292.2835211353315 L 534.375 340.9975211353315 L 478.125 340.9975211353315 Z"></path><path fill="#000000" stroke-width="0" d="M 534.375 340.9975211353315 L 562.5 389.7115211353315 L 506.25 389.7115211353315 Z"></path><path fill="#000000" stroke-width="0" d="M 478.125 340.9975211353315 L 506.25 389.7115211353315 L 450 389.7115211353315 Z"></path><path fill="#000000" stroke-width="0" d="M 337.5 194.8556211353315 L 365.625 243.5696211353315 L 309.375 243.5696211353315 Z"></path><path fill="#000000" stroke-width="0" d="M 365.625 243.5696211353315 L 393.75 292.2836211353315 L 337.5 292.2836211353315 Z"></path><path fill="#000000" stroke-width="0" d="M 309.375 243.5696211353315 L 337.5 292.2836211353315 L 281.25 292.2836211353315 Z"></path><path fill="#000000" stroke-width="0" d="M 393.75 292.28342113533154 L 421.875 340.99742113533154 L 365.625 340.99742113533154 Z"></path><path fill="#000000" stroke-width="0" d="M 421.875 340.99742113533154 L 450 389.71142113533153 L 393.75 389.71142113533153 Z"></path><path fill="#000000" stroke-width="0" d="M 365.625 340.99742113533154 L 393.75 389.71142113533153 L 337.5 389.71142113533153 Z"></path><path fill="#000000" stroke-width="0" d="M 281.25 292.2835211353315 L 309.375 340.9975211353315 L 253.125 340.9975211353315 Z"></path><path fill="#000000" stroke-width="0" d="M 309.375 340.9975211353315 L 337.5 389.7115211353315 L 281.25 389.7115211353315 Z"></path><path fill="#000000" stroke-width="0" d="M 253.125 340.9975211353315 L 281.25 389.7115211353315 L 225 389.7115211353315 Z"></path><path fill="#000000" stroke-width="0" d="M 675 389.71132113533145 L 703.125 438.42532113533144 L 646.875 438.42532113533144 Z"></path><path fill="#000000" stroke-width="0" d="M 703.125 438.42532113533144 L 731.25 487.13932113533144 L 675 487.13932113533144 Z"></path><path fill="#000000" stroke-width="0" d="M 646.875 438.42532113533144 L 675 487.13932113533144 L 618.75 487.13932113533144 Z"></path><path fill="#000000" stroke-width="0" d="M 731.25 487.1391211353315 L 759.375 535.8531211353315 L 703.125 535.8531211353315 Z"></path><path fill="#000000" stroke-width="0" d="M 759.375 535.8531211353314 L 787.5 584.5671211353315 L 731.25 584.5671211353315 Z"></path><path fill="#000000" stroke-width="0" d="M 703.125 535.8531211353314 L 731.25 584.5671211353315 L 675 584.5671211353315 Z"></path><path fill="#000000" stroke-width="0" d="M 618.75 487.13922113533147 L 646.875 535.8532211353315 L 590.625 535.8532211353315 Z"></path><path fill="#000000" stroke-width="0" d="M 646.875 535.8532211353314 L 675 584.5672211353315 L 618.75 584.5672211353315 Z"></path><path fill="#000000" stroke-width="0" d="M 590.625 535.8532211353314 L 618.75 584.5672211353315 L 562.5 584.5672211353315 Z"></path><path fill="#000000" stroke-width="0" d="M 787.5 584.5670211353315 L 815.625 633.2810211353315 L 759.375 633.2810211353315 Z"></path><path fill="#000000" stroke-width="0" d="M 815.625 633.2810211353316 L 843.75 681.9950211353316 L 787.5 681.9950211353316 Z"></path><path fill="#000000" stroke-width="0" d="M 759.375 633.2810211353316 L 787.5 681.9950211353316 L 731.25 681.9950211353316 Z"></path><path fill="#000000" stroke-width="0" d="M 843.75 681.9948211353316 L 871.875 730.7088211353316 L 815.625 730.7088211353316 Z"></path><path fill="#000000" stroke-width="0" d="M 871.875 730.7088211353315 L 900 779.4228211353316 L 843.75 779.4228211353316 Z"></path><path fill="#000000" stroke-width="0" d="M 815.625 730.7088211353315 L 843.75 779.4228211353316 L 787.5 779.4228211353316 Z"></path><path fill="#000000" stroke-width="0" d="M 731.25 681.9949211353315 L 759.375 730.7089211353316 L 703.125 730.7089211353316 Z"></path><path fill="#000000" stroke-width="0" d="M 759.375 730.7089211353315 L 787.5 779.4229211353315 L 731.25 779.4229211353315 Z"></path><path fill="#000000" stroke-width="0" d="M 703.125 730.7089211353315 L 731.25 779.4229211353315 L 675 779.4229211353315 Z"></path><path fill="#000000" stroke-width="0" d="M 562.5 584.5670211353315 L 590.625 633.2810211353315 L 534.375 633.2810211353315 Z"></path><path fill="#000000" stroke-width="0" d="M 590.625 633.2810211353316 L 618.75 681.9950211353316 L 562.5 681.9950211353316 Z"></path><path fill="#000000" stroke-width="0" d="M 534.375 633.2810211353316 L 562.5 681.9950211353316 L 506.25 681.9950211353316 Z"></path><path fill="#000000" stroke-width="0" d="M 618.75 681.9948211353316 L 646.875 730.7088211353316 L 590.625 730.7088211353316 Z"></path><path fill="#000000" stroke-width="0" d="M 646.875 730.7088211353315 L 675 779.4228211353316 L 618.75 779.4228211353316 Z"></path><path fill="#000000" stroke-width="0" d="M 590.625 730.7088211353315 L 618.75 779.4228211353316 L 562.5 779.4228211353316 Z"></path><path fill="#000000" stroke-width="0" d="M 506.25 681.9949211353315 L 534.375 730.7089211353316 L 478.125 730.7089211353316 Z"></path><path fill="#000000" stroke-width="0" d="M 534.375 730.7089211353315 L 562.5 779.4229211353315 L 506.25 779.4229211353315 Z"></path><path fill="#000000" stroke-width="0" d="M 478.125 730.7089211353315 L 506.25 779.4229211353315 L 450 779.4229211353315 Z"></path><path fill="#000000" stroke-width="0" d="M 225 389.71132113533145 L 253.125 438.42532113533144 L 196.875 438.42532113533144 Z"></path><path fill="#000000" stroke-width="0" d="M 253.125 438.42532113533144 L 281.25 487.13932113533144 L 225 487.13932113533144 Z"></path><path fill="#000000" stroke-width="0" d="M 196.875 438.42532113533144 L 225 487.13932113533144 L 168.75 487.13932113533144 Z"></path><path fill="#000000" stroke-width="0" d="M 281.25 487.1391211353315 L 309.375 535.8531211353315 L 253.125 535.8531211353315 Z"></path><path fill="#000000" stroke-width="0" d="M 309.375 535.8531211353314 L 337.5 584.5671211353315 L 281.25 584.5671211353315 Z"></path><path fill="#000000" stroke-width="0" d="M 253.125 535.8531211353314 L 281.25 584.5671211353315 L 225 584.5671211353315 Z"></path><path fill="#000000" stroke-width="0" d="M 168.75 487.13922113533147 L 196.875 535.8532211353315 L 140.625 535.8532211353315 Z"></path><path fill="#000000" stroke-width="0" d="M 196.875 535.8532211353314 L 225 584.5672211353315 L 168.75 584.5672211353315 Z"></path><path fill="#000000" stroke-width="0" d="M 140.625 535.8532211353314 L 168.75 584.5672211353315 L 112.5 584.5672211353315 Z"></path><path fill="#000000" stroke-width="0" d="M 337.5 584.5670211353315 L 365.625 633.2810211353315 L 309.375 633.2810211353315 Z"></path><path fill="#000000" stroke-width="0" d="M 365.625 633.2810211353316 L 393.75 681.9950211353316 L 337.5 681.9950211353316 Z"></path><path fill="#000000" stroke-width="0" d="M 309.375 633.2810211353316 L 337.5 681.9950211353316 L 281.25 681.9950211353316 Z"></path><path fill="#000000" stroke-width="0" d="M 393.75 681.9948211353316 L 421.875 730.7088211353316 L 365.625 730.7088211353316 Z"></path><path fill="#000000" stroke-width="0" d="M 421.875 730.7088211353315 L 450 779.4228211353316 L 393.75 779.4228211353316 Z"></path><path fill="#000000" stroke-width="0" d="M 365.625 730.7088211353315 L 393.75 779.4228211353316 L 337.5 779.4228211353316 Z"></path><path fill="#000000" stroke-width="0" d="M 281.25 681.9949211353315 L 309.375 730.7089211353316 L 253.125 730.7089211353316 Z"></path><path fill="#000000" stroke-width="0" d="M 309.375 730.7089211353315 L 337.5 779.4229211353315 L 281.25 779.4229211353315 Z"></path><path fill="#000000" stroke-width="0" d="M 253.125 730.7089211353315 L 281.25 779.4229211353315 L 225 779.4229211353315 Z"></path><path fill="#000000" stroke-width="0" d="M 112.5 584.5670211353315 L 140.625 633.2810211353315 L 84.375 633.2810211353315 Z"></path><path fill="#000000" stroke-width="0" d="M 140.625 633.2810211353316 L 168.75 681.9950211353316 L 112.5 681.9950211353316 Z"></path><path fill="#000000" stroke-width="0" d="M 84.375 633.2810211353316 L 112.5 681.9950211353316 L 56.25 681.9950211353316 Z"></path><path fill="#000000" stroke-width="0" d="M 168.75 681.9948211353316 L 196.875 730.7088211353316 L 140.625 730.7088211353316 Z"></path><path fill="#000000" stroke-width="0" d="M 196.875 730.7088211353315 L 225 779.4228211353316 L 168.75 779.4228211353316 Z"></path><path fill="#000000" stroke-width="0" d="M 140.625 730.7088211353315 L 168.75 779.4228211353316 L 112.5 779.4228211353316 Z"></path><path fill="#000000" stroke-width="0" d="M 56.25 681.9949211353315 L 84.375 730.7089211353316 L 28.125 730.7089211353316 Z"></path><path fill="#000000" stroke-width="0" d="M 84.375 730.7089211353315 L 112.5 779.4229211353315 L 56.25 779.4229211353315 Z"></path><path fill="#000000" stroke-width="0" d="M 28.125 730.7089211353315 L 56.25 779.4229211353315 L 0 779.4229211353315 Z"></path><path fill="#000000" stroke-width="0" d="M -450 -0.00007886466849527096 L -421.875 48.7139211353315 L -478.125 48.7139211353315 Z"></path><path fill="#000000" stroke-width="0" d="M -421.875 48.7139211353315 L -393.75 97.4279211353315 L -450 97.4279211353315 Z"></path><path fill="#000000" stroke-width="0" d="M -478.125 48.7139211353315 L -450 97.4279211353315 L -506.25 97.4279211353315 Z"></path><path fill="#000000" stroke-width="0" d="M -393.75 97.4277211353315 L -365.625 146.1417211353315 L -421.875 146.1417211353315 Z"></path><path fill="#000000" stroke-width="0" d="M -365.625 146.1417211353315 L -337.5 194.8557211353315 L -393.75 194.8557211353315 Z"></path><path fill="#000000" stroke-width="0" d="M -421.875 146.1417211353315 L -393.75 194.8557211353315 L -450 194.8557211353315 Z"></path><path fill="#000000" stroke-width="0" d="M -506.25 97.4278211353315 L -478.125 146.1418211353315 L -534.375 146.1418211353315 Z"></path><path fill="#000000" stroke-width="0" d="M -478.125 146.1418211353315 L -450 194.8558211353315 L -506.25 194.8558211353315 Z"></path><path fill="#000000" stroke-width="0" d="M -534.375 146.1418211353315 L -506.25 194.8558211353315 L -562.5 194.8558211353315 Z"></path><path fill="#000000" stroke-width="0" d="M -337.5 194.8556211353315 L -309.375 243.5696211353315 L -365.625 243.5696211353315 Z"></path><path fill="#000000" stroke-width="0" d="M -309.375 243.5696211353315 L -281.25 292.2836211353315 L -337.5 292.2836211353315 Z"></path><path fill="#000000" stroke-width="0" d="M -365.625 243.5696211353315 L -337.5 292.2836211353315 L -393.75 292.2836211353315 Z"></path><path fill="#000000" stroke-width="0" d="M -281.25 292.28342113533154 L -253.125 340.99742113533154 L -309.375 340.99742113533154 Z"></path><path fill="#000000" stroke-width="0" d="M -253.125 340.99742113533154 L -225 389.71142113533153 L -281.25 389.71142113533153 Z"></path><path fill="#000000" stroke-width="0" d="M -309.375 340.99742113533154 L -281.25 389.71142113533153 L -337.5 389.71142113533153 Z"></path><path fill="#000000" stroke-width="0" d="M -393.75 292.2835211353315 L -365.625 340.9975211353315 L -421.875 340.9975211353315 Z"></path><path fill="#000000" stroke-width="0" d="M -365.625 340.9975211353315 L -337.5 389.7115211353315 L -393.75 389.7115211353315 Z"></path><path fill="#000000" stroke-width="0" d="M -421.875 340.9975211353315 L -393.75 389.7115211353315 L -450 389.7115211353315 Z"></path><path fill="#000000" stroke-width="0" d="M -562.5 194.8556211353315 L -534.375 243.5696211353315 L -590.625 243.5696211353315 Z"></path><path fill="#000000" stroke-width="0" d="M -534.375 243.5696211353315 L -506.25 292.2836211353315 L -562.5 292.2836211353315 Z"></path><path fill="#000000" stroke-width="0" d="M -590.625 243.5696211353315 L -562.5 292.2836211353315 L -618.75 292.2836211353315 Z"></path><path fill="#000000" stroke-width="0" d="M -506.25 292.28342113533154 L -478.125 340.99742113533154 L -534.375 340.99742113533154 Z"></path><path fill="#000000" stroke-width="0" d="M -478.125 340.99742113533154 L -450 389.71142113533153 L -506.25 389.71142113533153 Z"></path><path fill="#000000" stroke-width="0" d="M -534.375 340.99742113533154 L -506.25 389.71142113533153 L -562.5 389.71142113533153 Z"></path><path fill="#000000" stroke-width="0" d="M -618.75 292.2835211353315 L -590.625 340.9975211353315 L -646.875 340.9975211353315 Z"></path><path fill="#000000" stroke-width="0" d="M -590.625 340.9975211353315 L -562.5 389.7115211353315 L -618.75 389.7115211353315 Z"></path><path fill="#000000" stroke-width="0" d="M -646.875 340.9975211353315 L -618.75 389.7115211353315 L -675 389.7115211353315 Z"></path><path fill="#000000" stroke-width="0" d="M -225 389.71132113533145 L -196.875 438.42532113533144 L -253.125 438.42532113533144 Z"></path><path fill="#000000" stroke-width="0" d="M -196.875 438.42532113533144 L -168.75 487.13932113533144 L -225 487.13932113533144 Z"></path><path fill="#000000" stroke-width="0" d="M -253.125 438.42532113533144 L -225 487.13932113533144 L -281.25 487.13932113533144 Z"></path><path fill="#000000" stroke-width="0" d="M -168.75 487.1391211353315 L -140.625 535.8531211353315 L -196.875 535.8531211353315 Z"></path><path fill="#000000" stroke-width="0" d="M -140.625 535.8531211353314 L -112.5 584.5671211353315 L -168.75 584.5671211353315 Z"></path><path fill="#000000" stroke-width="0" d="M -196.875 535.8531211353314 L -168.75 584.5671211353315 L -225 584.5671211353315 Z"></path><path fill="#000000" stroke-width="0" d="M -281.25 487.13922113533147 L -253.125 535.8532211353315 L -309.375 535.8532211353315 Z"></path><path fill="#000000" stroke-width="0" d="M -253.125 535.8532211353314 L -225 584.5672211353315 L -281.25 584.5672211353315 Z"></path><path fill="#000000" stroke-width="0" d="M -309.375 535.8532211353314 L -281.25 584.5672211353315 L -337.5 584.5672211353315 Z"></path><path fill="#000000" stroke-width="0" d="M -112.5 584.5670211353315 L -84.375 633.2810211353315 L -140.625 633.2810211353315 Z"></path><path fill="#000000" stroke-width="0" d="M -84.375 633.2810211353316 L -56.25 681.9950211353316 L -112.5 681.9950211353316 Z"></path><path fill="#000000" stroke-width="0" d="M -140.625 633.2810211353316 L -112.5 681.9950211353316 L -168.75 681.9950211353316 Z"></path><path fill="#000000" stroke-width="0" d="M -56.25 681.9948211353316 L -28.125 730.7088211353316 L -84.375 730.7088211353316 Z"></path><path fill="#000000" stroke-width="0" d="M -28.125 730.7088211353315 L 0 779.4228211353316 L -56.25 779.4228211353316 Z"></path><path fill="#000000" stroke-width="0" d="M -84.375 730.7088211353315 L -56.25 779.4228211353316 L -112.5 779.4228211353316 Z"></path><path fill="#000000" stroke-width="0" d="M -168.75 681.9949211353315 L -140.625 730.7089211353316 L -196.875 730.7089211353316 Z"></path><path fill="#000000" stroke-width="0" d="M -140.625 730.7089211353315 L -112.5 779.4229211353315 L -168.75 779.4229211353315 Z"></path><path fill="#000000" stroke-width="0" d="M -196.875 730.7089211353315 L -168.75 779.4229211353315 L -225 779.4229211353315 Z"></path><path fill="#000000" stroke-width="0" d="M -337.5 584.5670211353315 L -309.375 633.2810211353315 L -365.625 633.2810211353315 Z"></path><path fill="#000000" stroke-width="0" d="M -309.375 633.2810211353316 L -281.25 681.9950211353316 L -337.5 681.9950211353316 Z"></path><path fill="#000000" stroke-width="0" d="M -365.625 633.2810211353316 L -337.5 681.9950211353316 L -393.75 681.9950211353316 Z"></path><path fill="#000000" stroke-width="0" d="M -281.25 681.9948211353316 L -253.125 730.7088211353316 L -309.375 730.7088211353316 Z"></path><path fill="#000000" stroke-width="0" d="M -253.125 730.7088211353315 L -225 779.4228211353316 L -281.25 779.4228211353316 Z"></path><path fill="#000000" stroke-width="0" d="M -309.375 730.7088211353315 L -281.25 779.4228211353316 L -337.5 779.4228211353316 Z"></path><path fill="#000000" stroke-width="0" d="M -393.75 681.9949211353315 L -365.625 730.7089211353316 L -421.875 730.7089211353316 Z"></path><path fill="#000000" stroke-width="0" d="M -365.625 730.7089211353315 L -337.5 779.4229211353315 L -393.75 779.4229211353315 Z"></path><path fill="#000000" stroke-width="0" d="M -421.875 730.7089211353315 L -393.75 779.4229211353315 L -450 779.4229211353315 Z"></path><path fill="#000000" stroke-width="0" d="M -675 389.71132113533145 L -646.875 438.42532113533144 L -703.125 438.42532113533144 Z"></path><path fill="#000000" stroke-width="0" d="M -646.875 438.42532113533144 L -618.75 487.13932113533144 L -675 487.13932113533144 Z"></path><path fill="#000000" stroke-width="0" d="M -703.125 438.42532113533144 L -675 487.13932113533144 L -731.25 487.13932113533144 Z"></path><path fill="#000000" stroke-width="0" d="M -618.75 487.1391211353315 L -590.625 535.8531211353315 L -646.875 535.8531211353315 Z"></path><path fill="#000000" stroke-width="0" d="M -590.625 535.8531211353314 L -562.5 584.5671211353315 L -618.75 584.5671211353315 Z"></path><path fill="#000000" stroke-width="0" d="M -646.875 535.8531211353314 L -618.75 584.5671211353315 L -675 584.5671211353315 Z"></path><path fill="#000000" stroke-width="0" d="M -731.25 487.13922113533147 L -703.125 535.8532211353315 L -759.375 535.8532211353315 Z"></path><path fill="#000000" stroke-width="0" d="M -703.125 535.8532211353314 L -675 584.5672211353315 L -731.25 584.5672211353315 Z"></path><path fill="#000000" stroke-width="0" d="M -759.375 535.8532211353314 L -731.25 584.5672211353315 L -787.5 584.5672211353315 Z"></path><path fill="#000000" stroke-width="0" d="M -562.5 584.5670211353315 L -534.375 633.2810211353315 L -590.625 633.2810211353315 Z"></path><path fill="#000000" stroke-width="0" d="M -534.375 633.2810211353316 L -506.25 681.9950211353316 L -562.5 681.9950211353316 Z"></path><path fill="#000000" stroke-width="0" d="M -590.625 633.2810211353316 L -562.5 681.9950211353316 L -618.75 681.9950211353316 Z"></path><path fill="#000000" stroke-width="0" d="M -506.25 681.9948211353316 L -478.125 730.7088211353316 L -534.375 730.7088211353316 Z"></path><path fill="#000000" stroke-width="0" d="M -478.125 730.7088211353315 L -450 779.4228211353316 L -506.25 779.4228211353316 Z"></path><path fill="#000000" stroke-width="0" d="M -534.375 730.7088211353315 L -506.25 779.4228211353316 L -562.5 779.4228211353316 Z"></path><path fill="#000000" stroke-width="0" d="M -618.75 681.9949211353315 L -590.625 730.7089211353316 L -646.875 730.7089211353316 Z"></path><path fill="#000000" stroke-width="0" d="M -590.625 730.7089211353315 L -562.5 779.4229211353315 L -618.75 779.4229211353315 Z"></path><path fill="#000000" stroke-width="0" d="M -646.875 730.7089211353315 L -618.75 779.4229211353315 L -675 779.4229211353315 Z"></path><path fill="#000000" stroke-width="0" d="M -787.5 584.5670211353315 L -759.375 633.2810211353315 L -815.625 633.2810211353315 Z"></path><path fill="#000000" stroke-width="0" d="M -759.375 633.2810211353316 L -731.25 681.9950211353316 L -787.5 681.9950211353316 Z"></path><path fill="#000000" stroke-width="0" d="M -815.625 633.2810211353316 L -787.5 681.9950211353316 L -843.75 681.9950211353316 Z"></path><path fill="#000000" stroke-width="0" d="M -731.25 681.9948211353316 L -703.125 730.7088211353316 L -759.375 730.7088211353316 Z"></path><path fill="#000000" stroke-width="0" d="M -703.125 730.7088211353315 L -675 779.4228211353316 L -731.25 779.4228211353316 Z"></path><path fill="#000000" stroke-width="0" d="M -759.375 730.7088211353315 L -731.25 779.4228211353316 L -787.5 779.4228211353316 Z"></path><path fill="#000000" stroke-width="0" d="M -843.75 681.9949211353315 L -815.625 730.7089211353316 L -871.875 730.7089211353316 Z"></path><path fill="#000000" stroke-width="0" d="M -815.625 730.7089211353315 L -787.5 779.4229211353315 L -843.75 779.4229211353315 Z"></path><path fill="#000000" stroke-width="0" d="M -871.875 730.7089211353315 L -843.75 779.4229211353315 L -900 779.4229211353315 Z"></path></g></svg>