<svg xmlns="http://www.w3.org/2000/svg" viewBox="-1000 -1000 2000 2000" width="100%" height="100%"
    xml:space="preserve" xmlns:xlink="http://wwww3.org/1999/xlink" stroke-linecap="round"
    stroke-linejoin="round"><g><path fill="#000000" stroke-width="0" d="M -833.3334 -900 L -833.3334 -833.3334 L -900 -833.3334 L -900 -900 Z"></path><path fill="#000000" stroke-width="0" d="M -766.6667 -900 L -766.6667 -833.3334 L -833.3333 -833.3334 L -833.3333 -900 Z"></path><path fill="#000000" stroke-width="0" d="M -700 -900 L -700 -833.3334 L -766.6666 -833.3334 L -766.6666 -900 Z"></path><path fill="#000000" stroke-width="0" d="M -700 -833.3333 L -700 -766.6667 L -766.6666 -766.6667 L -766.6666 -833.3333 Z"></path><path fill="#000000" stroke-width="0" d="M -700 -766.6666 L -700 -700 L -766.6666 -700 L -766.6666 -766.6666 Z"></path><path fill="#000000" stroke-width="0" d="M -766.6667 -766.6666 L -766.6667 -700 L -833.3333 -700 L -833.3333 -766.6666 Z"></path><path fill="#000000" stroke-width="0" d="M -833.3334 -766.6666 L -833.3334 -700 L -900 -700 L -900 -766.6666 Z"></path><path fill="#000000" stroke-width="0" d="M -833.3334 -833.3333 L -833.3334 -766.6667 L -900 -766.6667 L -900 -833.3333 Z"></path><path fill="#000000" stroke-width="0" d="M -633.3334 -900 L -633.3334 -833.3334 L -700 -833.3334 L -700 -900 Z"></path><path fill="#000000" stroke-width="0" d="M -566.6667 -900 L -566.6667 -833.3334 L -633.3333 -833.3334 L -633.3333 -900 Z"></path><path fill="#000000" stroke-width="0" d="M -500 -900 L -500 -833.3334 L -566.6666 -833.3334 L -566.6666 -900 Z"></path><path fill="#000000" stroke-width="0" d="M -500 -833.3333 L -500 -766.6667 L -566.6666 -766.6667 L -566.6666 -833.3333 Z"></path><path fill="#000000" stroke-width="0" d="M -500 -766.6666 L -500 -700 L -566.6666 -700 L -566.6666 -766.6666 Z"></path><path fill="#000000" stroke-width="0" d="M -566.6667 -766.6666 L -566.6667 -700 L -633.3333 -700 L -633.3333 -766.6666 Z"></path><path fill="#000000" stroke-width="0" d="M -633.3334 -766.6666 L -633.3334 -700 L -700 -700 L -700 -766.6666 Z"></path><path fill="#000000" stroke-width="0" d="M -633.3334 -833.3333 L -633.3334 -766.6667 L -700 -766.6667 L -700 -833.3333 Z"></path><path fill="#000000" stroke-width="0" d="M -433.3334 -900 L -433.3334 -833.3334 L -500 -833.3334 L -500 -900 Z"></path><path fill="#000000" stroke-width="0" d="M -366.6667 -900 L -366.6667 -833.3334 L -433.3333 -833.3334 L -433.3333 -900 Z"></path><path fill="#000000" stroke-width="0" d="M -300 -900 L -300 -833.3334 L -366.6666 -833.3334 L -366.6666 -900 Z"></path><path fill="#000000" stroke-width="0" d="M -300 -833.3333 L -300 -766.6667 L -366.6666 -766.6667 L -366.6666 -833.3333 Z"></path><path fill="#000000" stroke-width="0" d="M -300 -766.6666 L -300 -700 L -366.6666 -700 L -366.6666 -766.6666 Z"></path><path fill="#000000" stroke-width="0" d="M -366.6667 -766.6666 L -366.6667 -700 L -433.3333 -700 L -433.3333 -766.6666 Z"></path><path fill="#000000" stroke-width="0" d="M -433.3334 -766.6666 L -433.3334 -700 L -500 -700 L -500 -766.6666 Z"></path><path fill="#000000" stroke-width="0" d="M -433.3334 -833.3333 L -433.3334 -766.6667 L -500 -766.6667 L -500 -833.3333 Z"></path><path fill="#000000" stroke-width="0" d="M -433.3334 -700 L -433.3334 -633.3334 L -500 -633.3334 L -500 -700 Z"></path><path fill="#000000" stroke-width="0" d="M -366.6667 -700 L -366.6667 -633.3334 L -433.3333 -633.3334 L -433.3333 -700 Z"></path><path fill="#000000" stroke-width="0" d="M -300 -700 L -300 -633.3334 L -366.6666 -633.3334 L -366.6666 -700 Z"></path><path fill="#000000" stroke-width="0" d="M -300 -633.3333 L -300 -566.6667 L -366.6666 -566.6667 L -366.6666 -633.3333 Z"></path><path fill="#000000" stroke-width="0" d="M -300 -566.6666 L -300 -500 L -366.6666 -500 L -366.6666 -566.6666 Z"></path><path fill="#000000" stroke-width="0" d="M -366.6667 -566.6666 L -366.6667 -500 L -433.3333 -500 L -433.3333 -566.6666 Z"></path><path fill="#000000" stroke-width="0" d="M -433.3334 -566.6666 L -433.3334 -500 L -500 -500 L -500 -566.6666 Z"></path><path fill="#000000" stroke-width="0" d="M -433.3334 -633.3333 L -433.3334 -566.6667 L -500 -566.6667 L -500 -633.3333 Z"></path><path fill="#000000" stroke-width="0" d="M -433.3334 -500 L -433.3334 -433.3334 L -500 -433.3334 L -500 -500 Z"></path><path fill="#000000" stroke-width="0" d="M -366.6667 -500 L -366.6667 -433.3334 L -433.3333 -433.3334 L -433.3333 -500 Z"></path><path fill="#000000" stroke-width="0" d="M -300 -500 L -300 -433.3334 L -366.6666 -433.3334 L -366.6666 -500 Z"></path><path fill="#000000" stroke-width="0" d="M -300 -433.3333 L -300 -366.6667 L -366.6666 -366.6667 L -366.6666 -433.3333 Z"></path><path fill="#000000" stroke-width="0" d="M -300 -366.6666 L -300 -300 L -366.6666 -300 L -366.6666 -366.6666 Z"></path><path fill="#000000" stroke-width="0" d="M -366.6667 -366.6666 L -366.6667 -300 L -433.3333 -300 L -433.3333 -366.6666 Z"></path><path fill="#000000" stroke-width="0" d="M -433.3334 -366.6666 L -433.3334 -300 L -500 -300 L -500 -366.6666 Z"></path><path fill="#000000" stroke-width="0" d="M -433.3334 -433.3333 L -433.3334 -366.6667 L -500 -366.6667 L -500 -433.3333 Z"></path><path fill="#000000" stroke-width="0" d="M -633.3334 -500 L -633.3334 -433.3334 L -700 -433.3334 L -700 -500 Z"></path><path fill="#000000" stroke-width="0" d="M -566.6667 -500 L -566.6667 -433.3334 L -633.3333 -433.3334 L -633.3333 -500 Z"></path><path fill="#000000" stroke-width="0" d="M -500 -500 L -500 -433.3334 L -566.6666 -433.3334 L -566.6666 -500 Z"></path><path fill="#000000" stroke-width="0" d="M -500 -433.3333 L -500 -366.6667 L -566.6666 -366.6667 L -566.6666 -433.3333 Z"></path><path fill="#000000" stroke-width="0" d="M -500 -366.6666 L -500 -300 L -566.6666 -300 L -566.6666 -366.6666 Z"></path><path fill="#000000" stroke-width="0" d="M -566.6667 -366.6666 L -566.6667 -300 L -633.3333 -300 L -633.3333 -366.6666 Z"></path><path fill="#000000" stroke-width="0" d="M -633.3334 -366.6666 L -633.3334 -300 L -700 -300 L -700 -366.6666 Z"></path><path fill="#000000" stroke-width="0" d="M -633.3334 -433.3333 L -633.3334 -366.6667 L -700 -366.6667 L -700 -433.3333 Z"></path><path fill="#000000" stroke-width="0" d="M -833.3334 -500 L -833.3334 -433.3334 L -900 -433.3334 L -900 -500 Z"></path><path fill="#000000" stroke-width="0" d="M -766.6667 -500 L -766.6667 -433.3334 L -833.3333 -433.3334 L -833.3333 -500 Z"></path><path fill="#000000" stroke-width="0" d="M -700 -500 L -700 -433.3334 L -766.6666 -433.3334 L -766.6666 -500 Z"></path><path fill="#000000" stroke-width="0" d="M -700 -433.3333 L -700 -366.6667 L -766.6666 -366.6667 L -766.6666 -433.3333 Z"></path><path fill="#000000" stroke-width="0" d="M -700 -366.6666 L -700 -300 L -766.6666 -300 L -766.6666 -366.6666 Z"></path><path fill="#000000" stroke-width="0" d="M -766.6667 -366.6666 L -766.6667 -300 L -833.3333 -300 L -833.3333 -366.6666 Z"></path><path fill="#000000" stroke-width="0" d="M -833.3334 -366.6666 L -833.3334 -300 L -900 -300 L -900 -366.6666 Z"></path><path fill="#000000" stroke-width="0" d="M -833.3334 -433.3333 L -833.3334 -366.6667 L -900 -366.6667 L -900 -433.3333 Z"></path><path fill="#000000" stroke-width="0" d="M -833.3334 -700 L -833.3334 -633.3334 L -900 -633.3334 L -900 -700 Z"></path><path fill="#000000" stroke-width="0" d="M -766.6667 -700 L -766.6667 -633.3334 L -833.3333 -633.3334 L -833.3333 -700 Z"></path><path fill="#000000" stroke-width="0" d="M -700 -700 L -700 -633.3334 L -766.6666 -633.3334 L -766.6666 -700 Z"></path><path fill="#000000" stroke-width="0" d="M -700 -633.3333 L -700 -566.6667 L -766.6666 -566.6667 L -766.6666 -633.3333 Z"></path><path fill="#000000" stroke-width="0" d="M -700 -566.6666 L -700 -500 L -766.6666 -500 L -766.6666 -566.6666 Z"></path><path fill="#000000" stroke-width="0" d="M -766.6667 -566.6666 L -766.6667 -500 L -833.3333 -500 L -833.3333 -566.6666 Z"></path><path fill="#000000" stroke-width="0" d="M -833.3334 -566.6666 L -833.3334 -500 L -900 -500 L -900 -566.6666 Z"></path><path fill="#000000" stroke-width="0" d="M -833.3334 -633.3333 L -833.3334 -566.6667 L -900 -566.6667 L -900 -633.3333 Z"></path><path fill="#000000" stroke-width="0" d="M -233.33339999999998 -900 L -233.33339999999998 -833.3334 L -300 -833.3334 L -300 -900 Z"></path><path fill="#000000" stroke-width="0" d="M -166.6667 -900 L -166.6667 -833.3334 L -233.3333 -833.3334 L -233.3333 -900 Z"></path><path fill="#000000" stroke-width="0" d="M -100 -900 L -100 -833.3334 L -166.66660000000002 -833.3334 L -166.66660000000002 -900 Z"></path><path fill="#000000" stroke-width="0" d="M -100 -833.3333 L -100 -766.6667 L -166.66660000000002 -766.6667 L -166.66660000000002 -833.3333 Z"></path><path fill="#000000" stroke-width="0" d="M -100 -766.6666 L -100 -700 L -166.66660000000002 -700 L -166.66660000000002 -766.6666 Z"></path><path fill="#000000" stroke-width="0" d="M -166.6667 -766.6666 L -166.6667 -700 L -233.3333 -700 L -233.3333 -766.6666 Z"></path><path fill="#000000" stroke-width="0" d="M -233.33339999999998 -766.6666 L -233.33339999999998 -700 L -300 -700 L -300 -766.6666 Z"></path><path fill="#000000" stroke-width="0" d="M -233.33339999999998 -833.3333 L -233.33339999999998 -766.6667 L -300 -766.6667 L -300 -833.3333 Z"></path><path fill="#000000" stroke-width="0" d="M -33.333400000000005 -900 L -33.333400000000005 -833.3334 L -100 -833.3334 L -100 -900 Z"></path><path fill="#000000" stroke-width="0" d="M 33.3333 -900 L 33.3333 -833.3334 L -33.3333 -833.3334 L -33.3333 -900 Z"></path><path fill="#000000" stroke-width="0" d="M 100 -900 L 100 -833.3334 L 33.333400000000005 -833.3334 L 33.333400000000005 -900 Z"></path><path fill="#000000" stroke-width="0" d="M 100 -833.3333 L 100 -766.6667 L 33.333400000000005 -766.6667 L 33.333400000000005 -833.3333 Z"></path><path fill="#000000" stroke-width="0" d="M 100 -766.6666 L 100 -700 L 33.333400000000005 -700 L 33.333400000000005 -766.6666 Z"></path><path fill="#000000" stroke-width="0" d="M 33.3333 -766.6666 L 33.3333 -700 L -33.3333 -700 L -33.3333 -766.6666 Z"></path><path fill="#000000" stroke-width="0" d="M -33.333400000000005 -766.6666 L -33.333400000000005 -700 L -100 -700 L -100 -766.6666 Z"></path><path fill="#000000" stroke-width="0" d="M -33.333400000000005 -833.3333 L -33.333400000000005 -766.6667 L -100 -766.6667 L -100 -833.3333 Z"></path><path fill="#000000" stroke-width="0" d="M 166.66660000000002 -900 L 166.66660000000002 -833.3334 L 100 -833.3334 L 100 -900 Z"></path><path fill="#000000" stroke-width="0" d="M 233.3333 -900 L 233.3333 -833.3334 L 166.6667 -833.3334 L 166.6667 -900 Z"></path><path fill="#000000" stroke-width="0" d="M 300 -900 L 300 -833.3334 L 233.33339999999998 -833.3334 L 233.33339999999998 -900 Z"></path><path fill="#000000" stroke-width="0" d="M 300 -833.3333 L 300 -766.6667 L 233.33339999999998 -766.6667 L 233.33339999999998 -833.3333 Z"></path><path fill="#000000" stroke-width="0" d="M 300 -766.6666 L 300 -700 L 233.33339999999998 -700 L 233.33339999999998 -766.6666 Z"></path><path fill="#000000" stroke-width="0" d="M 233.3333 -766.6666 L 233.3333 -700 L 166.6667 -700 L 166.6667 -766.6666 Z"></path><path fill="#000000" stroke-width="0" d="M 166.66660000000002 -766.6666 L 166.66660000000002 -700 L 100 -700 L 100 -766.6666 Z"></path><path fill="#000000" stroke-width="0" d="M 166.66660000000002 -833.3333 L 166.66660000000002 -766.6667 L 100 -766.6667 L 100 -833.3333 Z"></path><path fill="#000000" stroke-width="0" d="M 166.66660000000002 -700 L 166.66660000000002 -633.3334 L 100 -633.3334 L 100 -700 Z"></path><path fill="#000000" stroke-width="0" d="M 233.3333 -700 L 233.3333 -633.3334 L 166.6667 -633.3334 L 166.6667 -700 Z"></path><path fill="#000000" stroke-width="0" d="M 300 -700 L 300 -633.3334 L 233.33339999999998 -633.3334 L 233.33339999999998 -700 Z"></path><path fill="#000000" stroke-width="0" d="M 300 -633.3333 L 300 -566.6667 L 233.33339999999998 -566.6667 L 233.33339999999998 -633.3333 Z"></path><path fill="#000000" stroke-width="0" d="M 300 -566.6666 L 300 -500 L 233.33339999999998 -500 L 233.33339999999998 -566.6666 Z"></path><path fill="#000000" stroke-width="0" d="M 233.3333 -566.6666 L 233.3333 -500 L 166.6667 -500 L 166.6667 -566.6666 Z"></path><path fill="#000000" stroke-width="0" d="M 166.66660000000002 -566.6666 L 166.66660000000002 -500 L 100 -500 L 100 -566.6666 Z"></path><path fill="#000000" stroke-width="0" d="M 166.66660000000002 -633.3333 L 166.66660000000002 -566.6667 L 100 -566.6667 L 100 -633.3333 Z"></path><path fill="#000000" stroke-width="0" d="M 166.66660000000002 -500 L 166.66660000000002 -433.3334 L 100 -433.3334 L 100 -500 Z"></path><path fill="#000000" stroke-width="0" d="M 233.3333 -500 L 233.3333 -433.3334 L 166.6667 -433.3334 L 166.6667 -500 Z"></path><path fill="#000000" stroke-width="0" d="M 300 -500 L 300 -433.3334 L 233.33339999999998 -433.3334 L 233.33339999999998 -500 Z"></path><path fill="#000000" stroke-width="0" d="M 300 -433.3333 L 300 -366.6667 L 233.33339999999998 -366.6667 L 233.33339999999998 -433.3333 Z"></path><path fill="#000000" stroke-width="0" d="M 300 -366.6666 L 300 -300 L 233.33339999999998 -300 L 233.33339999999998 -366.6666 Z"></path><path fill="#000000" stroke-width="0" d="M 233.3333 -366.6666 L 233.3333 -300 L 166.6667 -300 L 166.6667 -366.6666 Z"></path><path fill="#000000" stroke-width="0" d="M 166.66660000000002 -366.6666 L 166.66660000000002 -300 L 100 -300 L 100 -366.6666 Z"></path><path fill="#000000" stroke-width="0" d="M 166.66660000000002 -433.3333 L 166.66660000000002 -366.6667 L 100 -366.6667 L 100 -433.3333 Z"></path><path fill="#000000" stroke-width="0" d="M -33.333400000000005 -500 L -33.333400000000005 -433.3334 L -100 -433.3334 L -100 -500 Z"></path><path fill="#000000" stroke-width="0" d="M 33.3333 -500 L 33.3333 -433.3334 L -33.3333 -433.3334 L -33.3333 -500 Z"></path><path fill="#000000" stroke-width="0" d="M 100 -500 L 100 -433.3334 L 33.333400000000005 -433.3334 L 33.333400000000005 -500 Z"></path><path fill="#000000" stroke-width="0" d="M 100 -433.3333 L 100 -366.6667 L 33.333400000000005 -366.6667 L 33.333400000000005 -433.3333 Z"></path><path fill="#000000" stroke-width="0" d="M 100 -366.6666 L 100 -300 L 33.333400000000005 -300 L 33.333400000000005 -366.6666 Z"></path><path fill="#000000" stroke-width="0" d="M 33.3333 -366.6666 L 33.3333 -300 L -33.3333 -300 L -33.3333 -366.6666 Z"></path><path fill="#000000" stroke-width="0" d="M -33.333400000000005 -366.6666 L -33.333400000000005 -300 L -100 -300 L -100 -366.6666 Z"></path><path fill="#000000" stroke-width="0" d="M -33.333400000000005 -433.3333 L -33.333400000000005 -366.6667 L -100 -366.6667 L -100 -433.3333 Z"></path><path fill="#000000" stroke-width="0" d="M -233.33339999999998 -500 L -233.33339999999998 -433.3334 L -300 -433.3334 L -300 -500 Z"></path><path fill="#000000" stroke-width="0" d="M -166.6667 -500 L -166.6667 -433.3334 L -233.3333 -433.3334 L -233.3333 -500 Z"></path><path fill="#000000" stroke-width="0" d="M -100 -500 L -100 -433.3334 L -166.66660000000002 -433.3334 L -166.66660000000002 -500 Z"></path><path fill="#000000" stroke-width="0" d="M -100 -433.3333 L -100 -366.6667 L -166.66660000000002 -366.6667 L -166.66660000000002 -433.3333 Z"></path><path fill="#000000" stroke-width="0" d="M -100 -366.6666 L -100 -300 L -166.66660000000002 -300 L -166.66660000000002 -366.6666 Z"></path><path fill="#000000" stroke-width="0" d="M -166.6667 -366.6666 L -166.6667 -300 L -233.3333 -300 L -233.3333 -366.6666 Z"></path><path fill="#000000" stroke-width="0" d="M -233.33339999999998 -366.6666 L -233.33339999999998 -300 L -300 -300 L -300 -366.6666 Z"></path><path fill="#000000" stroke-width="0" d="M -233.33339999999998 -433.3333 L -233.33339999999998 -366.6667 L -300 -366.6667 L -300 -433.3333 Z"></path><path fill="#000000" stroke-width="0" d="M -233.33339999999998 -700 L -233.33339999999998 -633.3334 L -300 -633.3334 L -300 -700 Z"></path><path fill="#000000" stroke-width="0" d="M -166.6667 -700 L -166.6667 -633.3334 L -233.3333 -633.3334 L -233.3333 -700 Z"></path><path fill="#000000" stroke-width="0" d="M -100 -700 L -100 -633.3334 L -166.66660000000002 -633.3334 L -166.66660000000002 -700 Z"></path><path fill="#000000" stroke-width="0" d="M -100 -633.3333 L -100 -566.6667 L -166.66660000000002 -566.6667 L -166.66660000000002 -633.3333 Z"></path><path fill="#000000" stroke-width="0" d="M -100 -566.6666 L -100 -500 L -166.66660000000002 -500 L -166.66660000000002 -566.6666 Z"></path><path fill="#000000" stroke-width="0" d="M -166.6667 -566.6666 L -166.6667 -500 L -233.3333 -500 L -233.3333 -566.6666 Z"></path><path fill="#000000" stroke-width="0" d="M -233.33339999999998 -566.6666 L -233.33339999999998 -500 L -300 -500 L -300 -566.6666 Z"></path><path fill="#000000" stroke-width="0" d="M -233.33339999999998 -633.3333 L -233.33339999999998 -566.6667 L -300 -566.6667 L -300 -633.3333 Z"></path><path fill="#000000" stroke-width="0" d="M 366.6666 -900 L 366.6666 -833.3334 L 300 -833.3334 L 300 -900 Z"></path><path fill="#000000" stroke-width="0" d="M 433.3333 -900 L 433.3333 -833.3334 L 366.6667 -833.3334 L 366.6667 -900 Z"></path><path fill="#000000" stroke-width="0" d="M 500 -900 L 500 -833.3334 L 433.3334 -833.3334 L 433.3334 -900 Z"></path><path fill="#000000" stroke-width="0" d="M 500 -833.3333 L 500 -766.6667 L 433.3334 -766.6667 L 433.3334 -833.3333 Z"></path><path fill="#000000" stroke-width="0" d="M 500 -766.6666 L 500 -700 L 433.3334 -700 L 433.3334 -766.6666 Z"></path><path fill="#000000" stroke-width="0" d="M 433.3333 -766.6666 L 433.3333 -700 L 366.6667 -700 L 366.6667 -766.6666 Z"></path><path fill="#000000" stroke-width="0" d="M 366.6666 -766.6666 L 366.6666 -700 L 300 -700 L 300 -766.6666 Z"></path><path fill="#000000" stroke-width="0" d="M 366.6666 -833.3333 L 366.6666 -766.6667 L 300 -766.6667 L 300 -833.3333 Z"></path><path fill="#000000" stroke-width="0" d="M 566.6666 -900 L 566.6666 -833.3334 L 500 -833.3334 L 500 -900 Z"></path><path fill="#000000" stroke-width="0" d="M 633.3333 -900 L 633.3333 -833.3334 L 566.6667 -833.3334 L 566.6667 -900 Z"></path><path fill="#000000" stroke-width="0" d="M 700 -900 L 700 -833.3334 L 633.3334 -833.3334 L 633.3334 -900 Z"></path><path fill="#000000" stroke-width="0" d="M 700 -833.3333 L 700 -766.6667 L 633.3334 -766.6667 L 633.3334 -833.3333 Z"></path><path fill="#000000" stroke-width="0" d="M 700 -766.6666 L 700 -700 L 633.3334 -700 L 633.3334 -766.6666 Z"></path><path fill="#000000" stroke-width="0" d="M 633.3333 -766.6666 L 633.3333 -700 L 566.6667 -700 L 566.6667 -766.6666 Z"></path><path fill="#000000" stroke-width="0" d="M 566.6666 -766.6666 L 566.6666 -700 L 500 -700 L 500 -766.6666 Z"></path><path fill="#000000" stroke-width="0" d="M 566.6666 -833.3333 L 566.6666 -766.6667 L 500 -766.6667 L 500 -833.3333 Z"></path><path fill="#000000" stroke-width="0" d="M 766.6666 -900 L 766.6666 -833.3334 L 700 -833.3334 L 700 -900 Z"></path><path fill="#000000" stroke-width="0" d="M 833.3333 -900 L 833.3333 -833.3334 L 766.6667 -833.3334 L 766.6667 -900 Z"></path><path fill="#000000" stroke-width="0" d="M 900 -900 L 900 -833.3334 L 833.3334 -833.3334 L 833.3334 -900 Z"></path><path fill="#000000" stroke-width="0" d="M 900 -833.3333 L 900 -766.6667 L 833.3334 -766.6667 L 833.3334 -833.3333 Z"></path><path fill="#000000" stroke-width="0" d="M 900 -766.6666 L 900 -700 L 833.3334 -700 L 833.3334 -766.6666 Z"></path><path fill="#000000" stroke-width="0" d="M 833.3333 -766.6666 L 833.3333 -700 L 766.6667 -700 L 766.6667 -766.6666 Z"></path><path fill="#000000" stroke-width="0" d="M 766.6666 -766.6666 L 766.6666 -700 L 700 -700 L 700 -766.6666 Z"></path><path fill="#000000" stroke-width="0" d="M 766.6666 -833.3333 L 766.6666 -766.6667 L 700 -766.6667 L 700 -833.3333 Z"></path><path fill="#000000" stroke-width="0" d="M 766.6666 -700 L 766.6666 -633.3334 L 700 -633.3334 L 700 -700 Z"></path><path fill="#000000" stroke-width="0" d="M 833.3333 -700 L 833.3333 -633.3334 L 766.6667 -633.3334 L 766.6667 -700 Z"></path><path fill="#000000" stroke-width="0" d="M 900 -700 L 900 -633.3334 L 833.3334 -633.3334 L 833.3334 -700 Z"></path><path fill="#000000" stroke-width="0" d="M 900 -633.3333 L 900 -566.6667 L 833.3334 -566.6667 L 833.3334 -633.3333 Z"></path><path fill="#000000" stroke-width="0" d="M 900 -566.6666 L 900 -500 L 833.3334 -500 L 833.3334 -566.6666 Z"></path><path fill="#000000" stroke-width="0" d="M 833.3333 -566.6666 L 833.3333 -500 L 766.6667 -500 L 766.6667 -566.6666 Z"></path><path fill="#000000" stroke-width="0" d="M 766.6666 -566.6666 L 766.6666 -500 L 700 -500 L 700 -566.6666 Z"></path><path fill="#000000" stroke-width="0" d="M 766.6666 -633.3333 L 766.6666 -566.6667 L 700 -566.6667 L 700 -633.3333 Z"></path><path fill="#000000" stroke-width="0" d="M 766.6666 -500 L 766.6666 -433.3334 L 700 -433.3334 L 700 -500 Z"></path><path fill="#000000" stroke-width="0" d="M 833.3333 -500 L 833.3333 -433.3334 L 766.6667 -433.3334 L 766.6667 -500 Z"></path><path fill="#000000" stroke-width="0" d="M 900 -500 L 900 -433.3334 L 833.3334 -433.3334 L 833.3334 -500 Z"></path><path fill="#000000" stroke-width="0" d="M 900 -433.3333 L 900 -366.6667 L 833.3334 -366.6667 L 833.3334 -433.3333 Z"></path><path fill="#000000" stroke-width="0" d="M 900 -366.6666 L 900 -300 L 833.3334 -300 L 833.3334 -366.6666 Z"></path><path fill="#000000" stroke-width="0" d="M 833.3333 -366.6666 L 833.3333 -300 L 766.6667 -300 L 766.6667 -366.6666 Z"></path><path fill="#000000" stroke-width="0" d="M 766.6666 -366.6666 L 766.6666 -300 L 700 -300 L 700 -366.6666 Z"></path><path fill="#000000" stroke-width="0" d="M 766.6666 -433.3333 L 766.6666 -366.6667 L 700 -366.6667 L 700 -433.3333 Z"></path><path fill="#000000" stroke-width="0" d="M 566.6666 -500 L 566.6666 -433.3334 L 500 -433.3334 L 500 -500 Z"></path><path fill="#000000" stroke-width="0" d="M 633.3333 -500 L 633.3333 -433.3334 L 566.6667 -433.3334 L 566.6667 -500 Z"></path><path fill="#000000" stroke-width="0" d="M 700 -500 L 700 -433.3334 L 633.3334 -433.3334 L 633.3334 -500 Z"></path><path fill="#000000" stroke-width="0" d="M 700 -433.3333 L 700 -366.6667 L 633.3334 -366.6667 L 633.3334 -433.3333 Z"></path><path fill="#000000" stroke-width="0" d="M 700 -366.6666 L 700 -300 L 633.3334 -300 L 633.3334 -366.6666 Z"></path><path fill="#000000" stroke-width="0" d="M 633.3333 -366.6666 L 633.3333 -300 L 566.6667 -300 L 566.6667 -366.6666 Z"></path><path fill="#000000" stroke-width="0" d="M 566.6666 -366.6666 L 566.6666 -300 L 500 -300 L 500 -366.6666 Z"></path><path fill="#000000" stroke-width="0" d="M 566.6666 -433.3333 L 566.6666 -366.6667 L 500 -366.6667 L 500 -433.3333 Z"></path><path fill="#000000" stroke-width="0" d="M 366.6666 -500 L 366.6666 -433.3334 L 300 -433.3334 L 300 -500 Z"></path><path fill="#000000" stroke-width="0" d="M 433.3333 -500 L 433.3333 -433.3334 L 366.6667 -433.3334 L 366.6667 -500 Z"></path><path fill="#000000" stroke-width="0" d="M 500 -500 L 500 -433.3334 L 433.3334 -433.3334 L 433.3334 -500 Z"></path><path fill="#000000" stroke-width="0" d="M 500 -433.3333 L 500 -366.6667 L 433.3334 -366.6667 L 433.3334 -433.3333 Z"></path><path fill="#000000" stroke-width="0" d="M 500 -366.6666 L 500 -300 L 433.3334 -300 L 433.3334 -366.6666 Z"></path><path fill="#000000" stroke-width="0" d="M 433.3333 -366.6666 L 433.3333 -300 L 366.6667 -300 L 366.6667 -366.6666 Z"></path><path fill="#000000" stroke-width="0" d="M 366.6666 -366.6666 L 366.6666 -300 L 300 -300 L 300 -366.6666 Z"></path><path fill="#000000" stroke-width="0" d="M 366.6666 -433.3333 L 366.6666 -366.6667 L 300 -366.6667 L 300 -433.3333 Z"></path><path fill="#000000" stroke-width="0" d="M 366.6666 -700 L 366.6666 -633.3334 L 300 -633.3334 L 300 -700 Z"></path><path fill="#000000" stroke-width="0" d="M 433.3333 -700 L 433.3333 -633.3334 L 366.6667 -633.3334 L 366.6667 -700 Z"></path><path fill="#000000" stroke-width="0" d="M 500 -700 L 500 -633.3334 L 433.3334 -633.3334 L 433.3334 -700 Z"></path><path fill="#000000" stroke-width="0" d="M 500 -633.3333 L 500 -566.6667 L 433.3334 -566.6667 L 433.3334 -633.3333 Z"></path><path fill="#000000" stroke-width="0" d="M 500 -566.6666 L 500 -500 L 433.3334 -500 L 433.3334 -566.6666 Z"></path><path fill="#000000" stroke-width="0" d="M 433.3333 -566.6666 L 433.3333 -500 L 366.6667 -500 L 366.6667 -566.6666 Z"></path><path fill="#000000" stroke-width="0" d="M 366.6666 -566.6666 L 366.6666 -500 L 300 -500 L 300 -566.6666 Z"></path><path fill="#000000" stroke-width="0" d="M 366.6666 -633.3333 L 366.6666 -566.6667 L 300 -566.6667 L 300 -633.3333 Z"></path><path fill="#000000" stroke-width="0" d="M 366.6666 -300 L 366.6666 -233.33339999999998 L 300 -233.33339999999998 L 300 -300 Z"></path><path fill="#000000" stroke-width="0" d="M 433.3333 -300 L 433.3333 -233.33339999999998 L 366.6667 -233.33339999999998 L 366.6667 -300 Z"></path><path fill="#000000" stroke-width="0" d="M 500 -300 L 500 -233.33339999999998 L 433.3334 -233.33339999999998 L 433.3334 -300 Z"></path><path fill="#000000" stroke-width="0" d="M 500 -233.3333 L 500 -166.6667 L 433.3334 -166.6667 L 433.3334 -233.3333 Z"></path><path fill="#000000" stroke-width="0" d="M 500 -166.66660000000002 L 500 -100 L 433.3334 -100 L 433.3334 -166.66660000000002 Z"></path><path fill="#000000" stroke-width="0" d="M 433.3333 -166.66660000000002 L 433.3333 -100 L 366.6667 -100 L 366.6667 -166.66660000000002 Z"></path><path fill="#000000" stroke-width="0" d="M 366.6666 -166.66660000000002 L 366.6666 -100 L 300 -100 L 300 -166.66660000000002 Z"></path><path fill="#000000" stroke-width="0" d="M 366.6666 -233.3333 L 366.6666 -166.6667 L 300 -166.6667 L 300 -233.3333 Z"></path><path fill="#000000" stroke-width="0" d="M 566.6666 -300 L 566.6666 -233.33339999999998 L 500 -233.33339999999998 L 500 -300 Z"></path><path fill="#000000" stroke-width="0" d="M 633.3333 -300 L 633.3333 -233.33339999999998 L 566.6667 -233.33339999999998 L 566.6667 -300 Z"></path><path fill="#000000" stroke-width="0" d="M 700 -300 L 700 -233.33339999999998 L 633.3334 -233.33339999999998 L 633.3334 -300 Z"></path><path fill="#000000" stroke-width="0" d="M 700 -233.3333 L 700 -166.6667 L 633.3334 -166.6667 L 633.3334 -233.3333 Z"></path><path fill="#000000" stroke-width="0" d="M 700 -166.66660000000002 L 700 -100 L 633.3334 -100 L 633.3334 -166.66660000000002 Z"></path><path fill="#000000" stroke-width="0" d="M 633.3333 -166.66660000000002 L 633.3333 -100 L 566.6667 -100 L 566.6667 -166.66660000000002 Z"></path><path fill="#000000" stroke-width="0" d="M 566.6666 -166.66660000000002 L 566.6666 -100 L 500 -100 L 500 -166.66660000000002 Z"></path><path fill="#000000" stroke-width="0" d="M 566.6666 -233.3333 L 566.6666 -166.6667 L 500 -166.6667 L 500 -233.3333 Z"></path><path fill="#000000" stroke-width="0" d="M 766.6666 -300 L 766.6666 -233.33339999999998 L 700 -233.33339999999998 L 700 -300 Z"></path><path fill="#000000" stroke-width="0" d="M 833.3333 -300 L 833.3333 -233.33339999999998 L 766.6667 -233.33339999999998 L 766.6667 -300 Z"></path><path fill="#000000" stroke-width="0" d="M 900 -300 L 900 -233.33339999999998 L 833.3334 -233.33339999999998 L 833.3334 -300 Z"></path><path fill="#000000" stroke-width="0" d="M 900 -233.3333 L 900 -166.6667 L 833.3334 -166.6667 L 833.3334 -233.3333 Z"></path><path fill="#000000" stroke-width="0" d="M 900 -166.66660000000002 L 900 -100 L 833.3334 -100 L 833.3334 -166.66660000000002 Z"></path><path fill="#000000" stroke-width="0" d="M 833.3333 -166.66660000000002 L 833.3333 -100 L 766.6667 -100 L 766.6667 -166.66660000000002 Z"></path><path fill="#000000" stroke-width="0" d="M 766.6666 -166.66660000000002 L 766.6666 -100 L 700 -100 L 700 -166.66660000000002 Z"></path><path fill="#000000" stroke-width="0" d="M 766.6666 -233.3333 L 766.6666 -166.6667 L 700 -166.6667 L 700 -233.3333 Z"></path><path fill="#000000" stroke-width="0" d="M 766.6666 -100 L 766.6666 -33.333400000000005 L 700 -33.333400000000005 L 700 -100 Z"></path><path fill="#000000" stroke-width="0" d="M 833.3333 -100 L 833.3333 -33.333400000000005 L 766.6667 -33.333400000000005 L 766.6667 -100 Z"></path><path fill="#000000" stroke-width="0" d="M 900 -100 L 900 -33.333400000000005 L 833.3334 -33.333400000000005 L 833.3334 -100 Z"></path><path fill="#000000" stroke-width="0" d="M 900 -33.3333 L 900 33.3333 L 833.3334 33.3333 L 833.3334 -33.3333 Z"></path><path fill="#000000" stroke-width="0" d="M 900 33.333400000000005 L 900 100 L 833.3334 100 L 833.3334 33.333400000000005 Z"></path><path fill="#000000" stroke-width="0" d="M 833.3333 33.333400000000005 L 833.3333 100 L 766.6667 100 L 766.6667 33.333400000000005 Z"></path><path fill="#000000" stroke-width="0" d="M 766.6666 33.333400000000005 L 766.6666 100 L 700 100 L 700 33.333400000000005 Z"></path><path fill="#000000" stroke-width="0" d="M 766.6666 -33.3333 L 766.6666 33.3333 L 700 33.3333 L 700 -33.3333 Z"></path><path fill="#000000" stroke-width="0" d="M 766.6666 100 L 766.6666 166.66660000000002 L 700 166.66660000000002 L 700 100 Z"></path><path fill="#000000" stroke-width="0" d="M 833.3333 100 L 833.3333 166.66660000000002 L 766.6667 166.66660000000002 L 766.6667 100 Z"></path><path fill="#000000" stroke-width="0" d="M 900 100 L 900 166.66660000000002 L 833.3334 166.66660000000002 L 833.3334 100 Z"></path><path fill="#000000" stroke-width="0" d="M 900 166.6667 L 900 233.3333 L 833.3334 233.3333 L 833.3334 166.6667 Z"></path><path fill="#000000" stroke-width="0" d="M 900 233.33339999999998 L 900 300 L 833.3334 300 L 833.3334 233.33339999999998 Z"></path><path fill="#000000" stroke-width="0" d="M 833.3333 233.33339999999998 L 833.3333 300 L 766.6667 300 L 766.6667 233.33339999999998 Z"></path><path fill="#000000" stroke-width="0" d="M 766.6666 233.33339999999998 L 766.6666 300 L 700 300 L 700 233.33339999999998 Z"></path><path fill="#000000" stroke-width="0" d="M 766.6666 166.6667 L 766.6666 233.3333 L 700 233.3333 L 700 166.6667 Z"></path><path fill="#000000" stroke-width="0" d="M 566.6666 100 L 566.6666 166.66660000000002 L 500 166.66660000000002 L 500 100 Z"></path><path fill="#000000" stroke-width="0" d="M 633.3333 100 L 633.3333 166.66660000000002 L 566.6667 166.66660000000002 L 566.6667 100 Z"></path><path fill="#000000" stroke-width="0" d="M 700 100 L 700 166.66660000000002 L 633.3334 166.66660000000002 L 633.3334 100 Z"></path><path fill="#000000" stroke-width="0" d="M 700 166.6667 L 700 233.3333 L 633.3334 233.3333 L 633.3334 166.6667 Z"></path><path fill="#000000" stroke-width="0" d="M 700 233.33339999999998 L 700 300 L 633.3334 300 L 633.3334 233.33339999999998 Z"></path><path fill="#000000" stroke-width="0" d="M 633.3333 233.33339999999998 L 633.3333 300 L 566.6667 300 L 566.6667 233.33339999999998 Z"></path><path fill="#000000" stroke-width="0" d="M 566.6666 233.33339999999998 L 566.6666 300 L 500 300 L 500 233.33339999999998 Z"></path><path fill="#000000" stroke-width="0" d="M 566.6666 166.6667 L 566.6666 233.3333 L 500 233.3333 L 500 166.6667 Z"></path><path fill="#000000" stroke-width="0" d="M 366.6666 100 L 366.6666 166.66660000000002 L 300 166.66660000000002 L 300 100 Z"></path><path fill="#000000" stroke-width="0" d="M 433.3333 100 L 433.3333 166.66660000000002 L 366.6667 166.66660000000002 L 366.6667 100 Z"></path><path fill="#000000" stroke-width="0" d="M 500 100 L 500 166.66660000000002 L 433.3334 166.66660000000002 L 433.3334 100 Z"></path><path fill="#000000" stroke-width="0" d="M 500 166.6667 L 500 233.3333 L 433.3334 233.3333 L 433.3334 166.6667 Z"></path><path fill="#000000" stroke-width="0" d="M 500 233.33339999999998 L 500 300 L 433.3334 300 L 433.3334 233.33339999999998 Z"></path><path fill="#000000" stroke-width="0" d="M 433.3333 233.33339999999998 L 433.3333 300 L 366.6667 300 L 366.6667 233.33339999999998 Z"></path><path fill="#000000" stroke-width="0" d="M 366.6666 233.33339999999998 L 366.6666 300 L 300 300 L 300 233.33339999999998 Z"></path><path fill="#000000" stroke-width="0" d="M 366.6666 166.6667 L 366.6666 233.3333 L 300 233.3333 L 300 166.6667 Z"></path><path fill="#000000" stroke-width="0" d="M 366.6666 -100 L 366.6666 -33.333400000000005 L 300 -33.333400000000005 L 300 -100 Z"></path><path fill="#000000" stroke-width="0" d="M 433.3333 -100 L 433.3333 -33.333400000000005 L 366.6667 -33.333400000000005 L 366.6667 -100 Z"></path><path fill="#000000" stroke-width="0" d="M 500 -100 L 500 -33.333400000000005 L 433.3334 -33.333400000000005 L 433.3334 -100 Z"></path><path fill="#000000" stroke-width="0" d="M 500 -33.3333 L 500 33.3333 L 433.3334 33.3333 L 433.3334 -33.3333 Z"></path><path fill="#000000" stroke-width="0" d="M 500 33.333400000000005 L 500 100 L 433.3334 100 L 433.3334 33.333400000000005 Z"></path><path fill="#000000" stroke-width="0" d="M 433.3333 33.333400000000005 L 433.3333 100 L 366.6667 100 L 366.6667 33.333400000000005 Z"></path><path fill="#000000" stroke-width="0" d="M 366.6666 33.333400000000005 L 366.6666 100 L 300 100 L 300 33.333400000000005 Z"></path><path fill="#000000" stroke-width="0" d="M 366.6666 -33.3333 L 366.6666 33.3333 L 300 33.3333 L 300 -33.3333 Z"></path><path fill="#000000" stroke-width="0" d="M 366.6666 300 L 366.6666 366.6666 L 300 366.6666 L 300 300 Z"></path><path fill="#000000" stroke-width="0" d="M 433.3333 300 L 433.3333 366.6666 L 366.6667 366.6666 L 366.6667 300 Z"></path><path fill="#000000" stroke-width="0" d="M 500 300 L 500 366.6666 L 433.3334 366.6666 L 433.3334 300 Z"></path><path fill="#000000" stroke-width="0" d="M 500 366.6667 L 500 433.3333 L 433.3334 433.3333 L 433.3334 366.6667 Z"></path><path fill="#000000" stroke-width="0" d="M 500 433.3334 L 500 500 L 433.3334 500 L 433.3334 433.3334 Z"></path><path fill="#000000" stroke-width="0" d="M 433.3333 433.3334 L 433.3333 500 L 366.6667 500 L 366.6667 433.3334 Z"></path><path fill="#000000" stroke-width="0" d="M 366.6666 433.3334 L 366.6666 500 L 300 500 L 300 433.3334 Z"></path><path fill="#000000" stroke-width="0" d="M 366.6666 366.6667 L 366.6666 433.3333 L 300 433.3333 L 300 366.6667 Z"></path><path fill="#000000" stroke-width="0" d="M 566.6666 300 L 566.6666 366.6666 L 500 366.6666 L 500 300 Z"></path><path fill="#000000" stroke-width="0" d="M 633.3333 300 L 633.3333 366.6666 L 566.6667 366.6666 L 566.6667 300 Z"></path><path fill="#000000" stroke-width="0" d="M 700 300 L 700 366.6666 L 633.3334 366.6666 L 633.3334 300 Z"></path><path fill="#000000" stroke-width="0" d="M 700 366.6667 L 700 433.3333 L 633.3334 433.3333 L 633.3334 366.6667 Z"></path><path fill="#000000" stroke-width="0" d="M 700 433.3334 L 700 500 L 633.3334 500 L 633.3334 433.3334 Z"></path><path fill="#000000" stroke-width="0" d="M 633.3333 433.3334 L 633.3333 500 L 566.6667 500 L 566.6667 433.3334 Z"></path><path fill="#000000" stroke-width="0" d="M 566.6666 433.3334 L 566.6666 500 L 500 500 L 500 433.3334 Z"></path><path fill="#000000" stroke-width="0" d="M 566.6666 366.6667 L 566.6666 433.3333 L 500 433.3333 L 500 366.6667 Z"></path><path fill="#000000" stroke-width="0" d="M 766.6666 300 L 766.6666 366.6666 L 700 366.6666 L 700 300 Z"></path><path fill="#000000" stroke-width="0" d="M 833.3333 300 L 833.3333 366.6666 L 766.6667 366.6666 L 766.6667 300 Z"></path><path fill="#000000" stroke-width="0" d="M 900 300 L 900 366.6666 L 833.3334 366.6666 L 833.3334 300 Z"></path><path fill="#000000" stroke-width="0" d="M 900 366.6667 L 900 433.3333 L 833.3334 433.3333 L 833.3334 366.6667 Z"></path><path fill="#000000" stroke-width="0" d="M 900 433.3334 L 900 500 L 833.3334 500 L 833.3334 433.3334 Z"></path><path fill="#000000" stroke-width="0" d="M 833.3333 433.3334 L 833.3333 500 L 766.6667 500 L 766.6667 433.3334 Z"></path><path fill="#000000" stroke-width="0" d="M 766.6666 433.3334 L 766.6666 500 L 700 500 L 700 433.3334 Z"></path><path fill="#000000" stroke-width="0" d="M 766.6666 366.6667 L 766.6666 433.3333 L 700 433.3333 L 700 366.6667 Z"></path><path fill="#000000" stroke-width="0" d="M 766.6666 500 L 766.6666 566.6666 L 700 566.6666 L 700 500 Z"></path><path fill="#000000" stroke-width="0" d="M 833.3333 500 L 833.3333 566.6666 L 766.6667 566.6666 L 766.6667 500 Z"></path><path fill="#000000" stroke-width="0" d="M 900 500 L 900 566.6666 L 833.3334 566.6666 L 833.3334 500 Z"></path><path fill="#000000" stroke-width="0" d="M 900 566.6667 L 900 633.3333 L 833.3334 633.3333 L 833.3334 566.6667 Z"></path><path fill="#000000" stroke-width="0" d="M 900 633.3334 L 900 700 L 833.3334 700 L 833.3334 633.3334 Z"></path><path fill="#000000" stroke-width="0" d="M 833.3333 633.3334 L 833.3333 700 L 766.6667 700 L 766.6667 633.3334 Z"></path><path fill="#000000" stroke-width="0" d="M 766.6666 633.3334 L 766.6666 700 L 700 700 L 700 633.3334 Z"></path><path fill="#000000" stroke-width="0" d="M 766.6666 566.6667 L 766.6666 633.3333 L 700 633.3333 L 700 566.6667 Z"></path><path fill="#000000" stroke-width="0" d="M 766.6666 700 L 766.6666 766.6666 L 700 766.6666 L 700 700 Z"></path><path fill="#000000" stroke-width="0" d="M 833.3333 700 L 833.3333 766.6666 L 766.6667 766.6666 L 766.6667 700 Z"></path><path fill="#000000" stroke-width="0" d="M 900 700 L 900 766.6666 L 833.3334 766.6666 L 833.3334 700 Z"></path><path fill="#000000" stroke-width="0" d="M 900 766.6667 L 900 833.3333 L 833.3334 833.3333 L 833.3334 766.6667 Z"></path><path fill="#000000" stroke-width="0" d="M 900 833.3334 L 900 900 L 833.3334 900 L 833.3334 833.3334 Z"></path><path fill="#000000" stroke-width="0" d="M 833.3333 833.3334 L 833.3333 900 L 766.6667 900 L 766.6667 833.3334 Z"></path><path fill="#000000" stroke-width="0" d="M 766.6666 833.3334 L 766.6666 900 L 700 900 L 700 833.3334 Z"></path><path fill="#000000" stroke-width="0" d="M 766.6666 766.6667 L 766.6666 833.3333 L 700 833.3333 L 700 766.6667 Z"></path><path fill="#000000" stroke-width="0" d="M 566.6666 700 L 566.6666 766.6666 L 500 766.6666 L 500 700 Z"></path><path fill="#000000" stroke-width="0" d="M 633.3333 700 L 633.3333 766.6666 L 566.6667 766.6666 L 566.6667 700 Z"></path><path fill="#000000" stroke-width="0" d="M 700 700 L 700 766.6666 L 633.3334 766.6666 L 633.3334 700 Z"></path><path fill="#000000" stroke-width="0" d="M 700 766.6667 L 700 833.3333 L 633.3334 833.3333 L 633.3334 766.6667 Z"></path><path fill="#000000" stroke-width="0" d="M 700 833.3334 L 700 900 L 633.3334 900 L 633.3334 833.3334 Z"></path><path fill="#000000" stroke-width="0" d="M 633.3333 833.3334 L 633.3333 900 L 566.6667 900 L 566.6667 833.3334 Z"></path><path fill="#000000" stroke-width="0" d="M 566.6666 833.3334 L 566.6666 900 L 500 900 L 500 833.3334 Z"></path><path fill="#000000" stroke-width="0" d="M 566.6666 766.6667 L 566.6666 833.3333 L 500 833.3333 L 500 766.6667 Z"></path><path fill="#000000" stroke-width="0" d="M 366.6666 700 L 366.6666 766.6666 L 300 766.6666 L 300 700 Z"></path><path fill="#000000" stroke-width="0" d="M 433.3333 700 L 433.3333 766.6666 L 366.6667 766.6666 L 366.6667 700 Z"></path><path fill="#000000" stroke-width="0" d="M 500 700 L 500 766.6666 L 433.3334 766.6666 L 433.3334 700 Z"></path><path fill="#000000" stroke-width="0" d="M 500 766.6667 L 500 833.3333 L 433.3334 833.3333 L 433.3334 766.6667 Z"></path><path fill="#000000" stroke-width="0" d="M 500 833.3334 L 500 900 L 433.3334 900 L 433.3334 833.3334 Z"></path><path fill="#000000" stroke-width="0" d="M 433.3333 833.3334 L 433.3333 900 L 366.6667 900 L 366.6667 833.3334 Z"></path><path fill="#000000" stroke-width="0" d="M 366.6666 833.3334 L 366.6666 900 L 300 900 L 300 833.3334 Z"></path><path fill="#000000" stroke-width="0" d="M 366.6666 766.6667 L 366.6666 833.3333 L 300 833.3333 L 300 766.6667 Z"></path><path fill="#000000" stroke-width="0" d="M 366.6666 500 L 366.6666 566.6666 L 300 566.6666 L 300 500 Z"></path><path fill="#000000" stroke-width="0" d="M 433.3333 500 L 433.3333 566.6666 L 366.6667 566.6666 L 366.6667 500 Z"></path><path fill="#000000" stroke-width="0" d="M 500 500 L 500 566.6666 L 433.3334 566.6666 L 433.3334 500 Z"></path><path fill="#000000" stroke-width="0" d="M 500 566.6667 L 500 633.3333 L 433.3334 633.3333 L 433.3334 566.6667 Z"></path><path fill="#000000" stroke-width="0" d="M 500 633.3334 L 500 700 L 433.3334 700 L 433.3334 633.3334 Z"></path><path fill="#000000" stroke-width="0" d="M 433.3333 633.3334 L 433.3333 700 L 366.6667 700 L 366.6667 633.3334 Z"></path><path fill="#000000" stroke-width="0" d="M 366.6666 633.3334 L 366.6666 700 L 300 700 L 300 633.3334 Z"></path><path fill="#000000" stroke-width="0" d="M 366.6666 566.6667 L 366.6666 633.3333 L 300 633.3333 L 300 566.6667 Z"></path><path fill="#000000" stroke-width="0" d="M -233.33339999999998 300 L -233.33339999999998 366.6666 L -300 366.6666 L -300 300 Z"></path><path fill="#000000" stroke-width="0" d="M -166.6667 300 L -166.6667 366.6666 L -233.3333 366.6666 L -233.3333 300 Z"></path><path fill="#000000" stroke-width="0" d="M -100 300 L -100 366.6666 L -166.66660000000002 366.6666 L -166.66660000000002 300 Z"></path><path fill="#000000" stroke-width="0" d="M -100 366.6667 L -100 433.3333 L -166.66660000000002 433.3333 L -166.66660000000002 366.6667 Z"></path><path fill="#000000" stroke-width="0" d="M -100 433.3334 L -100 500 L -166.66660000000002 500 L -166.66660000000002 433.3334 Z"></path><path fill="#000000" stroke-width="0" d="M -166.6667 433.3334 L -166.6667 500 L -233.3333 500 L -233.3333 433.3334 Z"></path><path fill="#000000" stroke-width="0" d="M -233.33339999999998 433.3334 L -233.33339999999998 500 L -300 500 L -300 433.3334 Z"></path><path fill="#000000" stroke-width="0" d="M -233.33339999999998 366.6667 L -233.33339999999998 433.3333 L -300 433.3333 L -300 366.6667 Z"></path><path fill="#000000" stroke-width="0" d="M -33.333400000000005 300 L -33.333400000000005 366.6666 L -100 366.6666 L -100 300 Z"></path><path fill="#000000" stroke-width="0" d="M 33.3333 300 L 33.3333 366.6666 L -33.3333 366.6666 L -33.3333 300 Z"></path><path fill="#000000" stroke-width="0" d="M 100 300 L 100 366.6666 L 33.333400000000005 366.6666 L 33.333400000000005 300 Z"></path><path fill="#000000" stroke-width="0" d="M 100 366.6667 L 100 433.3333 L 33.333400000000005 433.3333 L 33.333400000000005 366.6667 Z"></path><path fill="#000000" stroke-width="0" d="M 100 433.3334 L 100 500 L 33.333400000000005 500 L 33.333400000000005 433.3334 Z"></path><path fill="#000000" stroke-width="0" d="M 33.3333 433.3334 L 33.3333 500 L -33.3333 500 L -33.3333 433.3334 Z"></path><path fill="#000000" stroke-width="0" d="M -33.333400000000005 433.3334 L -33.333400000000005 500 L -100 500 L -100 433.3334 Z"></path><path fill="#000000" stroke-width="0" d="M -33.333400000000005 366.6667 L -33.333400000000005 433.3333 L -100 433.3333 L -100 366.6667 Z"></path><path fill="#000000" stroke-width="0" d="M 166.66660000000002 300 L 166.66660000000002 366.6666 L 100 366.6666 L 100 300 Z"></path><path fill="#000000" stroke-width="0" d="M 233.3333 300 L 233.3333 366.6666 L 166.6667 366.6666 L 166.6667 300 Z"></path><path fill="#000000" stroke-width="0" d="M 300 300 L 300 366.6666 L 233.33339999999998 366.6666 L 233.33339999999998 300 Z"></path><path fill="#000000" stroke-width="0" d="M 300 366.6667 L 300 433.3333 L 233.33339999999998 433.3333 L 233.33339999999998 366.6667 Z"></path><path fill="#000000" stroke-width="0" d="M 300 433.3334 L 300 500 L 233.33339999999998 500 L 233.33339999999998 433.3334 Z"></path><path fill="#000000" stroke-width="0" d="M 233.3333 433.3334 L 233.3333 500 L 166.6667 500 L 166.6667 433.3334 Z"></path><path fill="#000000" stroke-width="0" d="M 166.66660000000002 433.3334 L 166.66660000000002 500 L 100 500 L 100 433.3334 Z"></path><path fill="#000000" stroke-width="0" d="M 166.66660000000002 366.6667 L 166.66660000000002 433.3333 L 100 433.3333 L 100 366.6667 Z"></path><path fill="#000000" stroke-width="0" d="M 166.66660000000002 500 L 166.66660000000002 566.6666 L 100 566.6666 L 100 500 Z"></path><path fill="#000000" stroke-width="0" d="M 233.3333 500 L 233.3333 566.6666 L 166.6667 566.6666 L 166.6667 500 Z"></path><path fill="#000000" stroke-width="0" d="M 300 500 L 300 566.6666 L 233.33339999999998 566.6666 L 233.33339999999998 500 Z"></path><path fill="#000000" stroke-width="0" d="M 300 566.6667 L 300 633.3333 L 233.33339999999998 633.3333 L 233.33339999999998 566.6667 Z"></path><path fill="#000000" stroke-width="0" d="M 300 633.3334 L 300 700 L 233.33339999999998 700 L 233.33339999999998 633.3334 Z"></path><path fill="#000000" stroke-width="0" d="M 233.3333 633.3334 L 233.3333 700 L 166.6667 700 L 166.6667 633.3334 Z"></path><path fill="#000000" stroke-width="0" d="M 166.66660000000002 633.3334 L 166.66660000000002 700 L 100 700 L 100 633.3334 Z"></path><path fill="#000000" stroke-width="0" d="M 166.66660000000002 566.6667 L 166.66660000000002 633.3333 L 100 633.3333 L 100 566.6667 Z"></path><path fill="#000000" stroke-width="0" d="M 166.66660000000002 700 L 166.66660000000002 766.6666 L 100 766.6666 L 100 700 Z"></path><path fill="#000000" stroke-width="0" d="M 233.3333 700 L 233.3333 766.6666 L 166.6667 766.6666 L 166.6667 700 Z"></path><path fill="#000000" stroke-width="0" d="M 300 700 L 300 766.6666 L 233.33339999999998 766.6666 L 233.33339999999998 700 Z"></path><path fill="#000000" stroke-width="0" d="M 300 766.6667 L 300 833.3333 L 233.33339999999998 833.3333 L 233.33339999999998 766.6667 Z"></path><path fill="#000000" stroke-width="0" d="M 300 833.3334 L 300 900 L 233.33339999999998 900 L 233.33339999999998 833.3334 Z"></path><path fill="#000000" stroke-width="0" d="M 233.3333 833.3334 L 233.3333 900 L 166.6667 900 L 166.6667 833.3334 Z"></path><path fill="#000000" stroke-width="0" d="M 166.66660000000002 833.3334 L 166.66660000000002 900 L 100 900 L 100 833.3334 Z"></path><path fill="#000000" stroke-width="0" d="M 166.66660000000002 766.6667 L 166.66660000000002 833.3333 L 100 833.3333 L 100 766.6667 Z"></path><path fill="#000000" stroke-width="0" d="M -33.333400000000005 700 L -33.333400000000005 766.6666 L -100 766.6666 L -100 700 Z"></path><path fill="#000000" stroke-width="0" d="M 33.3333 700 L 33.3333 766.6666 L -33.3333 766.6666 L -33.3333 700 Z"></path><path fill="#000000" stroke-width="0" d="M 100 700 L 100 766.6666 L 33.333400000000005 766.6666 L 33.333400000000005 700 Z"></path><path fill="#000000" stroke-width="0" d="M 100 766.6667 L 100 833.3333 L 33.333400000000005 833.3333 L 33.333400000000005 766.6667 Z"></path><path fill="#000000" stroke-width="0" d="M 100 833.3334 L 100 900 L 33.333400000000005 900 L 33.333400000000005 833.3334 Z"></path><path fill="#000000" stroke-width="0" d="M 33.3333 833.3334 L 33.3333 900 L -33.3333 900 L -33.3333 833.3334 Z"></path><path fill="#000000" stroke-width="0" d="M -33.333400000000005 833.3334 L -33.333400000000005 900 L -100 900 L -100 833.3334 Z"></path><path fill="#000000" stroke-width="0" d="M -33.333400000000005 766.6667 L -33.333400000000005 833.3333 L -100 833.3333 L -100 766.6667 Z"></path><path fill="#000000" stroke-width="0" d="M -233.33339999999998 700 L -233.33339999999998 766.6666 L -300 766.6666 L -300 700 Z"></path><path fill="#000000" stroke-width="0" d="M -166.6667 700 L -166.6667 766.6666 L -233.3333 766.6666 L -233.3333 700 Z"></path><path fill="#000000" stroke-width="0" d="M -100 700 L -100 766.6666 L -166.66660000000002 766.6666 L -166.66660000000002 700 Z"></path><path fill="#000000" stroke-width="0" d="M -100 766.6667 L -100 833.3333 L -166.66660000000002 833.3333 L -166.66660000000002 766.6667 Z"></path><path fill="#000000" stroke-width="0" d="M -100 833.3334 L -100 900 L -166.66660000000002 900 L -166.66660000000002 833.3334 Z"></path><path fill="#000000" stroke-width="0" d="M -166.6667 833.3334 L -166.6667 900 L -233.3333 900 L -233.3333 833.3334 Z"></path><path fill="#000000" stroke-width="0" d="M -233.33339999999998 833.3334 L -233.33339999999998 900 L -300 900 L -300 833.3334 Z"></path><path fill="#000000" stroke-width="0" d="M -233.33339999999998 766.6667 L -233.33339999999998 833.3333 L -300 833.3333 L -300 766.6667 Z"></path><path fill="#000000" stroke-width="0" d="M -233.33339999999998 500 L -233.33339999999998 566.6666 L -300 566.6666 L -300 500 Z"></path><path fill="#000000" stroke-width="0" d="M -166.6667 500 L -166.6667 566.6666 L -233.3333 566.6666 L -233.3333 500 Z"></path><path fill="#000000" stroke-width="0" d="M -100 500 L -100 566.6666 L -166.66660000000002 566.6666 L -166.66660000000002 500 Z"></path><path fill="#000000" stroke-width="0" d="M -100 566.6667 L -100 633.3333 L -166.66660000000002 633.3333 L -166.66660000000002 566.6667 Z"></path><path fill="#000000" stroke-width="0" d="M -100 633.3334 L -100 700 L -166.66660000000002 700 L -166.66660000000002 633.3334 Z"></path><path fill="#000000" stroke-width="0" d="M -166.6667 633.3334 L -166.6667 700 L -233.3333 700 L -233.3333 633.3334 Z"></path><path fill="#000000" stroke-width="0" d="M -233.33339999999998 633.3334 L -233.33339999999998 700 L -300 700 L -300 633.3334 Z"></path><path fill="#000000" stroke-width="0" d="M -233.33339999999998 566.6667 L -233.33339999999998 633.3333 L -300 633.3333 L -300 566.6667 Z"></path><path fill="#000000" stroke-width="0" d="M -833.3334 300 L -833.3334 366.6666 L -900 366.6666 L -900 300 Z"></path><path fill="#000000" stroke-width="0" d="M -766.6667 300 L -766.6667 366.6666 L -833.3333 366.6666 L -833.3333 300 Z"></path><path fill="#000000" stroke-width="0" d="M -700 300 L -700 366.6666 L -766.6666 366.6666 L -766.6666 300 Z"></path><path fill="#000000" stroke-width="0" d="M -700 366.6667 L -700 433.3333 L -766.6666 433.3333 L -766.6666 366.6667 Z"></path><path fill="#000000" stroke-width="0" d="M -700 433.3334 L -700 500 L -766.6666 500 L -766.6666 433.3334 Z"></path><path fill="#000000" stroke-width="0" d="M -766.6667 433.3334 L -766.6667 500 L -833.3333 500 L -833.3333 433.3334 Z"></path><path fill="#000000" stroke-width="0" d="M -833.3334 433.3334 L -833.3334 500 L -900 500 L -900 433.3334 Z"></path><path fill="#000000" stroke-width="0" d="M -833.3334 366.6667 L -833.3334 433.3333 L -900 433.3333 L -900 366.6667 Z"></path><path fill="#000000" stroke-width="0" d="M -633.3334 300 L -633.3334 366.6666 L -700 366.6666 L -700 300 Z"></path><path fill="#000000" stroke-width="0" d="M -566.6667 300 L -566.6667 366.6666 L -633.3333 366.6666 L -633.3333 300 Z"></path><path fill="#000000" stroke-width="0" d="M -500 300 L -500 366.6666 L -566.6666 366.6666 L -566.6666 300 Z"></path><path fill="#000000" stroke-width="0" d="M -500 366.6667 L -500 433.3333 L -566.6666 433.3333 L -566.6666 366.6667 Z"></path><path fill="#000000" stroke-width="0" d="M -500 433.3334 L -500 500 L -566.6666 500 L -566.6666 433.3334 Z"></path><path fill="#000000" stroke-width="0" d="M -566.6667 433.3334 L -566.6667 500 L -633.3333 500 L -633.3333 433.3334 Z"></path><path fill="#000000" stroke-width="0" d="M -633.3334 433.3334 L -633.3334 500 L -700 500 L -700 433.3334 Z"></path><path fill="#000000" stroke-width="0" d="M -633.3334 366.6667 L -633.3334 433.3333 L -700 433.3333 L -700 366.6667 Z"></path><path fill="#000000" stroke-width="0" d="M -433.3334 300 L -433.3334 366.6666 L -500 366.6666 L -500 300 Z"></path><path fill="#000000" stroke-width="0" d="M -366.6667 300 L -366.6667 366.6666 L -433.3333 366.6666 L -433.3333 300 Z"></path><path fill="#000000" stroke-width="0" d="M -300 300 L -300 366.6666 L -366.6666 366.6666 L -366.6666 300 Z"></path><path fill="#000000" stroke-width="0" d="M -300 366.6667 L -300 433.3333 L -366.6666 433.3333 L -366.6666 366.6667 Z"></path><path fill="#000000" stroke-width="0" d="M -300 433.3334 L -300 500 L -366.6666 500 L -366.6666 433.3334 Z"></path><path fill="#000000" stroke-width="0" d="M -366.6667 433.3334 L -366.6667 500 L -433.3333 500 L -433.3333 433.3334 Z"></path><path fill="#000000" stroke-width="0" d="M -433.3334 433.3334 L -433.3334 500 L -500 500 L -500 433.3334 Z"></path><path fill="#000000" stroke-width="0" d="M -433.3334 366.6667 L -433.3334 433.3333 L -500 433.3333 L -500 366.6667 Z"></path><path fill="#000000" stroke-width="0" d="M -433.3334 500 L -433.3334 566.6666 L -500 566.6666 L -500 500 Z"></path><path fill="#000000" stroke-width="0" d="M -366.6667 500 L -366.6667 566.6666 L -433.3333 566.6666 L -433.3333 500 Z"></path><path fill="#000000" stroke-width="0" d="M -300 500 L -300 566.6666 L -366.6666 566.6666 L -366.6666 500 Z"></path><path fill="#000000" stroke-width="0" d="M -300 566.6667 L -300 633.3333 L -366.6666 633.3333 L -366.6666 566.6667 Z"></path><path fill="#000000" stroke-width="0" d="M -300 633.3334 L -300 700 L -366.6666 700 L -366.6666 633.3334 Z"></path><path fill="#000000" stroke-width="0" d="M -366.6667 633.3334 L -366.6667 700 L -433.3333 700 L -433.3333 633.3334 Z"></path><path fill="#000000" stroke-width="0" d="M -433.3334 633.3334 L -433.3334 700 L -500 700 L -500 633.3334 Z"></path><path fill="#000000" stroke-width="0" d="M -433.3334 566.6667 L -433.3334 633.3333 L -500 633.3333 L -500 566.6667 Z"></path><path fill="#000000" stroke-width="0" d="M -433.3334 700 L -433.3334 766.6666 L -500 766.6666 L -500 700 Z"></path><path fill="#000000" stroke-width="0" d="M -366.6667 700 L -366.6667 766.6666 L -433.3333 766.6666 L -433.3333 700 Z"></path><path fill="#000000" stroke-width="0" d="M -300 700 L -300 766.6666 L -366.6666 766.6666 L -366.6666 700 Z"></path><path fill="#000000" stroke-width="0" d="M -300 766.6667 L -300 833.3333 L -366.6666 833.3333 L -366.6666 766.6667 Z"></path><path fill="#000000" stroke-width="0" d="M -300 833.3334 L -300 900 L -366.6666 900 L -366.6666 833.3334 Z"></path><path fill="#000000" stroke-width="0" d="M -366.6667 833.3334 L -366.6667 900 L -433.3333 900 L -433.3333 833.3334 Z"></path><path fill="#000000" stroke-width="0" d="M -433.3334 833.3334 L -433.3334 900 L -500 900 L -500 833.3334 Z"></path><path fill="#000000" stroke-width="0" d="M -433.3334 766.6667 L -433.3334 833.3333 L -500 833.3333 L -500 766.6667 Z"></path><path fill="#000000" stroke-width="0" d="M -633.3334 700 L -633.3334 766.6666 L -700 766.6666 L -700 700 Z"></path><path fill="#000000" stroke-width="0" d="M -566.6667 700 L -566.6667 766.6666 L -633.3333 766.6666 L -633.3333 700 Z"></path><path fill="#000000" stroke-width="0" d="M -500 700 L -500 766.6666 L -566.6666 766.6666 L -566.6666 700 Z"></path><path fill="#000000" stroke-width="0" d="M -500 766.6667 L -500 833.3333 L -566.6666 833.3333 L -566.6666 766.6667 Z"></path><path fill="#000000" stroke-width="0" d="M -500 833.3334 L -500 900 L -566.6666 900 L -566.6666 833.3334 Z"></path><path fill="#000000" stroke-width="0" d="M -566.6667 833.3334 L -566.6667 900 L -633.3333 900 L -633.3333 833.3334 Z"></path><path fill="#000000" stroke-width="0" d="M -633.3334 833.3334 L -633.3334 900 L -700 900 L -700 833.3334 Z"></path><path fill="#000000" stroke-width="0" d="M -633.3334 766.6667 L -633.3334 833.3333 L -700 833.3333 L -700 766.6667 Z"></path><path fill="#000000" stroke-width="0" d="M -833.3334 700 L -833.3334 766.6666 L -900 766.6666 L -900 700 Z"></path><path fill="#000000" stroke-width="0" d="M -766.6667 700 L -766.6667 766.6666 L -833.3333 766.6666 L -833.3333 700 Z"></path><path fill="#000000" stroke-width="0" d="M -700 700 L -700 766.6666 L -766.6666 766.6666 L -766.6666 700 Z"></path><path fill="#000000" stroke-width="0" d="M -700 766.6667 L -700 833.3333 L -766.6666 833.3333 L -766.6666 766.6667 Z"></path><path fill="#000000" stroke-width="0" d="M -700 833.3334 L -700 900 L -766.6666 900 L -766.6666 833.3334 Z"></path><path fill="#000000" stroke-width="0" d="M -766.6667 833.3334 L -766.6667 900 L -833.3333 900 L -833.3333 833.3334 Z"></path><path fill="#000000" stroke-width="0" d="M -833.3334 833.3334 L -833.3334 900 L -900 900 L -900 833.3334 Z"></path><path fill="#000000" stroke-width="0" d="M -833.3334 766.6667 L -833.3334 833.3333 L -900 833.3333 L -900 766.6667 Z"></path><path fill="#000000" stroke-width="0" d="M -833.3334 500 L -833.3334 566.6666 L -900 566.6666 L -900 500 Z"></path><path fill="#000000" stroke-width="0" d="M -766.6667 500 L -766.6667 566.6666 L -833.3333 566.6666 L -833.3333 500 Z"></path><path fill="#000000" stroke-width="0" d="M -700 500 L -700 566.6666 L -766.6666 566.6666 L -766.6666 500 Z"></path><path fill="#000000" stroke-width="0" d="M -700 566.6667 L -700 633.3333 L -766.6666 633.3333 L -766.6666 566.6667 Z"></path><path fill="#000000" stroke-width="0" d="M -700 633.3334 L -700 700 L -766.6666 700 L -766.6666 633.3334 Z"></path><path fill="#000000" stroke-width="0" d="M -766.6667 633.3334 L -766.6667 700 L -833.3333 700 L -833.3333 633.3334 Z"></path><path fill="#000000" stroke-width="0" d="M -833.3334 633.3334 L -833.3334 700 L -900 700 L -900 633.3334 Z"></path><path fill="#000000" stroke-width="0" d="M -833.3334 566.6667 L -833.3334 633.3333 L -900 633.3333 L -900 566.6667 Z"></path><path fill="#000000" stroke-width="0" d="M -833.3334 -300 L -833.3334 -233.33339999999998 L -900 -233.33339999999998 L -900 -300 Z"></path><path fill="#000000" stroke-width="0" d="M -766.6667 -300 L -766.6667 -233.33339999999998 L -833.3333 -233.33339999999998 L -833.3333 -300 Z"></path><path fill="#000000" stroke-width="0" d="M -700 -300 L -700 -233.33339999999998 L -766.6666 -233.33339999999998 L -766.6666 -300 Z"></path><path fill="#000000" stroke-width="0" d="M -700 -233.3333 L -700 -166.6667 L -766.6666 -166.6667 L -766.6666 -233.3333 Z"></path><path fill="#000000" stroke-width="0" d="M -700 -166.66660000000002 L -700 -100 L -766.6666 -100 L -766.6666 -166.66660000000002 Z"></path><path fill="#000000" stroke-width="0" d="M -766.6667 -166.66660000000002 L -766.6667 -100 L -833.3333 -100 L -833.3333 -166.66660000000002 Z"></path><path fill="#000000" stroke-width="0" d="M -833.3334 -166.66660000000002 L -833.3334 -100 L -900 -100 L -900 -166.66660000000002 Z"></path><path fill="#000000" stroke-width="0" d="M -833.3334 -233.3333 L -833.3334 -166.6667 L -900 -166.6667 L -900 -233.3333 Z"></path><path fill="#000000" stroke-width="0" d="M -633.3334 -300 L -633.3334 -233.33339999999998 L -700 -233.33339999999998 L -700 -300 Z"></path><path fill="#000000" stroke-width="0" d="M -566.6667 -300 L -566.6667 -233.33339999999998 L -633.3333 -233.33339999999998 L -633.3333 -300 Z"></path><path fill="#000000" stroke-width="0" d="M -500 -300 L -500 -233.33339999999998 L -566.6666 -233.33339999999998 L -566.6666 -300 Z"></path><path fill="#000000" stroke-width="0" d="M -500 -233.3333 L -500 -166.6667 L -566.6666 -166.6667 L -566.6666 -233.3333 Z"></path><path fill="#000000" stroke-width="0" d="M -500 -166.66660000000002 L -500 -100 L -566.6666 -100 L -566.6666 -166.66660000000002 Z"></path><path fill="#000000" stroke-width="0" d="M -566.6667 -166.66660000000002 L -566.6667 -100 L -633.3333 -100 L -633.3333 -166.66660000000002 Z"></path><path fill="#000000" stroke-width="0" d="M -633.3334 -166.66660000000002 L -633.3334 -100 L -700 -100 L -700 -166.66660000000002 Z"></path><path fill="#000000" stroke-width="0" d="M -633.3334 -233.3333 L -633.3334 -166.6667 L -700 -166.6667 L -700 -233.3333 Z"></path><path fill="#000000" stroke-width="0" d="M -433.3334 -300 L -433.3334 -233.33339999999998 L -500 -233.33339999999998 L -500 -300 Z"></path><path fill="#000000" stroke-width="0" d="M -366.6667 -300 L -366.6667 -233.33339999999998 L -433.3333 -233.33339999999998 L -433.3333 -300 Z"></path><path fill="#000000" stroke-width="0" d="M -300 -300 L -300 -233.33339999999998 L -366.6666 -233.33339999999998 L -366.6666 -300 Z"></path><path fill="#000000" stroke-width="0" d="M -300 -233.3333 L -300 -166.6667 L -366.6666 -166.6667 L -366.6666 -233.3333 Z"></path><path fill="#000000" stroke-width="0" d="M -300 -166.66660000000002 L -300 -100 L -366.6666 -100 L -366.6666 -166.66660000000002 Z"></path><path fill="#000000" stroke-width="0" d="M -366.6667 -166.66660000000002 L -366.6667 -100 L -433.3333 -100 L -433.3333 -166.66660000000002 Z"></path><path fill="#000000" stroke-width="0" d="M -433.3334 -166.66660000000002 L -433.3334 -100 L -500 -100 L -500 -166.66660000000002 Z"></path><path fill="#000000" stroke-width="0" d="M -433.3334 -233.3333 L -433.3334 -166.6667 L -500 -166.6667 L -500 -233.3333 Z"></path><path fill="#000000" stroke-width="0" d="M -433.3334 -100 L -433.3334 -33.333400000000005 L -500 -33.333400000000005 L -500 -100 Z"></path><path fill="#000000" stroke-width="0" d="M -366.6667 -100 L -366.6667 -33.333400000000005 L -433.3333 -33.333400000000005 L -433.3333 -100 Z"></path><path fill="#000000" stroke-width="0" d="M -300 -100 L -300 -33.333400000000005 L -366.6666 -33.333400000000005 L -366.6666 -100 Z"></path><path fill="#000000" stroke-width="0" d="M -300 -33.3333 L -300 33.3333 L -366.6666 33.3333 L -366.6666 -33.3333 Z"></path><path fill="#000000" stroke-width="0" d="M -300 33.333400000000005 L -300 100 L -366.6666 100 L -366.6666 33.333400000000005 Z"></path><path fill="#000000" stroke-width="0" d="M -366.6667 33.333400000000005 L -366.6667 100 L -433.3333 100 L -433.3333 33.333400000000005 Z"></path><path fill="#000000" stroke-width="0" d="M -433.3334 33.333400000000005 L -433.3334 100 L -500 100 L -500 33.333400000000005 Z"></path><path fill="#000000" stroke-width="0" d="M -433.3334 -33.3333 L -433.3334 33.3333 L -500 33.3333 L -500 -33.3333 Z"></path><path fill="#000000" stroke-width="0" d="M -433.3334 100 L -433.3334 166.66660000000002 L -500 166.66660000000002 L -500 100 Z"></path><path fill="#000000" stroke-width="0" d="M -366.6667 100 L -366.6667 166.66660000000002 L -433.3333 166.66660000000002 L -433.3333 100 Z"></path><path fill="#000000" stroke-width="0" d="M -300 100 L -300 166.66660000000002 L -366.6666 166.66660000000002 L -366.6666 100 Z"></path><path fill="#000000" stroke-width="0" d="M -300 166.6667 L -300 233.3333 L -366.6666 233.3333 L -366.6666 166.6667 Z"></path><path fill="#000000" stroke-width="0" d="M -300 233.33339999999998 L -300 300 L -366.6666 300 L -366.6666 233.33339999999998 Z"></path><path fill="#000000" stroke-width="0" d="M -366.6667 233.33339999999998 L -366.6667 300 L -433.3333 300 L -433.3333 233.33339999999998 Z"></path><path fill="#000000" stroke-width="0" d="M -433.3334 233.33339999999998 L -433.3334 300 L -500 300 L -500 233.33339999999998 Z"></path><path fill="#000000" stroke-width="0" d="M -433.3334 166.6667 L -433.3334 233.3333 L -500 233.3333 L -500 166.6667 Z"></path><path fill="#000000" stroke-width="0" d="M -633.3334 100 L -633.3334 166.66660000000002 L -700 166.66660000000002 L -700 100 Z"></path><path fill="#000000" stroke-width="0" d="M -566.6667 100 L -566.6667 166.66660000000002 L -633.3333 166.66660000000002 L -633.3333 100 Z"></path><path fill="#000000" stroke-width="0" d="M -500 100 L -500 166.66660000000002 L -566.6666 166.66660000000002 L -566.6666 100 Z"></path><path fill="#000000" stroke-width="0" d="M -500 166.6667 L -500 233.3333 L -566.6666 233.3333 L -566.6666 166.6667 Z"></path><path fill="#000000" stroke-width="0" d="M -500 233.33339999999998 L -500 300 L -566.6666 300 L -566.6666 233.33339999999998 Z"></path><path fill="#000000" stroke-width="0" d="M -566.6667 233.33339999999998 L -566.6667 300 L -633.3333 300 L -633.3333 233.33339999999998 Z"></path><path fill="#000000" stroke-width="0" d="M -633.3334 233.33339999999998 L -633.3334 300 L -700 300 L -700 233.33339999999998 Z"></path><path fill="#000000" stroke-width="0" d="M -633.3334 166.6667 L -633.3334 233.3333 L -700 233.3333 L -700 166.6667 Z"></path><path fill="#000000" stroke-width="0" d="M -833.3334 100 L -833.3334 166.66660000000002 L -900 166.66660000000002 L -900 100 Z"></path><path fill="#000000" stroke-width="0" d="M -766.6667 100 L -766.6667 166.66660000000002 L -833.3333 166.66660000000002 L -833.3333 100 Z"></path><path fill="#000000" stroke-width="0" d="M -700 100 L -700 166.66660000000002 L -766.6666 166.66660000000002 L -766.6666 100 Z"></path><path fill="#000000" stroke-width="0" d="M -700 166.6667 L -700 233.3333 L -766.6666 233.3333 L -766.6666 166.6667 Z"></path><path fill="#000000" stroke-width="0" d="M -700 233.33339999999998 L -700 300 L -766.6666 300 L -766.6666 233.33339999999998 Z"></path><path fill="#000000" stroke-width="0" d="M -766.6667 233.33339999999998 L -766.6667 300 L -833.3333 300 L -833.3333 233.33339999999998 Z"></path><path fill="#000000" stroke-width="0" d="M -833.3334 233.33339999999998 L -833.3334 300 L -900 300 L -900 233.33339999999998 Z"></path><path fill="#000000" stroke-width="0" d="M -833.3334 166.6667 L -833.3334 233.3333 L -900 233.3333 L -900 166.6667 Z"></path><path fill="#000000" stroke-width="0" d="M -833.3334 -100 L -833.3334 -33.333400000000005 L -900 -33.333400000000005 L -900 -100 Z"></path><path fill="#000000" stroke-width="0" d="M -766.6667 -100 L -766.6667 -33.333400000000005 L -833.3333 -33.333400000000005 L -833.3333 -100 Z"></path><path fill="#000000" stroke-width="0" d="M -700 -100 L -700 -33.333400000000005 L -766.6666 -33.333400000000005 L -766.6666 -100 Z"></path><path fill="#000000" stroke-width="0" d="M -700 -33.3333 L -700 33.3333 L -766.6666 33.3333 L -766.6666 -33.3333 Z"></path><path fill="#000000" stroke-width="0" d="M -700 33.333400000000005 L -700 100 L -766.6666 100 L -766.6666 33.333400000000005 Z"></path><path fill="#000000" stroke-width="0" d="M -766.6667 33.333400000000005 L -766.6667 100 L -833.3333 100 L -833.3333 33.333400000000005 Z"></path><path fill="#000000" stroke-width="0" d="M -833.3334 33.333400000000005 L -833.3334 100 L -900 100 L -900 33.333400000000005 Z"></path><path fill="#000000" stroke-width="0" d="M -833.3334 -33.3333 L -833.3334 33.3333 L -900 33.3333 L -900 -33.3333 Z"></path></g></svg>