<svg xmlns="http://www.w3.org/2000/svg" viewBox="-1000 -1000 2000 2000" width="100%" height="100%" xml:space="preserve" xmlns:xlink="http://wwww3.org/1999/xlink" stroke-linecap="round" stroke-linejoin="round"><g><path fill="#000000" stroke-width="0" d="M 11.1111 -900 L 11.1111 -877.7778000000001 L -11.1111 -877.7778000000001 L -11.1111 -900 Z"></path><path fill="#000000" stroke-width="0" d="M 33.3333 -877.7778 L 33.3333 -855.5556 L 11.1111 -855.5556 L 11.1111 -877.7778 Z"></path><path fill="#000000" stroke-width="0" d="M 11.1111 -855.5555999999999 L 11.1111 -833.3334 L -11.1111 -833.3334 L -11.1111 -855.5555999999999 Z"></path><path fill="#000000" stroke-width="0" d="M -11.1111 -877.7778 L -11.1111 -855.5556 L -33.3333 -855.5556 L -33.3333 -877.7778 Z"></path><path fill="#000000" stroke-width="0" d="M 77.77780000000001 -833.3333 L 77.77780000000001 -811.1111000000001 L 55.555600000000005 -811.1111000000001 L 55.555600000000005 -833.3333 Z"></path><path fill="#000000" stroke-width="0" d="M 100 -811.1111 L 100 -788.8889 L 77.77780000000001 -788.8889 L 77.77780000000001 -811.1111 Z"></path><path fill="#000000" stroke-width="0" d="M 77.77780000000001 -788.8888999999999 L 77.77780000000001 -766.6667 L 55.555600000000005 -766.6667 L 55.555600000000005 -788.8888999999999 Z"></path><path fill="#000000" stroke-width="0" d="M 55.555600000000005 -811.1111 L 55.555600000000005 -788.8889 L 33.333400000000005 -788.8889 L 33.333400000000005 -811.1111 Z"></path><path fill="#000000" stroke-width="0" d="M 11.1111 -766.6666 L 11.1111 -744.4444000000001 L -11.1111 -744.4444000000001 L -11.1111 -766.6666 Z"></path><path fill="#000000" stroke-width="0" d="M 33.3333 -744.4444 L 33.3333 -722.2222 L 11.1111 -722.2222 L 11.1111 -744.4444 Z"></path><path fill="#000000" stroke-width="0" d="M 11.1111 -722.2221999999999 L 11.1111 -700 L -11.1111 -700 L -11.1111 -722.2221999999999 Z"></path><path fill="#000000" stroke-width="0" d="M -11.1111 -744.4444 L -11.1111 -722.2222 L -33.3333 -722.2222 L -33.3333 -744.4444 Z"></path><path fill="#000000" stroke-width="0" d="M -55.555600000000005 -833.3333 L -55.555600000000005 -811.1111000000001 L -77.77780000000001 -811.1111000000001 L -77.77780000000001 -833.3333 Z"></path><path fill="#000000" stroke-width="0" d="M -33.333400000000005 -811.1111 L -33.333400000000005 -788.8889 L -55.555600000000005 -788.8889 L -55.555600000000005 -811.1111 Z"></path><path fill="#000000" stroke-width="0" d="M -55.555600000000005 -788.8888999999999 L -55.555600000000005 -766.6667 L -77.77780000000001 -766.6667 L -77.77780000000001 -788.8888999999999 Z"></path><path fill="#000000" stroke-width="0" d="M -77.77780000000001 -811.1111 L -77.77780000000001 -788.8889 L -100 -788.8889 L -100 -811.1111 Z"></path><path fill="#000000" stroke-width="0" d="M 211.1111 -700 L 211.1111 -677.7778000000001 L 188.8889 -677.7778000000001 L 188.8889 -700 Z"></path><path fill="#000000" stroke-width="0" d="M 233.33329999999998 -677.7778 L 233.33329999999998 -655.5556 L 211.1111 -655.5556 L 211.1111 -677.7778 Z"></path><path fill="#000000" stroke-width="0" d="M 211.1111 -655.5555999999999 L 211.1111 -633.3334 L 188.8889 -633.3334 L 188.8889 -655.5555999999999 Z"></path><path fill="#000000" stroke-width="0" d="M 188.8889 -677.7778 L 188.8889 -655.5556 L 166.66670000000002 -655.5556 L 166.66670000000002 -677.7778 Z"></path><path fill="#000000" stroke-width="0" d="M 277.7778 -633.3333 L 277.7778 -611.1111000000001 L 255.5556 -611.1111000000001 L 255.5556 -633.3333 Z"></path><path fill="#000000" stroke-width="0" d="M 300 -611.1111 L 300 -588.8889 L 277.77779999999996 -588.8889 L 277.77779999999996 -611.1111 Z"></path><path fill="#000000" stroke-width="0" d="M 277.7778 -588.8888999999999 L 277.7778 -566.6667 L 255.5556 -566.6667 L 255.5556 -588.8888999999999 Z"></path><path fill="#000000" stroke-width="0" d="M 255.5556 -611.1111 L 255.5556 -588.8889 L 233.3334 -588.8889 L 233.3334 -611.1111 Z"></path><path fill="#000000" stroke-width="0" d="M 211.1111 -566.6666 L 211.1111 -544.4444000000001 L 188.8889 -544.4444000000001 L 188.8889 -566.6666 Z"></path><path fill="#000000" stroke-width="0" d="M 233.33329999999998 -544.4444 L 233.33329999999998 -522.2222 L 211.1111 -522.2222 L 211.1111 -544.4444 Z"></path><path fill="#000000" stroke-width="0" d="M 211.1111 -522.2222 L 211.1111 -500 L 188.8889 -500 L 188.8889 -522.2222 Z"></path><path fill="#000000" stroke-width="0" d="M 188.8889 -544.4444 L 188.8889 -522.2222 L 166.66670000000002 -522.2222 L 166.66670000000002 -544.4444 Z"></path><path fill="#000000" stroke-width="0" d="M 144.4444 -633.3333 L 144.4444 -611.1111000000001 L 122.22220000000002 -611.1111000000001 L 122.22220000000002 -633.3333 Z"></path><path fill="#000000" stroke-width="0" d="M 166.6666 -611.1111 L 166.6666 -588.8889 L 144.4444 -588.8889 L 144.4444 -611.1111 Z"></path><path fill="#000000" stroke-width="0" d="M 144.4444 -588.8888999999999 L 144.4444 -566.6667 L 122.22220000000002 -566.6667 L 122.22220000000002 -588.8888999999999 Z"></path><path fill="#000000" stroke-width="0" d="M 122.22220000000002 -611.1111 L 122.22220000000002 -588.8889 L 100 -588.8889 L 100 -611.1111 Z"></path><path fill="#000000" stroke-width="0" d="M 11.1111 -500 L 11.1111 -477.77779999999996 L -11.1111 -477.77779999999996 L -11.1111 -500 Z"></path><path fill="#000000" stroke-width="0" d="M 33.3333 -477.7778 L 33.3333 -455.55559999999997 L 11.1111 -455.55559999999997 L 11.1111 -477.7778 Z"></path><path fill="#000000" stroke-width="0" d="M 11.1111 -455.5556 L 11.1111 -433.3334 L -11.1111 -433.3334 L -11.1111 -455.5556 Z"></path><path fill="#000000" stroke-width="0" d="M -11.1111 -477.7778 L -11.1111 -455.55559999999997 L -33.3333 -455.55559999999997 L -33.3333 -477.7778 Z"></path><path fill="#000000" stroke-width="0" d="M 77.77780000000001 -433.3333 L 77.77780000000001 -411.11109999999996 L 55.555600000000005 -411.11109999999996 L 55.555600000000005 -433.3333 Z"></path><path fill="#000000" stroke-width="0" d="M 100 -411.1111 L 100 -388.8889 L 77.77780000000001 -388.8889 L 77.77780000000001 -411.1111 Z"></path><path fill="#000000" stroke-width="0" d="M 77.77780000000001 -388.88890000000004 L 77.77780000000001 -366.6667 L 55.555600000000005 -366.6667 L 55.555600000000005 -388.88890000000004 Z"></path><path fill="#000000" stroke-width="0" d="M 55.555600000000005 -411.1111 L 55.555600000000005 -388.8889 L 33.333400000000005 -388.8889 L 33.333400000000005 -411.1111 Z"></path><path fill="#000000" stroke-width="0" d="M 11.1111 -366.6666 L 11.1111 -344.4444 L -11.1111 -344.4444 L -11.1111 -366.6666 Z"></path><path fill="#000000" stroke-width="0" d="M 33.3333 -344.44440000000003 L 33.3333 -322.2222 L 11.1111 -322.2222 L 11.1111 -344.44440000000003 Z"></path><path fill="#000000" stroke-width="0" d="M 11.1111 -322.22220000000004 L 11.1111 -300 L -11.1111 -300 L -11.1111 -322.22220000000004 Z"></path><path fill="#000000" stroke-width="0" d="M -11.1111 -344.44440000000003 L -11.1111 -322.2222 L -33.3333 -322.2222 L -33.3333 -344.44440000000003 Z"></path><path fill="#000000" stroke-width="0" d="M -55.555600000000005 -433.3333 L -55.555600000000005 -411.11109999999996 L -77.77780000000001 -411.11109999999996 L -77.77780000000001 -433.3333 Z"></path><path fill="#000000" stroke-width="0" d="M -33.333400000000005 -411.1111 L -33.333400000000005 -388.8889 L -55.555600000000005 -388.8889 L -55.555600000000005 -411.1111 Z"></path><path fill="#000000" stroke-width="0" d="M -55.555600000000005 -388.88890000000004 L -55.555600000000005 -366.6667 L -77.77780000000001 -366.6667 L -77.77780000000001 -388.88890000000004 Z"></path><path fill="#000000" stroke-width="0" d="M -77.77780000000001 -411.1111 L -77.77780000000001 -388.8889 L -100 -388.8889 L -100 -411.1111 Z"></path><path fill="#000000" stroke-width="0" d="M -188.8889 -700 L -188.8889 -677.7778000000001 L -211.1111 -677.7778000000001 L -211.1111 -700 Z"></path><path fill="#000000" stroke-width="0" d="M -166.66670000000002 -677.7778 L -166.66670000000002 -655.5556 L -188.8889 -655.5556 L -188.8889 -677.7778 Z"></path><path fill="#000000" stroke-width="0" d="M -188.8889 -655.5555999999999 L -188.8889 -633.3334 L -211.1111 -633.3334 L -211.1111 -655.5555999999999 Z"></path><path fill="#000000" stroke-width="0" d="M -211.1111 -677.7778 L -211.1111 -655.5556 L -233.33329999999998 -655.5556 L -233.33329999999998 -677.7778 Z"></path><path fill="#000000" stroke-width="0" d="M -122.22220000000002 -633.3333 L -122.22220000000002 -611.1111000000001 L -144.4444 -611.1111000000001 L -144.4444 -633.3333 Z"></path><path fill="#000000" stroke-width="0" d="M -100 -611.1111 L -100 -588.8889 L -122.22220000000002 -588.8889 L -122.22220000000002 -611.1111 Z"></path><path fill="#000000" stroke-width="0" d="M -122.22220000000002 -588.8888999999999 L -122.22220000000002 -566.6667 L -144.4444 -566.6667 L -144.4444 -588.8888999999999 Z"></path><path fill="#000000" stroke-width="0" d="M -144.4444 -611.1111 L -144.4444 -588.8889 L -166.6666 -588.8889 L -166.6666 -611.1111 Z"></path><path fill="#000000" stroke-width="0" d="M -188.8889 -566.6666 L -188.8889 -544.4444000000001 L -211.1111 -544.4444000000001 L -211.1111 -566.6666 Z"></path><path fill="#000000" stroke-width="0" d="M -166.66670000000002 -544.4444 L -166.66670000000002 -522.2222 L -188.8889 -522.2222 L -188.8889 -544.4444 Z"></path><path fill="#000000" stroke-width="0" d="M -188.8889 -522.2222 L -188.8889 -500 L -211.1111 -500 L -211.1111 -522.2222 Z"></path><path fill="#000000" stroke-width="0" d="M -211.1111 -544.4444 L -211.1111 -522.2222 L -233.33329999999998 -522.2222 L -233.33329999999998 -544.4444 Z"></path><path fill="#000000" stroke-width="0" d="M -255.5556 -633.3333 L -255.5556 -611.1111000000001 L -277.7778 -611.1111000000001 L -277.7778 -633.3333 Z"></path><path fill="#000000" stroke-width="0" d="M -233.3334 -611.1111 L -233.3334 -588.8889 L -255.5556 -588.8889 L -255.5556 -611.1111 Z"></path><path fill="#000000" stroke-width="0" d="M -255.5556 -588.8888999999999 L -255.5556 -566.6667 L -277.7778 -566.6667 L -277.7778 -588.8888999999999 Z"></path><path fill="#000000" stroke-width="0" d="M -277.77779999999996 -611.1111 L -277.77779999999996 -588.8889 L -300 -588.8889 L -300 -611.1111 Z"></path><path fill="#000000" stroke-width="0" d="M 611.1111 -300 L 611.1111 -277.77779999999996 L 588.8889 -277.77779999999996 L 588.8889 -300 Z"></path><path fill="#000000" stroke-width="0" d="M 633.3333 -277.7778 L 633.3333 -255.5556 L 611.1111000000001 -255.5556 L 611.1111000000001 -277.7778 Z"></path><path fill="#000000" stroke-width="0" d="M 611.1111 -255.5556 L 611.1111 -233.3334 L 588.8889 -233.3334 L 588.8889 -255.5556 Z"></path><path fill="#000000" stroke-width="0" d="M 588.8888999999999 -277.7778 L 588.8888999999999 -255.5556 L 566.6667 -255.5556 L 566.6667 -277.7778 Z"></path><path fill="#000000" stroke-width="0" d="M 677.7778 -233.33329999999998 L 677.7778 -211.1111 L 655.5556 -211.1111 L 655.5556 -233.33329999999998 Z"></path><path fill="#000000" stroke-width="0" d="M 700 -211.1111 L 700 -188.8889 L 677.7778000000001 -188.8889 L 677.7778000000001 -211.1111 Z"></path><path fill="#000000" stroke-width="0" d="M 677.7778 -188.8889 L 677.7778 -166.66670000000002 L 655.5556 -166.66670000000002 L 655.5556 -188.8889 Z"></path><path fill="#000000" stroke-width="0" d="M 655.5555999999999 -211.1111 L 655.5555999999999 -188.8889 L 633.3334 -188.8889 L 633.3334 -211.1111 Z"></path><path fill="#000000" stroke-width="0" d="M 611.1111 -166.6666 L 611.1111 -144.4444 L 588.8889 -144.4444 L 588.8889 -166.6666 Z"></path><path fill="#000000" stroke-width="0" d="M 633.3333 -144.4444 L 633.3333 -122.22220000000002 L 611.1111000000001 -122.22220000000002 L 611.1111000000001 -144.4444 Z"></path><path fill="#000000" stroke-width="0" d="M 611.1111 -122.22220000000002 L 611.1111 -100 L 588.8889 -100 L 588.8889 -122.22220000000002 Z"></path><path fill="#000000" stroke-width="0" d="M 588.8888999999999 -144.4444 L 588.8888999999999 -122.22220000000002 L 566.6667 -122.22220000000002 L 566.6667 -144.4444 Z"></path><path fill="#000000" stroke-width="0" d="M 544.4444 -233.33329999999998 L 544.4444 -211.1111 L 522.2222 -211.1111 L 522.2222 -233.33329999999998 Z"></path><path fill="#000000" stroke-width="0" d="M 566.6666 -211.1111 L 566.6666 -188.8889 L 544.4444000000001 -188.8889 L 544.4444000000001 -211.1111 Z"></path><path fill="#000000" stroke-width="0" d="M 544.4444 -188.8889 L 544.4444 -166.66670000000002 L 522.2222 -166.66670000000002 L 522.2222 -188.8889 Z"></path><path fill="#000000" stroke-width="0" d="M 522.2222 -211.1111 L 522.2222 -188.8889 L 500 -188.8889 L 500 -211.1111 Z"></path><path fill="#000000" stroke-width="0" d="M 811.1111 -100 L 811.1111 -77.77780000000001 L 788.8889 -77.77780000000001 L 788.8889 -100 Z"></path><path fill="#000000" stroke-width="0" d="M 833.3333 -77.77780000000001 L 833.3333 -55.555600000000005 L 811.1111000000001 -55.555600000000005 L 811.1111000000001 -77.77780000000001 Z"></path><path fill="#000000" stroke-width="0" d="M 811.1111 -55.555600000000005 L 811.1111 -33.333400000000005 L 788.8889 -33.333400000000005 L 788.8889 -55.555600000000005 Z"></path><path fill="#000000" stroke-width="0" d="M 788.8888999999999 -77.77780000000001 L 788.8888999999999 -55.555600000000005 L 766.6667 -55.555600000000005 L 766.6667 -77.77780000000001 Z"></path><path fill="#000000" stroke-width="0" d="M 877.7778 -33.3333 L 877.7778 -11.1111 L 855.5556 -11.1111 L 855.5556 -33.3333 Z"></path><path fill="#000000" stroke-width="0" d="M 900 -11.1111 L 900 11.1111 L 877.7778000000001 11.1111 L 877.7778000000001 -11.1111 Z"></path><path fill="#000000" stroke-width="0" d="M 877.7778 11.1111 L 877.7778 33.3333 L 855.5556 33.3333 L 855.5556 11.1111 Z"></path><path fill="#000000" stroke-width="0" d="M 855.5555999999999 -11.1111 L 855.5555999999999 11.1111 L 833.3334 11.1111 L 833.3334 -11.1111 Z"></path><path fill="#000000" stroke-width="0" d="M 811.1111 33.333400000000005 L 811.1111 55.555600000000005 L 788.8889 55.555600000000005 L 788.8889 33.333400000000005 Z"></path><path fill="#000000" stroke-width="0" d="M 833.3333 55.555600000000005 L 833.3333 77.77780000000001 L 811.1111000000001 77.77780000000001 L 811.1111000000001 55.555600000000005 Z"></path><path fill="#000000" stroke-width="0" d="M 811.1111 77.77780000000001 L 811.1111 100 L 788.8889 100 L 788.8889 77.77780000000001 Z"></path><path fill="#000000" stroke-width="0" d="M 788.8888999999999 55.555600000000005 L 788.8888999999999 77.77780000000001 L 766.6667 77.77780000000001 L 766.6667 55.555600000000005 Z"></path><path fill="#000000" stroke-width="0" d="M 744.4444 -33.3333 L 744.4444 -11.1111 L 722.2222 -11.1111 L 722.2222 -33.3333 Z"></path><path fill="#000000" stroke-width="0" d="M 766.6666 -11.1111 L 766.6666 11.1111 L 744.4444000000001 11.1111 L 744.4444000000001 -11.1111 Z"></path><path fill="#000000" stroke-width="0" d="M 744.4444 11.1111 L 744.4444 33.3333 L 722.2222 33.3333 L 722.2222 11.1111 Z"></path><path fill="#000000" stroke-width="0" d="M 722.2221999999999 -11.1111 L 722.2221999999999 11.1111 L 700 11.1111 L 700 -11.1111 Z"></path><path fill="#000000" stroke-width="0" d="M 611.1111 100 L 611.1111 122.22220000000002 L 588.8889 122.22220000000002 L 588.8889 100 Z"></path><path fill="#000000" stroke-width="0" d="M 633.3333 122.22220000000002 L 633.3333 144.4444 L 611.1111000000001 144.4444 L 611.1111000000001 122.22220000000002 Z"></path><path fill="#000000" stroke-width="0" d="M 611.1111 144.4444 L 611.1111 166.6666 L 588.8889 166.6666 L 588.8889 144.4444 Z"></path><path fill="#000000" stroke-width="0" d="M 588.8888999999999 122.22220000000002 L 588.8888999999999 144.4444 L 566.6667 144.4444 L 566.6667 122.22220000000002 Z"></path><path fill="#000000" stroke-width="0" d="M 677.7778 166.66670000000002 L 677.7778 188.8889 L 655.5556 188.8889 L 655.5556 166.66670000000002 Z"></path><path fill="#000000" stroke-width="0" d="M 700 188.8889 L 700 211.1111 L 677.7778000000001 211.1111 L 677.7778000000001 188.8889 Z"></path><path fill="#000000" stroke-width="0" d="M 677.7778 211.1111 L 677.7778 233.33329999999998 L 655.5556 233.33329999999998 L 655.5556 211.1111 Z"></path><path fill="#000000" stroke-width="0" d="M 655.5555999999999 188.8889 L 655.5555999999999 211.1111 L 633.3334 211.1111 L 633.3334 188.8889 Z"></path><path fill="#000000" stroke-width="0" d="M 611.1111 233.3334 L 611.1111 255.5556 L 588.8889 255.5556 L 588.8889 233.3334 Z"></path><path fill="#000000" stroke-width="0" d="M 633.3333 255.5556 L 633.3333 277.7778 L 611.1111000000001 277.7778 L 611.1111000000001 255.5556 Z"></path><path fill="#000000" stroke-width="0" d="M 611.1111 277.77779999999996 L 611.1111 300 L 588.8889 300 L 588.8889 277.77779999999996 Z"></path><path fill="#000000" stroke-width="0" d="M 588.8888999999999 255.5556 L 588.8888999999999 277.7778 L 566.6667 277.7778 L 566.6667 255.5556 Z"></path><path fill="#000000" stroke-width="0" d="M 544.4444 166.66670000000002 L 544.4444 188.8889 L 522.2222 188.8889 L 522.2222 166.66670000000002 Z"></path><path fill="#000000" stroke-width="0" d="M 566.6666 188.8889 L 566.6666 211.1111 L 544.4444000000001 211.1111 L 544.4444000000001 188.8889 Z"></path><path fill="#000000" stroke-width="0" d="M 544.4444 211.1111 L 544.4444 233.33329999999998 L 522.2222 233.33329999999998 L 522.2222 211.1111 Z"></path><path fill="#000000" stroke-width="0" d="M 522.2222 188.8889 L 522.2222 211.1111 L 500 211.1111 L 500 188.8889 Z"></path><path fill="#000000" stroke-width="0" d="M 411.1111 -100 L 411.1111 -77.77780000000001 L 388.8889 -77.77780000000001 L 388.8889 -100 Z"></path><path fill="#000000" stroke-width="0" d="M 433.3333 -77.77780000000001 L 433.3333 -55.555600000000005 L 411.11109999999996 -55.555600000000005 L 411.11109999999996 -77.77780000000001 Z"></path><path fill="#000000" stroke-width="0" d="M 411.1111 -55.555600000000005 L 411.1111 -33.333400000000005 L 388.8889 -33.333400000000005 L 388.8889 -55.555600000000005 Z"></path><path fill="#000000" stroke-width="0" d="M 388.88890000000004 -77.77780000000001 L 388.88890000000004 -55.555600000000005 L 366.6667 -55.555600000000005 L 366.6667 -77.77780000000001 Z"></path><path fill="#000000" stroke-width="0" d="M 477.7778 -33.3333 L 477.7778 -11.1111 L 455.55559999999997 -11.1111 L 455.55559999999997 -33.3333 Z"></path><path fill="#000000" stroke-width="0" d="M 500 -11.1111 L 500 11.1111 L 477.77779999999996 11.1111 L 477.77779999999996 -11.1111 Z"></path><path fill="#000000" stroke-width="0" d="M 477.7778 11.1111 L 477.7778 33.3333 L 455.55559999999997 33.3333 L 455.55559999999997 11.1111 Z"></path><path fill="#000000" stroke-width="0" d="M 455.5556 -11.1111 L 455.5556 11.1111 L 433.3334 11.1111 L 433.3334 -11.1111 Z"></path><path fill="#000000" stroke-width="0" d="M 411.1111 33.333400000000005 L 411.1111 55.555600000000005 L 388.8889 55.555600000000005 L 388.8889 33.333400000000005 Z"></path><path fill="#000000" stroke-width="0" d="M 433.3333 55.555600000000005 L 433.3333 77.77780000000001 L 411.11109999999996 77.77780000000001 L 411.11109999999996 55.555600000000005 Z"></path><path fill="#000000" stroke-width="0" d="M 411.1111 77.77780000000001 L 411.1111 100 L 388.8889 100 L 388.8889 77.77780000000001 Z"></path><path fill="#000000" stroke-width="0" d="M 388.88890000000004 55.555600000000005 L 388.88890000000004 77.77780000000001 L 366.6667 77.77780000000001 L 366.6667 55.555600000000005 Z"></path><path fill="#000000" stroke-width="0" d="M 344.44440000000003 -33.3333 L 344.44440000000003 -11.1111 L 322.2222 -11.1111 L 322.2222 -33.3333 Z"></path><path fill="#000000" stroke-width="0" d="M 366.6666 -11.1111 L 366.6666 11.1111 L 344.4444 11.1111 L 344.4444 -11.1111 Z"></path><path fill="#000000" stroke-width="0" d="M 344.44440000000003 11.1111 L 344.44440000000003 33.3333 L 322.2222 33.3333 L 322.2222 11.1111 Z"></path><path fill="#000000" stroke-width="0" d="M 322.22220000000004 -11.1111 L 322.22220000000004 11.1111 L 300 11.1111 L 300 -11.1111 Z"></path><path fill="#000000" stroke-width="0" d="M 11.1111 300 L 11.1111 322.22220000000004 L -11.1111 322.22220000000004 L -11.1111 300 Z"></path><path fill="#000000" stroke-width="0" d="M 33.3333 322.2222 L 33.3333 344.44440000000003 L 11.1111 344.44440000000003 L 11.1111 322.2222 Z"></path><path fill="#000000" stroke-width="0" d="M 11.1111 344.4444 L 11.1111 366.6666 L -11.1111 366.6666 L -11.1111 344.4444 Z"></path><path fill="#000000" stroke-width="0" d="M -11.1111 322.2222 L -11.1111 344.44440000000003 L -33.3333 344.44440000000003 L -33.3333 322.2222 Z"></path><path fill="#000000" stroke-width="0" d="M 77.77780000000001 366.6667 L 77.77780000000001 388.88890000000004 L 55.555600000000005 388.88890000000004 L 55.555600000000005 366.6667 Z"></path><path fill="#000000" stroke-width="0" d="M 100 388.8889 L 100 411.1111 L 77.77780000000001 411.1111 L 77.77780000000001 388.8889 Z"></path><path fill="#000000" stroke-width="0" d="M 77.77780000000001 411.11109999999996 L 77.77780000000001 433.3333 L 55.555600000000005 433.3333 L 55.555600000000005 411.11109999999996 Z"></path><path fill="#000000" stroke-width="0" d="M 55.555600000000005 388.8889 L 55.555600000000005 411.1111 L 33.333400000000005 411.1111 L 33.333400000000005 388.8889 Z"></path><path fill="#000000" stroke-width="0" d="M 11.1111 433.3334 L 11.1111 455.5556 L -11.1111 455.5556 L -11.1111 433.3334 Z"></path><path fill="#000000" stroke-width="0" d="M 33.3333 455.55559999999997 L 33.3333 477.7778 L 11.1111 477.7778 L 11.1111 455.55559999999997 Z"></path><path fill="#000000" stroke-width="0" d="M 11.1111 477.77779999999996 L 11.1111 500 L -11.1111 500 L -11.1111 477.77779999999996 Z"></path><path fill="#000000" stroke-width="0" d="M -11.1111 455.55559999999997 L -11.1111 477.7778 L -33.3333 477.7778 L -33.3333 455.55559999999997 Z"></path><path fill="#000000" stroke-width="0" d="M -55.555600000000005 366.6667 L -55.555600000000005 388.88890000000004 L -77.77780000000001 388.88890000000004 L -77.77780000000001 366.6667 Z"></path><path fill="#000000" stroke-width="0" d="M -33.333400000000005 388.8889 L -33.333400000000005 411.1111 L -55.555600000000005 411.1111 L -55.555600000000005 388.8889 Z"></path><path fill="#000000" stroke-width="0" d="M -55.555600000000005 411.11109999999996 L -55.555600000000005 433.3333 L -77.77780000000001 433.3333 L -77.77780000000001 411.11109999999996 Z"></path><path fill="#000000" stroke-width="0" d="M -77.77780000000001 388.8889 L -77.77780000000001 411.1111 L -100 411.1111 L -100 388.8889 Z"></path><path fill="#000000" stroke-width="0" d="M 211.1111 500 L 211.1111 522.2222 L 188.8889 522.2222 L 188.8889 500 Z"></path><path fill="#000000" stroke-width="0" d="M 233.33329999999998 522.2222 L 233.33329999999998 544.4444 L 211.1111 544.4444 L 211.1111 522.2222 Z"></path><path fill="#000000" stroke-width="0" d="M 211.1111 544.4444000000001 L 211.1111 566.6666 L 188.8889 566.6666 L 188.8889 544.4444000000001 Z"></path><path fill="#000000" stroke-width="0" d="M 188.8889 522.2222 L 188.8889 544.4444 L 166.66670000000002 544.4444 L 166.66670000000002 522.2222 Z"></path><path fill="#000000" stroke-width="0" d="M 277.7778 566.6667 L 277.7778 588.8888999999999 L 255.5556 588.8888999999999 L 255.5556 566.6667 Z"></path><path fill="#000000" stroke-width="0" d="M 300 588.8889 L 300 611.1111 L 277.77779999999996 611.1111 L 277.77779999999996 588.8889 Z"></path><path fill="#000000" stroke-width="0" d="M 277.7778 611.1111000000001 L 277.7778 633.3333 L 255.5556 633.3333 L 255.5556 611.1111000000001 Z"></path><path fill="#000000" stroke-width="0" d="M 255.5556 588.8889 L 255.5556 611.1111 L 233.3334 611.1111 L 233.3334 588.8889 Z"></path><path fill="#000000" stroke-width="0" d="M 211.1111 633.3334 L 211.1111 655.5555999999999 L 188.8889 655.5555999999999 L 188.8889 633.3334 Z"></path><path fill="#000000" stroke-width="0" d="M 233.33329999999998 655.5556 L 233.33329999999998 677.7778 L 211.1111 677.7778 L 211.1111 655.5556 Z"></path><path fill="#000000" stroke-width="0" d="M 211.1111 677.7778000000001 L 211.1111 700 L 188.8889 700 L 188.8889 677.7778000000001 Z"></path><path fill="#000000" stroke-width="0" d="M 188.8889 655.5556 L 188.8889 677.7778 L 166.66670000000002 677.7778 L 166.66670000000002 655.5556 Z"></path><path fill="#000000" stroke-width="0" d="M 144.4444 566.6667 L 144.4444 588.8888999999999 L 122.22220000000002 588.8888999999999 L 122.22220000000002 566.6667 Z"></path><path fill="#000000" stroke-width="0" d="M 166.6666 588.8889 L 166.6666 611.1111 L 144.4444 611.1111 L 144.4444 588.8889 Z"></path><path fill="#000000" stroke-width="0" d="M 144.4444 611.1111000000001 L 144.4444 633.3333 L 122.22220000000002 633.3333 L 122.22220000000002 611.1111000000001 Z"></path><path fill="#000000" stroke-width="0" d="M 122.22220000000002 588.8889 L 122.22220000000002 611.1111 L 100 611.1111 L 100 588.8889 Z"></path><path fill="#000000" stroke-width="0" d="M 11.1111 700 L 11.1111 722.2221999999999 L -11.1111 722.2221999999999 L -11.1111 700 Z"></path><path fill="#000000" stroke-width="0" d="M 33.3333 722.2222 L 33.3333 744.4444 L 11.1111 744.4444 L 11.1111 722.2222 Z"></path><path fill="#000000" stroke-width="0" d="M 11.1111 744.4444000000001 L 11.1111 766.6666 L -11.1111 766.6666 L -11.1111 744.4444000000001 Z"></path><path fill="#000000" stroke-width="0" d="M -11.1111 722.2222 L -11.1111 744.4444 L -33.3333 744.4444 L -33.3333 722.2222 Z"></path><path fill="#000000" stroke-width="0" d="M 77.77780000000001 766.6667 L 77.77780000000001 788.8888999999999 L 55.555600000000005 788.8888999999999 L 55.555600000000005 766.6667 Z"></path><path fill="#000000" stroke-width="0" d="M 100 788.8889 L 100 811.1111 L 77.77780000000001 811.1111 L 77.77780000000001 788.8889 Z"></path><path fill="#000000" stroke-width="0" d="M 77.77780000000001 811.1111000000001 L 77.77780000000001 833.3333 L 55.555600000000005 833.3333 L 55.555600000000005 811.1111000000001 Z"></path><path fill="#000000" stroke-width="0" d="M 55.555600000000005 788.8889 L 55.555600000000005 811.1111 L 33.333400000000005 811.1111 L 33.333400000000005 788.8889 Z"></path><path fill="#000000" stroke-width="0" d="M 11.1111 833.3334 L 11.1111 855.5555999999999 L -11.1111 855.5555999999999 L -11.1111 833.3334 Z"></path><path fill="#000000" stroke-width="0" d="M 33.3333 855.5556 L 33.3333 877.7778 L 11.1111 877.7778 L 11.1111 855.5556 Z"></path><path fill="#000000" stroke-width="0" d="M 11.1111 877.7778000000001 L 11.1111 900 L -11.1111 900 L -11.1111 877.7778000000001 Z"></path><path fill="#000000" stroke-width="0" d="M -11.1111 855.5556 L -11.1111 877.7778 L -33.3333 877.7778 L -33.3333 855.5556 Z"></path><path fill="#000000" stroke-width="0" d="M -55.555600000000005 766.6667 L -55.555600000000005 788.8888999999999 L -77.77780000000001 788.8888999999999 L -77.77780000000001 766.6667 Z"></path><path fill="#000000" stroke-width="0" d="M -33.333400000000005 788.8889 L -33.333400000000005 811.1111 L -55.555600000000005 811.1111 L -55.555600000000005 788.8889 Z"></path><path fill="#000000" stroke-width="0" d="M -55.555600000000005 811.1111000000001 L -55.555600000000005 833.3333 L -77.77780000000001 833.3333 L -77.77780000000001 811.1111000000001 Z"></path><path fill="#000000" stroke-width="0" d="M -77.77780000000001 788.8889 L -77.77780000000001 811.1111 L -100 811.1111 L -100 788.8889 Z"></path><path fill="#000000" stroke-width="0" d="M -188.8889 500 L -188.8889 522.2222 L -211.1111 522.2222 L -211.1111 500 Z"></path><path fill="#000000" stroke-width="0" d="M -166.66670000000002 522.2222 L -166.66670000000002 544.4444 L -188.8889 544.4444 L -188.8889 522.2222 Z"></path><path fill="#000000" stroke-width="0" d="M -188.8889 544.4444000000001 L -188.8889 566.6666 L -211.1111 566.6666 L -211.1111 544.4444000000001 Z"></path><path fill="#000000" stroke-width="0" d="M -211.1111 522.2222 L -211.1111 544.4444 L -233.33329999999998 544.4444 L -233.33329999999998 522.2222 Z"></path><path fill="#000000" stroke-width="0" d="M -122.22220000000002 566.6667 L -122.22220000000002 588.8888999999999 L -144.4444 588.8888999999999 L -144.4444 566.6667 Z"></path><path fill="#000000" stroke-width="0" d="M -100 588.8889 L -100 611.1111 L -122.22220000000002 611.1111 L -122.22220000000002 588.8889 Z"></path><path fill="#000000" stroke-width="0" d="M -122.22220000000002 611.1111000000001 L -122.22220000000002 633.3333 L -144.4444 633.3333 L -144.4444 611.1111000000001 Z"></path><path fill="#000000" stroke-width="0" d="M -144.4444 588.8889 L -144.4444 611.1111 L -166.6666 611.1111 L -166.6666 588.8889 Z"></path><path fill="#000000" stroke-width="0" d="M -188.8889 633.3334 L -188.8889 655.5555999999999 L -211.1111 655.5555999999999 L -211.1111 633.3334 Z"></path><path fill="#000000" stroke-width="0" d="M -166.66670000000002 655.5556 L -166.66670000000002 677.7778 L -188.8889 677.7778 L -188.8889 655.5556 Z"></path><path fill="#000000" stroke-width="0" d="M -188.8889 677.7778000000001 L -188.8889 700 L -211.1111 700 L -211.1111 677.7778000000001 Z"></path><path fill="#000000" stroke-width="0" d="M -211.1111 655.5556 L -211.1111 677.7778 L -233.33329999999998 677.7778 L -233.33329999999998 655.5556 Z"></path><path fill="#000000" stroke-width="0" d="M -255.5556 566.6667 L -255.5556 588.8888999999999 L -277.7778 588.8888999999999 L -277.7778 566.6667 Z"></path><path fill="#000000" stroke-width="0" d="M -233.3334 588.8889 L -233.3334 611.1111 L -255.5556 611.1111 L -255.5556 588.8889 Z"></path><path fill="#000000" stroke-width="0" d="M -255.5556 611.1111000000001 L -255.5556 633.3333 L -277.7778 633.3333 L -277.7778 611.1111000000001 Z"></path><path fill="#000000" stroke-width="0" d="M -277.77779999999996 588.8889 L -277.77779999999996 611.1111 L -300 611.1111 L -300 588.8889 Z"></path><path fill="#000000" stroke-width="0" d="M -588.8889 -300 L -588.8889 -277.77779999999996 L -611.1111 -277.77779999999996 L -611.1111 -300 Z"></path><path fill="#000000" stroke-width="0" d="M -566.6667 -277.7778 L -566.6667 -255.5556 L -588.8888999999999 -255.5556 L -588.8888999999999 -277.7778 Z"></path><path fill="#000000" stroke-width="0" d="M -588.8889 -255.5556 L -588.8889 -233.3334 L -611.1111 -233.3334 L -611.1111 -255.5556 Z"></path><path fill="#000000" stroke-width="0" d="M -611.1111000000001 -277.7778 L -611.1111000000001 -255.5556 L -633.3333 -255.5556 L -633.3333 -277.7778 Z"></path><path fill="#000000" stroke-width="0" d="M -522.2222 -233.33329999999998 L -522.2222 -211.1111 L -544.4444 -211.1111 L -544.4444 -233.33329999999998 Z"></path><path fill="#000000" stroke-width="0" d="M -500 -211.1111 L -500 -188.8889 L -522.2222 -188.8889 L -522.2222 -211.1111 Z"></path><path fill="#000000" stroke-width="0" d="M -522.2222 -188.8889 L -522.2222 -166.66670000000002 L -544.4444 -166.66670000000002 L -544.4444 -188.8889 Z"></path><path fill="#000000" stroke-width="0" d="M -544.4444000000001 -211.1111 L -544.4444000000001 -188.8889 L -566.6666 -188.8889 L -566.6666 -211.1111 Z"></path><path fill="#000000" stroke-width="0" d="M -588.8889 -166.6666 L -588.8889 -144.4444 L -611.1111 -144.4444 L -611.1111 -166.6666 Z"></path><path fill="#000000" stroke-width="0" d="M -566.6667 -144.4444 L -566.6667 -122.22220000000002 L -588.8888999999999 -122.22220000000002 L -588.8888999999999 -144.4444 Z"></path><path fill="#000000" stroke-width="0" d="M -588.8889 -122.22220000000002 L -588.8889 -100 L -611.1111 -100 L -611.1111 -122.22220000000002 Z"></path><path fill="#000000" stroke-width="0" d="M -611.1111000000001 -144.4444 L -611.1111000000001 -122.22220000000002 L -633.3333 -122.22220000000002 L -633.3333 -144.4444 Z"></path><path fill="#000000" stroke-width="0" d="M -655.5556 -233.33329999999998 L -655.5556 -211.1111 L -677.7778 -211.1111 L -677.7778 -233.33329999999998 Z"></path><path fill="#000000" stroke-width="0" d="M -633.3334 -211.1111 L -633.3334 -188.8889 L -655.5555999999999 -188.8889 L -655.5555999999999 -211.1111 Z"></path><path fill="#000000" stroke-width="0" d="M -655.5556 -188.8889 L -655.5556 -166.66670000000002 L -677.7778 -166.66670000000002 L -677.7778 -188.8889 Z"></path><path fill="#000000" stroke-width="0" d="M -677.7778000000001 -211.1111 L -677.7778000000001 -188.8889 L -700 -188.8889 L -700 -211.1111 Z"></path><path fill="#000000" stroke-width="0" d="M -388.8889 -100 L -388.8889 -77.77780000000001 L -411.1111 -77.77780000000001 L -411.1111 -100 Z"></path><path fill="#000000" stroke-width="0" d="M -366.6667 -77.77780000000001 L -366.6667 -55.555600000000005 L -388.88890000000004 -55.555600000000005 L -388.88890000000004 -77.77780000000001 Z"></path><path fill="#000000" stroke-width="0" d="M -388.8889 -55.555600000000005 L -388.8889 -33.333400000000005 L -411.1111 -33.333400000000005 L -411.1111 -55.555600000000005 Z"></path><path fill="#000000" stroke-width="0" d="M -411.11109999999996 -77.77780000000001 L -411.11109999999996 -55.555600000000005 L -433.3333 -55.555600000000005 L -433.3333 -77.77780000000001 Z"></path><path fill="#000000" stroke-width="0" d="M -322.2222 -33.3333 L -322.2222 -11.1111 L -344.44440000000003 -11.1111 L -344.44440000000003 -33.3333 Z"></path><path fill="#000000" stroke-width="0" d="M -300 -11.1111 L -300 11.1111 L -322.22220000000004 11.1111 L -322.22220000000004 -11.1111 Z"></path><path fill="#000000" stroke-width="0" d="M -322.2222 11.1111 L -322.2222 33.3333 L -344.44440000000003 33.3333 L -344.44440000000003 11.1111 Z"></path><path fill="#000000" stroke-width="0" d="M -344.4444 -11.1111 L -344.4444 11.1111 L -366.6666 11.1111 L -366.6666 -11.1111 Z"></path><path fill="#000000" stroke-width="0" d="M -388.8889 33.333400000000005 L -388.8889 55.555600000000005 L -411.1111 55.555600000000005 L -411.1111 33.333400000000005 Z"></path><path fill="#000000" stroke-width="0" d="M -366.6667 55.555600000000005 L -366.6667 77.77780000000001 L -388.88890000000004 77.77780000000001 L -388.88890000000004 55.555600000000005 Z"></path><path fill="#000000" stroke-width="0" d="M -388.8889 77.77780000000001 L -388.8889 100 L -411.1111 100 L -411.1111 77.77780000000001 Z"></path><path fill="#000000" stroke-width="0" d="M -411.11109999999996 55.555600000000005 L -411.11109999999996 77.77780000000001 L -433.3333 77.77780000000001 L -433.3333 55.555600000000005 Z"></path><path fill="#000000" stroke-width="0" d="M -455.55559999999997 -33.3333 L -455.55559999999997 -11.1111 L -477.7778 -11.1111 L -477.7778 -33.3333 Z"></path><path fill="#000000" stroke-width="0" d="M -433.3334 -11.1111 L -433.3334 11.1111 L -455.5556 11.1111 L -455.5556 -11.1111 Z"></path><path fill="#000000" stroke-width="0" d="M -455.55559999999997 11.1111 L -455.55559999999997 33.3333 L -477.7778 33.3333 L -477.7778 11.1111 Z"></path><path fill="#000000" stroke-width="0" d="M -477.77779999999996 -11.1111 L -477.77779999999996 11.1111 L -500 11.1111 L -500 -11.1111 Z"></path><path fill="#000000" stroke-width="0" d="M -588.8889 100 L -588.8889 122.22220000000002 L -611.1111 122.22220000000002 L -611.1111 100 Z"></path><path fill="#000000" stroke-width="0" d="M -566.6667 122.22220000000002 L -566.6667 144.4444 L -588.8888999999999 144.4444 L -588.8888999999999 122.22220000000002 Z"></path><path fill="#000000" stroke-width="0" d="M -588.8889 144.4444 L -588.8889 166.6666 L -611.1111 166.6666 L -611.1111 144.4444 Z"></path><path fill="#000000" stroke-width="0" d="M -611.1111000000001 122.22220000000002 L -611.1111000000001 144.4444 L -633.3333 144.4444 L -633.3333 122.22220000000002 Z"></path><path fill="#000000" stroke-width="0" d="M -522.2222 166.66670000000002 L -522.2222 188.8889 L -544.4444 188.8889 L -544.4444 166.66670000000002 Z"></path><path fill="#000000" stroke-width="0" d="M -500 188.8889 L -500 211.1111 L -522.2222 211.1111 L -522.2222 188.8889 Z"></path><path fill="#000000" stroke-width="0" d="M -522.2222 211.1111 L -522.2222 233.33329999999998 L -544.4444 233.33329999999998 L -544.4444 211.1111 Z"></path><path fill="#000000" stroke-width="0" d="M -544.4444000000001 188.8889 L -544.4444000000001 211.1111 L -566.6666 211.1111 L -566.6666 188.8889 Z"></path><path fill="#000000" stroke-width="0" d="M -588.8889 233.3334 L -588.8889 255.5556 L -611.1111 255.5556 L -611.1111 233.3334 Z"></path><path fill="#000000" stroke-width="0" d="M -566.6667 255.5556 L -566.6667 277.7778 L -588.8888999999999 277.7778 L -588.8888999999999 255.5556 Z"></path><path fill="#000000" stroke-width="0" d="M -588.8889 277.77779999999996 L -588.8889 300 L -611.1111 300 L -611.1111 277.77779999999996 Z"></path><path fill="#000000" stroke-width="0" d="M -611.1111000000001 255.5556 L -611.1111000000001 277.7778 L -633.3333 277.7778 L -633.3333 255.5556 Z"></path><path fill="#000000" stroke-width="0" d="M -655.5556 166.66670000000002 L -655.5556 188.8889 L -677.7778 188.8889 L -677.7778 166.66670000000002 Z"></path><path fill="#000000" stroke-width="0" d="M -633.3334 188.8889 L -633.3334 211.1111 L -655.5555999999999 211.1111 L -655.5555999999999 188.8889 Z"></path><path fill="#000000" stroke-width="0" d="M -655.5556 211.1111 L -655.5556 233.33329999999998 L -677.7778 233.33329999999998 L -677.7778 211.1111 Z"></path><path fill="#000000" stroke-width="0" d="M -677.7778000000001 188.8889 L -677.7778000000001 211.1111 L -700 211.1111 L -700 188.8889 Z"></path><path fill="#000000" stroke-width="0" d="M -788.8889 -100 L -788.8889 -77.77780000000001 L -811.1111 -77.77780000000001 L -811.1111 -100 Z"></path><path fill="#000000" stroke-width="0" d="M -766.6667 -77.77780000000001 L -766.6667 -55.555600000000005 L -788.8888999999999 -55.555600000000005 L -788.8888999999999 -77.77780000000001 Z"></path><path fill="#000000" stroke-width="0" d="M -788.8889 -55.555600000000005 L -788.8889 -33.333400000000005 L -811.1111 -33.333400000000005 L -811.1111 -55.555600000000005 Z"></path><path fill="#000000" stroke-width="0" d="M -811.1111000000001 -77.77780000000001 L -811.1111000000001 -55.555600000000005 L -833.3333 -55.555600000000005 L -833.3333 -77.77780000000001 Z"></path><path fill="#000000" stroke-width="0" d="M -722.2222 -33.3333 L -722.2222 -11.1111 L -744.4444 -11.1111 L -744.4444 -33.3333 Z"></path><path fill="#000000" stroke-width="0" d="M -700 -11.1111 L -700 11.1111 L -722.2221999999999 11.1111 L -722.2221999999999 -11.1111 Z"></path><path fill="#000000" stroke-width="0" d="M -722.2222 11.1111 L -722.2222 33.3333 L -744.4444 33.3333 L -744.4444 11.1111 Z"></path><path fill="#000000" stroke-width="0" d="M -744.4444000000001 -11.1111 L -744.4444000000001 11.1111 L -766.6666 11.1111 L -766.6666 -11.1111 Z"></path><path fill="#000000" stroke-width="0" d="M -788.8889 33.333400000000005 L -788.8889 55.555600000000005 L -811.1111 55.555600000000005 L -811.1111 33.333400000000005 Z"></path><path fill="#000000" stroke-width="0" d="M -766.6667 55.555600000000005 L -766.6667 77.77780000000001 L -788.8888999999999 77.77780000000001 L -788.8888999999999 55.555600000000005 Z"></path><path fill="#000000" stroke-width="0" d="M -788.8889 77.77780000000001 L -788.8889 100 L -811.1111 100 L -811.1111 77.77780000000001 Z"></path><path fill="#000000" stroke-width="0" d="M -811.1111000000001 55.555600000000005 L -811.1111000000001 77.77780000000001 L -833.3333 77.77780000000001 L -833.3333 55.555600000000005 Z"></path><path fill="#000000" stroke-width="0" d="M -855.5556 -33.3333 L -855.5556 -11.1111 L -877.7778 -11.1111 L -877.7778 -33.3333 Z"></path><path fill="#000000" stroke-width="0" d="M -833.3334 -11.1111 L -833.3334 11.1111 L -855.5555999999999 11.1111 L -855.5555999999999 -11.1111 Z"></path><path fill="#000000" stroke-width="0" d="M -855.5556 11.1111 L -855.5556 33.3333 L -877.7778 33.3333 L -877.7778 11.1111 Z"></path><path fill="#000000" stroke-width="0" d="M -877.7778000000001 -11.1111 L -877.7778000000001 11.1111 L -900 11.1111 L -900 -11.1111 Z"></path><path fill="#000000" stroke-width="0" d="M 11.1111 -100 L 11.1111 -77.77780000000001 L -11.1111 -77.77780000000001 L -11.1111 -100 Z"></path><path fill="#000000" stroke-width="0" d="M 33.3333 -77.77780000000001 L 33.3333 -55.555600000000005 L 11.1111 -55.555600000000005 L 11.1111 -77.77780000000001 Z"></path><path fill="#000000" stroke-width="0" d="M 11.1111 -55.555600000000005 L 11.1111 -33.333400000000005 L -11.1111 -33.333400000000005 L -11.1111 -55.555600000000005 Z"></path><path fill="#000000" stroke-width="0" d="M -11.1111 -77.77780000000001 L -11.1111 -55.555600000000005 L -33.3333 -55.555600000000005 L -33.3333 -77.77780000000001 Z"></path><path fill="#000000" stroke-width="0" d="M 77.77780000000001 -33.3333 L 77.77780000000001 -11.1111 L 55.555600000000005 -11.1111 L 55.555600000000005 -33.3333 Z"></path><path fill="#000000" stroke-width="0" d="M 100 -11.1111 L 100 11.1111 L 77.77780000000001 11.1111 L 77.77780000000001 -11.1111 Z"></path><path fill="#000000" stroke-width="0" d="M 77.77780000000001 11.1111 L 77.77780000000001 33.3333 L 55.555600000000005 33.3333 L 55.555600000000005 11.1111 Z"></path><path fill="#000000" stroke-width="0" d="M 55.555600000000005 -11.1111 L 55.555600000000005 11.1111 L 33.333400000000005 11.1111 L 33.333400000000005 -11.1111 Z"></path><path fill="#000000" stroke-width="0" d="M 11.1111 33.333400000000005 L 11.1111 55.555600000000005 L -11.1111 55.555600000000005 L -11.1111 33.333400000000005 Z"></path><path fill="#000000" stroke-width="0" d="M 33.3333 55.555600000000005 L 33.3333 77.77780000000001 L 11.1111 77.77780000000001 L 11.1111 55.555600000000005 Z"></path><path fill="#000000" stroke-width="0" d="M 11.1111 77.77780000000001 L 11.1111 100 L -11.1111 100 L -11.1111 77.77780000000001 Z"></path><path fill="#000000" stroke-width="0" d="M -11.1111 55.555600000000005 L -11.1111 77.77780000000001 L -33.3333 77.77780000000001 L -33.3333 55.555600000000005 Z"></path><path fill="#000000" stroke-width="0" d="M -55.555600000000005 -33.3333 L -55.555600000000005 -11.1111 L -77.77780000000001 -11.1111 L -77.77780000000001 -33.3333 Z"></path><path fill="#000000" stroke-width="0" d="M -33.333400000000005 -11.1111 L -33.333400000000005 11.1111 L -55.555600000000005 11.1111 L -55.555600000000005 -11.1111 Z"></path><path fill="#000000" stroke-width="0" d="M -55.555600000000005 11.1111 L -55.555600000000005 33.3333 L -77.77780000000001 33.3333 L -77.77780000000001 11.1111 Z"></path><path fill="#000000" stroke-width="0" d="M -77.77780000000001 -11.1111 L -77.77780000000001 11.1111 L -100 11.1111 L -100 -11.1111 Z"></path><path fill="#000000" stroke-width="0" d="M 11.1111 -633.3333 L 11.1111 -611.1111000000001 L -11.1111 -611.1111000000001 L -11.1111 -633.3333 Z"></path><path fill="#000000" stroke-width="0" d="M 33.3333 -611.1111 L 33.3333 -588.8889 L 11.1111 -588.8889 L 11.1111 -611.1111 Z"></path><path fill="#000000" stroke-width="0" d="M 11.1111 -588.8888999999999 L 11.1111 -566.6667 L -11.1111 -566.6667 L -11.1111 -588.8888999999999 Z"></path><path fill="#000000" stroke-width="0" d="M -11.1111 -611.1111 L -11.1111 -588.8889 L -33.3333 -588.8889 L -33.3333 -611.1111 Z"></path><path fill="#000000" stroke-width="0" d="M 611.1111 -33.3333 L 611.1111 -11.1111 L 588.8889 -11.1111 L 588.8889 -33.3333 Z"></path><path fill="#000000" stroke-width="0" d="M 633.3333 -11.1111 L 633.3333 11.1111 L 611.1111000000001 11.1111 L 611.1111000000001 -11.1111 Z"></path><path fill="#000000" stroke-width="0" d="M 611.1111 11.1111 L 611.1111 33.3333 L 588.8889 33.3333 L 588.8889 11.1111 Z"></path><path fill="#000000" stroke-width="0" d="M 588.8888999999999 -11.1111 L 588.8888999999999 11.1111 L 566.6667 11.1111 L 566.6667 -11.1111 Z"></path><path fill="#000000" stroke-width="0" d="M 11.1111 566.6667 L 11.1111 588.8888999999999 L -11.1111 588.8888999999999 L -11.1111 566.6667 Z"></path><path fill="#000000" stroke-width="0" d="M 33.3333 588.8889 L 33.3333 611.1111 L 11.1111 611.1111 L 11.1111 588.8889 Z"></path><path fill="#000000" stroke-width="0" d="M 11.1111 611.1111000000001 L 11.1111 633.3333 L -11.1111 633.3333 L -11.1111 611.1111000000001 Z"></path><path fill="#000000" stroke-width="0" d="M -11.1111 588.8889 L -11.1111 611.1111 L -33.3333 611.1111 L -33.3333 588.8889 Z"></path><path fill="#000000" stroke-width="0" d="M -588.8889 -33.3333 L -588.8889 -11.1111 L -611.1111 -11.1111 L -611.1111 -33.3333 Z"></path><path fill="#000000" stroke-width="0" d="M -566.6667 -11.1111 L -566.6667 11.1111 L -588.8888999999999 11.1111 L -588.8888999999999 -11.1111 Z"></path><path fill="#000000" stroke-width="0" d="M -588.8889 11.1111 L -588.8889 33.3333 L -611.1111 33.3333 L -611.1111 11.1111 Z"></path><path fill="#000000" stroke-width="0" d="M -611.1111000000001 -11.1111 L -611.1111000000001 11.1111 L -633.3333 11.1111 L -633.3333 -11.1111 Z"></path><path fill="#000000" stroke-width="0" d="M 11.1111 166.66670000000002 L 11.1111 188.8889 L -11.1111 188.8889 L -11.1111 166.66670000000002 Z"></path><path fill="#000000" stroke-width="0" d="M 33.3333 188.8889 L 33.3333 211.1111 L 11.1111 211.1111 L 11.1111 188.8889 Z"></path><path fill="#000000" stroke-width="0" d="M 11.1111 211.1111 L 11.1111 233.33329999999998 L -11.1111 233.33329999999998 L -11.1111 211.1111 Z"></path><path fill="#000000" stroke-width="0" d="M -11.1111 188.8889 L -11.1111 211.1111 L -33.3333 211.1111 L -33.3333 188.8889 Z"></path><path fill="#000000" stroke-width="0" d="M -188.8889 -33.3333 L -188.8889 -11.1111 L -211.1111 -11.1111 L -211.1111 -33.3333 Z"></path><path fill="#000000" stroke-width="0" d="M -166.66670000000002 -11.1111 L -166.66670000000002 11.1111 L -188.8889 11.1111 L -188.8889 -11.1111 Z"></path><path fill="#000000" stroke-width="0" d="M -188.8889 11.1111 L -188.8889 33.3333 L -211.1111 33.3333 L -211.1111 11.1111 Z"></path><path fill="#000000" stroke-width="0" d="M -211.1111 -11.1111 L -211.1111 11.1111 L -233.33329999999998 11.1111 L -233.33329999999998 -11.1111 Z"></path><path fill="#000000" stroke-width="0" d="M 11.1111 -233.33329999999998 L 11.1111 -211.1111 L -11.1111 -211.1111 L -11.1111 -233.33329999999998 Z"></path><path fill="#000000" stroke-width="0" d="M 33.3333 -211.1111 L 33.3333 -188.8889 L 11.1111 -188.8889 L 11.1111 -211.1111 Z"></path><path fill="#000000" stroke-width="0" d="M 11.1111 -188.8889 L 11.1111 -166.66670000000002 L -11.1111 -166.66670000000002 L -11.1111 -188.8889 Z"></path><path fill="#000000" stroke-width="0" d="M -11.1111 -211.1111 L -11.1111 -188.8889 L -33.3333 -188.8889 L -33.3333 -211.1111 Z"></path><path fill="#000000" stroke-width="0" d="M 211.1111 -33.3333 L 211.1111 -11.1111 L 188.8889 -11.1111 L 188.8889 -33.3333 Z"></path><path fill="#000000" stroke-width="0" d="M 233.33329999999998 -11.1111 L 233.33329999999998 11.1111 L 211.1111 11.1111 L 211.1111 -11.1111 Z"></path><path fill="#000000" stroke-width="0" d="M 211.1111 11.1111 L 211.1111 33.3333 L 188.8889 33.3333 L 188.8889 11.1111 Z"></path><path fill="#000000" stroke-width="0" d="M 188.8889 -11.1111 L 188.8889 11.1111 L 166.66670000000002 11.1111 L 166.66670000000002 -11.1111 Z"></path><path fill="#000000" stroke-width="0" d="M 11.1111 -811.1111 L 11.1111 -788.8889 L -11.1111 -788.8889 L -11.1111 -811.1111 Z"></path><path fill="#000000" stroke-width="0" d="M 211.1111 -611.1111 L 211.1111 -588.8889 L 188.8889 -588.8889 L 188.8889 -611.1111 Z"></path><path fill="#000000" stroke-width="0" d="M 11.1111 -411.1111 L 11.1111 -388.8889 L -11.1111 -388.8889 L -11.1111 -411.1111 Z"></path><path fill="#000000" stroke-width="0" d="M -188.8889 -611.1111 L -188.8889 -588.8889 L -211.1111 -588.8889 L -211.1111 -611.1111 Z"></path><path fill="#000000" stroke-width="0" d="M 611.1111 -211.1111 L 611.1111 -188.8889 L 588.8889 -188.8889 L 588.8889 -211.1111 Z"></path><path fill="#000000" stroke-width="0" d="M 811.1111 -11.1111 L 811.1111 11.1111 L 788.8889 11.1111 L 788.8889 -11.1111 Z"></path><path fill="#000000" stroke-width="0" d="M 611.1111 188.8889 L 611.1111 211.1111 L 588.8889 211.1111 L 588.8889 188.8889 Z"></path><path fill="#000000" stroke-width="0" d="M 411.1111 -11.1111 L 411.1111 11.1111 L 388.8889 11.1111 L 388.8889 -11.1111 Z"></path><path fill="#000000" stroke-width="0" d="M 11.1111 388.8889 L 11.1111 411.1111 L -11.1111 411.1111 L -11.1111 388.8889 Z"></path><path fill="#000000" stroke-width="0" d="M 211.1111 588.8889 L 211.1111 611.1111 L 188.8889 611.1111 L 188.8889 588.8889 Z"></path><path fill="#000000" stroke-width="0" d="M 11.1111 788.8889 L 11.1111 811.1111 L -11.1111 811.1111 L -11.1111 788.8889 Z"></path><path fill="#000000" stroke-width="0" d="M -188.8889 588.8889 L -188.8889 611.1111 L -211.1111 611.1111 L -211.1111 588.8889 Z"></path><path fill="#000000" stroke-width="0" d="M -588.8889 -211.1111 L -588.8889 -188.8889 L -611.1111 -188.8889 L -611.1111 -211.1111 Z"></path><path fill="#000000" stroke-width="0" d="M -388.8889 -11.1111 L -388.8889 11.1111 L -411.1111 11.1111 L -411.1111 -11.1111 Z"></path><path fill="#000000" stroke-width="0" d="M -588.8889 188.8889 L -588.8889 211.1111 L -611.1111 211.1111 L -611.1111 188.8889 Z"></path><path fill="#000000" stroke-width="0" d="M -788.8889 -11.1111 L -788.8889 11.1111 L -811.1111 11.1111 L -811.1111 -11.1111 Z"></path><path fill="#000000" stroke-width="0" d="M 11.1111 -11.1111 L 11.1111 11.1111 L -11.1111 11.1111 L -11.1111 -11.1111 Z"></path><path fill="#000000" stroke-width="0" d="M 11.1111 -544.4444 L 11.1111 -522.2222 L -11.1111 -522.2222 L -11.1111 -544.4444 Z"></path><path fill="#000000" stroke-width="0" d="M -55.555600000000005 -611.1111 L -55.555600000000005 -588.8889 L -77.77780000000001 -588.8889 L -77.77780000000001 -611.1111 Z"></path><path fill="#000000" stroke-width="0" d="M 11.1111 -677.7778 L 11.1111 -655.5556 L -11.1111 -655.5556 L -11.1111 -677.7778 Z"></path><path fill="#000000" stroke-width="0" d="M 77.77780000000001 -611.1111 L 77.77780000000001 -588.8889 L 55.555600000000005 -588.8889 L 55.555600000000005 -611.1111 Z"></path><path fill="#000000" stroke-width="0" d="M 611.1111 55.555600000000005 L 611.1111 77.77780000000001 L 588.8889 77.77780000000001 L 588.8889 55.555600000000005 Z"></path><path fill="#000000" stroke-width="0" d="M 544.4444 -11.1111 L 544.4444 11.1111 L 522.2222 11.1111 L 522.2222 -11.1111 Z"></path><path fill="#000000" stroke-width="0" d="M 611.1111 -77.77780000000001 L 611.1111 -55.555600000000005 L 588.8889 -55.555600000000005 L 588.8889 -77.77780000000001 Z"></path><path fill="#000000" stroke-width="0" d="M 677.7778 -11.1111 L 677.7778 11.1111 L 655.5556 11.1111 L 655.5556 -11.1111 Z"></path><path fill="#000000" stroke-width="0" d="M 11.1111 655.5556 L 11.1111 677.7778 L -11.1111 677.7778 L -11.1111 655.5556 Z"></path><path fill="#000000" stroke-width="0" d="M -55.555600000000005 588.8889 L -55.555600000000005 611.1111 L -77.77780000000001 611.1111 L -77.77780000000001 588.8889 Z"></path><path fill="#000000" stroke-width="0" d="M 11.1111 522.2222 L 11.1111 544.4444 L -11.1111 544.4444 L -11.1111 522.2222 Z"></path><path fill="#000000" stroke-width="0" d="M 77.77780000000001 588.8889 L 77.77780000000001 611.1111 L 55.555600000000005 611.1111 L 55.555600000000005 588.8889 Z"></path><path fill="#000000" stroke-width="0" d="M -588.8889 55.555600000000005 L -588.8889 77.77780000000001 L -611.1111 77.77780000000001 L -611.1111 55.555600000000005 Z"></path><path fill="#000000" stroke-width="0" d="M -655.5556 -11.1111 L -655.5556 11.1111 L -677.7778 11.1111 L -677.7778 -11.1111 Z"></path><path fill="#000000" stroke-width="0" d="M -588.8889 -77.77780000000001 L -588.8889 -55.555600000000005 L -611.1111 -55.555600000000005 L -611.1111 -77.77780000000001 Z"></path><path fill="#000000" stroke-width="0" d="M -522.2222 -11.1111 L -522.2222 11.1111 L -544.4444 11.1111 L -544.4444 -11.1111 Z"></path><path fill="#000000" stroke-width="0" d="M 11.1111 255.5556 L 11.1111 277.7778 L -11.1111 277.7778 L -11.1111 255.5556 Z"></path><path fill="#000000" stroke-width="0" d="M -55.555600000000005 188.8889 L -55.555600000000005 211.1111 L -77.77780000000001 211.1111 L -77.77780000000001 188.8889 Z"></path><path fill="#000000" stroke-width="0" d="M 11.1111 122.22220000000002 L 11.1111 144.4444 L -11.1111 144.4444 L -11.1111 122.22220000000002 Z"></path><path fill="#000000" stroke-width="0" d="M 77.77780000000001 188.8889 L 77.77780000000001 211.1111 L 55.555600000000005 211.1111 L 55.555600000000005 188.8889 Z"></path><path fill="#000000" stroke-width="0" d="M -188.8889 55.555600000000005 L -188.8889 77.77780000000001 L -211.1111 77.77780000000001 L -211.1111 55.555600000000005 Z"></path><path fill="#000000" stroke-width="0" d="M -255.5556 -11.1111 L -255.5556 11.1111 L -277.7778 11.1111 L -277.7778 -11.1111 Z"></path><path fill="#000000" stroke-width="0" d="M -188.8889 -77.77780000000001 L -188.8889 -55.555600000000005 L -211.1111 -55.555600000000005 L -211.1111 -77.77780000000001 Z"></path><path fill="#000000" stroke-width="0" d="M -122.22220000000002 -11.1111 L -122.22220000000002 11.1111 L -144.4444 11.1111 L -144.4444 -11.1111 Z"></path><path fill="#000000" stroke-width="0" d="M 11.1111 -144.4444 L 11.1111 -122.22220000000002 L -11.1111 -122.22220000000002 L -11.1111 -144.4444 Z"></path><path fill="#000000" stroke-width="0" d="M -55.555600000000005 -211.1111 L -55.555600000000005 -188.8889 L -77.77780000000001 -188.8889 L -77.77780000000001 -211.1111 Z"></path><path fill="#000000" stroke-width="0" d="M 11.1111 -277.7778 L 11.1111 -255.5556 L -11.1111 -255.5556 L -11.1111 -277.7778 Z"></path><path fill="#000000" stroke-width="0" d="M 77.77780000000001 -211.1111 L 77.77780000000001 -188.8889 L 55.555600000000005 -188.8889 L 55.555600000000005 -211.1111 Z"></path><path fill="#000000" stroke-width="0" d="M 211.1111 55.555600000000005 L 211.1111 77.77780000000001 L 188.8889 77.77780000000001 L 188.8889 55.555600000000005 Z"></path><path fill="#000000" stroke-width="0" d="M 144.4444 -11.1111 L 144.4444 11.1111 L 122.22220000000002 11.1111 L 122.22220000000002 -11.1111 Z"></path><path fill="#000000" stroke-width="0" d="M 211.1111 -77.77780000000001 L 211.1111 -55.555600000000005 L 188.8889 -55.555600000000005 L 188.8889 -77.77780000000001 Z"></path><path fill="#000000" stroke-width="0" d="M 277.7778 -11.1111 L 277.7778 11.1111 L 255.5556 11.1111 L 255.5556 -11.1111 Z"></path><path fill="#000000" stroke-width="0" d="M 11.1111 -877.7778 L 11.1111 -855.5556 L -11.1111 -855.5556 L -11.1111 -877.7778 Z"></path><path fill="#000000" stroke-width="0" d="M 77.77780000000001 -811.1111 L 77.77780000000001 -788.8889 L 55.555600000000005 -788.8889 L 55.555600000000005 -811.1111 Z"></path><path fill="#000000" stroke-width="0" d="M 11.1111 -744.4444 L 11.1111 -722.2222 L -11.1111 -722.2222 L -11.1111 -744.4444 Z"></path><path fill="#000000" stroke-width="0" d="M -55.555600000000005 -811.1111 L -55.555600000000005 -788.8889 L -77.77780000000001 -788.8889 L -77.77780000000001 -811.1111 Z"></path><path fill="#000000" stroke-width="0" d="M 211.1111 -677.7778 L 211.1111 -655.5556 L 188.8889 -655.5556 L 188.8889 -677.7778 Z"></path><path fill="#000000" stroke-width="0" d="M 277.7778 -611.1111 L 277.7778 -588.8889 L 255.5556 -588.8889 L 255.5556 -611.1111 Z"></path><path fill="#000000" stroke-width="0" d="M 211.1111 -544.4444 L 211.1111 -522.2222 L 188.8889 -522.2222 L 188.8889 -544.4444 Z"></path><path fill="#000000" stroke-width="0" d="M 144.4444 -611.1111 L 144.4444 -588.8889 L 122.22220000000002 -588.8889 L 122.22220000000002 -611.1111 Z"></path><path fill="#000000" stroke-width="0" d="M 11.1111 -477.7778 L 11.1111 -455.55559999999997 L -11.1111 -455.55559999999997 L -11.1111 -477.7778 Z"></path><path fill="#000000" stroke-width="0" d="M 77.77780000000001 -411.1111 L 77.77780000000001 -388.8889 L 55.555600000000005 -388.8889 L 55.555600000000005 -411.1111 Z"></path><path fill="#000000" stroke-width="0" d="M 11.1111 -344.44440000000003 L 11.1111 -322.2222 L -11.1111 -322.2222 L -11.1111 -344.44440000000003 Z"></path><path fill="#000000" stroke-width="0" d="M -55.555600000000005 -411.1111 L -55.555600000000005 -388.8889 L -77.77780000000001 -388.8889 L -77.77780000000001 -411.1111 Z"></path><path fill="#000000" stroke-width="0" d="M -188.8889 -677.7778 L -188.8889 -655.5556 L -211.1111 -655.5556 L -211.1111 -677.7778 Z"></path><path fill="#000000" stroke-width="0" d="M -122.22220000000002 -611.1111 L -122.22220000000002 -588.8889 L -144.4444 -588.8889 L -144.4444 -611.1111 Z"></path><path fill="#000000" stroke-width="0" d="M -188.8889 -544.4444 L -188.8889 -522.2222 L -211.1111 -522.2222 L -211.1111 -544.4444 Z"></path><path fill="#000000" stroke-width="0" d="M -255.5556 -611.1111 L -255.5556 -588.8889 L -277.7778 -588.8889 L -277.7778 -611.1111 Z"></path><path fill="#000000" stroke-width="0" d="M 611.1111 -277.7778 L 611.1111 -255.5556 L 588.8889 -255.5556 L 588.8889 -277.7778 Z"></path><path fill="#000000" stroke-width="0" d="M 677.7778 -211.1111 L 677.7778 -188.8889 L 655.5556 -188.8889 L 655.5556 -211.1111 Z"></path><path fill="#000000" stroke-width="0" d="M 611.1111 -144.4444 L 611.1111 -122.22220000000002 L 588.8889 -122.22220000000002 L 588.8889 -144.4444 Z"></path><path fill="#000000" stroke-width="0" d="M 544.4444 -211.1111 L 544.4444 -188.8889 L 522.2222 -188.8889 L 522.2222 -211.1111 Z"></path><path fill="#000000" stroke-width="0" d="M 811.1111 -77.77780000000001 L 811.1111 -55.555600000000005 L 788.8889 -55.555600000000005 L 788.8889 -77.77780000000001 Z"></path><path fill="#000000" stroke-width="0" d="M 877.7778 -11.1111 L 877.7778 11.1111 L 855.5556 11.1111 L 855.5556 -11.1111 Z"></path><path fill="#000000" stroke-width="0" d="M 811.1111 55.555600000000005 L 811.1111 77.77780000000001 L 788.8889 77.77780000000001 L 788.8889 55.555600000000005 Z"></path><path fill="#000000" stroke-width="0" d="M 744.4444 -11.1111 L 744.4444 11.1111 L 722.2222 11.1111 L 722.2222 -11.1111 Z"></path><path fill="#000000" stroke-width="0" d="M 611.1111 122.22220000000002 L 611.1111 144.4444 L 588.8889 144.4444 L 588.8889 122.22220000000002 Z"></path><path fill="#000000" stroke-width="0" d="M 677.7778 188.8889 L 677.7778 211.1111 L 655.5556 211.1111 L 655.5556 188.8889 Z"></path><path fill="#000000" stroke-width="0" d="M 611.1111 255.5556 L 611.1111 277.7778 L 588.8889 277.7778 L 588.8889 255.5556 Z"></path><path fill="#000000" stroke-width="0" d="M 544.4444 188.8889 L 544.4444 211.1111 L 522.2222 211.1111 L 522.2222 188.8889 Z"></path><path fill="#000000" stroke-width="0" d="M 411.1111 -77.77780000000001 L 411.1111 -55.555600000000005 L 388.8889 -55.555600000000005 L 388.8889 -77.77780000000001 Z"></path><path fill="#000000" stroke-width="0" d="M 477.7778 -11.1111 L 477.7778 11.1111 L 455.55559999999997 11.1111 L 455.55559999999997 -11.1111 Z"></path><path fill="#000000" stroke-width="0" d="M 411.1111 55.555600000000005 L 411.1111 77.77780000000001 L 388.8889 77.77780000000001 L 388.8889 55.555600000000005 Z"></path><path fill="#000000" stroke-width="0" d="M 344.44440000000003 -11.1111 L 344.44440000000003 11.1111 L 322.2222 11.1111 L 322.2222 -11.1111 Z"></path><path fill="#000000" stroke-width="0" d="M 11.1111 322.2222 L 11.1111 344.44440000000003 L -11.1111 344.44440000000003 L -11.1111 322.2222 Z"></path><path fill="#000000" stroke-width="0" d="M 77.77780000000001 388.8889 L 77.77780000000001 411.1111 L 55.555600000000005 411.1111 L 55.555600000000005 388.8889 Z"></path><path fill="#000000" stroke-width="0" d="M 11.1111 455.55559999999997 L 11.1111 477.7778 L -11.1111 477.7778 L -11.1111 455.55559999999997 Z"></path><path fill="#000000" stroke-width="0" d="M -55.555600000000005 388.8889 L -55.555600000000005 411.1111 L -77.77780000000001 411.1111 L -77.77780000000001 388.8889 Z"></path><path fill="#000000" stroke-width="0" d="M 211.1111 522.2222 L 211.1111 544.4444 L 188.8889 544.4444 L 188.8889 522.2222 Z"></path><path fill="#000000" stroke-width="0" d="M 277.7778 588.8889 L 277.7778 611.1111 L 255.5556 611.1111 L 255.5556 588.8889 Z"></path><path fill="#000000" stroke-width="0" d="M 211.1111 655.5556 L 211.1111 677.7778 L 188.8889 677.7778 L 188.8889 655.5556 Z"></path><path fill="#000000" stroke-width="0" d="M 144.4444 588.8889 L 144.4444 611.1111 L 122.22220000000002 611.1111 L 122.22220000000002 588.8889 Z"></path><path fill="#000000" stroke-width="0" d="M 11.1111 722.2222 L 11.1111 744.4444 L -11.1111 744.4444 L -11.1111 722.2222 Z"></path><path fill="#000000" stroke-width="0" d="M 77.77780000000001 788.8889 L 77.77780000000001 811.1111 L 55.555600000000005 811.1111 L 55.555600000000005 788.8889 Z"></path><path fill="#000000" stroke-width="0" d="M 11.1111 855.5556 L 11.1111 877.7778 L -11.1111 877.7778 L -11.1111 855.5556 Z"></path><path fill="#000000" stroke-width="0" d="M -55.555600000000005 788.8889 L -55.555600000000005 811.1111 L -77.77780000000001 811.1111 L -77.77780000000001 788.8889 Z"></path><path fill="#000000" stroke-width="0" d="M -188.8889 522.2222 L -188.8889 544.4444 L -211.1111 544.4444 L -211.1111 522.2222 Z"></path><path fill="#000000" stroke-width="0" d="M -122.22220000000002 588.8889 L -122.22220000000002 611.1111 L -144.4444 611.1111 L -144.4444 588.8889 Z"></path><path fill="#000000" stroke-width="0" d="M -188.8889 655.5556 L -188.8889 677.7778 L -211.1111 677.7778 L -211.1111 655.5556 Z"></path><path fill="#000000" stroke-width="0" d="M -255.5556 588.8889 L -255.5556 611.1111 L -277.7778 611.1111 L -277.7778 588.8889 Z"></path><path fill="#000000" stroke-width="0" d="M -588.8889 -277.7778 L -588.8889 -255.5556 L -611.1111 -255.5556 L -611.1111 -277.7778 Z"></path><path fill="#000000" stroke-width="0" d="M -522.2222 -211.1111 L -522.2222 -188.8889 L -544.4444 -188.8889 L -544.4444 -211.1111 Z"></path><path fill="#000000" stroke-width="0" d="M -588.8889 -144.4444 L -588.8889 -122.22220000000002 L -611.1111 -122.22220000000002 L -611.1111 -144.4444 Z"></path><path fill="#000000" stroke-width="0" d="M -655.5556 -211.1111 L -655.5556 -188.8889 L -677.7778 -188.8889 L -677.7778 -211.1111 Z"></path><path fill="#000000" stroke-width="0" d="M -388.8889 -77.77780000000001 L -388.8889 -55.555600000000005 L -411.1111 -55.555600000000005 L -411.1111 -77.77780000000001 Z"></path><path fill="#000000" stroke-width="0" d="M -322.2222 -11.1111 L -322.2222 11.1111 L -344.44440000000003 11.1111 L -344.44440000000003 -11.1111 Z"></path><path fill="#000000" stroke-width="0" d="M -388.8889 55.555600000000005 L -388.8889 77.77780000000001 L -411.1111 77.77780000000001 L -411.1111 55.555600000000005 Z"></path><path fill="#000000" stroke-width="0" d="M -455.55559999999997 -11.1111 L -455.55559999999997 11.1111 L -477.7778 11.1111 L -477.7778 -11.1111 Z"></path><path fill="#000000" stroke-width="0" d="M -588.8889 122.22220000000002 L -588.8889 144.4444 L -611.1111 144.4444 L -611.1111 122.22220000000002 Z"></path><path fill="#000000" stroke-width="0" d="M -522.2222 188.8889 L -522.2222 211.1111 L -544.4444 211.1111 L -544.4444 188.8889 Z"></path><path fill="#000000" stroke-width="0" d="M -588.8889 255.5556 L -588.8889 277.7778 L -611.1111 277.7778 L -611.1111 255.5556 Z"></path><path fill="#000000" stroke-width="0" d="M -655.5556 188.8889 L -655.5556 211.1111 L -677.7778 211.1111 L -677.7778 188.8889 Z"></path><path fill="#000000" stroke-width="0" d="M -788.8889 -77.77780000000001 L -788.8889 -55.555600000000005 L -811.1111 -55.555600000000005 L -811.1111 -77.77780000000001 Z"></path><path fill="#000000" stroke-width="0" d="M -722.2222 -11.1111 L -722.2222 11.1111 L -744.4444 11.1111 L -744.4444 -11.1111 Z"></path><path fill="#000000" stroke-width="0" d="M -788.8889 55.555600000000005 L -788.8889 77.77780000000001 L -811.1111 77.77780000000001 L -811.1111 55.555600000000005 Z"></path><path fill="#000000" stroke-width="0" d="M -855.5556 -11.1111 L -855.5556 11.1111 L -877.7778 11.1111 L -877.7778 -11.1111 Z"></path><path fill="#000000" stroke-width="0" d="M 11.1111 -77.77780000000001 L 11.1111 -55.555600000000005 L -11.1111 -55.555600000000005 L -11.1111 -77.77780000000001 Z"></path><path fill="#000000" stroke-width="0" d="M 77.77780000000001 -11.1111 L 77.77780000000001 11.1111 L 55.555600000000005 11.1111 L 55.555600000000005 -11.1111 Z"></path><path fill="#000000" stroke-width="0" d="M 11.1111 55.555600000000005 L 11.1111 77.77780000000001 L -11.1111 77.77780000000001 L -11.1111 55.555600000000005 Z"></path><path fill="#000000" stroke-width="0" d="M -55.555600000000005 -11.1111 L -55.555600000000005 11.1111 L -77.77780000000001 11.1111 L -77.77780000000001 -11.1111 Z"></path><path fill="#000000" stroke-width="0" d="M 11.1111 -611.1111 L 11.1111 -588.8889 L -11.1111 -588.8889 L -11.1111 -611.1111 Z"></path><path fill="#000000" stroke-width="0" d="M 611.1111 -11.1111 L 611.1111 11.1111 L 588.8889 11.1111 L 588.8889 -11.1111 Z"></path><path fill="#000000" stroke-width="0" d="M 11.1111 588.8889 L 11.1111 611.1111 L -11.1111 611.1111 L -11.1111 588.8889 Z"></path><path fill="#000000" stroke-width="0" d="M -588.8889 -11.1111 L -588.8889 11.1111 L -611.1111 11.1111 L -611.1111 -11.1111 Z"></path><path fill="#000000" stroke-width="0" d="M 11.1111 188.8889 L 11.1111 211.1111 L -11.1111 211.1111 L -11.1111 188.8889 Z"></path><path fill="#000000" stroke-width="0" d="M -188.8889 -11.1111 L -188.8889 11.1111 L -211.1111 11.1111 L -211.1111 -11.1111 Z"></path><path fill="#000000" stroke-width="0" d="M 11.1111 -211.1111 L 11.1111 -188.8889 L -11.1111 -188.8889 L -11.1111 -211.1111 Z"></path><path fill="#000000" stroke-width="0" d="M 211.1111 -11.1111 L 211.1111 11.1111 L 188.8889 11.1111 L 188.8889 -11.1111 Z"></path><path fill="#000000" stroke-width="0" d="M 11.1111 -788.8888999999999 L 11.1111 -766.6667 L -11.1111 -766.6667 L -11.1111 -788.8888999999999 Z"></path><path fill="#000000" stroke-width="0" d="M -11.1111 -811.1111 L -11.1111 -788.8889 L -33.3333 -788.8889 L -33.3333 -811.1111 Z"></path><path fill="#000000" stroke-width="0" d="M 11.1111 -833.3333 L 11.1111 -811.1111000000001 L -11.1111 -811.1111000000001 L -11.1111 -833.3333 Z"></path><path fill="#000000" stroke-width="0" d="M 33.3333 -811.1111 L 33.3333 -788.8889 L 11.1111 -788.8889 L 11.1111 -811.1111 Z"></path><path fill="#000000" stroke-width="0" d="M 211.1111 -588.8888999999999 L 211.1111 -566.6667 L 188.8889 -566.6667 L 188.8889 -588.8888999999999 Z"></path><path fill="#000000" stroke-width="0" d="M 188.8889 -611.1111 L 188.8889 -588.8889 L 166.66670000000002 -588.8889 L 166.66670000000002 -611.1111 Z"></path><path fill="#000000" stroke-width="0" d="M 211.1111 -633.3333 L 211.1111 -611.1111000000001 L 188.8889 -611.1111000000001 L 188.8889 -633.3333 Z"></path><path fill="#000000" stroke-width="0" d="M 233.33329999999998 -611.1111 L 233.33329999999998 -588.8889 L 211.1111 -588.8889 L 211.1111 -611.1111 Z"></path><path fill="#000000" stroke-width="0" d="M 11.1111 -388.88890000000004 L 11.1111 -366.6667 L -11.1111 -366.6667 L -11.1111 -388.88890000000004 Z"></path><path fill="#000000" stroke-width="0" d="M -11.1111 -411.1111 L -11.1111 -388.8889 L -33.3333 -388.8889 L -33.3333 -411.1111 Z"></path><path fill="#000000" stroke-width="0" d="M 11.1111 -433.3333 L 11.1111 -411.11109999999996 L -11.1111 -411.11109999999996 L -11.1111 -433.3333 Z"></path><path fill="#000000" stroke-width="0" d="M 33.3333 -411.1111 L 33.3333 -388.8889 L 11.1111 -388.8889 L 11.1111 -411.1111 Z"></path><path fill="#000000" stroke-width="0" d="M -188.8889 -588.8888999999999 L -188.8889 -566.6667 L -211.1111 -566.6667 L -211.1111 -588.8888999999999 Z"></path><path fill="#000000" stroke-width="0" d="M -211.1111 -611.1111 L -211.1111 -588.8889 L -233.33329999999998 -588.8889 L -233.33329999999998 -611.1111 Z"></path><path fill="#000000" stroke-width="0" d="M -188.8889 -633.3333 L -188.8889 -611.1111000000001 L -211.1111 -611.1111000000001 L -211.1111 -633.3333 Z"></path><path fill="#000000" stroke-width="0" d="M -166.66670000000002 -611.1111 L -166.66670000000002 -588.8889 L -188.8889 -588.8889 L -188.8889 -611.1111 Z"></path><path fill="#000000" stroke-width="0" d="M 611.1111 -188.8889 L 611.1111 -166.66670000000002 L 588.8889 -166.66670000000002 L 588.8889 -188.8889 Z"></path><path fill="#000000" stroke-width="0" d="M 588.8888999999999 -211.1111 L 588.8888999999999 -188.8889 L 566.6667 -188.8889 L 566.6667 -211.1111 Z"></path><path fill="#000000" stroke-width="0" d="M 611.1111 -233.33329999999998 L 611.1111 -211.1111 L 588.8889 -211.1111 L 588.8889 -233.33329999999998 Z"></path><path fill="#000000" stroke-width="0" d="M 633.3333 -211.1111 L 633.3333 -188.8889 L 611.1111000000001 -188.8889 L 611.1111000000001 -211.1111 Z"></path><path fill="#000000" stroke-width="0" d="M 811.1111 11.1111 L 811.1111 33.3333 L 788.8889 33.3333 L 788.8889 11.1111 Z"></path><path fill="#000000" stroke-width="0" d="M 788.8888999999999 -11.1111 L 788.8888999999999 11.1111 L 766.6667 11.1111 L 766.6667 -11.1111 Z"></path><path fill="#000000" stroke-width="0" d="M 811.1111 -33.3333 L 811.1111 -11.1111 L 788.8889 -11.1111 L 788.8889 -33.3333 Z"></path><path fill="#000000" stroke-width="0" d="M 833.3333 -11.1111 L 833.3333 11.1111 L 811.1111000000001 11.1111 L 811.1111000000001 -11.1111 Z"></path><path fill="#000000" stroke-width="0" d="M 611.1111 211.1111 L 611.1111 233.33329999999998 L 588.8889 233.33329999999998 L 588.8889 211.1111 Z"></path><path fill="#000000" stroke-width="0" d="M 588.8888999999999 188.8889 L 588.8888999999999 211.1111 L 566.6667 211.1111 L 566.6667 188.8889 Z"></path><path fill="#000000" stroke-width="0" d="M 611.1111 166.66670000000002 L 611.1111 188.8889 L 588.8889 188.8889 L 588.8889 166.66670000000002 Z"></path><path fill="#000000" stroke-width="0" d="M 633.3333 188.8889 L 633.3333 211.1111 L 611.1111000000001 211.1111 L 611.1111000000001 188.8889 Z"></path><path fill="#000000" stroke-width="0" d="M 411.1111 11.1111 L 411.1111 33.3333 L 388.8889 33.3333 L 388.8889 11.1111 Z"></path><path fill="#000000" stroke-width="0" d="M 388.88890000000004 -11.1111 L 388.88890000000004 11.1111 L 366.6667 11.1111 L 366.6667 -11.1111 Z"></path><path fill="#000000" stroke-width="0" d="M 411.1111 -33.3333 L 411.1111 -11.1111 L 388.8889 -11.1111 L 388.8889 -33.3333 Z"></path><path fill="#000000" stroke-width="0" d="M 433.3333 -11.1111 L 433.3333 11.1111 L 411.11109999999996 11.1111 L 411.11109999999996 -11.1111 Z"></path><path fill="#000000" stroke-width="0" d="M 11.1111 411.11109999999996 L 11.1111 433.3333 L -11.1111 433.3333 L -11.1111 411.11109999999996 Z"></path><path fill="#000000" stroke-width="0" d="M -11.1111 388.8889 L -11.1111 411.1111 L -33.3333 411.1111 L -33.3333 388.8889 Z"></path><path fill="#000000" stroke-width="0" d="M 11.1111 366.6667 L 11.1111 388.88890000000004 L -11.1111 388.88890000000004 L -11.1111 366.6667 Z"></path><path fill="#000000" stroke-width="0" d="M 33.3333 388.8889 L 33.3333 411.1111 L 11.1111 411.1111 L 11.1111 388.8889 Z"></path><path fill="#000000" stroke-width="0" d="M 211.1111 611.1111000000001 L 211.1111 633.3333 L 188.8889 633.3333 L 188.8889 611.1111000000001 Z"></path><path fill="#000000" stroke-width="0" d="M 188.8889 588.8889 L 188.8889 611.1111 L 166.66670000000002 611.1111 L 166.66670000000002 588.8889 Z"></path><path fill="#000000" stroke-width="0" d="M 211.1111 566.6667 L 211.1111 588.8888999999999 L 188.8889 588.8888999999999 L 188.8889 566.6667 Z"></path><path fill="#000000" stroke-width="0" d="M 233.33329999999998 588.8889 L 233.33329999999998 611.1111 L 211.1111 611.1111 L 211.1111 588.8889 Z"></path><path fill="#000000" stroke-width="0" d="M 11.1111 811.1111000000001 L 11.1111 833.3333 L -11.1111 833.3333 L -11.1111 811.1111000000001 Z"></path><path fill="#000000" stroke-width="0" d="M -11.1111 788.8889 L -11.1111 811.1111 L -33.3333 811.1111 L -33.3333 788.8889 Z"></path><path fill="#000000" stroke-width="0" d="M 11.1111 766.6667 L 11.1111 788.8888999999999 L -11.1111 788.8888999999999 L -11.1111 766.6667 Z"></path><path fill="#000000" stroke-width="0" d="M 33.3333 788.8889 L 33.3333 811.1111 L 11.1111 811.1111 L 11.1111 788.8889 Z"></path><path fill="#000000" stroke-width="0" d="M -188.8889 611.1111000000001 L -188.8889 633.3333 L -211.1111 633.3333 L -211.1111 611.1111000000001 Z"></path><path fill="#000000" stroke-width="0" d="M -211.1111 588.8889 L -211.1111 611.1111 L -233.33329999999998 611.1111 L -233.33329999999998 588.8889 Z"></path><path fill="#000000" stroke-width="0" d="M -188.8889 566.6667 L -188.8889 588.8888999999999 L -211.1111 588.8888999999999 L -211.1111 566.6667 Z"></path><path fill="#000000" stroke-width="0" d="M -166.66670000000002 588.8889 L -166.66670000000002 611.1111 L -188.8889 611.1111 L -188.8889 588.8889 Z"></path><path fill="#000000" stroke-width="0" d="M -588.8889 -188.8889 L -588.8889 -166.66670000000002 L -611.1111 -166.66670000000002 L -611.1111 -188.8889 Z"></path><path fill="#000000" stroke-width="0" d="M -611.1111000000001 -211.1111 L -611.1111000000001 -188.8889 L -633.3333 -188.8889 L -633.3333 -211.1111 Z"></path><path fill="#000000" stroke-width="0" d="M -588.8889 -233.33329999999998 L -588.8889 -211.1111 L -611.1111 -211.1111 L -611.1111 -233.33329999999998 Z"></path><path fill="#000000" stroke-width="0" d="M -566.6667 -211.1111 L -566.6667 -188.8889 L -588.8888999999999 -188.8889 L -588.8888999999999 -211.1111 Z"></path><path fill="#000000" stroke-width="0" d="M -388.8889 11.1111 L -388.8889 33.3333 L -411.1111 33.3333 L -411.1111 11.1111 Z"></path><path fill="#000000" stroke-width="0" d="M -411.11109999999996 -11.1111 L -411.11109999999996 11.1111 L -433.3333 11.1111 L -433.3333 -11.1111 Z"></path><path fill="#000000" stroke-width="0" d="M -388.8889 -33.3333 L -388.8889 -11.1111 L -411.1111 -11.1111 L -411.1111 -33.3333 Z"></path><path fill="#000000" stroke-width="0" d="M -366.6667 -11.1111 L -366.6667 11.1111 L -388.88890000000004 11.1111 L -388.88890000000004 -11.1111 Z"></path><path fill="#000000" stroke-width="0" d="M -588.8889 211.1111 L -588.8889 233.33329999999998 L -611.1111 233.33329999999998 L -611.1111 211.1111 Z"></path><path fill="#000000" stroke-width="0" d="M -611.1111000000001 188.8889 L -611.1111000000001 211.1111 L -633.3333 211.1111 L -633.3333 188.8889 Z"></path><path fill="#000000" stroke-width="0" d="M -588.8889 166.66670000000002 L -588.8889 188.8889 L -611.1111 188.8889 L -611.1111 166.66670000000002 Z"></path><path fill="#000000" stroke-width="0" d="M -566.6667 188.8889 L -566.6667 211.1111 L -588.8888999999999 211.1111 L -588.8888999999999 188.8889 Z"></path><path fill="#000000" stroke-width="0" d="M -788.8889 11.1111 L -788.8889 33.3333 L -811.1111 33.3333 L -811.1111 11.1111 Z"></path><path fill="#000000" stroke-width="0" d="M -811.1111000000001 -11.1111 L -811.1111000000001 11.1111 L -833.3333 11.1111 L -833.3333 -11.1111 Z"></path><path fill="#000000" stroke-width="0" d="M -788.8889 -33.3333 L -788.8889 -11.1111 L -811.1111 -11.1111 L -811.1111 -33.3333 Z"></path><path fill="#000000" stroke-width="0" d="M -766.6667 -11.1111 L -766.6667 11.1111 L -788.8888999999999 11.1111 L -788.8888999999999 -11.1111 Z"></path><path fill="#000000" stroke-width="0" d="M 11.1111 11.1111 L 11.1111 33.3333 L -11.1111 33.3333 L -11.1111 11.1111 Z"></path><path fill="#000000" stroke-width="0" d="M -11.1111 -11.1111 L -11.1111 11.1111 L -33.3333 11.1111 L -33.3333 -11.1111 Z"></path><path fill="#000000" stroke-width="0" d="M 11.1111 -33.3333 L 11.1111 -11.1111 L -11.1111 -11.1111 L -11.1111 -33.3333 Z"></path><path fill="#000000" stroke-width="0" d="M 33.3333 -11.1111 L 33.3333 11.1111 L 11.1111 11.1111 L 11.1111 -11.1111 Z"></path><path fill="#000000" stroke-width="0" d="M 11.1111 -522.2222 L 11.1111 -500 L -11.1111 -500 L -11.1111 -522.2222 Z"></path><path fill="#000000" stroke-width="0" d="M -11.1111 -544.4444 L -11.1111 -522.2222 L -33.3333 -522.2222 L -33.3333 -544.4444 Z"></path><path fill="#000000" stroke-width="0" d="M 11.1111 -566.6666 L 11.1111 -544.4444000000001 L -11.1111 -544.4444000000001 L -11.1111 -566.6666 Z"></path><path fill="#000000" stroke-width="0" d="M 33.3333 -544.4444 L 33.3333 -522.2222 L 11.1111 -522.2222 L 11.1111 -544.4444 Z"></path><path fill="#000000" stroke-width="0" d="M -55.555600000000005 -588.8888999999999 L -55.555600000000005 -566.6667 L -77.77780000000001 -566.6667 L -77.77780000000001 -588.8888999999999 Z"></path><path fill="#000000" stroke-width="0" d="M -77.77780000000001 -611.1111 L -77.77780000000001 -588.8889 L -100 -588.8889 L -100 -611.1111 Z"></path><path fill="#000000" stroke-width="0" d="M -55.555600000000005 -633.3333 L -55.555600000000005 -611.1111000000001 L -77.77780000000001 -611.1111000000001 L -77.77780000000001 -633.3333 Z"></path><path fill="#000000" stroke-width="0" d="M -33.333400000000005 -611.1111 L -33.333400000000005 -588.8889 L -55.555600000000005 -588.8889 L -55.555600000000005 -611.1111 Z"></path><path fill="#000000" stroke-width="0" d="M 11.1111 -655.5555999999999 L 11.1111 -633.3334 L -11.1111 -633.3334 L -11.1111 -655.5555999999999 Z"></path><path fill="#000000" stroke-width="0" d="M -11.1111 -677.7778 L -11.1111 -655.5556 L -33.3333 -655.5556 L -33.3333 -677.7778 Z"></path><path fill="#000000" stroke-width="0" d="M 11.1111 -700 L 11.1111 -677.7778000000001 L -11.1111 -677.7778000000001 L -11.1111 -700 Z"></path><path fill="#000000" stroke-width="0" d="M 33.3333 -677.7778 L 33.3333 -655.5556 L 11.1111 -655.5556 L 11.1111 -677.7778 Z"></path><path fill="#000000" stroke-width="0" d="M 77.77780000000001 -588.8888999999999 L 77.77780000000001 -566.6667 L 55.555600000000005 -566.6667 L 55.555600000000005 -588.8888999999999 Z"></path><path fill="#000000" stroke-width="0" d="M 55.555600000000005 -611.1111 L 55.555600000000005 -588.8889 L 33.333400000000005 -588.8889 L 33.333400000000005 -611.1111 Z"></path><path fill="#000000" stroke-width="0" d="M 77.77780000000001 -633.3333 L 77.77780000000001 -611.1111000000001 L 55.555600000000005 -611.1111000000001 L 55.555600000000005 -633.3333 Z"></path><path fill="#000000" stroke-width="0" d="M 100 -611.1111 L 100 -588.8889 L 77.77780000000001 -588.8889 L 77.77780000000001 -611.1111 Z"></path><path fill="#000000" stroke-width="0" d="M 611.1111 77.77780000000001 L 611.1111 100 L 588.8889 100 L 588.8889 77.77780000000001 Z"></path><path fill="#000000" stroke-width="0" d="M 588.8888999999999 55.555600000000005 L 588.8888999999999 77.77780000000001 L 566.6667 77.77780000000001 L 566.6667 55.555600000000005 Z"></path><path fill="#000000" stroke-width="0" d="M 611.1111 33.333400000000005 L 611.1111 55.555600000000005 L 588.8889 55.555600000000005 L 588.8889 33.333400000000005 Z"></path><path fill="#000000" stroke-width="0" d="M 633.3333 55.555600000000005 L 633.3333 77.77780000000001 L 611.1111000000001 77.77780000000001 L 611.1111000000001 55.555600000000005 Z"></path><path fill="#000000" stroke-width="0" d="M 544.4444 11.1111 L 544.4444 33.3333 L 522.2222 33.3333 L 522.2222 11.1111 Z"></path><path fill="#000000" stroke-width="0" d="M 522.2222 -11.1111 L 522.2222 11.1111 L 500 11.1111 L 500 -11.1111 Z"></path><path fill="#000000" stroke-width="0" d="M 544.4444 -33.3333 L 544.4444 -11.1111 L 522.2222 -11.1111 L 522.2222 -33.3333 Z"></path><path fill="#000000" stroke-width="0" d="M 566.6666 -11.1111 L 566.6666 11.1111 L 544.4444000000001 11.1111 L 544.4444000000001 -11.1111 Z"></path><path fill="#000000" stroke-width="0" d="M 611.1111 -55.555600000000005 L 611.1111 -33.333400000000005 L 588.8889 -33.333400000000005 L 588.8889 -55.555600000000005 Z"></path><path fill="#000000" stroke-width="0" d="M 588.8888999999999 -77.77780000000001 L 588.8888999999999 -55.555600000000005 L 566.6667 -55.555600000000005 L 566.6667 -77.77780000000001 Z"></path><path fill="#000000" stroke-width="0" d="M 611.1111 -100 L 611.1111 -77.77780000000001 L 588.8889 -77.77780000000001 L 588.8889 -100 Z"></path><path fill="#000000" stroke-width="0" d="M 633.3333 -77.77780000000001 L 633.3333 -55.555600000000005 L 611.1111000000001 -55.555600000000005 L 611.1111000000001 -77.77780000000001 Z"></path><path fill="#000000" stroke-width="0" d="M 677.7778 11.1111 L 677.7778 33.3333 L 655.5556 33.3333 L 655.5556 11.1111 Z"></path><path fill="#000000" stroke-width="0" d="M 655.5555999999999 -11.1111 L 655.5555999999999 11.1111 L 633.3334 11.1111 L 633.3334 -11.1111 Z"></path><path fill="#000000" stroke-width="0" d="M 677.7778 -33.3333 L 677.7778 -11.1111 L 655.5556 -11.1111 L 655.5556 -33.3333 Z"></path><path fill="#000000" stroke-width="0" d="M 700 -11.1111 L 700 11.1111 L 677.7778000000001 11.1111 L 677.7778000000001 -11.1111 Z"></path><path fill="#000000" stroke-width="0" d="M 11.1111 677.7778000000001 L 11.1111 700 L -11.1111 700 L -11.1111 677.7778000000001 Z"></path><path fill="#000000" stroke-width="0" d="M -11.1111 655.5556 L -11.1111 677.7778 L -33.3333 677.7778 L -33.3333 655.5556 Z"></path><path fill="#000000" stroke-width="0" d="M 11.1111 633.3334 L 11.1111 655.5555999999999 L -11.1111 655.5555999999999 L -11.1111 633.3334 Z"></path><path fill="#000000" stroke-width="0" d="M 33.3333 655.5556 L 33.3333 677.7778 L 11.1111 677.7778 L 11.1111 655.5556 Z"></path><path fill="#000000" stroke-width="0" d="M -55.555600000000005 611.1111000000001 L -55.555600000000005 633.3333 L -77.77780000000001 633.3333 L -77.77780000000001 611.1111000000001 Z"></path><path fill="#000000" stroke-width="0" d="M -77.77780000000001 588.8889 L -77.77780000000001 611.1111 L -100 611.1111 L -100 588.8889 Z"></path><path fill="#000000" stroke-width="0" d="M -55.555600000000005 566.6667 L -55.555600000000005 588.8888999999999 L -77.77780000000001 588.8888999999999 L -77.77780000000001 566.6667 Z"></path><path fill="#000000" stroke-width="0" d="M -33.333400000000005 588.8889 L -33.333400000000005 611.1111 L -55.555600000000005 611.1111 L -55.555600000000005 588.8889 Z"></path><path fill="#000000" stroke-width="0" d="M 11.1111 544.4444000000001 L 11.1111 566.6666 L -11.1111 566.6666 L -11.1111 544.4444000000001 Z"></path><path fill="#000000" stroke-width="0" d="M -11.1111 522.2222 L -11.1111 544.4444 L -33.3333 544.4444 L -33.3333 522.2222 Z"></path><path fill="#000000" stroke-width="0" d="M 11.1111 500 L 11.1111 522.2222 L -11.1111 522.2222 L -11.1111 500 Z"></path><path fill="#000000" stroke-width="0" d="M 33.3333 522.2222 L 33.3333 544.4444 L 11.1111 544.4444 L 11.1111 522.2222 Z"></path><path fill="#000000" stroke-width="0" d="M 77.77780000000001 611.1111000000001 L 77.77780000000001 633.3333 L 55.555600000000005 633.3333 L 55.555600000000005 611.1111000000001 Z"></path><path fill="#000000" stroke-width="0" d="M 55.555600000000005 588.8889 L 55.555600000000005 611.1111 L 33.333400000000005 611.1111 L 33.333400000000005 588.8889 Z"></path><path fill="#000000" stroke-width="0" d="M 77.77780000000001 566.6667 L 77.77780000000001 588.8888999999999 L 55.555600000000005 588.8888999999999 L 55.555600000000005 566.6667 Z"></path><path fill="#000000" stroke-width="0" d="M 100 588.8889 L 100 611.1111 L 77.77780000000001 611.1111 L 77.77780000000001 588.8889 Z"></path><path fill="#000000" stroke-width="0" d="M -588.8889 77.77780000000001 L -588.8889 100 L -611.1111 100 L -611.1111 77.77780000000001 Z"></path><path fill="#000000" stroke-width="0" d="M -611.1111000000001 55.555600000000005 L -611.1111000000001 77.77780000000001 L -633.3333 77.77780000000001 L -633.3333 55.555600000000005 Z"></path><path fill="#000000" stroke-width="0" d="M -588.8889 33.333400000000005 L -588.8889 55.555600000000005 L -611.1111 55.555600000000005 L -611.1111 33.333400000000005 Z"></path><path fill="#000000" stroke-width="0" d="M -566.6667 55.555600000000005 L -566.6667 77.77780000000001 L -588.8888999999999 77.77780000000001 L -588.8888999999999 55.555600000000005 Z"></path><path fill="#000000" stroke-width="0" d="M -655.5556 11.1111 L -655.5556 33.3333 L -677.7778 33.3333 L -677.7778 11.1111 Z"></path><path fill="#000000" stroke-width="0" d="M -677.7778000000001 -11.1111 L -677.7778000000001 11.1111 L -700 11.1111 L -700 -11.1111 Z"></path><path fill="#000000" stroke-width="0" d="M -655.5556 -33.3333 L -655.5556 -11.1111 L -677.7778 -11.1111 L -677.7778 -33.3333 Z"></path><path fill="#000000" stroke-width="0" d="M -633.3334 -11.1111 L -633.3334 11.1111 L -655.5555999999999 11.1111 L -655.5555999999999 -11.1111 Z"></path><path fill="#000000" stroke-width="0" d="M -588.8889 -55.555600000000005 L -588.8889 -33.333400000000005 L -611.1111 -33.333400000000005 L -611.1111 -55.555600000000005 Z"></path><path fill="#000000" stroke-width="0" d="M -611.1111000000001 -77.77780000000001 L -611.1111000000001 -55.555600000000005 L -633.3333 -55.555600000000005 L -633.3333 -77.77780000000001 Z"></path><path fill="#000000" stroke-width="0" d="M -588.8889 -100 L -588.8889 -77.77780000000001 L -611.1111 -77.77780000000001 L -611.1111 -100 Z"></path><path fill="#000000" stroke-width="0" d="M -566.6667 -77.77780000000001 L -566.6667 -55.555600000000005 L -588.8888999999999 -55.555600000000005 L -588.8888999999999 -77.77780000000001 Z"></path><path fill="#000000" stroke-width="0" d="M -522.2222 11.1111 L -522.2222 33.3333 L -544.4444 33.3333 L -544.4444 11.1111 Z"></path><path fill="#000000" stroke-width="0" d="M -544.4444000000001 -11.1111 L -544.4444000000001 11.1111 L -566.6666 11.1111 L -566.6666 -11.1111 Z"></path><path fill="#000000" stroke-width="0" d="M -522.2222 -33.3333 L -522.2222 -11.1111 L -544.4444 -11.1111 L -544.4444 -33.3333 Z"></path><path fill="#000000" stroke-width="0" d="M -500 -11.1111 L -500 11.1111 L -522.2222 11.1111 L -522.2222 -11.1111 Z"></path><path fill="#000000" stroke-width="0" d="M 11.1111 277.77779999999996 L 11.1111 300 L -11.1111 300 L -11.1111 277.77779999999996 Z"></path><path fill="#000000" stroke-width="0" d="M -11.1111 255.5556 L -11.1111 277.7778 L -33.3333 277.7778 L -33.3333 255.5556 Z"></path><path fill="#000000" stroke-width="0" d="M 11.1111 233.3334 L 11.1111 255.5556 L -11.1111 255.5556 L -11.1111 233.3334 Z"></path><path fill="#000000" stroke-width="0" d="M 33.3333 255.5556 L 33.3333 277.7778 L 11.1111 277.7778 L 11.1111 255.5556 Z"></path><path fill="#000000" stroke-width="0" d="M -55.555600000000005 211.1111 L -55.555600000000005 233.33329999999998 L -77.77780000000001 233.33329999999998 L -77.77780000000001 211.1111 Z"></path><path fill="#000000" stroke-width="0" d="M -77.77780000000001 188.8889 L -77.77780000000001 211.1111 L -100 211.1111 L -100 188.8889 Z"></path><path fill="#000000" stroke-width="0" d="M -55.555600000000005 166.66670000000002 L -55.555600000000005 188.8889 L -77.77780000000001 188.8889 L -77.77780000000001 166.66670000000002 Z"></path><path fill="#000000" stroke-width="0" d="M -33.333400000000005 188.8889 L -33.333400000000005 211.1111 L -55.555600000000005 211.1111 L -55.555600000000005 188.8889 Z"></path><path fill="#000000" stroke-width="0" d="M 11.1111 144.4444 L 11.1111 166.6666 L -11.1111 166.6666 L -11.1111 144.4444 Z"></path><path fill="#000000" stroke-width="0" d="M -11.1111 122.22220000000002 L -11.1111 144.4444 L -33.3333 144.4444 L -33.3333 122.22220000000002 Z"></path><path fill="#000000" stroke-width="0" d="M 11.1111 100 L 11.1111 122.22220000000002 L -11.1111 122.22220000000002 L -11.1111 100 Z"></path><path fill="#000000" stroke-width="0" d="M 33.3333 122.22220000000002 L 33.3333 144.4444 L 11.1111 144.4444 L 11.1111 122.22220000000002 Z"></path><path fill="#000000" stroke-width="0" d="M 77.77780000000001 211.1111 L 77.77780000000001 233.33329999999998 L 55.555600000000005 233.33329999999998 L 55.555600000000005 211.1111 Z"></path><path fill="#000000" stroke-width="0" d="M 55.555600000000005 188.8889 L 55.555600000000005 211.1111 L 33.333400000000005 211.1111 L 33.333400000000005 188.8889 Z"></path><path fill="#000000" stroke-width="0" d="M 77.77780000000001 166.66670000000002 L 77.77780000000001 188.8889 L 55.555600000000005 188.8889 L 55.555600000000005 166.66670000000002 Z"></path><path fill="#000000" stroke-width="0" d="M 100 188.8889 L 100 211.1111 L 77.77780000000001 211.1111 L 77.77780000000001 188.8889 Z"></path><path fill="#000000" stroke-width="0" d="M -188.8889 77.77780000000001 L -188.8889 100 L -211.1111 100 L -211.1111 77.77780000000001 Z"></path><path fill="#000000" stroke-width="0" d="M -211.1111 55.555600000000005 L -211.1111 77.77780000000001 L -233.33329999999998 77.77780000000001 L -233.33329999999998 55.555600000000005 Z"></path><path fill="#000000" stroke-width="0" d="M -188.8889 33.333400000000005 L -188.8889 55.555600000000005 L -211.1111 55.555600000000005 L -211.1111 33.333400000000005 Z"></path><path fill="#000000" stroke-width="0" d="M -166.66670000000002 55.555600000000005 L -166.66670000000002 77.77780000000001 L -188.8889 77.77780000000001 L -188.8889 55.555600000000005 Z"></path><path fill="#000000" stroke-width="0" d="M -255.5556 11.1111 L -255.5556 33.3333 L -277.7778 33.3333 L -277.7778 11.1111 Z"></path><path fill="#000000" stroke-width="0" d="M -277.77779999999996 -11.1111 L -277.77779999999996 11.1111 L -300 11.1111 L -300 -11.1111 Z"></path><path fill="#000000" stroke-width="0" d="M -255.5556 -33.3333 L -255.5556 -11.1111 L -277.7778 -11.1111 L -277.7778 -33.3333 Z"></path><path fill="#000000" stroke-width="0" d="M -233.3334 -11.1111 L -233.3334 11.1111 L -255.5556 11.1111 L -255.5556 -11.1111 Z"></path><path fill="#000000" stroke-width="0" d="M -188.8889 -55.555600000000005 L -188.8889 -33.333400000000005 L -211.1111 -33.333400000000005 L -211.1111 -55.555600000000005 Z"></path><path fill="#000000" stroke-width="0" d="M -211.1111 -77.77780000000001 L -211.1111 -55.555600000000005 L -233.33329999999998 -55.555600000000005 L -233.33329999999998 -77.77780000000001 Z"></path><path fill="#000000" stroke-width="0" d="M -188.8889 -100 L -188.8889 -77.77780000000001 L -211.1111 -77.77780000000001 L -211.1111 -100 Z"></path><path fill="#000000" stroke-width="0" d="M -166.66670000000002 -77.77780000000001 L -166.66670000000002 -55.555600000000005 L -188.8889 -55.555600000000005 L -188.8889 -77.77780000000001 Z"></path><path fill="#000000" stroke-width="0" d="M -122.22220000000002 11.1111 L -122.22220000000002 33.3333 L -144.4444 33.3333 L -144.4444 11.1111 Z"></path><path fill="#000000" stroke-width="0" d="M -144.4444 -11.1111 L -144.4444 11.1111 L -166.6666 11.1111 L -166.6666 -11.1111 Z"></path><path fill="#000000" stroke-width="0" d="M -122.22220000000002 -33.3333 L -122.22220000000002 -11.1111 L -144.4444 -11.1111 L -144.4444 -33.3333 Z"></path><path fill="#000000" stroke-width="0" d="M -100 -11.1111 L -100 11.1111 L -122.22220000000002 11.1111 L -122.22220000000002 -11.1111 Z"></path><path fill="#000000" stroke-width="0" d="M 11.1111 -122.22220000000002 L 11.1111 -100 L -11.1111 -100 L -11.1111 -122.22220000000002 Z"></path><path fill="#000000" stroke-width="0" d="M -11.1111 -144.4444 L -11.1111 -122.22220000000002 L -33.3333 -122.22220000000002 L -33.3333 -144.4444 Z"></path><path fill="#000000" stroke-width="0" d="M 11.1111 -166.6666 L 11.1111 -144.4444 L -11.1111 -144.4444 L -11.1111 -166.6666 Z"></path><path fill="#000000" stroke-width="0" d="M 33.3333 -144.4444 L 33.3333 -122.22220000000002 L 11.1111 -122.22220000000002 L 11.1111 -144.4444 Z"></path><path fill="#000000" stroke-width="0" d="M -55.555600000000005 -188.8889 L -55.555600000000005 -166.66670000000002 L -77.77780000000001 -166.66670000000002 L -77.77780000000001 -188.8889 Z"></path><path fill="#000000" stroke-width="0" d="M -77.77780000000001 -211.1111 L -77.77780000000001 -188.8889 L -100 -188.8889 L -100 -211.1111 Z"></path><path fill="#000000" stroke-width="0" d="M -55.555600000000005 -233.33329999999998 L -55.555600000000005 -211.1111 L -77.77780000000001 -211.1111 L -77.77780000000001 -233.33329999999998 Z"></path><path fill="#000000" stroke-width="0" d="M -33.333400000000005 -211.1111 L -33.333400000000005 -188.8889 L -55.555600000000005 -188.8889 L -55.555600000000005 -211.1111 Z"></path><path fill="#000000" stroke-width="0" d="M 11.1111 -255.5556 L 11.1111 -233.3334 L -11.1111 -233.3334 L -11.1111 -255.5556 Z"></path><path fill="#000000" stroke-width="0" d="M -11.1111 -277.7778 L -11.1111 -255.5556 L -33.3333 -255.5556 L -33.3333 -277.7778 Z"></path><path fill="#000000" stroke-width="0" d="M 11.1111 -300 L 11.1111 -277.77779999999996 L -11.1111 -277.77779999999996 L -11.1111 -300 Z"></path><path fill="#000000" stroke-width="0" d="M 33.3333 -277.7778 L 33.3333 -255.5556 L 11.1111 -255.5556 L 11.1111 -277.7778 Z"></path><path fill="#000000" stroke-width="0" d="M 77.77780000000001 -188.8889 L 77.77780000000001 -166.66670000000002 L 55.555600000000005 -166.66670000000002 L 55.555600000000005 -188.8889 Z"></path><path fill="#000000" stroke-width="0" d="M 55.555600000000005 -211.1111 L 55.555600000000005 -188.8889 L 33.333400000000005 -188.8889 L 33.333400000000005 -211.1111 Z"></path><path fill="#000000" stroke-width="0" d="M 77.77780000000001 -233.33329999999998 L 77.77780000000001 -211.1111 L 55.555600000000005 -211.1111 L 55.555600000000005 -233.33329999999998 Z"></path><path fill="#000000" stroke-width="0" d="M 100 -211.1111 L 100 -188.8889 L 77.77780000000001 -188.8889 L 77.77780000000001 -211.1111 Z"></path><path fill="#000000" stroke-width="0" d="M 211.1111 77.77780000000001 L 211.1111 100 L 188.8889 100 L 188.8889 77.77780000000001 Z"></path><path fill="#000000" stroke-width="0" d="M 188.8889 55.555600000000005 L 188.8889 77.77780000000001 L 166.66670000000002 77.77780000000001 L 166.66670000000002 55.555600000000005 Z"></path><path fill="#000000" stroke-width="0" d="M 211.1111 33.333400000000005 L 211.1111 55.555600000000005 L 188.8889 55.555600000000005 L 188.8889 33.333400000000005 Z"></path><path fill="#000000" stroke-width="0" d="M 233.33329999999998 55.555600000000005 L 233.33329999999998 77.77780000000001 L 211.1111 77.77780000000001 L 211.1111 55.555600000000005 Z"></path><path fill="#000000" stroke-width="0" d="M 144.4444 11.1111 L 144.4444 33.3333 L 122.22220000000002 33.3333 L 122.22220000000002 11.1111 Z"></path><path fill="#000000" stroke-width="0" d="M 122.22220000000002 -11.1111 L 122.22220000000002 11.1111 L 100 11.1111 L 100 -11.1111 Z"></path><path fill="#000000" stroke-width="0" d="M 144.4444 -33.3333 L 144.4444 -11.1111 L 122.22220000000002 -11.1111 L 122.22220000000002 -33.3333 Z"></path><path fill="#000000" stroke-width="0" d="M 166.6666 -11.1111 L 166.6666 11.1111 L 144.4444 11.1111 L 144.4444 -11.1111 Z"></path><path fill="#000000" stroke-width="0" d="M 211.1111 -55.555600000000005 L 211.1111 -33.333400000000005 L 188.8889 -33.333400000000005 L 188.8889 -55.555600000000005 Z"></path><path fill="#000000" stroke-width="0" d="M 188.8889 -77.77780000000001 L 188.8889 -55.555600000000005 L 166.66670000000002 -55.555600000000005 L 166.66670000000002 -77.77780000000001 Z"></path><path fill="#000000" stroke-width="0" d="M 211.1111 -100 L 211.1111 -77.77780000000001 L 188.8889 -77.77780000000001 L 188.8889 -100 Z"></path><path fill="#000000" stroke-width="0" d="M 233.33329999999998 -77.77780000000001 L 233.33329999999998 -55.555600000000005 L 211.1111 -55.555600000000005 L 211.1111 -77.77780000000001 Z"></path><path fill="#000000" stroke-width="0" d="M 277.7778 11.1111 L 277.7778 33.3333 L 255.5556 33.3333 L 255.5556 11.1111 Z"></path><path fill="#000000" stroke-width="0" d="M 255.5556 -11.1111 L 255.5556 11.1111 L 233.3334 11.1111 L 233.3334 -11.1111 Z"></path><path fill="#000000" stroke-width="0" d="M 277.7778 -33.3333 L 277.7778 -11.1111 L 255.5556 -11.1111 L 255.5556 -33.3333 Z"></path><path fill="#000000" stroke-width="0" d="M 300 -11.1111 L 300 11.1111 L 277.77779999999996 11.1111 L 277.77779999999996 -11.1111 Z"></path></g></svg>
