<svg xmlns="http://www.w3.org/2000/svg" viewBox="-1000 -1000 2000 2000" width="100%" height="100%"
    xml:space="preserve" xmlns:xlink="http://wwww3.org/1999/xlink" stroke-linecap="round"
    stroke-linejoin="round"><g><path fill="#000000" stroke-width="0" d="M 900 -900 L 900 -833.3334 L 833.3334 -833.3334 L 833.3334 -900 Z"></path><path fill="#000000" stroke-width="0" d="M 900 -766.6666 L 900 -700 L 833.3334 -700 L 833.3334 -766.6666 Z"></path><path fill="#000000" stroke-width="0" d="M 766.6666 -766.6666 L 766.6666 -700 L 700 -700 L 700 -766.6666 Z"></path><path fill="#000000" stroke-width="0" d="M 766.6666 -900 L 766.6666 -833.3334 L 700 -833.3334 L 700 -900 Z"></path><path fill="#000000" stroke-width="0" d="M 900 -500 L 900 -433.3334 L 833.3334 -433.3334 L 833.3334 -500 Z"></path><path fill="#000000" stroke-width="0" d="M 900 -366.6666 L 900 -300 L 833.3334 -300 L 833.3334 -366.6666 Z"></path><path fill="#000000" stroke-width="0" d="M 766.6666 -366.6666 L 766.6666 -300 L 700 -300 L 700 -366.6666 Z"></path><path fill="#000000" stroke-width="0" d="M 766.6666 -500 L 766.6666 -433.3334 L 700 -433.3334 L 700 -500 Z"></path><path fill="#000000" stroke-width="0" d="M 500 -500 L 500 -433.3334 L 433.3334 -433.3334 L 433.3334 -500 Z"></path><path fill="#000000" stroke-width="0" d="M 500 -366.6666 L 500 -300 L 433.3334 -300 L 433.3334 -366.6666 Z"></path><path fill="#000000" stroke-width="0" d="M 366.6666 -366.6666 L 366.6666 -300 L 300 -300 L 300 -366.6666 Z"></path><path fill="#000000" stroke-width="0" d="M 366.6666 -500 L 366.6666 -433.3334 L 300 -433.3334 L 300 -500 Z"></path><path fill="#000000" stroke-width="0" d="M 500 -900 L 500 -833.3334 L 433.3334 -833.3334 L 433.3334 -900 Z"></path><path fill="#000000" stroke-width="0" d="M 500 -766.6666 L 500 -700 L 433.3334 -700 L 433.3334 -766.6666 Z"></path><path fill="#000000" stroke-width="0" d="M 366.6666 -766.6666 L 366.6666 -700 L 300 -700 L 300 -766.6666 Z"></path><path fill="#000000" stroke-width="0" d="M 366.6666 -900 L 366.6666 -833.3334 L 300 -833.3334 L 300 -900 Z"></path><path fill="#000000" stroke-width="0" d="M 900 300 L 900 366.6666 L 833.3334 366.6666 L 833.3334 300 Z"></path><path fill="#000000" stroke-width="0" d="M 900 433.3334 L 900 500 L 833.3334 500 L 833.3334 433.3334 Z"></path><path fill="#000000" stroke-width="0" d="M 766.6666 433.3334 L 766.6666 500 L 700 500 L 700 433.3334 Z"></path><path fill="#000000" stroke-width="0" d="M 766.6666 300 L 766.6666 366.6666 L 700 366.6666 L 700 300 Z"></path><path fill="#000000" stroke-width="0" d="M 900 700 L 900 766.6666 L 833.3334 766.6666 L 833.3334 700 Z"></path><path fill="#000000" stroke-width="0" d="M 900 833.3334 L 900 900 L 833.3334 900 L 833.3334 833.3334 Z"></path><path fill="#000000" stroke-width="0" d="M 766.6666 833.3334 L 766.6666 900 L 700 900 L 700 833.3334 Z"></path><path fill="#000000" stroke-width="0" d="M 766.6666 700 L 766.6666 766.6666 L 700 766.6666 L 700 700 Z"></path><path fill="#000000" stroke-width="0" d="M 500 700 L 500 766.6666 L 433.3334 766.6666 L 433.3334 700 Z"></path><path fill="#000000" stroke-width="0" d="M 500 833.3334 L 500 900 L 433.3334 900 L 433.3334 833.3334 Z"></path><path fill="#000000" stroke-width="0" d="M 366.6666 833.3334 L 366.6666 900 L 300 900 L 300 833.3334 Z"></path><path fill="#000000" stroke-width="0" d="M 366.6666 700 L 366.6666 766.6666 L 300 766.6666 L 300 700 Z"></path><path fill="#000000" stroke-width="0" d="M 500 300 L 500 366.6666 L 433.3334 366.6666 L 433.3334 300 Z"></path><path fill="#000000" stroke-width="0" d="M 500 433.3334 L 500 500 L 433.3334 500 L 433.3334 433.3334 Z"></path><path fill="#000000" stroke-width="0" d="M 366.6666 433.3334 L 366.6666 500 L 300 500 L 300 433.3334 Z"></path><path fill="#000000" stroke-width="0" d="M 366.6666 300 L 366.6666 366.6666 L 300 366.6666 L 300 300 Z"></path><path fill="#000000" stroke-width="0" d="M -300 300 L -300 366.6666 L -366.6666 366.6666 L -366.6666 300 Z"></path><path fill="#000000" stroke-width="0" d="M -300 433.3334 L -300 500 L -366.6666 500 L -366.6666 433.3334 Z"></path><path fill="#000000" stroke-width="0" d="M -433.3334 433.3334 L -433.3334 500 L -500 500 L -500 433.3334 Z"></path><path fill="#000000" stroke-width="0" d="M -433.3334 300 L -433.3334 366.6666 L -500 366.6666 L -500 300 Z"></path><path fill="#000000" stroke-width="0" d="M -300 700 L -300 766.6666 L -366.6666 766.6666 L -366.6666 700 Z"></path><path fill="#000000" stroke-width="0" d="M -300 833.3334 L -300 900 L -366.6666 900 L -366.6666 833.3334 Z"></path><path fill="#000000" stroke-width="0" d="M -433.3334 833.3334 L -433.3334 900 L -500 900 L -500 833.3334 Z"></path><path fill="#000000" stroke-width="0" d="M -433.3334 700 L -433.3334 766.6666 L -500 766.6666 L -500 700 Z"></path><path fill="#000000" stroke-width="0" d="M -700 700 L -700 766.6666 L -766.6666 766.6666 L -766.6666 700 Z"></path><path fill="#000000" stroke-width="0" d="M -700 833.3334 L -700 900 L -766.6666 900 L -766.6666 833.3334 Z"></path><path fill="#000000" stroke-width="0" d="M -833.3334 833.3334 L -833.3334 900 L -900 900 L -900 833.3334 Z"></path><path fill="#000000" stroke-width="0" d="M -833.3334 700 L -833.3334 766.6666 L -900 766.6666 L -900 700 Z"></path><path fill="#000000" stroke-width="0" d="M -700 300 L -700 366.6666 L -766.6666 366.6666 L -766.6666 300 Z"></path><path fill="#000000" stroke-width="0" d="M -700 433.3334 L -700 500 L -766.6666 500 L -766.6666 433.3334 Z"></path><path fill="#000000" stroke-width="0" d="M -833.3334 433.3334 L -833.3334 500 L -900 500 L -900 433.3334 Z"></path><path fill="#000000" stroke-width="0" d="M -833.3334 300 L -833.3334 366.6666 L -900 366.6666 L -900 300 Z"></path><path fill="#000000" stroke-width="0" d="M -300 -900 L -300 -833.3334 L -366.6666 -833.3334 L -366.6666 -900 Z"></path><path fill="#000000" stroke-width="0" d="M -300 -766.6666 L -300 -700 L -366.6666 -700 L -366.6666 -766.6666 Z"></path><path fill="#000000" stroke-width="0" d="M -433.3334 -766.6666 L -433.3334 -700 L -500 -700 L -500 -766.6666 Z"></path><path fill="#000000" stroke-width="0" d="M -433.3334 -900 L -433.3334 -833.3334 L -500 -833.3334 L -500 -900 Z"></path><path fill="#000000" stroke-width="0" d="M -300 -500 L -300 -433.3334 L -366.6666 -433.3334 L -366.6666 -500 Z"></path><path fill="#000000" stroke-width="0" d="M -300 -366.6666 L -300 -300 L -366.6666 -300 L -366.6666 -366.6666 Z"></path><path fill="#000000" stroke-width="0" d="M -433.3334 -366.6666 L -433.3334 -300 L -500 -300 L -500 -366.6666 Z"></path><path fill="#000000" stroke-width="0" d="M -433.3334 -500 L -433.3334 -433.3334 L -500 -433.3334 L -500 -500 Z"></path><path fill="#000000" stroke-width="0" d="M -700 -500 L -700 -433.3334 L -766.6666 -433.3334 L -766.6666 -500 Z"></path><path fill="#000000" stroke-width="0" d="M -700 -366.6666 L -700 -300 L -766.6666 -300 L -766.6666 -366.6666 Z"></path><path fill="#000000" stroke-width="0" d="M -833.3334 -366.6666 L -833.3334 -300 L -900 -300 L -900 -366.6666 Z"></path><path fill="#000000" stroke-width="0" d="M -833.3334 -500 L -833.3334 -433.3334 L -900 -433.3334 L -900 -500 Z"></path><path fill="#000000" stroke-width="0" d="M -700 -900 L -700 -833.3334 L -766.6666 -833.3334 L -766.6666 -900 Z"></path><path fill="#000000" stroke-width="0" d="M -700 -766.6666 L -700 -700 L -766.6666 -700 L -766.6666 -766.6666 Z"></path><path fill="#000000" stroke-width="0" d="M -833.3334 -766.6666 L -833.3334 -700 L -900 -700 L -900 -766.6666 Z"></path><path fill="#000000" stroke-width="0" d="M -833.3334 -900 L -833.3334 -833.3334 L -900 -833.3334 L -900 -900 Z"></path><path fill="#000000" stroke-width="0" d="M 100 -100 L 100 -33.333400000000005 L 33.333400000000005 -33.333400000000005 L 33.333400000000005 -100 Z"></path><path fill="#000000" stroke-width="0" d="M 100 33.333400000000005 L 100 100 L 33.333400000000005 100 L 33.333400000000005 33.333400000000005 Z"></path><path fill="#000000" stroke-width="0" d="M -33.333400000000005 33.333400000000005 L -33.333400000000005 100 L -100 100 L -100 33.333400000000005 Z"></path><path fill="#000000" stroke-width="0" d="M -33.333400000000005 -100 L -33.333400000000005 -33.333400000000005 L -100 -33.333400000000005 L -100 -100 Z"></path><path fill="#000000" stroke-width="0" d="M 633.3333 -633.3333 L 633.3333 -566.6667 L 566.6667 -566.6667 L 566.6667 -633.3333 Z"></path><path fill="#000000" stroke-width="0" d="M 633.3333 566.6667 L 633.3333 633.3333 L 566.6667 633.3333 L 566.6667 566.6667 Z"></path><path fill="#000000" stroke-width="0" d="M -566.6667 566.6667 L -566.6667 633.3333 L -633.3333 633.3333 L -633.3333 566.6667 Z"></path><path fill="#000000" stroke-width="0" d="M -566.6667 -633.3333 L -566.6667 -566.6667 L -633.3333 -566.6667 L -633.3333 -633.3333 Z"></path><path fill="#000000" stroke-width="0" d="M -166.6667 166.6667 L -166.6667 233.3333 L -233.3333 233.3333 L -233.3333 166.6667 Z"></path><path fill="#000000" stroke-width="0" d="M -166.6667 -233.3333 L -166.6667 -166.6667 L -233.3333 -166.6667 L -233.3333 -233.3333 Z"></path><path fill="#000000" stroke-width="0" d="M 233.3333 -233.3333 L 233.3333 -166.6667 L 166.6667 -166.6667 L 166.6667 -233.3333 Z"></path><path fill="#000000" stroke-width="0" d="M 233.3333 166.6667 L 233.3333 233.3333 L 166.6667 233.3333 L 166.6667 166.6667 Z"></path><path fill="#000000" stroke-width="0" d="M 833.3333 -833.3333 L 833.3333 -766.6667 L 766.6667 -766.6667 L 766.6667 -833.3333 Z"></path><path fill="#000000" stroke-width="0" d="M 833.3333 -433.3333 L 833.3333 -366.6667 L 766.6667 -366.6667 L 766.6667 -433.3333 Z"></path><path fill="#000000" stroke-width="0" d="M 433.3333 -433.3333 L 433.3333 -366.6667 L 366.6667 -366.6667 L 366.6667 -433.3333 Z"></path><path fill="#000000" stroke-width="0" d="M 433.3333 -833.3333 L 433.3333 -766.6667 L 366.6667 -766.6667 L 366.6667 -833.3333 Z"></path><path fill="#000000" stroke-width="0" d="M 833.3333 366.6667 L 833.3333 433.3333 L 766.6667 433.3333 L 766.6667 366.6667 Z"></path><path fill="#000000" stroke-width="0" d="M 833.3333 766.6667 L 833.3333 833.3333 L 766.6667 833.3333 L 766.6667 766.6667 Z"></path><path fill="#000000" stroke-width="0" d="M 433.3333 766.6667 L 433.3333 833.3333 L 366.6667 833.3333 L 366.6667 766.6667 Z"></path><path fill="#000000" stroke-width="0" d="M 433.3333 366.6667 L 433.3333 433.3333 L 366.6667 433.3333 L 366.6667 366.6667 Z"></path><path fill="#000000" stroke-width="0" d="M -366.6667 366.6667 L -366.6667 433.3333 L -433.3333 433.3333 L -433.3333 366.6667 Z"></path><path fill="#000000" stroke-width="0" d="M -366.6667 766.6667 L -366.6667 833.3333 L -433.3333 833.3333 L -433.3333 766.6667 Z"></path><path fill="#000000" stroke-width="0" d="M -766.6667 766.6667 L -766.6667 833.3333 L -833.3333 833.3333 L -833.3333 766.6667 Z"></path><path fill="#000000" stroke-width="0" d="M -766.6667 366.6667 L -766.6667 433.3333 L -833.3333 433.3333 L -833.3333 366.6667 Z"></path><path fill="#000000" stroke-width="0" d="M -366.6667 -833.3333 L -366.6667 -766.6667 L -433.3333 -766.6667 L -433.3333 -833.3333 Z"></path><path fill="#000000" stroke-width="0" d="M -366.6667 -433.3333 L -366.6667 -366.6667 L -433.3333 -366.6667 L -433.3333 -433.3333 Z"></path><path fill="#000000" stroke-width="0" d="M -766.6667 -433.3333 L -766.6667 -366.6667 L -833.3333 -366.6667 L -833.3333 -433.3333 Z"></path><path fill="#000000" stroke-width="0" d="M -766.6667 -833.3333 L -766.6667 -766.6667 L -833.3333 -766.6667 L -833.3333 -833.3333 Z"></path><path fill="#000000" stroke-width="0" d="M 33.3333 -33.3333 L 33.3333 33.3333 L -33.3333 33.3333 L -33.3333 -33.3333 Z"></path><path fill="#000000" stroke-width="0" d="M 566.6666 -566.6666 L 566.6666 -500 L 500 -500 L 500 -566.6666 Z"></path><path fill="#000000" stroke-width="0" d="M 566.6666 -700 L 566.6666 -633.3334 L 500 -633.3334 L 500 -700 Z"></path><path fill="#000000" stroke-width="0" d="M 700 -700 L 700 -633.3334 L 633.3334 -633.3334 L 633.3334 -700 Z"></path><path fill="#000000" stroke-width="0" d="M 700 -566.6666 L 700 -500 L 633.3334 -500 L 633.3334 -566.6666 Z"></path><path fill="#000000" stroke-width="0" d="M 566.6666 633.3334 L 566.6666 700 L 500 700 L 500 633.3334 Z"></path><path fill="#000000" stroke-width="0" d="M 566.6666 500 L 566.6666 566.6666 L 500 566.6666 L 500 500 Z"></path><path fill="#000000" stroke-width="0" d="M 700 500 L 700 566.6666 L 633.3334 566.6666 L 633.3334 500 Z"></path><path fill="#000000" stroke-width="0" d="M 700 633.3334 L 700 700 L 633.3334 700 L 633.3334 633.3334 Z"></path><path fill="#000000" stroke-width="0" d="M -633.3334 633.3334 L -633.3334 700 L -700 700 L -700 633.3334 Z"></path><path fill="#000000" stroke-width="0" d="M -633.3334 500 L -633.3334 566.6666 L -700 566.6666 L -700 500 Z"></path><path fill="#000000" stroke-width="0" d="M -500 500 L -500 566.6666 L -566.6666 566.6666 L -566.6666 500 Z"></path><path fill="#000000" stroke-width="0" d="M -500 633.3334 L -500 700 L -566.6666 700 L -566.6666 633.3334 Z"></path><path fill="#000000" stroke-width="0" d="M -633.3334 -566.6666 L -633.3334 -500 L -700 -500 L -700 -566.6666 Z"></path><path fill="#000000" stroke-width="0" d="M -633.3334 -700 L -633.3334 -633.3334 L -700 -633.3334 L -700 -700 Z"></path><path fill="#000000" stroke-width="0" d="M -500 -700 L -500 -633.3334 L -566.6666 -633.3334 L -566.6666 -700 Z"></path><path fill="#000000" stroke-width="0" d="M -500 -566.6666 L -500 -500 L -566.6666 -500 L -566.6666 -566.6666 Z"></path><path fill="#000000" stroke-width="0" d="M -233.33339999999998 233.33339999999998 L -233.33339999999998 300 L -300 300 L -300 233.33339999999998 Z"></path><path fill="#000000" stroke-width="0" d="M -233.33339999999998 100 L -233.33339999999998 166.66660000000002 L -300 166.66660000000002 L -300 100 Z"></path><path fill="#000000" stroke-width="0" d="M -100 100 L -100 166.66660000000002 L -166.66660000000002 166.66660000000002 L -166.66660000000002 100 Z"></path><path fill="#000000" stroke-width="0" d="M -100 233.33339999999998 L -100 300 L -166.66660000000002 300 L -166.66660000000002 233.33339999999998 Z"></path><path fill="#000000" stroke-width="0" d="M -233.33339999999998 -166.66660000000002 L -233.33339999999998 -100 L -300 -100 L -300 -166.66660000000002 Z"></path><path fill="#000000" stroke-width="0" d="M -233.33339999999998 -300 L -233.33339999999998 -233.33339999999998 L -300 -233.33339999999998 L -300 -300 Z"></path><path fill="#000000" stroke-width="0" d="M -100 -300 L -100 -233.33339999999998 L -166.66660000000002 -233.33339999999998 L -166.66660000000002 -300 Z"></path><path fill="#000000" stroke-width="0" d="M -100 -166.66660000000002 L -100 -100 L -166.66660000000002 -100 L -166.66660000000002 -166.66660000000002 Z"></path><path fill="#000000" stroke-width="0" d="M 166.66660000000002 -166.66660000000002 L 166.66660000000002 -100 L 100 -100 L 100 -166.66660000000002 Z"></path><path fill="#000000" stroke-width="0" d="M 166.66660000000002 -300 L 166.66660000000002 -233.33339999999998 L 100 -233.33339999999998 L 100 -300 Z"></path><path fill="#000000" stroke-width="0" d="M 300 -300 L 300 -233.33339999999998 L 233.33339999999998 -233.33339999999998 L 233.33339999999998 -300 Z"></path><path fill="#000000" stroke-width="0" d="M 300 -166.66660000000002 L 300 -100 L 233.33339999999998 -100 L 233.33339999999998 -166.66660000000002 Z"></path><path fill="#000000" stroke-width="0" d="M 166.66660000000002 233.33339999999998 L 166.66660000000002 300 L 100 300 L 100 233.33339999999998 Z"></path><path fill="#000000" stroke-width="0" d="M 166.66660000000002 100 L 166.66660000000002 166.66660000000002 L 100 166.66660000000002 L 100 100 Z"></path><path fill="#000000" stroke-width="0" d="M 300 100 L 300 166.66660000000002 L 233.33339999999998 166.66660000000002 L 233.33339999999998 100 Z"></path><path fill="#000000" stroke-width="0" d="M 300 233.33339999999998 L 300 300 L 233.33339999999998 300 L 233.33339999999998 233.33339999999998 Z"></path></g></svg>