<svg xmlns="http://www.w3.org/2000/svg" xmlns:xlink="http://wwww3.org/1999/xlink" width="100%" height="100%" stroke-linecap="round" stroke-linejoin="round" viewBox="-1000 -1000 2000 2000" xml:space="preserve"><g><path fill="#000" stroke-width="0" d="M 0 -839.7114317029974 L 28.8675 -823.0448317029974 L 28.8675 -789.7115317029974 L 0.0001 -773.0448317029974 L -28.8674 -789.7114317029974 L -28.8675 -823.0447317029974 Z"/><path fill="#000" stroke-width="0" d="M 57.7351 -806.3781317029974 L 86.6026 -789.7115317029974 L 86.6026 -756.3782317029974 L 57.735200000000006 -739.7115317029974 L 28.867700000000003 -756.3781317029974 L 28.867600000000003 -789.7114317029974 Z"/><path fill="#000" stroke-width="0" d="M 57.7351 -739.7113317029974 L 86.6026 -723.0447317029974 L 86.6026 -689.7114317029974 L 57.735200000000006 -673.0447317029974 L 28.867700000000003 -689.7113317029974 L 28.867600000000003 -723.0446317029974 Z"/><path fill="#000" stroke-width="0" d="M 0 -706.3779317029974 L 28.8675 -689.7113317029974 L 28.8675 -656.3780317029974 L 0.0001 -639.7113317029974 L -28.8674 -656.3779317029974 L -28.8675 -689.7112317029975 Z"/><path fill="#000" stroke-width="0" d="M -57.7351 -739.7113317029974 L -28.867600000000003 -723.0447317029974 L -28.867600000000003 -689.7114317029974 L -57.735 -673.0447317029974 L -86.6025 -689.7113317029974 L -86.6026 -723.0446317029974 Z"/><path fill="#000" stroke-width="0" d="M -57.7351 -806.3781317029974 L -28.867600000000003 -789.7115317029974 L -28.867600000000003 -756.3782317029974 L -57.735 -739.7115317029974 L -86.6025 -756.3781317029974 L -86.6026 -789.7114317029974 Z"/><path fill="#000" stroke-width="0" d="M 173.2051 -739.7114317029974 L 202.0726 -723.0448317029974 L 202.0726 -689.7115317029974 L 173.2052 -673.0448317029974 L 144.33769999999998 -689.7114317029974 L 144.33759999999998 -723.0447317029974 Z"/><path fill="#000" stroke-width="0" d="M 230.9402 -706.3781317029974 L 259.8077 -689.7115317029974 L 259.8077 -656.3782317029974 L 230.9403 -639.7115317029974 L 202.0728 -656.3781317029974 L 202.0727 -689.7114317029974 Z"/><path fill="#000" stroke-width="0" d="M 230.9402 -639.7113317029974 L 259.8077 -623.0447317029974 L 259.8077 -589.7114317029974 L 230.9403 -573.0447317029974 L 202.0728 -589.7113317029974 L 202.0727 -623.0446317029974 Z"/><path fill="#000" stroke-width="0" d="M 173.2051 -606.3779317029974 L 202.0726 -589.7113317029974 L 202.0726 -556.3780317029974 L 173.2052 -539.7113317029974 L 144.33769999999998 -556.3779317029974 L 144.33759999999998 -589.7112317029975 Z"/><path fill="#000" stroke-width="0" d="M 115.46999999999998 -639.7113317029974 L 144.33749999999998 -623.0447317029974 L 144.33749999999998 -589.7114317029974 L 115.47009999999999 -573.0447317029974 L 86.60259999999998 -589.7113317029974 L 86.60249999999999 -623.0446317029974 Z"/><path fill="#000" stroke-width="0" d="M 115.46999999999998 -706.3781317029974 L 144.33749999999998 -689.7115317029974 L 144.33749999999998 -656.3782317029974 L 115.47009999999999 -639.7115317029974 L 86.60259999999998 -656.3781317029974 L 86.60249999999999 -689.7114317029974 Z"/><path fill="#000" stroke-width="0" d="M 173.2051 -539.7114317029974 L 202.0726 -523.0448317029974 L 202.0726 -489.7115317029974 L 173.2052 -473.0448317029974 L 144.33769999999998 -489.7114317029974 L 144.33759999999998 -523.0447317029974 Z"/><path fill="#000" stroke-width="0" d="M 230.9402 -506.3781317029974 L 259.8077 -489.7115317029974 L 259.8077 -456.37823170299737 L 230.9403 -439.7115317029974 L 202.0728 -456.3781317029974 L 202.0727 -489.7114317029974 Z"/><path fill="#000" stroke-width="0" d="M 230.9402 -439.7113317029974 L 259.8077 -423.0447317029974 L 259.8077 -389.7114317029974 L 230.9403 -373.0447317029974 L 202.0728 -389.7113317029974 L 202.0727 -423.04463170299744 Z"/><path fill="#000" stroke-width="0" d="M 173.2051 -406.37793170299744 L 202.0726 -389.7113317029974 L 202.0726 -356.3780317029974 L 173.2052 -339.7113317029974 L 144.33769999999998 -356.37793170299744 L 144.33759999999998 -389.71123170299745 Z"/><path fill="#000" stroke-width="0" d="M 115.46999999999998 -439.7113317029974 L 144.33749999999998 -423.0447317029974 L 144.33749999999998 -389.7114317029974 L 115.47009999999999 -373.0447317029974 L 86.60259999999998 -389.7113317029974 L 86.60249999999999 -423.04463170299744 Z"/><path fill="#000" stroke-width="0" d="M 115.46999999999998 -506.3781317029974 L 144.33749999999998 -489.7115317029974 L 144.33749999999998 -456.37823170299737 L 115.47009999999999 -439.7115317029974 L 86.60259999999998 -456.3781317029974 L 86.60249999999999 -489.7114317029974 Z"/><path fill="#000" stroke-width="0" d="M 0 -439.7114317029974 L 28.8675 -423.0448317029974 L 28.8675 -389.7115317029974 L 0.0001 -373.0448317029974 L -28.8674 -389.7114317029974 L -28.8675 -423.0447317029974 Z"/><path fill="#000" stroke-width="0" d="M 57.7351 -406.3781317029974 L 86.6026 -389.7115317029974 L 86.6026 -356.37823170299737 L 57.735200000000006 -339.7115317029974 L 28.867700000000003 -356.3781317029974 L 28.867600000000003 -389.7114317029974 Z"/><path fill="#000" stroke-width="0" d="M 57.7351 -339.7113317029974 L 86.6026 -323.0447317029974 L 86.6026 -289.7114317029974 L 57.735200000000006 -273.0447317029974 L 28.867700000000003 -289.7113317029974 L 28.867600000000003 -323.04463170299744 Z"/><path fill="#000" stroke-width="0" d="M 0 -306.37793170299744 L 28.8675 -289.7113317029974 L 28.8675 -256.3780317029974 L 0.0001 -239.71133170299743 L -28.8674 -256.37793170299744 L -28.8675 -289.71123170299745 Z"/><path fill="#000" stroke-width="0" d="M -57.7351 -339.7113317029974 L -28.867600000000003 -323.0447317029974 L -28.867600000000003 -289.7114317029974 L -57.735 -273.0447317029974 L -86.6025 -289.7113317029974 L -86.6026 -323.04463170299744 Z"/><path fill="#000" stroke-width="0" d="M -57.7351 -406.3781317029974 L -28.867600000000003 -389.7115317029974 L -28.867600000000003 -356.37823170299737 L -57.735 -339.7115317029974 L -86.6025 -356.3781317029974 L -86.6026 -389.7114317029974 Z"/><path fill="#000" stroke-width="0" d="M -173.2051 -539.7114317029974 L -144.33759999999998 -523.0448317029974 L -144.33759999999998 -489.7115317029974 L -173.20499999999998 -473.0448317029974 L -202.0725 -489.7114317029974 L -202.0726 -523.0447317029974 Z"/><path fill="#000" stroke-width="0" d="M -115.46999999999998 -506.3781317029974 L -86.60249999999999 -489.7115317029974 L -86.60249999999999 -456.37823170299737 L -115.46989999999998 -439.7115317029974 L -144.33739999999997 -456.3781317029974 L -144.33749999999998 -489.7114317029974 Z"/><path fill="#000" stroke-width="0" d="M -115.46999999999998 -439.7113317029974 L -86.60249999999999 -423.0447317029974 L -86.60249999999999 -389.7114317029974 L -115.46989999999998 -373.0447317029974 L -144.33739999999997 -389.7113317029974 L -144.33749999999998 -423.04463170299744 Z"/><path fill="#000" stroke-width="0" d="M -173.2051 -406.37793170299744 L -144.33759999999998 -389.7113317029974 L -144.33759999999998 -356.3780317029974 L -173.20499999999998 -339.7113317029974 L -202.0725 -356.37793170299744 L -202.0726 -389.71123170299745 Z"/><path fill="#000" stroke-width="0" d="M -230.9402 -439.7113317029974 L -202.0727 -423.0447317029974 L -202.0727 -389.7114317029974 L -230.9401 -373.0447317029974 L -259.8076 -389.7113317029974 L -259.8077 -423.04463170299744 Z"/><path fill="#000" stroke-width="0" d="M -230.9402 -506.3781317029974 L -202.0727 -489.7115317029974 L -202.0727 -456.37823170299737 L -230.9401 -439.7115317029974 L -259.8076 -456.3781317029974 L -259.8077 -489.7114317029974 Z"/><path fill="#000" stroke-width="0" d="M -173.2051 -739.7114317029974 L -144.33759999999998 -723.0448317029974 L -144.33759999999998 -689.7115317029974 L -173.20499999999998 -673.0448317029974 L -202.0725 -689.7114317029974 L -202.0726 -723.0447317029974 Z"/><path fill="#000" stroke-width="0" d="M -115.46999999999998 -706.3781317029974 L -86.60249999999999 -689.7115317029974 L -86.60249999999999 -656.3782317029974 L -115.46989999999998 -639.7115317029974 L -144.33739999999997 -656.3781317029974 L -144.33749999999998 -689.7114317029974 Z"/><path fill="#000" stroke-width="0" d="M -115.46999999999998 -639.7113317029974 L -86.60249999999999 -623.0447317029974 L -86.60249999999999 -589.7114317029974 L -115.46989999999998 -573.0447317029974 L -144.33739999999997 -589.7113317029974 L -144.33749999999998 -623.0446317029974 Z"/><path fill="#000" stroke-width="0" d="M -173.2051 -606.3779317029974 L -144.33759999999998 -589.7113317029974 L -144.33759999999998 -556.3780317029974 L -173.20499999999998 -539.7113317029974 L -202.0725 -556.3779317029974 L -202.0726 -589.7112317029975 Z"/><path fill="#000" stroke-width="0" d="M -230.9402 -639.7113317029974 L -202.0727 -623.0447317029974 L -202.0727 -589.7114317029974 L -230.9401 -573.0447317029974 L -259.8076 -589.7113317029974 L -259.8077 -623.0446317029974 Z"/><path fill="#000" stroke-width="0" d="M -230.9402 -706.3781317029974 L -202.0727 -689.7115317029974 L -202.0727 -656.3782317029974 L -230.9401 -639.7115317029974 L -259.8076 -656.3781317029974 L -259.8077 -689.7114317029974 Z"/><path fill="#000" stroke-width="0" d="M 519.6152 -539.7114317029974 L 548.4826999999999 -523.0448317029974 L 548.4826999999999 -489.7115317029974 L 519.6152999999999 -473.0448317029974 L 490.7478 -489.7114317029974 L 490.74769999999995 -523.0447317029974 Z"/><path fill="#000" stroke-width="0" d="M 577.3503 -506.3781317029974 L 606.2177999999999 -489.7115317029974 L 606.2177999999999 -456.37823170299737 L 577.3503999999999 -439.7115317029974 L 548.4829 -456.3781317029974 L 548.4828 -489.7114317029974 Z"/><path fill="#000" stroke-width="0" d="M 577.3503 -439.7113317029974 L 606.2177999999999 -423.0447317029974 L 606.2177999999999 -389.7114317029974 L 577.3503999999999 -373.0447317029974 L 548.4829 -389.7113317029974 L 548.4828 -423.04463170299744 Z"/><path fill="#000" stroke-width="0" d="M 519.6152 -406.37793170299744 L 548.4826999999999 -389.7113317029974 L 548.4826999999999 -356.3780317029974 L 519.6152999999999 -339.7113317029974 L 490.7478 -356.37793170299744 L 490.74769999999995 -389.71123170299745 Z"/><path fill="#000" stroke-width="0" d="M 461.88009999999997 -439.7113317029974 L 490.7476 -423.0447317029974 L 490.7476 -389.7114317029974 L 461.88019999999995 -373.0447317029974 L 433.0127 -389.7113317029974 L 433.01259999999996 -423.04463170299744 Z"/><path fill="#000" stroke-width="0" d="M 461.88009999999997 -506.3781317029974 L 490.7476 -489.7115317029974 L 490.7476 -456.37823170299737 L 461.88019999999995 -439.7115317029974 L 433.0127 -456.3781317029974 L 433.01259999999996 -489.7114317029974 Z"/><path fill="#000" stroke-width="0" d="M 692.8203 -439.7114317029974 L 721.6877999999999 -423.0448317029974 L 721.6877999999999 -389.7115317029974 L 692.8204 -373.0448317029974 L 663.9529 -389.7114317029974 L 663.9528 -423.0447317029974 Z"/><path fill="#000" stroke-width="0" d="M 750.5554 -406.3781317029974 L 779.4228999999999 -389.7115317029974 L 779.4228999999999 -356.37823170299737 L 750.5554999999999 -339.7115317029974 L 721.688 -356.3781317029974 L 721.6879 -389.7114317029974 Z"/><path fill="#000" stroke-width="0" d="M 750.5554 -339.7113317029974 L 779.4228999999999 -323.0447317029974 L 779.4228999999999 -289.7114317029974 L 750.5554999999999 -273.0447317029974 L 721.688 -289.7113317029974 L 721.6879 -323.04463170299744 Z"/><path fill="#000" stroke-width="0" d="M 692.8203 -306.37793170299744 L 721.6877999999999 -289.7113317029974 L 721.6877999999999 -256.3780317029974 L 692.8204 -239.71133170299743 L 663.9529 -256.37793170299744 L 663.9528 -289.71123170299745 Z"/><path fill="#000" stroke-width="0" d="M 635.0852 -339.7113317029974 L 663.9526999999999 -323.0447317029974 L 663.9526999999999 -289.7114317029974 L 635.0853 -273.0447317029974 L 606.2178 -289.7113317029974 L 606.2177 -323.04463170299744 Z"/><path fill="#000" stroke-width="0" d="M 635.0852 -406.3781317029974 L 663.9526999999999 -389.7115317029974 L 663.9526999999999 -356.37823170299737 L 635.0853 -339.7115317029974 L 606.2178 -356.3781317029974 L 606.2177 -389.7114317029974 Z"/><path fill="#000" stroke-width="0" d="M 692.8203 -239.7114317029974 L 721.6877999999999 -223.04483170299739 L 721.6877999999999 -189.7115317029974 L 692.8204 -173.04483170299739 L 663.9529 -189.7114317029974 L 663.9528 -223.04473170299738 Z"/><path fill="#000" stroke-width="0" d="M 750.5554 -206.3781317029974 L 779.4228999999999 -189.71153170299738 L 779.4228999999999 -156.3782317029974 L 750.5554999999999 -139.71153170299738 L 721.688 -156.3781317029974 L 721.6879 -189.71143170299737 Z"/><path fill="#000" stroke-width="0" d="M 750.5554 -139.7113317029974 L 779.4228999999999 -123.04473170299741 L 779.4228999999999 -89.7114317029974 L 750.5554999999999 -73.04473170299741 L 721.688 -89.7113317029974 L 721.6879 -123.0446317029974 Z"/><path fill="#000" stroke-width="0" d="M 692.8203 -106.37793170299742 L 721.6877999999999 -89.7113317029974 L 721.6877999999999 -56.378031702997404 L 692.8204 -39.711331702997406 L 663.9529 -56.37793170299741 L 663.9528 -89.71123170299741 Z"/><path fill="#000" stroke-width="0" d="M 635.0852 -139.7113317029974 L 663.9526999999999 -123.04473170299741 L 663.9526999999999 -89.7114317029974 L 635.0853 -73.04473170299741 L 606.2178 -89.7113317029974 L 606.2177 -123.0446317029974 Z"/><path fill="#000" stroke-width="0" d="M 635.0852 -206.3781317029974 L 663.9526999999999 -189.71153170299738 L 663.9526999999999 -156.3782317029974 L 635.0853 -139.71153170299738 L 606.2178 -156.3781317029974 L 606.2177 -189.71143170299737 Z"/><path fill="#000" stroke-width="0" d="M 519.6152 -139.7114317029974 L 548.4826999999999 -123.04483170299741 L 548.4826999999999 -89.7115317029974 L 519.6152999999999 -73.04483170299741 L 490.7478 -89.7114317029974 L 490.74769999999995 -123.04473170299741 Z"/><path fill="#000" stroke-width="0" d="M 577.3503 -106.3781317029974 L 606.2177999999999 -89.7115317029974 L 606.2177999999999 -56.3782317029974 L 577.3503999999999 -39.7115317029974 L 548.4829 -56.3781317029974 L 548.4828 -89.7114317029974 Z"/><path fill="#000" stroke-width="0" d="M 577.3503 -39.711331702997406 L 606.2177999999999 -23.044731702997403 L 606.2177999999999 10.288568297002595 L 577.3503999999999 26.955268297002597 L 548.4829 10.288668297002594 L 548.4828 -23.044631702997403 Z"/><path fill="#000" stroke-width="0" d="M 519.6152 -6.377931702997408 L 548.4826999999999 10.288668297002594 L 548.4826999999999 43.621968297002596 L 519.6152999999999 60.288668297002594 L 490.7478 43.62206829700259 L 490.74769999999995 10.288768297002594 Z"/><path fill="#000" stroke-width="0" d="M 461.88009999999997 -39.711331702997406 L 490.7476 -23.044731702997403 L 490.7476 10.288568297002595 L 461.88019999999995 26.955268297002597 L 433.0127 10.288668297002594 L 433.01259999999996 -23.044631702997403 Z"/><path fill="#000" stroke-width="0" d="M 461.88009999999997 -106.3781317029974 L 490.7476 -89.7115317029974 L 490.7476 -56.3782317029974 L 461.88019999999995 -39.7115317029974 L 433.0127 -56.3781317029974 L 433.01259999999996 -89.7114317029974 Z"/><path fill="#000" stroke-width="0" d="M 346.41009999999994 -239.7114317029974 L 375.27759999999995 -223.04483170299739 L 375.27759999999995 -189.7115317029974 L 346.4101999999999 -173.04483170299739 L 317.54269999999997 -189.7114317029974 L 317.54259999999994 -223.04473170299738 Z"/><path fill="#000" stroke-width="0" d="M 404.14519999999993 -206.3781317029974 L 433.01269999999994 -189.71153170299738 L 433.01269999999994 -156.3782317029974 L 404.1452999999999 -139.71153170299738 L 375.27779999999996 -156.3781317029974 L 375.2776999999999 -189.71143170299737 Z"/><path fill="#000" stroke-width="0" d="M 404.14519999999993 -139.7113317029974 L 433.01269999999994 -123.04473170299741 L 433.01269999999994 -89.7114317029974 L 404.1452999999999 -73.04473170299741 L 375.27779999999996 -89.7113317029974 L 375.2776999999999 -123.0446317029974 Z"/><path fill="#000" stroke-width="0" d="M 346.41009999999994 -106.37793170299742 L 375.27759999999995 -89.7113317029974 L 375.27759999999995 -56.378031702997404 L 346.4101999999999 -39.711331702997406 L 317.54269999999997 -56.37793170299741 L 317.54259999999994 -89.71123170299741 Z"/><path fill="#000" stroke-width="0" d="M 288.67499999999995 -139.7113317029974 L 317.54249999999996 -123.04473170299741 L 317.54249999999996 -89.7114317029974 L 288.67509999999993 -73.04473170299741 L 259.8076 -89.7113317029974 L 259.80749999999995 -123.0446317029974 Z"/><path fill="#000" stroke-width="0" d="M 288.67499999999995 -206.3781317029974 L 317.54249999999996 -189.71153170299738 L 317.54249999999996 -156.3782317029974 L 288.67509999999993 -139.71153170299738 L 259.8076 -156.3781317029974 L 259.80749999999995 -189.71143170299737 Z"/><path fill="#000" stroke-width="0" d="M 346.41009999999994 -439.7114317029974 L 375.27759999999995 -423.0448317029974 L 375.27759999999995 -389.7115317029974 L 346.4101999999999 -373.0448317029974 L 317.54269999999997 -389.7114317029974 L 317.54259999999994 -423.0447317029974 Z"/><path fill="#000" stroke-width="0" d="M 404.14519999999993 -406.3781317029974 L 433.01269999999994 -389.7115317029974 L 433.01269999999994 -356.37823170299737 L 404.1452999999999 -339.7115317029974 L 375.27779999999996 -356.3781317029974 L 375.2776999999999 -389.7114317029974 Z"/><path fill="#000" stroke-width="0" d="M 404.14519999999993 -339.7113317029974 L 433.01269999999994 -323.0447317029974 L 433.01269999999994 -289.7114317029974 L 404.1452999999999 -273.0447317029974 L 375.27779999999996 -289.7113317029974 L 375.2776999999999 -323.04463170299744 Z"/><path fill="#000" stroke-width="0" d="M 346.41009999999994 -306.37793170299744 L 375.27759999999995 -289.7113317029974 L 375.27759999999995 -256.3780317029974 L 346.4101999999999 -239.71133170299743 L 317.54269999999997 -256.37793170299744 L 317.54259999999994 -289.71123170299745 Z"/><path fill="#000" stroke-width="0" d="M 288.67499999999995 -339.7113317029974 L 317.54249999999996 -323.0447317029974 L 317.54249999999996 -289.7114317029974 L 288.67509999999993 -273.0447317029974 L 259.8076 -289.7113317029974 L 259.80749999999995 -323.04463170299744 Z"/><path fill="#000" stroke-width="0" d="M 288.67499999999995 -406.3781317029974 L 317.54249999999996 -389.7115317029974 L 317.54249999999996 -356.37823170299737 L 288.67509999999993 -339.7115317029974 L 259.8076 -356.3781317029974 L 259.80749999999995 -389.7114317029974 Z"/><path fill="#000" stroke-width="0" d="M 519.6152 60.28856829700259 L 548.4826999999999 76.95516829700259 L 548.4826999999999 110.2884682970026 L 519.6152999999999 126.95516829700259 L 490.7478 110.2885682970026 L 490.74769999999995 76.95526829700259 Z"/><path fill="#000" stroke-width="0" d="M 577.3503 93.6218682970026 L 606.2177999999999 110.2884682970026 L 606.2177999999999 143.6217682970026 L 577.3503999999999 160.2884682970026 L 548.4829 143.6218682970026 L 548.4828 110.2885682970026 Z"/><path fill="#000" stroke-width="0" d="M 577.3503 160.28866829700257 L 606.2177999999999 176.9552682970026 L 606.2177999999999 210.28856829700257 L 577.3503999999999 226.9552682970026 L 548.4829 210.28866829700257 L 548.4828 176.9553682970026 Z"/><path fill="#000" stroke-width="0" d="M 519.6152 193.62206829700258 L 548.4826999999999 210.2886682970026 L 548.4826999999999 243.62196829700258 L 519.6152999999999 260.2886682970026 L 490.7478 243.62206829700258 L 490.74769999999995 210.2887682970026 Z"/><path fill="#000" stroke-width="0" d="M 461.88009999999997 160.28866829700257 L 490.7476 176.9552682970026 L 490.7476 210.28856829700257 L 461.88019999999995 226.9552682970026 L 433.0127 210.28866829700257 L 433.01259999999996 176.9553682970026 Z"/><path fill="#000" stroke-width="0" d="M 461.88009999999997 93.6218682970026 L 490.7476 110.2884682970026 L 490.7476 143.6217682970026 L 461.88019999999995 160.2884682970026 L 433.0127 143.6218682970026 L 433.01259999999996 110.2885682970026 Z"/><path fill="#000" stroke-width="0" d="M 692.8203 160.2885682970026 L 721.6877999999999 176.95516829700261 L 721.6877999999999 210.2884682970026 L 692.8204 226.95516829700261 L 663.9529 210.2885682970026 L 663.9528 176.95526829700262 Z"/><path fill="#000" stroke-width="0" d="M 750.5554 193.6218682970026 L 779.4228999999999 210.28846829700262 L 779.4228999999999 243.6217682970026 L 750.5554999999999 260.2884682970026 L 721.688 243.6218682970026 L 721.6879 210.28856829700263 Z"/><path fill="#000" stroke-width="0" d="M 750.5554 260.2886682970026 L 779.4228999999999 276.9552682970026 L 779.4228999999999 310.2885682970026 L 750.5554999999999 326.9552682970026 L 721.688 310.2886682970026 L 721.6879 276.95536829700256 Z"/><path fill="#000" stroke-width="0" d="M 692.8203 293.62206829700256 L 721.6877999999999 310.2886682970026 L 721.6877999999999 343.6219682970026 L 692.8204 360.2886682970026 L 663.9529 343.62206829700256 L 663.9528 310.28876829700255 Z"/><path fill="#000" stroke-width="0" d="M 635.0852 260.2886682970026 L 663.9526999999999 276.9552682970026 L 663.9526999999999 310.2885682970026 L 635.0853 326.9552682970026 L 606.2178 310.2886682970026 L 606.2177 276.95536829700256 Z"/><path fill="#000" stroke-width="0" d="M 635.0852 193.6218682970026 L 663.9526999999999 210.28846829700262 L 663.9526999999999 243.6217682970026 L 635.0853 260.2884682970026 L 606.2178 243.6218682970026 L 606.2177 210.28856829700263 Z"/><path fill="#000" stroke-width="0" d="M 692.8203 360.2885682970026 L 721.6877999999999 376.9551682970026 L 721.6877999999999 410.2884682970026 L 692.8204 426.9551682970026 L 663.9529 410.2885682970026 L 663.9528 376.9552682970026 Z"/><path fill="#000" stroke-width="0" d="M 750.5554 393.6218682970026 L 779.4228999999999 410.2884682970026 L 779.4228999999999 443.62176829700263 L 750.5554999999999 460.2884682970026 L 721.688 443.6218682970026 L 721.6879 410.2885682970026 Z"/><path fill="#000" stroke-width="0" d="M 750.5554 460.2886682970026 L 779.4228999999999 476.9552682970026 L 779.4228999999999 510.2885682970026 L 750.5554999999999 526.9552682970026 L 721.688 510.2886682970026 L 721.6879 476.95536829700256 Z"/><path fill="#000" stroke-width="0" d="M 692.8203 493.62206829700256 L 721.6877999999999 510.2886682970026 L 721.6877999999999 543.6219682970026 L 692.8204 560.2886682970026 L 663.9529 543.6220682970026 L 663.9528 510.28876829700255 Z"/><path fill="#000" stroke-width="0" d="M 635.0852 460.2886682970026 L 663.9526999999999 476.9552682970026 L 663.9526999999999 510.2885682970026 L 635.0853 526.9552682970026 L 606.2178 510.2886682970026 L 606.2177 476.95536829700256 Z"/><path fill="#000" stroke-width="0" d="M 635.0852 393.6218682970026 L 663.9526999999999 410.2884682970026 L 663.9526999999999 443.62176829700263 L 635.0853 460.2884682970026 L 606.2178 443.6218682970026 L 606.2177 410.2885682970026 Z"/><path fill="#000" stroke-width="0" d="M 519.6152 460.2885682970026 L 548.4826999999999 476.9551682970026 L 548.4826999999999 510.2884682970026 L 519.6152999999999 526.9551682970026 L 490.7478 510.2885682970026 L 490.74769999999995 476.9552682970026 Z"/><path fill="#000" stroke-width="0" d="M 577.3503 493.6218682970026 L 606.2177999999999 510.2884682970026 L 606.2177999999999 543.6217682970026 L 577.3503999999999 560.2884682970026 L 548.4829 543.6218682970026 L 548.4828 510.2885682970026 Z"/><path fill="#000" stroke-width="0" d="M 577.3503 560.2886682970026 L 606.2177999999999 576.9552682970026 L 606.2177999999999 610.2885682970026 L 577.3503999999999 626.9552682970026 L 548.4829 610.2886682970026 L 548.4828 576.9553682970026 Z"/><path fill="#000" stroke-width="0" d="M 519.6152 593.6220682970026 L 548.4826999999999 610.2886682970026 L 548.4826999999999 643.6219682970026 L 519.6152999999999 660.2886682970026 L 490.7478 643.6220682970026 L 490.74769999999995 610.2887682970025 Z"/><path fill="#000" stroke-width="0" d="M 461.88009999999997 560.2886682970026 L 490.7476 576.9552682970026 L 490.7476 610.2885682970026 L 461.88019999999995 626.9552682970026 L 433.0127 610.2886682970026 L 433.01259999999996 576.9553682970026 Z"/><path fill="#000" stroke-width="0" d="M 461.88009999999997 493.6218682970026 L 490.7476 510.2884682970026 L 490.7476 543.6217682970026 L 461.88019999999995 560.2884682970026 L 433.0127 543.6218682970026 L 433.01259999999996 510.2885682970026 Z"/><path fill="#000" stroke-width="0" d="M 346.41009999999994 360.2885682970026 L 375.27759999999995 376.9551682970026 L 375.27759999999995 410.2884682970026 L 346.4101999999999 426.9551682970026 L 317.54269999999997 410.2885682970026 L 317.54259999999994 376.9552682970026 Z"/><path fill="#000" stroke-width="0" d="M 404.14519999999993 393.6218682970026 L 433.01269999999994 410.2884682970026 L 433.01269999999994 443.62176829700263 L 404.1452999999999 460.2884682970026 L 375.27779999999996 443.6218682970026 L 375.2776999999999 410.2885682970026 Z"/><path fill="#000" stroke-width="0" d="M 404.14519999999993 460.2886682970026 L 433.01269999999994 476.9552682970026 L 433.01269999999994 510.2885682970026 L 404.1452999999999 526.9552682970026 L 375.27779999999996 510.2886682970026 L 375.2776999999999 476.95536829700256 Z"/><path fill="#000" stroke-width="0" d="M 346.41009999999994 493.62206829700256 L 375.27759999999995 510.2886682970026 L 375.27759999999995 543.6219682970026 L 346.4101999999999 560.2886682970026 L 317.54269999999997 543.6220682970026 L 317.54259999999994 510.28876829700255 Z"/><path fill="#000" stroke-width="0" d="M 288.67499999999995 460.2886682970026 L 317.54249999999996 476.9552682970026 L 317.54249999999996 510.2885682970026 L 288.67509999999993 526.9552682970026 L 259.8076 510.2886682970026 L 259.80749999999995 476.95536829700256 Z"/><path fill="#000" stroke-width="0" d="M 288.67499999999995 393.6218682970026 L 317.54249999999996 410.2884682970026 L 317.54249999999996 443.62176829700263 L 288.67509999999993 460.2884682970026 L 259.8076 443.6218682970026 L 259.80749999999995 410.2885682970026 Z"/><path fill="#000" stroke-width="0" d="M 346.41009999999994 160.2885682970026 L 375.27759999999995 176.95516829700261 L 375.27759999999995 210.2884682970026 L 346.4101999999999 226.95516829700261 L 317.54269999999997 210.2885682970026 L 317.54259999999994 176.95526829700262 Z"/><path fill="#000" stroke-width="0" d="M 404.14519999999993 193.6218682970026 L 433.01269999999994 210.28846829700262 L 433.01269999999994 243.6217682970026 L 404.1452999999999 260.2884682970026 L 375.27779999999996 243.6218682970026 L 375.2776999999999 210.28856829700263 Z"/><path fill="#000" stroke-width="0" d="M 404.14519999999993 260.2886682970026 L 433.01269999999994 276.9552682970026 L 433.01269999999994 310.2885682970026 L 404.1452999999999 326.9552682970026 L 375.27779999999996 310.2886682970026 L 375.2776999999999 276.95536829700256 Z"/><path fill="#000" stroke-width="0" d="M 346.41009999999994 293.62206829700256 L 375.27759999999995 310.2886682970026 L 375.27759999999995 343.6219682970026 L 346.4101999999999 360.2886682970026 L 317.54269999999997 343.62206829700256 L 317.54259999999994 310.28876829700255 Z"/><path fill="#000" stroke-width="0" d="M 288.67499999999995 260.2886682970026 L 317.54249999999996 276.9552682970026 L 317.54249999999996 310.2885682970026 L 288.67509999999993 326.9552682970026 L 259.8076 310.2886682970026 L 259.80749999999995 276.95536829700256 Z"/><path fill="#000" stroke-width="0" d="M 288.67499999999995 193.6218682970026 L 317.54249999999996 210.28846829700262 L 317.54249999999996 243.6217682970026 L 288.67509999999993 260.2884682970026 L 259.8076 243.6218682970026 L 259.80749999999995 210.28856829700263 Z"/><path fill="#000" stroke-width="0" d="M 0 360.2885682970026 L 28.8675 376.9551682970026 L 28.8675 410.2884682970026 L 0.0001 426.9551682970026 L -28.8674 410.2885682970026 L -28.8675 376.9552682970026 Z"/><path fill="#000" stroke-width="0" d="M 57.7351 393.6218682970026 L 86.6026 410.2884682970026 L 86.6026 443.62176829700263 L 57.735200000000006 460.2884682970026 L 28.867700000000003 443.6218682970026 L 28.867600000000003 410.2885682970026 Z"/><path fill="#000" stroke-width="0" d="M 57.7351 460.2886682970026 L 86.6026 476.9552682970026 L 86.6026 510.2885682970026 L 57.735200000000006 526.9552682970026 L 28.867700000000003 510.2886682970026 L 28.867600000000003 476.95536829700256 Z"/><path fill="#000" stroke-width="0" d="M 0 493.62206829700256 L 28.8675 510.2886682970026 L 28.8675 543.6219682970026 L 0.0001 560.2886682970026 L -28.8674 543.6220682970026 L -28.8675 510.28876829700255 Z"/><path fill="#000" stroke-width="0" d="M -57.7351 460.2886682970026 L -28.867600000000003 476.9552682970026 L -28.867600000000003 510.2885682970026 L -57.735 526.9552682970026 L -86.6025 510.2886682970026 L -86.6026 476.95536829700256 Z"/><path fill="#000" stroke-width="0" d="M -57.7351 393.6218682970026 L -28.867600000000003 410.2884682970026 L -28.867600000000003 443.62176829700263 L -57.735 460.2884682970026 L -86.6025 443.6218682970026 L -86.6026 410.2885682970026 Z"/><path fill="#000" stroke-width="0" d="M 173.2051 460.2885682970026 L 202.0726 476.9551682970026 L 202.0726 510.2884682970026 L 173.2052 526.9551682970026 L 144.33769999999998 510.2885682970026 L 144.33759999999998 476.9552682970026 Z"/><path fill="#000" stroke-width="0" d="M 230.9402 493.6218682970026 L 259.8077 510.2884682970026 L 259.8077 543.6217682970026 L 230.9403 560.2884682970026 L 202.0728 543.6218682970026 L 202.0727 510.2885682970026 Z"/><path fill="#000" stroke-width="0" d="M 230.9402 560.2886682970026 L 259.8077 576.9552682970026 L 259.8077 610.2885682970026 L 230.9403 626.9552682970026 L 202.0728 610.2886682970026 L 202.0727 576.9553682970026 Z"/><path fill="#000" stroke-width="0" d="M 173.2051 593.6220682970026 L 202.0726 610.2886682970026 L 202.0726 643.6219682970026 L 173.2052 660.2886682970026 L 144.33769999999998 643.6220682970026 L 144.33759999999998 610.2887682970025 Z"/><path fill="#000" stroke-width="0" d="M 115.46999999999998 560.2886682970026 L 144.33749999999998 576.9552682970026 L 144.33749999999998 610.2885682970026 L 115.47009999999999 626.9552682970026 L 86.60259999999998 610.2886682970026 L 86.60249999999999 576.9553682970026 Z"/><path fill="#000" stroke-width="0" d="M 115.46999999999998 493.6218682970026 L 144.33749999999998 510.2884682970026 L 144.33749999999998 543.6217682970026 L 115.47009999999999 560.2884682970026 L 86.60259999999998 543.6218682970026 L 86.60249999999999 510.2885682970026 Z"/><path fill="#000" stroke-width="0" d="M 173.2051 660.2885682970026 L 202.0726 676.9551682970026 L 202.0726 710.2884682970026 L 173.2052 726.9551682970026 L 144.33769999999998 710.2885682970026 L 144.33759999999998 676.9552682970026 Z"/><path fill="#000" stroke-width="0" d="M 230.9402 693.6218682970026 L 259.8077 710.2884682970026 L 259.8077 743.6217682970026 L 230.9403 760.2884682970026 L 202.0728 743.6218682970026 L 202.0727 710.2885682970026 Z"/><path fill="#000" stroke-width="0" d="M 230.9402 760.2886682970026 L 259.8077 776.9552682970026 L 259.8077 810.2885682970026 L 230.9403 826.9552682970026 L 202.0728 810.2886682970026 L 202.0727 776.9553682970026 Z"/><path fill="#000" stroke-width="0" d="M 173.2051 793.6220682970026 L 202.0726 810.2886682970026 L 202.0726 843.6219682970026 L 173.2052 860.2886682970026 L 144.33769999999998 843.6220682970026 L 144.33759999999998 810.2887682970025 Z"/><path fill="#000" stroke-width="0" d="M 115.46999999999998 760.2886682970026 L 144.33749999999998 776.9552682970026 L 144.33749999999998 810.2885682970026 L 115.47009999999999 826.9552682970026 L 86.60259999999998 810.2886682970026 L 86.60249999999999 776.9553682970026 Z"/><path fill="#000" stroke-width="0" d="M 115.46999999999998 693.6218682970026 L 144.33749999999998 710.2884682970026 L 144.33749999999998 743.6217682970026 L 115.47009999999999 760.2884682970026 L 86.60259999999998 743.6218682970026 L 86.60249999999999 710.2885682970026 Z"/><path fill="#000" stroke-width="0" d="M 0 760.2885682970026 L 28.8675 776.9551682970026 L 28.8675 810.2884682970026 L 0.0001 826.9551682970026 L -28.8674 810.2885682970026 L -28.8675 776.9552682970026 Z"/><path fill="#000" stroke-width="0" d="M 57.7351 793.6218682970026 L 86.6026 810.2884682970026 L 86.6026 843.6217682970026 L 57.735200000000006 860.2884682970026 L 28.867700000000003 843.6218682970026 L 28.867600000000003 810.2885682970026 Z"/><path fill="#000" stroke-width="0" d="M 57.7351 860.2886682970026 L 86.6026 876.9552682970026 L 86.6026 910.2885682970026 L 57.735200000000006 926.9552682970026 L 28.867700000000003 910.2886682970026 L 28.867600000000003 876.9553682970026 Z"/><path fill="#000" stroke-width="0" d="M 0 893.6220682970026 L 28.8675 910.2886682970026 L 28.8675 943.6219682970026 L 0.0001 960.2886682970026 L -28.8674 943.6220682970026 L -28.8675 910.2887682970025 Z"/><path fill="#000" stroke-width="0" d="M -57.7351 860.2886682970026 L -28.867600000000003 876.9552682970026 L -28.867600000000003 910.2885682970026 L -57.735 926.9552682970026 L -86.6025 910.2886682970026 L -86.6026 876.9553682970026 Z"/><path fill="#000" stroke-width="0" d="M -57.7351 793.6218682970026 L -28.867600000000003 810.2884682970026 L -28.867600000000003 843.6217682970026 L -57.735 860.2884682970026 L -86.6025 843.6218682970026 L -86.6026 810.2885682970026 Z"/><path fill="#000" stroke-width="0" d="M -173.2051 660.2885682970026 L -144.33759999999998 676.9551682970026 L -144.33759999999998 710.2884682970026 L -173.20499999999998 726.9551682970026 L -202.0725 710.2885682970026 L -202.0726 676.9552682970026 Z"/><path fill="#000" stroke-width="0" d="M -115.46999999999998 693.6218682970026 L -86.60249999999999 710.2884682970026 L -86.60249999999999 743.6217682970026 L -115.46989999999998 760.2884682970026 L -144.33739999999997 743.6218682970026 L -144.33749999999998 710.2885682970026 Z"/><path fill="#000" stroke-width="0" d="M -115.46999999999998 760.2886682970026 L -86.60249999999999 776.9552682970026 L -86.60249999999999 810.2885682970026 L -115.46989999999998 826.9552682970026 L -144.33739999999997 810.2886682970026 L -144.33749999999998 776.9553682970026 Z"/><path fill="#000" stroke-width="0" d="M -173.2051 793.6220682970026 L -144.33759999999998 810.2886682970026 L -144.33759999999998 843.6219682970026 L -173.20499999999998 860.2886682970026 L -202.0725 843.6220682970026 L -202.0726 810.2887682970025 Z"/><path fill="#000" stroke-width="0" d="M -230.9402 760.2886682970026 L -202.0727 776.9552682970026 L -202.0727 810.2885682970026 L -230.9401 826.9552682970026 L -259.8076 810.2886682970026 L -259.8077 776.9553682970026 Z"/><path fill="#000" stroke-width="0" d="M -230.9402 693.6218682970026 L -202.0727 710.2884682970026 L -202.0727 743.6217682970026 L -230.9401 760.2884682970026 L -259.8076 743.6218682970026 L -259.8077 710.2885682970026 Z"/><path fill="#000" stroke-width="0" d="M -173.2051 460.2885682970026 L -144.33759999999998 476.9551682970026 L -144.33759999999998 510.2884682970026 L -173.20499999999998 526.9551682970026 L -202.0725 510.2885682970026 L -202.0726 476.9552682970026 Z"/><path fill="#000" stroke-width="0" d="M -115.46999999999998 493.6218682970026 L -86.60249999999999 510.2884682970026 L -86.60249999999999 543.6217682970026 L -115.46989999999998 560.2884682970026 L -144.33739999999997 543.6218682970026 L -144.33749999999998 510.2885682970026 Z"/><path fill="#000" stroke-width="0" d="M -115.46999999999998 560.2886682970026 L -86.60249999999999 576.9552682970026 L -86.60249999999999 610.2885682970026 L -115.46989999999998 626.9552682970026 L -144.33739999999997 610.2886682970026 L -144.33749999999998 576.9553682970026 Z"/><path fill="#000" stroke-width="0" d="M -173.2051 593.6220682970026 L -144.33759999999998 610.2886682970026 L -144.33759999999998 643.6219682970026 L -173.20499999999998 660.2886682970026 L -202.0725 643.6220682970026 L -202.0726 610.2887682970025 Z"/><path fill="#000" stroke-width="0" d="M -230.9402 560.2886682970026 L -202.0727 576.9552682970026 L -202.0727 610.2885682970026 L -230.9401 626.9552682970026 L -259.8076 610.2886682970026 L -259.8077 576.9553682970026 Z"/><path fill="#000" stroke-width="0" d="M -230.9402 493.6218682970026 L -202.0727 510.2884682970026 L -202.0727 543.6217682970026 L -230.9401 560.2884682970026 L -259.8076 543.6218682970026 L -259.8077 510.2885682970026 Z"/><path fill="#000" stroke-width="0" d="M -519.6152 60.28856829700259 L -490.74769999999995 76.95516829700259 L -490.74769999999995 110.2884682970026 L -519.6151 126.95516829700259 L -548.4825999999999 110.2885682970026 L -548.4826999999999 76.95526829700259 Z"/><path fill="#000" stroke-width="0" d="M -461.88009999999997 93.6218682970026 L -433.01259999999996 110.2884682970026 L -433.01259999999996 143.6217682970026 L -461.88 160.2884682970026 L -490.74749999999995 143.6218682970026 L -490.7476 110.2885682970026 Z"/><path fill="#000" stroke-width="0" d="M -461.88009999999997 160.28866829700257 L -433.01259999999996 176.9552682970026 L -433.01259999999996 210.28856829700257 L -461.88 226.9552682970026 L -490.74749999999995 210.28866829700257 L -490.7476 176.9553682970026 Z"/><path fill="#000" stroke-width="0" d="M -519.6152 193.62206829700258 L -490.74769999999995 210.2886682970026 L -490.74769999999995 243.62196829700258 L -519.6151 260.2886682970026 L -548.4825999999999 243.62206829700258 L -548.4826999999999 210.2887682970026 Z"/><path fill="#000" stroke-width="0" d="M -577.3503 160.28866829700257 L -548.4828 176.9552682970026 L -548.4828 210.28856829700257 L -577.3502 226.9552682970026 L -606.2176999999999 210.28866829700257 L -606.2177999999999 176.9553682970026 Z"/><path fill="#000" stroke-width="0" d="M -577.3503 93.6218682970026 L -548.4828 110.2884682970026 L -548.4828 143.6217682970026 L -577.3502 160.2884682970026 L -606.2176999999999 143.6218682970026 L -606.2177999999999 110.2885682970026 Z"/><path fill="#000" stroke-width="0" d="M -346.41009999999994 160.2885682970026 L -317.54259999999994 176.95516829700261 L -317.54259999999994 210.2884682970026 L -346.40999999999997 226.95516829700261 L -375.2774999999999 210.2885682970026 L -375.27759999999995 176.95526829700262 Z"/><path fill="#000" stroke-width="0" d="M -288.67499999999995 193.6218682970026 L -259.80749999999995 210.28846829700262 L -259.80749999999995 243.6217682970026 L -288.6749 260.2884682970026 L -317.54239999999993 243.6218682970026 L -317.54249999999996 210.28856829700263 Z"/><path fill="#000" stroke-width="0" d="M -288.67499999999995 260.2886682970026 L -259.80749999999995 276.9552682970026 L -259.80749999999995 310.2885682970026 L -288.6749 326.9552682970026 L -317.54239999999993 310.2886682970026 L -317.54249999999996 276.95536829700256 Z"/><path fill="#000" stroke-width="0" d="M -346.41009999999994 293.62206829700256 L -317.54259999999994 310.2886682970026 L -317.54259999999994 343.6219682970026 L -346.40999999999997 360.2886682970026 L -375.2774999999999 343.62206829700256 L -375.27759999999995 310.28876829700255 Z"/><path fill="#000" stroke-width="0" d="M -404.14519999999993 260.2886682970026 L -375.2776999999999 276.9552682970026 L -375.2776999999999 310.2885682970026 L -404.14509999999996 326.9552682970026 L -433.0125999999999 310.2886682970026 L -433.01269999999994 276.95536829700256 Z"/><path fill="#000" stroke-width="0" d="M -404.14519999999993 193.6218682970026 L -375.2776999999999 210.28846829700262 L -375.2776999999999 243.6217682970026 L -404.14509999999996 260.2884682970026 L -433.0125999999999 243.6218682970026 L -433.01269999999994 210.28856829700263 Z"/><path fill="#000" stroke-width="0" d="M -346.41009999999994 360.2885682970026 L -317.54259999999994 376.9551682970026 L -317.54259999999994 410.2884682970026 L -346.40999999999997 426.9551682970026 L -375.2774999999999 410.2885682970026 L -375.27759999999995 376.9552682970026 Z"/><path fill="#000" stroke-width="0" d="M -288.67499999999995 393.6218682970026 L -259.80749999999995 410.2884682970026 L -259.80749999999995 443.62176829700263 L -288.6749 460.2884682970026 L -317.54239999999993 443.6218682970026 L -317.54249999999996 410.2885682970026 Z"/><path fill="#000" stroke-width="0" d="M -288.67499999999995 460.2886682970026 L -259.80749999999995 476.9552682970026 L -259.80749999999995 510.2885682970026 L -288.6749 526.9552682970026 L -317.54239999999993 510.2886682970026 L -317.54249999999996 476.95536829700256 Z"/><path fill="#000" stroke-width="0" d="M -346.41009999999994 493.62206829700256 L -317.54259999999994 510.2886682970026 L -317.54259999999994 543.6219682970026 L -346.40999999999997 560.2886682970026 L -375.2774999999999 543.6220682970026 L -375.27759999999995 510.28876829700255 Z"/><path fill="#000" stroke-width="0" d="M -404.14519999999993 460.2886682970026 L -375.2776999999999 476.9552682970026 L -375.2776999999999 510.2885682970026 L -404.14509999999996 526.9552682970026 L -433.0125999999999 510.2886682970026 L -433.01269999999994 476.95536829700256 Z"/><path fill="#000" stroke-width="0" d="M -404.14519999999993 393.6218682970026 L -375.2776999999999 410.2884682970026 L -375.2776999999999 443.62176829700263 L -404.14509999999996 460.2884682970026 L -433.0125999999999 443.6218682970026 L -433.01269999999994 410.2885682970026 Z"/><path fill="#000" stroke-width="0" d="M -519.6152 460.2885682970026 L -490.74769999999995 476.9551682970026 L -490.74769999999995 510.2884682970026 L -519.6151 526.9551682970026 L -548.4825999999999 510.2885682970026 L -548.4826999999999 476.9552682970026 Z"/><path fill="#000" stroke-width="0" d="M -461.88009999999997 493.6218682970026 L -433.01259999999996 510.2884682970026 L -433.01259999999996 543.6217682970026 L -461.88 560.2884682970026 L -490.74749999999995 543.6218682970026 L -490.7476 510.2885682970026 Z"/><path fill="#000" stroke-width="0" d="M -461.88009999999997 560.2886682970026 L -433.01259999999996 576.9552682970026 L -433.01259999999996 610.2885682970026 L -461.88 626.9552682970026 L -490.74749999999995 610.2886682970026 L -490.7476 576.9553682970026 Z"/><path fill="#000" stroke-width="0" d="M -519.6152 593.6220682970026 L -490.74769999999995 610.2886682970026 L -490.74769999999995 643.6219682970026 L -519.6151 660.2886682970026 L -548.4825999999999 643.6220682970026 L -548.4826999999999 610.2887682970025 Z"/><path fill="#000" stroke-width="0" d="M -577.3503 560.2886682970026 L -548.4828 576.9552682970026 L -548.4828 610.2885682970026 L -577.3502 626.9552682970026 L -606.2176999999999 610.2886682970026 L -606.2177999999999 576.9553682970026 Z"/><path fill="#000" stroke-width="0" d="M -577.3503 493.6218682970026 L -548.4828 510.2884682970026 L -548.4828 543.6217682970026 L -577.3502 560.2884682970026 L -606.2176999999999 543.6218682970026 L -606.2177999999999 510.2885682970026 Z"/><path fill="#000" stroke-width="0" d="M -692.8203 360.2885682970026 L -663.9528 376.9551682970026 L -663.9528 410.2884682970026 L -692.8202 426.9551682970026 L -721.6877 410.2885682970026 L -721.6877999999999 376.9552682970026 Z"/><path fill="#000" stroke-width="0" d="M -635.0852 393.6218682970026 L -606.2177 410.2884682970026 L -606.2177 443.62176829700263 L -635.0851 460.2884682970026 L -663.9526 443.6218682970026 L -663.9526999999999 410.2885682970026 Z"/><path fill="#000" stroke-width="0" d="M -635.0852 460.2886682970026 L -606.2177 476.9552682970026 L -606.2177 510.2885682970026 L -635.0851 526.9552682970026 L -663.9526 510.2886682970026 L -663.9526999999999 476.95536829700256 Z"/><path fill="#000" stroke-width="0" d="M -692.8203 493.62206829700256 L -663.9528 510.2886682970026 L -663.9528 543.6219682970026 L -692.8202 560.2886682970026 L -721.6877 543.6220682970026 L -721.6877999999999 510.28876829700255 Z"/><path fill="#000" stroke-width="0" d="M -750.5554 460.2886682970026 L -721.6879 476.9552682970026 L -721.6879 510.2885682970026 L -750.5553 526.9552682970026 L -779.4227999999999 510.2886682970026 L -779.4228999999999 476.95536829700256 Z"/><path fill="#000" stroke-width="0" d="M -750.5554 393.6218682970026 L -721.6879 410.2884682970026 L -721.6879 443.62176829700263 L -750.5553 460.2884682970026 L -779.4227999999999 443.6218682970026 L -779.4228999999999 410.2885682970026 Z"/><path fill="#000" stroke-width="0" d="M -692.8203 160.2885682970026 L -663.9528 176.95516829700261 L -663.9528 210.2884682970026 L -692.8202 226.95516829700261 L -721.6877 210.2885682970026 L -721.6877999999999 176.95526829700262 Z"/><path fill="#000" stroke-width="0" d="M -635.0852 193.6218682970026 L -606.2177 210.28846829700262 L -606.2177 243.6217682970026 L -635.0851 260.2884682970026 L -663.9526 243.6218682970026 L -663.9526999999999 210.28856829700263 Z"/><path fill="#000" stroke-width="0" d="M -635.0852 260.2886682970026 L -606.2177 276.9552682970026 L -606.2177 310.2885682970026 L -635.0851 326.9552682970026 L -663.9526 310.2886682970026 L -663.9526999999999 276.95536829700256 Z"/><path fill="#000" stroke-width="0" d="M -692.8203 293.62206829700256 L -663.9528 310.2886682970026 L -663.9528 343.6219682970026 L -692.8202 360.2886682970026 L -721.6877 343.62206829700256 L -721.6877999999999 310.28876829700255 Z"/><path fill="#000" stroke-width="0" d="M -750.5554 260.2886682970026 L -721.6879 276.9552682970026 L -721.6879 310.2885682970026 L -750.5553 326.9552682970026 L -779.4227999999999 310.2886682970026 L -779.4228999999999 276.95536829700256 Z"/><path fill="#000" stroke-width="0" d="M -750.5554 193.6218682970026 L -721.6879 210.28846829700262 L -721.6879 243.6217682970026 L -750.5553 260.2884682970026 L -779.4227999999999 243.6218682970026 L -779.4228999999999 210.28856829700263 Z"/><path fill="#000" stroke-width="0" d="M -519.6152 -539.7114317029974 L -490.74769999999995 -523.0448317029974 L -490.74769999999995 -489.7115317029974 L -519.6151 -473.0448317029974 L -548.4825999999999 -489.7114317029974 L -548.4826999999999 -523.0447317029974 Z"/><path fill="#000" stroke-width="0" d="M -461.88009999999997 -506.3781317029974 L -433.01259999999996 -489.7115317029974 L -433.01259999999996 -456.37823170299737 L -461.88 -439.7115317029974 L -490.74749999999995 -456.3781317029974 L -490.7476 -489.7114317029974 Z"/><path fill="#000" stroke-width="0" d="M -461.88009999999997 -439.7113317029974 L -433.01259999999996 -423.0447317029974 L -433.01259999999996 -389.7114317029974 L -461.88 -373.0447317029974 L -490.74749999999995 -389.7113317029974 L -490.7476 -423.04463170299744 Z"/><path fill="#000" stroke-width="0" d="M -519.6152 -406.37793170299744 L -490.74769999999995 -389.7113317029974 L -490.74769999999995 -356.3780317029974 L -519.6151 -339.7113317029974 L -548.4825999999999 -356.37793170299744 L -548.4826999999999 -389.71123170299745 Z"/><path fill="#000" stroke-width="0" d="M -577.3503 -439.7113317029974 L -548.4828 -423.0447317029974 L -548.4828 -389.7114317029974 L -577.3502 -373.0447317029974 L -606.2176999999999 -389.7113317029974 L -606.2177999999999 -423.04463170299744 Z"/><path fill="#000" stroke-width="0" d="M -577.3503 -506.3781317029974 L -548.4828 -489.7115317029974 L -548.4828 -456.37823170299737 L -577.3502 -439.7115317029974 L -606.2176999999999 -456.3781317029974 L -606.2177999999999 -489.7114317029974 Z"/><path fill="#000" stroke-width="0" d="M -346.41009999999994 -439.7114317029974 L -317.54259999999994 -423.0448317029974 L -317.54259999999994 -389.7115317029974 L -346.40999999999997 -373.0448317029974 L -375.2774999999999 -389.7114317029974 L -375.27759999999995 -423.0447317029974 Z"/><path fill="#000" stroke-width="0" d="M -288.67499999999995 -406.3781317029974 L -259.80749999999995 -389.7115317029974 L -259.80749999999995 -356.37823170299737 L -288.6749 -339.7115317029974 L -317.54239999999993 -356.3781317029974 L -317.54249999999996 -389.7114317029974 Z"/><path fill="#000" stroke-width="0" d="M -288.67499999999995 -339.7113317029974 L -259.80749999999995 -323.0447317029974 L -259.80749999999995 -289.7114317029974 L -288.6749 -273.0447317029974 L -317.54239999999993 -289.7113317029974 L -317.54249999999996 -323.04463170299744 Z"/><path fill="#000" stroke-width="0" d="M -346.41009999999994 -306.37793170299744 L -317.54259999999994 -289.7113317029974 L -317.54259999999994 -256.3780317029974 L -346.40999999999997 -239.71133170299743 L -375.2774999999999 -256.37793170299744 L -375.27759999999995 -289.71123170299745 Z"/><path fill="#000" stroke-width="0" d="M -404.14519999999993 -339.7113317029974 L -375.2776999999999 -323.0447317029974 L -375.2776999999999 -289.7114317029974 L -404.14509999999996 -273.0447317029974 L -433.0125999999999 -289.7113317029974 L -433.01269999999994 -323.04463170299744 Z"/><path fill="#000" stroke-width="0" d="M -404.14519999999993 -406.3781317029974 L -375.2776999999999 -389.7115317029974 L -375.2776999999999 -356.37823170299737 L -404.14509999999996 -339.7115317029974 L -433.0125999999999 -356.3781317029974 L -433.01269999999994 -389.7114317029974 Z"/><path fill="#000" stroke-width="0" d="M -346.41009999999994 -239.7114317029974 L -317.54259999999994 -223.04483170299739 L -317.54259999999994 -189.7115317029974 L -346.40999999999997 -173.04483170299739 L -375.2774999999999 -189.7114317029974 L -375.27759999999995 -223.04473170299738 Z"/><path fill="#000" stroke-width="0" d="M -288.67499999999995 -206.3781317029974 L -259.80749999999995 -189.71153170299738 L -259.80749999999995 -156.3782317029974 L -288.6749 -139.71153170299738 L -317.54239999999993 -156.3781317029974 L -317.54249999999996 -189.71143170299737 Z"/><path fill="#000" stroke-width="0" d="M -288.67499999999995 -139.7113317029974 L -259.80749999999995 -123.04473170299741 L -259.80749999999995 -89.7114317029974 L -288.6749 -73.04473170299741 L -317.54239999999993 -89.7113317029974 L -317.54249999999996 -123.0446317029974 Z"/><path fill="#000" stroke-width="0" d="M -346.41009999999994 -106.37793170299742 L -317.54259999999994 -89.7113317029974 L -317.54259999999994 -56.378031702997404 L -346.40999999999997 -39.711331702997406 L -375.2774999999999 -56.37793170299741 L -375.27759999999995 -89.71123170299741 Z"/><path fill="#000" stroke-width="0" d="M -404.14519999999993 -139.7113317029974 L -375.2776999999999 -123.04473170299741 L -375.2776999999999 -89.7114317029974 L -404.14509999999996 -73.04473170299741 L -433.0125999999999 -89.7113317029974 L -433.01269999999994 -123.0446317029974 Z"/><path fill="#000" stroke-width="0" d="M -404.14519999999993 -206.3781317029974 L -375.2776999999999 -189.71153170299738 L -375.2776999999999 -156.3782317029974 L -404.14509999999996 -139.71153170299738 L -433.0125999999999 -156.3781317029974 L -433.01269999999994 -189.71143170299737 Z"/><path fill="#000" stroke-width="0" d="M -519.6152 -139.7114317029974 L -490.74769999999995 -123.04483170299741 L -490.74769999999995 -89.7115317029974 L -519.6151 -73.04483170299741 L -548.4825999999999 -89.7114317029974 L -548.4826999999999 -123.04473170299741 Z"/><path fill="#000" stroke-width="0" d="M -461.88009999999997 -106.3781317029974 L -433.01259999999996 -89.7115317029974 L -433.01259999999996 -56.3782317029974 L -461.88 -39.7115317029974 L -490.74749999999995 -56.3781317029974 L -490.7476 -89.7114317029974 Z"/><path fill="#000" stroke-width="0" d="M -461.88009999999997 -39.711331702997406 L -433.01259999999996 -23.044731702997403 L -433.01259999999996 10.288568297002595 L -461.88 26.955268297002597 L -490.74749999999995 10.288668297002594 L -490.7476 -23.044631702997403 Z"/><path fill="#000" stroke-width="0" d="M -519.6152 -6.377931702997408 L -490.74769999999995 10.288668297002594 L -490.74769999999995 43.621968297002596 L -519.6151 60.288668297002594 L -548.4825999999999 43.62206829700259 L -548.4826999999999 10.288768297002594 Z"/><path fill="#000" stroke-width="0" d="M -577.3503 -39.711331702997406 L -548.4828 -23.044731702997403 L -548.4828 10.288568297002595 L -577.3502 26.955268297002597 L -606.2176999999999 10.288668297002594 L -606.2177999999999 -23.044631702997403 Z"/><path fill="#000" stroke-width="0" d="M -577.3503 -106.3781317029974 L -548.4828 -89.7115317029974 L -548.4828 -56.3782317029974 L -577.3502 -39.7115317029974 L -606.2176999999999 -56.3781317029974 L -606.2177999999999 -89.7114317029974 Z"/><path fill="#000" stroke-width="0" d="M -692.8203 -239.7114317029974 L -663.9528 -223.04483170299739 L -663.9528 -189.7115317029974 L -692.8202 -173.04483170299739 L -721.6877 -189.7114317029974 L -721.6877999999999 -223.04473170299738 Z"/><path fill="#000" stroke-width="0" d="M -635.0852 -206.3781317029974 L -606.2177 -189.71153170299738 L -606.2177 -156.3782317029974 L -635.0851 -139.71153170299738 L -663.9526 -156.3781317029974 L -663.9526999999999 -189.71143170299737 Z"/><path fill="#000" stroke-width="0" d="M -635.0852 -139.7113317029974 L -606.2177 -123.04473170299741 L -606.2177 -89.7114317029974 L -635.0851 -73.04473170299741 L -663.9526 -89.7113317029974 L -663.9526999999999 -123.0446317029974 Z"/><path fill="#000" stroke-width="0" d="M -692.8203 -106.37793170299742 L -663.9528 -89.7113317029974 L -663.9528 -56.378031702997404 L -692.8202 -39.711331702997406 L -721.6877 -56.37793170299741 L -721.6877999999999 -89.71123170299741 Z"/><path fill="#000" stroke-width="0" d="M -750.5554 -139.7113317029974 L -721.6879 -123.04473170299741 L -721.6879 -89.7114317029974 L -750.5553 -73.04473170299741 L -779.4227999999999 -89.7113317029974 L -779.4228999999999 -123.0446317029974 Z"/><path fill="#000" stroke-width="0" d="M -750.5554 -206.3781317029974 L -721.6879 -189.71153170299738 L -721.6879 -156.3782317029974 L -750.5553 -139.71153170299738 L -779.4227999999999 -156.3781317029974 L -779.4228999999999 -189.71143170299737 Z"/><path fill="#000" stroke-width="0" d="M -692.8203 -439.7114317029974 L -663.9528 -423.0448317029974 L -663.9528 -389.7115317029974 L -692.8202 -373.0448317029974 L -721.6877 -389.7114317029974 L -721.6877999999999 -423.0447317029974 Z"/><path fill="#000" stroke-width="0" d="M -635.0852 -406.3781317029974 L -606.2177 -389.7115317029974 L -606.2177 -356.37823170299737 L -635.0851 -339.7115317029974 L -663.9526 -356.3781317029974 L -663.9526999999999 -389.7114317029974 Z"/><path fill="#000" stroke-width="0" d="M -635.0852 -339.7113317029974 L -606.2177 -323.0447317029974 L -606.2177 -289.7114317029974 L -635.0851 -273.0447317029974 L -663.9526 -289.7113317029974 L -663.9526999999999 -323.04463170299744 Z"/><path fill="#000" stroke-width="0" d="M -692.8203 -306.37793170299744 L -663.9528 -289.7113317029974 L -663.9528 -256.3780317029974 L -692.8202 -239.71133170299743 L -721.6877 -256.37793170299744 L -721.6877999999999 -289.71123170299745 Z"/><path fill="#000" stroke-width="0" d="M -750.5554 -339.7113317029974 L -721.6879 -323.0447317029974 L -721.6879 -289.7114317029974 L -750.5553 -273.0447317029974 L -779.4227999999999 -289.7113317029974 L -779.4228999999999 -323.04463170299744 Z"/><path fill="#000" stroke-width="0" d="M -750.5554 -406.3781317029974 L -721.6879 -389.7115317029974 L -721.6879 -356.37823170299737 L -750.5553 -339.7115317029974 L -779.4227999999999 -356.3781317029974 L -779.4228999999999 -389.7114317029974 Z"/><path fill="#000" stroke-width="0" d="M 0 -39.71143170299742 L 28.8675 -23.04483170299742 L 28.8675 10.288468297002577 L 0.0001 26.95516829700258 L -28.8674 10.288568297002577 L -28.8675 -23.04473170299742 Z"/><path fill="#000" stroke-width="0" d="M 57.7351 -6.378131702997415 L 86.6026 10.288468297002588 L 86.6026 43.62176829700259 L 57.735200000000006 60.28846829700259 L 28.867700000000003 43.621868297002585 L 28.867600000000003 10.288568297002588 Z"/><path fill="#000" stroke-width="0" d="M 57.7351 60.28866829700258 L 86.6026 76.95526829700259 L 86.6026 110.28856829700258 L 57.735200000000006 126.95526829700259 L 28.867700000000003 110.28866829700257 L 28.867600000000003 76.95536829700258 Z"/><path fill="#000" stroke-width="0" d="M 0 93.62206829700258 L 28.8675 110.28866829700257 L 28.8675 143.62196829700258 L 0.0001 160.28866829700257 L -28.8674 143.62206829700258 L -28.8675 110.28876829700258 Z"/><path fill="#000" stroke-width="0" d="M -57.7351 60.28866829700258 L -28.867600000000003 76.95526829700259 L -28.867600000000003 110.28856829700258 L -57.735 126.95526829700259 L -86.6025 110.28866829700257 L -86.6026 76.95536829700258 Z"/><path fill="#000" stroke-width="0" d="M -57.7351 -6.378131702997415 L -28.867600000000003 10.288468297002588 L -28.867600000000003 43.62176829700259 L -57.735 60.28846829700259 L -86.6025 43.621868297002585 L -86.6026 10.288568297002588 Z"/><path fill="#000" stroke-width="0" d="M 0 -573.0447317029974 L 28.8675 -556.3781317029974 L 28.8675 -523.0448317029974 L 0.0001 -506.3781317029974 L -28.8674 -523.0447317029974 L -28.8675 -556.3780317029974 Z"/><path fill="#000" stroke-width="0" d="M 519.6152 -273.0447317029974 L 548.4826999999999 -256.3781317029974 L 548.4826999999999 -223.0448317029974 L 519.6152999999999 -206.3781317029974 L 490.7478 -223.0447317029974 L 490.74769999999995 -256.3780317029974 Z"/><path fill="#000" stroke-width="0" d="M 519.6152 326.9552682970026 L 548.4826999999999 343.6218682970026 L 548.4826999999999 376.9551682970026 L 519.6152999999999 393.6218682970026 L 490.7478 376.9552682970026 L 490.74769999999995 343.6219682970026 Z"/><path fill="#000" stroke-width="0" d="M 0 626.9552682970026 L 28.8675 643.6218682970026 L 28.8675 676.9551682970026 L 0.0001 693.6218682970026 L -28.8674 676.9552682970026 L -28.8675 643.6219682970026 Z"/><path fill="#000" stroke-width="0" d="M -519.6152 326.9552682970026 L -490.74769999999995 343.6218682970026 L -490.74769999999995 376.9551682970026 L -519.6151 393.6218682970026 L -548.4825999999999 376.9552682970026 L -548.4826999999999 343.6219682970026 Z"/><path fill="#000" stroke-width="0" d="M -519.6152 -273.0447317029974 L -490.74769999999995 -256.3781317029974 L -490.74769999999995 -223.0448317029974 L -519.6151 -206.3781317029974 L -548.4825999999999 -223.0447317029974 L -548.4826999999999 -256.3780317029974 Z"/><path fill="#000" stroke-width="0" d="M 0 226.9552682970026 L 28.8675 243.6218682970026 L 28.8675 276.9551682970026 L 0.0001 293.6218682970026 L -28.8674 276.9552682970026 L -28.8675 243.6219682970026 Z"/><path fill="#000" stroke-width="0" d="M -173.2051 126.95526829700259 L -144.33759999999998 143.6218682970026 L -144.33759999999998 176.9551682970026 L -173.20499999999998 193.6218682970026 L -202.0725 176.9552682970026 L -202.0726 143.6219682970026 Z"/><path fill="#000" stroke-width="0" d="M -173.2051 -73.04473170299741 L -144.33759999999998 -56.378131702997415 L -144.33759999999998 -23.044831702997417 L -173.20499999999998 -6.378131702997415 L -202.0725 -23.044731702997417 L -202.0726 -56.37803170299742 Z"/><path fill="#000" stroke-width="0" d="M 0 -173.0447317029974 L 28.8675 -156.3781317029974 L 28.8675 -123.0448317029974 L 0.0001 -106.3781317029974 L -28.8674 -123.04473170299741 L -28.8675 -156.3780317029974 Z"/><path fill="#000" stroke-width="0" d="M 173.2051 -73.04473170299741 L 202.0726 -56.378131702997415 L 202.0726 -23.044831702997417 L 173.2052 -6.378131702997415 L 144.33769999999998 -23.044731702997417 L 144.33759999999998 -56.37803170299742 Z"/><path fill="#000" stroke-width="0" d="M 173.2051 126.95526829700259 L 202.0726 143.6218682970026 L 202.0726 176.9551682970026 L 173.2052 193.6218682970026 L 144.33769999999998 176.9552682970026 L 144.33759999999998 143.6219682970026 Z"/><path fill="#000" stroke-width="0" d="M 0 -706.3781317029974 L -28.8675 -723.0447317029974 L -28.8675 -756.3780317029974 L -0.0001 -773.0447317029974 L 28.8674 -756.3781317029974 L 28.8675 -723.0448317029974 Z"/><path fill="#000" stroke-width="0" d="M 173.2051 -606.3781317029974 L 144.33759999999998 -623.0447317029974 L 144.33759999999998 -656.3780317029974 L 173.20499999999998 -673.0447317029974 L 202.0725 -656.3781317029974 L 202.0726 -623.0448317029974 Z"/><path fill="#000" stroke-width="0" d="M 173.2051 -406.3781317029974 L 144.33759999999998 -423.0447317029974 L 144.33759999999998 -456.3780317029974 L 173.20499999999998 -473.0447317029974 L 202.0725 -456.3781317029974 L 202.0726 -423.0448317029974 Z"/><path fill="#000" stroke-width="0" d="M 0 -306.3781317029974 L -28.8675 -323.0447317029974 L -28.8675 -356.3780317029974 L -0.0001 -373.0447317029974 L 28.8674 -356.3781317029974 L 28.8675 -323.0448317029974 Z"/><path fill="#000" stroke-width="0" d="M -173.2051 -406.3781317029974 L -202.0726 -423.0447317029974 L -202.0726 -456.3780317029974 L -173.2052 -473.0447317029974 L -144.33769999999998 -456.3781317029974 L -144.33759999999998 -423.0448317029974 Z"/><path fill="#000" stroke-width="0" d="M -173.2051 -606.3781317029974 L -202.0726 -623.0447317029974 L -202.0726 -656.3780317029974 L -173.2052 -673.0447317029974 L -144.33769999999998 -656.3781317029974 L -144.33759999999998 -623.0448317029974 Z"/><path fill="#000" stroke-width="0" d="M 519.6152 -406.3781317029974 L 490.74769999999995 -423.0447317029974 L 490.74769999999995 -456.3780317029974 L 519.6151 -473.0447317029974 L 548.4825999999999 -456.3781317029974 L 548.4826999999999 -423.0448317029974 Z"/><path fill="#000" stroke-width="0" d="M 692.8203 -306.3781317029974 L 663.9528 -323.0447317029974 L 663.9528 -356.3780317029974 L 692.8202 -373.0447317029974 L 721.6877 -356.3781317029974 L 721.6877999999999 -323.0448317029974 Z"/><path fill="#000" stroke-width="0" d="M 692.8203 -106.3781317029974 L 663.9528 -123.04473170299741 L 663.9528 -156.3780317029974 L 692.8202 -173.0447317029974 L 721.6877 -156.3781317029974 L 721.6877999999999 -123.0448317029974 Z"/><path fill="#000" stroke-width="0" d="M 519.6152 -6.3781317029974005 L 490.74769999999995 -23.044731702997403 L 490.74769999999995 -56.378031702997404 L 519.6151 -73.04473170299741 L 548.4825999999999 -56.3781317029974 L 548.4826999999999 -23.044831702997403 Z"/><path fill="#000" stroke-width="0" d="M 346.41009999999994 -106.3781317029974 L 317.54259999999994 -123.04473170299741 L 317.54259999999994 -156.3780317029974 L 346.40999999999997 -173.0447317029974 L 375.2774999999999 -156.3781317029974 L 375.27759999999995 -123.0448317029974 Z"/><path fill="#000" stroke-width="0" d="M 346.41009999999994 -306.3781317029974 L 317.54259999999994 -323.0447317029974 L 317.54259999999994 -356.3780317029974 L 346.40999999999997 -373.0447317029974 L 375.2774999999999 -356.3781317029974 L 375.27759999999995 -323.0448317029974 Z"/><path fill="#000" stroke-width="0" d="M 519.6152 193.6218682970026 L 490.74769999999995 176.9552682970026 L 490.74769999999995 143.6219682970026 L 519.6151 126.95526829700259 L 548.4825999999999 143.6218682970026 L 548.4826999999999 176.9551682970026 Z"/><path fill="#000" stroke-width="0" d="M 692.8203 293.6218682970026 L 663.9528 276.9552682970026 L 663.9528 243.6219682970026 L 692.8202 226.9552682970026 L 721.6877 243.6218682970026 L 721.6877999999999 276.9551682970026 Z"/><path fill="#000" stroke-width="0" d="M 692.8203 493.6218682970026 L 663.9528 476.9552682970026 L 663.9528 443.6219682970026 L 692.8202 426.9552682970026 L 721.6877 443.6218682970026 L 721.6877999999999 476.9551682970026 Z"/><path fill="#000" stroke-width="0" d="M 519.6152 593.6218682970026 L 490.74769999999995 576.9552682970026 L 490.74769999999995 543.6219682970026 L 519.6151 526.9552682970026 L 548.4825999999999 543.6218682970026 L 548.4826999999999 576.9551682970026 Z"/><path fill="#000" stroke-width="0" d="M 346.41009999999994 493.6218682970026 L 317.54259999999994 476.9552682970026 L 317.54259999999994 443.6219682970026 L 346.40999999999997 426.9552682970026 L 375.2774999999999 443.6218682970026 L 375.27759999999995 476.9551682970026 Z"/><path fill="#000" stroke-width="0" d="M 346.41009999999994 293.6218682970026 L 317.54259999999994 276.9552682970026 L 317.54259999999994 243.6219682970026 L 346.40999999999997 226.9552682970026 L 375.2774999999999 243.6218682970026 L 375.27759999999995 276.9551682970026 Z"/><path fill="#000" stroke-width="0" d="M 0 493.6218682970026 L -28.8675 476.9552682970026 L -28.8675 443.6219682970026 L -0.0001 426.9552682970026 L 28.8674 443.6218682970026 L 28.8675 476.9551682970026 Z"/><path fill="#000" stroke-width="0" d="M 173.2051 593.6218682970026 L 144.33759999999998 576.9552682970026 L 144.33759999999998 543.6219682970026 L 173.20499999999998 526.9552682970026 L 202.0725 543.6218682970026 L 202.0726 576.9551682970026 Z"/><path fill="#000" stroke-width="0" d="M 173.2051 793.6218682970026 L 144.33759999999998 776.9552682970026 L 144.33759999999998 743.6219682970026 L 173.20499999999998 726.9552682970026 L 202.0725 743.6218682970026 L 202.0726 776.9551682970026 Z"/><path fill="#000" stroke-width="0" d="M 0 893.6218682970026 L -28.8675 876.9552682970026 L -28.8675 843.6219682970026 L -0.0001 826.9552682970026 L 28.8674 843.6218682970026 L 28.8675 876.9551682970026 Z"/><path fill="#000" stroke-width="0" d="M -173.2051 793.6218682970026 L -202.0726 776.9552682970026 L -202.0726 743.6219682970026 L -173.2052 726.9552682970026 L -144.33769999999998 743.6218682970026 L -144.33759999999998 776.9551682970026 Z"/><path fill="#000" stroke-width="0" d="M -173.2051 593.6218682970026 L -202.0726 576.9552682970026 L -202.0726 543.6219682970026 L -173.2052 526.9552682970026 L -144.33769999999998 543.6218682970026 L -144.33759999999998 576.9551682970026 Z"/><path fill="#000" stroke-width="0" d="M -519.6152 193.6218682970026 L -548.4826999999999 176.9552682970026 L -548.4826999999999 143.6219682970026 L -519.6152999999999 126.95526829700259 L -490.7478 143.6218682970026 L -490.74769999999995 176.9551682970026 Z"/><path fill="#000" stroke-width="0" d="M -346.41009999999994 293.6218682970026 L -375.27759999999995 276.9552682970026 L -375.27759999999995 243.6219682970026 L -346.4101999999999 226.9552682970026 L -317.54269999999997 243.6218682970026 L -317.54259999999994 276.9551682970026 Z"/><path fill="#000" stroke-width="0" d="M -346.41009999999994 493.6218682970026 L -375.27759999999995 476.9552682970026 L -375.27759999999995 443.6219682970026 L -346.4101999999999 426.9552682970026 L -317.54269999999997 443.6218682970026 L -317.54259999999994 476.9551682970026 Z"/><path fill="#000" stroke-width="0" d="M -519.6152 593.6218682970026 L -548.4826999999999 576.9552682970026 L -548.4826999999999 543.6219682970026 L -519.6152999999999 526.9552682970026 L -490.7478 543.6218682970026 L -490.74769999999995 576.9551682970026 Z"/><path fill="#000" stroke-width="0" d="M -692.8203 493.6218682970026 L -721.6877999999999 476.9552682970026 L -721.6877999999999 443.6219682970026 L -692.8204 426.9552682970026 L -663.9529 443.6218682970026 L -663.9528 476.9551682970026 Z"/><path fill="#000" stroke-width="0" d="M -692.8203 293.6218682970026 L -721.6877999999999 276.9552682970026 L -721.6877999999999 243.6219682970026 L -692.8204 226.9552682970026 L -663.9529 243.6218682970026 L -663.9528 276.9551682970026 Z"/><path fill="#000" stroke-width="0" d="M -519.6152 -406.3781317029974 L -548.4826999999999 -423.0447317029974 L -548.4826999999999 -456.3780317029974 L -519.6152999999999 -473.0447317029974 L -490.7478 -456.3781317029974 L -490.74769999999995 -423.0448317029974 Z"/><path fill="#000" stroke-width="0" d="M -346.41009999999994 -306.3781317029974 L -375.27759999999995 -323.0447317029974 L -375.27759999999995 -356.3780317029974 L -346.4101999999999 -373.0447317029974 L -317.54269999999997 -356.3781317029974 L -317.54259999999994 -323.0448317029974 Z"/><path fill="#000" stroke-width="0" d="M -346.41009999999994 -106.3781317029974 L -375.27759999999995 -123.04473170299741 L -375.27759999999995 -156.3780317029974 L -346.4101999999999 -173.0447317029974 L -317.54269999999997 -156.3781317029974 L -317.54259999999994 -123.0448317029974 Z"/><path fill="#000" stroke-width="0" d="M -519.6152 -6.3781317029974005 L -548.4826999999999 -23.044731702997403 L -548.4826999999999 -56.378031702997404 L -519.6152999999999 -73.04473170299741 L -490.7478 -56.3781317029974 L -490.74769999999995 -23.044831702997403 Z"/><path fill="#000" stroke-width="0" d="M -692.8203 -106.3781317029974 L -721.6877999999999 -123.04473170299741 L -721.6877999999999 -156.3780317029974 L -692.8204 -173.0447317029974 L -663.9529 -156.3781317029974 L -663.9528 -123.0448317029974 Z"/><path fill="#000" stroke-width="0" d="M -692.8203 -306.3781317029974 L -721.6877999999999 -323.0447317029974 L -721.6877999999999 -356.3780317029974 L -692.8204 -373.0447317029974 L -663.9529 -356.3781317029974 L -663.9528 -323.0448317029974 Z"/><path fill="#000" stroke-width="0" d="M 0 93.62186829700258 L -28.8675 76.95526829700259 L -28.8675 43.62196829700258 L -0.0001 26.955268297002583 L 28.8674 43.621868297002585 L 28.8675 76.95516829700259 Z"/><path fill="#000" stroke-width="0" d="M 0 -439.7114317029974 L -28.8675 -456.3780317029974 L -28.8675 -489.7113317029974 L -0.0001 -506.3780317029974 L 28.8674 -489.7114317029974 L 28.8675 -456.3781317029974 Z"/><path fill="#000" stroke-width="0" d="M -57.7351 -473.0447317029974 L -86.6026 -489.7113317029974 L -86.6026 -523.0446317029974 L -57.735200000000006 -539.7113317029974 L -28.867700000000003 -523.0447317029974 L -28.867600000000003 -489.7114317029974 Z"/><path fill="#000" stroke-width="0" d="M -57.7351 -539.7115317029974 L -86.6026 -556.3781317029974 L -86.6026 -589.7114317029974 L -57.735200000000006 -606.3781317029974 L -28.867700000000003 -589.7115317029974 L -28.867600000000003 -556.3782317029974 Z"/><path fill="#000" stroke-width="0" d="M 0 -573.0449317029974 L -28.8675 -589.7115317029974 L -28.8675 -623.0448317029974 L -0.0001 -639.7115317029974 L 28.8674 -623.0449317029974 L 28.8675 -589.7116317029974 Z"/><path fill="#000" stroke-width="0" d="M 57.7351 -539.7115317029974 L 28.867600000000003 -556.3781317029974 L 28.867600000000003 -589.7114317029974 L 57.735 -606.3781317029974 L 86.6025 -589.7115317029974 L 86.6026 -556.3782317029974 Z"/><path fill="#000" stroke-width="0" d="M 57.7351 -473.0447317029974 L 28.867600000000003 -489.7113317029974 L 28.867600000000003 -523.0446317029974 L 57.735 -539.7113317029974 L 86.6025 -523.0447317029974 L 86.6026 -489.7114317029974 Z"/><path fill="#000" stroke-width="0" d="M 519.6152 -139.7114317029974 L 490.74769999999995 -156.37803170299742 L 490.74769999999995 -189.7113317029974 L 519.6151 -206.37803170299742 L 548.4825999999999 -189.7114317029974 L 548.4826999999999 -156.37813170299742 Z"/><path fill="#000" stroke-width="0" d="M 461.88009999999997 -173.0447317029974 L 433.01259999999996 -189.71133170299743 L 433.01259999999996 -223.0446317029974 L 461.88 -239.71133170299743 L 490.74749999999995 -223.0447317029974 L 490.7476 -189.71143170299743 Z"/><path fill="#000" stroke-width="0" d="M 461.88009999999997 -239.71153170299738 L 433.01259999999996 -256.3781317029974 L 433.01259999999996 -289.7114317029974 L 461.88 -306.3781317029974 L 490.74749999999995 -289.7115317029974 L 490.7476 -256.37823170299737 Z"/><path fill="#000" stroke-width="0" d="M 519.6152 -273.04493170299736 L 490.74769999999995 -289.7115317029974 L 490.74769999999995 -323.0448317029974 L 519.6151 -339.7115317029974 L 548.4825999999999 -323.04493170299736 L 548.4826999999999 -289.71163170299735 Z"/><path fill="#000" stroke-width="0" d="M 577.3503 -239.71153170299738 L 548.4828 -256.3781317029974 L 548.4828 -289.7114317029974 L 577.3502 -306.3781317029974 L 606.2176999999999 -289.7115317029974 L 606.2177999999999 -256.37823170299737 Z"/><path fill="#000" stroke-width="0" d="M 577.3503 -173.0447317029974 L 548.4828 -189.71133170299743 L 548.4828 -223.0446317029974 L 577.3502 -239.71133170299743 L 606.2176999999999 -223.0447317029974 L 606.2177999999999 -189.71143170299743 Z"/><path fill="#000" stroke-width="0" d="M 519.6152 460.2885682970026 L 490.74769999999995 443.6219682970026 L 490.74769999999995 410.2886682970026 L 519.6151 393.6219682970026 L 548.4825999999999 410.2885682970026 L 548.4826999999999 443.6218682970026 Z"/><path fill="#000" stroke-width="0" d="M 461.88009999999997 426.9552682970026 L 433.01259999999996 410.2886682970026 L 433.01259999999996 376.95536829700256 L 461.88 360.2886682970026 L 490.74749999999995 376.9552682970026 L 490.7476 410.2885682970026 Z"/><path fill="#000" stroke-width="0" d="M 461.88009999999997 360.2884682970026 L 433.01259999999996 343.6218682970026 L 433.01259999999996 310.2885682970026 L 461.88 293.6218682970026 L 490.74749999999995 310.2884682970026 L 490.7476 343.62176829700263 Z"/><path fill="#000" stroke-width="0" d="M 519.6152 326.95506829700264 L 490.74769999999995 310.2884682970026 L 490.74769999999995 276.9551682970026 L 519.6151 260.2884682970026 L 548.4825999999999 276.95506829700264 L 548.4826999999999 310.28836829700265 Z"/><path fill="#000" stroke-width="0" d="M 577.3503 360.2884682970026 L 548.4828 343.6218682970026 L 548.4828 310.2885682970026 L 577.3502 293.6218682970026 L 606.2176999999999 310.2884682970026 L 606.2177999999999 343.62176829700263 Z"/><path fill="#000" stroke-width="0" d="M 577.3503 426.9552682970026 L 548.4828 410.2886682970026 L 548.4828 376.95536829700256 L 577.3502 360.2886682970026 L 606.2176999999999 376.9552682970026 L 606.2177999999999 410.2885682970026 Z"/><path fill="#000" stroke-width="0" d="M 0 760.2885682970026 L -28.8675 743.6219682970026 L -28.8675 710.2886682970026 L -0.0001 693.6219682970026 L 28.8674 710.2885682970026 L 28.8675 743.6218682970026 Z"/><path fill="#000" stroke-width="0" d="M -57.7351 726.9552682970026 L -86.6026 710.2886682970026 L -86.6026 676.9553682970026 L -57.735200000000006 660.2886682970026 L -28.867700000000003 676.9552682970026 L -28.867600000000003 710.2885682970026 Z"/><path fill="#000" stroke-width="0" d="M -57.7351 660.2884682970026 L -86.6026 643.6218682970026 L -86.6026 610.2885682970026 L -57.735200000000006 593.6218682970026 L -28.867700000000003 610.2884682970026 L -28.867600000000003 643.6217682970026 Z"/><path fill="#000" stroke-width="0" d="M 0 626.9550682970026 L -28.8675 610.2884682970026 L -28.8675 576.9551682970026 L -0.0001 560.2884682970026 L 28.8674 576.9550682970026 L 28.8675 610.2883682970026 Z"/><path fill="#000" stroke-width="0" d="M 57.7351 660.2884682970026 L 28.867600000000003 643.6218682970026 L 28.867600000000003 610.2885682970026 L 57.735 593.6218682970026 L 86.6025 610.2884682970026 L 86.6026 643.6217682970026 Z"/><path fill="#000" stroke-width="0" d="M 57.7351 726.9552682970026 L 28.867600000000003 710.2886682970026 L 28.867600000000003 676.9553682970026 L 57.735 660.2886682970026 L 86.6025 676.9552682970026 L 86.6026 710.2885682970026 Z"/><path fill="#000" stroke-width="0" d="M -519.6152 460.2885682970026 L -548.4826999999999 443.6219682970026 L -548.4826999999999 410.2886682970026 L -519.6152999999999 393.6219682970026 L -490.7478 410.2885682970026 L -490.74769999999995 443.6218682970026 Z"/><path fill="#000" stroke-width="0" d="M -577.3503 426.9552682970026 L -606.2177999999999 410.2886682970026 L -606.2177999999999 376.95536829700256 L -577.3503999999999 360.2886682970026 L -548.4829 376.9552682970026 L -548.4828 410.2885682970026 Z"/><path fill="#000" stroke-width="0" d="M -577.3503 360.2884682970026 L -606.2177999999999 343.6218682970026 L -606.2177999999999 310.2885682970026 L -577.3503999999999 293.6218682970026 L -548.4829 310.2884682970026 L -548.4828 343.62176829700263 Z"/><path fill="#000" stroke-width="0" d="M -519.6152 326.95506829700264 L -548.4826999999999 310.2884682970026 L -548.4826999999999 276.9551682970026 L -519.6152999999999 260.2884682970026 L -490.7478 276.95506829700264 L -490.74769999999995 310.28836829700265 Z"/><path fill="#000" stroke-width="0" d="M -461.88009999999997 360.2884682970026 L -490.7476 343.6218682970026 L -490.7476 310.2885682970026 L -461.88019999999995 293.6218682970026 L -433.0127 310.2884682970026 L -433.01259999999996 343.62176829700263 Z"/><path fill="#000" stroke-width="0" d="M -461.88009999999997 426.9552682970026 L -490.7476 410.2886682970026 L -490.7476 376.95536829700256 L -461.88019999999995 360.2886682970026 L -433.0127 376.9552682970026 L -433.01259999999996 410.2885682970026 Z"/><path fill="#000" stroke-width="0" d="M -519.6152 -139.7114317029974 L -548.4826999999999 -156.37803170299742 L -548.4826999999999 -189.7113317029974 L -519.6152999999999 -206.37803170299742 L -490.7478 -189.7114317029974 L -490.74769999999995 -156.37813170299742 Z"/><path fill="#000" stroke-width="0" d="M -577.3503 -173.0447317029974 L -606.2177999999999 -189.71133170299743 L -606.2177999999999 -223.0446317029974 L -577.3503999999999 -239.71133170299743 L -548.4829 -223.0447317029974 L -548.4828 -189.71143170299743 Z"/><path fill="#000" stroke-width="0" d="M -577.3503 -239.71153170299738 L -606.2177999999999 -256.3781317029974 L -606.2177999999999 -289.7114317029974 L -577.3503999999999 -306.3781317029974 L -548.4829 -289.7115317029974 L -548.4828 -256.37823170299737 Z"/><path fill="#000" stroke-width="0" d="M -519.6152 -273.04493170299736 L -548.4826999999999 -289.7115317029974 L -548.4826999999999 -323.0448317029974 L -519.6152999999999 -339.7115317029974 L -490.7478 -323.04493170299736 L -490.74769999999995 -289.71163170299735 Z"/><path fill="#000" stroke-width="0" d="M -461.88009999999997 -239.71153170299738 L -490.7476 -256.3781317029974 L -490.7476 -289.7114317029974 L -461.88019999999995 -306.3781317029974 L -433.0127 -289.7115317029974 L -433.01259999999996 -256.37823170299737 Z"/><path fill="#000" stroke-width="0" d="M -461.88009999999997 -173.0447317029974 L -490.7476 -189.71133170299743 L -490.7476 -223.0446317029974 L -461.88019999999995 -239.71133170299743 L -433.0127 -223.0447317029974 L -433.01259999999996 -189.71143170299743 Z"/><path fill="#000" stroke-width="0" d="M 0 360.2885682970026 L -28.8675 343.6219682970026 L -28.8675 310.2886682970026 L -0.0001 293.6219682970026 L 28.8674 310.2885682970026 L 28.8675 343.6218682970026 Z"/><path fill="#000" stroke-width="0" d="M -57.7351 326.9552682970026 L -86.6026 310.2886682970026 L -86.6026 276.95536829700256 L -57.735200000000006 260.2886682970026 L -28.867700000000003 276.9552682970026 L -28.867600000000003 310.2885682970026 Z"/><path fill="#000" stroke-width="0" d="M -57.7351 260.2884682970026 L -86.6026 243.6218682970026 L -86.6026 210.28856829700263 L -57.735200000000006 193.6218682970026 L -28.867700000000003 210.28846829700262 L -28.867600000000003 243.6217682970026 Z"/><path fill="#000" stroke-width="0" d="M 0 226.9550682970026 L -28.8675 210.2884682970026 L -28.8675 176.95516829700261 L -0.0001 160.2884682970026 L 28.8674 176.9550682970026 L 28.8675 210.2883682970026 Z"/><path fill="#000" stroke-width="0" d="M 57.7351 260.2884682970026 L 28.867600000000003 243.6218682970026 L 28.867600000000003 210.28856829700263 L 57.735 193.6218682970026 L 86.6025 210.28846829700262 L 86.6026 243.6217682970026 Z"/><path fill="#000" stroke-width="0" d="M 57.7351 326.9552682970026 L 28.867600000000003 310.2886682970026 L 28.867600000000003 276.95536829700256 L 57.735 260.2886682970026 L 86.6025 276.9552682970026 L 86.6026 310.2885682970026 Z"/><path fill="#000" stroke-width="0" d="M -173.2051 260.2885682970026 L -202.0726 243.62196829700258 L -202.0726 210.2886682970026 L -173.2052 193.62196829700258 L -144.33769999999998 210.2885682970026 L -144.33759999999998 243.62186829700258 Z"/><path fill="#000" stroke-width="0" d="M -230.9402 226.9552682970026 L -259.8077 210.28866829700257 L -259.8077 176.9553682970026 L -230.9403 160.28866829700257 L -202.0728 176.9552682970026 L -202.0727 210.28856829700257 Z"/><path fill="#000" stroke-width="0" d="M -230.9402 160.2884682970026 L -259.8077 143.6218682970026 L -259.8077 110.2885682970026 L -230.9403 93.6218682970026 L -202.0728 110.2884682970026 L -202.0727 143.6217682970026 Z"/><path fill="#000" stroke-width="0" d="M -173.2051 126.95506829700261 L -202.0726 110.2884682970026 L -202.0726 76.9551682970026 L -173.2052 60.2884682970026 L -144.33769999999998 76.95506829700261 L -144.33759999999998 110.2883682970026 Z"/><path fill="#000" stroke-width="0" d="M -115.46999999999998 160.2884682970026 L -144.33749999999998 143.6218682970026 L -144.33749999999998 110.2885682970026 L -115.47009999999999 93.6218682970026 L -86.60259999999998 110.2884682970026 L -86.60249999999999 143.6217682970026 Z"/><path fill="#000" stroke-width="0" d="M -115.46999999999998 226.9552682970026 L -144.33749999999998 210.28866829700257 L -144.33749999999998 176.9553682970026 L -115.47009999999999 160.28866829700257 L -86.60259999999998 176.9552682970026 L -86.60249999999999 210.28856829700257 Z"/><path fill="#000" stroke-width="0" d="M -173.2051 60.28856829700259 L -202.0726 43.62196829700259 L -202.0726 10.288668297002591 L -173.2052 -6.378031702997411 L -144.33769999999998 10.288568297002591 L -144.33759999999998 43.62186829700259 Z"/><path fill="#000" stroke-width="0" d="M -230.9402 26.955268297002583 L -259.8077 10.28866829700258 L -259.8077 -23.044631702997417 L -230.9403 -39.71133170299742 L -202.0728 -23.044731702997417 L -202.0727 10.28856829700258 Z"/><path fill="#000" stroke-width="0" d="M -230.9402 -39.71153170299741 L -259.8077 -56.378131702997415 L -259.8077 -89.71143170299742 L -230.9403 -106.37813170299742 L -202.0728 -89.7115317029974 L -202.0727 -56.37823170299741 Z"/><path fill="#000" stroke-width="0" d="M -173.2051 -73.04493170299742 L -202.0726 -89.7115317029974 L -202.0726 -123.04483170299741 L -173.2052 -139.7115317029974 L -144.33769999999998 -123.04493170299742 L -144.33759999999998 -89.71163170299741 Z"/><path fill="#000" stroke-width="0" d="M -115.46999999999998 -39.71153170299741 L -144.33749999999998 -56.378131702997415 L -144.33749999999998 -89.71143170299742 L -115.47009999999999 -106.37813170299742 L -86.60259999999998 -89.7115317029974 L -86.60249999999999 -56.37823170299741 Z"/><path fill="#000" stroke-width="0" d="M -115.46999999999998 26.955268297002583 L -144.33749999999998 10.28866829700258 L -144.33749999999998 -23.044631702997417 L -115.47009999999999 -39.71133170299742 L -86.60259999999998 -23.044731702997417 L -86.60249999999999 10.28856829700258 Z"/><path fill="#000" stroke-width="0" d="M 0 -39.711431702997395 L -28.8675 -56.3780317029974 L -28.8675 -89.7113317029974 L -0.0001 -106.37803170299739 L 28.8674 -89.7114317029974 L 28.8675 -56.37813170299739 Z"/><path fill="#000" stroke-width="0" d="M -57.7351 -73.04473170299741 L -86.6026 -89.7113317029974 L -86.6026 -123.0446317029974 L -57.735200000000006 -139.7113317029974 L -28.867700000000003 -123.04473170299741 L -28.867600000000003 -89.7114317029974 Z"/><path fill="#000" stroke-width="0" d="M -57.7351 -139.71153170299738 L -86.6026 -156.3781317029974 L -86.6026 -189.71143170299737 L -57.735200000000006 -206.3781317029974 L -28.867700000000003 -189.71153170299738 L -28.867600000000003 -156.3782317029974 Z"/><path fill="#000" stroke-width="0" d="M 0 -173.0449317029974 L -28.8675 -189.7115317029974 L -28.8675 -223.04483170299739 L -0.0001 -239.7115317029974 L 28.8674 -223.0449317029974 L 28.8675 -189.7116317029974 Z"/><path fill="#000" stroke-width="0" d="M 57.7351 -139.71153170299738 L 28.867600000000003 -156.3781317029974 L 28.867600000000003 -189.71143170299737 L 57.735 -206.3781317029974 L 86.6025 -189.71153170299738 L 86.6026 -156.3782317029974 Z"/><path fill="#000" stroke-width="0" d="M 57.7351 -73.04473170299741 L 28.867600000000003 -89.7113317029974 L 28.867600000000003 -123.0446317029974 L 57.735 -139.7113317029974 L 86.6025 -123.04473170299741 L 86.6026 -89.7114317029974 Z"/><path fill="#000" stroke-width="0" d="M 173.2051 60.28856829700259 L 144.33759999999998 43.62196829700259 L 144.33759999999998 10.288668297002591 L 173.20499999999998 -6.378031702997411 L 202.0725 10.288568297002591 L 202.0726 43.62186829700259 Z"/><path fill="#000" stroke-width="0" d="M 115.46999999999998 26.955268297002583 L 86.60249999999999 10.28866829700258 L 86.60249999999999 -23.044631702997417 L 115.46989999999998 -39.71133170299742 L 144.33739999999997 -23.044731702997417 L 144.33749999999998 10.28856829700258 Z"/><path fill="#000" stroke-width="0" d="M 115.46999999999998 -39.71153170299741 L 86.60249999999999 -56.378131702997415 L 86.60249999999999 -89.71143170299742 L 115.46989999999998 -106.37813170299742 L 144.33739999999997 -89.7115317029974 L 144.33749999999998 -56.37823170299741 Z"/><path fill="#000" stroke-width="0" d="M 173.2051 -73.04493170299742 L 144.33759999999998 -89.7115317029974 L 144.33759999999998 -123.04483170299741 L 173.20499999999998 -139.7115317029974 L 202.0725 -123.04493170299742 L 202.0726 -89.71163170299741 Z"/><path fill="#000" stroke-width="0" d="M 230.9402 -39.71153170299741 L 202.0727 -56.378131702997415 L 202.0727 -89.71143170299742 L 230.9401 -106.37813170299742 L 259.8076 -89.7115317029974 L 259.8077 -56.37823170299741 Z"/><path fill="#000" stroke-width="0" d="M 230.9402 26.955268297002583 L 202.0727 10.28866829700258 L 202.0727 -23.044631702997417 L 230.9401 -39.71133170299742 L 259.8076 -23.044731702997417 L 259.8077 10.28856829700258 Z"/><path fill="#000" stroke-width="0" d="M 173.2051 260.2885682970026 L 144.33759999999998 243.62196829700258 L 144.33759999999998 210.2886682970026 L 173.20499999999998 193.62196829700258 L 202.0725 210.2885682970026 L 202.0726 243.62186829700258 Z"/><path fill="#000" stroke-width="0" d="M 115.46999999999998 226.9552682970026 L 86.60249999999999 210.28866829700257 L 86.60249999999999 176.9553682970026 L 115.46989999999998 160.28866829700257 L 144.33739999999997 176.9552682970026 L 144.33749999999998 210.28856829700257 Z"/><path fill="#000" stroke-width="0" d="M 115.46999999999998 160.2884682970026 L 86.60249999999999 143.6218682970026 L 86.60249999999999 110.2885682970026 L 115.46989999999998 93.6218682970026 L 144.33739999999997 110.2884682970026 L 144.33749999999998 143.6217682970026 Z"/><path fill="#000" stroke-width="0" d="M 173.2051 126.95506829700261 L 144.33759999999998 110.2884682970026 L 144.33759999999998 76.9551682970026 L 173.20499999999998 60.2884682970026 L 202.0725 76.95506829700261 L 202.0726 110.2883682970026 Z"/><path fill="#000" stroke-width="0" d="M 230.9402 160.2884682970026 L 202.0727 143.6218682970026 L 202.0727 110.2885682970026 L 230.9401 93.6218682970026 L 259.8076 110.2884682970026 L 259.8077 143.6217682970026 Z"/><path fill="#000" stroke-width="0" d="M 230.9402 226.9552682970026 L 202.0727 210.28866829700257 L 202.0727 176.9553682970026 L 230.9401 160.28866829700257 L 259.8076 176.9552682970026 L 259.8077 210.28856829700257 Z"/></g></svg>