<svg xmlns="http://www.w3.org/2000/svg" xmlns:xlink="http://wwww3.org/1999/xlink" width="100%" height="100%" stroke-linecap="round" stroke-linejoin="round" viewBox="-1000 -1000 2000 2000" xml:space="preserve"><g><path stroke="#000" stroke-width="2" d="M -0.0792 259.7671 L -0.0792 -268.1076"/><path stroke="#000" stroke-width="2" d="M -0.0792 -268.1076 L -228.6489 -136.1389"/><path stroke="#000" stroke-width="2" d="M -228.6489 -136.1389 L -114.3641 -70.1545"/><path stroke="#000" stroke-width="2" d="M -114.3641 -70.1545 L -114.3641 -136.1389"/><path stroke="#000" stroke-width="2" d="M -114.3641 -136.1389 L -142.9221 -119.6692"/><path stroke="#000" stroke-width="2" d="M -142.9221 -119.6692 L -128.6695 -111.4344"/><path stroke="#000" stroke-width="2" d="M -142.9221 -119.6692 L -157.1747 -111.4344"/><path stroke="#000" stroke-width="2" d="M -142.9221 -119.6692 L -142.9221 -136.1389"/><path stroke="#000" stroke-width="2" d="M -114.3641 -136.1389 L -114.3641 -169.1311"/><path stroke="#000" stroke-width="2" d="M -114.3641 -169.1311 L -128.6167 -160.8962"/><path stroke="#000" stroke-width="2" d="M -114.3641 -169.1311 L -114.3641 -185.6008"/><path stroke="#000" stroke-width="2" d="M -114.3641 -169.1311 L -100.1114 -160.8962"/><path stroke="#000" stroke-width="2" d="M -114.3641 -136.1389 L -85.806 -119.6692"/><path stroke="#000" stroke-width="2" d="M -85.806 -119.6692 L -85.806 -136.1917"/><path stroke="#000" stroke-width="2" d="M -85.806 -119.6692 L -71.5006 -111.4344"/><path stroke="#000" stroke-width="2" d="M -85.806 -119.6692 L -100.1114 -111.3816"/><path stroke="#000" stroke-width="2" d="M -114.3641 -70.1545 L -57.1952 -37.1624"/><path stroke="#000" stroke-width="2" d="M -57.1952 -37.1624 L -57.1952 -70.2073"/><path stroke="#000" stroke-width="2" d="M -57.1952 -70.2073 L -71.5006 -61.9725"/><path stroke="#000" stroke-width="2" d="M -57.1952 -70.2073 L -57.1952 -86.7298"/><path stroke="#000" stroke-width="2" d="M -57.1952 -70.2073 L -42.8898 -61.9725"/><path stroke="#000" stroke-width="2" d="M -57.1952 -37.1624 L -28.5844 -20.6399"/><path stroke="#000" stroke-width="2" d="M -28.5844 -20.6399 L -28.5844 -37.1624"/><path stroke="#000" stroke-width="2" d="M -28.5844 -20.6399 L -14.279 -12.3523"/><path stroke="#000" stroke-width="2" d="M -28.5844 -20.6399 L -42.8898 -12.4051"/><path stroke="#000" stroke-width="2" d="M -57.1952 -37.1624 L -85.806 -20.6399"/><path stroke="#000" stroke-width="2" d="M -85.806 -20.6399 L -71.5006 -12.4051"/><path stroke="#000" stroke-width="2" d="M -85.806 -20.6399 L -100.1114 -12.3523"/><path stroke="#000" stroke-width="2" d="M -85.806 -20.6399 L -85.806 -37.1624"/><path stroke="#000" stroke-width="2" d="M -114.3641 -70.1545 L -171.5329 -37.1624"/><path stroke="#000" stroke-width="2" d="M -171.5329 -37.1624 L -142.9221 -20.6927"/><path stroke="#000" stroke-width="2" d="M -142.9221 -20.6927 L -142.9221 -37.2152"/><path stroke="#000" stroke-width="2" d="M -142.9221 -20.6927 L -128.6167 -12.4578"/><path stroke="#000" stroke-width="2" d="M -142.9221 -20.6927 L -157.2275 -12.4051"/><path stroke="#000" stroke-width="2" d="M -171.5329 -37.1624 L -200.0909 -20.6399"/><path stroke="#000" stroke-width="2" d="M -200.0909 -20.6399 L -185.7855 -12.4578"/><path stroke="#000" stroke-width="2" d="M -200.0909 -20.6399 L -214.3435 -12.3523"/><path stroke="#000" stroke-width="2" d="M -200.0909 -20.6399 L -200.1437 -37.1096"/><path stroke="#000" stroke-width="2" d="M -171.5329 -37.1624 L -171.5857 -70.1545"/><path stroke="#000" stroke-width="2" d="M -171.5857 -70.1545 L -185.8383 -61.9197"/><path stroke="#000" stroke-width="2" d="M -171.5857 -70.1545 L -171.5857 -86.6242"/><path stroke="#000" stroke-width="2" d="M -171.5857 -70.1545 L -157.3331 -61.9197"/><path stroke="#000" stroke-width="2" d="M -228.6489 -136.1389 L -342.9338 -70.1545"/><path stroke="#000" stroke-width="2" d="M -342.9338 -70.1545 L -285.8178 -37.1624"/><path stroke="#000" stroke-width="2" d="M -285.8178 -37.1624 L -285.765 -70.1545"/><path stroke="#000" stroke-width="2" d="M -285.765 -70.1545 L -300.0704 -61.9725"/><path stroke="#000" stroke-width="2" d="M -285.765 -70.1545 L -285.7122 -86.6242"/><path stroke="#000" stroke-width="2" d="M -285.765 -70.1545 L -271.5124 -61.8669"/><path stroke="#000" stroke-width="2" d="M -285.8178 -37.1624 L -257.2597 -20.6399"/><path stroke="#000" stroke-width="2" d="M -257.2597 -20.6399 L -257.2597 -37.1624"/><path stroke="#000" stroke-width="2" d="M -257.2597 -20.6399 L -242.9543 -12.3523"/><path stroke="#000" stroke-width="2" d="M -257.2597 -20.6399 L -271.5651 -12.4051"/><path stroke="#000" stroke-width="2" d="M -285.8178 -37.1624 L -314.4286 -20.6927"/><path stroke="#000" stroke-width="2" d="M -314.4286 -20.6927 L -300.1232 -12.4051"/><path stroke="#000" stroke-width="2" d="M -314.4286 -20.6927 L -328.734 -12.4578"/><path stroke="#000" stroke-width="2" d="M -314.4286 -20.6927 L -314.4286 -37.2152"/><path stroke="#000" stroke-width="2" d="M -342.9338 -70.1545 L -400.0499 -37.1624"/><path stroke="#000" stroke-width="2" d="M -400.0499 -37.1624 L -371.439 -20.6927"/><path stroke="#000" stroke-width="2" d="M -371.439 -20.6927 L -371.439 -37.2152"/><path stroke="#000" stroke-width="2" d="M -371.439 -20.6927 L -357.1336 -12.4578"/><path stroke="#000" stroke-width="2" d="M -371.439 -20.6927 L -385.7444 -12.4051"/><path stroke="#000" stroke-width="2" d="M -400.0499 -37.1624 L -428.6079 -20.6399"/><path stroke="#000" stroke-width="2" d="M -428.6079 -20.6399 L -414.3025 -12.4578"/><path stroke="#000" stroke-width="2" d="M -428.6079 -20.6399 L -442.8605 -12.3523"/><path stroke="#000" stroke-width="2" d="M -428.6079 -20.6399 L -428.6607 -37.1096"/><path stroke="#000" stroke-width="2" d="M -400.0499 -37.1624 L -400.1026 -70.1545"/><path stroke="#000" stroke-width="2" d="M -400.1026 -70.1545 L -414.3553 -61.9197"/><path stroke="#000" stroke-width="2" d="M -400.1026 -70.1545 L -400.1026 -86.6242"/><path stroke="#000" stroke-width="2" d="M -400.1026 -70.1545 L -385.85 -61.9197"/><path stroke="#000" stroke-width="2" d="M -342.9338 -70.1545 L -342.9338 -136.1389"/><path stroke="#000" stroke-width="2" d="M -342.9338 -136.1389 L -371.4918 -119.6692"/><path stroke="#000" stroke-width="2" d="M -371.4918 -119.6692 L -357.2392 -111.4344"/><path stroke="#000" stroke-width="2" d="M -371.4918 -119.6692 L -385.7444 -111.4344"/><path stroke="#000" stroke-width="2" d="M -371.4918 -119.6692 L -371.4918 -136.1389"/><path stroke="#000" stroke-width="2" d="M -342.9338 -136.1389 L -342.9338 -169.1311"/><path stroke="#000" stroke-width="2" d="M -342.9338 -169.1311 L -357.1864 -160.8962"/><path stroke="#000" stroke-width="2" d="M -342.9338 -169.1311 L -342.9338 -185.6008"/><path stroke="#000" stroke-width="2" d="M -342.9338 -169.1311 L -328.6812 -160.8962"/><path stroke="#000" stroke-width="2" d="M -342.9338 -136.1389 L -314.3758 -119.6692"/><path stroke="#000" stroke-width="2" d="M -314.3758 -119.6692 L -314.3758 -136.1917"/><path stroke="#000" stroke-width="2" d="M -314.3758 -119.6692 L -300.0704 -111.4344"/><path stroke="#000" stroke-width="2" d="M -314.3758 -119.6692 L -328.6812 -111.3816"/><path stroke="#000" stroke-width="2" d="M -228.6489 -136.1389 L -228.6489 -268.1076"/><path stroke="#000" stroke-width="2" d="M -228.6489 -268.1076 L -285.8178 -235.1154"/><path stroke="#000" stroke-width="2" d="M -285.8178 -235.1154 L -257.207 -218.6457"/><path stroke="#000" stroke-width="2" d="M -257.207 -218.6457 L -257.207 -235.1682"/><path stroke="#000" stroke-width="2" d="M -257.207 -218.6457 L -242.9016 -210.4109"/><path stroke="#000" stroke-width="2" d="M -257.207 -218.6457 L -271.5124 -210.3581"/><path stroke="#000" stroke-width="2" d="M -285.8178 -235.1154 L -314.3758 -218.5929"/><path stroke="#000" stroke-width="2" d="M -314.3758 -218.5929 L -300.0704 -210.4109"/><path stroke="#000" stroke-width="2" d="M -314.3758 -218.5929 L -328.6284 -210.3053"/><path stroke="#000" stroke-width="2" d="M -314.3758 -218.5929 L -314.4286 -235.0626"/><path stroke="#000" stroke-width="2" d="M -285.8178 -235.1154 L -285.8706 -268.1076"/><path stroke="#000" stroke-width="2" d="M -285.8706 -268.1076 L -300.1232 -259.8727"/><path stroke="#000" stroke-width="2" d="M -285.8706 -268.1076 L -285.8706 -284.5773"/><path stroke="#000" stroke-width="2" d="M -285.8706 -268.1076 L -271.6179 -259.8727"/><path stroke="#000" stroke-width="2" d="M -228.6489 -268.1076 L -228.6489 -334.0919"/><path stroke="#000" stroke-width="2" d="M -228.6489 -334.0919 L -257.207 -317.6222"/><path stroke="#000" stroke-width="2" d="M -257.207 -317.6222 L -242.9543 -309.3874"/><path stroke="#000" stroke-width="2" d="M -257.207 -317.6222 L -271.4596 -309.3874"/><path stroke="#000" stroke-width="2" d="M -257.207 -317.6222 L -257.207 -334.0919"/><path stroke="#000" stroke-width="2" d="M -228.6489 -334.0919 L -228.6489 -367.0841"/><path stroke="#000" stroke-width="2" d="M -228.6489 -367.0841 L -242.9016 -358.8492"/><path stroke="#000" stroke-width="2" d="M -228.6489 -367.0841 L -228.6489 -383.5538"/><path stroke="#000" stroke-width="2" d="M -228.6489 -367.0841 L -214.3963 -358.8492"/><path stroke="#000" stroke-width="2" d="M -228.6489 -334.0919 L -200.0909 -317.6222"/><path stroke="#000" stroke-width="2" d="M -200.0909 -317.6222 L -200.0909 -334.1447"/><path stroke="#000" stroke-width="2" d="M -200.0909 -317.6222 L -185.7855 -309.3874"/><path stroke="#000" stroke-width="2" d="M -200.0909 -317.6222 L -214.3963 -309.3346"/><path stroke="#000" stroke-width="2" d="M -228.6489 -268.1076 L -171.4801 -235.1154"/><path stroke="#000" stroke-width="2" d="M -171.4801 -235.1154 L -171.4801 -268.1604"/><path stroke="#000" stroke-width="2" d="M -171.4801 -268.1604 L -185.7855 -259.9255"/><path stroke="#000" stroke-width="2" d="M -171.4801 -268.1604 L -171.4801 -284.6828"/><path stroke="#000" stroke-width="2" d="M -171.4801 -268.1604 L -157.1747 -259.9255"/><path stroke="#000" stroke-width="2" d="M -171.4801 -235.1154 L -142.8693 -218.5929"/><path stroke="#000" stroke-width="2" d="M -142.8693 -218.5929 L -142.8693 -235.1154"/><path stroke="#000" stroke-width="2" d="M -142.8693 -218.5929 L -128.5639 -210.3053"/><path stroke="#000" stroke-width="2" d="M -142.8693 -218.5929 L -157.1747 -210.3581"/><path stroke="#000" stroke-width="2" d="M -171.4801 -235.1154 L -200.0909 -218.5929"/><path stroke="#000" stroke-width="2" d="M -200.0909 -218.5929 L -185.7855 -210.3581"/><path stroke="#000" stroke-width="2" d="M -200.0909 -218.5929 L -214.3963 -210.3053"/><path stroke="#000" stroke-width="2" d="M -200.0909 -218.5929 L -200.0909 -235.1154"/><path stroke="#000" stroke-width="2" d="M -0.0792 -268.1076 L -0.0792 -532.0449"/><path stroke="#000" stroke-width="2" d="M -0.0792 -532.0449 L -114.3641 -466.0606"/><path stroke="#000" stroke-width="2" d="M -114.3641 -466.0606 L -57.248 -433.0684"/><path stroke="#000" stroke-width="2" d="M -57.248 -433.0684 L -57.1952 -466.0606"/><path stroke="#000" stroke-width="2" d="M -57.1952 -466.0606 L -71.5006 -457.8785"/><path stroke="#000" stroke-width="2" d="M -57.1952 -466.0606 L -57.1424 -482.5303"/><path stroke="#000" stroke-width="2" d="M -57.1952 -466.0606 L -42.9426 -457.773"/><path stroke="#000" stroke-width="2" d="M -57.248 -433.0684 L -28.69 -416.5459"/><path stroke="#000" stroke-width="2" d="M -28.69 -416.5459 L -28.69 -433.0684"/><path stroke="#000" stroke-width="2" d="M -28.69 -416.5459 L -14.3846 -408.2583"/><path stroke="#000" stroke-width="2" d="M -28.69 -416.5459 L -42.9954 -408.3111"/><path stroke="#000" stroke-width="2" d="M -57.248 -433.0684 L -85.8588 -416.5987"/><path stroke="#000" stroke-width="2" d="M -85.8588 -416.5987 L -71.5534 -408.3111"/><path stroke="#000" stroke-width="2" d="M -85.8588 -416.5987 L -100.1642 -408.3639"/><path stroke="#000" stroke-width="2" d="M -85.8588 -416.5987 L -85.8588 -433.1212"/><path stroke="#000" stroke-width="2" d="M -114.3641 -466.0606 L -171.4801 -433.0684"/><path stroke="#000" stroke-width="2" d="M -171.4801 -433.0684 L -142.8693 -416.5987"/><path stroke="#000" stroke-width="2" d="M -142.8693 -416.5987 L -142.8693 -433.1212"/><path stroke="#000" stroke-width="2" d="M -142.8693 -416.5987 L -128.5639 -408.3639"/><path stroke="#000" stroke-width="2" d="M -142.8693 -416.5987 L -157.1747 -408.3111"/><path stroke="#000" stroke-width="2" d="M -171.4801 -433.0684 L -200.0381 -416.5459"/><path stroke="#000" stroke-width="2" d="M -200.0381 -416.5459 L -185.7327 -408.3639"/><path stroke="#000" stroke-width="2" d="M -200.0381 -416.5459 L -214.2907 -408.2583"/><path stroke="#000" stroke-width="2" d="M -200.0381 -416.5459 L -200.0909 -433.0156"/><path stroke="#000" stroke-width="2" d="M -171.4801 -433.0684 L -171.5329 -466.0606"/><path stroke="#000" stroke-width="2" d="M -171.5329 -466.0606 L -185.7855 -457.8257"/><path stroke="#000" stroke-width="2" d="M -171.5329 -466.0606 L -171.5329 -482.5303"/><path stroke="#000" stroke-width="2" d="M -171.5329 -466.0606 L -157.2803 -457.8257"/><path stroke="#000" stroke-width="2" d="M -114.3641 -466.0606 L -114.3641 -532.0449"/><path stroke="#000" stroke-width="2" d="M -114.3641 -532.0449 L -142.9221 -515.5752"/><path stroke="#000" stroke-width="2" d="M -142.9221 -515.5752 L -128.6695 -507.3404"/><path stroke="#000" stroke-width="2" d="M -142.9221 -515.5752 L -157.1747 -507.3404"/><path stroke="#000" stroke-width="2" d="M -142.9221 -515.5752 L -142.9221 -532.0449"/><path stroke="#000" stroke-width="2" d="M -114.3641 -532.0449 L -114.3641 -565.0371"/><path stroke="#000" stroke-width="2" d="M -114.3641 -565.0371 L -128.6167 -556.8023"/><path stroke="#000" stroke-width="2" d="M -114.3641 -565.0371 L -114.3641 -581.5068"/><path stroke="#000" stroke-width="2" d="M -114.3641 -565.0371 L -100.1114 -556.8023"/><path stroke="#000" stroke-width="2" d="M -114.3641 -532.0449 L -85.806 -515.5752"/><path stroke="#000" stroke-width="2" d="M -85.806 -515.5752 L -85.806 -532.0977"/><path stroke="#000" stroke-width="2" d="M -85.806 -515.5752 L -71.5006 -507.3404"/><path stroke="#000" stroke-width="2" d="M -85.806 -515.5752 L -100.1114 -507.2876"/><path stroke="#000" stroke-width="2" d="M -0.0792 -532.0449 L -0.0792 -664.0136"/><path stroke="#000" stroke-width="2" d="M -0.0792 -664.0136 L -57.248 -631.0214"/><path stroke="#000" stroke-width="2" d="M -57.248 -631.0214 L -28.6372 -614.5517"/><path stroke="#000" stroke-width="2" d="M -28.6372 -614.5517 L -28.6372 -631.0742"/><path stroke="#000" stroke-width="2" d="M -28.6372 -614.5517 L -14.3318 -606.3169"/><path stroke="#000" stroke-width="2" d="M -28.6372 -614.5517 L -42.9426 -606.2641"/><path stroke="#000" stroke-width="2" d="M -57.248 -631.0214 L -85.806 -614.499"/><path stroke="#000" stroke-width="2" d="M -85.806 -614.499 L -71.5006 -606.3169"/><path stroke="#000" stroke-width="2" d="M -85.806 -614.499 L -100.0587 -606.2113"/><path stroke="#000" stroke-width="2" d="M -85.806 -614.499 L -85.8588 -630.9687"/><path stroke="#000" stroke-width="2" d="M -57.248 -631.0214 L -57.3008 -664.0136"/><path stroke="#000" stroke-width="2" d="M -57.3008 -664.0136 L -71.5534 -655.7788"/><path stroke="#000" stroke-width="2" d="M -57.3008 -664.0136 L -57.3008 -680.4833"/><path stroke="#000" stroke-width="2" d="M -57.3008 -664.0136 L -43.0482 -655.7788"/><path stroke="#000" stroke-width="2" d="M -0.0792 -664.0136 L -0.0792 -729.9979"/><path stroke="#000" stroke-width="2" d="M -0.0792 -729.9979 L -28.6372 -713.5283"/><path stroke="#000" stroke-width="2" d="M -28.6372 -713.5283 L -14.3846 -705.2934"/><path stroke="#000" stroke-width="2" d="M -28.6372 -713.5283 L -42.8898 -705.2934"/><path stroke="#000" stroke-width="2" d="M -28.6372 -713.5283 L -28.6372 -729.9979"/><path stroke="#000" stroke-width="2" d="M -0.0792 -729.9979 L -0.0792 -762.9901"/><path stroke="#000" stroke-width="2" d="M -0.0792 -762.9901 L -14.3318 -754.7553"/><path stroke="#000" stroke-width="2" d="M -0.0792 -762.9901 L -0.0792 -779.4598"/><path stroke="#000" stroke-width="2" d="M -0.0792 -762.9901 L 14.1734 -754.7553"/><path stroke="#000" stroke-width="2" d="M -0.0792 -729.9979 L 28.4788 -713.5283"/><path stroke="#000" stroke-width="2" d="M 28.4788 -713.5283 L 28.4788 -730.0507"/><path stroke="#000" stroke-width="2" d="M 28.4788 -713.5283 L 42.7842 -705.2934"/><path stroke="#000" stroke-width="2" d="M 28.4788 -713.5283 L 14.1734 -705.2406"/><path stroke="#000" stroke-width="2" d="M -0.0792 -664.0136 L 57.0897 -631.0214"/><path stroke="#000" stroke-width="2" d="M 57.0897 -631.0214 L 57.0897 -664.0664"/><path stroke="#000" stroke-width="2" d="M 57.0897 -664.0664 L 42.7842 -655.8315"/><path stroke="#000" stroke-width="2" d="M 57.0897 -664.0664 L 57.0897 -680.5889"/><path stroke="#000" stroke-width="2" d="M 57.0897 -664.0664 L 71.3951 -655.8315"/><path stroke="#000" stroke-width="2" d="M 57.0897 -631.0214 L 85.7005 -614.499"/><path stroke="#000" stroke-width="2" d="M 85.7005 -614.499 L 85.7005 -631.0214"/><path stroke="#000" stroke-width="2" d="M 85.7005 -614.499 L 100.0059 -606.2113"/><path stroke="#000" stroke-width="2" d="M 85.7005 -614.499 L 71.3951 -606.2641"/><path stroke="#000" stroke-width="2" d="M 57.0897 -631.0214 L 28.4788 -614.499"/><path stroke="#000" stroke-width="2" d="M 28.4788 -614.499 L 42.7842 -606.2641"/><path stroke="#000" stroke-width="2" d="M 28.4788 -614.499 L 14.1734 -606.2113"/><path stroke="#000" stroke-width="2" d="M 28.4788 -614.499 L 28.4788 -631.0214"/><path stroke="#000" stroke-width="2" d="M -0.0792 -532.0449 L 114.2057 -466.0606"/><path stroke="#000" stroke-width="2" d="M 114.2057 -466.0606 L 114.2057 -532.0449"/><path stroke="#000" stroke-width="2" d="M 114.2057 -532.0449 L 85.6477 -515.5752"/><path stroke="#000" stroke-width="2" d="M 85.6477 -515.5752 L 99.9003 -507.3404"/><path stroke="#000" stroke-width="2" d="M 85.6477 -515.5752 L 71.3951 -507.3404"/><path stroke="#000" stroke-width="2" d="M 85.6477 -515.5752 L 85.6477 -532.0449"/><path stroke="#000" stroke-width="2" d="M 114.2057 -532.0449 L 114.2057 -565.0371"/><path stroke="#000" stroke-width="2" d="M 114.2057 -565.0371 L 99.9531 -556.8023"/><path stroke="#000" stroke-width="2" d="M 114.2057 -565.0371 L 114.2057 -581.5068"/><path stroke="#000" stroke-width="2" d="M 114.2057 -565.0371 L 128.4583 -556.8023"/><path stroke="#000" stroke-width="2" d="M 114.2057 -532.0449 L 142.7637 -515.5752"/><path stroke="#000" stroke-width="2" d="M 142.7637 -515.5752 L 142.7637 -532.0977"/><path stroke="#000" stroke-width="2" d="M 142.7637 -515.5752 L 157.0691 -507.3404"/><path stroke="#000" stroke-width="2" d="M 142.7637 -515.5752 L 128.4583 -507.2876"/><path stroke="#000" stroke-width="2" d="M 114.2057 -466.0606 L 171.3745 -433.0684"/><path stroke="#000" stroke-width="2" d="M 171.3745 -433.0684 L 171.3745 -466.1134"/><path stroke="#000" stroke-width="2" d="M 171.3745 -466.1134 L 157.0691 -457.8785"/><path stroke="#000" stroke-width="2" d="M 171.3745 -466.1134 L 171.3745 -482.6359"/><path stroke="#000" stroke-width="2" d="M 171.3745 -466.1134 L 185.6799 -457.8785"/><path stroke="#000" stroke-width="2" d="M 171.3745 -433.0684 L 199.9853 -416.5459"/><path stroke="#000" stroke-width="2" d="M 199.9853 -416.5459 L 199.9853 -433.0684"/><path stroke="#000" stroke-width="2" d="M 199.9853 -416.5459 L 214.2907 -408.2583"/><path stroke="#000" stroke-width="2" d="M 199.9853 -416.5459 L 185.6799 -408.3111"/><path stroke="#000" stroke-width="2" d="M 171.3745 -433.0684 L 142.7637 -416.5459"/><path stroke="#000" stroke-width="2" d="M 142.7637 -416.5459 L 157.0691 -408.3111"/><path stroke="#000" stroke-width="2" d="M 142.7637 -416.5459 L 128.4583 -408.2583"/><path stroke="#000" stroke-width="2" d="M 142.7637 -416.5459 L 142.7637 -433.0684"/><path stroke="#000" stroke-width="2" d="M 114.2057 -466.0606 L 57.0369 -433.0684"/><path stroke="#000" stroke-width="2" d="M 57.0369 -433.0684 L 85.6477 -416.5987"/><path stroke="#000" stroke-width="2" d="M 85.6477 -416.5987 L 85.6477 -433.1212"/><path stroke="#000" stroke-width="2" d="M 85.6477 -416.5987 L 99.9531 -408.3639"/><path stroke="#000" stroke-width="2" d="M 85.6477 -416.5987 L 71.3423 -408.3111"/><path stroke="#000" stroke-width="2" d="M 57.0369 -433.0684 L 28.4788 -416.5459"/><path stroke="#000" stroke-width="2" d="M 28.4788 -416.5459 L 42.7842 -408.3639"/><path stroke="#000" stroke-width="2" d="M 28.4788 -416.5459 L 14.2262 -408.2583"/><path stroke="#000" stroke-width="2" d="M 28.4788 -416.5459 L 28.4261 -433.0156"/><path stroke="#000" stroke-width="2" d="M 57.0369 -433.0684 L 56.9841 -466.0606"/><path stroke="#000" stroke-width="2" d="M 56.9841 -466.0606 L 42.7315 -457.8257"/><path stroke="#000" stroke-width="2" d="M 56.9841 -466.0606 L 56.9841 -482.5303"/><path stroke="#000" stroke-width="2" d="M 56.9841 -466.0606 L 71.2367 -457.8257"/><path stroke="#000" stroke-width="2" d="M -0.0792 -268.1076 L 228.4906 -136.1389"/><path stroke="#000" stroke-width="2" d="M 228.4906 -136.1389 L 228.4906 -268.1076"/><path stroke="#000" stroke-width="2" d="M 228.4906 -268.1076 L 171.3217 -235.1154"/><path stroke="#000" stroke-width="2" d="M 171.3217 -235.1154 L 199.9325 -218.6457"/><path stroke="#000" stroke-width="2" d="M 199.9325 -218.6457 L 199.9325 -235.1682"/><path stroke="#000" stroke-width="2" d="M 199.9325 -218.6457 L 214.238 -210.4109"/><path stroke="#000" stroke-width="2" d="M 199.9325 -218.6457 L 185.6271 -210.3581"/><path stroke="#000" stroke-width="2" d="M 171.3217 -235.1154 L 142.7637 -218.5929"/><path stroke="#000" stroke-width="2" d="M 142.7637 -218.5929 L 157.0691 -210.4109"/><path stroke="#000" stroke-width="2" d="M 142.7637 -218.5929 L 128.5111 -210.3053"/><path stroke="#000" stroke-width="2" d="M 142.7637 -218.5929 L 142.7109 -235.0626"/><path stroke="#000" stroke-width="2" d="M 171.3217 -235.1154 L 171.269 -268.1076"/><path stroke="#000" stroke-width="2" d="M 171.269 -268.1076 L 157.0163 -259.8727"/><path stroke="#000" stroke-width="2" d="M 171.269 -268.1076 L 171.269 -284.5773"/><path stroke="#000" stroke-width="2" d="M 171.269 -268.1076 L 185.5216 -259.8727"/><path stroke="#000" stroke-width="2" d="M 228.4906 -268.1076 L 228.4906 -334.0919"/><path stroke="#000" stroke-width="2" d="M 228.4906 -334.0919 L 199.9325 -317.6222"/><path stroke="#000" stroke-width="2" d="M 199.9325 -317.6222 L 214.1852 -309.3874"/><path stroke="#000" stroke-width="2" d="M 199.9325 -317.6222 L 185.6799 -309.3874"/><path stroke="#000" stroke-width="2" d="M 199.9325 -317.6222 L 199.9325 -334.0919"/><path stroke="#000" stroke-width="2" d="M 228.4906 -334.0919 L 228.4906 -367.0841"/><path stroke="#000" stroke-width="2" d="M 228.4906 -367.0841 L 214.238 -358.8492"/><path stroke="#000" stroke-width="2" d="M 228.4906 -367.0841 L 228.4906 -383.5538"/><path stroke="#000" stroke-width="2" d="M 228.4906 -367.0841 L 242.7432 -358.8492"/><path stroke="#000" stroke-width="2" d="M 228.4906 -334.0919 L 257.0486 -317.6222"/><path stroke="#000" stroke-width="2" d="M 257.0486 -317.6222 L 257.0486 -334.1447"/><path stroke="#000" stroke-width="2" d="M 257.0486 -317.6222 L 271.354 -309.3874"/><path stroke="#000" stroke-width="2" d="M 257.0486 -317.6222 L 242.7432 -309.3346"/><path stroke="#000" stroke-width="2" d="M 228.4906 -268.1076 L 285.6594 -235.1154"/><path stroke="#000" stroke-width="2" d="M 285.6594 -235.1154 L 285.6594 -268.1604"/><path stroke="#000" stroke-width="2" d="M 285.6594 -268.1604 L 271.354 -259.9255"/><path stroke="#000" stroke-width="2" d="M 285.6594 -268.1604 L 285.6594 -284.6828"/><path stroke="#000" stroke-width="2" d="M 285.6594 -268.1604 L 299.9648 -259.9255"/><path stroke="#000" stroke-width="2" d="M 285.6594 -235.1154 L 314.2702 -218.5929"/><path stroke="#000" stroke-width="2" d="M 314.2702 -218.5929 L 314.2702 -235.1154"/><path stroke="#000" stroke-width="2" d="M 314.2702 -218.5929 L 328.5756 -210.3053"/><path stroke="#000" stroke-width="2" d="M 314.2702 -218.5929 L 299.9648 -210.3581"/><path stroke="#000" stroke-width="2" d="M 285.6594 -235.1154 L 257.0486 -218.5929"/><path stroke="#000" stroke-width="2" d="M 257.0486 -218.5929 L 271.354 -210.3581"/><path stroke="#000" stroke-width="2" d="M 257.0486 -218.5929 L 242.7432 -210.3053"/><path stroke="#000" stroke-width="2" d="M 257.0486 -218.5929 L 257.0486 -235.1154"/><path stroke="#000" stroke-width="2" d="M 228.4906 -136.1389 L 342.7754 -70.1545"/><path stroke="#000" stroke-width="2" d="M 342.7754 -70.1545 L 342.7754 -136.1389"/><path stroke="#000" stroke-width="2" d="M 342.7754 -136.1389 L 314.2174 -119.6692"/><path stroke="#000" stroke-width="2" d="M 314.2174 -119.6692 L 328.47 -111.4344"/><path stroke="#000" stroke-width="2" d="M 314.2174 -119.6692 L 299.9648 -111.4344"/><path stroke="#000" stroke-width="2" d="M 314.2174 -119.6692 L 314.2174 -136.1389"/><path stroke="#000" stroke-width="2" d="M 342.7754 -136.1389 L 342.7754 -169.1311"/><path stroke="#000" stroke-width="2" d="M 342.7754 -169.1311 L 328.5228 -160.8962"/><path stroke="#000" stroke-width="2" d="M 342.7754 -169.1311 L 342.7754 -185.6008"/><path stroke="#000" stroke-width="2" d="M 342.7754 -169.1311 L 357.0281 -160.8962"/><path stroke="#000" stroke-width="2" d="M 342.7754 -136.1389 L 371.3335 -119.6692"/><path stroke="#000" stroke-width="2" d="M 371.3335 -119.6692 L 371.3335 -136.1917"/><path stroke="#000" stroke-width="2" d="M 371.3335 -119.6692 L 385.6389 -111.4344"/><path stroke="#000" stroke-width="2" d="M 371.3335 -119.6692 L 357.0281 -111.3816"/><path stroke="#000" stroke-width="2" d="M 342.7754 -70.1545 L 399.9443 -37.1624"/><path stroke="#000" stroke-width="2" d="M 399.9443 -37.1624 L 399.9443 -70.2073"/><path stroke="#000" stroke-width="2" d="M 399.9443 -70.2073 L 385.6389 -61.9725"/><path stroke="#000" stroke-width="2" d="M 399.9443 -70.2073 L 399.9443 -86.7298"/><path stroke="#000" stroke-width="2" d="M 399.9443 -70.2073 L 414.2497 -61.9725"/><path stroke="#000" stroke-width="2" d="M 399.9443 -37.1624 L 428.5551 -20.6399"/><path stroke="#000" stroke-width="2" d="M 428.5551 -20.6399 L 428.5551 -37.1624"/><path stroke="#000" stroke-width="2" d="M 428.5551 -20.6399 L 442.8605 -12.3523"/><path stroke="#000" stroke-width="2" d="M 428.5551 -20.6399 L 414.2497 -12.4051"/><path stroke="#000" stroke-width="2" d="M 399.9443 -37.1624 L 371.3335 -20.6399"/><path stroke="#000" stroke-width="2" d="M 371.3335 -20.6399 L 385.6389 -12.4051"/><path stroke="#000" stroke-width="2" d="M 371.3335 -20.6399 L 357.0281 -12.3523"/><path stroke="#000" stroke-width="2" d="M 371.3335 -20.6399 L 371.3335 -37.1624"/><path stroke="#000" stroke-width="2" d="M 342.7754 -70.1545 L 285.6066 -37.1624"/><path stroke="#000" stroke-width="2" d="M 285.6066 -37.1624 L 314.2174 -20.6927"/><path stroke="#000" stroke-width="2" d="M 314.2174 -20.6927 L 314.2174 -37.2152"/><path stroke="#000" stroke-width="2" d="M 314.2174 -20.6927 L 328.5228 -12.4578"/><path stroke="#000" stroke-width="2" d="M 314.2174 -20.6927 L 299.912 -12.4051"/><path stroke="#000" stroke-width="2" d="M 285.6066 -37.1624 L 257.0486 -20.6399"/><path stroke="#000" stroke-width="2" d="M 257.0486 -20.6399 L 271.354 -12.4578"/><path stroke="#000" stroke-width="2" d="M 257.0486 -20.6399 L 242.796 -12.3523"/><path stroke="#000" stroke-width="2" d="M 257.0486 -20.6399 L 256.9958 -37.1096"/><path stroke="#000" stroke-width="2" d="M 285.6066 -37.1624 L 285.5538 -70.1545"/><path stroke="#000" stroke-width="2" d="M 285.5538 -70.1545 L 271.3012 -61.9197"/><path stroke="#000" stroke-width="2" d="M 285.5538 -70.1545 L 285.5538 -86.6242"/><path stroke="#000" stroke-width="2" d="M 285.5538 -70.1545 L 299.8064 -61.9197"/><path stroke="#000" stroke-width="2" d="M 228.4906 -136.1389 L 114.2057 -70.1545"/><path stroke="#000" stroke-width="2" d="M 114.2057 -70.1545 L 171.3217 -37.1624"/><path stroke="#000" stroke-width="2" d="M 171.3217 -37.1624 L 171.3745 -70.1545"/><path stroke="#000" stroke-width="2" d="M 171.3745 -70.1545 L 157.0691 -61.9725"/><path stroke="#000" stroke-width="2" d="M 171.3745 -70.1545 L 171.4273 -86.6242"/><path stroke="#000" stroke-width="2" d="M 171.3745 -70.1545 L 185.6271 -61.8669"/><path stroke="#000" stroke-width="2" d="M 171.3217 -37.1624 L 199.8798 -20.6399"/><path stroke="#000" stroke-width="2" d="M 199.8798 -20.6399 L 199.8798 -37.1624"/><path stroke="#000" stroke-width="2" d="M 199.8798 -20.6399 L 214.1852 -12.3523"/><path stroke="#000" stroke-width="2" d="M 199.8798 -20.6399 L 185.5744 -12.4051"/><path stroke="#000" stroke-width="2" d="M 171.3217 -37.1624 L 142.7109 -20.6927"/><path stroke="#000" stroke-width="2" d="M 142.7109 -20.6927 L 157.0163 -12.4051"/><path stroke="#000" stroke-width="2" d="M 142.7109 -20.6927 L 128.4055 -12.4578"/><path stroke="#000" stroke-width="2" d="M 142.7109 -20.6927 L 142.7109 -37.2152"/><path stroke="#000" stroke-width="2" d="M 114.2057 -70.1545 L 57.0897 -37.1624"/><path stroke="#000" stroke-width="2" d="M 57.0897 -37.1624 L 85.7005 -20.6927"/><path stroke="#000" stroke-width="2" d="M 85.7005 -20.6927 L 85.7005 -37.2152"/><path stroke="#000" stroke-width="2" d="M 85.7005 -20.6927 L 100.0059 -12.4578"/><path stroke="#000" stroke-width="2" d="M 85.7005 -20.6927 L 71.3951 -12.4051"/><path stroke="#000" stroke-width="2" d="M 57.0897 -37.1624 L 28.5316 -20.6399"/><path stroke="#000" stroke-width="2" d="M 28.5316 -20.6399 L 42.837 -12.4578"/><path stroke="#000" stroke-width="2" d="M 28.5316 -20.6399 L 14.279 -12.3523"/><path stroke="#000" stroke-width="2" d="M 28.5316 -20.6399 L 28.4788 -37.1096"/><path stroke="#000" stroke-width="2" d="M 57.0897 -37.1624 L 57.0369 -70.1545"/><path stroke="#000" stroke-width="2" d="M 57.0369 -70.1545 L 42.7842 -61.9197"/><path stroke="#000" stroke-width="2" d="M 57.0369 -70.1545 L 57.0369 -86.6242"/><path stroke="#000" stroke-width="2" d="M 57.0369 -70.1545 L 71.2895 -61.9197"/><path stroke="#000" stroke-width="2" d="M 114.2057 -70.1545 L 114.2057 -136.1389"/><path stroke="#000" stroke-width="2" d="M 114.2057 -136.1389 L 85.6477 -119.6692"/><path stroke="#000" stroke-width="2" d="M 85.6477 -119.6692 L 99.9003 -111.4344"/><path stroke="#000" stroke-width="2" d="M 85.6477 -119.6692 L 71.3951 -111.4344"/><path stroke="#000" stroke-width="2" d="M 85.6477 -119.6692 L 85.6477 -136.1389"/><path stroke="#000" stroke-width="2" d="M 114.2057 -136.1389 L 114.2057 -169.1311"/><path stroke="#000" stroke-width="2" d="M 114.2057 -169.1311 L 99.9531 -160.8962"/><path stroke="#000" stroke-width="2" d="M 114.2057 -169.1311 L 114.2057 -185.6008"/><path stroke="#000" stroke-width="2" d="M 114.2057 -169.1311 L 128.4583 -160.8962"/><path stroke="#000" stroke-width="2" d="M 114.2057 -136.1389 L 142.7637 -119.6692"/><path stroke="#000" stroke-width="2" d="M 142.7637 -119.6692 L 142.7637 -136.1917"/><path stroke="#000" stroke-width="2" d="M 142.7637 -119.6692 L 157.0691 -111.4344"/><path stroke="#000" stroke-width="2" d="M 142.7637 -119.6692 L 128.4583 -111.3816"/><path stroke="#000" stroke-width="2" d="M -0.0792 259.7671 L -457.2187 523.7045"/><path stroke="#000" stroke-width="2" d="M -457.2187 523.7045 L -228.6489 655.6732"/><path stroke="#000" stroke-width="2" d="M -228.6489 655.6732 L -228.6489 523.7045"/><path stroke="#000" stroke-width="2" d="M -228.6489 523.7045 L -285.8178 556.6967"/><path stroke="#000" stroke-width="2" d="M -285.8178 556.6967 L -257.207 573.1664"/><path stroke="#000" stroke-width="2" d="M -257.207 573.1664 L -257.207 556.6439"/><path stroke="#000" stroke-width="2" d="M -257.207 573.1664 L -242.9016 581.4012"/><path stroke="#000" stroke-width="2" d="M -257.207 573.1664 L -271.5124 581.454"/><path stroke="#000" stroke-width="2" d="M -285.8178 556.6967 L -314.3758 573.2192"/><path stroke="#000" stroke-width="2" d="M -314.3758 573.2192 L -300.0704 581.4012"/><path stroke="#000" stroke-width="2" d="M -314.3758 573.2192 L -328.6284 581.5068"/><path stroke="#000" stroke-width="2" d="M -314.3758 573.2192 L -314.4286 556.7495"/><path stroke="#000" stroke-width="2" d="M -285.8178 556.6967 L -285.8706 523.7045"/><path stroke="#000" stroke-width="2" d="M -285.8706 523.7045 L -300.1232 531.9394"/><path stroke="#000" stroke-width="2" d="M -285.8706 523.7045 L -285.8706 507.2348"/><path stroke="#000" stroke-width="2" d="M -285.8706 523.7045 L -271.6179 531.9394"/><path stroke="#000" stroke-width="2" d="M -228.6489 523.7045 L -228.6489 457.7202"/><path stroke="#000" stroke-width="2" d="M -228.6489 457.7202 L -257.207 474.1899"/><path stroke="#000" stroke-width="2" d="M -257.207 474.1899 L -242.9543 482.4247"/><path stroke="#000" stroke-width="2" d="M -257.207 474.1899 L -271.4596 482.4247"/><path stroke="#000" stroke-width="2" d="M -257.207 474.1899 L -257.207 457.7202"/><path stroke="#000" stroke-width="2" d="M -228.6489 457.7202 L -228.6489 424.728"/><path stroke="#000" stroke-width="2" d="M -228.6489 424.728 L -242.9016 432.9628"/><path stroke="#000" stroke-width="2" d="M -228.6489 424.728 L -228.6489 408.2583"/><path stroke="#000" stroke-width="2" d="M -228.6489 424.728 L -214.3963 432.9628"/><path stroke="#000" stroke-width="2" d="M -228.6489 457.7202 L -200.0909 474.1899"/><path stroke="#000" stroke-width="2" d="M -200.0909 474.1899 L -200.0909 457.6674"/><path stroke="#000" stroke-width="2" d="M -200.0909 474.1899 L -185.7855 482.4247"/><path stroke="#000" stroke-width="2" d="M -200.0909 474.1899 L -214.3963 482.4775"/><path stroke="#000" stroke-width="2" d="M -228.6489 523.7045 L -171.4801 556.6967"/><path stroke="#000" stroke-width="2" d="M -171.4801 556.6967 L -171.4801 523.6517"/><path stroke="#000" stroke-width="2" d="M -171.4801 523.6517 L -185.7855 531.8866"/><path stroke="#000" stroke-width="2" d="M -171.4801 523.6517 L -171.4801 507.1292"/><path stroke="#000" stroke-width="2" d="M -171.4801 523.6517 L -157.1747 531.8866"/><path stroke="#000" stroke-width="2" d="M -171.4801 556.6967 L -142.8693 573.2192"/><path stroke="#000" stroke-width="2" d="M -142.8693 573.2192 L -142.8693 556.6967"/><path stroke="#000" stroke-width="2" d="M -142.8693 573.2192 L -128.5639 581.5068"/><path stroke="#000" stroke-width="2" d="M -142.8693 573.2192 L -157.1747 581.454"/><path stroke="#000" stroke-width="2" d="M -171.4801 556.6967 L -200.0909 573.2192"/><path stroke="#000" stroke-width="2" d="M -200.0909 573.2192 L -185.7855 581.454"/><path stroke="#000" stroke-width="2" d="M -200.0909 573.2192 L -214.3963 581.5068"/><path stroke="#000" stroke-width="2" d="M -200.0909 573.2192 L -200.0909 556.6967"/><path stroke="#000" stroke-width="2" d="M -228.6489 655.6732 L -114.3641 721.6575"/><path stroke="#000" stroke-width="2" d="M -114.3641 721.6575 L -114.3641 655.6732"/><path stroke="#000" stroke-width="2" d="M -114.3641 655.6732 L -142.9221 672.1429"/><path stroke="#000" stroke-width="2" d="M -142.9221 672.1429 L -128.6695 680.3777"/><path stroke="#000" stroke-width="2" d="M -142.9221 672.1429 L -157.1747 680.3777"/><path stroke="#000" stroke-width="2" d="M -142.9221 672.1429 L -142.9221 655.6732"/><path stroke="#000" stroke-width="2" d="M -114.3641 655.6732 L -114.3641 622.681"/><path stroke="#000" stroke-width="2" d="M -114.3641 622.681 L -128.6167 630.9159"/><path stroke="#000" stroke-width="2" d="M -114.3641 622.681 L -114.3641 606.2113"/><path stroke="#000" stroke-width="2" d="M -114.3641 622.681 L -100.1114 630.9159"/><path stroke="#000" stroke-width="2" d="M -114.3641 655.6732 L -85.806 672.1429"/><path stroke="#000" stroke-width="2" d="M -85.806 672.1429 L -85.806 655.6204"/><path stroke="#000" stroke-width="2" d="M -85.806 672.1429 L -71.5006 680.3777"/><path stroke="#000" stroke-width="2" d="M -85.806 672.1429 L -100.1114 680.4305"/><path stroke="#000" stroke-width="2" d="M -114.3641 721.6575 L -57.1952 754.6497"/><path stroke="#000" stroke-width="2" d="M -57.1952 754.6497 L -57.1952 721.6047"/><path stroke="#000" stroke-width="2" d="M -57.1952 721.6047 L -71.5006 729.8396"/><path stroke="#000" stroke-width="2" d="M -57.1952 721.6047 L -57.1952 705.0823"/><path stroke="#000" stroke-width="2" d="M -57.1952 721.6047 L -42.8898 729.8396"/><path stroke="#000" stroke-width="2" d="M -57.1952 754.6497 L -28.5844 771.1722"/><path stroke="#000" stroke-width="2" d="M -28.5844 771.1722 L -28.5844 754.6497"/><path stroke="#000" stroke-width="2" d="M -28.5844 771.1722 L -14.279 779.4598"/><path stroke="#000" stroke-width="2" d="M -28.5844 771.1722 L -42.8898 779.407"/><path stroke="#000" stroke-width="2" d="M -57.1952 754.6497 L -85.806 771.1722"/><path stroke="#000" stroke-width="2" d="M -85.806 771.1722 L -71.5006 779.407"/><path stroke="#000" stroke-width="2" d="M -85.806 771.1722 L -100.1114 779.4598"/><path stroke="#000" stroke-width="2" d="M -85.806 771.1722 L -85.806 754.6497"/><path stroke="#000" stroke-width="2" d="M -114.3641 721.6575 L -171.5329 754.6497"/><path stroke="#000" stroke-width="2" d="M -171.5329 754.6497 L -142.9221 771.1194"/><path stroke="#000" stroke-width="2" d="M -142.9221 771.1194 L -142.9221 754.5969"/><path stroke="#000" stroke-width="2" d="M -142.9221 771.1194 L -128.6167 779.3542"/><path stroke="#000" stroke-width="2" d="M -142.9221 771.1194 L -157.2275 779.407"/><path stroke="#000" stroke-width="2" d="M -171.5329 754.6497 L -200.0909 771.1722"/><path stroke="#000" stroke-width="2" d="M -200.0909 771.1722 L -185.7855 779.3542"/><path stroke="#000" stroke-width="2" d="M -200.0909 771.1722 L -214.3435 779.4598"/><path stroke="#000" stroke-width="2" d="M -200.0909 771.1722 L -200.1437 754.7025"/><path stroke="#000" stroke-width="2" d="M -171.5329 754.6497 L -171.5857 721.6575"/><path stroke="#000" stroke-width="2" d="M -171.5857 721.6575 L -185.8383 729.8924"/><path stroke="#000" stroke-width="2" d="M -171.5857 721.6575 L -171.5857 705.1878"/><path stroke="#000" stroke-width="2" d="M -171.5857 721.6575 L -157.3331 729.8924"/><path stroke="#000" stroke-width="2" d="M -228.6489 655.6732 L -342.9338 721.6575"/><path stroke="#000" stroke-width="2" d="M -342.9338 721.6575 L -285.8178 754.6497"/><path stroke="#000" stroke-width="2" d="M -285.8178 754.6497 L -285.765 721.6575"/><path stroke="#000" stroke-width="2" d="M -285.765 721.6575 L -300.0704 729.8396"/><path stroke="#000" stroke-width="2" d="M -285.765 721.6575 L -285.7122 705.1878"/><path stroke="#000" stroke-width="2" d="M -285.765 721.6575 L -271.5124 729.9452"/><path stroke="#000" stroke-width="2" d="M -285.8178 754.6497 L -257.2597 771.1722"/><path stroke="#000" stroke-width="2" d="M -257.2597 771.1722 L -257.2597 754.6497"/><path stroke="#000" stroke-width="2" d="M -257.2597 771.1722 L -242.9543 779.4598"/><path stroke="#000" stroke-width="2" d="M -257.2597 771.1722 L -271.5651 779.407"/><path stroke="#000" stroke-width="2" d="M -285.8178 754.6497 L -314.4286 771.1194"/><path stroke="#000" stroke-width="2" d="M -314.4286 771.1194 L -300.1232 779.407"/><path stroke="#000" stroke-width="2" d="M -314.4286 771.1194 L -328.734 779.3542"/><path stroke="#000" stroke-width="2" d="M -314.4286 771.1194 L -314.4286 754.5969"/><path stroke="#000" stroke-width="2" d="M -342.9338 721.6575 L -400.0499 754.6497"/><path stroke="#000" stroke-width="2" d="M -400.0499 754.6497 L -371.439 771.1194"/><path stroke="#000" stroke-width="2" d="M -371.439 771.1194 L -371.439 754.5969"/><path stroke="#000" stroke-width="2" d="M -371.439 771.1194 L -357.1336 779.3542"/><path stroke="#000" stroke-width="2" d="M -371.439 771.1194 L -385.7444 779.407"/><path stroke="#000" stroke-width="2" d="M -400.0499 754.6497 L -428.6079 771.1722"/><path stroke="#000" stroke-width="2" d="M -428.6079 771.1722 L -414.3025 779.3542"/><path stroke="#000" stroke-width="2" d="M -428.6079 771.1722 L -442.8605 779.4598"/><path stroke="#000" stroke-width="2" d="M -428.6079 771.1722 L -428.6607 754.7025"/><path stroke="#000" stroke-width="2" d="M -400.0499 754.6497 L -400.1026 721.6575"/><path stroke="#000" stroke-width="2" d="M -400.1026 721.6575 L -414.3553 729.8924"/><path stroke="#000" stroke-width="2" d="M -400.1026 721.6575 L -400.1026 705.1878"/><path stroke="#000" stroke-width="2" d="M -400.1026 721.6575 L -385.85 729.8924"/><path stroke="#000" stroke-width="2" d="M -342.9338 721.6575 L -342.9338 655.6732"/><path stroke="#000" stroke-width="2" d="M -342.9338 655.6732 L -371.4918 672.1429"/><path stroke="#000" stroke-width="2" d="M -371.4918 672.1429 L -357.2392 680.3777"/><path stroke="#000" stroke-width="2" d="M -371.4918 672.1429 L -385.7444 680.3777"/><path stroke="#000" stroke-width="2" d="M -371.4918 672.1429 L -371.4918 655.6732"/><path stroke="#000" stroke-width="2" d="M -342.9338 655.6732 L -342.9338 622.681"/><path stroke="#000" stroke-width="2" d="M -342.9338 622.681 L -357.1864 630.9159"/><path stroke="#000" stroke-width="2" d="M -342.9338 622.681 L -342.9338 606.2113"/><path stroke="#000" stroke-width="2" d="M -342.9338 622.681 L -328.6812 630.9159"/><path stroke="#000" stroke-width="2" d="M -342.9338 655.6732 L -314.3758 672.1429"/><path stroke="#000" stroke-width="2" d="M -314.3758 672.1429 L -314.3758 655.6204"/><path stroke="#000" stroke-width="2" d="M -314.3758 672.1429 L -300.0704 680.3777"/><path stroke="#000" stroke-width="2" d="M -314.3758 672.1429 L -328.6812 680.4305"/><path stroke="#000" stroke-width="2" d="M -457.2187 523.7045 L -685.7884 655.6732"/><path stroke="#000" stroke-width="2" d="M -685.7884 655.6732 L -571.5036 721.6575"/><path stroke="#000" stroke-width="2" d="M -571.5036 721.6575 L -571.5036 655.6732"/><path stroke="#000" stroke-width="2" d="M -571.5036 655.6732 L -600.0616 672.1429"/><path stroke="#000" stroke-width="2" d="M -600.0616 672.1429 L -585.809 680.3777"/><path stroke="#000" stroke-width="2" d="M -600.0616 672.1429 L -614.3142 680.3777"/><path stroke="#000" stroke-width="2" d="M -600.0616 672.1429 L -600.0616 655.6732"/><path stroke="#000" stroke-width="2" d="M -571.5036 655.6732 L -571.5036 622.681"/><path stroke="#000" stroke-width="2" d="M -571.5036 622.681 L -585.7562 630.9159"/><path stroke="#000" stroke-width="2" d="M -571.5036 622.681 L -571.5036 606.2113"/><path stroke="#000" stroke-width="2" d="M -571.5036 622.681 L -557.2509 630.9159"/><path stroke="#000" stroke-width="2" d="M -571.5036 655.6732 L -542.9455 672.1429"/><path stroke="#000" stroke-width="2" d="M -542.9455 672.1429 L -542.9455 655.6204"/><path stroke="#000" stroke-width="2" d="M -542.9455 672.1429 L -528.6401 680.3777"/><path stroke="#000" stroke-width="2" d="M -542.9455 672.1429 L -557.2509 680.4305"/><path stroke="#000" stroke-width="2" d="M -571.5036 721.6575 L -514.3347 754.6497"/><path stroke="#000" stroke-width="2" d="M -514.3347 754.6497 L -514.3347 721.6047"/><path stroke="#000" stroke-width="2" d="M -514.3347 721.6047 L -528.6401 729.8396"/><path stroke="#000" stroke-width="2" d="M -514.3347 721.6047 L -514.3347 705.0823"/><path stroke="#000" stroke-width="2" d="M -514.3347 721.6047 L -500.0293 729.8396"/><path stroke="#000" stroke-width="2" d="M -514.3347 754.6497 L -485.7239 771.1722"/><path stroke="#000" stroke-width="2" d="M -485.7239 771.1722 L -485.7239 754.6497"/><path stroke="#000" stroke-width="2" d="M -485.7239 771.1722 L -471.4185 779.4598"/><path stroke="#000" stroke-width="2" d="M -485.7239 771.1722 L -500.0293 779.407"/><path stroke="#000" stroke-width="2" d="M -514.3347 754.6497 L -542.9455 771.1722"/><path stroke="#000" stroke-width="2" d="M -542.9455 771.1722 L -528.6401 779.407"/><path stroke="#000" stroke-width="2" d="M -542.9455 771.1722 L -557.2509 779.4598"/><path stroke="#000" stroke-width="2" d="M -542.9455 771.1722 L -542.9455 754.6497"/><path stroke="#000" stroke-width="2" d="M -571.5036 721.6575 L -628.6724 754.6497"/><path stroke="#000" stroke-width="2" d="M -628.6724 754.6497 L -600.0616 771.1194"/><path stroke="#000" stroke-width="2" d="M -600.0616 771.1194 L -600.0616 754.5969"/><path stroke="#000" stroke-width="2" d="M -600.0616 771.1194 L -585.7562 779.3542"/><path stroke="#000" stroke-width="2" d="M -600.0616 771.1194 L -614.367 779.407"/><path stroke="#000" stroke-width="2" d="M -628.6724 754.6497 L -657.2304 771.1722"/><path stroke="#000" stroke-width="2" d="M -657.2304 771.1722 L -642.925 779.3542"/><path stroke="#000" stroke-width="2" d="M -657.2304 771.1722 L -671.483 779.4598"/><path stroke="#000" stroke-width="2" d="M -657.2304 771.1722 L -657.2832 754.7025"/><path stroke="#000" stroke-width="2" d="M -628.6724 754.6497 L -628.7252 721.6575"/><path stroke="#000" stroke-width="2" d="M -628.7252 721.6575 L -642.9778 729.8924"/><path stroke="#000" stroke-width="2" d="M -628.7252 721.6575 L -628.7252 705.1878"/><path stroke="#000" stroke-width="2" d="M -628.7252 721.6575 L -614.4726 729.8924"/><path stroke="#000" stroke-width="2" d="M -685.7884 655.6732 L -800.0733 721.6575"/><path stroke="#000" stroke-width="2" d="M -800.0733 721.6575 L -742.9573 754.6497"/><path stroke="#000" stroke-width="2" d="M -742.9573 754.6497 L -742.9045 721.6575"/><path stroke="#000" stroke-width="2" d="M -742.9045 721.6575 L -757.2099 729.8396"/><path stroke="#000" stroke-width="2" d="M -742.9045 721.6575 L -742.8517 705.1878"/><path stroke="#000" stroke-width="2" d="M -742.9045 721.6575 L -728.6519 729.9452"/><path stroke="#000" stroke-width="2" d="M -742.9573 754.6497 L -714.3992 771.1722"/><path stroke="#000" stroke-width="2" d="M -714.3992 771.1722 L -714.3992 754.6497"/><path stroke="#000" stroke-width="2" d="M -714.3992 771.1722 L -700.0938 779.4598"/><path stroke="#000" stroke-width="2" d="M -714.3992 771.1722 L -728.7047 779.407"/><path stroke="#000" stroke-width="2" d="M -742.9573 754.6497 L -771.5681 771.1194"/><path stroke="#000" stroke-width="2" d="M -771.5681 771.1194 L -757.2627 779.407"/><path stroke="#000" stroke-width="2" d="M -771.5681 771.1194 L -785.8735 779.3542"/><path stroke="#000" stroke-width="2" d="M -771.5681 771.1194 L -771.5681 754.5969"/><path stroke="#000" stroke-width="2" d="M -800.0733 721.6575 L -857.1894 754.6497"/><path stroke="#000" stroke-width="2" d="M -857.1894 754.6497 L -828.5786 771.1194"/><path stroke="#000" stroke-width="2" d="M -828.5786 771.1194 L -828.5786 754.5969"/><path stroke="#000" stroke-width="2" d="M -828.5786 771.1194 L -814.2731 779.3542"/><path stroke="#000" stroke-width="2" d="M -828.5786 771.1194 L -842.884 779.407"/><path stroke="#000" stroke-width="2" d="M -857.1894 754.6497 L -885.7474 771.1722"/><path stroke="#000" stroke-width="2" d="M -885.7474 771.1722 L -871.442 779.3542"/><path stroke="#000" stroke-width="2" d="M -885.7474 771.1722 L -900 779.4598"/><path stroke="#000" stroke-width="2" d="M -885.7474 771.1722 L -885.8002 754.7025"/><path stroke="#000" stroke-width="2" d="M -857.1894 754.6497 L -857.2421 721.6575"/><path stroke="#000" stroke-width="2" d="M -857.2421 721.6575 L -871.4948 729.8924"/><path stroke="#000" stroke-width="2" d="M -857.2421 721.6575 L -857.2421 705.1878"/><path stroke="#000" stroke-width="2" d="M -857.2421 721.6575 L -842.9895 729.8924"/><path stroke="#000" stroke-width="2" d="M -800.0733 721.6575 L -800.0733 655.6732"/><path stroke="#000" stroke-width="2" d="M -800.0733 655.6732 L -828.6313 672.1429"/><path stroke="#000" stroke-width="2" d="M -828.6313 672.1429 L -814.3787 680.3777"/><path stroke="#000" stroke-width="2" d="M -828.6313 672.1429 L -842.884 680.3777"/><path stroke="#000" stroke-width="2" d="M -828.6313 672.1429 L -828.6313 655.6732"/><path stroke="#000" stroke-width="2" d="M -800.0733 655.6732 L -800.0733 622.681"/><path stroke="#000" stroke-width="2" d="M -800.0733 622.681 L -814.3259 630.9159"/><path stroke="#000" stroke-width="2" d="M -800.0733 622.681 L -800.0733 606.2113"/><path stroke="#000" stroke-width="2" d="M -800.0733 622.681 L -785.8207 630.9159"/><path stroke="#000" stroke-width="2" d="M -800.0733 655.6732 L -771.5153 672.1429"/><path stroke="#000" stroke-width="2" d="M -771.5153 672.1429 L -771.5153 655.6204"/><path stroke="#000" stroke-width="2" d="M -771.5153 672.1429 L -757.2099 680.3777"/><path stroke="#000" stroke-width="2" d="M -771.5153 672.1429 L -785.8207 680.4305"/><path stroke="#000" stroke-width="2" d="M -685.7884 655.6732 L -685.7884 523.7045"/><path stroke="#000" stroke-width="2" d="M -685.7884 523.7045 L -742.9573 556.6967"/><path stroke="#000" stroke-width="2" d="M -742.9573 556.6967 L -714.3465 573.1664"/><path stroke="#000" stroke-width="2" d="M -714.3465 573.1664 L -714.3465 556.6439"/><path stroke="#000" stroke-width="2" d="M -714.3465 573.1664 L -700.0411 581.4012"/><path stroke="#000" stroke-width="2" d="M -714.3465 573.1664 L -728.6519 581.454"/><path stroke="#000" stroke-width="2" d="M -742.9573 556.6967 L -771.5153 573.2192"/><path stroke="#000" stroke-width="2" d="M -771.5153 573.2192 L -757.2099 581.4012"/><path stroke="#000" stroke-width="2" d="M -771.5153 573.2192 L -785.7679 581.5068"/><path stroke="#000" stroke-width="2" d="M -771.5153 573.2192 L -771.5681 556.7495"/><path stroke="#000" stroke-width="2" d="M -742.9573 556.6967 L -743.0101 523.7045"/><path stroke="#000" stroke-width="2" d="M -743.0101 523.7045 L -757.2627 531.9394"/><path stroke="#000" stroke-width="2" d="M -743.0101 523.7045 L -743.0101 507.2348"/><path stroke="#000" stroke-width="2" d="M -743.0101 523.7045 L -728.7574 531.9394"/><path stroke="#000" stroke-width="2" d="M -685.7884 523.7045 L -685.7884 457.7202"/><path stroke="#000" stroke-width="2" d="M -685.7884 457.7202 L -714.3465 474.1899"/><path stroke="#000" stroke-width="2" d="M -714.3465 474.1899 L -700.0938 482.4247"/><path stroke="#000" stroke-width="2" d="M -714.3465 474.1899 L -728.5991 482.4247"/><path stroke="#000" stroke-width="2" d="M -714.3465 474.1899 L -714.3465 457.7202"/><path stroke="#000" stroke-width="2" d="M -685.7884 457.7202 L -685.7884 424.728"/><path stroke="#000" stroke-width="2" d="M -685.7884 424.728 L -700.0411 432.9628"/><path stroke="#000" stroke-width="2" d="M -685.7884 424.728 L -685.7884 408.2583"/><path stroke="#000" stroke-width="2" d="M -685.7884 424.728 L -671.5358 432.9628"/><path stroke="#000" stroke-width="2" d="M -685.7884 457.7202 L -657.2304 474.1899"/><path stroke="#000" stroke-width="2" d="M -657.2304 474.1899 L -657.2304 457.6674"/><path stroke="#000" stroke-width="2" d="M -657.2304 474.1899 L -642.925 482.4247"/><path stroke="#000" stroke-width="2" d="M -657.2304 474.1899 L -671.5358 482.4775"/><path stroke="#000" stroke-width="2" d="M -685.7884 523.7045 L -628.6196 556.6967"/><path stroke="#000" stroke-width="2" d="M -628.6196 556.6967 L -628.6196 523.6517"/><path stroke="#000" stroke-width="2" d="M -628.6196 523.6517 L -642.925 531.8866"/><path stroke="#000" stroke-width="2" d="M -628.6196 523.6517 L -628.6196 507.1292"/><path stroke="#000" stroke-width="2" d="M -628.6196 523.6517 L -614.3142 531.8866"/><path stroke="#000" stroke-width="2" d="M -628.6196 556.6967 L -600.0088 573.2192"/><path stroke="#000" stroke-width="2" d="M -600.0088 573.2192 L -600.0088 556.6967"/><path stroke="#000" stroke-width="2" d="M -600.0088 573.2192 L -585.7034 581.5068"/><path stroke="#000" stroke-width="2" d="M -600.0088 573.2192 L -614.3142 581.454"/><path stroke="#000" stroke-width="2" d="M -628.6196 556.6967 L -657.2304 573.2192"/><path stroke="#000" stroke-width="2" d="M -657.2304 573.2192 L -642.925 581.454"/><path stroke="#000" stroke-width="2" d="M -657.2304 573.2192 L -671.5358 581.5068"/><path stroke="#000" stroke-width="2" d="M -657.2304 573.2192 L -657.2304 556.6967"/><path stroke="#000" stroke-width="2" d="M -457.2187 523.7045 L -457.2187 259.7671"/><path stroke="#000" stroke-width="2" d="M -457.2187 259.7671 L -571.5036 325.7515"/><path stroke="#000" stroke-width="2" d="M -571.5036 325.7515 L -514.3875 358.7437"/><path stroke="#000" stroke-width="2" d="M -514.3875 358.7437 L -514.3347 325.7515"/><path stroke="#000" stroke-width="2" d="M -514.3347 325.7515 L -528.6401 333.9335"/><path stroke="#000" stroke-width="2" d="M -514.3347 325.7515 L -514.2819 309.2818"/><path stroke="#000" stroke-width="2" d="M -514.3347 325.7515 L -500.0821 334.0391"/><path stroke="#000" stroke-width="2" d="M -514.3875 358.7437 L -485.8295 375.2661"/><path stroke="#000" stroke-width="2" d="M -485.8295 375.2661 L -485.8295 358.7437"/><path stroke="#000" stroke-width="2" d="M -485.8295 375.2661 L -471.5241 383.5538"/><path stroke="#000" stroke-width="2" d="M -485.8295 375.2661 L -500.1349 383.501"/><path stroke="#000" stroke-width="2" d="M -514.3875 358.7437 L -542.9983 375.2133"/><path stroke="#000" stroke-width="2" d="M -542.9983 375.2133 L -528.6929 383.501"/><path stroke="#000" stroke-width="2" d="M -542.9983 375.2133 L -557.3037 383.4482"/><path stroke="#000" stroke-width="2" d="M -542.9983 375.2133 L -542.9983 358.6909"/><path stroke="#000" stroke-width="2" d="M -571.5036 325.7515 L -628.6196 358.7437"/><path stroke="#000" stroke-width="2" d="M -628.6196 358.7437 L -600.0088 375.2133"/><path stroke="#000" stroke-width="2" d="M -600.0088 375.2133 L -600.0088 358.6909"/><path stroke="#000" stroke-width="2" d="M -600.0088 375.2133 L -585.7034 383.4482"/><path stroke="#000" stroke-width="2" d="M -600.0088 375.2133 L -614.3142 383.501"/><path stroke="#000" stroke-width="2" d="M -628.6196 358.7437 L -657.1776 375.2661"/><path stroke="#000" stroke-width="2" d="M -657.1776 375.2661 L -642.8722 383.4482"/><path stroke="#000" stroke-width="2" d="M -657.1776 375.2661 L -671.4302 383.5538"/><path stroke="#000" stroke-width="2" d="M -657.1776 375.2661 L -657.2304 358.7964"/><path stroke="#000" stroke-width="2" d="M -628.6196 358.7437 L -628.6724 325.7515"/><path stroke="#000" stroke-width="2" d="M -628.6724 325.7515 L -642.925 333.9863"/><path stroke="#000" stroke-width="2" d="M -628.6724 325.7515 L -628.6724 309.2818"/><path stroke="#000" stroke-width="2" d="M -628.6724 325.7515 L -614.4198 333.9863"/><path stroke="#000" stroke-width="2" d="M -571.5036 325.7515 L -571.5036 259.7671"/><path stroke="#000" stroke-width="2" d="M -571.5036 259.7671 L -600.0616 276.2368"/><path stroke="#000" stroke-width="2" d="M -600.0616 276.2368 L -585.809 284.4717"/><path stroke="#000" stroke-width="2" d="M -600.0616 276.2368 L -614.3142 284.4717"/><path stroke="#000" stroke-width="2" d="M -600.0616 276.2368 L -600.0616 259.7671"/><path stroke="#000" stroke-width="2" d="M -571.5036 259.7671 L -571.5036 226.775"/><path stroke="#000" stroke-width="2" d="M -571.5036 226.775 L -585.7562 235.0098"/><path stroke="#000" stroke-width="2" d="M -571.5036 226.775 L -571.5036 210.3053"/><path stroke="#000" stroke-width="2" d="M -571.5036 226.775 L -557.2509 235.0098"/><path stroke="#000" stroke-width="2" d="M -571.5036 259.7671 L -542.9455 276.2368"/><path stroke="#000" stroke-width="2" d="M -542.9455 276.2368 L -542.9455 259.7144"/><path stroke="#000" stroke-width="2" d="M -542.9455 276.2368 L -528.6401 284.4717"/><path stroke="#000" stroke-width="2" d="M -542.9455 276.2368 L -557.2509 284.5245"/><path stroke="#000" stroke-width="2" d="M -457.2187 259.7671 L -457.2187 127.7985"/><path stroke="#000" stroke-width="2" d="M -457.2187 127.7985 L -514.3875 160.7906"/><path stroke="#000" stroke-width="2" d="M -514.3875 160.7906 L -485.7767 177.2603"/><path stroke="#000" stroke-width="2" d="M -485.7767 177.2603 L -485.7767 160.7379"/><path stroke="#000" stroke-width="2" d="M -485.7767 177.2603 L -471.4713 185.4952"/><path stroke="#000" stroke-width="2" d="M -485.7767 177.2603 L -500.0821 185.548"/><path stroke="#000" stroke-width="2" d="M -514.3875 160.7906 L -542.9455 177.3131"/><path stroke="#000" stroke-width="2" d="M -542.9455 177.3131 L -528.6401 185.4952"/><path stroke="#000" stroke-width="2" d="M -542.9455 177.3131 L -557.1982 185.6008"/><path stroke="#000" stroke-width="2" d="M -542.9455 177.3131 L -542.9983 160.8434"/><path stroke="#000" stroke-width="2" d="M -514.3875 160.7906 L -514.4403 127.7985"/><path stroke="#000" stroke-width="2" d="M -514.4403 127.7985 L -528.6929 136.0333"/><path stroke="#000" stroke-width="2" d="M -514.4403 127.7985 L -514.4403 111.3288"/><path stroke="#000" stroke-width="2" d="M -514.4403 127.7985 L -500.1877 136.0333"/><path stroke="#000" stroke-width="2" d="M -457.2187 127.7985 L -457.2187 61.8141"/><path stroke="#000" stroke-width="2" d="M -457.2187 61.8141 L -485.7767 78.2838"/><path stroke="#000" stroke-width="2" d="M -485.7767 78.2838 L -471.5241 86.5187"/><path stroke="#000" stroke-width="2" d="M -485.7767 78.2838 L -500.0293 86.5187"/><path stroke="#000" stroke-width="2" d="M -485.7767 78.2838 L -485.7767 61.8141"/><path stroke="#000" stroke-width="2" d="M -457.2187 61.8141 L -457.2187 28.822"/><path stroke="#000" stroke-width="2" d="M -457.2187 28.822 L -471.4713 37.0568"/><path stroke="#000" stroke-width="2" d="M -457.2187 28.822 L -457.2187 12.3523"/><path stroke="#000" stroke-width="2" d="M -457.2187 28.822 L -442.9661 37.0568"/><path stroke="#000" stroke-width="2" d="M -457.2187 61.8141 L -428.6607 78.2838"/><path stroke="#000" stroke-width="2" d="M -428.6607 78.2838 L -428.6607 61.7613"/><path stroke="#000" stroke-width="2" d="M -428.6607 78.2838 L -414.3553 86.5187"/><path stroke="#000" stroke-width="2" d="M -428.6607 78.2838 L -442.9661 86.5715"/><path stroke="#000" stroke-width="2" d="M -457.2187 127.7985 L -400.0499 160.7906"/><path stroke="#000" stroke-width="2" d="M -400.0499 160.7906 L -400.0499 127.7457"/><path stroke="#000" stroke-width="2" d="M -400.0499 127.7457 L -414.3553 135.9805"/><path stroke="#000" stroke-width="2" d="M -400.0499 127.7457 L -400.0499 111.2232"/><path stroke="#000" stroke-width="2" d="M -400.0499 127.7457 L -385.7444 135.9805"/><path stroke="#000" stroke-width="2" d="M -400.0499 160.7906 L -371.439 177.3131"/><path stroke="#000" stroke-width="2" d="M -371.439 177.3131 L -371.439 160.7906"/><path stroke="#000" stroke-width="2" d="M -371.439 177.3131 L -357.1336 185.6008"/><path stroke="#000" stroke-width="2" d="M -371.439 177.3131 L -385.7444 185.548"/><path stroke="#000" stroke-width="2" d="M -400.0499 160.7906 L -428.6607 177.3131"/><path stroke="#000" stroke-width="2" d="M -428.6607 177.3131 L -414.3553 185.548"/><path stroke="#000" stroke-width="2" d="M -428.6607 177.3131 L -442.9661 185.6008"/><path stroke="#000" stroke-width="2" d="M -428.6607 177.3131 L -428.6607 160.7906"/><path stroke="#000" stroke-width="2" d="M -457.2187 259.7671 L -342.9338 325.7515"/><path stroke="#000" stroke-width="2" d="M -342.9338 325.7515 L -342.9338 259.7671"/><path stroke="#000" stroke-width="2" d="M -342.9338 259.7671 L -371.4918 276.2368"/><path stroke="#000" stroke-width="2" d="M -371.4918 276.2368 L -357.2392 284.4717"/><path stroke="#000" stroke-width="2" d="M -371.4918 276.2368 L -385.7444 284.4717"/><path stroke="#000" stroke-width="2" d="M -371.4918 276.2368 L -371.4918 259.7671"/><path stroke="#000" stroke-width="2" d="M -342.9338 259.7671 L -342.9338 226.775"/><path stroke="#000" stroke-width="2" d="M -342.9338 226.775 L -357.1864 235.0098"/><path stroke="#000" stroke-width="2" d="M -342.9338 226.775 L -342.9338 210.3053"/><path stroke="#000" stroke-width="2" d="M -342.9338 226.775 L -328.6812 235.0098"/><path stroke="#000" stroke-width="2" d="M -342.9338 259.7671 L -314.3758 276.2368"/><path stroke="#000" stroke-width="2" d="M -314.3758 276.2368 L -314.3758 259.7144"/><path stroke="#000" stroke-width="2" d="M -314.3758 276.2368 L -300.0704 284.4717"/><path stroke="#000" stroke-width="2" d="M -314.3758 276.2368 L -328.6812 284.5245"/><path stroke="#000" stroke-width="2" d="M -342.9338 325.7515 L -285.765 358.7437"/><path stroke="#000" stroke-width="2" d="M -285.765 358.7437 L -285.765 325.6987"/><path stroke="#000" stroke-width="2" d="M -285.765 325.6987 L -300.0704 333.9335"/><path stroke="#000" stroke-width="2" d="M -285.765 325.6987 L -285.765 309.1762"/><path stroke="#000" stroke-width="2" d="M -285.765 325.6987 L -271.4596 333.9335"/><path stroke="#000" stroke-width="2" d="M -285.765 358.7437 L -257.1542 375.2661"/><path stroke="#000" stroke-width="2" d="M -257.1542 375.2661 L -257.1542 358.7437"/><path stroke="#000" stroke-width="2" d="M -257.1542 375.2661 L -242.8488 383.5538"/><path stroke="#000" stroke-width="2" d="M -257.1542 375.2661 L -271.4596 383.501"/><path stroke="#000" stroke-width="2" d="M -285.765 358.7437 L -314.3758 375.2661"/><path stroke="#000" stroke-width="2" d="M -314.3758 375.2661 L -300.0704 383.501"/><path stroke="#000" stroke-width="2" d="M -314.3758 375.2661 L -328.6812 383.5538"/><path stroke="#000" stroke-width="2" d="M -314.3758 375.2661 L -314.3758 358.7437"/><path stroke="#000" stroke-width="2" d="M -342.9338 325.7515 L -400.1026 358.7437"/><path stroke="#000" stroke-width="2" d="M -400.1026 358.7437 L -371.4918 375.2133"/><path stroke="#000" stroke-width="2" d="M -371.4918 375.2133 L -371.4918 358.6909"/><path stroke="#000" stroke-width="2" d="M -371.4918 375.2133 L -357.1864 383.4482"/><path stroke="#000" stroke-width="2" d="M -371.4918 375.2133 L -385.7972 383.501"/><path stroke="#000" stroke-width="2" d="M -400.1026 358.7437 L -428.6607 375.2661"/><path stroke="#000" stroke-width="2" d="M -428.6607 375.2661 L -414.3553 383.4482"/><path stroke="#000" stroke-width="2" d="M -428.6607 375.2661 L -442.9133 383.5538"/><path stroke="#000" stroke-width="2" d="M -428.6607 375.2661 L -428.7135 358.7964"/><path stroke="#000" stroke-width="2" d="M -400.1026 358.7437 L -400.1554 325.7515"/><path stroke="#000" stroke-width="2" d="M -400.1554 325.7515 L -414.408 333.9863"/><path stroke="#000" stroke-width="2" d="M -400.1554 325.7515 L -400.1554 309.2818"/><path stroke="#000" stroke-width="2" d="M -400.1554 325.7515 L -385.9028 333.9863"/><path stroke="#000" stroke-width="2" d="M -0.0792 259.7671 L 457.0603 523.7045"/><path stroke="#000" stroke-width="2" d="M 457.0603 523.7045 L 457.0603 259.7671"/><path stroke="#000" stroke-width="2" d="M 457.0603 259.7671 L 342.7754 325.7515"/><path stroke="#000" stroke-width="2" d="M 342.7754 325.7515 L 399.8915 358.7437"/><path stroke="#000" stroke-width="2" d="M 399.8915 358.7437 L 399.9443 325.7515"/><path stroke="#000" stroke-width="2" d="M 399.9443 325.7515 L 385.6389 333.9335"/><path stroke="#000" stroke-width="2" d="M 399.9443 325.7515 L 399.9971 309.2818"/><path stroke="#000" stroke-width="2" d="M 399.9443 325.7515 L 414.1969 334.0391"/><path stroke="#000" stroke-width="2" d="M 399.8915 358.7437 L 428.4495 375.2661"/><path stroke="#000" stroke-width="2" d="M 428.4495 375.2661 L 428.4495 358.7437"/><path stroke="#000" stroke-width="2" d="M 428.4495 375.2661 L 442.7549 383.5538"/><path stroke="#000" stroke-width="2" d="M 428.4495 375.2661 L 414.1441 383.501"/><path stroke="#000" stroke-width="2" d="M 399.8915 358.7437 L 371.2807 375.2133"/><path stroke="#000" stroke-width="2" d="M 371.2807 375.2133 L 385.5861 383.501"/><path stroke="#000" stroke-width="2" d="M 371.2807 375.2133 L 356.9753 383.4482"/><path stroke="#000" stroke-width="2" d="M 371.2807 375.2133 L 371.2807 358.6909"/><path stroke="#000" stroke-width="2" d="M 342.7754 325.7515 L 285.6594 358.7437"/><path stroke="#000" stroke-width="2" d="M 285.6594 358.7437 L 314.2702 375.2133"/><path stroke="#000" stroke-width="2" d="M 314.2702 375.2133 L 314.2702 358.6909"/><path stroke="#000" stroke-width="2" d="M 314.2702 375.2133 L 328.5756 383.4482"/><path stroke="#000" stroke-width="2" d="M 314.2702 375.2133 L 299.9648 383.501"/><path stroke="#000" stroke-width="2" d="M 285.6594 358.7437 L 257.1014 375.2661"/><path stroke="#000" stroke-width="2" d="M 257.1014 375.2661 L 271.4068 383.4482"/><path stroke="#000" stroke-width="2" d="M 257.1014 375.2661 L 242.8488 383.5538"/><path stroke="#000" stroke-width="2" d="M 257.1014 375.2661 L 257.0486 358.7964"/><path stroke="#000" stroke-width="2" d="M 285.6594 358.7437 L 285.6066 325.7515"/><path stroke="#000" stroke-width="2" d="M 285.6066 325.7515 L 271.354 333.9863"/><path stroke="#000" stroke-width="2" d="M 285.6066 325.7515 L 285.6066 309.2818"/><path stroke="#000" stroke-width="2" d="M 285.6066 325.7515 L 299.8592 333.9863"/><path stroke="#000" stroke-width="2" d="M 342.7754 325.7515 L 342.7754 259.7671"/><path stroke="#000" stroke-width="2" d="M 342.7754 259.7671 L 314.2174 276.2368"/><path stroke="#000" stroke-width="2" d="M 314.2174 276.2368 L 328.47 284.4717"/><path stroke="#000" stroke-width="2" d="M 314.2174 276.2368 L 299.9648 284.4717"/><path stroke="#000" stroke-width="2" d="M 314.2174 276.2368 L 314.2174 259.7671"/><path stroke="#000" stroke-width="2" d="M 342.7754 259.7671 L 342.7754 226.775"/><path stroke="#000" stroke-width="2" d="M 342.7754 226.775 L 328.5228 235.0098"/><path stroke="#000" stroke-width="2" d="M 342.7754 226.775 L 342.7754 210.3053"/><path stroke="#000" stroke-width="2" d="M 342.7754 226.775 L 357.0281 235.0098"/><path stroke="#000" stroke-width="2" d="M 342.7754 259.7671 L 371.3335 276.2368"/><path stroke="#000" stroke-width="2" d="M 371.3335 276.2368 L 371.3335 259.7144"/><path stroke="#000" stroke-width="2" d="M 371.3335 276.2368 L 385.6389 284.4717"/><path stroke="#000" stroke-width="2" d="M 371.3335 276.2368 L 357.0281 284.5245"/><path stroke="#000" stroke-width="2" d="M 457.0603 259.7671 L 457.0603 127.7985"/><path stroke="#000" stroke-width="2" d="M 457.0603 127.7985 L 399.8915 160.7906"/><path stroke="#000" stroke-width="2" d="M 399.8915 160.7906 L 428.5023 177.2603"/><path stroke="#000" stroke-width="2" d="M 428.5023 177.2603 L 428.5023 160.7379"/><path stroke="#000" stroke-width="2" d="M 428.5023 177.2603 L 442.8077 185.4952"/><path stroke="#000" stroke-width="2" d="M 428.5023 177.2603 L 414.1969 185.548"/><path stroke="#000" stroke-width="2" d="M 399.8915 160.7906 L 371.3335 177.3131"/><path stroke="#000" stroke-width="2" d="M 371.3335 177.3131 L 385.6389 185.4952"/><path stroke="#000" stroke-width="2" d="M 371.3335 177.3131 L 357.0809 185.6008"/><path stroke="#000" stroke-width="2" d="M 371.3335 177.3131 L 371.2807 160.8434"/><path stroke="#000" stroke-width="2" d="M 399.8915 160.7906 L 399.8387 127.7985"/><path stroke="#000" stroke-width="2" d="M 399.8387 127.7985 L 385.5861 136.0333"/><path stroke="#000" stroke-width="2" d="M 399.8387 127.7985 L 399.8387 111.3288"/><path stroke="#000" stroke-width="2" d="M 399.8387 127.7985 L 414.0913 136.0333"/><path stroke="#000" stroke-width="2" d="M 457.0603 127.7985 L 457.0603 61.8141"/><path stroke="#000" stroke-width="2" d="M 457.0603 61.8141 L 428.5023 78.2838"/><path stroke="#000" stroke-width="2" d="M 428.5023 78.2838 L 442.7549 86.5187"/><path stroke="#000" stroke-width="2" d="M 428.5023 78.2838 L 414.2497 86.5187"/><path stroke="#000" stroke-width="2" d="M 428.5023 78.2838 L 428.5023 61.8141"/><path stroke="#000" stroke-width="2" d="M 457.0603 61.8141 L 457.0603 28.822"/><path stroke="#000" stroke-width="2" d="M 457.0603 28.822 L 442.8077 37.0568"/><path stroke="#000" stroke-width="2" d="M 457.0603 28.822 L 457.0603 12.3523"/><path stroke="#000" stroke-width="2" d="M 457.0603 28.822 L 471.3129 37.0568"/><path stroke="#000" stroke-width="2" d="M 457.0603 61.8141 L 485.6183 78.2838"/><path stroke="#000" stroke-width="2" d="M 485.6183 78.2838 L 485.6183 61.7613"/><path stroke="#000" stroke-width="2" d="M 485.6183 78.2838 L 499.9238 86.5187"/><path stroke="#000" stroke-width="2" d="M 485.6183 78.2838 L 471.3129 86.5715"/><path stroke="#000" stroke-width="2" d="M 457.0603 127.7985 L 514.2292 160.7906"/><path stroke="#000" stroke-width="2" d="M 514.2292 160.7906 L 514.2292 127.7457"/><path stroke="#000" stroke-width="2" d="M 514.2292 127.7457 L 499.9238 135.9805"/><path stroke="#000" stroke-width="2" d="M 514.2292 127.7457 L 514.2292 111.2232"/><path stroke="#000" stroke-width="2" d="M 514.2292 127.7457 L 528.5346 135.9805"/><path stroke="#000" stroke-width="2" d="M 514.2292 160.7906 L 542.84 177.3131"/><path stroke="#000" stroke-width="2" d="M 542.84 177.3131 L 542.84 160.7906"/><path stroke="#000" stroke-width="2" d="M 542.84 177.3131 L 557.1454 185.6008"/><path stroke="#000" stroke-width="2" d="M 542.84 177.3131 L 528.5346 185.548"/><path stroke="#000" stroke-width="2" d="M 514.2292 160.7906 L 485.6183 177.3131"/><path stroke="#000" stroke-width="2" d="M 485.6183 177.3131 L 499.9238 185.548"/><path stroke="#000" stroke-width="2" d="M 485.6183 177.3131 L 471.3129 185.6008"/><path stroke="#000" stroke-width="2" d="M 485.6183 177.3131 L 485.6183 160.7906"/><path stroke="#000" stroke-width="2" d="M 457.0603 259.7671 L 571.3452 325.7515"/><path stroke="#000" stroke-width="2" d="M 571.3452 325.7515 L 571.3452 259.7671"/><path stroke="#000" stroke-width="2" d="M 571.3452 259.7671 L 542.7872 276.2368"/><path stroke="#000" stroke-width="2" d="M 542.7872 276.2368 L 557.0398 284.4717"/><path stroke="#000" stroke-width="2" d="M 542.7872 276.2368 L 528.5346 284.4717"/><path stroke="#000" stroke-width="2" d="M 542.7872 276.2368 L 542.7872 259.7671"/><path stroke="#000" stroke-width="2" d="M 571.3452 259.7671 L 571.3452 226.775"/><path stroke="#000" stroke-width="2" d="M 571.3452 226.775 L 557.0926 235.0098"/><path stroke="#000" stroke-width="2" d="M 571.3452 226.775 L 571.3452 210.3053"/><path stroke="#000" stroke-width="2" d="M 571.3452 226.775 L 585.5978 235.0098"/><path stroke="#000" stroke-width="2" d="M 571.3452 259.7671 L 599.9032 276.2368"/><path stroke="#000" stroke-width="2" d="M 599.9032 276.2368 L 599.9032 259.7144"/><path stroke="#000" stroke-width="2" d="M 599.9032 276.2368 L 614.2086 284.4717"/><path stroke="#000" stroke-width="2" d="M 599.9032 276.2368 L 585.5978 284.5245"/><path stroke="#000" stroke-width="2" d="M 571.3452 325.7515 L 628.514 358.7437"/><path stroke="#000" stroke-width="2" d="M 628.514 358.7437 L 628.514 325.6987"/><path stroke="#000" stroke-width="2" d="M 628.514 325.6987 L 614.2086 333.9335"/><path stroke="#000" stroke-width="2" d="M 628.514 325.6987 L 628.514 309.1762"/><path stroke="#000" stroke-width="2" d="M 628.514 325.6987 L 642.8194 333.9335"/><path stroke="#000" stroke-width="2" d="M 628.514 358.7437 L 657.1248 375.2661"/><path stroke="#000" stroke-width="2" d="M 657.1248 375.2661 L 657.1248 358.7437"/><path stroke="#000" stroke-width="2" d="M 657.1248 375.2661 L 671.4302 383.5538"/><path stroke="#000" stroke-width="2" d="M 657.1248 375.2661 L 642.8194 383.501"/><path stroke="#000" stroke-width="2" d="M 628.514 358.7437 L 599.9032 375.2661"/><path stroke="#000" stroke-width="2" d="M 599.9032 375.2661 L 614.2086 383.501"/><path stroke="#000" stroke-width="2" d="M 599.9032 375.2661 L 585.5978 383.5538"/><path stroke="#000" stroke-width="2" d="M 599.9032 375.2661 L 599.9032 358.7437"/><path stroke="#000" stroke-width="2" d="M 571.3452 325.7515 L 514.1764 358.7437"/><path stroke="#000" stroke-width="2" d="M 514.1764 358.7437 L 542.7872 375.2133"/><path stroke="#000" stroke-width="2" d="M 542.7872 375.2133 L 542.7872 358.6909"/><path stroke="#000" stroke-width="2" d="M 542.7872 375.2133 L 557.0926 383.4482"/><path stroke="#000" stroke-width="2" d="M 542.7872 375.2133 L 528.4818 383.501"/><path stroke="#000" stroke-width="2" d="M 514.1764 358.7437 L 485.6183 375.2661"/><path stroke="#000" stroke-width="2" d="M 485.6183 375.2661 L 499.9238 383.4482"/><path stroke="#000" stroke-width="2" d="M 485.6183 375.2661 L 471.3657 383.5538"/><path stroke="#000" stroke-width="2" d="M 485.6183 375.2661 L 485.5656 358.7964"/><path stroke="#000" stroke-width="2" d="M 514.1764 358.7437 L 514.1236 325.7515"/><path stroke="#000" stroke-width="2" d="M 514.1236 325.7515 L 499.871 333.9863"/><path stroke="#000" stroke-width="2" d="M 514.1236 325.7515 L 514.1236 309.2818"/><path stroke="#000" stroke-width="2" d="M 514.1236 325.7515 L 528.3762 333.9863"/><path stroke="#000" stroke-width="2" d="M 457.0603 523.7045 L 685.6301 655.6732"/><path stroke="#000" stroke-width="2" d="M 685.6301 655.6732 L 685.6301 523.7045"/><path stroke="#000" stroke-width="2" d="M 685.6301 523.7045 L 628.4612 556.6967"/><path stroke="#000" stroke-width="2" d="M 628.4612 556.6967 L 657.0721 573.1664"/><path stroke="#000" stroke-width="2" d="M 657.0721 573.1664 L 657.0721 556.6439"/><path stroke="#000" stroke-width="2" d="M 657.0721 573.1664 L 671.3775 581.4012"/><path stroke="#000" stroke-width="2" d="M 657.0721 573.1664 L 642.7667 581.454"/><path stroke="#000" stroke-width="2" d="M 628.4612 556.6967 L 599.9032 573.2192"/><path stroke="#000" stroke-width="2" d="M 599.9032 573.2192 L 614.2086 581.4012"/><path stroke="#000" stroke-width="2" d="M 599.9032 573.2192 L 585.6506 581.5068"/><path stroke="#000" stroke-width="2" d="M 599.9032 573.2192 L 599.8504 556.7495"/><path stroke="#000" stroke-width="2" d="M 628.4612 556.6967 L 628.4085 523.7045"/><path stroke="#000" stroke-width="2" d="M 628.4085 523.7045 L 614.1558 531.9394"/><path stroke="#000" stroke-width="2" d="M 628.4085 523.7045 L 628.4085 507.2348"/><path stroke="#000" stroke-width="2" d="M 628.4085 523.7045 L 642.6611 531.9394"/><path stroke="#000" stroke-width="2" d="M 685.6301 523.7045 L 685.6301 457.7202"/><path stroke="#000" stroke-width="2" d="M 685.6301 457.7202 L 657.0721 474.1899"/><path stroke="#000" stroke-width="2" d="M 657.0721 474.1899 L 671.3247 482.4247"/><path stroke="#000" stroke-width="2" d="M 657.0721 474.1899 L 642.8194 482.4247"/><path stroke="#000" stroke-width="2" d="M 657.0721 474.1899 L 657.0721 457.7202"/><path stroke="#000" stroke-width="2" d="M 685.6301 457.7202 L 685.6301 424.728"/><path stroke="#000" stroke-width="2" d="M 685.6301 424.728 L 671.3775 432.9628"/><path stroke="#000" stroke-width="2" d="M 685.6301 424.728 L 685.6301 408.2583"/><path stroke="#000" stroke-width="2" d="M 685.6301 424.728 L 699.8827 432.9628"/><path stroke="#000" stroke-width="2" d="M 685.6301 457.7202 L 714.1881 474.1899"/><path stroke="#000" stroke-width="2" d="M 714.1881 474.1899 L 714.1881 457.6674"/><path stroke="#000" stroke-width="2" d="M 714.1881 474.1899 L 728.4935 482.4247"/><path stroke="#000" stroke-width="2" d="M 714.1881 474.1899 L 699.8827 482.4775"/><path stroke="#000" stroke-width="2" d="M 685.6301 523.7045 L 742.7989 556.6967"/><path stroke="#000" stroke-width="2" d="M 742.7989 556.6967 L 742.7989 523.6517"/><path stroke="#000" stroke-width="2" d="M 742.7989 523.6517 L 728.4935 531.8866"/><path stroke="#000" stroke-width="2" d="M 742.7989 523.6517 L 742.7989 507.1292"/><path stroke="#000" stroke-width="2" d="M 742.7989 523.6517 L 757.1043 531.8866"/><path stroke="#000" stroke-width="2" d="M 742.7989 556.6967 L 771.4097 573.2192"/><path stroke="#000" stroke-width="2" d="M 771.4097 573.2192 L 771.4097 556.6967"/><path stroke="#000" stroke-width="2" d="M 771.4097 573.2192 L 785.7151 581.5068"/><path stroke="#000" stroke-width="2" d="M 771.4097 573.2192 L 757.1043 581.454"/><path stroke="#000" stroke-width="2" d="M 742.7989 556.6967 L 714.1881 573.2192"/><path stroke="#000" stroke-width="2" d="M 714.1881 573.2192 L 728.4935 581.454"/><path stroke="#000" stroke-width="2" d="M 714.1881 573.2192 L 699.8827 581.5068"/><path stroke="#000" stroke-width="2" d="M 714.1881 573.2192 L 714.1881 556.6967"/><path stroke="#000" stroke-width="2" d="M 685.6301 655.6732 L 799.915 721.6575"/><path stroke="#000" stroke-width="2" d="M 799.915 721.6575 L 799.915 655.6732"/><path stroke="#000" stroke-width="2" d="M 799.915 655.6732 L 771.3569 672.1429"/><path stroke="#000" stroke-width="2" d="M 771.3569 672.1429 L 785.6095 680.3777"/><path stroke="#000" stroke-width="2" d="M 771.3569 672.1429 L 757.1043 680.3777"/><path stroke="#000" stroke-width="2" d="M 771.3569 672.1429 L 771.3569 655.6732"/><path stroke="#000" stroke-width="2" d="M 799.915 655.6732 L 799.915 622.681"/><path stroke="#000" stroke-width="2" d="M 799.915 622.681 L 785.6623 630.9159"/><path stroke="#000" stroke-width="2" d="M 799.915 622.681 L 799.915 606.2113"/><path stroke="#000" stroke-width="2" d="M 799.915 622.681 L 814.1676 630.9159"/><path stroke="#000" stroke-width="2" d="M 799.915 655.6732 L 828.473 672.1429"/><path stroke="#000" stroke-width="2" d="M 828.473 672.1429 L 828.473 655.6204"/><path stroke="#000" stroke-width="2" d="M 828.473 672.1429 L 842.7784 680.3777"/><path stroke="#000" stroke-width="2" d="M 828.473 672.1429 L 814.1676 680.4305"/><path stroke="#000" stroke-width="2" d="M 799.915 721.6575 L 857.0838 754.6497"/><path stroke="#000" stroke-width="2" d="M 857.0838 754.6497 L 857.0838 721.6047"/><path stroke="#000" stroke-width="2" d="M 857.0838 721.6047 L 842.7784 729.8396"/><path stroke="#000" stroke-width="2" d="M 857.0838 721.6047 L 857.0838 705.0823"/><path stroke="#000" stroke-width="2" d="M 857.0838 721.6047 L 871.3892 729.8396"/><path stroke="#000" stroke-width="2" d="M 857.0838 754.6497 L 885.6946 771.1722"/><path stroke="#000" stroke-width="2" d="M 885.6946 771.1722 L 885.6946 754.6497"/><path stroke="#000" stroke-width="2" d="M 885.6946 771.1722 L 900 779.4598"/><path stroke="#000" stroke-width="2" d="M 885.6946 771.1722 L 871.3892 779.407"/><path stroke="#000" stroke-width="2" d="M 857.0838 754.6497 L 828.473 771.1722"/><path stroke="#000" stroke-width="2" d="M 828.473 771.1722 L 842.7784 779.407"/><path stroke="#000" stroke-width="2" d="M 828.473 771.1722 L 814.1676 779.4598"/><path stroke="#000" stroke-width="2" d="M 828.473 771.1722 L 828.473 754.6497"/><path stroke="#000" stroke-width="2" d="M 799.915 721.6575 L 742.7461 754.6497"/><path stroke="#000" stroke-width="2" d="M 742.7461 754.6497 L 771.3569 771.1194"/><path stroke="#000" stroke-width="2" d="M 771.3569 771.1194 L 771.3569 754.5969"/><path stroke="#000" stroke-width="2" d="M 771.3569 771.1194 L 785.6623 779.3542"/><path stroke="#000" stroke-width="2" d="M 771.3569 771.1194 L 757.0515 779.407"/><path stroke="#000" stroke-width="2" d="M 742.7461 754.6497 L 714.1881 771.1722"/><path stroke="#000" stroke-width="2" d="M 714.1881 771.1722 L 728.4935 779.3542"/><path stroke="#000" stroke-width="2" d="M 714.1881 771.1722 L 699.9355 779.4598"/><path stroke="#000" stroke-width="2" d="M 714.1881 771.1722 L 714.1353 754.7025"/><path stroke="#000" stroke-width="2" d="M 742.7461 754.6497 L 742.6933 721.6575"/><path stroke="#000" stroke-width="2" d="M 742.6933 721.6575 L 728.4407 729.8924"/><path stroke="#000" stroke-width="2" d="M 742.6933 721.6575 L 742.6933 705.1878"/><path stroke="#000" stroke-width="2" d="M 742.6933 721.6575 L 756.946 729.8924"/><path stroke="#000" stroke-width="2" d="M 685.6301 655.6732 L 571.3452 721.6575"/><path stroke="#000" stroke-width="2" d="M 571.3452 721.6575 L 628.4612 754.6497"/><path stroke="#000" stroke-width="2" d="M 628.4612 754.6497 L 628.514 721.6575"/><path stroke="#000" stroke-width="2" d="M 628.514 721.6575 L 614.2086 729.8396"/><path stroke="#000" stroke-width="2" d="M 628.514 721.6575 L 628.5668 705.1878"/><path stroke="#000" stroke-width="2" d="M 628.514 721.6575 L 642.7667 729.9452"/><path stroke="#000" stroke-width="2" d="M 628.4612 754.6497 L 657.0193 771.1722"/><path stroke="#000" stroke-width="2" d="M 657.0193 771.1722 L 657.0193 754.6497"/><path stroke="#000" stroke-width="2" d="M 657.0193 771.1722 L 671.3247 779.4598"/><path stroke="#000" stroke-width="2" d="M 657.0193 771.1722 L 642.7139 779.407"/><path stroke="#000" stroke-width="2" d="M 628.4612 754.6497 L 599.8504 771.1194"/><path stroke="#000" stroke-width="2" d="M 599.8504 771.1194 L 614.1558 779.407"/><path stroke="#000" stroke-width="2" d="M 599.8504 771.1194 L 585.545 779.3542"/><path stroke="#000" stroke-width="2" d="M 599.8504 771.1194 L 599.8504 754.5969"/><path stroke="#000" stroke-width="2" d="M 571.3452 721.6575 L 514.2292 754.6497"/><path stroke="#000" stroke-width="2" d="M 514.2292 754.6497 L 542.84 771.1194"/><path stroke="#000" stroke-width="2" d="M 542.84 771.1194 L 542.84 754.5969"/><path stroke="#000" stroke-width="2" d="M 542.84 771.1194 L 557.1454 779.3542"/><path stroke="#000" stroke-width="2" d="M 542.84 771.1194 L 528.5346 779.407"/><path stroke="#000" stroke-width="2" d="M 514.2292 754.6497 L 485.6711 771.1722"/><path stroke="#000" stroke-width="2" d="M 485.6711 771.1722 L 499.9765 779.3542"/><path stroke="#000" stroke-width="2" d="M 485.6711 771.1722 L 471.4185 779.4598"/><path stroke="#000" stroke-width="2" d="M 485.6711 771.1722 L 485.6183 754.7025"/><path stroke="#000" stroke-width="2" d="M 514.2292 754.6497 L 514.1764 721.6575"/><path stroke="#000" stroke-width="2" d="M 514.1764 721.6575 L 499.9238 729.8924"/><path stroke="#000" stroke-width="2" d="M 514.1764 721.6575 L 514.1764 705.1878"/><path stroke="#000" stroke-width="2" d="M 514.1764 721.6575 L 528.429 729.8924"/><path stroke="#000" stroke-width="2" d="M 571.3452 721.6575 L 571.3452 655.6732"/><path stroke="#000" stroke-width="2" d="M 571.3452 655.6732 L 542.7872 672.1429"/><path stroke="#000" stroke-width="2" d="M 542.7872 672.1429 L 557.0398 680.3777"/><path stroke="#000" stroke-width="2" d="M 542.7872 672.1429 L 528.5346 680.3777"/><path stroke="#000" stroke-width="2" d="M 542.7872 672.1429 L 542.7872 655.6732"/><path stroke="#000" stroke-width="2" d="M 571.3452 655.6732 L 571.3452 622.681"/><path stroke="#000" stroke-width="2" d="M 571.3452 622.681 L 557.0926 630.9159"/><path stroke="#000" stroke-width="2" d="M 571.3452 622.681 L 571.3452 606.2113"/><path stroke="#000" stroke-width="2" d="M 571.3452 622.681 L 585.5978 630.9159"/><path stroke="#000" stroke-width="2" d="M 571.3452 655.6732 L 599.9032 672.1429"/><path stroke="#000" stroke-width="2" d="M 599.9032 672.1429 L 599.9032 655.6204"/><path stroke="#000" stroke-width="2" d="M 599.9032 672.1429 L 614.2086 680.3777"/><path stroke="#000" stroke-width="2" d="M 599.9032 672.1429 L 585.5978 680.4305"/><path stroke="#000" stroke-width="2" d="M 457.0603 523.7045 L 228.4906 655.6732"/><path stroke="#000" stroke-width="2" d="M 228.4906 655.6732 L 342.7754 721.6575"/><path stroke="#000" stroke-width="2" d="M 342.7754 721.6575 L 342.7754 655.6732"/><path stroke="#000" stroke-width="2" d="M 342.7754 655.6732 L 314.2174 672.1429"/><path stroke="#000" stroke-width="2" d="M 314.2174 672.1429 L 328.47 680.3777"/><path stroke="#000" stroke-width="2" d="M 314.2174 672.1429 L 299.9648 680.3777"/><path stroke="#000" stroke-width="2" d="M 314.2174 672.1429 L 314.2174 655.6732"/><path stroke="#000" stroke-width="2" d="M 342.7754 655.6732 L 342.7754 622.681"/><path stroke="#000" stroke-width="2" d="M 342.7754 622.681 L 328.5228 630.9159"/><path stroke="#000" stroke-width="2" d="M 342.7754 622.681 L 342.7754 606.2113"/><path stroke="#000" stroke-width="2" d="M 342.7754 622.681 L 357.0281 630.9159"/><path stroke="#000" stroke-width="2" d="M 342.7754 655.6732 L 371.3335 672.1429"/><path stroke="#000" stroke-width="2" d="M 371.3335 672.1429 L 371.3335 655.6204"/><path stroke="#000" stroke-width="2" d="M 371.3335 672.1429 L 385.6389 680.3777"/><path stroke="#000" stroke-width="2" d="M 371.3335 672.1429 L 357.0281 680.4305"/><path stroke="#000" stroke-width="2" d="M 342.7754 721.6575 L 399.9443 754.6497"/><path stroke="#000" stroke-width="2" d="M 399.9443 754.6497 L 399.9443 721.6047"/><path stroke="#000" stroke-width="2" d="M 399.9443 721.6047 L 385.6389 729.8396"/><path stroke="#000" stroke-width="2" d="M 399.9443 721.6047 L 399.9443 705.0823"/><path stroke="#000" stroke-width="2" d="M 399.9443 721.6047 L 414.2497 729.8396"/><path stroke="#000" stroke-width="2" d="M 399.9443 754.6497 L 428.5551 771.1722"/><path stroke="#000" stroke-width="2" d="M 428.5551 771.1722 L 428.5551 754.6497"/><path stroke="#000" stroke-width="2" d="M 428.5551 771.1722 L 442.8605 779.4598"/><path stroke="#000" stroke-width="2" d="M 428.5551 771.1722 L 414.2497 779.407"/><path stroke="#000" stroke-width="2" d="M 399.9443 754.6497 L 371.3335 771.1722"/><path stroke="#000" stroke-width="2" d="M 371.3335 771.1722 L 385.6389 779.407"/><path stroke="#000" stroke-width="2" d="M 371.3335 771.1722 L 357.0281 779.4598"/><path stroke="#000" stroke-width="2" d="M 371.3335 771.1722 L 371.3335 754.6497"/><path stroke="#000" stroke-width="2" d="M 342.7754 721.6575 L 285.6066 754.6497"/><path stroke="#000" stroke-width="2" d="M 285.6066 754.6497 L 314.2174 771.1194"/><path stroke="#000" stroke-width="2" d="M 314.2174 771.1194 L 314.2174 754.5969"/><path stroke="#000" stroke-width="2" d="M 314.2174 771.1194 L 328.5228 779.3542"/><path stroke="#000" stroke-width="2" d="M 314.2174 771.1194 L 299.912 779.407"/><path stroke="#000" stroke-width="2" d="M 285.6066 754.6497 L 257.0486 771.1722"/><path stroke="#000" stroke-width="2" d="M 257.0486 771.1722 L 271.354 779.3542"/><path stroke="#000" stroke-width="2" d="M 257.0486 771.1722 L 242.796 779.4598"/><path stroke="#000" stroke-width="2" d="M 257.0486 771.1722 L 256.9958 754.7025"/><path stroke="#000" stroke-width="2" d="M 285.6066 754.6497 L 285.5538 721.6575"/><path stroke="#000" stroke-width="2" d="M 285.5538 721.6575 L 271.3012 729.8924"/><path stroke="#000" stroke-width="2" d="M 285.5538 721.6575 L 285.5538 705.1878"/><path stroke="#000" stroke-width="2" d="M 285.5538 721.6575 L 299.8064 729.8924"/><path stroke="#000" stroke-width="2" d="M 228.4906 655.6732 L 114.2057 721.6575"/><path stroke="#000" stroke-width="2" d="M 114.2057 721.6575 L 171.3217 754.6497"/><path stroke="#000" stroke-width="2" d="M 171.3217 754.6497 L 171.3745 721.6575"/><path stroke="#000" stroke-width="2" d="M 171.3745 721.6575 L 157.0691 729.8396"/><path stroke="#000" stroke-width="2" d="M 171.3745 721.6575 L 171.4273 705.1878"/><path stroke="#000" stroke-width="2" d="M 171.3745 721.6575 L 185.6271 729.9452"/><path stroke="#000" stroke-width="2" d="M 171.3217 754.6497 L 199.8798 771.1722"/><path stroke="#000" stroke-width="2" d="M 199.8798 771.1722 L 199.8798 754.6497"/><path stroke="#000" stroke-width="2" d="M 199.8798 771.1722 L 214.1852 779.4598"/><path stroke="#000" stroke-width="2" d="M 199.8798 771.1722 L 185.5744 779.407"/><path stroke="#000" stroke-width="2" d="M 171.3217 754.6497 L 142.7109 771.1194"/><path stroke="#000" stroke-width="2" d="M 142.7109 771.1194 L 157.0163 779.407"/><path stroke="#000" stroke-width="2" d="M 142.7109 771.1194 L 128.4055 779.3542"/><path stroke="#000" stroke-width="2" d="M 142.7109 771.1194 L 142.7109 754.5969"/><path stroke="#000" stroke-width="2" d="M 114.2057 721.6575 L 57.0897 754.6497"/><path stroke="#000" stroke-width="2" d="M 57.0897 754.6497 L 85.7005 771.1194"/><path stroke="#000" stroke-width="2" d="M 85.7005 771.1194 L 85.7005 754.5969"/><path stroke="#000" stroke-width="2" d="M 85.7005 771.1194 L 100.0059 779.3542"/><path stroke="#000" stroke-width="2" d="M 85.7005 771.1194 L 71.3951 779.407"/><path stroke="#000" stroke-width="2" d="M 57.0897 754.6497 L 28.5316 771.1722"/><path stroke="#000" stroke-width="2" d="M 28.5316 771.1722 L 42.837 779.3542"/><path stroke="#000" stroke-width="2" d="M 28.5316 771.1722 L 14.279 779.4598"/><path stroke="#000" stroke-width="2" d="M 28.5316 771.1722 L 28.4788 754.7025"/><path stroke="#000" stroke-width="2" d="M 57.0897 754.6497 L 57.0369 721.6575"/><path stroke="#000" stroke-width="2" d="M 57.0369 721.6575 L 42.7842 729.8924"/><path stroke="#000" stroke-width="2" d="M 57.0369 721.6575 L 57.0369 705.1878"/><path stroke="#000" stroke-width="2" d="M 57.0369 721.6575 L 71.2895 729.8924"/><path stroke="#000" stroke-width="2" d="M 114.2057 721.6575 L 114.2057 655.6732"/><path stroke="#000" stroke-width="2" d="M 114.2057 655.6732 L 85.6477 672.1429"/><path stroke="#000" stroke-width="2" d="M 85.6477 672.1429 L 99.9003 680.3777"/><path stroke="#000" stroke-width="2" d="M 85.6477 672.1429 L 71.3951 680.3777"/><path stroke="#000" stroke-width="2" d="M 85.6477 672.1429 L 85.6477 655.6732"/><path stroke="#000" stroke-width="2" d="M 114.2057 655.6732 L 114.2057 622.681"/><path stroke="#000" stroke-width="2" d="M 114.2057 622.681 L 99.9531 630.9159"/><path stroke="#000" stroke-width="2" d="M 114.2057 622.681 L 114.2057 606.2113"/><path stroke="#000" stroke-width="2" d="M 114.2057 622.681 L 128.4583 630.9159"/><path stroke="#000" stroke-width="2" d="M 114.2057 655.6732 L 142.7637 672.1429"/><path stroke="#000" stroke-width="2" d="M 142.7637 672.1429 L 142.7637 655.6204"/><path stroke="#000" stroke-width="2" d="M 142.7637 672.1429 L 157.0691 680.3777"/><path stroke="#000" stroke-width="2" d="M 142.7637 672.1429 L 128.4583 680.4305"/><path stroke="#000" stroke-width="2" d="M 228.4906 655.6732 L 228.4906 523.7045"/><path stroke="#000" stroke-width="2" d="M 228.4906 523.7045 L 171.3217 556.6967"/><path stroke="#000" stroke-width="2" d="M 171.3217 556.6967 L 199.9325 573.1664"/><path stroke="#000" stroke-width="2" d="M 199.9325 573.1664 L 199.9325 556.6439"/><path stroke="#000" stroke-width="2" d="M 199.9325 573.1664 L 214.238 581.4012"/><path stroke="#000" stroke-width="2" d="M 199.9325 573.1664 L 185.6271 581.454"/><path stroke="#000" stroke-width="2" d="M 171.3217 556.6967 L 142.7637 573.2192"/><path stroke="#000" stroke-width="2" d="M 142.7637 573.2192 L 157.0691 581.4012"/><path stroke="#000" stroke-width="2" d="M 142.7637 573.2192 L 128.5111 581.5068"/><path stroke="#000" stroke-width="2" d="M 142.7637 573.2192 L 142.7109 556.7495"/><path stroke="#000" stroke-width="2" d="M 171.3217 556.6967 L 171.269 523.7045"/><path stroke="#000" stroke-width="2" d="M 171.269 523.7045 L 157.0163 531.9394"/><path stroke="#000" stroke-width="2" d="M 171.269 523.7045 L 171.269 507.2348"/><path stroke="#000" stroke-width="2" d="M 171.269 523.7045 L 185.5216 531.9394"/><path stroke="#000" stroke-width="2" d="M 228.4906 523.7045 L 228.4906 457.7202"/><path stroke="#000" stroke-width="2" d="M 228.4906 457.7202 L 199.9325 474.1899"/><path stroke="#000" stroke-width="2" d="M 199.9325 474.1899 L 214.1852 482.4247"/><path stroke="#000" stroke-width="2" d="M 199.9325 474.1899 L 185.6799 482.4247"/><path stroke="#000" stroke-width="2" d="M 199.9325 474.1899 L 199.9325 457.7202"/><path stroke="#000" stroke-width="2" d="M 228.4906 457.7202 L 228.4906 424.728"/><path stroke="#000" stroke-width="2" d="M 228.4906 424.728 L 214.238 432.9628"/><path stroke="#000" stroke-width="2" d="M 228.4906 424.728 L 228.4906 408.2583"/><path stroke="#000" stroke-width="2" d="M 228.4906 424.728 L 242.7432 432.9628"/><path stroke="#000" stroke-width="2" d="M 228.4906 457.7202 L 257.0486 474.1899"/><path stroke="#000" stroke-width="2" d="M 257.0486 474.1899 L 257.0486 457.6674"/><path stroke="#000" stroke-width="2" d="M 257.0486 474.1899 L 271.354 482.4247"/><path stroke="#000" stroke-width="2" d="M 257.0486 474.1899 L 242.7432 482.4775"/><path stroke="#000" stroke-width="2" d="M 228.4906 523.7045 L 285.6594 556.6967"/><path stroke="#000" stroke-width="2" d="M 285.6594 556.6967 L 285.6594 523.6517"/><path stroke="#000" stroke-width="2" d="M 285.6594 523.6517 L 271.354 531.8866"/><path stroke="#000" stroke-width="2" d="M 285.6594 523.6517 L 285.6594 507.1292"/><path stroke="#000" stroke-width="2" d="M 285.6594 523.6517 L 299.9648 531.8866"/><path stroke="#000" stroke-width="2" d="M 285.6594 556.6967 L 314.2702 573.2192"/><path stroke="#000" stroke-width="2" d="M 314.2702 573.2192 L 314.2702 556.6967"/><path stroke="#000" stroke-width="2" d="M 314.2702 573.2192 L 328.5756 581.5068"/><path stroke="#000" stroke-width="2" d="M 314.2702 573.2192 L 299.9648 581.454"/><path stroke="#000" stroke-width="2" d="M 285.6594 556.6967 L 257.0486 573.2192"/><path stroke="#000" stroke-width="2" d="M 257.0486 573.2192 L 271.354 581.454"/><path stroke="#000" stroke-width="2" d="M 257.0486 573.2192 L 242.7432 581.5068"/><path stroke="#000" stroke-width="2" d="M 257.0486 573.2192 L 257.0486 556.6967"/></g></svg>