<svg width="100%" height="100%" viewBox="0 0 100 100" xml:space="preserve" xmlns="http://www.w3.org/2000/svg"
    xmlns:xlink="http://www.w3.org/1999/xlink" id="svg-box">
    <polygon stroke-width="0" stroke-linecap="round" stroke-linejoin="round" fill="#000"
        points="50,4.774575140626311 52.65002815679914,6.699933296952544 51.637807472046106,9.815228234405225 48.362192527953894,9.815228234405225 47.34997184320086,6.699933296952544">
    </polygon>
    <polygon stroke-width="0" stroke-linecap="round" stroke-linejoin="round" fill="#000"
        points="54.287835628845244,7.889870078078992 56.93786378564439,9.815228234405225 55.92564310089135,12.930523171857907 52.650028156799145,12.930523171857907 51.637807472046106,9.815228234405225">
    </polygon>
    <polygon stroke-width="0" stroke-linecap="round" stroke-linejoin="round" fill="#000"
        points="52.65002815679914,12.930523171857914 55.30005631359828,14.855881328184147 54.287835628845244,17.971176265636828 51.01222068475304,17.971176265636828 50,14.855881328184147">
    </polygon>
    <polygon stroke-width="0" stroke-linecap="round" stroke-linejoin="round" fill="#000"
        points="47.349971843200855,12.930523171857914 50,14.855881328184147 48.98777931524697,17.971176265636828 45.712164371154756,17.971176265636828 44.69994368640172,14.855881328184154">
    </polygon>
    <polygon stroke-width="0" stroke-linecap="round" stroke-linejoin="round" fill="#000"
        points="45.712164371154756,7.889870078078999 48.362192527953894,9.815228234405232 47.34997184320086,12.930523171857914 44.07435689910865,12.930523171857914 43.06213621435562,9.81522823440524">
    </polygon>
    <polygon stroke-width="0" stroke-linecap="round" stroke-linejoin="round" fill="#000"
        points="61.22569941448963,12.930523171857914 63.87572757128878,14.855881328184147 62.863506886535745,17.971176265636828 59.587891942443534,17.971176265636828 58.575671257690495,14.855881328184154">
    </polygon>
    <polygon stroke-width="0" stroke-linecap="round" stroke-linejoin="round" fill="#000"
        points="65.51353504333488,16.045818109310595 68.16356320013402,17.971176265636828 67.15134251538099,21.08647120308951 63.87572757128878,21.08647120308951 62.863506886535745,17.971176265636835">
    </polygon>
    <polygon stroke-width="0" stroke-linecap="round" stroke-linejoin="round" fill="#000"
        points="63.87572757128878,21.086471203089516 66.52575572808792,23.01182935941575 65.51353504333488,26.127124296868427 62.23792009924268,26.12712429686843 61.22569941448964,23.011829359415756">
    </polygon>
    <polygon stroke-width="0" stroke-linecap="round" stroke-linejoin="round" fill="#000"
        points="58.57567125769049,21.086471203089523 61.22569941448963,23.01182935941575 60.2134787297366,26.127124296868427 56.937863785644396,26.12712429686843 55.92564310089136,23.011829359415756">
    </polygon>
    <polygon stroke-width="0" stroke-linecap="round" stroke-linejoin="round" fill="#000"
        points="56.93786378564439,16.04581810931061 59.58789194244353,17.971176265636835 58.575671257690495,21.08647120308951 55.30005631359829,21.086471203089516 54.28783562884525,17.971176265636842">
    </polygon>
    <polygon stroke-width="0" stroke-linecap="round" stroke-linejoin="round" fill="#000"
        points="56.93786378564438,26.127124296868434 59.58789194244352,28.052482453194663 58.575671257690495,31.16777739064734 55.30005631359829,31.167777390647345 54.28783562884525,28.05248245319467">
    </polygon>
    <polygon stroke-width="0" stroke-linecap="round" stroke-linejoin="round" fill="#000"
        points="61.22569941448963,29.24241923432112 63.87572757128877,31.167777390647345 62.863506886535745,34.28307232810002 59.587891942443534,34.283072328100026 58.5756712576905,31.167777390647352">
    </polygon>
    <polygon stroke-width="0" stroke-linecap="round" stroke-linejoin="round" fill="#000"
        points="59.58789194244353,34.28307232810003 62.237920099242665,36.20843048442626 61.22569941448964,39.32372542187893 57.950084470397435,39.32372542187894 56.937863785644396,36.20843048442627">
    </polygon>
    <polygon stroke-width="0" stroke-linecap="round" stroke-linejoin="round" fill="#000"
        points="54.287835628845244,34.28307232810003 56.93786378564438,36.20843048442626 55.92564310089135,39.32372542187893 52.65002815679915,39.32372542187895 51.63780747204611,36.20843048442627">
    </polygon>
    <polygon stroke-width="0" stroke-linecap="round" stroke-linejoin="round" fill="#000"
        points="52.65002815679914,29.24241923432112 55.300056313598276,31.16777739064734 54.28783562884525,34.28307232810002 51.012220684753046,34.283072328100026 50.00000000000001,31.167777390647355">
    </polygon>
    <polygon stroke-width="0" stroke-linecap="round" stroke-linejoin="round" fill="#000"
        points="43.062136214355604,26.127124296868438 45.71216437115474,28.05248245319466 44.69994368640172,31.167777390647334 41.42432874230952,31.167777390647345 40.41210805755648,28.052482453194674">
    </polygon>
    <polygon stroke-width="0" stroke-linecap="round" stroke-linejoin="round" fill="#000"
        points="47.34997184320085,29.24241923432112 49.99999999999999,31.16777739064734 48.98777931524697,34.28307232810002 45.71216437115476,34.283072328100026 44.699943686401724,31.167777390647355">
    </polygon>
    <polygon stroke-width="0" stroke-linecap="round" stroke-linejoin="round" fill="#000"
        points="45.71216437115475,34.28307232810003 48.36219252795389,36.20843048442626 47.34997184320086,39.32372542187893 44.074356899108665,39.32372542187894 43.06213621435562,36.20843048442627">
    </polygon>
    <polygon stroke-width="0" stroke-linecap="round" stroke-linejoin="round" fill="#000"
        points="40.412108057556466,34.28307232810004 43.062136214355604,36.20843048442626 42.04991552960258,39.32372542187893 38.77430058551038,39.32372542187895 37.76207990075734,36.20843048442627">
    </polygon>
    <polygon stroke-width="0" stroke-linecap="round" stroke-linejoin="round" fill="#000"
        points="38.77430058551036,29.242419234321122 41.4243287423095,31.16777739064734 40.41210805755647,34.28307232810002 37.136493113464276,34.283072328100026 36.12427242871124,31.16777739064736">
    </polygon>
    <polygon stroke-width="0" stroke-linecap="round" stroke-linejoin="round" fill="#000"
        points="38.77430058551036,12.93052317185792 41.4243287423095,14.85588132818414 40.41210805755647,17.971176265636814 37.136493113464276,17.971176265636828 36.12427242871123,14.85588132818416">
    </polygon>
    <polygon stroke-width="0" stroke-linecap="round" stroke-linejoin="round" fill="#000"
        points="43.062136214355604,16.045818109310602 45.71216437115474,17.97117626563682 44.69994368640172,21.086471203089495 41.42432874230952,21.08647120308951 40.41210805755648,17.971176265636842">
    </polygon>
    <polygon stroke-width="0" stroke-linecap="round" stroke-linejoin="round" fill="#000"
        points="41.4243287423095,21.086471203089523 44.074356899108636,23.011829359415746 43.06213621435561,26.12712429686842 39.786521270263414,26.12712429686843 38.774300585510375,23.011829359415763">
    </polygon>
    <polygon stroke-width="0" stroke-linecap="round" stroke-linejoin="round" fill="#000"
        points="36.124272428711215,21.086471203089523 38.77430058551035,23.011829359415746 37.76207990075733,26.12712429686842 34.48646495666513,26.12712429686843 33.47424427191209,23.011829359415763">
    </polygon>
    <polygon stroke-width="0" stroke-linecap="round" stroke-linejoin="round" fill="#000"
        points="34.48646495666511,16.04581810931061 37.13649311346425,17.971176265636828 36.12427242871122,21.086471203089502 32.848657484619025,21.086471203089516 31.836436799865986,17.97117626563685">
    </polygon>
    <polygon stroke-width="0" stroke-linecap="round" stroke-linejoin="round" fill="#000"
        points="79.38926261462365,26.127124296868438 82.03929077142278,28.052482453194656 81.02707008666977,31.16777739064733 77.75145514257757,31.16777739064734 76.73923445782452,28.052482453194674">
    </polygon>
    <polygon stroke-width="0" stroke-linecap="round" stroke-linejoin="round" fill="#000"
        points="83.67709824346889,29.24241923432112 86.32712640026804,31.167777390647338 85.31490571551501,34.28307232810001 82.03929077142281,34.28307232810002 81.02707008666977,31.167777390647355">
    </polygon>
    <polygon stroke-width="0" stroke-linecap="round" stroke-linejoin="round" fill="#000"
        points="82.0392907714228,34.28307232810003 84.68931892822192,36.20843048442626 83.6770982434689,39.32372542187893 80.40148329937671,39.32372542187894 79.38926261462366,36.20843048442627">
    </polygon>
    <polygon stroke-width="0" stroke-linecap="round" stroke-linejoin="round" fill="#000"
        points="76.73923445782451,34.28307232810003 79.38926261462365,36.20843048442626 78.37704192987061,39.32372542187893 75.10142698577843,39.32372542187894 74.08920630102538,36.20843048442627">
    </polygon>
    <polygon stroke-width="0" stroke-linecap="round" stroke-linejoin="round" fill="#000"
        points="75.1014269857784,29.24241923432112 77.75145514257754,31.167777390647338 76.73923445782452,34.28307232810001 73.46361951373231,34.28307232810002 72.45139882897928,31.167777390647355">
    </polygon>
    <polygon stroke-width="0" stroke-linecap="round" stroke-linejoin="round" fill="#000"
        points="90.61496202911329,34.28307232810003 93.26499018591242,36.20843048442626 92.2527695011594,39.32372542187893 88.9771545570672,39.32372542187894 87.96493387231416,36.20843048442627">
    </polygon>
    <polygon stroke-width="0" stroke-linecap="round" stroke-linejoin="round" fill="#000"
        points="94.90279765795853,37.39836726555272 97.55282581475767,39.32372542187894 96.54060513000465,42.43902035933161 93.26499018591244,42.43902035933162 92.2527695011594,39.323725421878954">
    </polygon>
    <polygon stroke-width="0" stroke-linecap="round" stroke-linejoin="round" fill="#000"
        points="93.26499018591244,42.439020359331636 95.91501834271156,44.364378515657855 94.90279765795854,47.47967345311053 91.62718271386635,47.479673453110536 90.6149620291133,44.364378515657876">
    </polygon>
    <polygon stroke-width="0" stroke-linecap="round" stroke-linejoin="round" fill="#000"
        points="87.96493387231415,42.439020359331636 90.61496202911329,44.364378515657855 89.60274134436025,47.47967345311053 86.32712640026807,47.479673453110536 85.31490571551502,44.364378515657876">
    </polygon>
    <polygon stroke-width="0" stroke-linecap="round" stroke-linejoin="round" fill="#000"
        points="86.32712640026804,37.39836726555272 88.97715455706718,39.32372542187894 87.96493387231416,42.43902035933161 84.68931892822195,42.43902035933162 83.67709824346892,39.323725421878954">
    </polygon>
    <polygon stroke-width="0" stroke-linecap="round" stroke-linejoin="round" fill="#000"
        points="86.32712640026804,47.47967345311055 88.97715455706717,49.405031609436776 87.96493387231415,52.52032654688945 84.68931892822195,52.52032654688946 83.6770982434689,49.40503160943679">
    </polygon>
    <polygon stroke-width="0" stroke-linecap="round" stroke-linejoin="round" fill="#000"
        points="90.61496202911329,50.59496839056324 93.26499018591241,52.52032654688946 92.25276950115939,55.63562148434213 88.9771545570672,55.63562148434214 87.96493387231415,52.52032654688947">
    </polygon>
    <polygon stroke-width="0" stroke-linecap="round" stroke-linejoin="round" fill="#000"
        points="88.97715455706717,55.63562148434215 91.62718271386632,57.56097964066837 90.61496202911329,60.676274578121046 87.33934708502109,60.67627457812105 86.32712640026804,57.560979640668386">
    </polygon>
    <polygon stroke-width="0" stroke-linecap="round" stroke-linejoin="round" fill="#000"
        points="83.67709824346889,55.63562148434215 86.32712640026804,57.56097964066837 85.31490571551501,60.676274578121046 82.03929077142281,60.67627457812105 81.02707008666977,57.56097964066839">
    </polygon>
    <polygon stroke-width="0" stroke-linecap="round" stroke-linejoin="round" fill="#000"
        points="82.0392907714228,50.59496839056324 84.68931892822192,52.52032654688946 83.6770982434689,55.63562148434213 80.40148329937671,55.63562148434214 79.38926261462366,52.52032654688947">
    </polygon>
    <polygon stroke-width="0" stroke-linecap="round" stroke-linejoin="round" fill="#000"
        points="72.45139882897926,47.47967345311055 75.1014269857784,49.405031609436776 74.08920630102537,52.52032654688945 70.81359135693319,52.52032654688946 69.80137067218014,49.40503160943679">
    </polygon>
    <polygon stroke-width="0" stroke-linecap="round" stroke-linejoin="round" fill="#000"
        points="76.73923445782451,50.59496839056324 79.38926261462365,52.52032654688946 78.37704192987063,55.63562148434213 75.10142698577843,55.63562148434214 74.08920630102538,52.52032654688947">
    </polygon>
    <polygon stroke-width="0" stroke-linecap="round" stroke-linejoin="round" fill="#000"
        points="75.1014269857784,55.63562148434215 77.75145514257754,57.56097964066837 76.73923445782452,60.676274578121046 73.46361951373233,60.67627457812105 72.45139882897928,57.560979640668386">
    </polygon>
    <polygon stroke-width="0" stroke-linecap="round" stroke-linejoin="round" fill="#000"
        points="69.80137067218013,55.63562148434215 72.45139882897925,57.56097964066837 71.43917814422623,60.676274578121046 68.16356320013404,60.67627457812105 67.151342515381,57.56097964066839">
    </polygon>
    <polygon stroke-width="0" stroke-linecap="round" stroke-linejoin="round" fill="#000"
        points="68.16356320013402,50.59496839056324 70.81359135693316,52.52032654688946 69.80137067218013,55.63562148434213 66.52575572808794,55.63562148434214 65.5135350433349,52.52032654688947">
    </polygon>
    <polygon stroke-width="0" stroke-linecap="round" stroke-linejoin="round" fill="#000"
        points="68.163563200134,34.28307232810004 70.81359135693316,36.20843048442626 69.80137067218013,39.32372542187893 66.52575572808793,39.32372542187895 65.51353504333488,36.20843048442627">
    </polygon>
    <polygon stroke-width="0" stroke-linecap="round" stroke-linejoin="round" fill="#000"
        points="72.45139882897925,37.39836726555272 75.1014269857784,39.32372542187894 74.08920630102537,42.439020359331614 70.81359135693317,42.43902035933162 69.80137067218013,39.32372542187896">
    </polygon>
    <polygon stroke-width="0" stroke-linecap="round" stroke-linejoin="round" fill="#000"
        points="70.81359135693316,42.439020359331636 73.46361951373228,44.364378515657855 72.45139882897926,47.47967345311053 69.17578388488707,47.47967345311054 68.16356320013404,44.364378515657876">
    </polygon>
    <polygon stroke-width="0" stroke-linecap="round" stroke-linejoin="round" fill="#000"
        points="65.51353504333487,42.439020359331636 68.163563200134,44.364378515657855 67.15134251538099,47.47967345311053 63.87572757128879,47.47967345311054 62.863506886535745,44.364378515657876">
    </polygon>
    <polygon stroke-width="0" stroke-linecap="round" stroke-linejoin="round" fill="#000"
        points="63.87572757128876,37.39836726555272 66.5257557280879,39.32372542187894 65.51353504333488,42.439020359331614 62.237920099242686,42.43902035933162 61.22569941448964,39.32372542187896">
    </polygon>
    <polygon stroke-width="0" stroke-linecap="round" stroke-linejoin="round" fill="#000"
        points="68.163563200134,60.67627457812107 70.81359135693316,62.601632734447286 69.80137067218013,65.71692767189997 66.52575572808793,65.71692767189998 65.51353504333488,62.60163273444731">
    </polygon>
    <polygon stroke-width="0" stroke-linecap="round" stroke-linejoin="round" fill="#000"
        points="72.45139882897926,63.791569515573755 75.1014269857784,65.71692767189997 74.08920630102537,68.83222260935264 70.81359135693319,68.83222260935266 69.80137067218014,65.71692767189998">
    </polygon>
    <polygon stroke-width="0" stroke-linecap="round" stroke-linejoin="round" fill="#000"
        points="70.81359135693316,68.83222260935267 73.4636195137323,70.75758076567888 72.45139882897928,73.87287570313156 69.17578388488707,73.87287570313157 68.16356320013404,70.75758076567891">
    </polygon>
    <polygon stroke-width="0" stroke-linecap="round" stroke-linejoin="round" fill="#000"
        points="65.51353504333487,68.83222260935267 68.163563200134,70.75758076567888 67.15134251538099,73.87287570313157 63.87572757128879,73.87287570313157 62.863506886535745,70.75758076567891">
    </polygon>
    <polygon stroke-width="0" stroke-linecap="round" stroke-linejoin="round" fill="#000"
        points="63.87572757128877,63.791569515573755 66.52575572808792,65.71692767189997 65.51353504333488,68.83222260935264 62.237920099242686,68.83222260935266 61.22569941448965,65.71692767189998">
    </polygon>
    <polygon stroke-width="0" stroke-linecap="round" stroke-linejoin="round" fill="#000"
        points="79.38926261462365,68.83222260935267 82.0392907714228,70.75758076567888 81.02707008666977,73.87287570313157 77.75145514257757,73.87287570313157 76.73923445782452,70.75758076567891">
    </polygon>
    <polygon stroke-width="0" stroke-linecap="round" stroke-linejoin="round" fill="#000"
        points="83.67709824346889,71.94751754680536 86.32712640026804,73.87287570313157 85.31490571551501,76.98817064058424 82.03929077142281,76.98817064058426 81.02707008666977,73.87287570313158">
    </polygon>
    <polygon stroke-width="0" stroke-linecap="round" stroke-linejoin="round" fill="#000"
        points="82.0392907714228,76.98817064058427 84.68931892822192,78.91352879691048 83.6770982434689,82.02882373436316 80.40148329937671,82.02882373436317 79.38926261462366,78.9135287969105">
    </polygon>
    <polygon stroke-width="0" stroke-linecap="round" stroke-linejoin="round" fill="#000"
        points="76.73923445782451,76.98817064058427 79.38926261462365,78.91352879691048 78.37704192987063,82.02882373436316 75.10142698577843,82.02882373436317 74.08920630102538,78.9135287969105">
    </polygon>
    <polygon stroke-width="0" stroke-linecap="round" stroke-linejoin="round" fill="#000"
        points="75.1014269857784,71.94751754680536 77.75145514257756,73.87287570313157 76.73923445782452,76.98817064058424 73.46361951373233,76.98817064058426 72.45139882897928,73.87287570313158">
    </polygon>
    <polygon stroke-width="0" stroke-linecap="round" stroke-linejoin="round" fill="#000"
        points="75.1014269857784,82.02882373436319 77.75145514257754,83.9541818906894 76.73923445782452,87.06947682814209 73.46361951373233,87.06947682814209 72.45139882897928,83.95418189068943">
    </polygon>
    <polygon stroke-width="0" stroke-linecap="round" stroke-linejoin="round" fill="#000"
        points="79.38926261462365,85.14411867181586 82.0392907714228,87.06947682814209 81.02707008666977,90.18477176559475 77.75145514257757,90.18477176559477 76.73923445782452,87.0694768281421">
    </polygon>
    <polygon stroke-width="0" stroke-linecap="round" stroke-linejoin="round" fill="#000"
        points="77.75145514257754,90.18477176559477 80.40148329937668,92.110129921921 79.38926261462366,95.22542485937367 76.11364767053146,95.22542485937369 75.10142698577842,92.11012992192101">
    </polygon>
    <polygon stroke-width="0" stroke-linecap="round" stroke-linejoin="round" fill="#000"
        points="72.45139882897926,90.18477176559477 75.1014269857784,92.110129921921 74.08920630102537,95.22542485937367 70.81359135693319,95.22542485937369 69.80137067218014,92.11012992192101">
    </polygon>
    <polygon stroke-width="0" stroke-linecap="round" stroke-linejoin="round" fill="#000"
        points="70.81359135693316,85.14411867181587 73.4636195137323,87.06947682814209 72.45139882897928,90.18477176559476 69.17578388488707,90.18477176559477 68.16356320013404,87.06947682814211">
    </polygon>
    <polygon stroke-width="0" stroke-linecap="round" stroke-linejoin="round" fill="#000"
        points="61.225699414489625,82.02882373436319 63.87572757128876,83.9541818906894 62.863506886535745,87.06947682814209 59.58789194244355,87.06947682814209 58.5756712576905,83.95418189068943">
    </polygon>
    <polygon stroke-width="0" stroke-linecap="round" stroke-linejoin="round" fill="#000"
        points="65.51353504333487,85.14411867181586 68.163563200134,87.06947682814209 67.15134251538099,90.18477176559475 63.87572757128879,90.18477176559477 62.863506886535745,87.0694768281421">
    </polygon>
    <polygon stroke-width="0" stroke-linecap="round" stroke-linejoin="round" fill="#000"
        points="63.87572757128877,90.18477176559477 66.52575572808792,92.110129921921 65.51353504333488,95.22542485937367 62.237920099242686,95.22542485937369 61.22569941448965,92.11012992192101">
    </polygon>
    <polygon stroke-width="0" stroke-linecap="round" stroke-linejoin="round" fill="#000"
        points="58.57567125769049,90.18477176559477 61.225699414489625,92.110129921921 60.21347872973661,95.22542485937367 56.93786378564441,95.22542485937369 55.925643100891364,92.11012992192101">
    </polygon>
    <polygon stroke-width="0" stroke-linecap="round" stroke-linejoin="round" fill="#000"
        points="56.93786378564438,85.14411867181587 59.58789194244352,87.06947682814209 58.5756712576905,90.18477176559476 55.300056313598304,90.18477176559477 54.28783562884526,87.06947682814211">
    </polygon>
    <polygon stroke-width="0" stroke-linecap="round" stroke-linejoin="round" fill="#000"
        points="56.93786378564438,68.83222260935267 59.58789194244352,70.7575807656789 58.5756712576905,73.87287570313157 55.3000563135983,73.87287570313157 54.28783562884526,70.75758076567891">
    </polygon>
    <polygon stroke-width="0" stroke-linecap="round" stroke-linejoin="round" fill="#000"
        points="61.225699414489625,71.94751754680536 63.87572757128876,73.87287570313157 62.863506886535745,76.98817064058424 59.58789194244355,76.98817064058426 58.5756712576905,73.8728757031316">
    </polygon>
    <polygon stroke-width="0" stroke-linecap="round" stroke-linejoin="round" fill="#000"
        points="59.58789194244352,76.98817064058427 62.23792009924266,78.91352879691048 61.22569941448964,82.02882373436316 57.95008447039744,82.02882373436317 56.937863785644396,78.9135287969105">
    </polygon>
    <polygon stroke-width="0" stroke-linecap="round" stroke-linejoin="round" fill="#000"
        points="54.287835628845244,76.98817064058427 56.93786378564438,78.9135287969105 55.92564310089136,82.02882373436316 52.65002815679916,82.02882373436317 51.63780747204611,78.91352879691051">
    </polygon>
    <polygon stroke-width="0" stroke-linecap="round" stroke-linejoin="round" fill="#000"
        points="52.65002815679914,71.94751754680536 55.300056313598276,73.87287570313157 54.28783562884525,76.98817064058424 51.01222068475305,76.98817064058426 50.000000000000014,73.8728757031316">
    </polygon>
    <polygon stroke-width="0" stroke-linecap="round" stroke-linejoin="round" fill="#000"
        points="31.83643679986597,60.67627457812107 34.48646495666511,62.601632734447286 33.474244271912085,65.71692767189997 30.19862932781989,65.71692767189998 29.186408643066848,62.60163273444731">
    </polygon>
    <polygon stroke-width="0" stroke-linecap="round" stroke-linejoin="round" fill="#000"
        points="36.12427242871122,63.791569515573755 38.77430058551036,65.71692767189997 37.762079900757335,68.83222260935264 34.48646495666514,68.83222260935266 33.4742442719121,65.71692767189998">
    </polygon>
    <polygon stroke-width="0" stroke-linecap="round" stroke-linejoin="round" fill="#000"
        points="34.48646495666512,68.83222260935267 37.136493113464255,70.75758076567888 36.12427242871123,73.87287570313156 32.84865748461903,73.87287570313157 31.83643679986599,70.75758076567891">
    </polygon>
    <polygon stroke-width="0" stroke-linecap="round" stroke-linejoin="round" fill="#000"
        points="29.18640864306683,68.83222260935267 31.83643679986597,70.75758076567888 30.824216115112947,73.87287570313157 27.54860117102075,73.87287570313157 26.536380486267706,70.75758076567891">
    </polygon>
    <polygon stroke-width="0" stroke-linecap="round" stroke-linejoin="round" fill="#000"
        points="27.548601171020724,63.791569515573755 30.198629327819866,65.71692767189997 29.18640864306684,68.83222260935264 25.910793698974643,68.83222260935266 24.8985730142216,65.71692767189998">
    </polygon>
    <polygon stroke-width="0" stroke-linecap="round" stroke-linejoin="round" fill="#000"
        points="43.06213621435561,68.83222260935267 45.71216437115475,70.75758076567888 44.699943686401724,73.87287570313157 41.42432874230953,73.87287570313157 40.41210805755648,70.75758076567891">
    </polygon>
    <polygon stroke-width="0" stroke-linecap="round" stroke-linejoin="round" fill="#000"
        points="47.349971843200855,71.94751754680536 49.99999999999999,73.87287570313157 48.98777931524697,76.98817064058424 45.71216437115477,76.98817064058426 44.69994368640173,73.87287570313158">
    </polygon>
    <polygon stroke-width="0" stroke-linecap="round" stroke-linejoin="round" fill="#000"
        points="45.71216437115475,76.98817064058427 48.36219252795389,78.91352879691048 47.34997184320087,82.02882373436316 44.074356899108665,82.02882373436317 43.062136214355625,78.9135287969105">
    </polygon>
    <polygon stroke-width="0" stroke-linecap="round" stroke-linejoin="round" fill="#000"
        points="40.412108057556466,76.98817064058427 43.062136214355604,78.91352879691048 42.049915529602586,82.02882373436316 38.77430058551039,82.02882373436317 37.76207990075734,78.9135287969105">
    </polygon>
    <polygon stroke-width="0" stroke-linecap="round" stroke-linejoin="round" fill="#000"
        points="38.77430058551036,71.94751754680536 41.4243287423095,73.87287570313157 40.41210805755648,76.98817064058424 37.13649311346428,76.98817064058426 36.12427242871124,73.87287570313158">
    </polygon>
    <polygon stroke-width="0" stroke-linecap="round" stroke-linejoin="round" fill="#000"
        points="38.77430058551036,82.02882373436319 41.4243287423095,83.9541818906894 40.41210805755648,87.06947682814209 37.13649311346428,87.06947682814209 36.12427242871124,83.95418189068943">
    </polygon>
    <polygon stroke-width="0" stroke-linecap="round" stroke-linejoin="round" fill="#000"
        points="43.062136214355604,85.14411867181586 45.71216437115475,87.06947682814209 44.699943686401724,90.18477176559475 41.42432874230953,90.18477176559477 40.41210805755648,87.0694768281421">
    </polygon>
    <polygon stroke-width="0" stroke-linecap="round" stroke-linejoin="round" fill="#000"
        points="41.424328742309505,90.18477176559477 44.07435689910864,92.110129921921 43.06213621435562,95.22542485937367 39.78652127026342,95.22542485937369 38.774300585510375,92.11012992192101">
    </polygon>
    <polygon stroke-width="0" stroke-linecap="round" stroke-linejoin="round" fill="#000"
        points="36.12427242871122,90.18477176559477 38.77430058551036,92.110129921921 37.762079900757335,95.22542485937367 34.48646495666514,95.22542485937369 33.4742442719121,92.11012992192101">
    </polygon>
    <polygon stroke-width="0" stroke-linecap="round" stroke-linejoin="round" fill="#000"
        points="34.48646495666512,85.14411867181587 37.136493113464255,87.06947682814209 36.12427242871124,90.18477176559476 32.84865748461903,90.18477176559477 31.836436799865993,87.06947682814211">
    </polygon>
    <polygon stroke-width="0" stroke-linecap="round" stroke-linejoin="round" fill="#000"
        points="24.898573014221586,82.02882373436319 27.548601171020728,83.9541818906894 26.536380486267703,87.06947682814209 23.260765542175506,87.06947682814209 22.248544857422463,83.95418189068943">
    </polygon>
    <polygon stroke-width="0" stroke-linecap="round" stroke-linejoin="round" fill="#000"
        points="29.186408643066834,85.14411867181586 31.83643679986597,87.06947682814209 30.82421611511295,90.18477176559475 27.548601171020753,90.18477176559477 26.53638048626771,87.0694768281421">
    </polygon>
    <polygon stroke-width="0" stroke-linecap="round" stroke-linejoin="round" fill="#000"
        points="27.548601171020728,90.18477176559477 30.198629327819866,92.110129921921 29.186408643066844,95.22542485937367 25.910793698974647,95.22542485937369 24.898573014221604,92.11012992192101">
    </polygon>
    <polygon stroke-width="0" stroke-linecap="round" stroke-linejoin="round" fill="#000"
        points="22.248544857422445,90.18477176559477 24.898573014221583,92.110129921921 23.88635232946856,95.22542485937367 20.610737385376364,95.22542485937369 19.59851670062332,92.11012992192101">
    </polygon>
    <polygon stroke-width="0" stroke-linecap="round" stroke-linejoin="round" fill="#000"
        points="20.610737385376343,85.14411867181587 23.260765542175484,87.06947682814209 22.24854485742246,90.18477176559476 18.972929913330262,90.18477176559477 17.960709228577215,87.06947682814211">
    </polygon>
    <polygon stroke-width="0" stroke-linecap="round" stroke-linejoin="round" fill="#000"
        points="20.610737385376336,68.83222260935267 23.260765542175477,70.7575807656789 22.248544857422452,73.87287570313157 18.972929913330255,73.87287570313157 17.960709228577215,70.75758076567891">
    </polygon>
    <polygon stroke-width="0" stroke-linecap="round" stroke-linejoin="round" fill="#000"
        points="24.898573014221583,71.94751754680536 27.54860117102072,73.87287570313157 26.5363804862677,76.98817064058424 23.260765542175502,76.98817064058426 22.24854485742246,73.8728757031316">
    </polygon>
    <polygon stroke-width="0" stroke-linecap="round" stroke-linejoin="round" fill="#000"
        points="23.260765542175477,76.98817064058427 25.910793698974615,78.91352879691048 24.898573014221594,82.02882373436316 21.622958070129396,82.02882373436317 20.610737385376353,78.9135287969105">
    </polygon>
    <polygon stroke-width="0" stroke-linecap="round" stroke-linejoin="round" fill="#000"
        points="17.9607092285772,76.98817064058427 20.61073738537634,78.9135287969105 19.598516700623314,82.02882373436316 16.322901756531117,82.02882373436317 15.310681071778077,78.91352879691051">
    </polygon>
    <polygon stroke-width="0" stroke-linecap="round" stroke-linejoin="round" fill="#000"
        points="16.322901756531095,71.94751754680536 18.972929913330233,73.87287570313157 17.96070922857721,76.98817064058424 14.685094284485011,76.98817064058426 13.672873599731972,73.8728757031316">
    </polygon>
    <polygon stroke-width="0" stroke-linecap="round" stroke-linejoin="round" fill="#000"
        points="20.610737385376336,26.127124296868445 23.260765542175477,28.052482453194663 22.248544857422452,31.167777390647338 18.972929913330255,31.16777739064735 17.960709228577215,28.05248245319468">
    </polygon>
    <polygon stroke-width="0" stroke-linecap="round" stroke-linejoin="round" fill="#000"
        points="24.898573014221583,29.242419234321126 27.54860117102072,31.167777390647345 26.5363804862677,34.28307232810002 23.260765542175502,34.28307232810003 22.24854485742246,31.167777390647363">
    </polygon>
    <polygon stroke-width="0" stroke-linecap="round" stroke-linejoin="round" fill="#000"
        points="23.260765542175477,34.28307232810005 25.910793698974615,36.20843048442626 24.898573014221594,39.32372542187893 21.622958070129396,39.32372542187895 20.610737385376353,36.20843048442628">
    </polygon>
    <polygon stroke-width="0" stroke-linecap="round" stroke-linejoin="round" fill="#000"
        points="17.9607092285772,34.28307232810005 20.61073738537634,36.20843048442626 19.598516700623314,39.32372542187893 16.322901756531117,39.32372542187895 15.310681071778077,36.20843048442628">
    </polygon>
    <polygon stroke-width="0" stroke-linecap="round" stroke-linejoin="round" fill="#000"
        points="16.322901756531095,29.242419234321126 18.972929913330233,31.167777390647345 17.96070922857721,34.28307232810002 14.685094284485011,34.28307232810003 13.672873599731972,31.167777390647363">
    </polygon>
    <polygon stroke-width="0" stroke-linecap="round" stroke-linejoin="round" fill="#000"
        points="31.83643679986597,34.28307232810005 34.48646495666511,36.20843048442626 33.474244271912085,39.32372542187893 30.19862932781989,39.32372542187895 29.186408643066848,36.20843048442628">
    </polygon>
    <polygon stroke-width="0" stroke-linecap="round" stroke-linejoin="round" fill="#000"
        points="36.12427242871122,37.39836726555272 38.77430058551036,39.32372542187895 37.762079900757335,42.43902035933162 34.48646495666514,42.43902035933163 33.4742442719121,39.32372542187896">
    </polygon>
    <polygon stroke-width="0" stroke-linecap="round" stroke-linejoin="round" fill="#000"
        points="34.48646495666512,42.439020359331636 37.136493113464255,44.36437851565786 36.12427242871123,47.479673453110536 32.84865748461903,47.47967345311054 31.83643679986599,44.364378515657876">
    </polygon>
    <polygon stroke-width="0" stroke-linecap="round" stroke-linejoin="round" fill="#000"
        points="29.18640864306683,42.439020359331636 31.83643679986597,44.36437851565786 30.824216115112947,47.479673453110536 27.54860117102075,47.47967345311054 26.536380486267706,44.364378515657876">
    </polygon>
    <polygon stroke-width="0" stroke-linecap="round" stroke-linejoin="round" fill="#000"
        points="27.548601171020724,37.39836726555272 30.198629327819866,39.32372542187895 29.18640864306684,42.43902035933162 25.910793698974643,42.43902035933163 24.8985730142216,39.32372542187896">
    </polygon>
    <polygon stroke-width="0" stroke-linecap="round" stroke-linejoin="round" fill="#000"
        points="27.548601171020724,47.47967345311056 30.198629327819866,49.405031609436776 29.18640864306684,52.52032654688945 25.910793698974643,52.520326546889464 24.8985730142216,49.4050316094368">
    </polygon>
    <polygon stroke-width="0" stroke-linecap="round" stroke-linejoin="round" fill="#000"
        points="31.83643679986597,50.59496839056324 34.48646495666511,52.52032654688946 33.474244271912085,55.63562148434213 30.19862932781989,55.635621484342145 29.186408643066848,52.52032654688948">
    </polygon>
    <polygon stroke-width="0" stroke-linecap="round" stroke-linejoin="round" fill="#000"
        points="30.198629327819866,55.63562148434216 32.848657484619004,57.56097964066838 31.836436799865982,60.67627457812105 28.560821855773785,60.67627457812106 27.548601171020742,57.56097964066839">
    </polygon>
    <polygon stroke-width="0" stroke-linecap="round" stroke-linejoin="round" fill="#000"
        points="24.898573014221583,55.63562148434216 27.54860117102072,57.56097964066838 26.5363804862677,60.67627457812105 23.260765542175502,60.67627457812106 22.24854485742246,57.56097964066839">
    </polygon>
    <polygon stroke-width="0" stroke-linecap="round" stroke-linejoin="round" fill="#000"
        points="23.26076554217548,50.59496839056324 25.910793698974622,52.520326546889464 24.898573014221597,55.63562148434213 21.6229580701294,55.635621484342145 20.610737385376357,52.52032654688948">
    </polygon>
    <polygon stroke-width="0" stroke-linecap="round" stroke-linejoin="round" fill="#000"
        points="13.67287359973195,47.47967345311056 16.32290175653109,49.405031609436776 15.310681071778063,52.52032654688945 12.035066127685866,52.520326546889464 11.02284544293282,49.4050316094368">
    </polygon>
    <polygon stroke-width="0" stroke-linecap="round" stroke-linejoin="round" fill="#000"
        points="17.960709228577194,50.59496839056324 20.610737385376332,52.52032654688946 19.598516700623307,55.63562148434213 16.32290175653111,55.635621484342145 15.310681071778063,52.52032654688948">
    </polygon>
    <polygon stroke-width="0" stroke-linecap="round" stroke-linejoin="round" fill="#000"
        points="16.32290175653109,55.63562148434216 18.972929913330226,57.56097964066838 17.9607092285772,60.67627457812105 14.685094284485004,60.67627457812106 13.672873599731957,57.56097964066839">
    </polygon>
    <polygon stroke-width="0" stroke-linecap="round" stroke-linejoin="round" fill="#000"
        points="11.022845442932812,55.63562148434216 13.67287359973195,57.56097964066838 12.660652914978925,60.67627457812105 9.385037970886728,60.67627457812106 8.372817286133682,57.56097964066839">
    </polygon>
    <polygon stroke-width="0" stroke-linecap="round" stroke-linejoin="round" fill="#000"
        points="9.385037970886707,50.59496839056324 12.035066127685845,52.520326546889464 11.02284544293282,55.63562148434213 7.747230498840622,55.635621484342145 6.735009814087576,52.52032654688948">
    </polygon>
    <polygon stroke-width="0" stroke-linecap="round" stroke-linejoin="round" fill="#000"
        points="9.385037970886707,34.28307232810005 12.035066127685845,36.208430484426266 11.02284544293282,39.32372542187894 7.747230498840622,39.32372542187895 6.735009814087576,36.20843048442629">
    </polygon>
    <polygon stroke-width="0" stroke-linecap="round" stroke-linejoin="round" fill="#000"
        points="13.67287359973195,37.39836726555273 16.32290175653109,39.32372542187895 15.310681071778063,42.43902035933162 12.035066127685866,42.439020359331636 11.02284544293282,39.32372542187896">
    </polygon>
    <polygon stroke-width="0" stroke-linecap="round" stroke-linejoin="round" fill="#000"
        points="12.035066127685845,42.43902035933164 14.685094284484983,44.36437851565786 13.672873599731957,47.479673453110536 10.39725865563976,47.47967345311055 9.385037970886714,44.36437851565788">
    </polygon>
    <polygon stroke-width="0" stroke-linecap="round" stroke-linejoin="round" fill="#000"
        points="6.735009814087569,42.43902035933164 9.385037970886707,44.36437851565786 8.372817286133682,47.479673453110536 5.097202342041484,47.47967345311055 4.084981657288438,44.36437851565788">
    </polygon>
    <polygon stroke-width="0" stroke-linecap="round" stroke-linejoin="round" fill="#000"
        points="5.097202342041463,37.39836726555273 7.747230498840601,39.32372542187895 6.735009814087576,42.43902035933162 3.4593948699953785,42.439020359331636 2.447174185242332,39.32372542187896">
    </polygon>
    <polygon stroke-width="0" stroke-linecap="round" stroke-linejoin="round" fill="#000"
        points="49.99999999999999,47.47967345311056 52.65002815679913,49.405031609436776 51.637807472046106,52.52032654688945 48.36219252795391,52.52032654688946 47.34997184320086,49.40503160943679">
    </polygon>
    <polygon stroke-width="0" stroke-linecap="round" stroke-linejoin="round" fill="#000"
        points="54.28783562884524,50.59496839056324 56.937863785644375,52.52032654688946 55.92564310089135,55.63562148434213 52.65002815679915,55.63562148434214 51.63780747204611,52.52032654688947">
    </polygon>
    <polygon stroke-width="0" stroke-linecap="round" stroke-linejoin="round" fill="#000"
        points="52.65002815679913,55.63562148434215 55.30005631359827,57.56097964066837 54.28783562884525,60.676274578121046 51.012220684753046,60.67627457812106 50.00000000000001,57.56097964066839">
    </polygon>
    <polygon stroke-width="0" stroke-linecap="round" stroke-linejoin="round" fill="#000"
        points="47.34997184320085,55.63562148434215 49.999999999999986,57.56097964066837 48.98777931524697,60.676274578121046 45.71216437115477,60.67627457812106 44.699943686401724,57.56097964066839">
    </polygon>
    <polygon stroke-width="0" stroke-linecap="round" stroke-linejoin="round" fill="#000"
        points="45.71216437115474,50.59496839056324 48.36219252795388,52.52032654688946 47.34997184320086,55.63562148434213 44.074356899108665,55.63562148434214 43.06213621435562,52.52032654688948">
    </polygon>
    <polygon stroke-width="0" stroke-linecap="round" stroke-linejoin="round" fill="#000"
        points="49.99999999999999,21.086471203089523 52.65002815679913,23.011829359415742 51.637807472046106,26.127124296868416 48.36219252795391,26.127124296868427 47.34997184320086,23.01182935941576">
    </polygon>
    <polygon stroke-width="0" stroke-linecap="round" stroke-linejoin="round" fill="#000"
        points="79.38926261462365,42.439020359331636 82.03929077142278,44.364378515657855 81.02707008666977,47.47967345311053 77.75145514257757,47.47967345311054 76.73923445782452,44.364378515657876">
    </polygon>
    <polygon stroke-width="0" stroke-linecap="round" stroke-linejoin="round" fill="#000"
        points="68.163563200134,76.98817064058427 70.81359135693316,78.91352879691048 69.80137067218013,82.02882373436316 66.52575572808793,82.02882373436317 65.51353504333488,78.9135287969105">
    </polygon>
    <polygon stroke-width="0" stroke-linecap="round" stroke-linejoin="round" fill="#000"
        points="31.83643679986597,76.98817064058427 34.48646495666511,78.91352879691048 33.474244271912085,82.02882373436316 30.19862932781989,82.02882373436317 29.186408643066848,78.9135287969105">
    </polygon>
    <polygon stroke-width="0" stroke-linecap="round" stroke-linejoin="round" fill="#000"
        points="20.610737385376336,42.43902035933164 23.260765542175477,44.36437851565786 22.248544857422452,47.479673453110536 18.972929913330255,47.47967345311054 17.960709228577215,44.364378515657876">
    </polygon>
    <polygon stroke-width="0" stroke-linecap="round" stroke-linejoin="round" fill="#000"
        points="49.99999999999999,63.791569515573755 52.65002815679913,65.71692767189998 51.637807472046106,68.83222260935264 48.36219252795391,68.83222260935266 47.34997184320086,65.7169276719">
    </polygon>
    <polygon stroke-width="0" stroke-linecap="round" stroke-linejoin="round" fill="#000"
        points="38.77430058551035,55.63562148434215 41.42432874230949,57.56097964066837 40.412108057556466,60.676274578121046 37.13649311346427,60.67627457812106 36.12427242871123,57.56097964066839">
    </polygon>
    <polygon stroke-width="0" stroke-linecap="round" stroke-linejoin="round" fill="#000"
        points="43.062136214355604,42.439020359331636 45.71216437115474,44.36437851565786 44.69994368640172,47.47967345311053 41.42432874230952,47.47967345311054 40.41210805755648,44.364378515657876">
    </polygon>
    <polygon stroke-width="0" stroke-linecap="round" stroke-linejoin="round" fill="#000"
        points="56.93786378564438,42.439020359331636 59.58789194244352,44.36437851565786 58.575671257690495,47.47967345311053 55.3000563135983,47.47967345311054 54.28783562884525,44.364378515657876">
    </polygon>
    <polygon stroke-width="0" stroke-linecap="round" stroke-linejoin="round" fill="#000"
        points="61.225699414489625,55.63562148434215 63.87572757128876,57.56097964066837 62.863506886535745,60.676274578121046 59.58789194244354,60.67627457812105 58.5756712576905,57.56097964066839">
    </polygon>
    <polygon stroke-width="0" stroke-linecap="round" stroke-linejoin="round" fill="#000"
        points="50,14.855881328184147 47.34997184320086,12.930523171857914 48.362192527953894,9.815228234405232 51.637807472046106,9.815228234405232 52.65002815679914,12.930523171857914">
    </polygon>
    <polygon stroke-width="0" stroke-linecap="round" stroke-linejoin="round" fill="#000"
        points="61.22569941448964,23.01182935941575 58.575671257690495,21.086471203089516 59.587891942443534,17.971176265636835 62.86350688653574,17.971176265636835 63.87572757128878,21.086471203089516">
    </polygon>
    <polygon stroke-width="0" stroke-linecap="round" stroke-linejoin="round" fill="#000"
        points="56.93786378564439,36.20843048442626 54.28783562884525,34.28307232810003 55.30005631359828,31.16777739064735 58.575671257690495,31.167777390647345 59.587891942443534,34.283072328100026">
    </polygon>
    <polygon stroke-width="0" stroke-linecap="round" stroke-linejoin="round" fill="#000"
        points="43.06213621435562,36.20843048442626 40.41210805755647,34.28307232810003 41.424328742309505,31.16777739064735 44.69994368640172,31.167777390647345 45.712164371154756,34.283072328100026">
    </polygon>
    <polygon stroke-width="0" stroke-linecap="round" stroke-linejoin="round" fill="#000"
        points="38.77430058551037,23.01182935941575 36.12427242871122,21.086471203089516 37.13649311346426,17.971176265636835 40.412108057556466,17.971176265636835 41.424328742309505,21.08647120308951">
    </polygon>
    <polygon stroke-width="0" stroke-linecap="round" stroke-linejoin="round" fill="#000"
        points="79.38926261462366,36.20843048442626 76.73923445782452,34.283072328100026 77.75145514257756,31.167777390647345 81.02707008666977,31.167777390647345 82.0392907714228,34.28307232810002">
    </polygon>
    <polygon stroke-width="0" stroke-linecap="round" stroke-linejoin="round" fill="#000"
        points="90.61496202911329,44.36437851565786 87.96493387231416,42.43902035933163 88.9771545570672,39.32372542187895 92.25276950115939,39.32372542187895 93.26499018591244,42.43902035933162">
    </polygon>
    <polygon stroke-width="0" stroke-linecap="round" stroke-linejoin="round" fill="#000"
        points="86.32712640026804,57.56097964066837 83.6770982434689,55.635621484342145 84.68931892822194,52.520326546889464 87.96493387231413,52.520326546889464 88.97715455706718,55.63562148434214">
    </polygon>
    <polygon stroke-width="0" stroke-linecap="round" stroke-linejoin="round" fill="#000"
        points="72.45139882897928,57.56097964066837 69.80137067218013,55.635621484342145 70.81359135693316,52.520326546889464 74.08920630102537,52.520326546889464 75.1014269857784,55.63562148434214">
    </polygon>
    <polygon stroke-width="0" stroke-linecap="round" stroke-linejoin="round" fill="#000"
        points="68.16356320013402,44.36437851565786 65.51353504333488,42.43902035933163 66.52575572808792,39.32372542187895 69.80137067218013,39.32372542187895 70.81359135693316,42.43902035933162">
    </polygon>
    <polygon stroke-width="0" stroke-linecap="round" stroke-linejoin="round" fill="#000"
        points="68.16356320013404,70.75758076567888 65.51353504333488,68.83222260935266 66.52575572808792,65.71692767189998 69.80137067218013,65.71692767189998 70.81359135693316,68.83222260935266">
    </polygon>
    <polygon stroke-width="0" stroke-linecap="round" stroke-linejoin="round" fill="#000"
        points="79.38926261462366,78.91352879691048 76.73923445782452,76.98817064058426 77.75145514257756,73.87287570313158 81.02707008666977,73.87287570313157 82.0392907714228,76.98817064058426">
    </polygon>
    <polygon stroke-width="0" stroke-linecap="round" stroke-linejoin="round" fill="#000"
        points="75.10142698577842,92.110129921921 72.45139882897928,90.18477176559477 73.46361951373231,87.0694768281421 76.73923445782451,87.06947682814209 77.75145514257756,90.18477176559477">
    </polygon>
    <polygon stroke-width="0" stroke-linecap="round" stroke-linejoin="round" fill="#000"
        points="61.22569941448964,92.110129921921 58.5756712576905,90.18477176559477 59.587891942443534,87.0694768281421 62.86350688653573,87.06947682814209 63.87572757128878,90.18477176559477">
    </polygon>
    <polygon stroke-width="0" stroke-linecap="round" stroke-linejoin="round" fill="#000"
        points="56.937863785644396,78.91352879691048 54.28783562884526,76.98817064058426 55.30005631359828,73.87287570313158 58.57567125769049,73.87287570313158 59.58789194244353,76.98817064058426">
    </polygon>
    <polygon stroke-width="0" stroke-linecap="round" stroke-linejoin="round" fill="#000"
        points="31.83643679986599,70.75758076567888 29.18640864306685,68.83222260935266 30.198629327819877,65.71692767189998 33.47424427191208,65.71692767189998 34.48646495666512,68.83222260935264">
    </polygon>
    <polygon stroke-width="0" stroke-linecap="round" stroke-linejoin="round" fill="#000"
        points="43.062136214355625,78.91352879691048 40.41210805755649,76.98817064058426 41.42432874230951,73.87287570313158 44.69994368640171,73.87287570313157 45.712164371154756,76.98817064058424">
    </polygon>
    <polygon stroke-width="0" stroke-linecap="round" stroke-linejoin="round" fill="#000"
        points="38.77430058551038,92.110129921921 36.12427242871124,90.18477176559477 37.13649311346427,87.06947682814211 40.412108057556466,87.06947682814209 41.424328742309505,90.18477176559476">
    </polygon>
    <polygon stroke-width="0" stroke-linecap="round" stroke-linejoin="round" fill="#000"
        points="24.898573014221604,92.110129921921 22.248544857422466,90.18477176559477 23.26076554217549,87.06947682814211 26.53638048626769,87.06947682814209 27.54860117102073,90.18477176559476">
    </polygon>
    <polygon stroke-width="0" stroke-linecap="round" stroke-linejoin="round" fill="#000"
        points="20.610737385376357,78.91352879691048 17.960709228577215,76.98817064058426 18.97292991333024,73.8728757031316 22.248544857422438,73.87287570313158 23.26076554217548,76.98817064058424">
    </polygon>
    <polygon stroke-width="0" stroke-linecap="round" stroke-linejoin="round" fill="#000"
        points="20.610737385376357,36.20843048442626 17.960709228577215,34.28307232810003 18.97292991333024,31.167777390647363 22.248544857422438,31.167777390647352 23.26076554217548,34.28307232810002">
    </polygon>
    <polygon stroke-width="0" stroke-linecap="round" stroke-linejoin="round" fill="#000"
        points="31.836436799865993,44.364378515657855 29.186408643066855,42.439020359331636 30.198629327819877,39.32372542187896 33.47424427191207,39.32372542187895 34.48646495666512,42.43902035933162">
    </polygon>
    <polygon stroke-width="0" stroke-linecap="round" stroke-linejoin="round" fill="#000"
        points="27.548601171020746,57.56097964066837 24.898573014221604,55.63562148434215 25.91079369897463,52.52032654688948 29.186408643066827,52.52032654688947 30.19862932781987,55.63562148434214">
    </polygon>
    <polygon stroke-width="0" stroke-linecap="round" stroke-linejoin="round" fill="#000"
        points="13.672873599731965,57.56097964066837 11.022845442932827,55.63562148434215 12.035066127685852,52.52032654688948 15.310681071778049,52.52032654688947 16.322901756531095,55.63562148434214">
    </polygon>
    <polygon stroke-width="0" stroke-linecap="round" stroke-linejoin="round" fill="#000"
        points="9.38503797088672,44.36437851565786 6.735009814087583,42.439020359331636 7.747230498840608,39.32372542187896 11.022845442932805,39.323725421878954 12.035066127685852,42.43902035933162">
    </polygon>
    <polygon stroke-width="0" stroke-linecap="round" stroke-linejoin="round" fill="#000"
        points="50.00000000000001,57.56097964066837 47.34997184320087,55.63562148434215 48.362192527953894,52.52032654688948 51.63780747204609,52.520326546889464 52.65002815679914,55.63562148434213">
    </polygon>
    <polygon stroke-width="0" stroke-linecap="round" stroke-linejoin="round" fill="#000"
        points="50.00000000000001,31.167777390647334 47.34997184320087,29.242419234321115 48.362192527953894,26.12712429686844 51.63780747204609,26.12712429686843 52.65002815679914,29.242419234321098">
    </polygon>
    <polygon stroke-width="0" stroke-linecap="round" stroke-linejoin="round" fill="#000"
        points="45.71216437115476,28.052482453194653 43.062136214355625,26.127124296868434 44.07435689910865,23.01182935941576 47.34997184320085,23.01182935941575 48.36219252795389,26.127124296868416">
    </polygon>
    <polygon stroke-width="0" stroke-linecap="round" stroke-linejoin="round" fill="#000"
        points="47.34997184320087,23.01182935941574 44.69994368640173,21.086471203089523 45.71216437115475,17.97117626563685 48.987779315246954,17.971176265636835 49.99999999999999,21.086471203089502">
    </polygon>
    <polygon stroke-width="0" stroke-linecap="round" stroke-linejoin="round" fill="#000"
        points="52.65002815679915,23.01182935941574 50.000000000000014,21.086471203089523 51.01222068475303,17.97117626563685 54.28783562884523,17.971176265636835 55.300056313598276,21.086471203089502">
    </polygon>
    <polygon stroke-width="0" stroke-linecap="round" stroke-linejoin="round" fill="#000"
        points="54.28783562884526,28.052482453194653 51.63780747204612,26.127124296868434 52.65002815679914,23.01182935941576 55.925643100891335,23.01182935941575 56.93786378564438,26.127124296868416">
    </polygon>
    <polygon stroke-width="0" stroke-linecap="round" stroke-linejoin="round" fill="#000"
        points="79.38926261462368,52.52032654688945 76.73923445782452,50.59496839056323 77.75145514257756,47.47967345311056 81.02707008666975,47.47967345311055 82.0392907714228,50.59496839056321">
    </polygon>
    <polygon stroke-width="0" stroke-linecap="round" stroke-linejoin="round" fill="#000"
        points="75.10142698577842,49.40503160943677 72.45139882897928,47.47967345311055 73.46361951373231,44.364378515657876 76.7392344578245,44.36437851565786 77.75145514257754,47.47967345311053">
    </polygon>
    <polygon stroke-width="0" stroke-linecap="round" stroke-linejoin="round" fill="#000"
        points="76.73923445782452,44.36437851565785 74.08920630102538,42.439020359331636 75.1014269857784,39.32372542187896 78.37704192987061,39.32372542187895 79.38926261462365,42.439020359331614">
    </polygon>
    <polygon stroke-width="0" stroke-linecap="round" stroke-linejoin="round" fill="#000"
        points="82.0392907714228,44.36437851565785 79.38926261462368,42.439020359331636 80.4014832993767,39.32372542187896 83.67709824346889,39.32372542187895 84.68931892822194,42.439020359331614">
    </polygon>
    <polygon stroke-width="0" stroke-linecap="round" stroke-linejoin="round" fill="#000"
        points="83.67709824346892,49.40503160943677 81.02707008666977,47.47967345311055 82.0392907714228,44.364378515657876 85.314905715515,44.36437851565786 86.32712640026804,47.47967345311053">
    </polygon>
    <polygon stroke-width="0" stroke-linecap="round" stroke-linejoin="round" fill="#000"
        points="68.16356320013404,87.06947682814209 65.5135350433349,85.14411867181586 66.52575572808792,82.02882373436319 69.80137067218011,82.02882373436317 70.81359135693316,85.14411867181585">
    </polygon>
    <polygon stroke-width="0" stroke-linecap="round" stroke-linejoin="round" fill="#000"
        points="63.875727571288785,83.9541818906894 61.22569941448965,82.02882373436319 62.23792009924267,78.9135287969105 65.51353504333487,78.9135287969105 66.52575572808792,82.02882373436316">
    </polygon>
    <polygon stroke-width="0" stroke-linecap="round" stroke-linejoin="round" fill="#000"
        points="65.5135350433349,78.91352879691048 62.86350688653575,76.98817064058426 63.87572757128878,73.87287570313158 67.15134251538097,73.87287570313157 68.16356320013402,76.98817064058424">
    </polygon>
    <polygon stroke-width="0" stroke-linecap="round" stroke-linejoin="round" fill="#000"
        points="70.81359135693317,78.91352879691048 68.16356320013404,76.98817064058426 69.17578388488707,73.87287570313158 72.45139882897925,73.87287570313157 73.4636195137323,76.98817064058424">
    </polygon>
    <polygon stroke-width="0" stroke-linecap="round" stroke-linejoin="round" fill="#000"
        points="72.45139882897928,83.9541818906894 69.80137067218014,82.02882373436319 70.81359135693316,78.9135287969105 74.08920630102537,78.9135287969105 75.1014269857784,82.02882373436316">
    </polygon>
    <polygon stroke-width="0" stroke-linecap="round" stroke-linejoin="round" fill="#000"
        points="31.836436799865993,87.06947682814209 29.186408643066855,85.14411867181586 30.198629327819877,82.02882373436319 33.47424427191207,82.02882373436317 34.48646495666512,85.14411867181585">
    </polygon>
    <polygon stroke-width="0" stroke-linecap="round" stroke-linejoin="round" fill="#000"
        points="27.548601171020746,83.9541818906894 24.898573014221604,82.02882373436319 25.91079369897463,78.9135287969105 29.186408643066827,78.9135287969105 30.19862932781987,82.02882373436316">
    </polygon>
    <polygon stroke-width="0" stroke-linecap="round" stroke-linejoin="round" fill="#000"
        points="29.18640864306685,78.91352879691048 26.53638048626771,76.98817064058426 27.548601171020735,73.87287570313158 30.824216115112932,73.87287570313157 31.836436799865975,76.98817064058424">
    </polygon>
    <polygon stroke-width="0" stroke-linecap="round" stroke-linejoin="round" fill="#000"
        points="34.48646495666513,78.91352879691048 31.836436799865993,76.98817064058426 32.84865748461902,73.87287570313158 36.124272428711215,73.87287570313157 37.136493113464255,76.98817064058424">
    </polygon>
    <polygon stroke-width="0" stroke-linecap="round" stroke-linejoin="round" fill="#000"
        points="36.12427242871124,83.9541818906894 33.4742442719121,82.02882373436319 34.48646495666512,78.9135287969105 37.76207990075732,78.9135287969105 38.77430058551036,82.02882373436316">
    </polygon>
    <polygon stroke-width="0" stroke-linecap="round" stroke-linejoin="round" fill="#000"
        points="20.610737385376357,52.52032654688946 17.960709228577215,50.59496839056324 18.97292991333024,47.479673453110564 22.248544857422438,47.47967345311055 23.26076554217548,50.59496839056322">
    </polygon>
    <polygon stroke-width="0" stroke-linecap="round" stroke-linejoin="round" fill="#000"
        points="16.32290175653111,49.405031609436776 13.672873599731972,47.47967345311056 14.685094284484997,44.364378515657876 17.960709228577194,44.36437851565787 18.972929913330237,47.479673453110536">
    </polygon>
    <polygon stroke-width="0" stroke-linecap="round" stroke-linejoin="round" fill="#000"
        points="17.96070922857721,44.36437851565786 15.31068107177807,42.439020359331636 16.322901756531095,39.32372542187896 19.598516700623293,39.323725421878954 20.610737385376336,42.43902035933162">
    </polygon>
    <polygon stroke-width="0" stroke-linecap="round" stroke-linejoin="round" fill="#000"
        points="23.2607655421755,44.36437851565786 20.61073738537636,42.439020359331636 21.622958070129382,39.32372542187896 24.89857301422158,39.323725421878954 25.910793698974622,42.43902035933162">
    </polygon>
    <polygon stroke-width="0" stroke-linecap="round" stroke-linejoin="round" fill="#000"
        points="24.8985730142216,49.405031609436776 22.24854485742246,47.47967345311056 23.260765542175484,44.364378515657876 26.53638048626768,44.36437851565787 27.548601171020724,47.479673453110536">
    </polygon>
    <polygon stroke-width="0" stroke-linecap="round" stroke-linejoin="round" fill="#000"
        points="50.00000000000001,73.87287570313157 47.34997184320087,71.94751754680534 48.362192527953894,68.83222260935267 51.63780747204609,68.83222260935267 52.65002815679914,71.94751754680533">
    </polygon>
    <polygon stroke-width="0" stroke-linecap="round" stroke-linejoin="round" fill="#000"
        points="45.71216437115476,70.75758076567888 43.062136214355625,68.83222260935267 44.07435689910865,65.7169276719 47.34997184320085,65.71692767189998 48.36219252795389,68.83222260935264">
    </polygon>
    <polygon stroke-width="0" stroke-linecap="round" stroke-linejoin="round" fill="#000"
        points="47.34997184320087,65.71692767189997 44.69994368640173,63.79156951557375 45.71216437115475,60.676274578121074 48.987779315246954,60.67627457812107 49.99999999999999,63.791569515573734">
    </polygon>
    <polygon stroke-width="0" stroke-linecap="round" stroke-linejoin="round" fill="#000"
        points="52.65002815679915,65.71692767189997 50.000000000000014,63.79156951557375 51.01222068475303,60.676274578121074 54.28783562884523,60.67627457812107 55.300056313598276,63.791569515573734">
    </polygon>
    <polygon stroke-width="0" stroke-linecap="round" stroke-linejoin="round" fill="#000"
        points="54.28783562884526,70.75758076567888 51.63780747204612,68.83222260935267 52.65002815679914,65.7169276719 55.925643100891335,65.71692767189998 56.93786378564438,68.83222260935264">
    </polygon>
    <polygon stroke-width="0" stroke-linecap="round" stroke-linejoin="round" fill="#000"
        points="38.774300585510375,65.71692767189997 36.12427242871124,63.79156951557375 37.136493113464255,60.676274578121074 40.41210805755645,60.67627457812107 41.4243287423095,63.79156951557373">
    </polygon>
    <polygon stroke-width="0" stroke-linecap="round" stroke-linejoin="round" fill="#000"
        points="34.486464956665124,62.601632734447286 31.836436799865986,60.67627457812107 32.84865748461901,57.56097964066839 36.12427242871121,57.560979640668386 37.136493113464255,60.67627457812105">
    </polygon>
    <polygon stroke-width="0" stroke-linecap="round" stroke-linejoin="round" fill="#000"
        points="36.12427242871123,57.56097964066837 33.47424427191209,55.63562148434215 34.48646495666512,52.52032654688948 37.762079900757314,52.520326546889464 38.77430058551036,55.63562148434213">
    </polygon>
    <polygon stroke-width="0" stroke-linecap="round" stroke-linejoin="round" fill="#000"
        points="41.42432874230951,57.56097964066837 38.774300585510375,55.63562148434215 39.7865212702634,52.52032654688948 43.0621362143556,52.520326546889464 44.074356899108636,55.63562148434213">
    </polygon>
    <polygon stroke-width="0" stroke-linecap="round" stroke-linejoin="round" fill="#000"
        points="43.06213621435562,62.601632734447286 40.41210805755648,60.67627457812107 41.4243287423095,57.56097964066839 44.6999436864017,57.56097964066838 45.71216437115474,60.67627457812105">
    </polygon>
    <polygon stroke-width="0" stroke-linecap="round" stroke-linejoin="round" fill="#000"
        points="43.06213621435562,52.52032654688945 40.41210805755648,50.59496839056323 41.424328742309505,47.47967345311056 44.6999436864017,47.47967345311055 45.71216437115474,50.59496839056322">
    </polygon>
    <polygon stroke-width="0" stroke-linecap="round" stroke-linejoin="round" fill="#000"
        points="38.774300585510375,49.40503160943677 36.12427242871124,47.47967345311055 37.136493113464255,44.364378515657876 40.41210805755645,44.36437851565786 41.4243287423095,47.479673453110536">
    </polygon>
    <polygon stroke-width="0" stroke-linecap="round" stroke-linejoin="round" fill="#000"
        points="40.41210805755648,44.364378515657855 37.76207990075734,42.439020359331636 38.77430058551036,39.32372542187896 42.04991552960256,39.32372542187895 43.062136214355604,42.439020359331614">
    </polygon>
    <polygon stroke-width="0" stroke-linecap="round" stroke-linejoin="round" fill="#000"
        points="45.71216437115476,44.364378515657855 43.062136214355625,42.439020359331636 44.07435689910864,39.32372542187896 47.34997184320084,39.32372542187895 48.36219252795389,42.439020359331614">
    </polygon>
    <polygon stroke-width="0" stroke-linecap="round" stroke-linejoin="round" fill="#000"
        points="47.34997184320087,49.40503160943677 44.699943686401724,47.47967345311055 45.71216437115475,44.364378515657876 48.98777931524695,44.36437851565786 49.99999999999999,47.479673453110536">
    </polygon>
    <polygon stroke-width="0" stroke-linecap="round" stroke-linejoin="round" fill="#000"
        points="56.937863785644396,52.52032654688945 54.28783562884526,50.59496839056323 55.30005631359828,47.47967345311056 58.57567125769048,47.47967345311055 59.58789194244352,50.59496839056322">
    </polygon>
    <polygon stroke-width="0" stroke-linecap="round" stroke-linejoin="round" fill="#000"
        points="52.65002815679915,49.40503160943677 50.000000000000014,47.47967345311055 51.01222068475303,44.364378515657876 54.28783562884523,44.36437851565786 55.300056313598276,47.479673453110536">
    </polygon>
    <polygon stroke-width="0" stroke-linecap="round" stroke-linejoin="round" fill="#000"
        points="54.28783562884526,44.364378515657855 51.63780747204612,42.439020359331636 52.65002815679914,39.32372542187896 55.925643100891335,39.32372542187895 56.93786378564438,42.439020359331614">
    </polygon>
    <polygon stroke-width="0" stroke-linecap="round" stroke-linejoin="round" fill="#000"
        points="59.587891942443534,44.364378515657855 56.937863785644396,42.439020359331636 57.95008447039742,39.32372542187896 61.22569941448962,39.32372542187895 62.23792009924266,42.439020359331614">
    </polygon>
    <polygon stroke-width="0" stroke-linecap="round" stroke-linejoin="round" fill="#000"
        points="61.22569941448964,49.40503160943677 58.5756712576905,47.47967345311055 59.58789194244353,44.364378515657876 62.863506886535724,44.36437851565786 63.87572757128876,47.479673453110536">
    </polygon>
    <polygon stroke-width="0" stroke-linecap="round" stroke-linejoin="round" fill="#000"
        points="61.22569941448964,65.71692767189997 58.5756712576905,63.79156951557375 59.58789194244353,60.676274578121074 62.863506886535724,60.67627457812106 63.87572757128877,63.79156951557373">
    </polygon>
    <polygon stroke-width="0" stroke-linecap="round" stroke-linejoin="round" fill="#000"
        points="56.937863785644396,62.601632734447286 54.28783562884526,60.67627457812107 55.30005631359828,57.56097964066839 58.57567125769048,57.56097964066838 59.58789194244352,60.676274578121046">
    </polygon>
    <polygon stroke-width="0" stroke-linecap="round" stroke-linejoin="round" fill="#000"
        points="58.5756712576905,57.560979640668364 55.925643100891364,55.635621484342145 56.93786378564439,52.52032654688948 60.213478729736586,52.520326546889464 61.225699414489625,55.63562148434213">
    </polygon>
    <polygon stroke-width="0" stroke-linecap="round" stroke-linejoin="round" fill="#000"
        points="63.875727571288785,57.560979640668364 61.22569941448965,55.635621484342145 62.23792009924267,52.52032654688947 65.51353504333487,52.520326546889464 66.52575572808792,55.63562148434213">
    </polygon>
    <polygon stroke-width="0" stroke-linecap="round" stroke-linejoin="round" fill="#000"
        points="65.51353504333488,62.601632734447286 62.86350688653575,60.67627457812107 63.87572757128878,57.56097964066839 67.15134251538097,57.56097964066838 68.163563200134,60.676274578121046">
    </polygon>
</svg>