<svg xmlns="http://www.w3.org/2000/svg" xmlns:xlink="http://wwww3.org/1999/xlink" width="100%" height="100%" stroke-linecap="round" stroke-linejoin="round" viewBox="-1000 -1000 2000 2000" xml:space="preserve"><g><path stroke="#000" stroke-width="2" d="M -458.4906 458.4906 L -424.5283 458.4906"/><path stroke="#000" stroke-width="2" d="M -424.5283 458.4906 L -424.5283 492.4528"/><path stroke="#000" stroke-width="2" d="M -424.5283 492.4528 L -390.566 492.4528"/><path stroke="#000" stroke-width="2" d="M -390.566 492.4528 L -390.566 458.4906"/><path stroke="#000" stroke-width="2" d="M -390.566 458.4906 L -356.6038 458.4906"/><path stroke="#000" stroke-width="2" d="M -356.6038 458.4906 L -356.6038 492.4528"/><path stroke="#000" stroke-width="2" d="M -356.6038 492.4528 L -390.566 492.4528"/><path stroke="#000" stroke-width="2" d="M -390.566 492.4528 L -390.566 526.4151"/><path stroke="#000" stroke-width="2" d="M -390.566 526.4151 L -356.6038 526.4151"/><path stroke="#000" stroke-width="2" d="M -356.6038 526.4151 L -356.6038 560.3774"/><path stroke="#000" stroke-width="2" d="M -356.6038 560.3774 L -322.6415 560.3774"/><path stroke="#000" stroke-width="2" d="M -322.6415 560.3774 L -322.6415 594.3396"/><path stroke="#000" stroke-width="2" d="M -322.6415 594.3396 L -288.6792 594.3396"/><path stroke="#000" stroke-width="2" d="M -288.6792 594.3396 L -288.6792 560.3774"/><path stroke="#000" stroke-width="2" d="M -288.6792 560.3774 L -254.717 560.3774"/><path stroke="#000" stroke-width="2" d="M -254.717 560.3774 L -254.717 526.4151"/><path stroke="#000" stroke-width="2" d="M -254.717 526.4151 L -220.7547 526.4151"/><path stroke="#000" stroke-width="2" d="M -220.7547 526.4151 L -220.7547 492.4528"/><path stroke="#000" stroke-width="2" d="M -220.7547 492.4528 L -254.717 492.4528"/><path stroke="#000" stroke-width="2" d="M -254.717 492.4528 L -254.717 458.4906"/><path stroke="#000" stroke-width="2" d="M -254.717 458.4906 L -220.7547 458.4906"/><path stroke="#000" stroke-width="2" d="M -220.7547 458.4906 L -220.7547 492.4528"/><path stroke="#000" stroke-width="2" d="M -220.7547 492.4528 L -186.7925 492.4528"/><path stroke="#000" stroke-width="2" d="M -186.7925 492.4528 L -186.7925 458.4906"/><path stroke="#000" stroke-width="2" d="M -186.7925 458.4906 L -152.8302 458.4906"/><path stroke="#000" stroke-width="2" d="M -152.8302 458.4906 L -152.8302 492.4528"/><path stroke="#000" stroke-width="2" d="M -152.8302 492.4528 L -186.7925 492.4528"/><path stroke="#000" stroke-width="2" d="M -186.7925 492.4528 L -186.7925 526.4151"/><path stroke="#000" stroke-width="2" d="M -186.7925 526.4151 L -152.8302 526.4151"/><path stroke="#000" stroke-width="2" d="M -152.8302 526.4151 L -152.8302 560.3774"/><path stroke="#000" stroke-width="2" d="M -152.8302 560.3774 L -186.7925 560.3774"/><path stroke="#000" stroke-width="2" d="M -186.7925 560.3774 L -186.7925 526.4151"/><path stroke="#000" stroke-width="2" d="M -186.7925 526.4151 L -220.7547 526.4151"/><path stroke="#000" stroke-width="2" d="M -220.7547 526.4151 L -220.7547 560.3774"/><path stroke="#000" stroke-width="2" d="M -220.7547 560.3774 L -254.717 560.3774"/><path stroke="#000" stroke-width="2" d="M -254.717 560.3774 L -254.717 594.3396"/><path stroke="#000" stroke-width="2" d="M -254.717 594.3396 L -288.6792 594.3396"/><path stroke="#000" stroke-width="2" d="M -288.6792 594.3396 L -288.6792 628.3019"/><path stroke="#000" stroke-width="2" d="M -288.6792 628.3019 L -254.717 628.3019"/><path stroke="#000" stroke-width="2" d="M -254.717 628.3019 L -254.717 662.2642"/><path stroke="#000" stroke-width="2" d="M -254.717 662.2642 L -220.7547 662.2642"/><path stroke="#000" stroke-width="2" d="M -220.7547 662.2642 L -220.7547 696.2264"/><path stroke="#000" stroke-width="2" d="M -220.7547 696.2264 L -186.7925 696.2264"/><path stroke="#000" stroke-width="2" d="M -186.7925 696.2264 L -186.7925 662.2642"/><path stroke="#000" stroke-width="2" d="M -186.7925 662.2642 L -152.8302 662.2642"/><path stroke="#000" stroke-width="2" d="M -152.8302 662.2642 L -152.8302 696.2264"/><path stroke="#000" stroke-width="2" d="M -152.8302 696.2264 L -186.7925 696.2264"/><path stroke="#000" stroke-width="2" d="M -186.7925 696.2264 L -186.7925 730.1887"/><path stroke="#000" stroke-width="2" d="M -186.7925 730.1887 L -152.8302 730.1887"/><path stroke="#000" stroke-width="2" d="M -152.8302 730.1887 L -152.8302 764.1509"/><path stroke="#000" stroke-width="2" d="M -152.8302 764.1509 L -118.8679 764.1509"/><path stroke="#000" stroke-width="2" d="M -118.8679 764.1509 L -118.8679 798.1132"/><path stroke="#000" stroke-width="2" d="M -118.8679 798.1132 L -84.9057 798.1132"/><path stroke="#000" stroke-width="2" d="M -84.9057 798.1132 L -84.9057 764.1509"/><path stroke="#000" stroke-width="2" d="M -84.9057 764.1509 L -50.9434 764.1509"/><path stroke="#000" stroke-width="2" d="M -50.9434 764.1509 L -50.9434 798.1132"/><path stroke="#000" stroke-width="2" d="M -50.9434 798.1132 L -84.9057 798.1132"/><path stroke="#000" stroke-width="2" d="M -84.9057 798.1132 L -84.9057 832.0755"/><path stroke="#000" stroke-width="2" d="M -84.9057 832.0755 L -50.9434 832.0755"/><path stroke="#000" stroke-width="2" d="M -50.9434 832.0755 L -50.9434 866.0377"/><path stroke="#000" stroke-width="2" d="M -50.9434 866.0377 L -16.9811 866.0377"/><path stroke="#000" stroke-width="2" d="M -16.9811 866.0377 L -16.9811 900"/><path stroke="#000" stroke-width="2" d="M -16.9811 900 L 16.9811 900"/><path stroke="#000" stroke-width="2" d="M 16.9811 900 L 16.9811 866.0377"/><path stroke="#000" stroke-width="2" d="M 16.9811 866.0377 L 50.9434 866.0377"/><path stroke="#000" stroke-width="2" d="M 50.9434 866.0377 L 50.9434 832.0755"/><path stroke="#000" stroke-width="2" d="M 50.9434 832.0755 L 84.9057 832.0755"/><path stroke="#000" stroke-width="2" d="M 84.9057 832.0755 L 84.9057 798.1132"/><path stroke="#000" stroke-width="2" d="M 84.9057 798.1132 L 50.9434 798.1132"/><path stroke="#000" stroke-width="2" d="M 50.9434 798.1132 L 50.9434 764.1509"/><path stroke="#000" stroke-width="2" d="M 50.9434 764.1509 L 84.9057 764.1509"/><path stroke="#000" stroke-width="2" d="M 84.9057 764.1509 L 84.9057 798.1132"/><path stroke="#000" stroke-width="2" d="M 84.9057 798.1132 L 118.8679 798.1132"/><path stroke="#000" stroke-width="2" d="M 118.8679 798.1132 L 118.8679 764.1509"/><path stroke="#000" stroke-width="2" d="M 118.8679 764.1509 L 152.8302 764.1509"/><path stroke="#000" stroke-width="2" d="M 152.8302 764.1509 L 152.8302 730.1887"/><path stroke="#000" stroke-width="2" d="M 152.8302 730.1887 L 186.7925 730.1887"/><path stroke="#000" stroke-width="2" d="M 186.7925 730.1887 L 186.7925 696.2264"/><path stroke="#000" stroke-width="2" d="M 186.7925 696.2264 L 152.8302 696.2264"/><path stroke="#000" stroke-width="2" d="M 152.8302 696.2264 L 152.8302 662.2642"/><path stroke="#000" stroke-width="2" d="M 152.8302 662.2642 L 186.7925 662.2642"/><path stroke="#000" stroke-width="2" d="M 186.7925 662.2642 L 186.7925 696.2264"/><path stroke="#000" stroke-width="2" d="M 186.7925 696.2264 L 220.7547 696.2264"/><path stroke="#000" stroke-width="2" d="M 220.7547 696.2264 L 220.7547 662.2642"/><path stroke="#000" stroke-width="2" d="M 220.7547 662.2642 L 254.717 662.2642"/><path stroke="#000" stroke-width="2" d="M 254.717 662.2642 L 254.717 628.3019"/><path stroke="#000" stroke-width="2" d="M 254.717 628.3019 L 288.6792 628.3019"/><path stroke="#000" stroke-width="2" d="M 288.6792 628.3019 L 288.6792 594.3396"/><path stroke="#000" stroke-width="2" d="M 288.6792 594.3396 L 254.717 594.3396"/><path stroke="#000" stroke-width="2" d="M 254.717 594.3396 L 254.717 560.3774"/><path stroke="#000" stroke-width="2" d="M 254.717 560.3774 L 220.7547 560.3774"/><path stroke="#000" stroke-width="2" d="M 220.7547 560.3774 L 220.7547 526.4151"/><path stroke="#000" stroke-width="2" d="M 220.7547 526.4151 L 186.7925 526.4151"/><path stroke="#000" stroke-width="2" d="M 186.7925 526.4151 L 186.7925 560.3774"/><path stroke="#000" stroke-width="2" d="M 186.7925 560.3774 L 152.8302 560.3774"/><path stroke="#000" stroke-width="2" d="M 152.8302 560.3774 L 152.8302 526.4151"/><path stroke="#000" stroke-width="2" d="M 152.8302 526.4151 L 186.7925 526.4151"/><path stroke="#000" stroke-width="2" d="M 186.7925 526.4151 L 186.7925 492.4528"/><path stroke="#000" stroke-width="2" d="M 186.7925 492.4528 L 152.8302 492.4528"/><path stroke="#000" stroke-width="2" d="M 152.8302 492.4528 L 152.8302 458.4906"/><path stroke="#000" stroke-width="2" d="M 152.8302 458.4906 L 186.7925 458.4906"/><path stroke="#000" stroke-width="2" d="M 186.7925 458.4906 L 186.7925 492.4528"/><path stroke="#000" stroke-width="2" d="M 186.7925 492.4528 L 220.7547 492.4528"/><path stroke="#000" stroke-width="2" d="M 220.7547 492.4528 L 220.7547 458.4906"/><path stroke="#000" stroke-width="2" d="M 220.7547 458.4906 L 254.717 458.4906"/><path stroke="#000" stroke-width="2" d="M 254.717 458.4906 L 254.717 492.4528"/><path stroke="#000" stroke-width="2" d="M 254.717 492.4528 L 220.7547 492.4528"/><path stroke="#000" stroke-width="2" d="M 220.7547 492.4528 L 220.7547 526.4151"/><path stroke="#000" stroke-width="2" d="M 220.7547 526.4151 L 254.717 526.4151"/><path stroke="#000" stroke-width="2" d="M 254.717 526.4151 L 254.717 560.3774"/><path stroke="#000" stroke-width="2" d="M 254.717 560.3774 L 288.6792 560.3774"/><path stroke="#000" stroke-width="2" d="M 288.6792 560.3774 L 288.6792 594.3396"/><path stroke="#000" stroke-width="2" d="M 288.6792 594.3396 L 322.6415 594.3396"/><path stroke="#000" stroke-width="2" d="M 322.6415 594.3396 L 322.6415 560.3774"/><path stroke="#000" stroke-width="2" d="M 322.6415 560.3774 L 356.6038 560.3774"/><path stroke="#000" stroke-width="2" d="M 356.6038 560.3774 L 356.6038 526.4151"/><path stroke="#000" stroke-width="2" d="M 356.6038 526.4151 L 390.566 526.4151"/><path stroke="#000" stroke-width="2" d="M 390.566 526.4151 L 390.566 492.4528"/><path stroke="#000" stroke-width="2" d="M 390.566 492.4528 L 356.6038 492.4528"/><path stroke="#000" stroke-width="2" d="M 356.6038 492.4528 L 356.6038 458.4906"/><path stroke="#000" stroke-width="2" d="M 356.6038 458.4906 L 390.566 458.4906"/><path stroke="#000" stroke-width="2" d="M 390.566 458.4906 L 390.566 492.4528"/><path stroke="#000" stroke-width="2" d="M 390.566 492.4528 L 424.5283 492.4528"/><path stroke="#000" stroke-width="2" d="M 424.5283 492.4528 L 424.5283 458.4906"/><path stroke="#000" stroke-width="2" d="M 424.5283 458.4906 L 458.4906 458.4906"/><path stroke="#000" stroke-width="2" d="M 458.4906 458.4906 L 458.4906 424.5283"/><path stroke="#000" stroke-width="2" d="M 458.4906 424.5283 L 492.4528 424.5283"/><path stroke="#000" stroke-width="2" d="M 492.4528 424.5283 L 492.4528 390.566"/><path stroke="#000" stroke-width="2" d="M 492.4528 390.566 L 458.4906 390.566"/><path stroke="#000" stroke-width="2" d="M 458.4906 390.566 L 458.4906 356.6038"/><path stroke="#000" stroke-width="2" d="M 458.4906 356.6038 L 492.4528 356.6038"/><path stroke="#000" stroke-width="2" d="M 492.4528 356.6038 L 492.4528 390.566"/><path stroke="#000" stroke-width="2" d="M 492.4528 390.566 L 526.4151 390.566"/><path stroke="#000" stroke-width="2" d="M 526.4151 390.566 L 526.4151 356.6038"/><path stroke="#000" stroke-width="2" d="M 526.4151 356.6038 L 560.3774 356.6038"/><path stroke="#000" stroke-width="2" d="M 560.3774 356.6038 L 560.3774 322.6415"/><path stroke="#000" stroke-width="2" d="M 560.3774 322.6415 L 594.3396 322.6415"/><path stroke="#000" stroke-width="2" d="M 594.3396 322.6415 L 594.3396 288.6792"/><path stroke="#000" stroke-width="2" d="M 594.3396 288.6792 L 560.3774 288.6792"/><path stroke="#000" stroke-width="2" d="M 560.3774 288.6792 L 560.3774 254.717"/><path stroke="#000" stroke-width="2" d="M 560.3774 254.717 L 526.4151 254.717"/><path stroke="#000" stroke-width="2" d="M 526.4151 254.717 L 526.4151 220.7547"/><path stroke="#000" stroke-width="2" d="M 526.4151 220.7547 L 492.4528 220.7547"/><path stroke="#000" stroke-width="2" d="M 492.4528 220.7547 L 492.4528 254.717"/><path stroke="#000" stroke-width="2" d="M 492.4528 254.717 L 458.4906 254.717"/><path stroke="#000" stroke-width="2" d="M 458.4906 254.717 L 458.4906 220.7547"/><path stroke="#000" stroke-width="2" d="M 458.4906 220.7547 L 492.4528 220.7547"/><path stroke="#000" stroke-width="2" d="M 492.4528 220.7547 L 492.4528 186.7925"/><path stroke="#000" stroke-width="2" d="M 492.4528 186.7925 L 458.4906 186.7925"/><path stroke="#000" stroke-width="2" d="M 458.4906 186.7925 L 458.4906 152.8302"/><path stroke="#000" stroke-width="2" d="M 458.4906 152.8302 L 492.4528 152.8302"/><path stroke="#000" stroke-width="2" d="M 492.4528 152.8302 L 492.4528 186.7925"/><path stroke="#000" stroke-width="2" d="M 492.4528 186.7925 L 526.4151 186.7925"/><path stroke="#000" stroke-width="2" d="M 526.4151 186.7925 L 526.4151 152.8302"/><path stroke="#000" stroke-width="2" d="M 526.4151 152.8302 L 560.3774 152.8302"/><path stroke="#000" stroke-width="2" d="M 560.3774 152.8302 L 560.3774 186.7925"/><path stroke="#000" stroke-width="2" d="M 560.3774 186.7925 L 526.4151 186.7925"/><path stroke="#000" stroke-width="2" d="M 526.4151 186.7925 L 526.4151 220.7547"/><path stroke="#000" stroke-width="2" d="M 526.4151 220.7547 L 560.3774 220.7547"/><path stroke="#000" stroke-width="2" d="M 560.3774 220.7547 L 560.3774 254.717"/><path stroke="#000" stroke-width="2" d="M 560.3774 254.717 L 594.3396 254.717"/><path stroke="#000" stroke-width="2" d="M 594.3396 254.717 L 594.3396 288.6792"/><path stroke="#000" stroke-width="2" d="M 594.3396 288.6792 L 628.3019 288.6792"/><path stroke="#000" stroke-width="2" d="M 628.3019 288.6792 L 628.3019 254.717"/><path stroke="#000" stroke-width="2" d="M 628.3019 254.717 L 662.2642 254.717"/><path stroke="#000" stroke-width="2" d="M 662.2642 254.717 L 662.2642 220.7547"/><path stroke="#000" stroke-width="2" d="M 662.2642 220.7547 L 696.2264 220.7547"/><path stroke="#000" stroke-width="2" d="M 696.2264 220.7547 L 696.2264 186.7925"/><path stroke="#000" stroke-width="2" d="M 696.2264 186.7925 L 662.2642 186.7925"/><path stroke="#000" stroke-width="2" d="M 662.2642 186.7925 L 662.2642 152.8302"/><path stroke="#000" stroke-width="2" d="M 662.2642 152.8302 L 696.2264 152.8302"/><path stroke="#000" stroke-width="2" d="M 696.2264 152.8302 L 696.2264 186.7925"/><path stroke="#000" stroke-width="2" d="M 696.2264 186.7925 L 730.1887 186.7925"/><path stroke="#000" stroke-width="2" d="M 730.1887 186.7925 L 730.1887 152.8302"/><path stroke="#000" stroke-width="2" d="M 730.1887 152.8302 L 764.1509 152.8302"/><path stroke="#000" stroke-width="2" d="M 764.1509 152.8302 L 764.1509 118.8679"/><path stroke="#000" stroke-width="2" d="M 764.1509 118.8679 L 798.1132 118.8679"/><path stroke="#000" stroke-width="2" d="M 798.1132 118.8679 L 798.1132 84.9057"/><path stroke="#000" stroke-width="2" d="M 798.1132 84.9057 L 764.1509 84.9057"/><path stroke="#000" stroke-width="2" d="M 764.1509 84.9057 L 764.1509 50.9434"/><path stroke="#000" stroke-width="2" d="M 764.1509 50.9434 L 798.1132 50.9434"/><path stroke="#000" stroke-width="2" d="M 798.1132 50.9434 L 798.1132 84.9057"/><path stroke="#000" stroke-width="2" d="M 798.1132 84.9057 L 832.0755 84.9057"/><path stroke="#000" stroke-width="2" d="M 832.0755 84.9057 L 832.0755 50.9434"/><path stroke="#000" stroke-width="2" d="M 832.0755 50.9434 L 866.0377 50.9434"/><path stroke="#000" stroke-width="2" d="M 866.0377 50.9434 L 866.0377 16.9811"/><path stroke="#000" stroke-width="2" d="M 866.0377 16.9811 L 900 16.9811"/><path stroke="#000" stroke-width="2" d="M 900 16.9811 L 900 -16.9811"/><path stroke="#000" stroke-width="2" d="M 900 -16.9811 L 866.0377 -16.9811"/><path stroke="#000" stroke-width="2" d="M 866.0377 -16.9811 L 866.0377 -50.9434"/><path stroke="#000" stroke-width="2" d="M 866.0377 -50.9434 L 832.0755 -50.9434"/><path stroke="#000" stroke-width="2" d="M 832.0755 -50.9434 L 832.0755 -84.9057"/><path stroke="#000" stroke-width="2" d="M 832.0755 -84.9057 L 798.1132 -84.9057"/><path stroke="#000" stroke-width="2" d="M 798.1132 -84.9057 L 798.1132 -50.9434"/><path stroke="#000" stroke-width="2" d="M 798.1132 -50.9434 L 764.1509 -50.9434"/><path stroke="#000" stroke-width="2" d="M 764.1509 -50.9434 L 764.1509 -84.9057"/><path stroke="#000" stroke-width="2" d="M 764.1509 -84.9057 L 798.1132 -84.9057"/><path stroke="#000" stroke-width="2" d="M 798.1132 -84.9057 L 798.1132 -118.8679"/><path stroke="#000" stroke-width="2" d="M 798.1132 -118.8679 L 764.1509 -118.8679"/><path stroke="#000" stroke-width="2" d="M 764.1509 -118.8679 L 764.1509 -152.8302"/><path stroke="#000" stroke-width="2" d="M 764.1509 -152.8302 L 730.1887 -152.8302"/><path stroke="#000" stroke-width="2" d="M 730.1887 -152.8302 L 730.1887 -186.7925"/><path stroke="#000" stroke-width="2" d="M 730.1887 -186.7925 L 696.2264 -186.7925"/><path stroke="#000" stroke-width="2" d="M 696.2264 -186.7925 L 696.2264 -152.8302"/><path stroke="#000" stroke-width="2" d="M 696.2264 -152.8302 L 662.2642 -152.8302"/><path stroke="#000" stroke-width="2" d="M 662.2642 -152.8302 L 662.2642 -186.7925"/><path stroke="#000" stroke-width="2" d="M 662.2642 -186.7925 L 696.2264 -186.7925"/><path stroke="#000" stroke-width="2" d="M 696.2264 -186.7925 L 696.2264 -220.7547"/><path stroke="#000" stroke-width="2" d="M 696.2264 -220.7547 L 662.2642 -220.7547"/><path stroke="#000" stroke-width="2" d="M 662.2642 -220.7547 L 662.2642 -254.717"/><path stroke="#000" stroke-width="2" d="M 662.2642 -254.717 L 628.3019 -254.717"/><path stroke="#000" stroke-width="2" d="M 628.3019 -254.717 L 628.3019 -288.6792"/><path stroke="#000" stroke-width="2" d="M 628.3019 -288.6792 L 594.3396 -288.6792"/><path stroke="#000" stroke-width="2" d="M 594.3396 -288.6792 L 594.3396 -254.717"/><path stroke="#000" stroke-width="2" d="M 594.3396 -254.717 L 560.3774 -254.717"/><path stroke="#000" stroke-width="2" d="M 560.3774 -254.717 L 560.3774 -220.7547"/><path stroke="#000" stroke-width="2" d="M 560.3774 -220.7547 L 526.4151 -220.7547"/><path stroke="#000" stroke-width="2" d="M 526.4151 -220.7547 L 526.4151 -186.7925"/><path stroke="#000" stroke-width="2" d="M 526.4151 -186.7925 L 560.3774 -186.7925"/><path stroke="#000" stroke-width="2" d="M 560.3774 -186.7925 L 560.3774 -152.8302"/><path stroke="#000" stroke-width="2" d="M 560.3774 -152.8302 L 526.4151 -152.8302"/><path stroke="#000" stroke-width="2" d="M 526.4151 -152.8302 L 526.4151 -186.7925"/><path stroke="#000" stroke-width="2" d="M 526.4151 -186.7925 L 492.4528 -186.7925"/><path stroke="#000" stroke-width="2" d="M 492.4528 -186.7925 L 492.4528 -152.8302"/><path stroke="#000" stroke-width="2" d="M 492.4528 -152.8302 L 458.4906 -152.8302"/><path stroke="#000" stroke-width="2" d="M 458.4906 -152.8302 L 458.4906 -186.7925"/><path stroke="#000" stroke-width="2" d="M 458.4906 -186.7925 L 492.4528 -186.7925"/><path stroke="#000" stroke-width="2" d="M 492.4528 -186.7925 L 492.4528 -220.7547"/><path stroke="#000" stroke-width="2" d="M 492.4528 -220.7547 L 458.4906 -220.7547"/><path stroke="#000" stroke-width="2" d="M 458.4906 -220.7547 L 458.4906 -254.717"/><path stroke="#000" stroke-width="2" d="M 458.4906 -254.717 L 492.4528 -254.717"/><path stroke="#000" stroke-width="2" d="M 492.4528 -254.717 L 492.4528 -220.7547"/><path stroke="#000" stroke-width="2" d="M 492.4528 -220.7547 L 526.4151 -220.7547"/><path stroke="#000" stroke-width="2" d="M 526.4151 -220.7547 L 526.4151 -254.717"/><path stroke="#000" stroke-width="2" d="M 526.4151 -254.717 L 560.3774 -254.717"/><path stroke="#000" stroke-width="2" d="M 560.3774 -254.717 L 560.3774 -288.6792"/><path stroke="#000" stroke-width="2" d="M 560.3774 -288.6792 L 594.3396 -288.6792"/><path stroke="#000" stroke-width="2" d="M 594.3396 -288.6792 L 594.3396 -322.6415"/><path stroke="#000" stroke-width="2" d="M 594.3396 -322.6415 L 560.3774 -322.6415"/><path stroke="#000" stroke-width="2" d="M 560.3774 -322.6415 L 560.3774 -356.6038"/><path stroke="#000" stroke-width="2" d="M 560.3774 -356.6038 L 526.4151 -356.6038"/><path stroke="#000" stroke-width="2" d="M 526.4151 -356.6038 L 526.4151 -390.566"/><path stroke="#000" stroke-width="2" d="M 526.4151 -390.566 L 492.4528 -390.566"/><path stroke="#000" stroke-width="2" d="M 492.4528 -390.566 L 492.4528 -356.6038"/><path stroke="#000" stroke-width="2" d="M 492.4528 -356.6038 L 458.4906 -356.6038"/><path stroke="#000" stroke-width="2" d="M 458.4906 -356.6038 L 458.4906 -390.566"/><path stroke="#000" stroke-width="2" d="M 458.4906 -390.566 L 492.4528 -390.566"/><path stroke="#000" stroke-width="2" d="M 492.4528 -390.566 L 492.4528 -424.5283"/><path stroke="#000" stroke-width="2" d="M 492.4528 -424.5283 L 458.4906 -424.5283"/><path stroke="#000" stroke-width="2" d="M 458.4906 -424.5283 L 458.4906 -458.4906"/><path stroke="#000" stroke-width="2" d="M 458.4906 -458.4906 L 424.5283 -458.4906"/><path stroke="#000" stroke-width="2" d="M 424.5283 -458.4906 L 424.5283 -492.4528"/><path stroke="#000" stroke-width="2" d="M 424.5283 -492.4528 L 390.566 -492.4528"/><path stroke="#000" stroke-width="2" d="M 390.566 -492.4528 L 390.566 -458.4906"/><path stroke="#000" stroke-width="2" d="M 390.566 -458.4906 L 356.6038 -458.4906"/><path stroke="#000" stroke-width="2" d="M 356.6038 -458.4906 L 356.6038 -492.4528"/><path stroke="#000" stroke-width="2" d="M 356.6038 -492.4528 L 390.566 -492.4528"/><path stroke="#000" stroke-width="2" d="M 390.566 -492.4528 L 390.566 -526.4151"/><path stroke="#000" stroke-width="2" d="M 390.566 -526.4151 L 356.6038 -526.4151"/><path stroke="#000" stroke-width="2" d="M 356.6038 -526.4151 L 356.6038 -560.3774"/><path stroke="#000" stroke-width="2" d="M 356.6038 -560.3774 L 322.6415 -560.3774"/><path stroke="#000" stroke-width="2" d="M 322.6415 -560.3774 L 322.6415 -594.3396"/><path stroke="#000" stroke-width="2" d="M 322.6415 -594.3396 L 288.6792 -594.3396"/><path stroke="#000" stroke-width="2" d="M 288.6792 -594.3396 L 288.6792 -560.3774"/><path stroke="#000" stroke-width="2" d="M 288.6792 -560.3774 L 254.717 -560.3774"/><path stroke="#000" stroke-width="2" d="M 254.717 -560.3774 L 254.717 -526.4151"/><path stroke="#000" stroke-width="2" d="M 254.717 -526.4151 L 220.7547 -526.4151"/><path stroke="#000" stroke-width="2" d="M 220.7547 -526.4151 L 220.7547 -492.4528"/><path stroke="#000" stroke-width="2" d="M 220.7547 -492.4528 L 254.717 -492.4528"/><path stroke="#000" stroke-width="2" d="M 254.717 -492.4528 L 254.717 -458.4906"/><path stroke="#000" stroke-width="2" d="M 254.717 -458.4906 L 220.7547 -458.4906"/><path stroke="#000" stroke-width="2" d="M 220.7547 -458.4906 L 220.7547 -492.4528"/><path stroke="#000" stroke-width="2" d="M 220.7547 -492.4528 L 186.7925 -492.4528"/><path stroke="#000" stroke-width="2" d="M 186.7925 -492.4528 L 186.7925 -458.4906"/><path stroke="#000" stroke-width="2" d="M 186.7925 -458.4906 L 152.8302 -458.4906"/><path stroke="#000" stroke-width="2" d="M 152.8302 -458.4906 L 152.8302 -492.4528"/><path stroke="#000" stroke-width="2" d="M 152.8302 -492.4528 L 186.7925 -492.4528"/><path stroke="#000" stroke-width="2" d="M 186.7925 -492.4528 L 186.7925 -526.4151"/><path stroke="#000" stroke-width="2" d="M 186.7925 -526.4151 L 152.8302 -526.4151"/><path stroke="#000" stroke-width="2" d="M 152.8302 -526.4151 L 152.8302 -560.3774"/><path stroke="#000" stroke-width="2" d="M 152.8302 -560.3774 L 186.7925 -560.3774"/><path stroke="#000" stroke-width="2" d="M 186.7925 -560.3774 L 186.7925 -526.4151"/><path stroke="#000" stroke-width="2" d="M 186.7925 -526.4151 L 220.7547 -526.4151"/><path stroke="#000" stroke-width="2" d="M 220.7547 -526.4151 L 220.7547 -560.3774"/><path stroke="#000" stroke-width="2" d="M 220.7547 -560.3774 L 254.717 -560.3774"/><path stroke="#000" stroke-width="2" d="M 254.717 -560.3774 L 254.717 -594.3396"/><path stroke="#000" stroke-width="2" d="M 254.717 -594.3396 L 288.6792 -594.3396"/><path stroke="#000" stroke-width="2" d="M 288.6792 -594.3396 L 288.6792 -628.3019"/><path stroke="#000" stroke-width="2" d="M 288.6792 -628.3019 L 254.717 -628.3019"/><path stroke="#000" stroke-width="2" d="M 254.717 -628.3019 L 254.717 -662.2642"/><path stroke="#000" stroke-width="2" d="M 254.717 -662.2642 L 220.7547 -662.2642"/><path stroke="#000" stroke-width="2" d="M 220.7547 -662.2642 L 220.7547 -696.2264"/><path stroke="#000" stroke-width="2" d="M 220.7547 -696.2264 L 186.7925 -696.2264"/><path stroke="#000" stroke-width="2" d="M 186.7925 -696.2264 L 186.7925 -662.2642"/><path stroke="#000" stroke-width="2" d="M 186.7925 -662.2642 L 152.8302 -662.2642"/><path stroke="#000" stroke-width="2" d="M 152.8302 -662.2642 L 152.8302 -696.2264"/><path stroke="#000" stroke-width="2" d="M 152.8302 -696.2264 L 186.7925 -696.2264"/><path stroke="#000" stroke-width="2" d="M 186.7925 -696.2264 L 186.7925 -730.1887"/><path stroke="#000" stroke-width="2" d="M 186.7925 -730.1887 L 152.8302 -730.1887"/><path stroke="#000" stroke-width="2" d="M 152.8302 -730.1887 L 152.8302 -764.1509"/><path stroke="#000" stroke-width="2" d="M 152.8302 -764.1509 L 118.8679 -764.1509"/><path stroke="#000" stroke-width="2" d="M 118.8679 -764.1509 L 118.8679 -798.1132"/><path stroke="#000" stroke-width="2" d="M 118.8679 -798.1132 L 84.9057 -798.1132"/><path stroke="#000" stroke-width="2" d="M 84.9057 -798.1132 L 84.9057 -764.1509"/><path stroke="#000" stroke-width="2" d="M 84.9057 -764.1509 L 50.9434 -764.1509"/><path stroke="#000" stroke-width="2" d="M 50.9434 -764.1509 L 50.9434 -798.1132"/><path stroke="#000" stroke-width="2" d="M 50.9434 -798.1132 L 84.9057 -798.1132"/><path stroke="#000" stroke-width="2" d="M 84.9057 -798.1132 L 84.9057 -832.0755"/><path stroke="#000" stroke-width="2" d="M 84.9057 -832.0755 L 50.9434 -832.0755"/><path stroke="#000" stroke-width="2" d="M 50.9434 -832.0755 L 50.9434 -866.0377"/><path stroke="#000" stroke-width="2" d="M 50.9434 -866.0377 L 16.9811 -866.0377"/><path stroke="#000" stroke-width="2" d="M 16.9811 -866.0377 L 16.9811 -900"/><path stroke="#000" stroke-width="2" d="M 16.9811 -900 L -16.9811 -900"/><path stroke="#000" stroke-width="2" d="M -16.9811 -900 L -16.9811 -866.0377"/><path stroke="#000" stroke-width="2" d="M -16.9811 -866.0377 L -50.9434 -866.0377"/><path stroke="#000" stroke-width="2" d="M -50.9434 -866.0377 L -50.9434 -832.0755"/><path stroke="#000" stroke-width="2" d="M -50.9434 -832.0755 L -84.9057 -832.0755"/><path stroke="#000" stroke-width="2" d="M -84.9057 -832.0755 L -84.9057 -798.1132"/><path stroke="#000" stroke-width="2" d="M -84.9057 -798.1132 L -50.9434 -798.1132"/><path stroke="#000" stroke-width="2" d="M -50.9434 -798.1132 L -50.9434 -764.1509"/><path stroke="#000" stroke-width="2" d="M -50.9434 -764.1509 L -84.9057 -764.1509"/><path stroke="#000" stroke-width="2" d="M -84.9057 -764.1509 L -84.9057 -798.1132"/><path stroke="#000" stroke-width="2" d="M -84.9057 -798.1132 L -118.8679 -798.1132"/><path stroke="#000" stroke-width="2" d="M -118.8679 -798.1132 L -118.8679 -764.1509"/><path stroke="#000" stroke-width="2" d="M -118.8679 -764.1509 L -152.8302 -764.1509"/><path stroke="#000" stroke-width="2" d="M -152.8302 -764.1509 L -152.8302 -730.1887"/><path stroke="#000" stroke-width="2" d="M -152.8302 -730.1887 L -186.7925 -730.1887"/><path stroke="#000" stroke-width="2" d="M -186.7925 -730.1887 L -186.7925 -696.2264"/><path stroke="#000" stroke-width="2" d="M -186.7925 -696.2264 L -152.8302 -696.2264"/><path stroke="#000" stroke-width="2" d="M -152.8302 -696.2264 L -152.8302 -662.2642"/><path stroke="#000" stroke-width="2" d="M -152.8302 -662.2642 L -186.7925 -662.2642"/><path stroke="#000" stroke-width="2" d="M -186.7925 -662.2642 L -186.7925 -696.2264"/><path stroke="#000" stroke-width="2" d="M -186.7925 -696.2264 L -220.7547 -696.2264"/><path stroke="#000" stroke-width="2" d="M -220.7547 -696.2264 L -220.7547 -662.2642"/><path stroke="#000" stroke-width="2" d="M -220.7547 -662.2642 L -254.717 -662.2642"/><path stroke="#000" stroke-width="2" d="M -254.717 -662.2642 L -254.717 -628.3019"/><path stroke="#000" stroke-width="2" d="M -254.717 -628.3019 L -288.6792 -628.3019"/><path stroke="#000" stroke-width="2" d="M -288.6792 -628.3019 L -288.6792 -594.3396"/><path stroke="#000" stroke-width="2" d="M -288.6792 -594.3396 L -254.717 -594.3396"/><path stroke="#000" stroke-width="2" d="M -254.717 -594.3396 L -254.717 -560.3774"/><path stroke="#000" stroke-width="2" d="M -254.717 -560.3774 L -220.7547 -560.3774"/><path stroke="#000" stroke-width="2" d="M -220.7547 -560.3774 L -220.7547 -526.4151"/><path stroke="#000" stroke-width="2" d="M -220.7547 -526.4151 L -186.7925 -526.4151"/><path stroke="#000" stroke-width="2" d="M -186.7925 -526.4151 L -186.7925 -560.3774"/><path stroke="#000" stroke-width="2" d="M -186.7925 -560.3774 L -152.8302 -560.3774"/><path stroke="#000" stroke-width="2" d="M -152.8302 -560.3774 L -152.8302 -526.4151"/><path stroke="#000" stroke-width="2" d="M -152.8302 -526.4151 L -186.7925 -526.4151"/><path stroke="#000" stroke-width="2" d="M -186.7925 -526.4151 L -186.7925 -492.4528"/><path stroke="#000" stroke-width="2" d="M -186.7925 -492.4528 L -152.8302 -492.4528"/><path stroke="#000" stroke-width="2" d="M -152.8302 -492.4528 L -152.8302 -458.4906"/><path stroke="#000" stroke-width="2" d="M -152.8302 -458.4906 L -186.7925 -458.4906"/><path stroke="#000" stroke-width="2" d="M -186.7925 -458.4906 L -186.7925 -492.4528"/><path stroke="#000" stroke-width="2" d="M -186.7925 -492.4528 L -220.7547 -492.4528"/><path stroke="#000" stroke-width="2" d="M -220.7547 -492.4528 L -220.7547 -458.4906"/><path stroke="#000" stroke-width="2" d="M -220.7547 -458.4906 L -254.717 -458.4906"/><path stroke="#000" stroke-width="2" d="M -254.717 -458.4906 L -254.717 -492.4528"/><path stroke="#000" stroke-width="2" d="M -254.717 -492.4528 L -220.7547 -492.4528"/><path stroke="#000" stroke-width="2" d="M -220.7547 -492.4528 L -220.7547 -526.4151"/><path stroke="#000" stroke-width="2" d="M -220.7547 -526.4151 L -254.717 -526.4151"/><path stroke="#000" stroke-width="2" d="M -254.717 -526.4151 L -254.717 -560.3774"/><path stroke="#000" stroke-width="2" d="M -254.717 -560.3774 L -288.6792 -560.3774"/><path stroke="#000" stroke-width="2" d="M -288.6792 -560.3774 L -288.6792 -594.3396"/><path stroke="#000" stroke-width="2" d="M -288.6792 -594.3396 L -322.6415 -594.3396"/><path stroke="#000" stroke-width="2" d="M -322.6415 -594.3396 L -322.6415 -560.3774"/><path stroke="#000" stroke-width="2" d="M -322.6415 -560.3774 L -356.6038 -560.3774"/><path stroke="#000" stroke-width="2" d="M -356.6038 -560.3774 L -356.6038 -526.4151"/><path stroke="#000" stroke-width="2" d="M -356.6038 -526.4151 L -390.566 -526.4151"/><path stroke="#000" stroke-width="2" d="M -390.566 -526.4151 L -390.566 -492.4528"/><path stroke="#000" stroke-width="2" d="M -390.566 -492.4528 L -356.6038 -492.4528"/><path stroke="#000" stroke-width="2" d="M -356.6038 -492.4528 L -356.6038 -458.4906"/><path stroke="#000" stroke-width="2" d="M -356.6038 -458.4906 L -390.566 -458.4906"/><path stroke="#000" stroke-width="2" d="M -390.566 -458.4906 L -390.566 -492.4528"/><path stroke="#000" stroke-width="2" d="M -390.566 -492.4528 L -424.5283 -492.4528"/><path stroke="#000" stroke-width="2" d="M -424.5283 -492.4528 L -424.5283 -458.4906"/><path stroke="#000" stroke-width="2" d="M -424.5283 -458.4906 L -458.4906 -458.4906"/><path stroke="#000" stroke-width="2" d="M -458.4906 -458.4906 L -458.4906 -424.5283"/><path stroke="#000" stroke-width="2" d="M -458.4906 -424.5283 L -492.4528 -424.5283"/><path stroke="#000" stroke-width="2" d="M -492.4528 -424.5283 L -492.4528 -390.566"/><path stroke="#000" stroke-width="2" d="M -492.4528 -390.566 L -458.4906 -390.566"/><path stroke="#000" stroke-width="2" d="M -458.4906 -390.566 L -458.4906 -356.6038"/><path stroke="#000" stroke-width="2" d="M -458.4906 -356.6038 L -492.4528 -356.6038"/><path stroke="#000" stroke-width="2" d="M -492.4528 -356.6038 L -492.4528 -390.566"/><path stroke="#000" stroke-width="2" d="M -492.4528 -390.566 L -526.4151 -390.566"/><path stroke="#000" stroke-width="2" d="M -526.4151 -390.566 L -526.4151 -356.6038"/><path stroke="#000" stroke-width="2" d="M -526.4151 -356.6038 L -560.3774 -356.6038"/><path stroke="#000" stroke-width="2" d="M -560.3774 -356.6038 L -560.3774 -322.6415"/><path stroke="#000" stroke-width="2" d="M -560.3774 -322.6415 L -594.3396 -322.6415"/><path stroke="#000" stroke-width="2" d="M -594.3396 -322.6415 L -594.3396 -288.6792"/><path stroke="#000" stroke-width="2" d="M -594.3396 -288.6792 L -560.3774 -288.6792"/><path stroke="#000" stroke-width="2" d="M -560.3774 -288.6792 L -560.3774 -254.717"/><path stroke="#000" stroke-width="2" d="M -560.3774 -254.717 L -526.4151 -254.717"/><path stroke="#000" stroke-width="2" d="M -526.4151 -254.717 L -526.4151 -220.7547"/><path stroke="#000" stroke-width="2" d="M -526.4151 -220.7547 L -492.4528 -220.7547"/><path stroke="#000" stroke-width="2" d="M -492.4528 -220.7547 L -492.4528 -254.717"/><path stroke="#000" stroke-width="2" d="M -492.4528 -254.717 L -458.4906 -254.717"/><path stroke="#000" stroke-width="2" d="M -458.4906 -254.717 L -458.4906 -220.7547"/><path stroke="#000" stroke-width="2" d="M -458.4906 -220.7547 L -492.4528 -220.7547"/><path stroke="#000" stroke-width="2" d="M -492.4528 -220.7547 L -492.4528 -186.7925"/><path stroke="#000" stroke-width="2" d="M -492.4528 -186.7925 L -458.4906 -186.7925"/><path stroke="#000" stroke-width="2" d="M -458.4906 -186.7925 L -458.4906 -152.8302"/><path stroke="#000" stroke-width="2" d="M -458.4906 -152.8302 L -492.4528 -152.8302"/><path stroke="#000" stroke-width="2" d="M -492.4528 -152.8302 L -492.4528 -186.7925"/><path stroke="#000" stroke-width="2" d="M -492.4528 -186.7925 L -526.4151 -186.7925"/><path stroke="#000" stroke-width="2" d="M -526.4151 -186.7925 L -526.4151 -152.8302"/><path stroke="#000" stroke-width="2" d="M -526.4151 -152.8302 L -560.3774 -152.8302"/><path stroke="#000" stroke-width="2" d="M -560.3774 -152.8302 L -560.3774 -186.7925"/><path stroke="#000" stroke-width="2" d="M -560.3774 -186.7925 L -526.4151 -186.7925"/><path stroke="#000" stroke-width="2" d="M -526.4151 -186.7925 L -526.4151 -220.7547"/><path stroke="#000" stroke-width="2" d="M -526.4151 -220.7547 L -560.3774 -220.7547"/><path stroke="#000" stroke-width="2" d="M -560.3774 -220.7547 L -560.3774 -254.717"/><path stroke="#000" stroke-width="2" d="M -560.3774 -254.717 L -594.3396 -254.717"/><path stroke="#000" stroke-width="2" d="M -594.3396 -254.717 L -594.3396 -288.6792"/><path stroke="#000" stroke-width="2" d="M -594.3396 -288.6792 L -628.3019 -288.6792"/><path stroke="#000" stroke-width="2" d="M -628.3019 -288.6792 L -628.3019 -254.717"/><path stroke="#000" stroke-width="2" d="M -628.3019 -254.717 L -662.2642 -254.717"/><path stroke="#000" stroke-width="2" d="M -662.2642 -254.717 L -662.2642 -220.7547"/><path stroke="#000" stroke-width="2" d="M -662.2642 -220.7547 L -696.2264 -220.7547"/><path stroke="#000" stroke-width="2" d="M -696.2264 -220.7547 L -696.2264 -186.7925"/><path stroke="#000" stroke-width="2" d="M -696.2264 -186.7925 L -662.2642 -186.7925"/><path stroke="#000" stroke-width="2" d="M -662.2642 -186.7925 L -662.2642 -152.8302"/><path stroke="#000" stroke-width="2" d="M -662.2642 -152.8302 L -696.2264 -152.8302"/><path stroke="#000" stroke-width="2" d="M -696.2264 -152.8302 L -696.2264 -186.7925"/><path stroke="#000" stroke-width="2" d="M -696.2264 -186.7925 L -730.1887 -186.7925"/><path stroke="#000" stroke-width="2" d="M -730.1887 -186.7925 L -730.1887 -152.8302"/><path stroke="#000" stroke-width="2" d="M -730.1887 -152.8302 L -764.1509 -152.8302"/><path stroke="#000" stroke-width="2" d="M -764.1509 -152.8302 L -764.1509 -118.8679"/><path stroke="#000" stroke-width="2" d="M -764.1509 -118.8679 L -798.1132 -118.8679"/><path stroke="#000" stroke-width="2" d="M -798.1132 -118.8679 L -798.1132 -84.9057"/><path stroke="#000" stroke-width="2" d="M -798.1132 -84.9057 L -764.1509 -84.9057"/><path stroke="#000" stroke-width="2" d="M -764.1509 -84.9057 L -764.1509 -50.9434"/><path stroke="#000" stroke-width="2" d="M -764.1509 -50.9434 L -798.1132 -50.9434"/><path stroke="#000" stroke-width="2" d="M -798.1132 -50.9434 L -798.1132 -84.9057"/><path stroke="#000" stroke-width="2" d="M -798.1132 -84.9057 L -832.0755 -84.9057"/><path stroke="#000" stroke-width="2" d="M -832.0755 -84.9057 L -832.0755 -50.9434"/><path stroke="#000" stroke-width="2" d="M -832.0755 -50.9434 L -866.0377 -50.9434"/><path stroke="#000" stroke-width="2" d="M -866.0377 -50.9434 L -866.0377 -16.9811"/><path stroke="#000" stroke-width="2" d="M -866.0377 -16.9811 L -900 -16.9811"/><path stroke="#000" stroke-width="2" d="M -900 -16.9811 L -900 16.9811"/><path stroke="#000" stroke-width="2" d="M -900 16.9811 L -866.0377 16.9811"/><path stroke="#000" stroke-width="2" d="M -866.0377 16.9811 L -866.0377 50.9434"/><path stroke="#000" stroke-width="2" d="M -866.0377 50.9434 L -832.0755 50.9434"/><path stroke="#000" stroke-width="2" d="M -832.0755 50.9434 L -832.0755 84.9057"/><path stroke="#000" stroke-width="2" d="M -832.0755 84.9057 L -798.1132 84.9057"/><path stroke="#000" stroke-width="2" d="M -798.1132 84.9057 L -798.1132 50.9434"/><path stroke="#000" stroke-width="2" d="M -798.1132 50.9434 L -764.1509 50.9434"/><path stroke="#000" stroke-width="2" d="M -764.1509 50.9434 L -764.1509 84.9057"/><path stroke="#000" stroke-width="2" d="M -764.1509 84.9057 L -798.1132 84.9057"/><path stroke="#000" stroke-width="2" d="M -798.1132 84.9057 L -798.1132 118.8679"/><path stroke="#000" stroke-width="2" d="M -798.1132 118.8679 L -764.1509 118.8679"/><path stroke="#000" stroke-width="2" d="M -764.1509 118.8679 L -764.1509 152.8302"/><path stroke="#000" stroke-width="2" d="M -764.1509 152.8302 L -730.1887 152.8302"/><path stroke="#000" stroke-width="2" d="M -730.1887 152.8302 L -730.1887 186.7925"/><path stroke="#000" stroke-width="2" d="M -730.1887 186.7925 L -696.2264 186.7925"/><path stroke="#000" stroke-width="2" d="M -696.2264 186.7925 L -696.2264 152.8302"/><path stroke="#000" stroke-width="2" d="M -696.2264 152.8302 L -662.2642 152.8302"/><path stroke="#000" stroke-width="2" d="M -662.2642 152.8302 L -662.2642 186.7925"/><path stroke="#000" stroke-width="2" d="M -662.2642 186.7925 L -696.2264 186.7925"/><path stroke="#000" stroke-width="2" d="M -696.2264 186.7925 L -696.2264 220.7547"/><path stroke="#000" stroke-width="2" d="M -696.2264 220.7547 L -662.2642 220.7547"/><path stroke="#000" stroke-width="2" d="M -662.2642 220.7547 L -662.2642 254.717"/><path stroke="#000" stroke-width="2" d="M -662.2642 254.717 L -628.3019 254.717"/><path stroke="#000" stroke-width="2" d="M -628.3019 254.717 L -628.3019 288.6792"/><path stroke="#000" stroke-width="2" d="M -628.3019 288.6792 L -594.3396 288.6792"/><path stroke="#000" stroke-width="2" d="M -594.3396 288.6792 L -594.3396 254.717"/><path stroke="#000" stroke-width="2" d="M -594.3396 254.717 L -560.3774 254.717"/><path stroke="#000" stroke-width="2" d="M -560.3774 254.717 L -560.3774 220.7547"/><path stroke="#000" stroke-width="2" d="M -560.3774 220.7547 L -526.4151 220.7547"/><path stroke="#000" stroke-width="2" d="M -526.4151 220.7547 L -526.4151 186.7925"/><path stroke="#000" stroke-width="2" d="M -526.4151 186.7925 L -560.3774 186.7925"/><path stroke="#000" stroke-width="2" d="M -560.3774 186.7925 L -560.3774 152.8302"/><path stroke="#000" stroke-width="2" d="M -560.3774 152.8302 L -526.4151 152.8302"/><path stroke="#000" stroke-width="2" d="M -526.4151 152.8302 L -526.4151 186.7925"/><path stroke="#000" stroke-width="2" d="M -526.4151 186.7925 L -492.4528 186.7925"/><path stroke="#000" stroke-width="2" d="M -492.4528 186.7925 L -492.4528 152.8302"/><path stroke="#000" stroke-width="2" d="M -492.4528 152.8302 L -458.4906 152.8302"/><path stroke="#000" stroke-width="2" d="M -458.4906 152.8302 L -458.4906 186.7925"/><path stroke="#000" stroke-width="2" d="M -458.4906 186.7925 L -492.4528 186.7925"/><path stroke="#000" stroke-width="2" d="M -492.4528 186.7925 L -492.4528 220.7547"/><path stroke="#000" stroke-width="2" d="M -492.4528 220.7547 L -458.4906 220.7547"/><path stroke="#000" stroke-width="2" d="M -458.4906 220.7547 L -458.4906 254.717"/><path stroke="#000" stroke-width="2" d="M -458.4906 254.717 L -492.4528 254.717"/><path stroke="#000" stroke-width="2" d="M -492.4528 254.717 L -492.4528 220.7547"/><path stroke="#000" stroke-width="2" d="M -492.4528 220.7547 L -526.4151 220.7547"/><path stroke="#000" stroke-width="2" d="M -526.4151 220.7547 L -526.4151 254.717"/><path stroke="#000" stroke-width="2" d="M -526.4151 254.717 L -560.3774 254.717"/><path stroke="#000" stroke-width="2" d="M -560.3774 254.717 L -560.3774 288.6792"/><path stroke="#000" stroke-width="2" d="M -560.3774 288.6792 L -594.3396 288.6792"/><path stroke="#000" stroke-width="2" d="M -594.3396 288.6792 L -594.3396 322.6415"/><path stroke="#000" stroke-width="2" d="M -594.3396 322.6415 L -560.3774 322.6415"/><path stroke="#000" stroke-width="2" d="M -560.3774 322.6415 L -560.3774 356.6038"/><path stroke="#000" stroke-width="2" d="M -560.3774 356.6038 L -526.4151 356.6038"/><path stroke="#000" stroke-width="2" d="M -526.4151 356.6038 L -526.4151 390.566"/><path stroke="#000" stroke-width="2" d="M -526.4151 390.566 L -492.4528 390.566"/><path stroke="#000" stroke-width="2" d="M -492.4528 390.566 L -492.4528 356.6038"/><path stroke="#000" stroke-width="2" d="M -492.4528 356.6038 L -458.4906 356.6038"/><path stroke="#000" stroke-width="2" d="M -458.4906 356.6038 L -458.4906 390.566"/><path stroke="#000" stroke-width="2" d="M -458.4906 390.566 L -492.4528 390.566"/><path stroke="#000" stroke-width="2" d="M -492.4528 390.566 L -492.4528 424.5283"/><path stroke="#000" stroke-width="2" d="M -492.4528 424.5283 L -458.4906 424.5283"/><path stroke="#000" stroke-width="2" d="M -458.4906 424.5283 L -458.4906 458.4906"/></g></svg>