<svg xmlns="http://www.w3.org/2000/svg" viewBox="-1000 -1000 2000 2000" width="100%" height="100%" xml:space="preserve" xmlns:xlink="http://wwww3.org/1999/xlink" stroke-linecap="round" stroke-linejoin="round"><g><path stroke="#000000" stroke-width="2px" d="M -876.3158 -41.0211 L -828.9474 -41.0211"></path><path stroke="#000000" stroke-width="2px" d="M -828.9474 -41.0211 L -805.2632 -82.0421"></path><path stroke="#000000" stroke-width="2px" d="M -805.2632 -82.0421 L -757.8947 -82.0421"></path><path stroke="#000000" stroke-width="2px" d="M -757.8947 -82.0421 L -734.2105 -123.0632"></path><path stroke="#000000" stroke-width="2px" d="M -734.2105 -123.0632 L -757.8947 -164.0842"></path><path stroke="#000000" stroke-width="2px" d="M -757.8947 -164.0842 L -734.2105 -205.1053"></path><path stroke="#000000" stroke-width="2px" d="M -734.2105 -205.1053 L -686.8421 -205.1053"></path><path stroke="#000000" stroke-width="2px" d="M -686.8421 -205.1053 L -663.1579 -246.1263"></path><path stroke="#000000" stroke-width="2px" d="M -663.1579 -246.1263 L -615.7895 -246.1263"></path><path stroke="#000000" stroke-width="2px" d="M -615.7895 -246.1263 L -592.1053 -287.1474"></path><path stroke="#000000" stroke-width="2px" d="M -592.1053 -287.1474 L -615.7895 -328.1684"></path><path stroke="#000000" stroke-width="2px" d="M -615.7895 -328.1684 L -592.1053 -369.1895"></path><path stroke="#000000" stroke-width="2px" d="M -592.1053 -369.1895 L -615.7895 -410.2105"></path><path stroke="#000000" stroke-width="2px" d="M -615.7895 -410.2105 L -663.1579 -410.2105"></path><path stroke="#000000" stroke-width="2px" d="M -663.1579 -410.2105 L -686.8421 -451.2316"></path><path stroke="#000000" stroke-width="2px" d="M -686.8421 -451.2316 L -663.1579 -492.2526"></path><path stroke="#000000" stroke-width="2px" d="M -663.1579 -492.2526 L -686.8421 -533.2737"></path><path stroke="#000000" stroke-width="2px" d="M -686.8421 -533.2737 L -663.1579 -574.2947"></path><path stroke="#000000" stroke-width="2px" d="M -663.1579 -574.2947 L -615.7895 -574.2947"></path><path stroke="#000000" stroke-width="2px" d="M -615.7895 -574.2947 L -592.1053 -615.3158"></path><path stroke="#000000" stroke-width="2px" d="M -592.1053 -615.3158 L -544.7368 -615.3158"></path><path stroke="#000000" stroke-width="2px" d="M -544.7368 -615.3158 L -521.0526 -656.3368"></path><path stroke="#000000" stroke-width="2px" d="M -521.0526 -656.3368 L -544.7368 -697.3579"></path><path stroke="#000000" stroke-width="2px" d="M -544.7368 -697.3579 L -521.0526 -738.3789"></path><path stroke="#000000" stroke-width="2px" d="M -521.0526 -738.3789 L -473.6842 -738.3789"></path><path stroke="#000000" stroke-width="2px" d="M -473.6842 -738.3789 L -450 -779.4"></path><path stroke="#000000" stroke-width="2px" d="M -450 -779.4 L -402.6316 -779.4"></path><path stroke="#000000" stroke-width="2px" d="M -402.6316 -779.4 L -378.9474 -738.3789"></path><path stroke="#000000" stroke-width="2px" d="M -378.9474 -738.3789 L -331.5789 -738.3789"></path><path stroke="#000000" stroke-width="2px" d="M -331.5789 -738.3789 L -307.8947 -697.3579"></path><path stroke="#000000" stroke-width="2px" d="M -307.8947 -697.3579 L -260.5263 -697.3579"></path><path stroke="#000000" stroke-width="2px" d="M -260.5263 -697.3579 L -236.8421 -738.3789"></path><path stroke="#000000" stroke-width="2px" d="M -236.8421 -738.3789 L -189.4737 -738.3789"></path><path stroke="#000000" stroke-width="2px" d="M -189.4737 -738.3789 L -165.7895 -697.3579"></path><path stroke="#000000" stroke-width="2px" d="M -165.7895 -697.3579 L -118.4211 -697.3579"></path><path stroke="#000000" stroke-width="2px" d="M -118.4211 -697.3579 L -94.7368 -656.3368"></path><path stroke="#000000" stroke-width="2px" d="M -94.7368 -656.3368 L -47.3684 -656.3368"></path><path stroke="#000000" stroke-width="2px" d="M -47.3684 -656.3368 L -23.6842 -697.3579"></path><path stroke="#000000" stroke-width="2px" d="M -23.6842 -697.3579 L 23.6842 -697.3579"></path><path stroke="#000000" stroke-width="2px" d="M 23.6842 -697.3579 L 47.3684 -738.3789"></path><path stroke="#000000" stroke-width="2px" d="M 47.3684 -738.3789 L 23.6842 -779.4"></path><path stroke="#000000" stroke-width="2px" d="M 23.6842 -779.4 L 47.3684 -820.4211"></path><path stroke="#000000" stroke-width="2px" d="M 47.3684 -820.4211 L 94.7368 -820.4211"></path><path stroke="#000000" stroke-width="2px" d="M 94.7368 -820.4211 L 118.4211 -861.4421"></path><path stroke="#000000" stroke-width="2px" d="M 118.4211 -861.4421 L 165.7895 -861.4421"></path><path stroke="#000000" stroke-width="2px" d="M 165.7895 -861.4421 L 189.4737 -820.4211"></path><path stroke="#000000" stroke-width="2px" d="M 189.4737 -820.4211 L 236.8421 -820.4211"></path><path stroke="#000000" stroke-width="2px" d="M 236.8421 -820.4211 L 260.5263 -779.4"></path><path stroke="#000000" stroke-width="2px" d="M 260.5263 -779.4 L 307.8947 -779.4"></path><path stroke="#000000" stroke-width="2px" d="M 307.8947 -779.4 L 331.5789 -820.4211"></path><path stroke="#000000" stroke-width="2px" d="M 331.5789 -820.4211 L 378.9474 -820.4211"></path><path stroke="#000000" stroke-width="2px" d="M 378.9474 -820.4211 L 402.6316 -779.4"></path><path stroke="#000000" stroke-width="2px" d="M 402.6316 -779.4 L 450 -779.4"></path><path stroke="#000000" stroke-width="2px" d="M 450 -779.4 L 473.6842 -738.3789"></path><path stroke="#000000" stroke-width="2px" d="M 473.6842 -738.3789 L 450 -697.3579"></path><path stroke="#000000" stroke-width="2px" d="M 450 -697.3579 L 473.6842 -656.3368"></path><path stroke="#000000" stroke-width="2px" d="M 473.6842 -656.3368 L 450 -615.3158"></path><path stroke="#000000" stroke-width="2px" d="M 450 -615.3158 L 473.6842 -574.2947"></path><path stroke="#000000" stroke-width="2px" d="M 473.6842 -574.2947 L 521.0526 -574.2947"></path><path stroke="#000000" stroke-width="2px" d="M 521.0526 -574.2947 L 544.7368 -533.2737"></path><path stroke="#000000" stroke-width="2px" d="M 544.7368 -533.2737 L 521.0526 -492.2526"></path><path stroke="#000000" stroke-width="2px" d="M 521.0526 -492.2526 L 544.7368 -451.2316"></path><path stroke="#000000" stroke-width="2px" d="M 544.7368 -451.2316 L 521.0526 -410.2105"></path><path stroke="#000000" stroke-width="2px" d="M 521.0526 -410.2105 L 544.7368 -369.1895"></path><path stroke="#000000" stroke-width="2px" d="M 544.7368 -369.1895 L 592.1053 -369.1895"></path><path stroke="#000000" stroke-width="2px" d="M 592.1053 -369.1895 L 615.7895 -328.1684"></path><path stroke="#000000" stroke-width="2px" d="M 615.7895 -328.1684 L 663.1579 -328.1684"></path><path stroke="#000000" stroke-width="2px" d="M 663.1579 -328.1684 L 686.8421 -369.1895"></path><path stroke="#000000" stroke-width="2px" d="M 686.8421 -369.1895 L 734.2105 -369.1895"></path><path stroke="#000000" stroke-width="2px" d="M 734.2105 -369.1895 L 757.8947 -328.1684"></path><path stroke="#000000" stroke-width="2px" d="M 757.8947 -328.1684 L 805.2632 -328.1684"></path><path stroke="#000000" stroke-width="2px" d="M 805.2632 -328.1684 L 828.9474 -287.1474"></path><path stroke="#000000" stroke-width="2px" d="M 828.9474 -287.1474 L 805.2632 -246.1263"></path><path stroke="#000000" stroke-width="2px" d="M 805.2632 -246.1263 L 828.9474 -205.1053"></path><path stroke="#000000" stroke-width="2px" d="M 828.9474 -205.1053 L 805.2632 -164.0842"></path><path stroke="#000000" stroke-width="2px" d="M 805.2632 -164.0842 L 828.9474 -123.0632"></path><path stroke="#000000" stroke-width="2px" d="M 828.9474 -123.0632 L 876.3158 -123.0632"></path><path stroke="#000000" stroke-width="2px" d="M 876.3158 -123.0632 L 900 -82.0421"></path><path stroke="#000000" stroke-width="2px" d="M 900 -82.0421 L 876.3158 -41.0211"></path><path stroke="#000000" stroke-width="2px" d="M 876.3158 -41.0211 L 900 0"></path><path stroke="#000000" stroke-width="2px" d="M 900 0 L 876.3158 41.0211"></path><path stroke="#000000" stroke-width="2px" d="M 876.3158 41.0211 L 828.9474 41.0211"></path><path stroke="#000000" stroke-width="2px" d="M 828.9474 41.0211 L 805.2632 82.0421"></path><path stroke="#000000" stroke-width="2px" d="M 805.2632 82.0421 L 757.8947 82.0421"></path><path stroke="#000000" stroke-width="2px" d="M 757.8947 82.0421 L 734.2105 123.0632"></path><path stroke="#000000" stroke-width="2px" d="M 734.2105 123.0632 L 757.8947 164.0842"></path><path stroke="#000000" stroke-width="2px" d="M 757.8947 164.0842 L 734.2105 205.1053"></path><path stroke="#000000" stroke-width="2px" d="M 734.2105 205.1053 L 686.8421 205.1053"></path><path stroke="#000000" stroke-width="2px" d="M 686.8421 205.1053 L 663.1579 246.1263"></path><path stroke="#000000" stroke-width="2px" d="M 663.1579 246.1263 L 615.7895 246.1263"></path><path stroke="#000000" stroke-width="2px" d="M 615.7895 246.1263 L 592.1053 287.1474"></path><path stroke="#000000" stroke-width="2px" d="M 592.1053 287.1474 L 615.7895 328.1684"></path><path stroke="#000000" stroke-width="2px" d="M 615.7895 328.1684 L 592.1053 369.1895"></path><path stroke="#000000" stroke-width="2px" d="M 592.1053 369.1895 L 615.7895 410.2105"></path><path stroke="#000000" stroke-width="2px" d="M 615.7895 410.2105 L 663.1579 410.2105"></path><path stroke="#000000" stroke-width="2px" d="M 663.1579 410.2105 L 686.8421 451.2316"></path><path stroke="#000000" stroke-width="2px" d="M 686.8421 451.2316 L 663.1579 492.2526"></path><path stroke="#000000" stroke-width="2px" d="M 663.1579 492.2526 L 686.8421 533.2737"></path><path stroke="#000000" stroke-width="2px" d="M 686.8421 533.2737 L 663.1579 574.2947"></path><path stroke="#000000" stroke-width="2px" d="M 663.1579 574.2947 L 615.7895 574.2947"></path><path stroke="#000000" stroke-width="2px" d="M 615.7895 574.2947 L 592.1053 615.3158"></path><path stroke="#000000" stroke-width="2px" d="M 592.1053 615.3158 L 544.7368 615.3158"></path><path stroke="#000000" stroke-width="2px" d="M 544.7368 615.3158 L 521.0526 656.3368"></path><path stroke="#000000" stroke-width="2px" d="M 521.0526 656.3368 L 544.7368 697.3579"></path><path stroke="#000000" stroke-width="2px" d="M 544.7368 697.3579 L 521.0526 738.3789"></path><path stroke="#000000" stroke-width="2px" d="M 521.0526 738.3789 L 473.6842 738.3789"></path><path stroke="#000000" stroke-width="2px" d="M 473.6842 738.3789 L 450 779.4"></path><path stroke="#000000" stroke-width="2px" d="M 450 779.4 L 402.6316 779.4"></path><path stroke="#000000" stroke-width="2px" d="M 402.6316 779.4 L 378.9474 738.3789"></path><path stroke="#000000" stroke-width="2px" d="M 378.9474 738.3789 L 331.5789 738.3789"></path><path stroke="#000000" stroke-width="2px" d="M 331.5789 738.3789 L 307.8947 697.3579"></path><path stroke="#000000" stroke-width="2px" d="M 307.8947 697.3579 L 260.5263 697.3579"></path><path stroke="#000000" stroke-width="2px" d="M 260.5263 697.3579 L 236.8421 738.3789"></path><path stroke="#000000" stroke-width="2px" d="M 236.8421 738.3789 L 189.4737 738.3789"></path><path stroke="#000000" stroke-width="2px" d="M 189.4737 738.3789 L 165.7895 697.3579"></path><path stroke="#000000" stroke-width="2px" d="M 165.7895 697.3579 L 118.4211 697.3579"></path><path stroke="#000000" stroke-width="2px" d="M 118.4211 697.3579 L 94.7368 656.3368"></path><path stroke="#000000" stroke-width="2px" d="M 94.7368 656.3368 L 47.3684 656.3368"></path><path stroke="#000000" stroke-width="2px" d="M 47.3684 656.3368 L 23.6842 697.3579"></path><path stroke="#000000" stroke-width="2px" d="M 23.6842 697.3579 L -23.6842 697.3579"></path><path stroke="#000000" stroke-width="2px" d="M -23.6842 697.3579 L -47.3684 738.3789"></path><path stroke="#000000" stroke-width="2px" d="M -47.3684 738.3789 L -23.6842 779.4"></path><path stroke="#000000" stroke-width="2px" d="M -23.6842 779.4 L -47.3684 820.4211"></path><path stroke="#000000" stroke-width="2px" d="M -47.3684 820.4211 L -94.7368 820.4211"></path><path stroke="#000000" stroke-width="2px" d="M -94.7368 820.4211 L -118.4211 861.4421"></path><path stroke="#000000" stroke-width="2px" d="M -118.4211 861.4421 L -165.7895 861.4421"></path><path stroke="#000000" stroke-width="2px" d="M -165.7895 861.4421 L -189.4737 820.4211"></path><path stroke="#000000" stroke-width="2px" d="M -189.4737 820.4211 L -236.8421 820.4211"></path><path stroke="#000000" stroke-width="2px" d="M -236.8421 820.4211 L -260.5263 779.4"></path><path stroke="#000000" stroke-width="2px" d="M -260.5263 779.4 L -307.8947 779.4"></path><path stroke="#000000" stroke-width="2px" d="M -307.8947 779.4 L -331.5789 820.4211"></path><path stroke="#000000" stroke-width="2px" d="M -331.5789 820.4211 L -378.9474 820.4211"></path><path stroke="#000000" stroke-width="2px" d="M -378.9474 820.4211 L -402.6316 779.4"></path><path stroke="#000000" stroke-width="2px" d="M -402.6316 779.4 L -450 779.4"></path><path stroke="#000000" stroke-width="2px" d="M -450 779.4 L -473.6842 738.3789"></path><path stroke="#000000" stroke-width="2px" d="M -473.6842 738.3789 L -450 697.3579"></path><path stroke="#000000" stroke-width="2px" d="M -450 697.3579 L -473.6842 656.3368"></path><path stroke="#000000" stroke-width="2px" d="M -473.6842 656.3368 L -450 615.3158"></path><path stroke="#000000" stroke-width="2px" d="M -450 615.3158 L -473.6842 574.2947"></path><path stroke="#000000" stroke-width="2px" d="M -473.6842 574.2947 L -521.0526 574.2947"></path><path stroke="#000000" stroke-width="2px" d="M -521.0526 574.2947 L -544.7368 533.2737"></path><path stroke="#000000" stroke-width="2px" d="M -544.7368 533.2737 L -521.0526 492.2526"></path><path stroke="#000000" stroke-width="2px" d="M -521.0526 492.2526 L -544.7368 451.2316"></path><path stroke="#000000" stroke-width="2px" d="M -544.7368 451.2316 L -521.0526 410.2105"></path><path stroke="#000000" stroke-width="2px" d="M -521.0526 410.2105 L -544.7368 369.1895"></path><path stroke="#000000" stroke-width="2px" d="M -544.7368 369.1895 L -592.1053 369.1895"></path><path stroke="#000000" stroke-width="2px" d="M -592.1053 369.1895 L -615.7895 328.1684"></path><path stroke="#000000" stroke-width="2px" d="M -615.7895 328.1684 L -663.1579 328.1684"></path><path stroke="#000000" stroke-width="2px" d="M -663.1579 328.1684 L -686.8421 369.1895"></path><path stroke="#000000" stroke-width="2px" d="M -686.8421 369.1895 L -734.2105 369.1895"></path><path stroke="#000000" stroke-width="2px" d="M -734.2105 369.1895 L -757.8947 328.1684"></path><path stroke="#000000" stroke-width="2px" d="M -757.8947 328.1684 L -805.2632 328.1684"></path><path stroke="#000000" stroke-width="2px" d="M -805.2632 328.1684 L -828.9474 287.1474"></path><path stroke="#000000" stroke-width="2px" d="M -828.9474 287.1474 L -805.2632 246.1263"></path><path stroke="#000000" stroke-width="2px" d="M -805.2632 246.1263 L -828.9474 205.1053"></path><path stroke="#000000" stroke-width="2px" d="M -828.9474 205.1053 L -805.2632 164.0842"></path><path stroke="#000000" stroke-width="2px" d="M -805.2632 164.0842 L -828.9474 123.0632"></path><path stroke="#000000" stroke-width="2px" d="M -828.9474 123.0632 L -876.3158 123.0632"></path><path stroke="#000000" stroke-width="2px" d="M -876.3158 123.0632 L -900 82.0421"></path><path stroke="#000000" stroke-width="2px" d="M -900 82.0421 L -876.3158 41.0211"></path><path stroke="#000000" stroke-width="2px" d="M -876.3158 41.0211 L -900 0"></path><path stroke="#000000" stroke-width="2px" d="M -900 0 L -876.3158 -41.0211"></path></g></svg>
