<svg xmlns="http://www.w3.org/2000/svg" xmlns:xlink="http://wwww3.org/1999/xlink" width="100%" height="100%" stroke-linecap="round" stroke-linejoin="round" viewBox="-1000 -1000 2000 2000" xml:space="preserve"><g><path stroke="#000" stroke-width="2" d="M -900 900 L -900 841.9355"/><path stroke="#000" stroke-width="2" d="M -900 841.9355 L -841.9355 841.9355"/><path stroke="#000" stroke-width="2" d="M -841.9355 841.9355 L -841.9355 900"/><path stroke="#000" stroke-width="2" d="M -841.9355 900 L -783.871 900"/><path stroke="#000" stroke-width="2" d="M -783.871 900 L -725.8065 900"/><path stroke="#000" stroke-width="2" d="M -725.8065 900 L -725.8065 841.9355"/><path stroke="#000" stroke-width="2" d="M -725.8065 841.9355 L -783.871 841.9355"/><path stroke="#000" stroke-width="2" d="M -783.871 841.9355 L -783.871 783.871"/><path stroke="#000" stroke-width="2" d="M -783.871 783.871 L -725.8065 783.871"/><path stroke="#000" stroke-width="2" d="M -725.8065 783.871 L -725.8065 725.8065"/><path stroke="#000" stroke-width="2" d="M -725.8065 725.8065 L -783.871 725.8065"/><path stroke="#000" stroke-width="2" d="M -783.871 725.8065 L -841.9355 725.8065"/><path stroke="#000" stroke-width="2" d="M -841.9355 725.8065 L -841.9355 783.871"/><path stroke="#000" stroke-width="2" d="M -841.9355 783.871 L -900 783.871"/><path stroke="#000" stroke-width="2" d="M -900 783.871 L -900 725.8065"/><path stroke="#000" stroke-width="2" d="M -900 725.8065 L -900 667.7419"/><path stroke="#000" stroke-width="2" d="M -900 667.7419 L -841.9355 667.7419"/><path stroke="#000" stroke-width="2" d="M -841.9355 667.7419 L -841.9355 609.6774"/><path stroke="#000" stroke-width="2" d="M -841.9355 609.6774 L -900 609.6774"/><path stroke="#000" stroke-width="2" d="M -900 609.6774 L -900 551.6129"/><path stroke="#000" stroke-width="2" d="M -900 551.6129 L -900 493.5484"/><path stroke="#000" stroke-width="2" d="M -900 493.5484 L -841.9355 493.5484"/><path stroke="#000" stroke-width="2" d="M -841.9355 493.5484 L -841.9355 551.6129"/><path stroke="#000" stroke-width="2" d="M -841.9355 551.6129 L -783.871 551.6129"/><path stroke="#000" stroke-width="2" d="M -783.871 551.6129 L -783.871 493.5484"/><path stroke="#000" stroke-width="2" d="M -783.871 493.5484 L -725.8065 493.5484"/><path stroke="#000" stroke-width="2" d="M -725.8065 493.5484 L -725.8065 551.6129"/><path stroke="#000" stroke-width="2" d="M -725.8065 551.6129 L -725.8065 609.6774"/><path stroke="#000" stroke-width="2" d="M -725.8065 609.6774 L -783.871 609.6774"/><path stroke="#000" stroke-width="2" d="M -783.871 609.6774 L -783.871 667.7419"/><path stroke="#000" stroke-width="2" d="M -783.871 667.7419 L -725.8065 667.7419"/><path stroke="#000" stroke-width="2" d="M -725.8065 667.7419 L -667.7419 667.7419"/><path stroke="#000" stroke-width="2" d="M -667.7419 667.7419 L -609.6774 667.7419"/><path stroke="#000" stroke-width="2" d="M -609.6774 667.7419 L -609.6774 609.6774"/><path stroke="#000" stroke-width="2" d="M -609.6774 609.6774 L -667.7419 609.6774"/><path stroke="#000" stroke-width="2" d="M -667.7419 609.6774 L -667.7419 551.6129"/><path stroke="#000" stroke-width="2" d="M -667.7419 551.6129 L -667.7419 493.5484"/><path stroke="#000" stroke-width="2" d="M -667.7419 493.5484 L -609.6774 493.5484"/><path stroke="#000" stroke-width="2" d="M -609.6774 493.5484 L -609.6774 551.6129"/><path stroke="#000" stroke-width="2" d="M -609.6774 551.6129 L -551.6129 551.6129"/><path stroke="#000" stroke-width="2" d="M -551.6129 551.6129 L -551.6129 493.5484"/><path stroke="#000" stroke-width="2" d="M -551.6129 493.5484 L -493.5484 493.5484"/><path stroke="#000" stroke-width="2" d="M -493.5484 493.5484 L -493.5484 551.6129"/><path stroke="#000" stroke-width="2" d="M -493.5484 551.6129 L -493.5484 609.6774"/><path stroke="#000" stroke-width="2" d="M -493.5484 609.6774 L -551.6129 609.6774"/><path stroke="#000" stroke-width="2" d="M -551.6129 609.6774 L -551.6129 667.7419"/><path stroke="#000" stroke-width="2" d="M -551.6129 667.7419 L -493.5484 667.7419"/><path stroke="#000" stroke-width="2" d="M -493.5484 667.7419 L -493.5484 725.8065"/><path stroke="#000" stroke-width="2" d="M -493.5484 725.8065 L -493.5484 783.871"/><path stroke="#000" stroke-width="2" d="M -493.5484 783.871 L -551.6129 783.871"/><path stroke="#000" stroke-width="2" d="M -551.6129 783.871 L -551.6129 725.8065"/><path stroke="#000" stroke-width="2" d="M -551.6129 725.8065 L -609.6774 725.8065"/><path stroke="#000" stroke-width="2" d="M -609.6774 725.8065 L -667.7419 725.8065"/><path stroke="#000" stroke-width="2" d="M -667.7419 725.8065 L -667.7419 783.871"/><path stroke="#000" stroke-width="2" d="M -667.7419 783.871 L -609.6774 783.871"/><path stroke="#000" stroke-width="2" d="M -609.6774 783.871 L -609.6774 841.9355"/><path stroke="#000" stroke-width="2" d="M -609.6774 841.9355 L -667.7419 841.9355"/><path stroke="#000" stroke-width="2" d="M -667.7419 841.9355 L -667.7419 900"/><path stroke="#000" stroke-width="2" d="M -667.7419 900 L -609.6774 900"/><path stroke="#000" stroke-width="2" d="M -609.6774 900 L -551.6129 900"/><path stroke="#000" stroke-width="2" d="M -551.6129 900 L -551.6129 841.9355"/><path stroke="#000" stroke-width="2" d="M -551.6129 841.9355 L -493.5484 841.9355"/><path stroke="#000" stroke-width="2" d="M -493.5484 841.9355 L -493.5484 900"/><path stroke="#000" stroke-width="2" d="M -493.5484 900 L -435.4839 900"/><path stroke="#000" stroke-width="2" d="M -435.4839 900 L -377.4194 900"/><path stroke="#000" stroke-width="2" d="M -377.4194 900 L -377.4194 841.9355"/><path stroke="#000" stroke-width="2" d="M -377.4194 841.9355 L -435.4839 841.9355"/><path stroke="#000" stroke-width="2" d="M -435.4839 841.9355 L -435.4839 783.871"/><path stroke="#000" stroke-width="2" d="M -435.4839 783.871 L -435.4839 725.8065"/><path stroke="#000" stroke-width="2" d="M -435.4839 725.8065 L -377.4194 725.8065"/><path stroke="#000" stroke-width="2" d="M -377.4194 725.8065 L -377.4194 783.871"/><path stroke="#000" stroke-width="2" d="M -377.4194 783.871 L -319.3548 783.871"/><path stroke="#000" stroke-width="2" d="M -319.3548 783.871 L -319.3548 725.8065"/><path stroke="#000" stroke-width="2" d="M -319.3548 725.8065 L -261.2903 725.8065"/><path stroke="#000" stroke-width="2" d="M -261.2903 725.8065 L -261.2903 783.871"/><path stroke="#000" stroke-width="2" d="M -261.2903 783.871 L -261.2903 841.9355"/><path stroke="#000" stroke-width="2" d="M -261.2903 841.9355 L -319.3548 841.9355"/><path stroke="#000" stroke-width="2" d="M -319.3548 841.9355 L -319.3548 900"/><path stroke="#000" stroke-width="2" d="M -319.3548 900 L -261.2903 900"/><path stroke="#000" stroke-width="2" d="M -261.2903 900 L -203.2258 900"/><path stroke="#000" stroke-width="2" d="M -203.2258 900 L -203.2258 841.9355"/><path stroke="#000" stroke-width="2" d="M -203.2258 841.9355 L -145.1613 841.9355"/><path stroke="#000" stroke-width="2" d="M -145.1613 841.9355 L -145.1613 900"/><path stroke="#000" stroke-width="2" d="M -145.1613 900 L -87.0968 900"/><path stroke="#000" stroke-width="2" d="M -87.0968 900 L -29.0323 900"/><path stroke="#000" stroke-width="2" d="M -29.0323 900 L -29.0323 841.9355"/><path stroke="#000" stroke-width="2" d="M -29.0323 841.9355 L -87.0968 841.9355"/><path stroke="#000" stroke-width="2" d="M -87.0968 841.9355 L -87.0968 783.871"/><path stroke="#000" stroke-width="2" d="M -87.0968 783.871 L -29.0323 783.871"/><path stroke="#000" stroke-width="2" d="M -29.0323 783.871 L -29.0323 725.8065"/><path stroke="#000" stroke-width="2" d="M -29.0323 725.8065 L -87.0968 725.8065"/><path stroke="#000" stroke-width="2" d="M -87.0968 725.8065 L -145.1613 725.8065"/><path stroke="#000" stroke-width="2" d="M -145.1613 725.8065 L -145.1613 783.871"/><path stroke="#000" stroke-width="2" d="M -145.1613 783.871 L -203.2258 783.871"/><path stroke="#000" stroke-width="2" d="M -203.2258 783.871 L -203.2258 725.8065"/><path stroke="#000" stroke-width="2" d="M -203.2258 725.8065 L -203.2258 667.7419"/><path stroke="#000" stroke-width="2" d="M -203.2258 667.7419 L -203.2258 609.6774"/><path stroke="#000" stroke-width="2" d="M -203.2258 609.6774 L -145.1613 609.6774"/><path stroke="#000" stroke-width="2" d="M -145.1613 609.6774 L -145.1613 667.7419"/><path stroke="#000" stroke-width="2" d="M -145.1613 667.7419 L -87.0968 667.7419"/><path stroke="#000" stroke-width="2" d="M -87.0968 667.7419 L -29.0323 667.7419"/><path stroke="#000" stroke-width="2" d="M -29.0323 667.7419 L -29.0323 609.6774"/><path stroke="#000" stroke-width="2" d="M -29.0323 609.6774 L -87.0968 609.6774"/><path stroke="#000" stroke-width="2" d="M -87.0968 609.6774 L -87.0968 551.6129"/><path stroke="#000" stroke-width="2" d="M -87.0968 551.6129 L -29.0323 551.6129"/><path stroke="#000" stroke-width="2" d="M -29.0323 551.6129 L -29.0323 493.5484"/><path stroke="#000" stroke-width="2" d="M -29.0323 493.5484 L -87.0968 493.5484"/><path stroke="#000" stroke-width="2" d="M -87.0968 493.5484 L -145.1613 493.5484"/><path stroke="#000" stroke-width="2" d="M -145.1613 493.5484 L -145.1613 551.6129"/><path stroke="#000" stroke-width="2" d="M -145.1613 551.6129 L -203.2258 551.6129"/><path stroke="#000" stroke-width="2" d="M -203.2258 551.6129 L -203.2258 493.5484"/><path stroke="#000" stroke-width="2" d="M -203.2258 493.5484 L -261.2903 493.5484"/><path stroke="#000" stroke-width="2" d="M -261.2903 493.5484 L -319.3548 493.5484"/><path stroke="#000" stroke-width="2" d="M -319.3548 493.5484 L -319.3548 551.6129"/><path stroke="#000" stroke-width="2" d="M -319.3548 551.6129 L -261.2903 551.6129"/><path stroke="#000" stroke-width="2" d="M -261.2903 551.6129 L -261.2903 609.6774"/><path stroke="#000" stroke-width="2" d="M -261.2903 609.6774 L -261.2903 667.7419"/><path stroke="#000" stroke-width="2" d="M -261.2903 667.7419 L -319.3548 667.7419"/><path stroke="#000" stroke-width="2" d="M -319.3548 667.7419 L -319.3548 609.6774"/><path stroke="#000" stroke-width="2" d="M -319.3548 609.6774 L -377.4194 609.6774"/><path stroke="#000" stroke-width="2" d="M -377.4194 609.6774 L -377.4194 667.7419"/><path stroke="#000" stroke-width="2" d="M -377.4194 667.7419 L -435.4839 667.7419"/><path stroke="#000" stroke-width="2" d="M -435.4839 667.7419 L -435.4839 609.6774"/><path stroke="#000" stroke-width="2" d="M -435.4839 609.6774 L -435.4839 551.6129"/><path stroke="#000" stroke-width="2" d="M -435.4839 551.6129 L -377.4194 551.6129"/><path stroke="#000" stroke-width="2" d="M -377.4194 551.6129 L -377.4194 493.5484"/><path stroke="#000" stroke-width="2" d="M -377.4194 493.5484 L -435.4839 493.5484"/><path stroke="#000" stroke-width="2" d="M -435.4839 493.5484 L -435.4839 435.4839"/><path stroke="#000" stroke-width="2" d="M -435.4839 435.4839 L -377.4194 435.4839"/><path stroke="#000" stroke-width="2" d="M -377.4194 435.4839 L -377.4194 377.4194"/><path stroke="#000" stroke-width="2" d="M -377.4194 377.4194 L -435.4839 377.4194"/><path stroke="#000" stroke-width="2" d="M -435.4839 377.4194 L -435.4839 319.3548"/><path stroke="#000" stroke-width="2" d="M -435.4839 319.3548 L -435.4839 261.2903"/><path stroke="#000" stroke-width="2" d="M -435.4839 261.2903 L -377.4194 261.2903"/><path stroke="#000" stroke-width="2" d="M -377.4194 261.2903 L -377.4194 319.3548"/><path stroke="#000" stroke-width="2" d="M -377.4194 319.3548 L -319.3548 319.3548"/><path stroke="#000" stroke-width="2" d="M -319.3548 319.3548 L -319.3548 261.2903"/><path stroke="#000" stroke-width="2" d="M -319.3548 261.2903 L -261.2903 261.2903"/><path stroke="#000" stroke-width="2" d="M -261.2903 261.2903 L -261.2903 319.3548"/><path stroke="#000" stroke-width="2" d="M -261.2903 319.3548 L -261.2903 377.4194"/><path stroke="#000" stroke-width="2" d="M -261.2903 377.4194 L -319.3548 377.4194"/><path stroke="#000" stroke-width="2" d="M -319.3548 377.4194 L -319.3548 435.4839"/><path stroke="#000" stroke-width="2" d="M -319.3548 435.4839 L -261.2903 435.4839"/><path stroke="#000" stroke-width="2" d="M -261.2903 435.4839 L -203.2258 435.4839"/><path stroke="#000" stroke-width="2" d="M -203.2258 435.4839 L -203.2258 377.4194"/><path stroke="#000" stroke-width="2" d="M -203.2258 377.4194 L -145.1613 377.4194"/><path stroke="#000" stroke-width="2" d="M -145.1613 377.4194 L -145.1613 435.4839"/><path stroke="#000" stroke-width="2" d="M -145.1613 435.4839 L -87.0968 435.4839"/><path stroke="#000" stroke-width="2" d="M -87.0968 435.4839 L -29.0323 435.4839"/><path stroke="#000" stroke-width="2" d="M -29.0323 435.4839 L -29.0323 377.4194"/><path stroke="#000" stroke-width="2" d="M -29.0323 377.4194 L -87.0968 377.4194"/><path stroke="#000" stroke-width="2" d="M -87.0968 377.4194 L -87.0968 319.3548"/><path stroke="#000" stroke-width="2" d="M -87.0968 319.3548 L -29.0323 319.3548"/><path stroke="#000" stroke-width="2" d="M -29.0323 319.3548 L -29.0323 261.2903"/><path stroke="#000" stroke-width="2" d="M -29.0323 261.2903 L -87.0968 261.2903"/><path stroke="#000" stroke-width="2" d="M -87.0968 261.2903 L -145.1613 261.2903"/><path stroke="#000" stroke-width="2" d="M -145.1613 261.2903 L -145.1613 319.3548"/><path stroke="#000" stroke-width="2" d="M -145.1613 319.3548 L -203.2258 319.3548"/><path stroke="#000" stroke-width="2" d="M -203.2258 319.3548 L -203.2258 261.2903"/><path stroke="#000" stroke-width="2" d="M -203.2258 261.2903 L -203.2258 203.2258"/><path stroke="#000" stroke-width="2" d="M -203.2258 203.2258 L -203.2258 145.1613"/><path stroke="#000" stroke-width="2" d="M -203.2258 145.1613 L -145.1613 145.1613"/><path stroke="#000" stroke-width="2" d="M -145.1613 145.1613 L -145.1613 203.2258"/><path stroke="#000" stroke-width="2" d="M -145.1613 203.2258 L -87.0968 203.2258"/><path stroke="#000" stroke-width="2" d="M -87.0968 203.2258 L -29.0323 203.2258"/><path stroke="#000" stroke-width="2" d="M -29.0323 203.2258 L -29.0323 145.1613"/><path stroke="#000" stroke-width="2" d="M -29.0323 145.1613 L -87.0968 145.1613"/><path stroke="#000" stroke-width="2" d="M -87.0968 145.1613 L -87.0968 87.0968"/><path stroke="#000" stroke-width="2" d="M -87.0968 87.0968 L -29.0323 87.0968"/><path stroke="#000" stroke-width="2" d="M -29.0323 87.0968 L -29.0323 29.0323"/><path stroke="#000" stroke-width="2" d="M -29.0323 29.0323 L -87.0968 29.0323"/><path stroke="#000" stroke-width="2" d="M -87.0968 29.0323 L -145.1613 29.0323"/><path stroke="#000" stroke-width="2" d="M -145.1613 29.0323 L -145.1613 87.0968"/><path stroke="#000" stroke-width="2" d="M -145.1613 87.0968 L -203.2258 87.0968"/><path stroke="#000" stroke-width="2" d="M -203.2258 87.0968 L -203.2258 29.0323"/><path stroke="#000" stroke-width="2" d="M -203.2258 29.0323 L -261.2903 29.0323"/><path stroke="#000" stroke-width="2" d="M -261.2903 29.0323 L -319.3548 29.0323"/><path stroke="#000" stroke-width="2" d="M -319.3548 29.0323 L -319.3548 87.0968"/><path stroke="#000" stroke-width="2" d="M -319.3548 87.0968 L -261.2903 87.0968"/><path stroke="#000" stroke-width="2" d="M -261.2903 87.0968 L -261.2903 145.1613"/><path stroke="#000" stroke-width="2" d="M -261.2903 145.1613 L -261.2903 203.2258"/><path stroke="#000" stroke-width="2" d="M -261.2903 203.2258 L -319.3548 203.2258"/><path stroke="#000" stroke-width="2" d="M -319.3548 203.2258 L -319.3548 145.1613"/><path stroke="#000" stroke-width="2" d="M -319.3548 145.1613 L -377.4194 145.1613"/><path stroke="#000" stroke-width="2" d="M -377.4194 145.1613 L -377.4194 203.2258"/><path stroke="#000" stroke-width="2" d="M -377.4194 203.2258 L -435.4839 203.2258"/><path stroke="#000" stroke-width="2" d="M -435.4839 203.2258 L -435.4839 145.1613"/><path stroke="#000" stroke-width="2" d="M -435.4839 145.1613 L -435.4839 87.0968"/><path stroke="#000" stroke-width="2" d="M -435.4839 87.0968 L -377.4194 87.0968"/><path stroke="#000" stroke-width="2" d="M -377.4194 87.0968 L -377.4194 29.0323"/><path stroke="#000" stroke-width="2" d="M -377.4194 29.0323 L -435.4839 29.0323"/><path stroke="#000" stroke-width="2" d="M -435.4839 29.0323 L -493.5484 29.0323"/><path stroke="#000" stroke-width="2" d="M -493.5484 29.0323 L -493.5484 87.0968"/><path stroke="#000" stroke-width="2" d="M -493.5484 87.0968 L -551.6129 87.0968"/><path stroke="#000" stroke-width="2" d="M -551.6129 87.0968 L -551.6129 29.0323"/><path stroke="#000" stroke-width="2" d="M -551.6129 29.0323 L -609.6774 29.0323"/><path stroke="#000" stroke-width="2" d="M -609.6774 29.0323 L -667.7419 29.0323"/><path stroke="#000" stroke-width="2" d="M -667.7419 29.0323 L -667.7419 87.0968"/><path stroke="#000" stroke-width="2" d="M -667.7419 87.0968 L -609.6774 87.0968"/><path stroke="#000" stroke-width="2" d="M -609.6774 87.0968 L -609.6774 145.1613"/><path stroke="#000" stroke-width="2" d="M -609.6774 145.1613 L -667.7419 145.1613"/><path stroke="#000" stroke-width="2" d="M -667.7419 145.1613 L -667.7419 203.2258"/><path stroke="#000" stroke-width="2" d="M -667.7419 203.2258 L -609.6774 203.2258"/><path stroke="#000" stroke-width="2" d="M -609.6774 203.2258 L -551.6129 203.2258"/><path stroke="#000" stroke-width="2" d="M -551.6129 203.2258 L -551.6129 145.1613"/><path stroke="#000" stroke-width="2" d="M -551.6129 145.1613 L -493.5484 145.1613"/><path stroke="#000" stroke-width="2" d="M -493.5484 145.1613 L -493.5484 203.2258"/><path stroke="#000" stroke-width="2" d="M -493.5484 203.2258 L -493.5484 261.2903"/><path stroke="#000" stroke-width="2" d="M -493.5484 261.2903 L -551.6129 261.2903"/><path stroke="#000" stroke-width="2" d="M -551.6129 261.2903 L -551.6129 319.3548"/><path stroke="#000" stroke-width="2" d="M -551.6129 319.3548 L -493.5484 319.3548"/><path stroke="#000" stroke-width="2" d="M -493.5484 319.3548 L -493.5484 377.4194"/><path stroke="#000" stroke-width="2" d="M -493.5484 377.4194 L -493.5484 435.4839"/><path stroke="#000" stroke-width="2" d="M -493.5484 435.4839 L -551.6129 435.4839"/><path stroke="#000" stroke-width="2" d="M -551.6129 435.4839 L -551.6129 377.4194"/><path stroke="#000" stroke-width="2" d="M -551.6129 377.4194 L -609.6774 377.4194"/><path stroke="#000" stroke-width="2" d="M -609.6774 377.4194 L -609.6774 435.4839"/><path stroke="#000" stroke-width="2" d="M -609.6774 435.4839 L -667.7419 435.4839"/><path stroke="#000" stroke-width="2" d="M -667.7419 435.4839 L -667.7419 377.4194"/><path stroke="#000" stroke-width="2" d="M -667.7419 377.4194 L -667.7419 319.3548"/><path stroke="#000" stroke-width="2" d="M -667.7419 319.3548 L -609.6774 319.3548"/><path stroke="#000" stroke-width="2" d="M -609.6774 319.3548 L -609.6774 261.2903"/><path stroke="#000" stroke-width="2" d="M -609.6774 261.2903 L -667.7419 261.2903"/><path stroke="#000" stroke-width="2" d="M -667.7419 261.2903 L -725.8065 261.2903"/><path stroke="#000" stroke-width="2" d="M -725.8065 261.2903 L -783.871 261.2903"/><path stroke="#000" stroke-width="2" d="M -783.871 261.2903 L -783.871 319.3548"/><path stroke="#000" stroke-width="2" d="M -783.871 319.3548 L -725.8065 319.3548"/><path stroke="#000" stroke-width="2" d="M -725.8065 319.3548 L -725.8065 377.4194"/><path stroke="#000" stroke-width="2" d="M -725.8065 377.4194 L -725.8065 435.4839"/><path stroke="#000" stroke-width="2" d="M -725.8065 435.4839 L -783.871 435.4839"/><path stroke="#000" stroke-width="2" d="M -783.871 435.4839 L -783.871 377.4194"/><path stroke="#000" stroke-width="2" d="M -783.871 377.4194 L -841.9355 377.4194"/><path stroke="#000" stroke-width="2" d="M -841.9355 377.4194 L -841.9355 435.4839"/><path stroke="#000" stroke-width="2" d="M -841.9355 435.4839 L -900 435.4839"/><path stroke="#000" stroke-width="2" d="M -900 435.4839 L -900 377.4194"/><path stroke="#000" stroke-width="2" d="M -900 377.4194 L -900 319.3548"/><path stroke="#000" stroke-width="2" d="M -900 319.3548 L -841.9355 319.3548"/><path stroke="#000" stroke-width="2" d="M -841.9355 319.3548 L -841.9355 261.2903"/><path stroke="#000" stroke-width="2" d="M -841.9355 261.2903 L -900 261.2903"/><path stroke="#000" stroke-width="2" d="M -900 261.2903 L -900 203.2258"/><path stroke="#000" stroke-width="2" d="M -900 203.2258 L -900 145.1613"/><path stroke="#000" stroke-width="2" d="M -900 145.1613 L -841.9355 145.1613"/><path stroke="#000" stroke-width="2" d="M -841.9355 145.1613 L -841.9355 203.2258"/><path stroke="#000" stroke-width="2" d="M -841.9355 203.2258 L -783.871 203.2258"/><path stroke="#000" stroke-width="2" d="M -783.871 203.2258 L -725.8065 203.2258"/><path stroke="#000" stroke-width="2" d="M -725.8065 203.2258 L -725.8065 145.1613"/><path stroke="#000" stroke-width="2" d="M -725.8065 145.1613 L -783.871 145.1613"/><path stroke="#000" stroke-width="2" d="M -783.871 145.1613 L -783.871 87.0968"/><path stroke="#000" stroke-width="2" d="M -783.871 87.0968 L -725.8065 87.0968"/><path stroke="#000" stroke-width="2" d="M -725.8065 87.0968 L -725.8065 29.0323"/><path stroke="#000" stroke-width="2" d="M -725.8065 29.0323 L -783.871 29.0323"/><path stroke="#000" stroke-width="2" d="M -783.871 29.0323 L -841.9355 29.0323"/><path stroke="#000" stroke-width="2" d="M -841.9355 29.0323 L -841.9355 87.0968"/><path stroke="#000" stroke-width="2" d="M -841.9355 87.0968 L -900 87.0968"/><path stroke="#000" stroke-width="2" d="M -900 87.0968 L -900 29.0323"/><path stroke="#000" stroke-width="2" d="M -900 29.0323 L -900 -29.0323"/><path stroke="#000" stroke-width="2" d="M -900 -29.0323 L -841.9355 -29.0323"/><path stroke="#000" stroke-width="2" d="M -841.9355 -29.0323 L -841.9355 -87.0968"/><path stroke="#000" stroke-width="2" d="M -841.9355 -87.0968 L -900 -87.0968"/><path stroke="#000" stroke-width="2" d="M -900 -87.0968 L -900 -145.1613"/><path stroke="#000" stroke-width="2" d="M -900 -145.1613 L -900 -203.2258"/><path stroke="#000" stroke-width="2" d="M -900 -203.2258 L -841.9355 -203.2258"/><path stroke="#000" stroke-width="2" d="M -841.9355 -203.2258 L -841.9355 -145.1613"/><path stroke="#000" stroke-width="2" d="M -841.9355 -145.1613 L -783.871 -145.1613"/><path stroke="#000" stroke-width="2" d="M -783.871 -145.1613 L -783.871 -203.2258"/><path stroke="#000" stroke-width="2" d="M -783.871 -203.2258 L -725.8065 -203.2258"/><path stroke="#000" stroke-width="2" d="M -725.8065 -203.2258 L -725.8065 -145.1613"/><path stroke="#000" stroke-width="2" d="M -725.8065 -145.1613 L -725.8065 -87.0968"/><path stroke="#000" stroke-width="2" d="M -725.8065 -87.0968 L -783.871 -87.0968"/><path stroke="#000" stroke-width="2" d="M -783.871 -87.0968 L -783.871 -29.0323"/><path stroke="#000" stroke-width="2" d="M -783.871 -29.0323 L -725.8065 -29.0323"/><path stroke="#000" stroke-width="2" d="M -725.8065 -29.0323 L -667.7419 -29.0323"/><path stroke="#000" stroke-width="2" d="M -667.7419 -29.0323 L -667.7419 -87.0968"/><path stroke="#000" stroke-width="2" d="M -667.7419 -87.0968 L -609.6774 -87.0968"/><path stroke="#000" stroke-width="2" d="M -609.6774 -87.0968 L -609.6774 -29.0323"/><path stroke="#000" stroke-width="2" d="M -609.6774 -29.0323 L -551.6129 -29.0323"/><path stroke="#000" stroke-width="2" d="M -551.6129 -29.0323 L -493.5484 -29.0323"/><path stroke="#000" stroke-width="2" d="M -493.5484 -29.0323 L -493.5484 -87.0968"/><path stroke="#000" stroke-width="2" d="M -493.5484 -87.0968 L -551.6129 -87.0968"/><path stroke="#000" stroke-width="2" d="M -551.6129 -87.0968 L -551.6129 -145.1613"/><path stroke="#000" stroke-width="2" d="M -551.6129 -145.1613 L -493.5484 -145.1613"/><path stroke="#000" stroke-width="2" d="M -493.5484 -145.1613 L -493.5484 -203.2258"/><path stroke="#000" stroke-width="2" d="M -493.5484 -203.2258 L -551.6129 -203.2258"/><path stroke="#000" stroke-width="2" d="M -551.6129 -203.2258 L -609.6774 -203.2258"/><path stroke="#000" stroke-width="2" d="M -609.6774 -203.2258 L -609.6774 -145.1613"/><path stroke="#000" stroke-width="2" d="M -609.6774 -145.1613 L -667.7419 -145.1613"/><path stroke="#000" stroke-width="2" d="M -667.7419 -145.1613 L -667.7419 -203.2258"/><path stroke="#000" stroke-width="2" d="M -667.7419 -203.2258 L -667.7419 -261.2903"/><path stroke="#000" stroke-width="2" d="M -667.7419 -261.2903 L -667.7419 -319.3548"/><path stroke="#000" stroke-width="2" d="M -667.7419 -319.3548 L -609.6774 -319.3548"/><path stroke="#000" stroke-width="2" d="M -609.6774 -319.3548 L -609.6774 -261.2903"/><path stroke="#000" stroke-width="2" d="M -609.6774 -261.2903 L -551.6129 -261.2903"/><path stroke="#000" stroke-width="2" d="M -551.6129 -261.2903 L -493.5484 -261.2903"/><path stroke="#000" stroke-width="2" d="M -493.5484 -261.2903 L -493.5484 -319.3548"/><path stroke="#000" stroke-width="2" d="M -493.5484 -319.3548 L -551.6129 -319.3548"/><path stroke="#000" stroke-width="2" d="M -551.6129 -319.3548 L -551.6129 -377.4194"/><path stroke="#000" stroke-width="2" d="M -551.6129 -377.4194 L -493.5484 -377.4194"/><path stroke="#000" stroke-width="2" d="M -493.5484 -377.4194 L -493.5484 -435.4839"/><path stroke="#000" stroke-width="2" d="M -493.5484 -435.4839 L -551.6129 -435.4839"/><path stroke="#000" stroke-width="2" d="M -551.6129 -435.4839 L -609.6774 -435.4839"/><path stroke="#000" stroke-width="2" d="M -609.6774 -435.4839 L -609.6774 -377.4194"/><path stroke="#000" stroke-width="2" d="M -609.6774 -377.4194 L -667.7419 -377.4194"/><path stroke="#000" stroke-width="2" d="M -667.7419 -377.4194 L -667.7419 -435.4839"/><path stroke="#000" stroke-width="2" d="M -667.7419 -435.4839 L -725.8065 -435.4839"/><path stroke="#000" stroke-width="2" d="M -725.8065 -435.4839 L -783.871 -435.4839"/><path stroke="#000" stroke-width="2" d="M -783.871 -435.4839 L -783.871 -377.4194"/><path stroke="#000" stroke-width="2" d="M -783.871 -377.4194 L -725.8065 -377.4194"/><path stroke="#000" stroke-width="2" d="M -725.8065 -377.4194 L -725.8065 -319.3548"/><path stroke="#000" stroke-width="2" d="M -725.8065 -319.3548 L -725.8065 -261.2903"/><path stroke="#000" stroke-width="2" d="M -725.8065 -261.2903 L -783.871 -261.2903"/><path stroke="#000" stroke-width="2" d="M -783.871 -261.2903 L -783.871 -319.3548"/><path stroke="#000" stroke-width="2" d="M -783.871 -319.3548 L -841.9355 -319.3548"/><path stroke="#000" stroke-width="2" d="M -841.9355 -319.3548 L -841.9355 -261.2903"/><path stroke="#000" stroke-width="2" d="M -841.9355 -261.2903 L -900 -261.2903"/><path stroke="#000" stroke-width="2" d="M -900 -261.2903 L -900 -319.3548"/><path stroke="#000" stroke-width="2" d="M -900 -319.3548 L -900 -377.4194"/><path stroke="#000" stroke-width="2" d="M -900 -377.4194 L -841.9355 -377.4194"/><path stroke="#000" stroke-width="2" d="M -841.9355 -377.4194 L -841.9355 -435.4839"/><path stroke="#000" stroke-width="2" d="M -841.9355 -435.4839 L -900 -435.4839"/><path stroke="#000" stroke-width="2" d="M -900 -435.4839 L -900 -493.5484"/><path stroke="#000" stroke-width="2" d="M -900 -493.5484 L -900 -551.6129"/><path stroke="#000" stroke-width="2" d="M -900 -551.6129 L -841.9355 -551.6129"/><path stroke="#000" stroke-width="2" d="M -841.9355 -551.6129 L -841.9355 -493.5484"/><path stroke="#000" stroke-width="2" d="M -841.9355 -493.5484 L -783.871 -493.5484"/><path stroke="#000" stroke-width="2" d="M -783.871 -493.5484 L -725.8065 -493.5484"/><path stroke="#000" stroke-width="2" d="M -725.8065 -493.5484 L -725.8065 -551.6129"/><path stroke="#000" stroke-width="2" d="M -725.8065 -551.6129 L -783.871 -551.6129"/><path stroke="#000" stroke-width="2" d="M -783.871 -551.6129 L -783.871 -609.6774"/><path stroke="#000" stroke-width="2" d="M -783.871 -609.6774 L -725.8065 -609.6774"/><path stroke="#000" stroke-width="2" d="M -725.8065 -609.6774 L -725.8065 -667.7419"/><path stroke="#000" stroke-width="2" d="M -725.8065 -667.7419 L -783.871 -667.7419"/><path stroke="#000" stroke-width="2" d="M -783.871 -667.7419 L -841.9355 -667.7419"/><path stroke="#000" stroke-width="2" d="M -841.9355 -667.7419 L -841.9355 -609.6774"/><path stroke="#000" stroke-width="2" d="M -841.9355 -609.6774 L -900 -609.6774"/><path stroke="#000" stroke-width="2" d="M -900 -609.6774 L -900 -667.7419"/><path stroke="#000" stroke-width="2" d="M -900 -667.7419 L -900 -725.8065"/><path stroke="#000" stroke-width="2" d="M -900 -725.8065 L -841.9355 -725.8065"/><path stroke="#000" stroke-width="2" d="M -841.9355 -725.8065 L -841.9355 -783.871"/><path stroke="#000" stroke-width="2" d="M -841.9355 -783.871 L -900 -783.871"/><path stroke="#000" stroke-width="2" d="M -900 -783.871 L -900 -841.9355"/><path stroke="#000" stroke-width="2" d="M -900 -841.9355 L -900 -900"/><path stroke="#000" stroke-width="2" d="M -900 -900 L -841.9355 -900"/><path stroke="#000" stroke-width="2" d="M -841.9355 -900 L -841.9355 -841.9355"/><path stroke="#000" stroke-width="2" d="M -841.9355 -841.9355 L -783.871 -841.9355"/><path stroke="#000" stroke-width="2" d="M -783.871 -841.9355 L -783.871 -900"/><path stroke="#000" stroke-width="2" d="M -783.871 -900 L -725.8065 -900"/><path stroke="#000" stroke-width="2" d="M -725.8065 -900 L -725.8065 -841.9355"/><path stroke="#000" stroke-width="2" d="M -725.8065 -841.9355 L -725.8065 -783.871"/><path stroke="#000" stroke-width="2" d="M -725.8065 -783.871 L -783.871 -783.871"/><path stroke="#000" stroke-width="2" d="M -783.871 -783.871 L -783.871 -725.8065"/><path stroke="#000" stroke-width="2" d="M -783.871 -725.8065 L -725.8065 -725.8065"/><path stroke="#000" stroke-width="2" d="M -725.8065 -725.8065 L -667.7419 -725.8065"/><path stroke="#000" stroke-width="2" d="M -667.7419 -725.8065 L -609.6774 -725.8065"/><path stroke="#000" stroke-width="2" d="M -609.6774 -725.8065 L -609.6774 -783.871"/><path stroke="#000" stroke-width="2" d="M -609.6774 -783.871 L -667.7419 -783.871"/><path stroke="#000" stroke-width="2" d="M -667.7419 -783.871 L -667.7419 -841.9355"/><path stroke="#000" stroke-width="2" d="M -667.7419 -841.9355 L -667.7419 -900"/><path stroke="#000" stroke-width="2" d="M -667.7419 -900 L -609.6774 -900"/><path stroke="#000" stroke-width="2" d="M -609.6774 -900 L -609.6774 -841.9355"/><path stroke="#000" stroke-width="2" d="M -609.6774 -841.9355 L -551.6129 -841.9355"/><path stroke="#000" stroke-width="2" d="M -551.6129 -841.9355 L -551.6129 -900"/><path stroke="#000" stroke-width="2" d="M -551.6129 -900 L -493.5484 -900"/><path stroke="#000" stroke-width="2" d="M -493.5484 -900 L -493.5484 -841.9355"/><path stroke="#000" stroke-width="2" d="M -493.5484 -841.9355 L -493.5484 -783.871"/><path stroke="#000" stroke-width="2" d="M -493.5484 -783.871 L -551.6129 -783.871"/><path stroke="#000" stroke-width="2" d="M -551.6129 -783.871 L -551.6129 -725.8065"/><path stroke="#000" stroke-width="2" d="M -551.6129 -725.8065 L -493.5484 -725.8065"/><path stroke="#000" stroke-width="2" d="M -493.5484 -725.8065 L -493.5484 -667.7419"/><path stroke="#000" stroke-width="2" d="M -493.5484 -667.7419 L -493.5484 -609.6774"/><path stroke="#000" stroke-width="2" d="M -493.5484 -609.6774 L -551.6129 -609.6774"/><path stroke="#000" stroke-width="2" d="M -551.6129 -609.6774 L -551.6129 -667.7419"/><path stroke="#000" stroke-width="2" d="M -551.6129 -667.7419 L -609.6774 -667.7419"/><path stroke="#000" stroke-width="2" d="M -609.6774 -667.7419 L -667.7419 -667.7419"/><path stroke="#000" stroke-width="2" d="M -667.7419 -667.7419 L -667.7419 -609.6774"/><path stroke="#000" stroke-width="2" d="M -667.7419 -609.6774 L -609.6774 -609.6774"/><path stroke="#000" stroke-width="2" d="M -609.6774 -609.6774 L -609.6774 -551.6129"/><path stroke="#000" stroke-width="2" d="M -609.6774 -551.6129 L -667.7419 -551.6129"/><path stroke="#000" stroke-width="2" d="M -667.7419 -551.6129 L -667.7419 -493.5484"/><path stroke="#000" stroke-width="2" d="M -667.7419 -493.5484 L -609.6774 -493.5484"/><path stroke="#000" stroke-width="2" d="M -609.6774 -493.5484 L -551.6129 -493.5484"/><path stroke="#000" stroke-width="2" d="M -551.6129 -493.5484 L -551.6129 -551.6129"/><path stroke="#000" stroke-width="2" d="M -551.6129 -551.6129 L -493.5484 -551.6129"/><path stroke="#000" stroke-width="2" d="M -493.5484 -551.6129 L -493.5484 -493.5484"/><path stroke="#000" stroke-width="2" d="M -493.5484 -493.5484 L -435.4839 -493.5484"/><path stroke="#000" stroke-width="2" d="M -435.4839 -493.5484 L -435.4839 -551.6129"/><path stroke="#000" stroke-width="2" d="M -435.4839 -551.6129 L -377.4194 -551.6129"/><path stroke="#000" stroke-width="2" d="M -377.4194 -551.6129 L -377.4194 -493.5484"/><path stroke="#000" stroke-width="2" d="M -377.4194 -493.5484 L -319.3548 -493.5484"/><path stroke="#000" stroke-width="2" d="M -319.3548 -493.5484 L -261.2903 -493.5484"/><path stroke="#000" stroke-width="2" d="M -261.2903 -493.5484 L -261.2903 -551.6129"/><path stroke="#000" stroke-width="2" d="M -261.2903 -551.6129 L -319.3548 -551.6129"/><path stroke="#000" stroke-width="2" d="M -319.3548 -551.6129 L -319.3548 -609.6774"/><path stroke="#000" stroke-width="2" d="M -319.3548 -609.6774 L -261.2903 -609.6774"/><path stroke="#000" stroke-width="2" d="M -261.2903 -609.6774 L -261.2903 -667.7419"/><path stroke="#000" stroke-width="2" d="M -261.2903 -667.7419 L -319.3548 -667.7419"/><path stroke="#000" stroke-width="2" d="M -319.3548 -667.7419 L -377.4194 -667.7419"/><path stroke="#000" stroke-width="2" d="M -377.4194 -667.7419 L -377.4194 -609.6774"/><path stroke="#000" stroke-width="2" d="M -377.4194 -609.6774 L -435.4839 -609.6774"/><path stroke="#000" stroke-width="2" d="M -435.4839 -609.6774 L -435.4839 -667.7419"/><path stroke="#000" stroke-width="2" d="M -435.4839 -667.7419 L -435.4839 -725.8065"/><path stroke="#000" stroke-width="2" d="M -435.4839 -725.8065 L -377.4194 -725.8065"/><path stroke="#000" stroke-width="2" d="M -377.4194 -725.8065 L -377.4194 -783.871"/><path stroke="#000" stroke-width="2" d="M -377.4194 -783.871 L -435.4839 -783.871"/><path stroke="#000" stroke-width="2" d="M -435.4839 -783.871 L -435.4839 -841.9355"/><path stroke="#000" stroke-width="2" d="M -435.4839 -841.9355 L -435.4839 -900"/><path stroke="#000" stroke-width="2" d="M -435.4839 -900 L -377.4194 -900"/><path stroke="#000" stroke-width="2" d="M -377.4194 -900 L -377.4194 -841.9355"/><path stroke="#000" stroke-width="2" d="M -377.4194 -841.9355 L -319.3548 -841.9355"/><path stroke="#000" stroke-width="2" d="M -319.3548 -841.9355 L -319.3548 -900"/><path stroke="#000" stroke-width="2" d="M -319.3548 -900 L -261.2903 -900"/><path stroke="#000" stroke-width="2" d="M -261.2903 -900 L -261.2903 -841.9355"/><path stroke="#000" stroke-width="2" d="M -261.2903 -841.9355 L -261.2903 -783.871"/><path stroke="#000" stroke-width="2" d="M -261.2903 -783.871 L -319.3548 -783.871"/><path stroke="#000" stroke-width="2" d="M -319.3548 -783.871 L -319.3548 -725.8065"/><path stroke="#000" stroke-width="2" d="M -319.3548 -725.8065 L -261.2903 -725.8065"/><path stroke="#000" stroke-width="2" d="M -261.2903 -725.8065 L -203.2258 -725.8065"/><path stroke="#000" stroke-width="2" d="M -203.2258 -725.8065 L -145.1613 -725.8065"/><path stroke="#000" stroke-width="2" d="M -145.1613 -725.8065 L -145.1613 -783.871"/><path stroke="#000" stroke-width="2" d="M -145.1613 -783.871 L -203.2258 -783.871"/><path stroke="#000" stroke-width="2" d="M -203.2258 -783.871 L -203.2258 -841.9355"/><path stroke="#000" stroke-width="2" d="M -203.2258 -841.9355 L -203.2258 -900"/><path stroke="#000" stroke-width="2" d="M -203.2258 -900 L -145.1613 -900"/><path stroke="#000" stroke-width="2" d="M -145.1613 -900 L -145.1613 -841.9355"/><path stroke="#000" stroke-width="2" d="M -145.1613 -841.9355 L -87.0968 -841.9355"/><path stroke="#000" stroke-width="2" d="M -87.0968 -841.9355 L -87.0968 -900"/><path stroke="#000" stroke-width="2" d="M -87.0968 -900 L -29.0323 -900"/><path stroke="#000" stroke-width="2" d="M -29.0323 -900 L -29.0323 -841.9355"/><path stroke="#000" stroke-width="2" d="M -29.0323 -841.9355 L -29.0323 -783.871"/><path stroke="#000" stroke-width="2" d="M -29.0323 -783.871 L -87.0968 -783.871"/><path stroke="#000" stroke-width="2" d="M -87.0968 -783.871 L -87.0968 -725.8065"/><path stroke="#000" stroke-width="2" d="M -87.0968 -725.8065 L -29.0323 -725.8065"/><path stroke="#000" stroke-width="2" d="M -29.0323 -725.8065 L -29.0323 -667.7419"/><path stroke="#000" stroke-width="2" d="M -29.0323 -667.7419 L -29.0323 -609.6774"/><path stroke="#000" stroke-width="2" d="M -29.0323 -609.6774 L -87.0968 -609.6774"/><path stroke="#000" stroke-width="2" d="M -87.0968 -609.6774 L -87.0968 -667.7419"/><path stroke="#000" stroke-width="2" d="M -87.0968 -667.7419 L -145.1613 -667.7419"/><path stroke="#000" stroke-width="2" d="M -145.1613 -667.7419 L -203.2258 -667.7419"/><path stroke="#000" stroke-width="2" d="M -203.2258 -667.7419 L -203.2258 -609.6774"/><path stroke="#000" stroke-width="2" d="M -203.2258 -609.6774 L -145.1613 -609.6774"/><path stroke="#000" stroke-width="2" d="M -145.1613 -609.6774 L -145.1613 -551.6129"/><path stroke="#000" stroke-width="2" d="M -145.1613 -551.6129 L -203.2258 -551.6129"/><path stroke="#000" stroke-width="2" d="M -203.2258 -551.6129 L -203.2258 -493.5484"/><path stroke="#000" stroke-width="2" d="M -203.2258 -493.5484 L -145.1613 -493.5484"/><path stroke="#000" stroke-width="2" d="M -145.1613 -493.5484 L -87.0968 -493.5484"/><path stroke="#000" stroke-width="2" d="M -87.0968 -493.5484 L -87.0968 -551.6129"/><path stroke="#000" stroke-width="2" d="M -87.0968 -551.6129 L -29.0323 -551.6129"/><path stroke="#000" stroke-width="2" d="M -29.0323 -551.6129 L -29.0323 -493.5484"/><path stroke="#000" stroke-width="2" d="M -29.0323 -493.5484 L -29.0323 -435.4839"/><path stroke="#000" stroke-width="2" d="M -29.0323 -435.4839 L -87.0968 -435.4839"/><path stroke="#000" stroke-width="2" d="M -87.0968 -435.4839 L -87.0968 -377.4194"/><path stroke="#000" stroke-width="2" d="M -87.0968 -377.4194 L -29.0323 -377.4194"/><path stroke="#000" stroke-width="2" d="M -29.0323 -377.4194 L -29.0323 -319.3548"/><path stroke="#000" stroke-width="2" d="M -29.0323 -319.3548 L -29.0323 -261.2903"/><path stroke="#000" stroke-width="2" d="M -29.0323 -261.2903 L -87.0968 -261.2903"/><path stroke="#000" stroke-width="2" d="M -87.0968 -261.2903 L -87.0968 -319.3548"/><path stroke="#000" stroke-width="2" d="M -87.0968 -319.3548 L -145.1613 -319.3548"/><path stroke="#000" stroke-width="2" d="M -145.1613 -319.3548 L -145.1613 -261.2903"/><path stroke="#000" stroke-width="2" d="M -145.1613 -261.2903 L -203.2258 -261.2903"/><path stroke="#000" stroke-width="2" d="M -203.2258 -261.2903 L -203.2258 -319.3548"/><path stroke="#000" stroke-width="2" d="M -203.2258 -319.3548 L -203.2258 -377.4194"/><path stroke="#000" stroke-width="2" d="M -203.2258 -377.4194 L -145.1613 -377.4194"/><path stroke="#000" stroke-width="2" d="M -145.1613 -377.4194 L -145.1613 -435.4839"/><path stroke="#000" stroke-width="2" d="M -145.1613 -435.4839 L -203.2258 -435.4839"/><path stroke="#000" stroke-width="2" d="M -203.2258 -435.4839 L -261.2903 -435.4839"/><path stroke="#000" stroke-width="2" d="M -261.2903 -435.4839 L -261.2903 -377.4194"/><path stroke="#000" stroke-width="2" d="M -261.2903 -377.4194 L -319.3548 -377.4194"/><path stroke="#000" stroke-width="2" d="M -319.3548 -377.4194 L -319.3548 -435.4839"/><path stroke="#000" stroke-width="2" d="M -319.3548 -435.4839 L -377.4194 -435.4839"/><path stroke="#000" stroke-width="2" d="M -377.4194 -435.4839 L -435.4839 -435.4839"/><path stroke="#000" stroke-width="2" d="M -435.4839 -435.4839 L -435.4839 -377.4194"/><path stroke="#000" stroke-width="2" d="M -435.4839 -377.4194 L -377.4194 -377.4194"/><path stroke="#000" stroke-width="2" d="M -377.4194 -377.4194 L -377.4194 -319.3548"/><path stroke="#000" stroke-width="2" d="M -377.4194 -319.3548 L -435.4839 -319.3548"/><path stroke="#000" stroke-width="2" d="M -435.4839 -319.3548 L -435.4839 -261.2903"/><path stroke="#000" stroke-width="2" d="M -435.4839 -261.2903 L -377.4194 -261.2903"/><path stroke="#000" stroke-width="2" d="M -377.4194 -261.2903 L -319.3548 -261.2903"/><path stroke="#000" stroke-width="2" d="M -319.3548 -261.2903 L -319.3548 -319.3548"/><path stroke="#000" stroke-width="2" d="M -319.3548 -319.3548 L -261.2903 -319.3548"/><path stroke="#000" stroke-width="2" d="M -261.2903 -319.3548 L -261.2903 -261.2903"/><path stroke="#000" stroke-width="2" d="M -261.2903 -261.2903 L -261.2903 -203.2258"/><path stroke="#000" stroke-width="2" d="M -261.2903 -203.2258 L -261.2903 -145.1613"/><path stroke="#000" stroke-width="2" d="M -261.2903 -145.1613 L -319.3548 -145.1613"/><path stroke="#000" stroke-width="2" d="M -319.3548 -145.1613 L -319.3548 -203.2258"/><path stroke="#000" stroke-width="2" d="M -319.3548 -203.2258 L -377.4194 -203.2258"/><path stroke="#000" stroke-width="2" d="M -377.4194 -203.2258 L -435.4839 -203.2258"/><path stroke="#000" stroke-width="2" d="M -435.4839 -203.2258 L -435.4839 -145.1613"/><path stroke="#000" stroke-width="2" d="M -435.4839 -145.1613 L -377.4194 -145.1613"/><path stroke="#000" stroke-width="2" d="M -377.4194 -145.1613 L -377.4194 -87.0968"/><path stroke="#000" stroke-width="2" d="M -377.4194 -87.0968 L -435.4839 -87.0968"/><path stroke="#000" stroke-width="2" d="M -435.4839 -87.0968 L -435.4839 -29.0323"/><path stroke="#000" stroke-width="2" d="M -435.4839 -29.0323 L -377.4194 -29.0323"/><path stroke="#000" stroke-width="2" d="M -377.4194 -29.0323 L -319.3548 -29.0323"/><path stroke="#000" stroke-width="2" d="M -319.3548 -29.0323 L -319.3548 -87.0968"/><path stroke="#000" stroke-width="2" d="M -319.3548 -87.0968 L -261.2903 -87.0968"/><path stroke="#000" stroke-width="2" d="M -261.2903 -87.0968 L -261.2903 -29.0323"/><path stroke="#000" stroke-width="2" d="M -261.2903 -29.0323 L -203.2258 -29.0323"/><path stroke="#000" stroke-width="2" d="M -203.2258 -29.0323 L -145.1613 -29.0323"/><path stroke="#000" stroke-width="2" d="M -145.1613 -29.0323 L -145.1613 -87.0968"/><path stroke="#000" stroke-width="2" d="M -145.1613 -87.0968 L -203.2258 -87.0968"/><path stroke="#000" stroke-width="2" d="M -203.2258 -87.0968 L -203.2258 -145.1613"/><path stroke="#000" stroke-width="2" d="M -203.2258 -145.1613 L -203.2258 -203.2258"/><path stroke="#000" stroke-width="2" d="M -203.2258 -203.2258 L -145.1613 -203.2258"/><path stroke="#000" stroke-width="2" d="M -145.1613 -203.2258 L -145.1613 -145.1613"/><path stroke="#000" stroke-width="2" d="M -145.1613 -145.1613 L -87.0968 -145.1613"/><path stroke="#000" stroke-width="2" d="M -87.0968 -145.1613 L -87.0968 -203.2258"/><path stroke="#000" stroke-width="2" d="M -87.0968 -203.2258 L -29.0323 -203.2258"/><path stroke="#000" stroke-width="2" d="M -29.0323 -203.2258 L -29.0323 -145.1613"/><path stroke="#000" stroke-width="2" d="M -29.0323 -145.1613 L -29.0323 -87.0968"/><path stroke="#000" stroke-width="2" d="M -29.0323 -87.0968 L -87.0968 -87.0968"/><path stroke="#000" stroke-width="2" d="M -87.0968 -87.0968 L -87.0968 -29.0323"/><path stroke="#000" stroke-width="2" d="M -87.0968 -29.0323 L -29.0323 -29.0323"/><path stroke="#000" stroke-width="2" d="M -29.0323 -29.0323 L 29.0323 -29.0323"/><path stroke="#000" stroke-width="2" d="M 29.0323 -29.0323 L 87.0968 -29.0323"/><path stroke="#000" stroke-width="2" d="M 87.0968 -29.0323 L 87.0968 -87.0968"/><path stroke="#000" stroke-width="2" d="M 87.0968 -87.0968 L 29.0323 -87.0968"/><path stroke="#000" stroke-width="2" d="M 29.0323 -87.0968 L 29.0323 -145.1613"/><path stroke="#000" stroke-width="2" d="M 29.0323 -145.1613 L 29.0323 -203.2258"/><path stroke="#000" stroke-width="2" d="M 29.0323 -203.2258 L 87.0968 -203.2258"/><path stroke="#000" stroke-width="2" d="M 87.0968 -203.2258 L 87.0968 -145.1613"/><path stroke="#000" stroke-width="2" d="M 87.0968 -145.1613 L 145.1613 -145.1613"/><path stroke="#000" stroke-width="2" d="M 145.1613 -145.1613 L 145.1613 -203.2258"/><path stroke="#000" stroke-width="2" d="M 145.1613 -203.2258 L 203.2258 -203.2258"/><path stroke="#000" stroke-width="2" d="M 203.2258 -203.2258 L 203.2258 -145.1613"/><path stroke="#000" stroke-width="2" d="M 203.2258 -145.1613 L 203.2258 -87.0968"/><path stroke="#000" stroke-width="2" d="M 203.2258 -87.0968 L 145.1613 -87.0968"/><path stroke="#000" stroke-width="2" d="M 145.1613 -87.0968 L 145.1613 -29.0323"/><path stroke="#000" stroke-width="2" d="M 145.1613 -29.0323 L 203.2258 -29.0323"/><path stroke="#000" stroke-width="2" d="M 203.2258 -29.0323 L 261.2903 -29.0323"/><path stroke="#000" stroke-width="2" d="M 261.2903 -29.0323 L 261.2903 -87.0968"/><path stroke="#000" stroke-width="2" d="M 261.2903 -87.0968 L 319.3548 -87.0968"/><path stroke="#000" stroke-width="2" d="M 319.3548 -87.0968 L 319.3548 -29.0323"/><path stroke="#000" stroke-width="2" d="M 319.3548 -29.0323 L 377.4194 -29.0323"/><path stroke="#000" stroke-width="2" d="M 377.4194 -29.0323 L 435.4839 -29.0323"/><path stroke="#000" stroke-width="2" d="M 435.4839 -29.0323 L 435.4839 -87.0968"/><path stroke="#000" stroke-width="2" d="M 435.4839 -87.0968 L 377.4194 -87.0968"/><path stroke="#000" stroke-width="2" d="M 377.4194 -87.0968 L 377.4194 -145.1613"/><path stroke="#000" stroke-width="2" d="M 377.4194 -145.1613 L 435.4839 -145.1613"/><path stroke="#000" stroke-width="2" d="M 435.4839 -145.1613 L 435.4839 -203.2258"/><path stroke="#000" stroke-width="2" d="M 435.4839 -203.2258 L 377.4194 -203.2258"/><path stroke="#000" stroke-width="2" d="M 377.4194 -203.2258 L 319.3548 -203.2258"/><path stroke="#000" stroke-width="2" d="M 319.3548 -203.2258 L 319.3548 -145.1613"/><path stroke="#000" stroke-width="2" d="M 319.3548 -145.1613 L 261.2903 -145.1613"/><path stroke="#000" stroke-width="2" d="M 261.2903 -145.1613 L 261.2903 -203.2258"/><path stroke="#000" stroke-width="2" d="M 261.2903 -203.2258 L 261.2903 -261.2903"/><path stroke="#000" stroke-width="2" d="M 261.2903 -261.2903 L 261.2903 -319.3548"/><path stroke="#000" stroke-width="2" d="M 261.2903 -319.3548 L 319.3548 -319.3548"/><path stroke="#000" stroke-width="2" d="M 319.3548 -319.3548 L 319.3548 -261.2903"/><path stroke="#000" stroke-width="2" d="M 319.3548 -261.2903 L 377.4194 -261.2903"/><path stroke="#000" stroke-width="2" d="M 377.4194 -261.2903 L 435.4839 -261.2903"/><path stroke="#000" stroke-width="2" d="M 435.4839 -261.2903 L 435.4839 -319.3548"/><path stroke="#000" stroke-width="2" d="M 435.4839 -319.3548 L 377.4194 -319.3548"/><path stroke="#000" stroke-width="2" d="M 377.4194 -319.3548 L 377.4194 -377.4194"/><path stroke="#000" stroke-width="2" d="M 377.4194 -377.4194 L 435.4839 -377.4194"/><path stroke="#000" stroke-width="2" d="M 435.4839 -377.4194 L 435.4839 -435.4839"/><path stroke="#000" stroke-width="2" d="M 435.4839 -435.4839 L 377.4194 -435.4839"/><path stroke="#000" stroke-width="2" d="M 377.4194 -435.4839 L 319.3548 -435.4839"/><path stroke="#000" stroke-width="2" d="M 319.3548 -435.4839 L 319.3548 -377.4194"/><path stroke="#000" stroke-width="2" d="M 319.3548 -377.4194 L 261.2903 -377.4194"/><path stroke="#000" stroke-width="2" d="M 261.2903 -377.4194 L 261.2903 -435.4839"/><path stroke="#000" stroke-width="2" d="M 261.2903 -435.4839 L 203.2258 -435.4839"/><path stroke="#000" stroke-width="2" d="M 203.2258 -435.4839 L 145.1613 -435.4839"/><path stroke="#000" stroke-width="2" d="M 145.1613 -435.4839 L 145.1613 -377.4194"/><path stroke="#000" stroke-width="2" d="M 145.1613 -377.4194 L 203.2258 -377.4194"/><path stroke="#000" stroke-width="2" d="M 203.2258 -377.4194 L 203.2258 -319.3548"/><path stroke="#000" stroke-width="2" d="M 203.2258 -319.3548 L 203.2258 -261.2903"/><path stroke="#000" stroke-width="2" d="M 203.2258 -261.2903 L 145.1613 -261.2903"/><path stroke="#000" stroke-width="2" d="M 145.1613 -261.2903 L 145.1613 -319.3548"/><path stroke="#000" stroke-width="2" d="M 145.1613 -319.3548 L 87.0968 -319.3548"/><path stroke="#000" stroke-width="2" d="M 87.0968 -319.3548 L 87.0968 -261.2903"/><path stroke="#000" stroke-width="2" d="M 87.0968 -261.2903 L 29.0323 -261.2903"/><path stroke="#000" stroke-width="2" d="M 29.0323 -261.2903 L 29.0323 -319.3548"/><path stroke="#000" stroke-width="2" d="M 29.0323 -319.3548 L 29.0323 -377.4194"/><path stroke="#000" stroke-width="2" d="M 29.0323 -377.4194 L 87.0968 -377.4194"/><path stroke="#000" stroke-width="2" d="M 87.0968 -377.4194 L 87.0968 -435.4839"/><path stroke="#000" stroke-width="2" d="M 87.0968 -435.4839 L 29.0323 -435.4839"/><path stroke="#000" stroke-width="2" d="M 29.0323 -435.4839 L 29.0323 -493.5484"/><path stroke="#000" stroke-width="2" d="M 29.0323 -493.5484 L 29.0323 -551.6129"/><path stroke="#000" stroke-width="2" d="M 29.0323 -551.6129 L 87.0968 -551.6129"/><path stroke="#000" stroke-width="2" d="M 87.0968 -551.6129 L 87.0968 -493.5484"/><path stroke="#000" stroke-width="2" d="M 87.0968 -493.5484 L 145.1613 -493.5484"/><path stroke="#000" stroke-width="2" d="M 145.1613 -493.5484 L 203.2258 -493.5484"/><path stroke="#000" stroke-width="2" d="M 203.2258 -493.5484 L 203.2258 -551.6129"/><path stroke="#000" stroke-width="2" d="M 203.2258 -551.6129 L 145.1613 -551.6129"/><path stroke="#000" stroke-width="2" d="M 145.1613 -551.6129 L 145.1613 -609.6774"/><path stroke="#000" stroke-width="2" d="M 145.1613 -609.6774 L 203.2258 -609.6774"/><path stroke="#000" stroke-width="2" d="M 203.2258 -609.6774 L 203.2258 -667.7419"/><path stroke="#000" stroke-width="2" d="M 203.2258 -667.7419 L 145.1613 -667.7419"/><path stroke="#000" stroke-width="2" d="M 145.1613 -667.7419 L 87.0968 -667.7419"/><path stroke="#000" stroke-width="2" d="M 87.0968 -667.7419 L 87.0968 -609.6774"/><path stroke="#000" stroke-width="2" d="M 87.0968 -609.6774 L 29.0323 -609.6774"/><path stroke="#000" stroke-width="2" d="M 29.0323 -609.6774 L 29.0323 -667.7419"/><path stroke="#000" stroke-width="2" d="M 29.0323 -667.7419 L 29.0323 -725.8065"/><path stroke="#000" stroke-width="2" d="M 29.0323 -725.8065 L 87.0968 -725.8065"/><path stroke="#000" stroke-width="2" d="M 87.0968 -725.8065 L 87.0968 -783.871"/><path stroke="#000" stroke-width="2" d="M 87.0968 -783.871 L 29.0323 -783.871"/><path stroke="#000" stroke-width="2" d="M 29.0323 -783.871 L 29.0323 -841.9355"/><path stroke="#000" stroke-width="2" d="M 29.0323 -841.9355 L 29.0323 -900"/><path stroke="#000" stroke-width="2" d="M 29.0323 -900 L 87.0968 -900"/><path stroke="#000" stroke-width="2" d="M 87.0968 -900 L 87.0968 -841.9355"/><path stroke="#000" stroke-width="2" d="M 87.0968 -841.9355 L 145.1613 -841.9355"/><path stroke="#000" stroke-width="2" d="M 145.1613 -841.9355 L 145.1613 -900"/><path stroke="#000" stroke-width="2" d="M 145.1613 -900 L 203.2258 -900"/><path stroke="#000" stroke-width="2" d="M 203.2258 -900 L 203.2258 -841.9355"/><path stroke="#000" stroke-width="2" d="M 203.2258 -841.9355 L 203.2258 -783.871"/><path stroke="#000" stroke-width="2" d="M 203.2258 -783.871 L 145.1613 -783.871"/><path stroke="#000" stroke-width="2" d="M 145.1613 -783.871 L 145.1613 -725.8065"/><path stroke="#000" stroke-width="2" d="M 145.1613 -725.8065 L 203.2258 -725.8065"/><path stroke="#000" stroke-width="2" d="M 203.2258 -725.8065 L 261.2903 -725.8065"/><path stroke="#000" stroke-width="2" d="M 261.2903 -725.8065 L 319.3548 -725.8065"/><path stroke="#000" stroke-width="2" d="M 319.3548 -725.8065 L 319.3548 -783.871"/><path stroke="#000" stroke-width="2" d="M 319.3548 -783.871 L 261.2903 -783.871"/><path stroke="#000" stroke-width="2" d="M 261.2903 -783.871 L 261.2903 -841.9355"/><path stroke="#000" stroke-width="2" d="M 261.2903 -841.9355 L 261.2903 -900"/><path stroke="#000" stroke-width="2" d="M 261.2903 -900 L 319.3548 -900"/><path stroke="#000" stroke-width="2" d="M 319.3548 -900 L 319.3548 -841.9355"/><path stroke="#000" stroke-width="2" d="M 319.3548 -841.9355 L 377.4194 -841.9355"/><path stroke="#000" stroke-width="2" d="M 377.4194 -841.9355 L 377.4194 -900"/><path stroke="#000" stroke-width="2" d="M 377.4194 -900 L 435.4839 -900"/><path stroke="#000" stroke-width="2" d="M 435.4839 -900 L 435.4839 -841.9355"/><path stroke="#000" stroke-width="2" d="M 435.4839 -841.9355 L 435.4839 -783.871"/><path stroke="#000" stroke-width="2" d="M 435.4839 -783.871 L 377.4194 -783.871"/><path stroke="#000" stroke-width="2" d="M 377.4194 -783.871 L 377.4194 -725.8065"/><path stroke="#000" stroke-width="2" d="M 377.4194 -725.8065 L 435.4839 -725.8065"/><path stroke="#000" stroke-width="2" d="M 435.4839 -725.8065 L 435.4839 -667.7419"/><path stroke="#000" stroke-width="2" d="M 435.4839 -667.7419 L 435.4839 -609.6774"/><path stroke="#000" stroke-width="2" d="M 435.4839 -609.6774 L 377.4194 -609.6774"/><path stroke="#000" stroke-width="2" d="M 377.4194 -609.6774 L 377.4194 -667.7419"/><path stroke="#000" stroke-width="2" d="M 377.4194 -667.7419 L 319.3548 -667.7419"/><path stroke="#000" stroke-width="2" d="M 319.3548 -667.7419 L 261.2903 -667.7419"/><path stroke="#000" stroke-width="2" d="M 261.2903 -667.7419 L 261.2903 -609.6774"/><path stroke="#000" stroke-width="2" d="M 261.2903 -609.6774 L 319.3548 -609.6774"/><path stroke="#000" stroke-width="2" d="M 319.3548 -609.6774 L 319.3548 -551.6129"/><path stroke="#000" stroke-width="2" d="M 319.3548 -551.6129 L 261.2903 -551.6129"/><path stroke="#000" stroke-width="2" d="M 261.2903 -551.6129 L 261.2903 -493.5484"/><path stroke="#000" stroke-width="2" d="M 261.2903 -493.5484 L 319.3548 -493.5484"/><path stroke="#000" stroke-width="2" d="M 319.3548 -493.5484 L 377.4194 -493.5484"/><path stroke="#000" stroke-width="2" d="M 377.4194 -493.5484 L 377.4194 -551.6129"/><path stroke="#000" stroke-width="2" d="M 377.4194 -551.6129 L 435.4839 -551.6129"/><path stroke="#000" stroke-width="2" d="M 435.4839 -551.6129 L 435.4839 -493.5484"/><path stroke="#000" stroke-width="2" d="M 435.4839 -493.5484 L 493.5484 -493.5484"/><path stroke="#000" stroke-width="2" d="M 493.5484 -493.5484 L 493.5484 -551.6129"/><path stroke="#000" stroke-width="2" d="M 493.5484 -551.6129 L 551.6129 -551.6129"/><path stroke="#000" stroke-width="2" d="M 551.6129 -551.6129 L 551.6129 -493.5484"/><path stroke="#000" stroke-width="2" d="M 551.6129 -493.5484 L 609.6774 -493.5484"/><path stroke="#000" stroke-width="2" d="M 609.6774 -493.5484 L 667.7419 -493.5484"/><path stroke="#000" stroke-width="2" d="M 667.7419 -493.5484 L 667.7419 -551.6129"/><path stroke="#000" stroke-width="2" d="M 667.7419 -551.6129 L 609.6774 -551.6129"/><path stroke="#000" stroke-width="2" d="M 609.6774 -551.6129 L 609.6774 -609.6774"/><path stroke="#000" stroke-width="2" d="M 609.6774 -609.6774 L 667.7419 -609.6774"/><path stroke="#000" stroke-width="2" d="M 667.7419 -609.6774 L 667.7419 -667.7419"/><path stroke="#000" stroke-width="2" d="M 667.7419 -667.7419 L 609.6774 -667.7419"/><path stroke="#000" stroke-width="2" d="M 609.6774 -667.7419 L 551.6129 -667.7419"/><path stroke="#000" stroke-width="2" d="M 551.6129 -667.7419 L 551.6129 -609.6774"/><path stroke="#000" stroke-width="2" d="M 551.6129 -609.6774 L 493.5484 -609.6774"/><path stroke="#000" stroke-width="2" d="M 493.5484 -609.6774 L 493.5484 -667.7419"/><path stroke="#000" stroke-width="2" d="M 493.5484 -667.7419 L 493.5484 -725.8065"/><path stroke="#000" stroke-width="2" d="M 493.5484 -725.8065 L 551.6129 -725.8065"/><path stroke="#000" stroke-width="2" d="M 551.6129 -725.8065 L 551.6129 -783.871"/><path stroke="#000" stroke-width="2" d="M 551.6129 -783.871 L 493.5484 -783.871"/><path stroke="#000" stroke-width="2" d="M 493.5484 -783.871 L 493.5484 -841.9355"/><path stroke="#000" stroke-width="2" d="M 493.5484 -841.9355 L 493.5484 -900"/><path stroke="#000" stroke-width="2" d="M 493.5484 -900 L 551.6129 -900"/><path stroke="#000" stroke-width="2" d="M 551.6129 -900 L 551.6129 -841.9355"/><path stroke="#000" stroke-width="2" d="M 551.6129 -841.9355 L 609.6774 -841.9355"/><path stroke="#000" stroke-width="2" d="M 609.6774 -841.9355 L 609.6774 -900"/><path stroke="#000" stroke-width="2" d="M 609.6774 -900 L 667.7419 -900"/><path stroke="#000" stroke-width="2" d="M 667.7419 -900 L 667.7419 -841.9355"/><path stroke="#000" stroke-width="2" d="M 667.7419 -841.9355 L 667.7419 -783.871"/><path stroke="#000" stroke-width="2" d="M 667.7419 -783.871 L 609.6774 -783.871"/><path stroke="#000" stroke-width="2" d="M 609.6774 -783.871 L 609.6774 -725.8065"/><path stroke="#000" stroke-width="2" d="M 609.6774 -725.8065 L 667.7419 -725.8065"/><path stroke="#000" stroke-width="2" d="M 667.7419 -725.8065 L 725.8065 -725.8065"/><path stroke="#000" stroke-width="2" d="M 725.8065 -725.8065 L 783.871 -725.8065"/><path stroke="#000" stroke-width="2" d="M 783.871 -725.8065 L 783.871 -783.871"/><path stroke="#000" stroke-width="2" d="M 783.871 -783.871 L 725.8065 -783.871"/><path stroke="#000" stroke-width="2" d="M 725.8065 -783.871 L 725.8065 -841.9355"/><path stroke="#000" stroke-width="2" d="M 725.8065 -841.9355 L 725.8065 -900"/><path stroke="#000" stroke-width="2" d="M 725.8065 -900 L 783.871 -900"/><path stroke="#000" stroke-width="2" d="M 783.871 -900 L 783.871 -841.9355"/><path stroke="#000" stroke-width="2" d="M 783.871 -841.9355 L 841.9355 -841.9355"/><path stroke="#000" stroke-width="2" d="M 841.9355 -841.9355 L 841.9355 -900"/><path stroke="#000" stroke-width="2" d="M 841.9355 -900 L 900 -900"/><path stroke="#000" stroke-width="2" d="M 900 -900 L 900 -841.9355"/><path stroke="#000" stroke-width="2" d="M 900 -841.9355 L 900 -783.871"/><path stroke="#000" stroke-width="2" d="M 900 -783.871 L 841.9355 -783.871"/><path stroke="#000" stroke-width="2" d="M 841.9355 -783.871 L 841.9355 -725.8065"/><path stroke="#000" stroke-width="2" d="M 841.9355 -725.8065 L 900 -725.8065"/><path stroke="#000" stroke-width="2" d="M 900 -725.8065 L 900 -667.7419"/><path stroke="#000" stroke-width="2" d="M 900 -667.7419 L 900 -609.6774"/><path stroke="#000" stroke-width="2" d="M 900 -609.6774 L 841.9355 -609.6774"/><path stroke="#000" stroke-width="2" d="M 841.9355 -609.6774 L 841.9355 -667.7419"/><path stroke="#000" stroke-width="2" d="M 841.9355 -667.7419 L 783.871 -667.7419"/><path stroke="#000" stroke-width="2" d="M 783.871 -667.7419 L 725.8065 -667.7419"/><path stroke="#000" stroke-width="2" d="M 725.8065 -667.7419 L 725.8065 -609.6774"/><path stroke="#000" stroke-width="2" d="M 725.8065 -609.6774 L 783.871 -609.6774"/><path stroke="#000" stroke-width="2" d="M 783.871 -609.6774 L 783.871 -551.6129"/><path stroke="#000" stroke-width="2" d="M 783.871 -551.6129 L 725.8065 -551.6129"/><path stroke="#000" stroke-width="2" d="M 725.8065 -551.6129 L 725.8065 -493.5484"/><path stroke="#000" stroke-width="2" d="M 725.8065 -493.5484 L 783.871 -493.5484"/><path stroke="#000" stroke-width="2" d="M 783.871 -493.5484 L 841.9355 -493.5484"/><path stroke="#000" stroke-width="2" d="M 841.9355 -493.5484 L 841.9355 -551.6129"/><path stroke="#000" stroke-width="2" d="M 841.9355 -551.6129 L 900 -551.6129"/><path stroke="#000" stroke-width="2" d="M 900 -551.6129 L 900 -493.5484"/><path stroke="#000" stroke-width="2" d="M 900 -493.5484 L 900 -435.4839"/><path stroke="#000" stroke-width="2" d="M 900 -435.4839 L 841.9355 -435.4839"/><path stroke="#000" stroke-width="2" d="M 841.9355 -435.4839 L 841.9355 -377.4194"/><path stroke="#000" stroke-width="2" d="M 841.9355 -377.4194 L 900 -377.4194"/><path stroke="#000" stroke-width="2" d="M 900 -377.4194 L 900 -319.3548"/><path stroke="#000" stroke-width="2" d="M 900 -319.3548 L 900 -261.2903"/><path stroke="#000" stroke-width="2" d="M 900 -261.2903 L 841.9355 -261.2903"/><path stroke="#000" stroke-width="2" d="M 841.9355 -261.2903 L 841.9355 -319.3548"/><path stroke="#000" stroke-width="2" d="M 841.9355 -319.3548 L 783.871 -319.3548"/><path stroke="#000" stroke-width="2" d="M 783.871 -319.3548 L 783.871 -261.2903"/><path stroke="#000" stroke-width="2" d="M 783.871 -261.2903 L 725.8065 -261.2903"/><path stroke="#000" stroke-width="2" d="M 725.8065 -261.2903 L 725.8065 -319.3548"/><path stroke="#000" stroke-width="2" d="M 725.8065 -319.3548 L 725.8065 -377.4194"/><path stroke="#000" stroke-width="2" d="M 725.8065 -377.4194 L 783.871 -377.4194"/><path stroke="#000" stroke-width="2" d="M 783.871 -377.4194 L 783.871 -435.4839"/><path stroke="#000" stroke-width="2" d="M 783.871 -435.4839 L 725.8065 -435.4839"/><path stroke="#000" stroke-width="2" d="M 725.8065 -435.4839 L 667.7419 -435.4839"/><path stroke="#000" stroke-width="2" d="M 667.7419 -435.4839 L 667.7419 -377.4194"/><path stroke="#000" stroke-width="2" d="M 667.7419 -377.4194 L 609.6774 -377.4194"/><path stroke="#000" stroke-width="2" d="M 609.6774 -377.4194 L 609.6774 -435.4839"/><path stroke="#000" stroke-width="2" d="M 609.6774 -435.4839 L 551.6129 -435.4839"/><path stroke="#000" stroke-width="2" d="M 551.6129 -435.4839 L 493.5484 -435.4839"/><path stroke="#000" stroke-width="2" d="M 493.5484 -435.4839 L 493.5484 -377.4194"/><path stroke="#000" stroke-width="2" d="M 493.5484 -377.4194 L 551.6129 -377.4194"/><path stroke="#000" stroke-width="2" d="M 551.6129 -377.4194 L 551.6129 -319.3548"/><path stroke="#000" stroke-width="2" d="M 551.6129 -319.3548 L 493.5484 -319.3548"/><path stroke="#000" stroke-width="2" d="M 493.5484 -319.3548 L 493.5484 -261.2903"/><path stroke="#000" stroke-width="2" d="M 493.5484 -261.2903 L 551.6129 -261.2903"/><path stroke="#000" stroke-width="2" d="M 551.6129 -261.2903 L 609.6774 -261.2903"/><path stroke="#000" stroke-width="2" d="M 609.6774 -261.2903 L 609.6774 -319.3548"/><path stroke="#000" stroke-width="2" d="M 609.6774 -319.3548 L 667.7419 -319.3548"/><path stroke="#000" stroke-width="2" d="M 667.7419 -319.3548 L 667.7419 -261.2903"/><path stroke="#000" stroke-width="2" d="M 667.7419 -261.2903 L 667.7419 -203.2258"/><path stroke="#000" stroke-width="2" d="M 667.7419 -203.2258 L 667.7419 -145.1613"/><path stroke="#000" stroke-width="2" d="M 667.7419 -145.1613 L 609.6774 -145.1613"/><path stroke="#000" stroke-width="2" d="M 609.6774 -145.1613 L 609.6774 -203.2258"/><path stroke="#000" stroke-width="2" d="M 609.6774 -203.2258 L 551.6129 -203.2258"/><path stroke="#000" stroke-width="2" d="M 551.6129 -203.2258 L 493.5484 -203.2258"/><path stroke="#000" stroke-width="2" d="M 493.5484 -203.2258 L 493.5484 -145.1613"/><path stroke="#000" stroke-width="2" d="M 493.5484 -145.1613 L 551.6129 -145.1613"/><path stroke="#000" stroke-width="2" d="M 551.6129 -145.1613 L 551.6129 -87.0968"/><path stroke="#000" stroke-width="2" d="M 551.6129 -87.0968 L 493.5484 -87.0968"/><path stroke="#000" stroke-width="2" d="M 493.5484 -87.0968 L 493.5484 -29.0323"/><path stroke="#000" stroke-width="2" d="M 493.5484 -29.0323 L 551.6129 -29.0323"/><path stroke="#000" stroke-width="2" d="M 551.6129 -29.0323 L 609.6774 -29.0323"/><path stroke="#000" stroke-width="2" d="M 609.6774 -29.0323 L 609.6774 -87.0968"/><path stroke="#000" stroke-width="2" d="M 609.6774 -87.0968 L 667.7419 -87.0968"/><path stroke="#000" stroke-width="2" d="M 667.7419 -87.0968 L 667.7419 -29.0323"/><path stroke="#000" stroke-width="2" d="M 667.7419 -29.0323 L 725.8065 -29.0323"/><path stroke="#000" stroke-width="2" d="M 725.8065 -29.0323 L 783.871 -29.0323"/><path stroke="#000" stroke-width="2" d="M 783.871 -29.0323 L 783.871 -87.0968"/><path stroke="#000" stroke-width="2" d="M 783.871 -87.0968 L 725.8065 -87.0968"/><path stroke="#000" stroke-width="2" d="M 725.8065 -87.0968 L 725.8065 -145.1613"/><path stroke="#000" stroke-width="2" d="M 725.8065 -145.1613 L 725.8065 -203.2258"/><path stroke="#000" stroke-width="2" d="M 725.8065 -203.2258 L 783.871 -203.2258"/><path stroke="#000" stroke-width="2" d="M 783.871 -203.2258 L 783.871 -145.1613"/><path stroke="#000" stroke-width="2" d="M 783.871 -145.1613 L 841.9355 -145.1613"/><path stroke="#000" stroke-width="2" d="M 841.9355 -145.1613 L 841.9355 -203.2258"/><path stroke="#000" stroke-width="2" d="M 841.9355 -203.2258 L 900 -203.2258"/><path stroke="#000" stroke-width="2" d="M 900 -203.2258 L 900 -145.1613"/><path stroke="#000" stroke-width="2" d="M 900 -145.1613 L 900 -87.0968"/><path stroke="#000" stroke-width="2" d="M 900 -87.0968 L 841.9355 -87.0968"/><path stroke="#000" stroke-width="2" d="M 841.9355 -87.0968 L 841.9355 -29.0323"/><path stroke="#000" stroke-width="2" d="M 841.9355 -29.0323 L 900 -29.0323"/><path stroke="#000" stroke-width="2" d="M 900 -29.0323 L 900 29.0323"/><path stroke="#000" stroke-width="2" d="M 900 29.0323 L 900 87.0968"/><path stroke="#000" stroke-width="2" d="M 900 87.0968 L 841.9355 87.0968"/><path stroke="#000" stroke-width="2" d="M 841.9355 87.0968 L 841.9355 29.0323"/><path stroke="#000" stroke-width="2" d="M 841.9355 29.0323 L 783.871 29.0323"/><path stroke="#000" stroke-width="2" d="M 783.871 29.0323 L 725.8065 29.0323"/><path stroke="#000" stroke-width="2" d="M 725.8065 29.0323 L 725.8065 87.0968"/><path stroke="#000" stroke-width="2" d="M 725.8065 87.0968 L 783.871 87.0968"/><path stroke="#000" stroke-width="2" d="M 783.871 87.0968 L 783.871 145.1613"/><path stroke="#000" stroke-width="2" d="M 783.871 145.1613 L 725.8065 145.1613"/><path stroke="#000" stroke-width="2" d="M 725.8065 145.1613 L 725.8065 203.2258"/><path stroke="#000" stroke-width="2" d="M 725.8065 203.2258 L 783.871 203.2258"/><path stroke="#000" stroke-width="2" d="M 783.871 203.2258 L 841.9355 203.2258"/><path stroke="#000" stroke-width="2" d="M 841.9355 203.2258 L 841.9355 145.1613"/><path stroke="#000" stroke-width="2" d="M 841.9355 145.1613 L 900 145.1613"/><path stroke="#000" stroke-width="2" d="M 900 145.1613 L 900 203.2258"/><path stroke="#000" stroke-width="2" d="M 900 203.2258 L 900 261.2903"/><path stroke="#000" stroke-width="2" d="M 900 261.2903 L 841.9355 261.2903"/><path stroke="#000" stroke-width="2" d="M 841.9355 261.2903 L 841.9355 319.3548"/><path stroke="#000" stroke-width="2" d="M 841.9355 319.3548 L 900 319.3548"/><path stroke="#000" stroke-width="2" d="M 900 319.3548 L 900 377.4194"/><path stroke="#000" stroke-width="2" d="M 900 377.4194 L 900 435.4839"/><path stroke="#000" stroke-width="2" d="M 900 435.4839 L 841.9355 435.4839"/><path stroke="#000" stroke-width="2" d="M 841.9355 435.4839 L 841.9355 377.4194"/><path stroke="#000" stroke-width="2" d="M 841.9355 377.4194 L 783.871 377.4194"/><path stroke="#000" stroke-width="2" d="M 783.871 377.4194 L 783.871 435.4839"/><path stroke="#000" stroke-width="2" d="M 783.871 435.4839 L 725.8065 435.4839"/><path stroke="#000" stroke-width="2" d="M 725.8065 435.4839 L 725.8065 377.4194"/><path stroke="#000" stroke-width="2" d="M 725.8065 377.4194 L 725.8065 319.3548"/><path stroke="#000" stroke-width="2" d="M 725.8065 319.3548 L 783.871 319.3548"/><path stroke="#000" stroke-width="2" d="M 783.871 319.3548 L 783.871 261.2903"/><path stroke="#000" stroke-width="2" d="M 783.871 261.2903 L 725.8065 261.2903"/><path stroke="#000" stroke-width="2" d="M 725.8065 261.2903 L 667.7419 261.2903"/><path stroke="#000" stroke-width="2" d="M 667.7419 261.2903 L 609.6774 261.2903"/><path stroke="#000" stroke-width="2" d="M 609.6774 261.2903 L 609.6774 319.3548"/><path stroke="#000" stroke-width="2" d="M 609.6774 319.3548 L 667.7419 319.3548"/><path stroke="#000" stroke-width="2" d="M 667.7419 319.3548 L 667.7419 377.4194"/><path stroke="#000" stroke-width="2" d="M 667.7419 377.4194 L 667.7419 435.4839"/><path stroke="#000" stroke-width="2" d="M 667.7419 435.4839 L 609.6774 435.4839"/><path stroke="#000" stroke-width="2" d="M 609.6774 435.4839 L 609.6774 377.4194"/><path stroke="#000" stroke-width="2" d="M 609.6774 377.4194 L 551.6129 377.4194"/><path stroke="#000" stroke-width="2" d="M 551.6129 377.4194 L 551.6129 435.4839"/><path stroke="#000" stroke-width="2" d="M 551.6129 435.4839 L 493.5484 435.4839"/><path stroke="#000" stroke-width="2" d="M 493.5484 435.4839 L 493.5484 377.4194"/><path stroke="#000" stroke-width="2" d="M 493.5484 377.4194 L 493.5484 319.3548"/><path stroke="#000" stroke-width="2" d="M 493.5484 319.3548 L 551.6129 319.3548"/><path stroke="#000" stroke-width="2" d="M 551.6129 319.3548 L 551.6129 261.2903"/><path stroke="#000" stroke-width="2" d="M 551.6129 261.2903 L 493.5484 261.2903"/><path stroke="#000" stroke-width="2" d="M 493.5484 261.2903 L 493.5484 203.2258"/><path stroke="#000" stroke-width="2" d="M 493.5484 203.2258 L 493.5484 145.1613"/><path stroke="#000" stroke-width="2" d="M 493.5484 145.1613 L 551.6129 145.1613"/><path stroke="#000" stroke-width="2" d="M 551.6129 145.1613 L 551.6129 203.2258"/><path stroke="#000" stroke-width="2" d="M 551.6129 203.2258 L 609.6774 203.2258"/><path stroke="#000" stroke-width="2" d="M 609.6774 203.2258 L 667.7419 203.2258"/><path stroke="#000" stroke-width="2" d="M 667.7419 203.2258 L 667.7419 145.1613"/><path stroke="#000" stroke-width="2" d="M 667.7419 145.1613 L 609.6774 145.1613"/><path stroke="#000" stroke-width="2" d="M 609.6774 145.1613 L 609.6774 87.0968"/><path stroke="#000" stroke-width="2" d="M 609.6774 87.0968 L 667.7419 87.0968"/><path stroke="#000" stroke-width="2" d="M 667.7419 87.0968 L 667.7419 29.0323"/><path stroke="#000" stroke-width="2" d="M 667.7419 29.0323 L 609.6774 29.0323"/><path stroke="#000" stroke-width="2" d="M 609.6774 29.0323 L 551.6129 29.0323"/><path stroke="#000" stroke-width="2" d="M 551.6129 29.0323 L 551.6129 87.0968"/><path stroke="#000" stroke-width="2" d="M 551.6129 87.0968 L 493.5484 87.0968"/><path stroke="#000" stroke-width="2" d="M 493.5484 87.0968 L 493.5484 29.0323"/><path stroke="#000" stroke-width="2" d="M 493.5484 29.0323 L 435.4839 29.0323"/><path stroke="#000" stroke-width="2" d="M 435.4839 29.0323 L 377.4194 29.0323"/><path stroke="#000" stroke-width="2" d="M 377.4194 29.0323 L 377.4194 87.0968"/><path stroke="#000" stroke-width="2" d="M 377.4194 87.0968 L 435.4839 87.0968"/><path stroke="#000" stroke-width="2" d="M 435.4839 87.0968 L 435.4839 145.1613"/><path stroke="#000" stroke-width="2" d="M 435.4839 145.1613 L 435.4839 203.2258"/><path stroke="#000" stroke-width="2" d="M 435.4839 203.2258 L 377.4194 203.2258"/><path stroke="#000" stroke-width="2" d="M 377.4194 203.2258 L 377.4194 145.1613"/><path stroke="#000" stroke-width="2" d="M 377.4194 145.1613 L 319.3548 145.1613"/><path stroke="#000" stroke-width="2" d="M 319.3548 145.1613 L 319.3548 203.2258"/><path stroke="#000" stroke-width="2" d="M 319.3548 203.2258 L 261.2903 203.2258"/><path stroke="#000" stroke-width="2" d="M 261.2903 203.2258 L 261.2903 145.1613"/><path stroke="#000" stroke-width="2" d="M 261.2903 145.1613 L 261.2903 87.0968"/><path stroke="#000" stroke-width="2" d="M 261.2903 87.0968 L 319.3548 87.0968"/><path stroke="#000" stroke-width="2" d="M 319.3548 87.0968 L 319.3548 29.0323"/><path stroke="#000" stroke-width="2" d="M 319.3548 29.0323 L 261.2903 29.0323"/><path stroke="#000" stroke-width="2" d="M 261.2903 29.0323 L 203.2258 29.0323"/><path stroke="#000" stroke-width="2" d="M 203.2258 29.0323 L 203.2258 87.0968"/><path stroke="#000" stroke-width="2" d="M 203.2258 87.0968 L 145.1613 87.0968"/><path stroke="#000" stroke-width="2" d="M 145.1613 87.0968 L 145.1613 29.0323"/><path stroke="#000" stroke-width="2" d="M 145.1613 29.0323 L 87.0968 29.0323"/><path stroke="#000" stroke-width="2" d="M 87.0968 29.0323 L 29.0323 29.0323"/><path stroke="#000" stroke-width="2" d="M 29.0323 29.0323 L 29.0323 87.0968"/><path stroke="#000" stroke-width="2" d="M 29.0323 87.0968 L 87.0968 87.0968"/><path stroke="#000" stroke-width="2" d="M 87.0968 87.0968 L 87.0968 145.1613"/><path stroke="#000" stroke-width="2" d="M 87.0968 145.1613 L 29.0323 145.1613"/><path stroke="#000" stroke-width="2" d="M 29.0323 145.1613 L 29.0323 203.2258"/><path stroke="#000" stroke-width="2" d="M 29.0323 203.2258 L 87.0968 203.2258"/><path stroke="#000" stroke-width="2" d="M 87.0968 203.2258 L 145.1613 203.2258"/><path stroke="#000" stroke-width="2" d="M 145.1613 203.2258 L 145.1613 145.1613"/><path stroke="#000" stroke-width="2" d="M 145.1613 145.1613 L 203.2258 145.1613"/><path stroke="#000" stroke-width="2" d="M 203.2258 145.1613 L 203.2258 203.2258"/><path stroke="#000" stroke-width="2" d="M 203.2258 203.2258 L 203.2258 261.2903"/><path stroke="#000" stroke-width="2" d="M 203.2258 261.2903 L 203.2258 319.3548"/><path stroke="#000" stroke-width="2" d="M 203.2258 319.3548 L 145.1613 319.3548"/><path stroke="#000" stroke-width="2" d="M 145.1613 319.3548 L 145.1613 261.2903"/><path stroke="#000" stroke-width="2" d="M 145.1613 261.2903 L 87.0968 261.2903"/><path stroke="#000" stroke-width="2" d="M 87.0968 261.2903 L 29.0323 261.2903"/><path stroke="#000" stroke-width="2" d="M 29.0323 261.2903 L 29.0323 319.3548"/><path stroke="#000" stroke-width="2" d="M 29.0323 319.3548 L 87.0968 319.3548"/><path stroke="#000" stroke-width="2" d="M 87.0968 319.3548 L 87.0968 377.4194"/><path stroke="#000" stroke-width="2" d="M 87.0968 377.4194 L 29.0323 377.4194"/><path stroke="#000" stroke-width="2" d="M 29.0323 377.4194 L 29.0323 435.4839"/><path stroke="#000" stroke-width="2" d="M 29.0323 435.4839 L 87.0968 435.4839"/><path stroke="#000" stroke-width="2" d="M 87.0968 435.4839 L 145.1613 435.4839"/><path stroke="#000" stroke-width="2" d="M 145.1613 435.4839 L 145.1613 377.4194"/><path stroke="#000" stroke-width="2" d="M 145.1613 377.4194 L 203.2258 377.4194"/><path stroke="#000" stroke-width="2" d="M 203.2258 377.4194 L 203.2258 435.4839"/><path stroke="#000" stroke-width="2" d="M 203.2258 435.4839 L 261.2903 435.4839"/><path stroke="#000" stroke-width="2" d="M 261.2903 435.4839 L 319.3548 435.4839"/><path stroke="#000" stroke-width="2" d="M 319.3548 435.4839 L 319.3548 377.4194"/><path stroke="#000" stroke-width="2" d="M 319.3548 377.4194 L 261.2903 377.4194"/><path stroke="#000" stroke-width="2" d="M 261.2903 377.4194 L 261.2903 319.3548"/><path stroke="#000" stroke-width="2" d="M 261.2903 319.3548 L 261.2903 261.2903"/><path stroke="#000" stroke-width="2" d="M 261.2903 261.2903 L 319.3548 261.2903"/><path stroke="#000" stroke-width="2" d="M 319.3548 261.2903 L 319.3548 319.3548"/><path stroke="#000" stroke-width="2" d="M 319.3548 319.3548 L 377.4194 319.3548"/><path stroke="#000" stroke-width="2" d="M 377.4194 319.3548 L 377.4194 261.2903"/><path stroke="#000" stroke-width="2" d="M 377.4194 261.2903 L 435.4839 261.2903"/><path stroke="#000" stroke-width="2" d="M 435.4839 261.2903 L 435.4839 319.3548"/><path stroke="#000" stroke-width="2" d="M 435.4839 319.3548 L 435.4839 377.4194"/><path stroke="#000" stroke-width="2" d="M 435.4839 377.4194 L 377.4194 377.4194"/><path stroke="#000" stroke-width="2" d="M 377.4194 377.4194 L 377.4194 435.4839"/><path stroke="#000" stroke-width="2" d="M 377.4194 435.4839 L 435.4839 435.4839"/><path stroke="#000" stroke-width="2" d="M 435.4839 435.4839 L 435.4839 493.5484"/><path stroke="#000" stroke-width="2" d="M 435.4839 493.5484 L 377.4194 493.5484"/><path stroke="#000" stroke-width="2" d="M 377.4194 493.5484 L 377.4194 551.6129"/><path stroke="#000" stroke-width="2" d="M 377.4194 551.6129 L 435.4839 551.6129"/><path stroke="#000" stroke-width="2" d="M 435.4839 551.6129 L 435.4839 609.6774"/><path stroke="#000" stroke-width="2" d="M 435.4839 609.6774 L 435.4839 667.7419"/><path stroke="#000" stroke-width="2" d="M 435.4839 667.7419 L 377.4194 667.7419"/><path stroke="#000" stroke-width="2" d="M 377.4194 667.7419 L 377.4194 609.6774"/><path stroke="#000" stroke-width="2" d="M 377.4194 609.6774 L 319.3548 609.6774"/><path stroke="#000" stroke-width="2" d="M 319.3548 609.6774 L 319.3548 667.7419"/><path stroke="#000" stroke-width="2" d="M 319.3548 667.7419 L 261.2903 667.7419"/><path stroke="#000" stroke-width="2" d="M 261.2903 667.7419 L 261.2903 609.6774"/><path stroke="#000" stroke-width="2" d="M 261.2903 609.6774 L 261.2903 551.6129"/><path stroke="#000" stroke-width="2" d="M 261.2903 551.6129 L 319.3548 551.6129"/><path stroke="#000" stroke-width="2" d="M 319.3548 551.6129 L 319.3548 493.5484"/><path stroke="#000" stroke-width="2" d="M 319.3548 493.5484 L 261.2903 493.5484"/><path stroke="#000" stroke-width="2" d="M 261.2903 493.5484 L 203.2258 493.5484"/><path stroke="#000" stroke-width="2" d="M 203.2258 493.5484 L 203.2258 551.6129"/><path stroke="#000" stroke-width="2" d="M 203.2258 551.6129 L 145.1613 551.6129"/><path stroke="#000" stroke-width="2" d="M 145.1613 551.6129 L 145.1613 493.5484"/><path stroke="#000" stroke-width="2" d="M 145.1613 493.5484 L 87.0968 493.5484"/><path stroke="#000" stroke-width="2" d="M 87.0968 493.5484 L 29.0323 493.5484"/><path stroke="#000" stroke-width="2" d="M 29.0323 493.5484 L 29.0323 551.6129"/><path stroke="#000" stroke-width="2" d="M 29.0323 551.6129 L 87.0968 551.6129"/><path stroke="#000" stroke-width="2" d="M 87.0968 551.6129 L 87.0968 609.6774"/><path stroke="#000" stroke-width="2" d="M 87.0968 609.6774 L 29.0323 609.6774"/><path stroke="#000" stroke-width="2" d="M 29.0323 609.6774 L 29.0323 667.7419"/><path stroke="#000" stroke-width="2" d="M 29.0323 667.7419 L 87.0968 667.7419"/><path stroke="#000" stroke-width="2" d="M 87.0968 667.7419 L 145.1613 667.7419"/><path stroke="#000" stroke-width="2" d="M 145.1613 667.7419 L 145.1613 609.6774"/><path stroke="#000" stroke-width="2" d="M 145.1613 609.6774 L 203.2258 609.6774"/><path stroke="#000" stroke-width="2" d="M 203.2258 609.6774 L 203.2258 667.7419"/><path stroke="#000" stroke-width="2" d="M 203.2258 667.7419 L 203.2258 725.8065"/><path stroke="#000" stroke-width="2" d="M 203.2258 725.8065 L 203.2258 783.871"/><path stroke="#000" stroke-width="2" d="M 203.2258 783.871 L 145.1613 783.871"/><path stroke="#000" stroke-width="2" d="M 145.1613 783.871 L 145.1613 725.8065"/><path stroke="#000" stroke-width="2" d="M 145.1613 725.8065 L 87.0968 725.8065"/><path stroke="#000" stroke-width="2" d="M 87.0968 725.8065 L 29.0323 725.8065"/><path stroke="#000" stroke-width="2" d="M 29.0323 725.8065 L 29.0323 783.871"/><path stroke="#000" stroke-width="2" d="M 29.0323 783.871 L 87.0968 783.871"/><path stroke="#000" stroke-width="2" d="M 87.0968 783.871 L 87.0968 841.9355"/><path stroke="#000" stroke-width="2" d="M 87.0968 841.9355 L 29.0323 841.9355"/><path stroke="#000" stroke-width="2" d="M 29.0323 841.9355 L 29.0323 900"/><path stroke="#000" stroke-width="2" d="M 29.0323 900 L 87.0968 900"/><path stroke="#000" stroke-width="2" d="M 87.0968 900 L 145.1613 900"/><path stroke="#000" stroke-width="2" d="M 145.1613 900 L 145.1613 841.9355"/><path stroke="#000" stroke-width="2" d="M 145.1613 841.9355 L 203.2258 841.9355"/><path stroke="#000" stroke-width="2" d="M 203.2258 841.9355 L 203.2258 900"/><path stroke="#000" stroke-width="2" d="M 203.2258 900 L 261.2903 900"/><path stroke="#000" stroke-width="2" d="M 261.2903 900 L 319.3548 900"/><path stroke="#000" stroke-width="2" d="M 319.3548 900 L 319.3548 841.9355"/><path stroke="#000" stroke-width="2" d="M 319.3548 841.9355 L 261.2903 841.9355"/><path stroke="#000" stroke-width="2" d="M 261.2903 841.9355 L 261.2903 783.871"/><path stroke="#000" stroke-width="2" d="M 261.2903 783.871 L 261.2903 725.8065"/><path stroke="#000" stroke-width="2" d="M 261.2903 725.8065 L 319.3548 725.8065"/><path stroke="#000" stroke-width="2" d="M 319.3548 725.8065 L 319.3548 783.871"/><path stroke="#000" stroke-width="2" d="M 319.3548 783.871 L 377.4194 783.871"/><path stroke="#000" stroke-width="2" d="M 377.4194 783.871 L 377.4194 725.8065"/><path stroke="#000" stroke-width="2" d="M 377.4194 725.8065 L 435.4839 725.8065"/><path stroke="#000" stroke-width="2" d="M 435.4839 725.8065 L 435.4839 783.871"/><path stroke="#000" stroke-width="2" d="M 435.4839 783.871 L 435.4839 841.9355"/><path stroke="#000" stroke-width="2" d="M 435.4839 841.9355 L 377.4194 841.9355"/><path stroke="#000" stroke-width="2" d="M 377.4194 841.9355 L 377.4194 900"/><path stroke="#000" stroke-width="2" d="M 377.4194 900 L 435.4839 900"/><path stroke="#000" stroke-width="2" d="M 435.4839 900 L 493.5484 900"/><path stroke="#000" stroke-width="2" d="M 493.5484 900 L 493.5484 841.9355"/><path stroke="#000" stroke-width="2" d="M 493.5484 841.9355 L 551.6129 841.9355"/><path stroke="#000" stroke-width="2" d="M 551.6129 841.9355 L 551.6129 900"/><path stroke="#000" stroke-width="2" d="M 551.6129 900 L 609.6774 900"/><path stroke="#000" stroke-width="2" d="M 609.6774 900 L 667.7419 900"/><path stroke="#000" stroke-width="2" d="M 667.7419 900 L 667.7419 841.9355"/><path stroke="#000" stroke-width="2" d="M 667.7419 841.9355 L 609.6774 841.9355"/><path stroke="#000" stroke-width="2" d="M 609.6774 841.9355 L 609.6774 783.871"/><path stroke="#000" stroke-width="2" d="M 609.6774 783.871 L 667.7419 783.871"/><path stroke="#000" stroke-width="2" d="M 667.7419 783.871 L 667.7419 725.8065"/><path stroke="#000" stroke-width="2" d="M 667.7419 725.8065 L 609.6774 725.8065"/><path stroke="#000" stroke-width="2" d="M 609.6774 725.8065 L 551.6129 725.8065"/><path stroke="#000" stroke-width="2" d="M 551.6129 725.8065 L 551.6129 783.871"/><path stroke="#000" stroke-width="2" d="M 551.6129 783.871 L 493.5484 783.871"/><path stroke="#000" stroke-width="2" d="M 493.5484 783.871 L 493.5484 725.8065"/><path stroke="#000" stroke-width="2" d="M 493.5484 725.8065 L 493.5484 667.7419"/><path stroke="#000" stroke-width="2" d="M 493.5484 667.7419 L 551.6129 667.7419"/><path stroke="#000" stroke-width="2" d="M 551.6129 667.7419 L 551.6129 609.6774"/><path stroke="#000" stroke-width="2" d="M 551.6129 609.6774 L 493.5484 609.6774"/><path stroke="#000" stroke-width="2" d="M 493.5484 609.6774 L 493.5484 551.6129"/><path stroke="#000" stroke-width="2" d="M 493.5484 551.6129 L 493.5484 493.5484"/><path stroke="#000" stroke-width="2" d="M 493.5484 493.5484 L 551.6129 493.5484"/><path stroke="#000" stroke-width="2" d="M 551.6129 493.5484 L 551.6129 551.6129"/><path stroke="#000" stroke-width="2" d="M 551.6129 551.6129 L 609.6774 551.6129"/><path stroke="#000" stroke-width="2" d="M 609.6774 551.6129 L 609.6774 493.5484"/><path stroke="#000" stroke-width="2" d="M 609.6774 493.5484 L 667.7419 493.5484"/><path stroke="#000" stroke-width="2" d="M 667.7419 493.5484 L 667.7419 551.6129"/><path stroke="#000" stroke-width="2" d="M 667.7419 551.6129 L 667.7419 609.6774"/><path stroke="#000" stroke-width="2" d="M 667.7419 609.6774 L 609.6774 609.6774"/><path stroke="#000" stroke-width="2" d="M 609.6774 609.6774 L 609.6774 667.7419"/><path stroke="#000" stroke-width="2" d="M 609.6774 667.7419 L 667.7419 667.7419"/><path stroke="#000" stroke-width="2" d="M 667.7419 667.7419 L 725.8065 667.7419"/><path stroke="#000" stroke-width="2" d="M 725.8065 667.7419 L 783.871 667.7419"/><path stroke="#000" stroke-width="2" d="M 783.871 667.7419 L 783.871 609.6774"/><path stroke="#000" stroke-width="2" d="M 783.871 609.6774 L 725.8065 609.6774"/><path stroke="#000" stroke-width="2" d="M 725.8065 609.6774 L 725.8065 551.6129"/><path stroke="#000" stroke-width="2" d="M 725.8065 551.6129 L 725.8065 493.5484"/><path stroke="#000" stroke-width="2" d="M 725.8065 493.5484 L 783.871 493.5484"/><path stroke="#000" stroke-width="2" d="M 783.871 493.5484 L 783.871 551.6129"/><path stroke="#000" stroke-width="2" d="M 783.871 551.6129 L 841.9355 551.6129"/><path stroke="#000" stroke-width="2" d="M 841.9355 551.6129 L 841.9355 493.5484"/><path stroke="#000" stroke-width="2" d="M 841.9355 493.5484 L 900 493.5484"/><path stroke="#000" stroke-width="2" d="M 900 493.5484 L 900 551.6129"/><path stroke="#000" stroke-width="2" d="M 900 551.6129 L 900 609.6774"/><path stroke="#000" stroke-width="2" d="M 900 609.6774 L 841.9355 609.6774"/><path stroke="#000" stroke-width="2" d="M 841.9355 609.6774 L 841.9355 667.7419"/><path stroke="#000" stroke-width="2" d="M 841.9355 667.7419 L 900 667.7419"/><path stroke="#000" stroke-width="2" d="M 900 667.7419 L 900 725.8065"/><path stroke="#000" stroke-width="2" d="M 900 725.8065 L 900 783.871"/><path stroke="#000" stroke-width="2" d="M 900 783.871 L 841.9355 783.871"/><path stroke="#000" stroke-width="2" d="M 841.9355 783.871 L 841.9355 725.8065"/><path stroke="#000" stroke-width="2" d="M 841.9355 725.8065 L 783.871 725.8065"/><path stroke="#000" stroke-width="2" d="M 783.871 725.8065 L 725.8065 725.8065"/><path stroke="#000" stroke-width="2" d="M 725.8065 725.8065 L 725.8065 783.871"/><path stroke="#000" stroke-width="2" d="M 725.8065 783.871 L 783.871 783.871"/><path stroke="#000" stroke-width="2" d="M 783.871 783.871 L 783.871 841.9355"/><path stroke="#000" stroke-width="2" d="M 783.871 841.9355 L 725.8065 841.9355"/><path stroke="#000" stroke-width="2" d="M 725.8065 841.9355 L 725.8065 900"/><path stroke="#000" stroke-width="2" d="M 725.8065 900 L 783.871 900"/><path stroke="#000" stroke-width="2" d="M 783.871 900 L 841.9355 900"/><path stroke="#000" stroke-width="2" d="M 841.9355 900 L 841.9355 841.9355"/><path stroke="#000" stroke-width="2" d="M 841.9355 841.9355 L 900 841.9355"/><path stroke="#000" stroke-width="2" d="M 900 841.9355 L 900 900"/></g></svg>