<svg
	xmlns="http://www.w3.org/2000/svg"
	viewBox="0 0 1600 1600"
	xml:space="preserve"
	stroke-linecap="round"
	stroke-linejoin="round"
	stroke="#000"
	stroke-width="4px"
	fill="transparent"
>
<polyline points="50,1302.5 65,1302.5 80,1302.5 80,1317.5 95,1317.5 110,1317.5 110,1302.5 110,1287.5 95,1287.5 95,1272.5 95,1257.5 110,1257.5 110,1242.5 110,1227.5 95,1227.5 80,1227.5 80,1242.5 65,1242.5 50,1242.5 50,1227.5 50,1212.5 65,1212.5 65,1197.5 65,1182.5 50,1182.5 50,1167.5 50,1152.5 65,1152.5 80,1152.5 80,1167.5 95,1167.5 110,1167.5 110,1152.5 125,1152.5 140,1152.5 140,1167.5 140,1182.5 125,1182.5 125,1197.5 125,1212.5 140,1212.5 155,1212.5 155,1197.5 170,1197.5 185,1197.5 185,1212.5 200,1212.5 215,1212.5 215,1197.5 215,1182.5 200,1182.5 200,1167.5 200,1152.5 215,1152.5 230,1152.5 230,1167.5 245,1167.5 260,1167.5 260,1152.5 275,1152.5 290,1152.5 290,1167.5 290,1182.5 275,1182.5 275,1197.5 275,1212.5 290,1212.5 290,1227.5 290,1242.5 275,1242.5 260,1242.5 260,1227.5 245,1227.5 230,1227.5 230,1242.5 230,1257.5 245,1257.5 245,1272.5 245,1287.5 230,1287.5 230,1302.5 230,1317.5 245,1317.5 260,1317.5 260,1302.5 275,1302.5 290,1302.5 290,1317.5 305,1317.5 320,1317.5 320,1302.5 320,1287.5 305,1287.5 305,1272.5 305,1257.5 320,1257.5 335,1257.5 335,1272.5 350,1272.5 365,1272.5 365,1257.5 380,1257.5 395,1257.5 395,1272.5 395,1287.5 380,1287.5 380,1302.5 380,1317.5 395,1317.5 410,1317.5 410,1302.5 425,1302.5 440,1302.5 440,1317.5 455,1317.5 470,1317.5 470,1302.5 470,1287.5 455,1287.5 455,1272.5 455,1257.5 470,1257.5 470,1242.5 470,1227.5 455,1227.5 440,1227.5 440,1242.5 425,1242.5 410,1242.5 410,1227.5 410,1212.5 425,1212.5 425,1197.5 425,1182.5 410,1182.5 410,1167.5 410,1152.5 425,1152.5 440,1152.5 440,1167.5 455,1167.5 470,1167.5 470,1152.5 470,1137.5 455,1137.5 455,1122.5 455,1107.5 470,1107.5 470,1092.5 470,1077.5 455,1077.5 440,1077.5 440,1092.5 425,1092.5 410,1092.5 410,1077.5 395,1077.5 380,1077.5 380,1092.5 380,1107.5 395,1107.5 395,1122.5 395,1137.5 380,1137.5 365,1137.5 365,1122.5 350,1122.5 335,1122.5 335,1137.5 320,1137.5 305,1137.5 305,1122.5 305,1107.5 320,1107.5 320,1092.5 320,1077.5 305,1077.5 305,1062.5 305,1047.5 320,1047.5 335,1047.5 335,1062.5 350,1062.5 365,1062.5 365,1047.5 365,1032.5 350,1032.5 350,1017.5 350,1002.5 365,1002.5 365,987.5 365,972.5 350,972.5 335,972.5 335,987.5 320,987.5 305,987.5 305,972.5 305,957.5 320,957.5 320,942.5 320,927.5 305,927.5 305,912.5 305,897.5 320,897.5 335,897.5 335,912.5 350,912.5 365,912.5 365,897.5 380,897.5 395,897.5 395,912.5 395,927.5 380,927.5 380,942.5 380,957.5 395,957.5 410,957.5 410,942.5 425,942.5 440,942.5 440,957.5 455,957.5 470,957.5 470,942.5 470,927.5 455,927.5 455,912.5 455,897.5 470,897.5 470,882.5 470,867.5 455,867.5 440,867.5 440,882.5 425,882.5 410,882.5 410,867.5 410,852.5 425,852.5 425,837.5 425,822.5 410,822.5 410,807.5 410,792.5 425,792.5 440,792.5 440,807.5 455,807.5 470,807.5 470,792.5 470,777.5 455,777.5 455,762.5 455,747.5 470,747.5 470,732.5 470,717.5 455,717.5 440,717.5 440,732.5 425,732.5 410,732.5 410,717.5 395,717.5 380,717.5 380,732.5 380,747.5 395,747.5 395,762.5 395,777.5 380,777.5 365,777.5 365,762.5 350,762.5 335,762.5 335,777.5 320,777.5 305,777.5 305,762.5 305,747.5 320,747.5 320,732.5 320,717.5 305,717.5 290,717.5 290,732.5 275,732.5 260,732.5 260,717.5 245,717.5 230,717.5 230,732.5 230,747.5 245,747.5 245,762.5 245,777.5 230,777.5 230,792.5 230,807.5 245,807.5 260,807.5 260,792.5 275,792.5 290,792.5 290,807.5 290,822.5 275,822.5 275,837.5 275,852.5 290,852.5 290,867.5 290,882.5 275,882.5 260,882.5 260,867.5 245,867.5 230,867.5 230,882.5 215,882.5 200,882.5 200,867.5 200,852.5 215,852.5 215,837.5 215,822.5 200,822.5 185,822.5 185,837.5 170,837.5 155,837.5 155,822.5 140,822.5 125,822.5 125,837.5 125,852.5 140,852.5 140,867.5 140,882.5 125,882.5 110,882.5 110,867.5 95,867.5 80,867.5 80,882.5 65,882.5 50,882.5 50,867.5 50,852.5 65,852.5 65,837.5 65,822.5 50,822.5 50,807.5 50,792.5 65,792.5 80,792.5 80,807.5 95,807.5 110,807.5 110,792.5 110,777.5 95,777.5 95,762.5 95,747.5 110,747.5 110,732.5 110,717.5 95,717.5 80,717.5 80,732.5 65,732.5 50,732.5 50,717.5 50,702.5 65,702.5 65,687.5 65,672.5 50,672.5 50,657.5 50,642.5 65,642.5 80,642.5 80,657.5 95,657.5 110,657.5 110,642.5 125,642.5 140,642.5 140,657.5 140,672.5 125,672.5 125,687.5 125,702.5 140,702.5 155,702.5 155,687.5 170,687.5 185,687.5 185,702.5 200,702.5 215,702.5 215,687.5 215,672.5 200,672.5 200,657.5 200,642.5 215,642.5 215,627.5 215,612.5 200,612.5 185,612.5 185,627.5 170,627.5 155,627.5 155,612.5 155,597.5 170,597.5 170,582.5 170,567.5 155,567.5 155,552.5 155,537.5 170,537.5 185,537.5 185,552.5 200,552.5 215,552.5 215,537.5 215,522.5 200,522.5 200,507.5 200,492.5 215,492.5 215,477.5 215,462.5 200,462.5 185,462.5 185,477.5 170,477.5 155,477.5 155,462.5 140,462.5 125,462.5 125,477.5 125,492.5 140,492.5 140,507.5 140,522.5 125,522.5 110,522.5 110,507.5 95,507.5 80,507.5 80,522.5 65,522.5 50,522.5 50,507.5 50,492.5 65,492.5 65,477.5 65,462.5 50,462.5 50,447.5 50,432.5 65,432.5 80,432.5 80,447.5 95,447.5 110,447.5 110,432.5 110,417.5 95,417.5 95,402.5 95,387.5 110,387.5 110,372.5 110,357.5 95,357.5 80,357.5 80,372.5 65,372.5 50,372.5 50,357.5 50,342.5 65,342.5 65,327.5 65,312.5 50,312.5 50,297.5 50,282.5 65,282.5 80,282.5 80,297.5 95,297.5 110,297.5 110,282.5 125,282.5 140,282.5 140,297.5 140,312.5 125,312.5 125,327.5 125,342.5 140,342.5 155,342.5 155,327.5 170,327.5 185,327.5 185,342.5 200,342.5 215,342.5 215,327.5 215,312.5 200,312.5 200,297.5 200,282.5 215,282.5 230,282.5 230,297.5 245,297.5 260,297.5 260,282.5 275,282.5 290,282.5 290,297.5 290,312.5 275,312.5 275,327.5 275,342.5 290,342.5 290,357.5 290,372.5 275,372.5 260,372.5 260,357.5 245,357.5 230,357.5 230,372.5 230,387.5 245,387.5 245,402.5 245,417.5 230,417.5 230,432.5 230,447.5 245,447.5 260,447.5 260,432.5 275,432.5 290,432.5 290,447.5 305,447.5 320,447.5 320,432.5 320,417.5 305,417.5 305,402.5 305,387.5 320,387.5 335,387.5 335,402.5 350,402.5 365,402.5 365,387.5 380,387.5 395,387.5 395,402.5 395,417.5 380,417.5 380,432.5 380,447.5 395,447.5 410,447.5 410,432.5 425,432.5 440,432.5 440,447.5 455,447.5 470,447.5 470,432.5 470,417.5 455,417.5 455,402.5 455,387.5 470,387.5 470,372.5 470,357.5 455,357.5 440,357.5 440,372.5 425,372.5 410,372.5 410,357.5 410,342.5 425,342.5 425,327.5 425,312.5 410,312.5 410,297.5 410,282.5 425,282.5 440,282.5 440,297.5 455,297.5 470,297.5 470,282.5 485,282.5 500,282.5 500,297.5 500,312.5 485,312.5 485,327.5 485,342.5 500,342.5 515,342.5 515,327.5 530,327.5 545,327.5 545,342.5 560,342.5 575,342.5 575,327.5 575,312.5 560,312.5 560,297.5 560,282.5 575,282.5 590,282.5 590,297.5 605,297.5 620,297.5 620,282.5 635,282.5 650,282.5 650,297.5 650,312.5 635,312.5 635,327.5 635,342.5 650,342.5 650,357.5 650,372.5 635,372.5 620,372.5 620,357.5 605,357.5 590,357.5 590,372.5 590,387.5 605,387.5 605,402.5 605,417.5 590,417.5 590,432.5 590,447.5 605,447.5 620,447.5 620,432.5 635,432.5 650,432.5 650,447.5 650,462.5 635,462.5 635,477.5 635,492.5 650,492.5 650,507.5 650,522.5 635,522.5 620,522.5 620,507.5 605,507.5 590,507.5 590,522.5 575,522.5 560,522.5 560,507.5 560,492.5 575,492.5 575,477.5 575,462.5 560,462.5 545,462.5 545,477.5 530,477.5 515,477.5 515,462.5 500,462.5 485,462.5 485,477.5 485,492.5 500,492.5 500,507.5 500,522.5 485,522.5 485,537.5 485,552.5 500,552.5 515,552.5 515,537.5 530,537.5 545,537.5 545,552.5 545,567.5 530,567.5 530,582.5 530,597.5 545,597.5 545,612.5 545,627.5 530,627.5 515,627.5 515,612.5 500,612.5 485,612.5 485,627.5 485,642.5 500,642.5 500,657.5 500,672.5 485,672.5 485,687.5 485,702.5 500,702.5 515,702.5 515,687.5 530,687.5 545,687.5 545,702.5 560,702.5 575,702.5 575,687.5 575,672.5 560,672.5 560,657.5 560,642.5 575,642.5 590,642.5 590,657.5 605,657.5 620,657.5 620,642.5 635,642.5 650,642.5 650,657.5 650,672.5 635,672.5 635,687.5 635,702.5 650,702.5 665,702.5 665,687.5 680,687.5 695,687.5 695,702.5 710,702.5 725,702.5 725,687.5 725,672.5 710,672.5 710,657.5 710,642.5 725,642.5 725,627.5 725,612.5 710,612.5 695,612.5 695,627.5 680,627.5 665,627.5 665,612.5 665,597.5 680,597.5 680,582.5 680,567.5 665,567.5 665,552.5 665,537.5 680,537.5 695,537.5 695,552.5 710,552.5 725,552.5 725,537.5 740,537.5 755,537.5 755,552.5 755,567.5 740,567.5 740,582.5 740,597.5 755,597.5 770,597.5 770,582.5 785,582.5 800,582.5 800,597.5 815,597.5 830,597.5 830,582.5 830,567.5 815,567.5 815,552.5 815,537.5 830,537.5 845,537.5 845,552.5 860,552.5 875,552.5 875,537.5 890,537.5 905,537.5 905,552.5 905,567.5 890,567.5 890,582.5 890,597.5 905,597.5 905,612.5 905,627.5 890,627.5 875,627.5 875,612.5 860,612.5 845,612.5 845,627.5 845,642.5 860,642.5 860,657.5 860,672.5 845,672.5 845,687.5 845,702.5 860,702.5 875,702.5 875,687.5 890,687.5 905,687.5 905,702.5 920,702.5 935,702.5 935,687.5 935,672.5 920,672.5 920,657.5 920,642.5 935,642.5 950,642.5 950,657.5 965,657.5 980,657.5 980,642.5 995,642.5 1010,642.5 1010,657.5 1010,672.5 995,672.5 995,687.5 995,702.5 1010,702.5 1025,702.5 1025,687.5 1040,687.5 1055,687.5 1055,702.5 1070,702.5 1085,702.5 1085,687.5 1085,672.5 1070,672.5 1070,657.5 1070,642.5 1085,642.5 1085,627.5 1085,612.5 1070,612.5 1055,612.5 1055,627.5 1040,627.5 1025,627.5 1025,612.5 1025,597.5 1040,597.5 1040,582.5 1040,567.5 1025,567.5 1025,552.5 1025,537.5 1040,537.5 1055,537.5 1055,552.5 1070,552.5 1085,552.5 1085,537.5 1085,522.5 1070,522.5 1070,507.5 1070,492.5 1085,492.5 1085,477.5 1085,462.5 1070,462.5 1055,462.5 1055,477.5 1040,477.5 1025,477.5 1025,462.5 1010,462.5 995,462.5 995,477.5 995,492.5 1010,492.5 1010,507.5 1010,522.5 995,522.5 980,522.5 980,507.5 965,507.5 950,507.5 950,522.5 935,522.5 920,522.5 920,507.5 920,492.5 935,492.5 935,477.5 935,462.5 920,462.5 920,447.5 920,432.5 935,432.5 950,432.5 950,447.5 965,447.5 980,447.5 980,432.5 980,417.5 965,417.5 965,402.5 965,387.5 980,387.5 980,372.5 980,357.5 965,357.5 950,357.5 950,372.5 935,372.5 920,372.5 920,357.5 920,342.5 935,342.5 935,327.5 935,312.5 920,312.5 920,297.5 920,282.5 935,282.5 950,282.5 950,297.5 965,297.5 980,297.5 980,282.5 995,282.5 1010,282.5 1010,297.5 1010,312.5 995,312.5 995,327.5 995,342.5 1010,342.5 1025,342.5 1025,327.5 1040,327.5 1055,327.5 1055,342.5 1070,342.5 1085,342.5 1085,327.5 1085,312.5 1070,312.5 1070,297.5 1070,282.5 1085,282.5 1100,282.5 1100,297.5 1115,297.5 1130,297.5 1130,282.5 1145,282.5 1160,282.5 1160,297.5 1160,312.5 1145,312.5 1145,327.5 1145,342.5 1160,342.5 1160,357.5 1160,372.5 1145,372.5 1130,372.5 1130,357.5 1115,357.5 1100,357.5 1100,372.5 1100,387.5 1115,387.5 1115,402.5 1115,417.5 1100,417.5 1100,432.5 1100,447.5 1115,447.5 1130,447.5 1130,432.5 1145,432.5 1160,432.5 1160,447.5 1175,447.5 1190,447.5 1190,432.5 1190,417.5 1175,417.5 1175,402.5 1175,387.5 1190,387.5 1205,387.5 1205,402.5 1220,402.5 1235,402.5 1235,387.5 1250,387.5 1265,387.5 1265,402.5 1265,417.5 1250,417.5 1250,432.5 1250,447.5 1265,447.5 1280,447.5 1280,432.5 1295,432.5 1310,432.5 1310,447.5 1325,447.5 1340,447.5 1340,432.5 1340,417.5 1325,417.5 1325,402.5 1325,387.5 1340,387.5 1340,372.5 1340,357.5 1325,357.5 1310,357.5 1310,372.5 1295,372.5 1280,372.5 1280,357.5 1280,342.5 1295,342.5 1295,327.5 1295,312.5 1280,312.5 1280,297.5 1280,282.5 1295,282.5 1310,282.5 1310,297.5 1325,297.5 1340,297.5 1340,282.5 1355,282.5 1370,282.5 1370,297.5 1370,312.5 1355,312.5 1355,327.5 1355,342.5 1370,342.5 1385,342.5 1385,327.5 1400,327.5 1415,327.5 1415,342.5 1430,342.5 1445,342.5 1445,327.5 1445,312.5 1430,312.5 1430,297.5 1430,282.5 1445,282.5 1460,282.5 1460,297.5 1475,297.5 1490,297.5 1490,282.5 1505,282.5 1520,282.5 1520,297.5 1520,312.5 1505,312.5 1505,327.5 1505,342.5 1520,342.5 1520,357.5 1520,372.5 1505,372.5 1490,372.5 1490,357.5 1475,357.5 1460,357.5 1460,372.5 1460,387.5 1475,387.5 1475,402.5 1475,417.5 1460,417.5 1460,432.5 1460,447.5 1475,447.5 1490,447.5 1490,432.5 1505,432.5 1520,432.5 1520,447.5 1520,462.5 1505,462.5 1505,477.5 1505,492.5 1520,492.5 1520,507.5 1520,522.5 1505,522.5 1490,522.5 1490,507.5 1475,507.5 1460,507.5 1460,522.5 1445,522.5 1430,522.5 1430,507.5 1430,492.5 1445,492.5 1445,477.5 1445,462.5 1430,462.5 1415,462.5 1415,477.5 1400,477.5 1385,477.5 1385,462.5 1370,462.5 1355,462.5 1355,477.5 1355,492.5 1370,492.5 1370,507.5 1370,522.5 1355,522.5 1355,537.5 1355,552.5 1370,552.5 1385,552.5 1385,537.5 1400,537.5 1415,537.5 1415,552.5 1415,567.5 1400,567.5 1400,582.5 1400,597.5 1415,597.5 1415,612.5 1415,627.5 1400,627.5 1385,627.5 1385,612.5 1370,612.5 1355,612.5 1355,627.5 1355,642.5 1370,642.5 1370,657.5 1370,672.5 1355,672.5 1355,687.5 1355,702.5 1370,702.5 1385,702.5 1385,687.5 1400,687.5 1415,687.5 1415,702.5 1430,702.5 1445,702.5 1445,687.5 1445,672.5 1430,672.5 1430,657.5 1430,642.5 1445,642.5 1460,642.5 1460,657.5 1475,657.5 1490,657.5 1490,642.5 1505,642.5 1520,642.5 1520,657.5 1520,672.5 1505,672.5 1505,687.5 1505,702.5 1520,702.5 1520,717.5 1520,732.5 1505,732.5 1490,732.5 1490,717.5 1475,717.5 1460,717.5 1460,732.5 1460,747.5 1475,747.5 1475,762.5 1475,777.5 1460,777.5 1460,792.5 1460,807.5 1475,807.5 1490,807.5 1490,792.5 1505,792.5 1520,792.5 1520,807.5 1520,822.5 1505,822.5 1505,837.5 1505,852.5 1520,852.5 1520,867.5 1520,882.5 1505,882.5 1490,882.5 1490,867.5 1475,867.5 1460,867.5 1460,882.5 1445,882.5 1430,882.5 1430,867.5 1430,852.5 1445,852.5 1445,837.5 1445,822.5 1430,822.5 1415,822.5 1415,837.5 1400,837.5 1385,837.5 1385,822.5 1370,822.5 1355,822.5 1355,837.5 1355,852.5 1370,852.5 1370,867.5 1370,882.5 1355,882.5 1340,882.5 1340,867.5 1325,867.5 1310,867.5 1310,882.5 1295,882.5 1280,882.5 1280,867.5 1280,852.5 1295,852.5 1295,837.5 1295,822.5 1280,822.5 1280,807.5 1280,792.5 1295,792.5 1310,792.5 1310,807.5 1325,807.5 1340,807.5 1340,792.5 1340,777.5 1325,777.5 1325,762.5 1325,747.5 1340,747.5 1340,732.5 1340,717.5 1325,717.5 1310,717.5 1310,732.5 1295,732.5 1280,732.5 1280,717.5 1265,717.5 1250,717.5 1250,732.5 1250,747.5 1265,747.5 1265,762.5 1265,777.5 1250,777.5 1235,777.5 1235,762.5 1220,762.5 1205,762.5 1205,777.5 1190,777.5 1175,777.5 1175,762.5 1175,747.5 1190,747.5 1190,732.5 1190,717.5 1175,717.5 1160,717.5 1160,732.5 1145,732.5 1130,732.5 1130,717.5 1115,717.5 1100,717.5 1100,732.5 1100,747.5 1115,747.5 1115,762.5 1115,777.5 1100,777.5 1100,792.5 1100,807.5 1115,807.5 1130,807.5 1130,792.5 1145,792.5 1160,792.5 1160,807.5 1160,822.5 1145,822.5 1145,837.5 1145,852.5 1160,852.5 1160,867.5 1160,882.5 1145,882.5 1130,882.5 1130,867.5 1115,867.5 1100,867.5 1100,882.5 1100,897.5 1115,897.5 1115,912.5 1115,927.5 1100,927.5 1100,942.5 1100,957.5 1115,957.5 1130,957.5 1130,942.5 1145,942.5 1160,942.5 1160,957.5 1175,957.5 1190,957.5 1190,942.5 1190,927.5 1175,927.5 1175,912.5 1175,897.5 1190,897.5 1205,897.5 1205,912.5 1220,912.5 1235,912.5 1235,897.5 1250,897.5 1265,897.5 1265,912.5 1265,927.5 1250,927.5 1250,942.5 1250,957.5 1265,957.5 1265,972.5 1265,987.5 1250,987.5 1235,987.5 1235,972.5 1220,972.5 1205,972.5 1205,987.5 1205,1002.5 1220,1002.5 1220,1017.5 1220,1032.5 1205,1032.5 1205,1047.5 1205,1062.5 1220,1062.5 1235,1062.5 1235,1047.5 1250,1047.5 1265,1047.5 1265,1062.5 1265,1077.5 1250,1077.5 1250,1092.5 1250,1107.5 1265,1107.5 1265,1122.5 1265,1137.5 1250,1137.5 1235,1137.5 1235,1122.5 1220,1122.5 1205,1122.5 1205,1137.5 1190,1137.5 1175,1137.5 1175,1122.5 1175,1107.5 1190,1107.5 1190,1092.5 1190,1077.5 1175,1077.5 1160,1077.5 1160,1092.5 1145,1092.5 1130,1092.5 1130,1077.5 1115,1077.5 1100,1077.5 1100,1092.5 1100,1107.5 1115,1107.5 1115,1122.5 1115,1137.5 1100,1137.5 1100,1152.5 1100,1167.5 1115,1167.5 1130,1167.5 1130,1152.5 1145,1152.5 1160,1152.5 1160,1167.5 1160,1182.5 1145,1182.5 1145,1197.5 1145,1212.5 1160,1212.5 1160,1227.5 1160,1242.5 1145,1242.5 1130,1242.5 1130,1227.5 1115,1227.5 1100,1227.5 1100,1242.5 1100,1257.5 1115,1257.5 1115,1272.5 1115,1287.5 1100,1287.5 1100,1302.5 1100,1317.5 1115,1317.5 1130,1317.5 1130,1302.5 1145,1302.5 1160,1302.5 1160,1317.5 1175,1317.5 1190,1317.5 1190,1302.5 1190,1287.5 1175,1287.5 1175,1272.5 1175,1257.5 1190,1257.5 1205,1257.5 1205,1272.5 1220,1272.5 1235,1272.5 1235,1257.5 1250,1257.5 1265,1257.5 1265,1272.5 1265,1287.5 1250,1287.5 1250,1302.5 1250,1317.5 1265,1317.5 1280,1317.5 1280,1302.5 1295,1302.5 1310,1302.5 1310,1317.5 1325,1317.5 1340,1317.5 1340,1302.5 1340,1287.5 1325,1287.5 1325,1272.5 1325,1257.5 1340,1257.5 1340,1242.5 1340,1227.5 1325,1227.5 1310,1227.5 1310,1242.5 1295,1242.5 1280,1242.5 1280,1227.5 1280,1212.5 1295,1212.5 1295,1197.5 1295,1182.5 1280,1182.5 1280,1167.5 1280,1152.5 1295,1152.5 1310,1152.5 1310,1167.5 1325,1167.5 1340,1167.5 1340,1152.5 1355,1152.5 1370,1152.5 1370,1167.5 1370,1182.5 1355,1182.5 1355,1197.5 1355,1212.5 1370,1212.5 1385,1212.5 1385,1197.5 1400,1197.5 1415,1197.5 1415,1212.5 1430,1212.5 1445,1212.5 1445,1197.5 1445,1182.5 1430,1182.5 1430,1167.5 1430,1152.5 1445,1152.5 1460,1152.5 1460,1167.5 1475,1167.5 1490,1167.5 1490,1152.5 1505,1152.5 1520,1152.5 1520,1167.5 1520,1182.5 1505,1182.5 1505,1197.5 1505,1212.5 1520,1212.5 1520,1227.5 1520,1242.5 1505,1242.5 1490,1242.5 1490,1227.5 1475,1227.5 1460,1227.5 1460,1242.5 1460,1257.5 1475,1257.5 1475,1272.5 1475,1287.5 1460,1287.5 1460,1302.5 1460,1317.5 1475,1317.5 1490,1317.5 1490,1302.5 1505,1302.5 1520,1302.5 1520,1317.5 1535,1317.5 1550,1317.5" />
</svg>