<svg
	xmlns="http://www.w3.org/2000/svg"
	viewBox="0 0 1600 1600"
	xml:space="preserve"
	stroke-linecap="round"
	stroke-linejoin="round"
	stroke="#000"
	stroke-width="4px"
	fill="transparent"
>
<polyline points="1024,48.2903 1052,48.2903 1066,72.539 1038,72.539 1024,96.7877 1052,96.7877 1080,96.7877 1094,72.539 1122,72.539 1136,96.7877 1150,121.0364 1122,121.0364 1108,96.7877 1094,121.0364 1108,145.2851 1094,169.5338 1066,169.5338 1038,169.5338 1052,145.2851 1080,145.2851 1066,121.0364 1038,121.0364 1024,145.2851 996,145.2851 1010,121.0364 996,96.7877 982,121.0364 968,145.2851 982,169.5338 1010,169.5338 1024,193.7825 996,193.7825 982,218.0312 1010,218.0312 1038,218.0312 1052,193.7825 1080,193.7825 1094,218.0312 1066,218.0312 1052,242.2799 1080,242.2799 1108,242.2799 1122,218.0312 1108,193.7825 1122,169.5338 1136,145.2851 1150,169.5338 1136,193.7825 1164,193.7825 1178,169.5338 1206,169.5338 1220,193.7825 1192,193.7825 1178,218.0312 1206,218.0312 1234,218.0312 1248,193.7825 1276,193.7825 1290,218.0312 1304,242.2799 1276,242.2799 1262,218.0312 1248,242.2799 1262,266.5286 1290,266.5286 1304,290.7773 1318,315.026 1290,315.026 1276,290.7773 1262,315.026 1276,339.2747 1262,363.5234 1234,363.5234 1206,363.5234 1220,339.2747 1248,339.2747 1234,315.026 1206,315.026 1192,290.7773 1206,266.5286 1220,290.7773 1248,290.7773 1234,266.5286 1220,242.2799 1192,242.2799 1178,266.5286 1150,266.5286 1164,242.2799 1150,218.0312 1136,242.2799 1122,266.5286 1136,290.7773 1164,290.7773 1178,315.026 1192,339.2747 1164,339.2747 1150,315.026 1136,339.2747 1150,363.5234 1136,387.7721 1108,387.7721 1122,363.5234 1108,339.2747 1094,363.5234 1080,387.7721 1094,412.0208 1080,436.2695 1052,436.2695 1024,436.2695 1038,412.0208 1066,412.0208 1052,387.7721 1024,387.7721 1010,412.0208 982,412.0208 954,412.0208 968,387.7721 996,387.7721 982,363.5234 954,363.5234 940,339.2747 954,315.026 968,290.7773 982,315.026 968,339.2747 996,339.2747 1010,315.026 1038,315.026 1052,339.2747 1024,339.2747 1010,363.5234 1038,363.5234 1066,363.5234 1080,339.2747 1066,315.026 1080,290.7773 1094,315.026 1122,315.026 1108,290.7773 1094,266.5286 1066,266.5286 1052,290.7773 1024,290.7773 996,290.7773 1010,266.5286 1038,266.5286 1024,242.2799 996,242.2799 982,266.5286 954,266.5286 968,242.2799 954,218.0312 940,242.2799 926,266.5286 940,290.7773 926,315.026 898,315.026 870,315.026 884,290.7773 912,290.7773 898,266.5286 870,266.5286 856,242.2799 870,218.0312 884,193.7825 898,218.0312 884,242.2799 912,242.2799 926,218.0312 912,193.7825 926,169.5338 940,193.7825 968,193.7825 954,169.5338 940,145.2851 912,145.2851 898,169.5338 870,169.5338 884,145.2851 870,121.0364 856,145.2851 842,169.5338 856,193.7825 842,218.0312 814,218.0312 828,193.7825 814,169.5338 800,193.7825 786,218.0312 800,242.2799 828,242.2799 842,266.5286 856,290.7773 828,290.7773 814,266.5286 800,290.7773 814,315.026 842,315.026 856,339.2747 828,339.2747 814,363.5234 842,363.5234 870,363.5234 884,339.2747 912,339.2747 926,363.5234 940,387.7721 912,387.7721 898,363.5234 884,387.7721 898,412.0208 884,436.2695 856,436.2695 828,436.2695 842,412.0208 870,412.0208 856,387.7721 828,387.7721 814,412.0208 786,412.0208 800,387.7721 786,363.5234 772,387.7721 758,412.0208 772,436.2695 800,436.2695 814,460.5182 786,460.5182 772,484.7669 800,484.7669 828,484.7669 842,460.5182 870,460.5182 884,484.7669 856,484.7669 842,509.0156 870,509.0156 898,509.0156 912,484.7669 898,460.5182 912,436.2695 926,412.0208 940,436.2695 926,460.5182 954,460.5182 968,436.2695 996,436.2695 1010,460.5182 982,460.5182 968,484.7669 996,484.7669 1024,484.7669 1038,460.5182 1066,460.5182 1080,484.7669 1094,509.0156 1066,509.0156 1052,484.7669 1038,509.0156 1052,533.2643 1038,557.5130 1010,557.5130 982,557.5130 996,533.2643 1024,533.2643 1010,509.0156 982,509.0156 968,533.2643 940,533.2643 954,509.0156 940,484.7669 926,509.0156 912,533.2643 926,557.5130 954,557.5130 968,581.7617 940,581.7617 926,606.0104 954,606.0104 982,606.0104 996,581.7617 1024,581.7617 1038,606.0104 1010,606.0104 996,630.2591 1024,630.2591 1052,630.2591 1066,606.0104 1052,581.7617 1066,557.5130 1080,533.2643 1094,557.5130 1080,581.7617 1108,581.7617 1122,557.5130 1108,533.2643 1122,509.0156 1136,533.2643 1164,533.2643 1150,509.0156 1136,484.7669 1108,484.7669 1094,460.5182 1108,436.2695 1122,412.0208 1136,436.2695 1122,460.5182 1150,460.5182 1164,436.2695 1150,412.0208 1164,387.7721 1178,363.5234 1192,387.7721 1178,412.0208 1206,412.0208 1220,387.7721 1248,387.7721 1262,412.0208 1276,436.2695 1248,436.2695 1234,412.0208 1220,436.2695 1234,460.5182 1220,484.7669 1192,484.7669 1206,460.5182 1192,436.2695 1178,460.5182 1164,484.7669 1178,509.0156 1206,509.0156 1220,533.2643 1192,533.2643 1178,557.5130 1206,557.5130 1234,557.5130 1248,533.2643 1234,509.0156 1248,484.7669 1262,460.5182 1276,484.7669 1262,509.0156 1290,509.0156 1304,484.7669 1332,484.7669 1346,509.0156 1318,509.0156 1304,533.2643 1332,533.2643 1360,533.2643 1374,509.0156 1402,509.0156 1416,533.2643 1430,557.5130 1402,557.5130 1388,533.2643 1374,557.5130 1388,581.7617 1374,606.0104 1346,606.0104 1318,606.0104 1332,581.7617 1360,581.7617 1346,557.5130 1318,557.5130 1304,581.7617 1276,581.7617 1290,557.5130 1276,533.2643 1262,557.5130 1248,581.7617 1262,606.0104 1290,606.0104 1304,630.2591 1276,630.2591 1262,654.5078 1290,654.5078 1318,654.5078 1332,630.2591 1360,630.2591 1374,654.5078 1346,654.5078 1332,678.7565 1360,678.7565 1388,678.7565 1402,654.5078 1388,630.2591 1402,606.0104 1416,581.7617 1430,606.0104 1416,630.2591 1444,630.2591 1458,606.0104 1486,606.0104 1500,630.2591 1472,630.2591 1458,654.5078 1486,654.5078 1514,654.5078 1528,630.2591 1556,630.2591 1570,654.5078 1584,678.7565 1556,678.7565 1542,654.5078 1528,678.7565 1542,703.0052 1570,703.0052 1584,727.2539 1598,751.5026 1570,751.5026 1556,727.2539 1542,751.5026 1556,775.7513 1542,800 1514,800 1486,800 1500,775.7513 1528,775.7513 1514,751.5026 1486,751.5026 1472,727.2539 1486,703.0052 1500,727.2539 1528,727.2539 1514,703.0052 1500,678.7565 1472,678.7565 1458,703.0052 1430,703.0052 1444,678.7565 1430,654.5078 1416,678.7565 1402,703.0052 1416,727.2539 1444,727.2539 1458,751.5026 1472,775.7513 1444,775.7513 1430,751.5026 1416,775.7513 1430,800 1458,800 1472,824.2487 1444,824.2487 1430,848.4974 1458,848.4974 1486,848.4974 1500,824.2487 1528,824.2487 1542,848.4974 1556,872.7461 1528,872.7461 1514,848.4974 1500,872.7461 1514,896.9948 1542,896.9948 1556,921.2435 1570,945.4922 1542,945.4922 1528,921.2435 1514,945.4922 1528,969.7409 1514,993.9896 1486,993.9896 1458,993.9896 1472,969.7409 1500,969.7409 1486,945.4922 1458,945.4922 1444,921.2435 1458,896.9948 1472,921.2435 1500,921.2435 1486,896.9948 1472,872.7461 1444,872.7461 1430,896.9948 1402,896.9948 1416,872.7461 1402,848.4974 1388,872.7461 1374,896.9948 1388,921.2435 1416,921.2435 1430,945.4922 1444,969.7409 1416,969.7409 1402,945.4922 1388,969.7409 1402,993.9896 1388,1018.2383 1360,1018.2383 1374,993.9896 1360,969.7409 1346,993.9896 1332,1018.2383 1346,1042.487 1332,1066.7357 1304,1066.7357 1276,1066.7357 1290,1042.487 1318,1042.487 1304,1018.2383 1276,1018.2383 1262,1042.487 1234,1042.487 1206,1042.487 1220,1018.2383 1248,1018.2383 1234,993.9896 1206,993.9896 1192,969.7409 1206,945.4922 1220,921.2435 1234,945.4922 1220,969.7409 1248,969.7409 1262,945.4922 1290,945.4922 1304,969.7409 1276,969.7409 1262,993.9896 1290,993.9896 1318,993.9896 1332,969.7409 1318,945.4922 1332,921.2435 1346,945.4922 1374,945.4922 1360,921.2435 1346,896.9948 1318,896.9948 1304,921.2435 1276,921.2435 1248,921.2435 1262,896.9948 1290,896.9948 1276,872.7461 1248,872.7461 1234,848.4974 1248,824.2487 1262,848.4974 1290,848.4974 1276,824.2487 1262,800 1234,800 1220,775.7513 1234,751.5026 1248,727.2539 1262,751.5026 1248,775.7513 1276,775.7513 1290,751.5026 1318,751.5026 1332,775.7513 1346,800 1318,800 1304,775.7513 1290,800 1304,824.2487 1332,824.2487 1346,848.4974 1318,848.4974 1304,872.7461 1332,872.7461 1360,872.7461 1374,848.4974 1360,824.2487 1374,800 1388,824.2487 1416,824.2487 1402,800 1388,775.7513 1360,775.7513 1346,751.5026 1360,727.2539 1374,751.5026 1402,751.5026 1388,727.2539 1374,703.0052 1346,703.0052 1332,727.2539 1304,727.2539 1276,727.2539 1290,703.0052 1318,703.0052 1304,678.7565 1276,678.7565 1262,703.0052 1234,703.0052 1248,678.7565 1234,654.5078 1220,678.7565 1206,703.0052 1220,727.2539 1206,751.5026 1178,751.5026 1150,751.5026 1164,727.2539 1192,727.2539 1178,703.0052 1150,703.0052 1136,678.7565 1150,654.5078 1164,630.2591 1178,654.5078 1164,678.7565 1192,678.7565 1206,654.5078 1192,630.2591 1206,606.0104 1220,630.2591 1248,630.2591 1234,606.0104 1220,581.7617 1192,581.7617 1178,606.0104 1150,606.0104 1164,581.7617 1150,557.5130 1136,581.7617 1122,606.0104 1136,630.2591 1122,654.5078 1094,654.5078 1108,630.2591 1094,606.0104 1080,630.2591 1066,654.5078 1080,678.7565 1108,678.7565 1122,703.0052 1136,727.2539 1108,727.2539 1094,703.0052 1080,727.2539 1094,751.5026 1122,751.5026 1136,775.7513 1108,775.7513 1094,800 1122,800 1150,800 1164,775.7513 1192,775.7513 1206,800 1220,824.2487 1192,824.2487 1178,800 1164,824.2487 1178,848.4974 1206,848.4974 1220,872.7461 1234,896.9948 1206,896.9948 1192,872.7461 1178,896.9948 1192,921.2435 1178,945.4922 1150,945.4922 1122,945.4922 1136,921.2435 1164,921.2435 1150,896.9948 1122,896.9948 1108,872.7461 1122,848.4974 1136,872.7461 1164,872.7461 1150,848.4974 1136,824.2487 1108,824.2487 1094,848.4974 1066,848.4974 1080,824.2487 1066,800 1052,824.2487 1038,848.4974 1052,872.7461 1080,872.7461 1094,896.9948 1108,921.2435 1080,921.2435 1066,896.9948 1052,921.2435 1066,945.4922 1052,969.7409 1024,969.7409 1038,945.4922 1024,921.2435 1010,945.4922 996,969.7409 1010,993.9896 996,1018.2383 968,1018.2383 940,1018.2383 954,993.9896 982,993.9896 968,969.7409 940,969.7409 926,945.4922 940,921.2435 954,896.9948 968,921.2435 954,945.4922 982,945.4922 996,921.2435 982,896.9948 996,872.7461 1010,896.9948 1038,896.9948 1024,872.7461 1010,848.4974 982,848.4974 968,872.7461 940,872.7461 954,848.4974 940,824.2487 926,848.4974 912,872.7461 926,896.9948 912,921.2435 884,921.2435 898,896.9948 884,872.7461 870,896.9948 856,921.2435 870,945.4922 898,945.4922 912,969.7409 926,993.9896 898,993.9896 884,969.7409 870,993.9896 884,1018.2383 870,1042.487 842,1042.487 856,1018.2383 842,993.9896 828,1018.2383 814,1042.487 828,1066.7357 814,1090.9844 786,1090.9844 758,1090.9844 772,1066.7357 800,1066.7357 786,1042.487 758,1042.487 744,1066.7357 716,1066.7357 688,1066.7357 702,1042.487 730,1042.487 716,1018.2383 688,1018.2383 674,993.9896 688,969.7409 702,945.4922 716,969.7409 702,993.9896 730,993.9896 744,969.7409 772,969.7409 786,993.9896 758,993.9896 744,1018.2383 772,1018.2383 800,1018.2383 814,993.9896 800,969.7409 814,945.4922 828,969.7409 856,969.7409 842,945.4922 828,921.2435 800,921.2435 786,945.4922 758,945.4922 730,945.4922 744,921.2435 772,921.2435 758,896.9948 730,896.9948 716,921.2435 688,921.2435 702,896.9948 688,872.7461 674,896.9948 660,921.2435 674,945.4922 660,969.7409 632,969.7409 604,969.7409 618,945.4922 646,945.4922 632,921.2435 604,921.2435 590,945.4922 562,945.4922 534,945.4922 548,921.2435 576,921.2435 562,896.9948 534,896.9948 520,872.7461 534,848.4974 548,824.2487 562,848.4974 548,872.7461 576,872.7461 590,848.4974 618,848.4974 632,872.7461 604,872.7461 590,896.9948 618,896.9948 646,896.9948 660,872.7461 646,848.4974 660,824.2487 674,848.4974 702,848.4974 688,824.2487 674,800 646,800 632,824.2487 604,824.2487 576,824.2487 590,800 618,800 604,775.7513 576,775.7513 562,751.5026 576,727.2539 590,751.5026 618,751.5026 604,727.2539 590,703.0052 562,703.0052 548,678.7565 562,654.5078 576,630.2591 590,654.5078 576,678.7565 604,678.7565 618,654.5078 604,630.2591 618,606.0104 632,581.7617 646,606.0104 632,630.2591 660,630.2591 674,606.0104 702,606.0104 716,630.2591 730,654.5078 702,654.5078 688,630.2591 674,654.5078 688,678.7565 674,703.0052 646,703.0052 660,678.7565 646,654.5078 632,678.7565 618,703.0052 632,727.2539 660,727.2539 674,751.5026 646,751.5026 632,775.7513 660,775.7513 688,775.7513 702,751.5026 688,727.2539 702,703.0052 716,678.7565 730,703.0052 716,727.2539 744,727.2539 758,703.0052 786,703.0052 800,727.2539 772,727.2539 758,751.5026 786,751.5026 814,751.5026 828,727.2539 856,727.2539 870,751.5026 884,775.7513 856,775.7513 842,751.5026 828,775.7513 842,800 828,824.2487 800,824.2487 772,824.2487 786,800 814,800 800,775.7513 772,775.7513 758,800 730,800 744,775.7513 730,751.5026 716,775.7513 702,800 716,824.2487 744,824.2487 758,848.4974 730,848.4974 716,872.7461 744,872.7461 772,872.7461 786,848.4974 814,848.4974 828,872.7461 800,872.7461 786,896.9948 814,896.9948 842,896.9948 856,872.7461 842,848.4974 856,824.2487 870,800 884,824.2487 870,848.4974 898,848.4974 912,824.2487 898,800 912,775.7513 926,800 954,800 940,775.7513 926,751.5026 898,751.5026 884,727.2539 898,703.0052 912,678.7565 926,703.0052 912,727.2539 940,727.2539 954,703.0052 982,703.0052 996,727.2539 1010,751.5026 982,751.5026 968,727.2539 954,751.5026 968,775.7513 996,775.7513 1010,800 982,800 968,824.2487 996,824.2487 1024,824.2487 1038,800 1024,775.7513 1038,751.5026 1052,775.7513 1080,775.7513 1066,751.5026 1052,727.2539 1024,727.2539 1010,703.0052 1024,678.7565 1038,703.0052 1066,703.0052 1052,678.7565 1038,654.5078 1010,654.5078 996,678.7565 968,678.7565 940,678.7565 954,654.5078 982,654.5078 968,630.2591 940,630.2591 926,654.5078 898,654.5078 912,630.2591 898,606.0104 884,630.2591 870,654.5078 884,678.7565 870,703.0052 842,703.0052 814,703.0052 828,678.7565 856,678.7565 842,654.5078 814,654.5078 800,678.7565 772,678.7565 744,678.7565 758,654.5078 786,654.5078 772,630.2591 744,630.2591 730,606.0104 744,581.7617 758,557.5130 772,581.7617 758,606.0104 786,606.0104 800,581.7617 828,581.7617 842,606.0104 814,606.0104 800,630.2591 828,630.2591 856,630.2591 870,606.0104 856,581.7617 870,557.5130 884,581.7617 912,581.7617 898,557.5130 884,533.2643 856,533.2643 842,557.5130 814,557.5130 786,557.5130 800,533.2643 828,533.2643 814,509.0156 786,509.0156 772,533.2643 744,533.2643 758,509.0156 744,484.7669 730,509.0156 716,533.2643 730,557.5130 716,581.7617 688,581.7617 660,581.7617 674,557.5130 702,557.5130 688,533.2643 660,533.2643 646,509.0156 660,484.7669 674,460.5182 688,484.7669 674,509.0156 702,509.0156 716,484.7669 702,460.5182 716,436.2695 730,460.5182 758,460.5182 744,436.2695 730,412.0208 702,412.0208 688,436.2695 660,436.2695 674,412.0208 660,387.7721 646,412.0208 632,436.2695 646,460.5182 632,484.7669 604,484.7669 618,460.5182 604,436.2695 590,460.5182 576,484.7669 590,509.0156 618,509.0156 632,533.2643 646,557.5130 618,557.5130 604,533.2643 590,557.5130 604,581.7617 590,606.0104 562,606.0104 576,581.7617 562,557.5130 548,581.7617 534,606.0104 548,630.2591 534,654.5078 506,654.5078 478,654.5078 492,630.2591 520,630.2591 506,606.0104 478,606.0104 464,630.2591 436,630.2591 408,630.2591 422,606.0104 450,606.0104 436,581.7617 408,581.7617 394,557.5130 408,533.2643 422,509.0156 436,533.2643 422,557.5130 450,557.5130 464,533.2643 492,533.2643 506,557.5130 478,557.5130 464,581.7617 492,581.7617 520,581.7617 534,557.5130 520,533.2643 534,509.0156 548,533.2643 576,533.2643 562,509.0156 548,484.7669 520,484.7669 506,509.0156 478,509.0156 450,509.0156 464,484.7669 492,484.7669 478,460.5182 450,460.5182 436,436.2695 450,412.0208 464,436.2695 492,436.2695 478,412.0208 464,387.7721 436,387.7721 422,363.5234 436,339.2747 450,315.026 464,339.2747 450,363.5234 478,363.5234 492,339.2747 478,315.026 492,290.7773 506,266.5286 520,290.7773 506,315.026 534,315.026 548,290.7773 576,290.7773 590,315.026 604,339.2747 576,339.2747 562,315.026 548,339.2747 562,363.5234 548,387.7721 520,387.7721 534,363.5234 520,339.2747 506,363.5234 492,387.7721 506,412.0208 534,412.0208 548,436.2695 520,436.2695 506,460.5182 534,460.5182 562,460.5182 576,436.2695 562,412.0208 576,387.7721 590,363.5234 604,387.7721 590,412.0208 618,412.0208 632,387.7721 618,363.5234 632,339.2747 646,363.5234 674,363.5234 660,339.2747 646,315.026 618,315.026 604,290.7773 618,266.5286 632,242.2799 646,266.5286 632,290.7773 660,290.7773 674,266.5286 702,266.5286 716,290.7773 730,315.026 702,315.026 688,290.7773 674,315.026 688,339.2747 716,339.2747 730,363.5234 702,363.5234 688,387.7721 716,387.7721 744,387.7721 758,363.5234 744,339.2747 758,315.026 772,339.2747 800,339.2747 786,315.026 772,290.7773 744,290.7773 730,266.5286 744,242.2799 758,266.5286 786,266.5286 772,242.2799 758,218.0312 730,218.0312 716,242.2799 688,242.2799 660,242.2799 674,218.0312 702,218.0312 688,193.7825 660,193.7825 646,218.0312 618,218.0312 632,193.7825 618,169.5338 604,193.7825 590,218.0312 604,242.2799 590,266.5286 562,266.5286 534,266.5286 548,242.2799 576,242.2799 562,218.0312 534,218.0312 520,193.7825 534,169.5338 548,145.2851 562,169.5338 548,193.7825 576,193.7825 590,169.5338 576,145.2851 590,121.0364 604,145.2851 632,145.2851 618,121.0364 604,96.7877 576,96.7877 562,121.0364 534,121.0364 548,96.7877 534,72.539 520,96.7877 506,121.0364 520,145.2851 506,169.5338 478,169.5338 492,145.2851 478,121.0364 464,145.2851 450,169.5338 464,193.7825 492,193.7825 506,218.0312 520,242.2799 492,242.2799 478,218.0312 464,242.2799 478,266.5286 464,290.7773 436,290.7773 450,266.5286 436,242.2799 422,266.5286 408,290.7773 422,315.026 408,339.2747 380,339.2747 352,339.2747 366,315.026 394,315.026 380,290.7773 352,290.7773 338,266.5286 352,242.2799 366,218.0312 380,242.2799 366,266.5286 394,266.5286 408,242.2799 394,218.0312 408,193.7825 422,218.0312 450,218.0312 436,193.7825 422,169.5338 394,169.5338 380,193.7825 352,193.7825 366,169.5338 352,145.2851 338,169.5338 324,193.7825 338,218.0312 324,242.2799 296,242.2799 310,218.0312 296,193.7825 282,218.0312 268,242.2799 282,266.5286 310,266.5286 324,290.7773 338,315.026 310,315.026 296,290.7773 282,315.026 296,339.2747 324,339.2747 338,363.5234 310,363.5234 296,387.7721 324,387.7721 352,387.7721 366,363.5234 394,363.5234 408,387.7721 422,412.0208 394,412.0208 380,387.7721 366,412.0208 380,436.2695 408,436.2695 422,460.5182 436,484.7669 408,484.7669 394,460.5182 380,484.7669 394,509.0156 380,533.2643 352,533.2643 324,533.2643 338,509.0156 366,509.0156 352,484.7669 324,484.7669 310,460.5182 324,436.2695 338,460.5182 366,460.5182 352,436.2695 338,412.0208 310,412.0208 296,436.2695 268,436.2695 282,412.0208 268,387.7721 254,412.0208 240,436.2695 254,460.5182 282,460.5182 296,484.7669 310,509.0156 282,509.0156 268,484.7669 254,509.0156 268,533.2643 296,533.2643 310,557.5130 282,557.5130 268,581.7617 296,581.7617 324,581.7617 338,557.5130 366,557.5130 380,581.7617 394,606.0104 366,606.0104 352,581.7617 338,606.0104 352,630.2591 338,654.5078 310,654.5078 282,654.5078 296,630.2591 324,630.2591 310,606.0104 282,606.0104 268,630.2591 240,630.2591 254,606.0104 240,581.7617 226,606.0104 212,630.2591 226,654.5078 254,654.5078 268,678.7565 240,678.7565 226,703.0052 254,703.0052 282,703.0052 296,678.7565 324,678.7565 338,703.0052 310,703.0052 296,727.2539 324,727.2539 352,727.2539 366,703.0052 352,678.7565 366,654.5078 380,630.2591 394,654.5078 380,678.7565 408,678.7565 422,654.5078 450,654.5078 464,678.7565 436,678.7565 422,703.0052 450,703.0052 478,703.0052 492,678.7565 520,678.7565 534,703.0052 548,727.2539 520,727.2539 506,703.0052 492,727.2539 506,751.5026 534,751.5026 548,775.7513 562,800 534,800 520,775.7513 506,800 520,824.2487 506,848.4974 478,848.4974 450,848.4974 464,824.2487 492,824.2487 478,800 450,800 436,775.7513 450,751.5026 464,775.7513 492,775.7513 478,751.5026 464,727.2539 436,727.2539 422,751.5026 394,751.5026 408,727.2539 394,703.0052 380,727.2539 366,751.5026 380,775.7513 408,775.7513 422,800 436,824.2487 408,824.2487 394,800 380,824.2487 394,848.4974 380,872.7461 352,872.7461 366,848.4974 352,824.2487 338,848.4974 324,872.7461 338,896.9948 324,921.2435 296,921.2435 268,921.2435 282,896.9948 310,896.9948 296,872.7461 268,872.7461 254,896.9948 226,896.9948 198,896.9948 212,872.7461 240,872.7461 226,848.4974 198,848.4974 184,824.2487 198,800 212,775.7513 226,800 212,824.2487 240,824.2487 254,800 282,800 296,824.2487 268,824.2487 254,848.4974 282,848.4974 310,848.4974 324,824.2487 310,800 324,775.7513 338,800 366,800 352,775.7513 338,751.5026 310,751.5026 296,775.7513 268,775.7513 240,775.7513 254,751.5026 282,751.5026 268,727.2539 240,727.2539 226,751.5026 198,751.5026 212,727.2539 198,703.0052 184,727.2539 170,751.5026 184,775.7513 170,800 142,800 114,800 128,775.7513 156,775.7513 142,751.5026 114,751.5026 100,727.2539 114,703.0052 128,678.7565 142,703.0052 128,727.2539 156,727.2539 170,703.0052 156,678.7565 170,654.5078 184,678.7565 212,678.7565 198,654.5078 184,630.2591 156,630.2591 142,654.5078 114,654.5078 128,630.2591 114,606.0104 100,630.2591 86,654.5078 100,678.7565 86,703.0052 58,703.0052 72,678.7565 58,654.5078 44,678.7565 30,703.0052 44,727.2539 72,727.2539 86,751.5026 100,775.7513 72,775.7513 58,751.5026 44,775.7513 58,800 86,800 100,824.2487 72,824.2487 58,848.4974 86,848.4974 114,848.4974 128,824.2487 156,824.2487 170,848.4974 184,872.7461 156,872.7461 142,848.4974 128,872.7461 142,896.9948 128,921.2435 100,921.2435 72,921.2435 86,896.9948 114,896.9948 100,872.7461 72,872.7461 58,896.9948 30,896.9948 44,872.7461 30,848.4974 16,872.7461 2,896.9948 16,921.2435 44,921.2435 58,945.4922 30,945.4922 16,969.7409 44,969.7409 72,969.7409 86,945.4922 114,945.4922 128,969.7409 100,969.7409 86,993.9896 114,993.9896 142,993.9896 156,969.7409 142,945.4922 156,921.2435 170,896.9948 184,921.2435 170,945.4922 198,945.4922 212,921.2435 240,921.2435 254,945.4922 226,945.4922 212,969.7409 240,969.7409 268,969.7409 282,945.4922 310,945.4922 324,969.7409 338,993.9896 310,993.9896 296,969.7409 282,993.9896 296,1018.2383 282,1042.487 254,1042.487 226,1042.487 240,1018.2383 268,1018.2383 254,993.9896 226,993.9896 212,1018.2383 184,1018.2383 198,993.9896 184,969.7409 170,993.9896 156,1018.2383 170,1042.487 198,1042.487 212,1066.7357 184,1066.7357 170,1090.9844 198,1090.9844 226,1090.9844 240,1066.7357 268,1066.7357 282,1090.9844 254,1090.9844 240,1115.2331 268,1115.2331 296,1115.2331 310,1090.9844 296,1066.7357 310,1042.487 324,1018.2383 338,1042.487 324,1066.7357 352,1066.7357 366,1042.487 352,1018.2383 366,993.9896 380,1018.2383 408,1018.2383 394,993.9896 380,969.7409 352,969.7409 338,945.4922 352,921.2435 366,896.9948 380,921.2435 366,945.4922 394,945.4922 408,921.2435 394,896.9948 408,872.7461 422,848.4974 436,872.7461 422,896.9948 450,896.9948 464,872.7461 492,872.7461 506,896.9948 520,921.2435 492,921.2435 478,896.9948 464,921.2435 478,945.4922 464,969.7409 436,969.7409 450,945.4922 436,921.2435 422,945.4922 408,969.7409 422,993.9896 450,993.9896 464,1018.2383 436,1018.2383 422,1042.487 450,1042.487 478,1042.487 492,1018.2383 478,993.9896 492,969.7409 506,945.4922 520,969.7409 506,993.9896 534,993.9896 548,969.7409 576,969.7409 590,993.9896 562,993.9896 548,1018.2383 576,1018.2383 604,1018.2383 618,993.9896 646,993.9896 660,1018.2383 674,1042.487 646,1042.487 632,1018.2383 618,1042.487 632,1066.7357 618,1090.9844 590,1090.9844 562,1090.9844 576,1066.7357 604,1066.7357 590,1042.487 562,1042.487 548,1066.7357 520,1066.7357 534,1042.487 520,1018.2383 506,1042.487 492,1066.7357 506,1090.9844 534,1090.9844 548,1115.2331 520,1115.2331 506,1139.4818 534,1139.4818 562,1139.4818 576,1115.2331 604,1115.2331 618,1139.4818 590,1139.4818 576,1163.7305 604,1163.7305 632,1163.7305 646,1139.4818 632,1115.2331 646,1090.9844 660,1066.7357 674,1090.9844 660,1115.2331 688,1115.2331 702,1090.9844 730,1090.9844 744,1115.2331 716,1115.2331 702,1139.4818 730,1139.4818 758,1139.4818 772,1115.2331 800,1115.2331 814,1139.4818 828,1163.7305 800,1163.7305 786,1139.4818 772,1163.7305 786,1187.9792 814,1187.9792 828,1212.2279 842,1236.4766 814,1236.4766 800,1212.2279 786,1236.4766 800,1260.7253 786,1284.9740 758,1284.9740 730,1284.9740 744,1260.7253 772,1260.7253 758,1236.4766 730,1236.4766 716,1212.2279 730,1187.9792 744,1212.2279 772,1212.2279 758,1187.9792 744,1163.7305 716,1163.7305 702,1187.9792 674,1187.9792 688,1163.7305 674,1139.4818 660,1163.7305 646,1187.9792 660,1212.2279 688,1212.2279 702,1236.4766 716,1260.7253 688,1260.7253 674,1236.4766 660,1260.7253 674,1284.9740 660,1309.2227 632,1309.2227 646,1284.9740 632,1260.7253 618,1284.9740 604,1309.2227 618,1333.4714 604,1357.7201 576,1357.7201 548,1357.7201 562,1333.4714 590,1333.4714 576,1309.2227 548,1309.2227 534,1333.4714 506,1333.4714 478,1333.4714 492,1309.2227 520,1309.2227 506,1284.9740 478,1284.9740 464,1260.7253 478,1236.4766 492,1212.2279 506,1236.4766 492,1260.7253 520,1260.7253 534,1236.4766 562,1236.4766 576,1260.7253 548,1260.7253 534,1284.9740 562,1284.9740 590,1284.9740 604,1260.7253 590,1236.4766 604,1212.2279 618,1236.4766 646,1236.4766 632,1212.2279 618,1187.9792 590,1187.9792 576,1212.2279 548,1212.2279 520,1212.2279 534,1187.9792 562,1187.9792 548,1163.7305 520,1163.7305 506,1187.9792 478,1187.9792 492,1163.7305 478,1139.4818 464,1163.7305 450,1187.9792 464,1212.2279 450,1236.4766 422,1236.4766 394,1236.4766 408,1212.2279 436,1212.2279 422,1187.9792 394,1187.9792 380,1163.7305 394,1139.4818 408,1115.2331 422,1139.4818 408,1163.7305 436,1163.7305 450,1139.4818 436,1115.2331 450,1090.9844 464,1115.2331 492,1115.2331 478,1090.9844 464,1066.7357 436,1066.7357 422,1090.9844 394,1090.9844 408,1066.7357 394,1042.487 380,1066.7357 366,1090.9844 380,1115.2331 366,1139.4818 338,1139.4818 352,1115.2331 338,1090.9844 324,1115.2331 310,1139.4818 324,1163.7305 352,1163.7305 366,1187.9792 380,1212.2279 352,1212.2279 338,1187.9792 324,1212.2279 338,1236.4766 366,1236.4766 380,1260.7253 352,1260.7253 338,1284.9740 366,1284.9740 394,1284.9740 408,1260.7253 436,1260.7253 450,1284.9740 464,1309.2227 436,1309.2227 422,1284.9740 408,1309.2227 422,1333.4714 408,1357.7201 380,1357.7201 352,1357.7201 366,1333.4714 394,1333.4714 380,1309.2227 352,1309.2227 338,1333.4714 310,1333.4714 324,1309.2227 310,1284.9740 296,1309.2227 282,1333.4714 296,1357.7201 324,1357.7201 338,1381.9688 310,1381.9688 296,1406.2175 324,1406.2175 352,1406.2175 366,1381.9688 394,1381.9688 408,1406.2175 380,1406.2175 366,1430.4662 394,1430.4662 422,1430.4662 436,1406.2175 422,1381.9688 436,1357.7201 450,1333.4714 464,1357.7201 450,1381.9688 478,1381.9688 492,1357.7201 520,1357.7201 534,1381.9688 506,1381.9688 492,1406.2175 520,1406.2175 548,1406.2175 562,1381.9688 590,1381.9688 604,1406.2175 618,1430.4662 590,1430.4662 576,1406.2175 562,1430.4662 576,1454.7149 562,1478.9636 534,1478.9636 506,1478.9636 520,1454.7149 548,1454.7149 534,1430.4662 506,1430.4662 492,1454.7149 464,1454.7149 478,1430.4662 464,1406.2175 450,1430.4662 436,1454.7149 450,1478.9636 478,1478.9636 492,1503.2123 464,1503.2123 450,1527.4610 478,1527.4610 506,1527.4610 520,1503.2123 548,1503.2123 562,1527.4610 534,1527.4610 520,1551.7097 548,1551.7097 576,1551.7097 590,1527.4610 576,1503.2123 590,1478.9636 604,1454.7149 618,1478.9636 604,1503.2123 632,1503.2123 646,1478.9636 632,1454.7149 646,1430.4662 660,1454.7149 688,1454.7149 674,1430.4662 660,1406.2175 632,1406.2175 618,1381.9688 632,1357.7201 646,1333.4714 660,1357.7201 646,1381.9688 674,1381.9688 688,1357.7201 674,1333.4714 688,1309.2227 702,1284.9740 716,1309.2227 702,1333.4714 730,1333.4714 744,1309.2227 772,1309.2227 786,1333.4714 800,1357.7201 772,1357.7201 758,1333.4714 744,1357.7201 758,1381.9688 744,1406.2175 716,1406.2175 730,1381.9688 716,1357.7201 702,1381.9688 688,1406.2175 702,1430.4662 730,1430.4662 744,1454.7149 716,1454.7149 702,1478.9636 730,1478.9636 758,1478.9636 772,1454.7149 758,1430.4662 772,1406.2175 786,1381.9688 800,1406.2175 786,1430.4662 814,1430.4662 828,1406.2175 814,1381.9688 828,1357.7201 842,1381.9688 870,1381.9688 856,1357.7201 842,1333.4714 814,1333.4714 800,1309.2227 814,1284.9740 828,1260.7253 842,1284.9740 828,1309.2227 856,1309.2227 870,1284.9740 898,1284.9740 912,1309.2227 926,1333.4714 898,1333.4714 884,1309.2227 870,1333.4714 884,1357.7201 912,1357.7201 926,1381.9688 898,1381.9688 884,1406.2175 912,1406.2175 940,1406.2175 954,1381.9688 940,1357.7201 954,1333.4714 968,1357.7201 996,1357.7201 982,1333.4714 968,1309.2227 940,1309.2227 926,1284.9740 940,1260.7253 954,1284.9740 982,1284.9740 968,1260.7253 954,1236.4766 926,1236.4766 912,1260.7253 884,1260.7253 856,1260.7253 870,1236.4766 898,1236.4766 884,1212.2279 856,1212.2279 842,1187.9792 856,1163.7305 870,1187.9792 898,1187.9792 884,1163.7305 870,1139.4818 842,1139.4818 828,1115.2331 842,1090.9844 856,1066.7357 870,1090.9844 856,1115.2331 884,1115.2331 898,1090.9844 884,1066.7357 898,1042.487 912,1018.2383 926,1042.487 912,1066.7357 940,1066.7357 954,1042.487 982,1042.487 996,1066.7357 1010,1090.9844 982,1090.9844 968,1066.7357 954,1090.9844 968,1115.2331 954,1139.4818 926,1139.4818 940,1115.2331 926,1090.9844 912,1115.2331 898,1139.4818 912,1163.7305 940,1163.7305 954,1187.9792 926,1187.9792 912,1212.2279 940,1212.2279 968,1212.2279 982,1187.9792 968,1163.7305 982,1139.4818 996,1115.2331 1010,1139.4818 996,1163.7305 1024,1163.7305 1038,1139.4818 1024,1115.2331 1038,1090.9844 1052,1115.2331 1080,1115.2331 1066,1090.9844 1052,1066.7357 1024,1066.7357 1010,1042.487 1024,1018.2383 1038,993.9896 1052,1018.2383 1038,1042.487 1066,1042.487 1080,1018.2383 1066,993.9896 1080,969.7409 1094,945.4922 1108,969.7409 1094,993.9896 1122,993.9896 1136,969.7409 1164,969.7409 1178,993.9896 1192,1018.2383 1164,1018.2383 1150,993.9896 1136,1018.2383 1150,1042.487 1136,1066.7357 1108,1066.7357 1122,1042.487 1108,1018.2383 1094,1042.487 1080,1066.7357 1094,1090.9844 1122,1090.9844 1136,1115.2331 1108,1115.2331 1094,1139.4818 1122,1139.4818 1150,1139.4818 1164,1115.2331 1150,1090.9844 1164,1066.7357 1178,1042.487 1192,1066.7357 1178,1090.9844 1206,1090.9844 1220,1066.7357 1248,1066.7357 1262,1090.9844 1234,1090.9844 1220,1115.2331 1248,1115.2331 1276,1115.2331 1290,1090.9844 1318,1090.9844 1332,1115.2331 1346,1139.4818 1318,1139.4818 1304,1115.2331 1290,1139.4818 1304,1163.7305 1332,1163.7305 1346,1187.9792 1360,1212.2279 1332,1212.2279 1318,1187.9792 1304,1212.2279 1318,1236.4766 1304,1260.7253 1276,1260.7253 1248,1260.7253 1262,1236.4766 1290,1236.4766 1276,1212.2279 1248,1212.2279 1234,1187.9792 1248,1163.7305 1262,1187.9792 1290,1187.9792 1276,1163.7305 1262,1139.4818 1234,1139.4818 1220,1163.7305 1192,1163.7305 1206,1139.4818 1192,1115.2331 1178,1139.4818 1164,1163.7305 1178,1187.9792 1206,1187.9792 1220,1212.2279 1234,1236.4766 1206,1236.4766 1192,1212.2279 1178,1236.4766 1192,1260.7253 1178,1284.9740 1150,1284.9740 1164,1260.7253 1150,1236.4766 1136,1260.7253 1122,1284.9740 1136,1309.2227 1122,1333.4714 1094,1333.4714 1066,1333.4714 1080,1309.2227 1108,1309.2227 1094,1284.9740 1066,1284.9740 1052,1260.7253 1066,1236.4766 1080,1212.2279 1094,1236.4766 1080,1260.7253 1108,1260.7253 1122,1236.4766 1108,1212.2279 1122,1187.9792 1136,1212.2279 1164,1212.2279 1150,1187.9792 1136,1163.7305 1108,1163.7305 1094,1187.9792 1066,1187.9792 1080,1163.7305 1066,1139.4818 1052,1163.7305 1038,1187.9792 1052,1212.2279 1038,1236.4766 1010,1236.4766 1024,1212.2279 1010,1187.9792 996,1212.2279 982,1236.4766 996,1260.7253 1024,1260.7253 1038,1284.9740 1052,1309.2227 1024,1309.2227 1010,1284.9740 996,1309.2227 1010,1333.4714 1038,1333.4714 1052,1357.7201 1024,1357.7201 1010,1381.9688 1038,1381.9688 1066,1381.9688 1080,1357.7201 1108,1357.7201 1122,1381.9688 1136,1406.2175 1108,1406.2175 1094,1381.9688 1080,1406.2175 1094,1430.4662 1080,1454.7149 1052,1454.7149 1024,1454.7149 1038,1430.4662 1066,1430.4662 1052,1406.2175 1024,1406.2175 1010,1430.4662 982,1430.4662 996,1406.2175 982,1381.9688 968,1406.2175 954,1430.4662 968,1454.7149 996,1454.7149 1010,1478.9636 982,1478.9636 968,1503.2123 996,1503.2123 1024,1503.2123 1038,1478.9636 1066,1478.9636 1080,1503.2123 1052,1503.2123 1038,1527.4610 1066,1527.4610 1094,1527.4610 1108,1503.2123 1094,1478.9636 1108,1454.7149 1122,1430.4662 1136,1454.7149 1122,1478.9636 1150,1478.9636 1164,1454.7149 1150,1430.4662 1164,1406.2175 1178,1430.4662 1206,1430.4662 1192,1406.2175 1178,1381.9688 1150,1381.9688 1136,1357.7201 1150,1333.4714 1164,1309.2227 1178,1333.4714 1164,1357.7201 1192,1357.7201 1206,1333.4714 1192,1309.2227 1206,1284.9740 1220,1260.7253 1234,1284.9740 1220,1309.2227 1248,1309.2227 1262,1284.9740 1290,1284.9740 1304,1309.2227 1318,1333.4714 1290,1333.4714 1276,1309.2227 1262,1333.4714 1276,1357.7201 1262,1381.9688 1234,1381.9688 1248,1357.7201 1234,1333.4714 1220,1357.7201 1206,1381.9688 1220,1406.2175 1248,1406.2175 1262,1430.4662 1234,1430.4662 1220,1454.7149 1248,1454.7149 1276,1454.7149 1290,1430.4662 1276,1406.2175 1290,1381.9688 1304,1357.7201 1318,1381.9688 1304,1406.2175 1332,1406.2175 1346,1381.9688" />
</svg>