<svg
	xmlns="http://www.w3.org/2000/svg"
	viewBox="0 0 1600 1600"
	xml:space="preserve"
	stroke-linecap="round"
	stroke-linejoin="round"
	stroke="#000"
	stroke-width="4px"
	fill="transparent"
>
<polyline points="152,425.8772 168,425.8772 176,412.0208 184,425.8772 200,425.8772 208,412.0208 200,398.1644 216,398.1644 224,384.308 232,398.1644 248,398.1644 240,412.0208 248,425.8772 264,425.8772 272,412.0208 280,425.8772 296,425.8772 304,412.0208 296,398.1644 312,398.1644 320,384.308 312,370.4516 296,370.4516 304,356.5952 296,342.7388 312,342.7388 320,328.8824 328,342.7388 344,342.7388 352,328.8824 344,315.026 360,315.026 368,301.1696 376,315.026 392,315.026 384,328.8824 392,342.7388 408,342.7388 416,328.8824 424,342.7388 440,342.7388 432,356.5952 440,370.4516 424,370.4516 416,384.308 424,398.1644 440,398.1644 432,412.0208 440,425.8772 456,425.8772 464,412.0208 472,425.8772 488,425.8772 496,412.0208 488,398.1644 504,398.1644 512,384.308 520,398.1644 536,398.1644 528,412.0208 536,425.8772 552,425.8772 560,412.0208 568,425.8772 584,425.8772 592,412.0208 584,398.1644 600,398.1644 608,384.308 600,370.4516 584,370.4516 592,356.5952 584,342.7388 600,342.7388 608,328.8824 616,342.7388 632,342.7388 640,328.8824 632,315.026 648,315.026 656,301.1696 648,287.3132 632,287.3132 640,273.4568 632,259.6004 616,259.6004 608,273.4568 600,259.6004 584,259.6004 592,245.744 584,231.8876 600,231.8876 608,218.0312 600,204.1748 584,204.1748 592,190.3184 584,176.462 600,176.462 608,162.6056 616,176.462 632,176.462 640,162.6056 632,148.7492 648,148.7492 656,134.8928 664,148.7492 680,148.7492 672,162.6056 680,176.462 696,176.462 704,162.6056 712,176.462 728,176.462 736,162.6056 728,148.7492 744,148.7492 752,134.8928 744,121.0364 728,121.0364 736,107.18 728,93.3236 744,93.3236 752,79.4672 760,93.3236 776,93.3236 784,79.4672 776,65.6108 792,65.6108 800,51.7544 808,65.6108 824,65.6108 816,79.4672 824,93.3236 840,93.3236 848,79.4672 856,93.3236 872,93.3236 864,107.18 872,121.0364 856,121.0364 848,134.8928 856,148.7492 872,148.7492 864,162.6056 872,176.462 888,176.462 896,162.6056 904,176.462 920,176.462 928,162.6056 920,148.7492 936,148.7492 944,134.8928 952,148.7492 968,148.7492 960,162.6056 968,176.462 984,176.462 992,162.6056 1000,176.462 1016,176.462 1008,190.3184 1016,204.1748 1000,204.1748 992,218.0312 1000,231.8876 1016,231.8876 1008,245.744 1016,259.6004 1000,259.6004 992,273.4568 984,259.6004 968,259.6004 960,273.4568 968,287.3132 952,287.3132 944,301.1696 952,315.026 968,315.026 960,328.8824 968,342.7388 984,342.7388 992,328.8824 1000,342.7388 1016,342.7388 1008,356.5952 1016,370.4516 1000,370.4516 992,384.308 1000,398.1644 1016,398.1644 1008,412.0208 1016,425.8772 1032,425.8772 1040,412.0208 1048,425.8772 1064,425.8772 1072,412.0208 1064,398.1644 1080,398.1644 1088,384.308 1096,398.1644 1112,398.1644 1104,412.0208 1112,425.8772 1128,425.8772 1136,412.0208 1144,425.8772 1160,425.8772 1168,412.0208 1160,398.1644 1176,398.1644 1184,384.308 1176,370.4516 1160,370.4516 1168,356.5952 1160,342.7388 1176,342.7388 1184,328.8824 1192,342.7388 1208,342.7388 1216,328.8824 1208,315.026 1224,315.026 1232,301.1696 1240,315.026 1256,315.026 1248,328.8824 1256,342.7388 1272,342.7388 1280,328.8824 1288,342.7388 1304,342.7388 1296,356.5952 1304,370.4516 1288,370.4516 1280,384.308 1288,398.1644 1304,398.1644 1296,412.0208 1304,425.8772 1320,425.8772 1328,412.0208 1336,425.8772 1352,425.8772 1360,412.0208 1352,398.1644 1368,398.1644 1376,384.308 1384,398.1644 1400,398.1644 1392,412.0208 1400,425.8772 1416,425.8772 1424,412.0208 1432,425.8772 1448,425.8772 1440,439.7336 1448,453.59 1432,453.59 1424,467.4464 1432,481.3028 1448,481.3028 1440,495.1592 1448,509.0156 1432,509.0156 1424,522.872 1416,509.0156 1400,509.0156 1392,522.872 1400,536.7284 1384,536.7284 1376,550.5848 1384,564.4412 1400,564.4412 1392,578.2976 1400,592.154 1416,592.154 1424,578.2976 1432,592.154 1448,592.154 1440,606.0104 1448,619.8668 1432,619.8668 1424,633.7232 1432,647.5796 1448,647.5796 1440,661.436 1448,675.2924 1432,675.2924 1424,689.1488 1416,675.2924 1400,675.2924 1392,689.1488 1400,703.0052 1384,703.0052 1376,716.8616 1368,703.0052 1352,703.0052 1360,689.1488 1352,675.2924 1336,675.2924 1328,689.1488 1320,675.2924 1304,675.2924 1296,689.1488 1304,703.0052 1288,703.0052 1280,716.8616 1288,730.718 1304,730.718 1296,744.5744 1304,758.4308 1288,758.4308 1280,772.2872 1272,758.4308 1256,758.4308 1248,772.2872 1256,786.1436 1240,786.1436 1232,800 1240,813.8564 1256,813.8564 1248,827.7128 1256,841.5692 1272,841.5692 1280,827.7128 1288,841.5692 1304,841.5692 1296,855.4256 1304,869.282 1288,869.282 1280,883.1384 1288,896.9948 1304,896.9948 1296,910.8512 1304,924.7076 1320,924.7076 1328,910.8512 1336,924.7076 1352,924.7076 1360,910.8512 1352,896.9948 1368,896.9948 1376,883.1384 1384,896.9948 1400,896.9948 1392,910.8512 1400,924.7076 1416,924.7076 1424,910.8512 1432,924.7076 1448,924.7076 1440,938.564 1448,952.4204 1432,952.4204 1424,966.2768 1432,980.1332 1448,980.1332 1440,993.9896 1448,1007.846 1432,1007.846 1424,1021.7024 1416,1007.846 1400,1007.846 1392,1021.7024 1400,1035.5588 1384,1035.5588 1376,1049.4152 1384,1063.2716 1400,1063.2716 1392,1077.128 1400,1090.9844 1416,1090.9844 1424,1077.128 1432,1090.9844 1448,1090.9844 1440,1104.8408 1448,1118.6972 1432,1118.6972 1424,1132.5536 1432,1146.41 1448,1146.41 1440,1160.2664 1448,1174.1228 1432,1174.1228 1424,1187.9792 1416,1174.1228 1400,1174.1228 1392,1187.9792 1400,1201.8356 1384,1201.8356 1376,1215.692 1368,1201.8356 1352,1201.8356 1360,1187.9792 1352,1174.1228 1336,1174.1228 1328,1187.9792 1320,1174.1228 1304,1174.1228 1296,1187.9792 1304,1201.8356 1288,1201.8356 1280,1215.692 1288,1229.5484 1304,1229.5484 1296,1243.4048 1304,1257.2612 1288,1257.2612 1280,1271.1176 1272,1257.2612 1256,1257.2612 1248,1271.1176 1256,1284.974 1240,1284.974 1232,1298.8304 1224,1284.974 1208,1284.974 1216,1271.1176 1208,1257.2612 1192,1257.2612 1184,1271.1176 1176,1257.2612 1160,1257.2612 1168,1243.4048 1160,1229.5484 1176,1229.5484 1184,1215.692 1176,1201.8356 1160,1201.8356 1168,1187.9792 1160,1174.1228 1144,1174.1228 1136,1187.9792 1128,1174.1228 1112,1174.1228 1104,1187.9792 1112,1201.8356 1096,1201.8356 1088,1215.692 1080,1201.8356 1064,1201.8356 1072,1187.9792 1064,1174.1228 1048,1174.1228 1040,1187.9792 1032,1174.1228 1016,1174.1228 1008,1187.9792 1016,1201.8356 1000,1201.8356 992,1215.692 1000,1229.5484 1016,1229.5484 1008,1243.4048 1016,1257.2612 1000,1257.2612 992,1271.1176 984,1257.2612 968,1257.2612 960,1271.1176 968,1284.974 952,1284.974 944,1298.8304 952,1312.6868 968,1312.6868 960,1326.5432 968,1340.3996 984,1340.3996 992,1326.5432 1000,1340.3996 1016,1340.3996 1008,1354.256 1016,1368.1124 1000,1368.1124 992,1381.9688 1000,1395.8252 1016,1395.8252 1008,1409.6816 1016,1423.538 1000,1423.538 992,1437.3944 984,1423.538 968,1423.538 960,1437.3944 968,1451.2508 952,1451.2508 944,1465.1072 936,1451.2508 920,1451.2508 928,1437.3944 920,1423.538 904,1423.538 896,1437.3944 888,1423.538 872,1423.538 864,1437.3944 872,1451.2508 856,1451.2508 848,1465.1072 856,1478.9636 872,1478.9636 864,1492.82 872,1506.6764 856,1506.6764 848,1520.5328 840,1506.6764 824,1506.6764 816,1520.5328 824,1534.3892 808,1534.3892 800,1548.2456 792,1534.3892 776,1534.3892 784,1520.5328 776,1506.6764 760,1506.6764 752,1520.5328 744,1506.6764 728,1506.6764 736,1492.82 728,1478.9636 744,1478.9636 752,1465.1072 744,1451.2508 728,1451.2508 736,1437.3944 728,1423.538 712,1423.538 704,1437.3944 696,1423.538 680,1423.538 672,1437.3944 680,1451.2508 664,1451.2508 656,1465.1072 648,1451.2508 632,1451.2508 640,1437.3944 632,1423.538 616,1423.538 608,1437.3944 600,1423.538 584,1423.538 592,1409.6816 584,1395.8252 600,1395.8252 608,1381.9688 600,1368.1124 584,1368.1124 592,1354.256 584,1340.3996 600,1340.3996 608,1326.5432 616,1340.3996 632,1340.3996 640,1326.5432 632,1312.6868 648,1312.6868 656,1298.8304 648,1284.974 632,1284.974 640,1271.1176 632,1257.2612 616,1257.2612 608,1271.1176 600,1257.2612 584,1257.2612 592,1243.4048 584,1229.5484 600,1229.5484 608,1215.692 600,1201.8356 584,1201.8356 592,1187.9792 584,1174.1228 568,1174.1228 560,1187.9792 552,1174.1228 536,1174.1228 528,1187.9792 536,1201.8356 520,1201.8356 512,1215.692 504,1201.8356 488,1201.8356 496,1187.9792 488,1174.1228 472,1174.1228 464,1187.9792 456,1174.1228 440,1174.1228 432,1187.9792 440,1201.8356 424,1201.8356 416,1215.692 424,1229.5484 440,1229.5484 432,1243.4048 440,1257.2612 424,1257.2612 416,1271.1176 408,1257.2612 392,1257.2612 384,1271.1176 392,1284.974 376,1284.974 368,1298.8304 360,1284.974 344,1284.974 352,1271.1176 344,1257.2612 328,1257.2612 320,1271.1176 312,1257.2612 296,1257.2612 304,1243.4048 296,1229.5484 312,1229.5484 320,1215.692 312,1201.8356 296,1201.8356 304,1187.9792 296,1174.1228 280,1174.1228 272,1187.9792 264,1174.1228 248,1174.1228 240,1187.9792 248,1201.8356 232,1201.8356 224,1215.692 216,1201.8356 200,1201.8356 208,1187.9792 200,1174.1228 184,1174.1228 176,1187.9792 168,1174.1228 152,1174.1228 160,1160.2664 152,1146.41 168,1146.41 176,1132.5536 168,1118.6972 152,1118.6972 160,1104.8408 152,1090.9844 168,1090.9844 176,1077.128 184,1090.9844 200,1090.9844 208,1077.128 200,1063.2716 216,1063.2716 224,1049.4152 216,1035.5588 200,1035.5588 208,1021.7024 200,1007.846 184,1007.846 176,1021.7024 168,1007.846 152,1007.846 160,993.9896 152,980.1332 168,980.1332 176,966.2768 168,952.4204 152,952.4204 160,938.564 152,924.7076 168,924.7076 176,910.8512 184,924.7076 200,924.7076 208,910.8512 200,896.9948 216,896.9948 224,883.1384 232,896.9948 248,896.9948 240,910.8512 248,924.7076 264,924.7076 272,910.8512 280,924.7076 296,924.7076 304,910.8512 296,896.9948 312,896.9948 320,883.1384 312,869.282 296,869.282 304,855.4256 296,841.5692 312,841.5692 320,827.7128 328,841.5692 344,841.5692 352,827.7128 344,813.8564 360,813.8564 368,800 360,786.1436 344,786.1436 352,772.2872 344,758.4308 328,758.4308 320,772.2872 312,758.4308 296,758.4308 304,744.5744 296,730.718 312,730.718 320,716.8616 312,703.0052 296,703.0052 304,689.1488 296,675.2924 280,675.2924 272,689.1488 264,675.2924 248,675.2924 240,689.1488 248,703.0052 232,703.0052 224,716.8616 216,703.0052 200,703.0052 208,689.1488 200,675.2924 184,675.2924 176,689.1488 168,675.2924 152,675.2924 160,661.436 152,647.5796 168,647.5796 176,633.7232 168,619.8668 152,619.8668 160,606.0104 152,592.154 168,592.154 176,578.2976 184,592.154 200,592.154 208,578.2976 200,564.4412 216,564.4412 224,550.5848 216,536.7284 200,536.7284 208,522.872 200,509.0156 184,509.0156 176,522.872 168,509.0156 152,509.0156 160,495.1592 152,481.3028 168,481.3028 176,467.4464 168,453.59 152,453.59 160,439.7336 152,425.8772" />
</svg>