<svg xmlns="http://www.w3.org/2000/svg" viewBox="-1000 -1000 2000 2000" width="100%" height="100%"
	xml:space="preserve" xmlns:xlink="http://wwww3.org/1999/xlink" stroke-linecap="round"
	stroke-linejoin="round"><g><path stroke="#000000" stroke-width="2px" d="M -900 -779.4 L -877.7778 -779.4"></path><path stroke="#000000" stroke-width="2px" d="M -877.7778 -779.4 L -866.6667 -760.1556"></path><path stroke="#000000" stroke-width="2px" d="M -866.6667 -760.1556 L -855.5556 -779.4"></path><path stroke="#000000" stroke-width="2px" d="M -855.5556 -779.4 L -833.3333 -779.4"></path><path stroke="#000000" stroke-width="2px" d="M -833.3333 -779.4 L -822.2222 -760.1556"></path><path stroke="#000000" stroke-width="2px" d="M -822.2222 -760.1556 L -833.3333 -740.9111"></path><path stroke="#000000" stroke-width="2px" d="M -833.3333 -740.9111 L -811.1111 -740.9111"></path><path stroke="#000000" stroke-width="2px" d="M -811.1111 -740.9111 L -800 -721.6667"></path><path stroke="#000000" stroke-width="2px" d="M -800 -721.6667 L -788.8889 -740.9111"></path><path stroke="#000000" stroke-width="2px" d="M -788.8889 -740.9111 L -766.6667 -740.9111"></path><path stroke="#000000" stroke-width="2px" d="M -766.6667 -740.9111 L -777.7778 -760.1556"></path><path stroke="#000000" stroke-width="2px" d="M -777.7778 -760.1556 L -766.6667 -779.4"></path><path stroke="#000000" stroke-width="2px" d="M -766.6667 -779.4 L -744.4444 -779.4"></path><path stroke="#000000" stroke-width="2px" d="M -744.4444 -779.4 L -733.3333 -760.1556"></path><path stroke="#000000" stroke-width="2px" d="M -733.3333 -760.1556 L -722.2222 -779.4"></path><path stroke="#000000" stroke-width="2px" d="M -722.2222 -779.4 L -700 -779.4"></path><path stroke="#000000" stroke-width="2px" d="M -700 -779.4 L -688.8889 -760.1556"></path><path stroke="#000000" stroke-width="2px" d="M -688.8889 -760.1556 L -700 -740.9111"></path><path stroke="#000000" stroke-width="2px" d="M -700 -740.9111 L -677.7778 -740.9111"></path><path stroke="#000000" stroke-width="2px" d="M -677.7778 -740.9111 L -666.6667 -721.6667"></path><path stroke="#000000" stroke-width="2px" d="M -666.6667 -721.6667 L -677.7778 -702.4222"></path><path stroke="#000000" stroke-width="2px" d="M -677.7778 -702.4222 L -700 -702.4222"></path><path stroke="#000000" stroke-width="2px" d="M -700 -702.4222 L -688.8889 -683.1778"></path><path stroke="#000000" stroke-width="2px" d="M -688.8889 -683.1778 L -700 -663.9333"></path><path stroke="#000000" stroke-width="2px" d="M -700 -663.9333 L -677.7778 -663.9333"></path><path stroke="#000000" stroke-width="2px" d="M -677.7778 -663.9333 L -666.6667 -644.6889"></path><path stroke="#000000" stroke-width="2px" d="M -666.6667 -644.6889 L -655.5556 -663.9333"></path><path stroke="#000000" stroke-width="2px" d="M -655.5556 -663.9333 L -633.3333 -663.9333"></path><path stroke="#000000" stroke-width="2px" d="M -633.3333 -663.9333 L -622.2222 -644.6889"></path><path stroke="#000000" stroke-width="2px" d="M -622.2222 -644.6889 L -633.3333 -625.4444"></path><path stroke="#000000" stroke-width="2px" d="M -633.3333 -625.4444 L -611.1111 -625.4444"></path><path stroke="#000000" stroke-width="2px" d="M -611.1111 -625.4444 L -600 -606.2"></path><path stroke="#000000" stroke-width="2px" d="M -600 -606.2 L -588.8889 -625.4444"></path><path stroke="#000000" stroke-width="2px" d="M -588.8889 -625.4444 L -566.6667 -625.4444"></path><path stroke="#000000" stroke-width="2px" d="M -566.6667 -625.4444 L -577.7778 -644.6889"></path><path stroke="#000000" stroke-width="2px" d="M -577.7778 -644.6889 L -566.6667 -663.9333"></path><path stroke="#000000" stroke-width="2px" d="M -566.6667 -663.9333 L -544.4444 -663.9333"></path><path stroke="#000000" stroke-width="2px" d="M -544.4444 -663.9333 L -533.3333 -644.6889"></path><path stroke="#000000" stroke-width="2px" d="M -533.3333 -644.6889 L -522.2222 -663.9333"></path><path stroke="#000000" stroke-width="2px" d="M -522.2222 -663.9333 L -500 -663.9333"></path><path stroke="#000000" stroke-width="2px" d="M -500 -663.9333 L -511.1111 -683.1778"></path><path stroke="#000000" stroke-width="2px" d="M -511.1111 -683.1778 L -500 -702.4222"></path><path stroke="#000000" stroke-width="2px" d="M -500 -702.4222 L -522.2222 -702.4222"></path><path stroke="#000000" stroke-width="2px" d="M -522.2222 -702.4222 L -533.3333 -721.6667"></path><path stroke="#000000" stroke-width="2px" d="M -533.3333 -721.6667 L -522.2222 -740.9111"></path><path stroke="#000000" stroke-width="2px" d="M -522.2222 -740.9111 L -500 -740.9111"></path><path stroke="#000000" stroke-width="2px" d="M -500 -740.9111 L -511.1111 -760.1556"></path><path stroke="#000000" stroke-width="2px" d="M -511.1111 -760.1556 L -500 -779.4"></path><path stroke="#000000" stroke-width="2px" d="M -500 -779.4 L -477.7778 -779.4"></path><path stroke="#000000" stroke-width="2px" d="M -477.7778 -779.4 L -466.6667 -760.1556"></path><path stroke="#000000" stroke-width="2px" d="M -466.6667 -760.1556 L -455.5556 -779.4"></path><path stroke="#000000" stroke-width="2px" d="M -455.5556 -779.4 L -433.3333 -779.4"></path><path stroke="#000000" stroke-width="2px" d="M -433.3333 -779.4 L -422.2222 -760.1556"></path><path stroke="#000000" stroke-width="2px" d="M -422.2222 -760.1556 L -433.3333 -740.9111"></path><path stroke="#000000" stroke-width="2px" d="M -433.3333 -740.9111 L -411.1111 -740.9111"></path><path stroke="#000000" stroke-width="2px" d="M -411.1111 -740.9111 L -400 -721.6667"></path><path stroke="#000000" stroke-width="2px" d="M -400 -721.6667 L -388.8889 -740.9111"></path><path stroke="#000000" stroke-width="2px" d="M -388.8889 -740.9111 L -366.6667 -740.9111"></path><path stroke="#000000" stroke-width="2px" d="M -366.6667 -740.9111 L -377.7778 -760.1556"></path><path stroke="#000000" stroke-width="2px" d="M -377.7778 -760.1556 L -366.6667 -779.4"></path><path stroke="#000000" stroke-width="2px" d="M -366.6667 -779.4 L -344.4444 -779.4"></path><path stroke="#000000" stroke-width="2px" d="M -344.4444 -779.4 L -333.3333 -760.1556"></path><path stroke="#000000" stroke-width="2px" d="M -333.3333 -760.1556 L -322.2222 -779.4"></path><path stroke="#000000" stroke-width="2px" d="M -322.2222 -779.4 L -300 -779.4"></path><path stroke="#000000" stroke-width="2px" d="M -300 -779.4 L -288.8889 -760.1556"></path><path stroke="#000000" stroke-width="2px" d="M -288.8889 -760.1556 L -300 -740.9111"></path><path stroke="#000000" stroke-width="2px" d="M -300 -740.9111 L -277.7778 -740.9111"></path><path stroke="#000000" stroke-width="2px" d="M -277.7778 -740.9111 L -266.6667 -721.6667"></path><path stroke="#000000" stroke-width="2px" d="M -266.6667 -721.6667 L -277.7778 -702.4222"></path><path stroke="#000000" stroke-width="2px" d="M -277.7778 -702.4222 L -300 -702.4222"></path><path stroke="#000000" stroke-width="2px" d="M -300 -702.4222 L -288.8889 -683.1778"></path><path stroke="#000000" stroke-width="2px" d="M -288.8889 -683.1778 L -300 -663.9333"></path><path stroke="#000000" stroke-width="2px" d="M -300 -663.9333 L -277.7778 -663.9333"></path><path stroke="#000000" stroke-width="2px" d="M -277.7778 -663.9333 L -266.6667 -644.6889"></path><path stroke="#000000" stroke-width="2px" d="M -266.6667 -644.6889 L -255.5556 -663.9333"></path><path stroke="#000000" stroke-width="2px" d="M -255.5556 -663.9333 L -233.3333 -663.9333"></path><path stroke="#000000" stroke-width="2px" d="M -233.3333 -663.9333 L -222.2222 -644.6889"></path><path stroke="#000000" stroke-width="2px" d="M -222.2222 -644.6889 L -233.3333 -625.4444"></path><path stroke="#000000" stroke-width="2px" d="M -233.3333 -625.4444 L -211.1111 -625.4444"></path><path stroke="#000000" stroke-width="2px" d="M -211.1111 -625.4444 L -200 -606.2"></path><path stroke="#000000" stroke-width="2px" d="M -200 -606.2 L -211.1111 -586.9556"></path><path stroke="#000000" stroke-width="2px" d="M -211.1111 -586.9556 L -233.3333 -586.9556"></path><path stroke="#000000" stroke-width="2px" d="M -233.3333 -586.9556 L -222.2222 -567.7111"></path><path stroke="#000000" stroke-width="2px" d="M -222.2222 -567.7111 L -233.3333 -548.4667"></path><path stroke="#000000" stroke-width="2px" d="M -233.3333 -548.4667 L -255.5556 -548.4667"></path><path stroke="#000000" stroke-width="2px" d="M -255.5556 -548.4667 L -266.6667 -567.7111"></path><path stroke="#000000" stroke-width="2px" d="M -266.6667 -567.7111 L -277.7778 -548.4667"></path><path stroke="#000000" stroke-width="2px" d="M -277.7778 -548.4667 L -300 -548.4667"></path><path stroke="#000000" stroke-width="2px" d="M -300 -548.4667 L -288.8889 -529.2222"></path><path stroke="#000000" stroke-width="2px" d="M -288.8889 -529.2222 L -300 -509.9778"></path><path stroke="#000000" stroke-width="2px" d="M -300 -509.9778 L -277.7778 -509.9778"></path><path stroke="#000000" stroke-width="2px" d="M -277.7778 -509.9778 L -266.6667 -490.7333"></path><path stroke="#000000" stroke-width="2px" d="M -266.6667 -490.7333 L -277.7778 -471.4889"></path><path stroke="#000000" stroke-width="2px" d="M -277.7778 -471.4889 L -300 -471.4889"></path><path stroke="#000000" stroke-width="2px" d="M -300 -471.4889 L -288.8889 -452.2444"></path><path stroke="#000000" stroke-width="2px" d="M -288.8889 -452.2444 L -300 -433"></path><path stroke="#000000" stroke-width="2px" d="M -300 -433 L -277.7778 -433"></path><path stroke="#000000" stroke-width="2px" d="M -277.7778 -433 L -266.6667 -413.7556"></path><path stroke="#000000" stroke-width="2px" d="M -266.6667 -413.7556 L -255.5556 -433"></path><path stroke="#000000" stroke-width="2px" d="M -255.5556 -433 L -233.3333 -433"></path><path stroke="#000000" stroke-width="2px" d="M -233.3333 -433 L -222.2222 -413.7556"></path><path stroke="#000000" stroke-width="2px" d="M -222.2222 -413.7556 L -233.3333 -394.5111"></path><path stroke="#000000" stroke-width="2px" d="M -233.3333 -394.5111 L -211.1111 -394.5111"></path><path stroke="#000000" stroke-width="2px" d="M -211.1111 -394.5111 L -200 -375.2667"></path><path stroke="#000000" stroke-width="2px" d="M -200 -375.2667 L -188.8889 -394.5111"></path><path stroke="#000000" stroke-width="2px" d="M -188.8889 -394.5111 L -166.6667 -394.5111"></path><path stroke="#000000" stroke-width="2px" d="M -166.6667 -394.5111 L -177.7778 -413.7556"></path><path stroke="#000000" stroke-width="2px" d="M -177.7778 -413.7556 L -166.6667 -433"></path><path stroke="#000000" stroke-width="2px" d="M -166.6667 -433 L -144.4444 -433"></path><path stroke="#000000" stroke-width="2px" d="M -144.4444 -433 L -133.3333 -413.7556"></path><path stroke="#000000" stroke-width="2px" d="M -133.3333 -413.7556 L -122.2222 -433"></path><path stroke="#000000" stroke-width="2px" d="M -122.2222 -433 L -100 -433"></path><path stroke="#000000" stroke-width="2px" d="M -100 -433 L -88.8889 -413.7556"></path><path stroke="#000000" stroke-width="2px" d="M -88.8889 -413.7556 L -100 -394.5111"></path><path stroke="#000000" stroke-width="2px" d="M -100 -394.5111 L -77.7778 -394.5111"></path><path stroke="#000000" stroke-width="2px" d="M -77.7778 -394.5111 L -66.6667 -375.2667"></path><path stroke="#000000" stroke-width="2px" d="M -66.6667 -375.2667 L -77.7778 -356.0222"></path><path stroke="#000000" stroke-width="2px" d="M -77.7778 -356.0222 L -100 -356.0222"></path><path stroke="#000000" stroke-width="2px" d="M -100 -356.0222 L -88.8889 -336.7778"></path><path stroke="#000000" stroke-width="2px" d="M -88.8889 -336.7778 L -100 -317.5333"></path><path stroke="#000000" stroke-width="2px" d="M -100 -317.5333 L -77.7778 -317.5333"></path><path stroke="#000000" stroke-width="2px" d="M -77.7778 -317.5333 L -66.6667 -298.2889"></path><path stroke="#000000" stroke-width="2px" d="M -66.6667 -298.2889 L -55.5556 -317.5333"></path><path stroke="#000000" stroke-width="2px" d="M -55.5556 -317.5333 L -33.3333 -317.5333"></path><path stroke="#000000" stroke-width="2px" d="M -33.3333 -317.5333 L -22.2222 -298.2889"></path><path stroke="#000000" stroke-width="2px" d="M -22.2222 -298.2889 L -33.3333 -279.0444"></path><path stroke="#000000" stroke-width="2px" d="M -33.3333 -279.0444 L -11.1111 -279.0444"></path><path stroke="#000000" stroke-width="2px" d="M -11.1111 -279.0444 L 0 -259.8"></path><path stroke="#000000" stroke-width="2px" d="M 0 -259.8 L 11.1111 -279.0444"></path><path stroke="#000000" stroke-width="2px" d="M 11.1111 -279.0444 L 33.3333 -279.0444"></path><path stroke="#000000" stroke-width="2px" d="M 33.3333 -279.0444 L 22.2222 -298.2889"></path><path stroke="#000000" stroke-width="2px" d="M 22.2222 -298.2889 L 33.3333 -317.5333"></path><path stroke="#000000" stroke-width="2px" d="M 33.3333 -317.5333 L 55.5556 -317.5333"></path><path stroke="#000000" stroke-width="2px" d="M 55.5556 -317.5333 L 66.6667 -298.2889"></path><path stroke="#000000" stroke-width="2px" d="M 66.6667 -298.2889 L 77.7778 -317.5333"></path><path stroke="#000000" stroke-width="2px" d="M 77.7778 -317.5333 L 100 -317.5333"></path><path stroke="#000000" stroke-width="2px" d="M 100 -317.5333 L 88.8889 -336.7778"></path><path stroke="#000000" stroke-width="2px" d="M 88.8889 -336.7778 L 100 -356.0222"></path><path stroke="#000000" stroke-width="2px" d="M 100 -356.0222 L 77.7778 -356.0222"></path><path stroke="#000000" stroke-width="2px" d="M 77.7778 -356.0222 L 66.6667 -375.2667"></path><path stroke="#000000" stroke-width="2px" d="M 66.6667 -375.2667 L 77.7778 -394.5111"></path><path stroke="#000000" stroke-width="2px" d="M 77.7778 -394.5111 L 100 -394.5111"></path><path stroke="#000000" stroke-width="2px" d="M 100 -394.5111 L 88.8889 -413.7556"></path><path stroke="#000000" stroke-width="2px" d="M 88.8889 -413.7556 L 100 -433"></path><path stroke="#000000" stroke-width="2px" d="M 100 -433 L 122.2222 -433"></path><path stroke="#000000" stroke-width="2px" d="M 122.2222 -433 L 133.3333 -413.7556"></path><path stroke="#000000" stroke-width="2px" d="M 133.3333 -413.7556 L 144.4444 -433"></path><path stroke="#000000" stroke-width="2px" d="M 144.4444 -433 L 166.6667 -433"></path><path stroke="#000000" stroke-width="2px" d="M 166.6667 -433 L 177.7778 -413.7556"></path><path stroke="#000000" stroke-width="2px" d="M 177.7778 -413.7556 L 166.6667 -394.5111"></path><path stroke="#000000" stroke-width="2px" d="M 166.6667 -394.5111 L 188.8889 -394.5111"></path><path stroke="#000000" stroke-width="2px" d="M 188.8889 -394.5111 L 200 -375.2667"></path><path stroke="#000000" stroke-width="2px" d="M 200 -375.2667 L 211.1111 -394.5111"></path><path stroke="#000000" stroke-width="2px" d="M 211.1111 -394.5111 L 233.3333 -394.5111"></path><path stroke="#000000" stroke-width="2px" d="M 233.3333 -394.5111 L 222.2222 -413.7556"></path><path stroke="#000000" stroke-width="2px" d="M 222.2222 -413.7556 L 233.3333 -433"></path><path stroke="#000000" stroke-width="2px" d="M 233.3333 -433 L 255.5556 -433"></path><path stroke="#000000" stroke-width="2px" d="M 255.5556 -433 L 266.6667 -413.7556"></path><path stroke="#000000" stroke-width="2px" d="M 266.6667 -413.7556 L 277.7778 -433"></path><path stroke="#000000" stroke-width="2px" d="M 277.7778 -433 L 300 -433"></path><path stroke="#000000" stroke-width="2px" d="M 300 -433 L 288.8889 -452.2444"></path><path stroke="#000000" stroke-width="2px" d="M 288.8889 -452.2444 L 300 -471.4889"></path><path stroke="#000000" stroke-width="2px" d="M 300 -471.4889 L 277.7778 -471.4889"></path><path stroke="#000000" stroke-width="2px" d="M 277.7778 -471.4889 L 266.6667 -490.7333"></path><path stroke="#000000" stroke-width="2px" d="M 266.6667 -490.7333 L 277.7778 -509.9778"></path><path stroke="#000000" stroke-width="2px" d="M 277.7778 -509.9778 L 300 -509.9778"></path><path stroke="#000000" stroke-width="2px" d="M 300 -509.9778 L 288.8889 -529.2222"></path><path stroke="#000000" stroke-width="2px" d="M 288.8889 -529.2222 L 300 -548.4667"></path><path stroke="#000000" stroke-width="2px" d="M 300 -548.4667 L 277.7778 -548.4667"></path><path stroke="#000000" stroke-width="2px" d="M 277.7778 -548.4667 L 266.6667 -567.7111"></path><path stroke="#000000" stroke-width="2px" d="M 266.6667 -567.7111 L 255.5556 -548.4667"></path><path stroke="#000000" stroke-width="2px" d="M 255.5556 -548.4667 L 233.3333 -548.4667"></path><path stroke="#000000" stroke-width="2px" d="M 233.3333 -548.4667 L 222.2222 -567.7111"></path><path stroke="#000000" stroke-width="2px" d="M 222.2222 -567.7111 L 233.3333 -586.9556"></path><path stroke="#000000" stroke-width="2px" d="M 233.3333 -586.9556 L 211.1111 -586.9556"></path><path stroke="#000000" stroke-width="2px" d="M 211.1111 -586.9556 L 200 -606.2"></path><path stroke="#000000" stroke-width="2px" d="M 200 -606.2 L 211.1111 -625.4444"></path><path stroke="#000000" stroke-width="2px" d="M 211.1111 -625.4444 L 233.3333 -625.4444"></path><path stroke="#000000" stroke-width="2px" d="M 233.3333 -625.4444 L 222.2222 -644.6889"></path><path stroke="#000000" stroke-width="2px" d="M 222.2222 -644.6889 L 233.3333 -663.9333"></path><path stroke="#000000" stroke-width="2px" d="M 233.3333 -663.9333 L 255.5556 -663.9333"></path><path stroke="#000000" stroke-width="2px" d="M 255.5556 -663.9333 L 266.6667 -644.6889"></path><path stroke="#000000" stroke-width="2px" d="M 266.6667 -644.6889 L 277.7778 -663.9333"></path><path stroke="#000000" stroke-width="2px" d="M 277.7778 -663.9333 L 300 -663.9333"></path><path stroke="#000000" stroke-width="2px" d="M 300 -663.9333 L 288.8889 -683.1778"></path><path stroke="#000000" stroke-width="2px" d="M 288.8889 -683.1778 L 300 -702.4222"></path><path stroke="#000000" stroke-width="2px" d="M 300 -702.4222 L 277.7778 -702.4222"></path><path stroke="#000000" stroke-width="2px" d="M 277.7778 -702.4222 L 266.6667 -721.6667"></path><path stroke="#000000" stroke-width="2px" d="M 266.6667 -721.6667 L 277.7778 -740.9111"></path><path stroke="#000000" stroke-width="2px" d="M 277.7778 -740.9111 L 300 -740.9111"></path><path stroke="#000000" stroke-width="2px" d="M 300 -740.9111 L 288.8889 -760.1556"></path><path stroke="#000000" stroke-width="2px" d="M 288.8889 -760.1556 L 300 -779.4"></path><path stroke="#000000" stroke-width="2px" d="M 300 -779.4 L 322.2222 -779.4"></path><path stroke="#000000" stroke-width="2px" d="M 322.2222 -779.4 L 333.3333 -760.1556"></path><path stroke="#000000" stroke-width="2px" d="M 333.3333 -760.1556 L 344.4444 -779.4"></path><path stroke="#000000" stroke-width="2px" d="M 344.4444 -779.4 L 366.6667 -779.4"></path><path stroke="#000000" stroke-width="2px" d="M 366.6667 -779.4 L 377.7778 -760.1556"></path><path stroke="#000000" stroke-width="2px" d="M 377.7778 -760.1556 L 366.6667 -740.9111"></path><path stroke="#000000" stroke-width="2px" d="M 366.6667 -740.9111 L 388.8889 -740.9111"></path><path stroke="#000000" stroke-width="2px" d="M 388.8889 -740.9111 L 400 -721.6667"></path><path stroke="#000000" stroke-width="2px" d="M 400 -721.6667 L 411.1111 -740.9111"></path><path stroke="#000000" stroke-width="2px" d="M 411.1111 -740.9111 L 433.3333 -740.9111"></path><path stroke="#000000" stroke-width="2px" d="M 433.3333 -740.9111 L 422.2222 -760.1556"></path><path stroke="#000000" stroke-width="2px" d="M 422.2222 -760.1556 L 433.3333 -779.4"></path><path stroke="#000000" stroke-width="2px" d="M 433.3333 -779.4 L 455.5556 -779.4"></path><path stroke="#000000" stroke-width="2px" d="M 455.5556 -779.4 L 466.6667 -760.1556"></path><path stroke="#000000" stroke-width="2px" d="M 466.6667 -760.1556 L 477.7778 -779.4"></path><path stroke="#000000" stroke-width="2px" d="M 477.7778 -779.4 L 500 -779.4"></path><path stroke="#000000" stroke-width="2px" d="M 500 -779.4 L 511.1111 -760.1556"></path><path stroke="#000000" stroke-width="2px" d="M 511.1111 -760.1556 L 500 -740.9111"></path><path stroke="#000000" stroke-width="2px" d="M 500 -740.9111 L 522.2222 -740.9111"></path><path stroke="#000000" stroke-width="2px" d="M 522.2222 -740.9111 L 533.3333 -721.6667"></path><path stroke="#000000" stroke-width="2px" d="M 533.3333 -721.6667 L 522.2222 -702.4222"></path><path stroke="#000000" stroke-width="2px" d="M 522.2222 -702.4222 L 500 -702.4222"></path><path stroke="#000000" stroke-width="2px" d="M 500 -702.4222 L 511.1111 -683.1778"></path><path stroke="#000000" stroke-width="2px" d="M 511.1111 -683.1778 L 500 -663.9333"></path><path stroke="#000000" stroke-width="2px" d="M 500 -663.9333 L 522.2222 -663.9333"></path><path stroke="#000000" stroke-width="2px" d="M 522.2222 -663.9333 L 533.3333 -644.6889"></path><path stroke="#000000" stroke-width="2px" d="M 533.3333 -644.6889 L 544.4444 -663.9333"></path><path stroke="#000000" stroke-width="2px" d="M 544.4444 -663.9333 L 566.6667 -663.9333"></path><path stroke="#000000" stroke-width="2px" d="M 566.6667 -663.9333 L 577.7778 -644.6889"></path><path stroke="#000000" stroke-width="2px" d="M 577.7778 -644.6889 L 566.6667 -625.4444"></path><path stroke="#000000" stroke-width="2px" d="M 566.6667 -625.4444 L 588.8889 -625.4444"></path><path stroke="#000000" stroke-width="2px" d="M 588.8889 -625.4444 L 600 -606.2"></path><path stroke="#000000" stroke-width="2px" d="M 600 -606.2 L 611.1111 -625.4444"></path><path stroke="#000000" stroke-width="2px" d="M 611.1111 -625.4444 L 633.3333 -625.4444"></path><path stroke="#000000" stroke-width="2px" d="M 633.3333 -625.4444 L 622.2222 -644.6889"></path><path stroke="#000000" stroke-width="2px" d="M 622.2222 -644.6889 L 633.3333 -663.9333"></path><path stroke="#000000" stroke-width="2px" d="M 633.3333 -663.9333 L 655.5556 -663.9333"></path><path stroke="#000000" stroke-width="2px" d="M 655.5556 -663.9333 L 666.6667 -644.6889"></path><path stroke="#000000" stroke-width="2px" d="M 666.6667 -644.6889 L 677.7778 -663.9333"></path><path stroke="#000000" stroke-width="2px" d="M 677.7778 -663.9333 L 700 -663.9333"></path><path stroke="#000000" stroke-width="2px" d="M 700 -663.9333 L 688.8889 -683.1778"></path><path stroke="#000000" stroke-width="2px" d="M 688.8889 -683.1778 L 700 -702.4222"></path><path stroke="#000000" stroke-width="2px" d="M 700 -702.4222 L 677.7778 -702.4222"></path><path stroke="#000000" stroke-width="2px" d="M 677.7778 -702.4222 L 666.6667 -721.6667"></path><path stroke="#000000" stroke-width="2px" d="M 666.6667 -721.6667 L 677.7778 -740.9111"></path><path stroke="#000000" stroke-width="2px" d="M 677.7778 -740.9111 L 700 -740.9111"></path><path stroke="#000000" stroke-width="2px" d="M 700 -740.9111 L 688.8889 -760.1556"></path><path stroke="#000000" stroke-width="2px" d="M 688.8889 -760.1556 L 700 -779.4"></path><path stroke="#000000" stroke-width="2px" d="M 700 -779.4 L 722.2222 -779.4"></path><path stroke="#000000" stroke-width="2px" d="M 722.2222 -779.4 L 733.3333 -760.1556"></path><path stroke="#000000" stroke-width="2px" d="M 733.3333 -760.1556 L 744.4444 -779.4"></path><path stroke="#000000" stroke-width="2px" d="M 744.4444 -779.4 L 766.6667 -779.4"></path><path stroke="#000000" stroke-width="2px" d="M 766.6667 -779.4 L 777.7778 -760.1556"></path><path stroke="#000000" stroke-width="2px" d="M 777.7778 -760.1556 L 766.6667 -740.9111"></path><path stroke="#000000" stroke-width="2px" d="M 766.6667 -740.9111 L 788.8889 -740.9111"></path><path stroke="#000000" stroke-width="2px" d="M 788.8889 -740.9111 L 800 -721.6667"></path><path stroke="#000000" stroke-width="2px" d="M 800 -721.6667 L 811.1111 -740.9111"></path><path stroke="#000000" stroke-width="2px" d="M 811.1111 -740.9111 L 833.3333 -740.9111"></path><path stroke="#000000" stroke-width="2px" d="M 833.3333 -740.9111 L 822.2222 -760.1556"></path><path stroke="#000000" stroke-width="2px" d="M 822.2222 -760.1556 L 833.3333 -779.4"></path><path stroke="#000000" stroke-width="2px" d="M 833.3333 -779.4 L 855.5556 -779.4"></path><path stroke="#000000" stroke-width="2px" d="M 855.5556 -779.4 L 866.6667 -760.1556"></path><path stroke="#000000" stroke-width="2px" d="M 866.6667 -760.1556 L 877.7778 -779.4"></path><path stroke="#000000" stroke-width="2px" d="M 877.7778 -779.4 L 900 -779.4"></path><path stroke="#000000" stroke-width="2px" d="M 900 -779.4 L 888.8889 -760.1556"></path><path stroke="#000000" stroke-width="2px" d="M 888.8889 -760.1556 L 866.6667 -760.1556"></path><path stroke="#000000" stroke-width="2px" d="M 866.6667 -760.1556 L 877.7778 -740.9111"></path><path stroke="#000000" stroke-width="2px" d="M 877.7778 -740.9111 L 866.6667 -721.6667"></path><path stroke="#000000" stroke-width="2px" d="M 866.6667 -721.6667 L 844.4444 -721.6667"></path><path stroke="#000000" stroke-width="2px" d="M 844.4444 -721.6667 L 833.3333 -740.9111"></path><path stroke="#000000" stroke-width="2px" d="M 833.3333 -740.9111 L 822.2222 -721.6667"></path><path stroke="#000000" stroke-width="2px" d="M 822.2222 -721.6667 L 800 -721.6667"></path><path stroke="#000000" stroke-width="2px" d="M 800 -721.6667 L 811.1111 -702.4222"></path><path stroke="#000000" stroke-width="2px" d="M 811.1111 -702.4222 L 800 -683.1778"></path><path stroke="#000000" stroke-width="2px" d="M 800 -683.1778 L 822.2222 -683.1778"></path><path stroke="#000000" stroke-width="2px" d="M 822.2222 -683.1778 L 833.3333 -663.9333"></path><path stroke="#000000" stroke-width="2px" d="M 833.3333 -663.9333 L 822.2222 -644.6889"></path><path stroke="#000000" stroke-width="2px" d="M 822.2222 -644.6889 L 800 -644.6889"></path><path stroke="#000000" stroke-width="2px" d="M 800 -644.6889 L 811.1111 -625.4444"></path><path stroke="#000000" stroke-width="2px" d="M 811.1111 -625.4444 L 800 -606.2"></path><path stroke="#000000" stroke-width="2px" d="M 800 -606.2 L 777.7778 -606.2"></path><path stroke="#000000" stroke-width="2px" d="M 777.7778 -606.2 L 766.6667 -625.4444"></path><path stroke="#000000" stroke-width="2px" d="M 766.6667 -625.4444 L 755.5556 -606.2"></path><path stroke="#000000" stroke-width="2px" d="M 755.5556 -606.2 L 733.3333 -606.2"></path><path stroke="#000000" stroke-width="2px" d="M 733.3333 -606.2 L 722.2222 -625.4444"></path><path stroke="#000000" stroke-width="2px" d="M 722.2222 -625.4444 L 733.3333 -644.6889"></path><path stroke="#000000" stroke-width="2px" d="M 733.3333 -644.6889 L 711.1111 -644.6889"></path><path stroke="#000000" stroke-width="2px" d="M 711.1111 -644.6889 L 700 -663.9333"></path><path stroke="#000000" stroke-width="2px" d="M 700 -663.9333 L 688.8889 -644.6889"></path><path stroke="#000000" stroke-width="2px" d="M 688.8889 -644.6889 L 666.6667 -644.6889"></path><path stroke="#000000" stroke-width="2px" d="M 666.6667 -644.6889 L 677.7778 -625.4444"></path><path stroke="#000000" stroke-width="2px" d="M 677.7778 -625.4444 L 666.6667 -606.2"></path><path stroke="#000000" stroke-width="2px" d="M 666.6667 -606.2 L 644.4444 -606.2"></path><path stroke="#000000" stroke-width="2px" d="M 644.4444 -606.2 L 633.3333 -625.4444"></path><path stroke="#000000" stroke-width="2px" d="M 633.3333 -625.4444 L 622.2222 -606.2"></path><path stroke="#000000" stroke-width="2px" d="M 622.2222 -606.2 L 600 -606.2"></path><path stroke="#000000" stroke-width="2px" d="M 600 -606.2 L 611.1111 -586.9556"></path><path stroke="#000000" stroke-width="2px" d="M 611.1111 -586.9556 L 600 -567.7111"></path><path stroke="#000000" stroke-width="2px" d="M 600 -567.7111 L 622.2222 -567.7111"></path><path stroke="#000000" stroke-width="2px" d="M 622.2222 -567.7111 L 633.3333 -548.4667"></path><path stroke="#000000" stroke-width="2px" d="M 633.3333 -548.4667 L 622.2222 -529.2222"></path><path stroke="#000000" stroke-width="2px" d="M 622.2222 -529.2222 L 600 -529.2222"></path><path stroke="#000000" stroke-width="2px" d="M 600 -529.2222 L 611.1111 -509.9778"></path><path stroke="#000000" stroke-width="2px" d="M 611.1111 -509.9778 L 600 -490.7333"></path><path stroke="#000000" stroke-width="2px" d="M 600 -490.7333 L 622.2222 -490.7333"></path><path stroke="#000000" stroke-width="2px" d="M 622.2222 -490.7333 L 633.3333 -471.4889"></path><path stroke="#000000" stroke-width="2px" d="M 633.3333 -471.4889 L 644.4444 -490.7333"></path><path stroke="#000000" stroke-width="2px" d="M 644.4444 -490.7333 L 666.6667 -490.7333"></path><path stroke="#000000" stroke-width="2px" d="M 666.6667 -490.7333 L 677.7778 -471.4889"></path><path stroke="#000000" stroke-width="2px" d="M 677.7778 -471.4889 L 666.6667 -452.2444"></path><path stroke="#000000" stroke-width="2px" d="M 666.6667 -452.2444 L 688.8889 -452.2444"></path><path stroke="#000000" stroke-width="2px" d="M 688.8889 -452.2444 L 700 -433"></path><path stroke="#000000" stroke-width="2px" d="M 700 -433 L 688.8889 -413.7556"></path><path stroke="#000000" stroke-width="2px" d="M 688.8889 -413.7556 L 666.6667 -413.7556"></path><path stroke="#000000" stroke-width="2px" d="M 666.6667 -413.7556 L 677.7778 -394.5111"></path><path stroke="#000000" stroke-width="2px" d="M 677.7778 -394.5111 L 666.6667 -375.2667"></path><path stroke="#000000" stroke-width="2px" d="M 666.6667 -375.2667 L 644.4444 -375.2667"></path><path stroke="#000000" stroke-width="2px" d="M 644.4444 -375.2667 L 633.3333 -394.5111"></path><path stroke="#000000" stroke-width="2px" d="M 633.3333 -394.5111 L 622.2222 -375.2667"></path><path stroke="#000000" stroke-width="2px" d="M 622.2222 -375.2667 L 600 -375.2667"></path><path stroke="#000000" stroke-width="2px" d="M 600 -375.2667 L 611.1111 -356.0222"></path><path stroke="#000000" stroke-width="2px" d="M 611.1111 -356.0222 L 600 -336.7778"></path><path stroke="#000000" stroke-width="2px" d="M 600 -336.7778 L 622.2222 -336.7778"></path><path stroke="#000000" stroke-width="2px" d="M 622.2222 -336.7778 L 633.3333 -317.5333"></path><path stroke="#000000" stroke-width="2px" d="M 633.3333 -317.5333 L 622.2222 -298.2889"></path><path stroke="#000000" stroke-width="2px" d="M 622.2222 -298.2889 L 600 -298.2889"></path><path stroke="#000000" stroke-width="2px" d="M 600 -298.2889 L 611.1111 -279.0444"></path><path stroke="#000000" stroke-width="2px" d="M 611.1111 -279.0444 L 600 -259.8"></path><path stroke="#000000" stroke-width="2px" d="M 600 -259.8 L 577.7778 -259.8"></path><path stroke="#000000" stroke-width="2px" d="M 577.7778 -259.8 L 566.6667 -279.0444"></path><path stroke="#000000" stroke-width="2px" d="M 566.6667 -279.0444 L 555.5556 -259.8"></path><path stroke="#000000" stroke-width="2px" d="M 555.5556 -259.8 L 533.3333 -259.8"></path><path stroke="#000000" stroke-width="2px" d="M 533.3333 -259.8 L 522.2222 -279.0444"></path><path stroke="#000000" stroke-width="2px" d="M 522.2222 -279.0444 L 533.3333 -298.2889"></path><path stroke="#000000" stroke-width="2px" d="M 533.3333 -298.2889 L 511.1111 -298.2889"></path><path stroke="#000000" stroke-width="2px" d="M 511.1111 -298.2889 L 500 -317.5333"></path><path stroke="#000000" stroke-width="2px" d="M 500 -317.5333 L 488.8889 -298.2889"></path><path stroke="#000000" stroke-width="2px" d="M 488.8889 -298.2889 L 466.6667 -298.2889"></path><path stroke="#000000" stroke-width="2px" d="M 466.6667 -298.2889 L 477.7778 -279.0444"></path><path stroke="#000000" stroke-width="2px" d="M 477.7778 -279.0444 L 466.6667 -259.8"></path><path stroke="#000000" stroke-width="2px" d="M 466.6667 -259.8 L 444.4444 -259.8"></path><path stroke="#000000" stroke-width="2px" d="M 444.4444 -259.8 L 433.3333 -279.0444"></path><path stroke="#000000" stroke-width="2px" d="M 433.3333 -279.0444 L 422.2222 -259.8"></path><path stroke="#000000" stroke-width="2px" d="M 422.2222 -259.8 L 400 -259.8"></path><path stroke="#000000" stroke-width="2px" d="M 400 -259.8 L 388.8889 -279.0444"></path><path stroke="#000000" stroke-width="2px" d="M 388.8889 -279.0444 L 400 -298.2889"></path><path stroke="#000000" stroke-width="2px" d="M 400 -298.2889 L 377.7778 -298.2889"></path><path stroke="#000000" stroke-width="2px" d="M 377.7778 -298.2889 L 366.6667 -317.5333"></path><path stroke="#000000" stroke-width="2px" d="M 366.6667 -317.5333 L 377.7778 -336.7778"></path><path stroke="#000000" stroke-width="2px" d="M 377.7778 -336.7778 L 400 -336.7778"></path><path stroke="#000000" stroke-width="2px" d="M 400 -336.7778 L 388.8889 -356.0222"></path><path stroke="#000000" stroke-width="2px" d="M 388.8889 -356.0222 L 400 -375.2667"></path><path stroke="#000000" stroke-width="2px" d="M 400 -375.2667 L 377.7778 -375.2667"></path><path stroke="#000000" stroke-width="2px" d="M 377.7778 -375.2667 L 366.6667 -394.5111"></path><path stroke="#000000" stroke-width="2px" d="M 366.6667 -394.5111 L 355.5556 -375.2667"></path><path stroke="#000000" stroke-width="2px" d="M 355.5556 -375.2667 L 333.3333 -375.2667"></path><path stroke="#000000" stroke-width="2px" d="M 333.3333 -375.2667 L 322.2222 -394.5111"></path><path stroke="#000000" stroke-width="2px" d="M 322.2222 -394.5111 L 333.3333 -413.7556"></path><path stroke="#000000" stroke-width="2px" d="M 333.3333 -413.7556 L 311.1111 -413.7556"></path><path stroke="#000000" stroke-width="2px" d="M 311.1111 -413.7556 L 300 -433"></path><path stroke="#000000" stroke-width="2px" d="M 300 -433 L 288.8889 -413.7556"></path><path stroke="#000000" stroke-width="2px" d="M 288.8889 -413.7556 L 266.6667 -413.7556"></path><path stroke="#000000" stroke-width="2px" d="M 266.6667 -413.7556 L 277.7778 -394.5111"></path><path stroke="#000000" stroke-width="2px" d="M 277.7778 -394.5111 L 266.6667 -375.2667"></path><path stroke="#000000" stroke-width="2px" d="M 266.6667 -375.2667 L 244.4444 -375.2667"></path><path stroke="#000000" stroke-width="2px" d="M 244.4444 -375.2667 L 233.3333 -394.5111"></path><path stroke="#000000" stroke-width="2px" d="M 233.3333 -394.5111 L 222.2222 -375.2667"></path><path stroke="#000000" stroke-width="2px" d="M 222.2222 -375.2667 L 200 -375.2667"></path><path stroke="#000000" stroke-width="2px" d="M 200 -375.2667 L 211.1111 -356.0222"></path><path stroke="#000000" stroke-width="2px" d="M 211.1111 -356.0222 L 200 -336.7778"></path><path stroke="#000000" stroke-width="2px" d="M 200 -336.7778 L 222.2222 -336.7778"></path><path stroke="#000000" stroke-width="2px" d="M 222.2222 -336.7778 L 233.3333 -317.5333"></path><path stroke="#000000" stroke-width="2px" d="M 233.3333 -317.5333 L 222.2222 -298.2889"></path><path stroke="#000000" stroke-width="2px" d="M 222.2222 -298.2889 L 200 -298.2889"></path><path stroke="#000000" stroke-width="2px" d="M 200 -298.2889 L 211.1111 -279.0444"></path><path stroke="#000000" stroke-width="2px" d="M 211.1111 -279.0444 L 200 -259.8"></path><path stroke="#000000" stroke-width="2px" d="M 200 -259.8 L 177.7778 -259.8"></path><path stroke="#000000" stroke-width="2px" d="M 177.7778 -259.8 L 166.6667 -279.0444"></path><path stroke="#000000" stroke-width="2px" d="M 166.6667 -279.0444 L 155.5556 -259.8"></path><path stroke="#000000" stroke-width="2px" d="M 155.5556 -259.8 L 133.3333 -259.8"></path><path stroke="#000000" stroke-width="2px" d="M 133.3333 -259.8 L 122.2222 -279.0444"></path><path stroke="#000000" stroke-width="2px" d="M 122.2222 -279.0444 L 133.3333 -298.2889"></path><path stroke="#000000" stroke-width="2px" d="M 133.3333 -298.2889 L 111.1111 -298.2889"></path><path stroke="#000000" stroke-width="2px" d="M 111.1111 -298.2889 L 100 -317.5333"></path><path stroke="#000000" stroke-width="2px" d="M 100 -317.5333 L 88.8889 -298.2889"></path><path stroke="#000000" stroke-width="2px" d="M 88.8889 -298.2889 L 66.6667 -298.2889"></path><path stroke="#000000" stroke-width="2px" d="M 66.6667 -298.2889 L 77.7778 -279.0444"></path><path stroke="#000000" stroke-width="2px" d="M 77.7778 -279.0444 L 66.6667 -259.8"></path><path stroke="#000000" stroke-width="2px" d="M 66.6667 -259.8 L 44.4444 -259.8"></path><path stroke="#000000" stroke-width="2px" d="M 44.4444 -259.8 L 33.3333 -279.0444"></path><path stroke="#000000" stroke-width="2px" d="M 33.3333 -279.0444 L 22.2222 -259.8"></path><path stroke="#000000" stroke-width="2px" d="M 22.2222 -259.8 L 0 -259.8"></path><path stroke="#000000" stroke-width="2px" d="M 0 -259.8 L 11.1111 -240.5556"></path><path stroke="#000000" stroke-width="2px" d="M 11.1111 -240.5556 L 0 -221.3111"></path><path stroke="#000000" stroke-width="2px" d="M 0 -221.3111 L 22.2222 -221.3111"></path><path stroke="#000000" stroke-width="2px" d="M 22.2222 -221.3111 L 33.3333 -202.0667"></path><path stroke="#000000" stroke-width="2px" d="M 33.3333 -202.0667 L 22.2222 -182.8222"></path><path stroke="#000000" stroke-width="2px" d="M 22.2222 -182.8222 L 0 -182.8222"></path><path stroke="#000000" stroke-width="2px" d="M 0 -182.8222 L 11.1111 -163.5778"></path><path stroke="#000000" stroke-width="2px" d="M 11.1111 -163.5778 L 0 -144.3333"></path><path stroke="#000000" stroke-width="2px" d="M 0 -144.3333 L 22.2222 -144.3333"></path><path stroke="#000000" stroke-width="2px" d="M 22.2222 -144.3333 L 33.3333 -125.0889"></path><path stroke="#000000" stroke-width="2px" d="M 33.3333 -125.0889 L 44.4444 -144.3333"></path><path stroke="#000000" stroke-width="2px" d="M 44.4444 -144.3333 L 66.6667 -144.3333"></path><path stroke="#000000" stroke-width="2px" d="M 66.6667 -144.3333 L 77.7778 -125.0889"></path><path stroke="#000000" stroke-width="2px" d="M 77.7778 -125.0889 L 66.6667 -105.8444"></path><path stroke="#000000" stroke-width="2px" d="M 66.6667 -105.8444 L 88.8889 -105.8444"></path><path stroke="#000000" stroke-width="2px" d="M 88.8889 -105.8444 L 100 -86.6"></path><path stroke="#000000" stroke-width="2px" d="M 100 -86.6 L 88.8889 -67.3556"></path><path stroke="#000000" stroke-width="2px" d="M 88.8889 -67.3556 L 66.6667 -67.3556"></path><path stroke="#000000" stroke-width="2px" d="M 66.6667 -67.3556 L 77.7778 -48.1111"></path><path stroke="#000000" stroke-width="2px" d="M 77.7778 -48.1111 L 66.6667 -28.8667"></path><path stroke="#000000" stroke-width="2px" d="M 66.6667 -28.8667 L 44.4444 -28.8667"></path><path stroke="#000000" stroke-width="2px" d="M 44.4444 -28.8667 L 33.3333 -48.1111"></path><path stroke="#000000" stroke-width="2px" d="M 33.3333 -48.1111 L 22.2222 -28.8667"></path><path stroke="#000000" stroke-width="2px" d="M 22.2222 -28.8667 L 0 -28.8667"></path><path stroke="#000000" stroke-width="2px" d="M 0 -28.8667 L 11.1111 -9.6222"></path><path stroke="#000000" stroke-width="2px" d="M 11.1111 -9.6222 L 0 9.6222"></path><path stroke="#000000" stroke-width="2px" d="M 0 9.6222 L 22.2222 9.6222"></path><path stroke="#000000" stroke-width="2px" d="M 22.2222 9.6222 L 33.3333 28.8667"></path><path stroke="#000000" stroke-width="2px" d="M 33.3333 28.8667 L 22.2222 48.1111"></path><path stroke="#000000" stroke-width="2px" d="M 22.2222 48.1111 L 0 48.1111"></path><path stroke="#000000" stroke-width="2px" d="M 0 48.1111 L 11.1111 67.3556"></path><path stroke="#000000" stroke-width="2px" d="M 11.1111 67.3556 L 0 86.6"></path><path stroke="#000000" stroke-width="2px" d="M 0 86.6 L 22.2222 86.6"></path><path stroke="#000000" stroke-width="2px" d="M 22.2222 86.6 L 33.3333 105.8444"></path><path stroke="#000000" stroke-width="2px" d="M 33.3333 105.8444 L 44.4444 86.6"></path><path stroke="#000000" stroke-width="2px" d="M 44.4444 86.6 L 66.6667 86.6"></path><path stroke="#000000" stroke-width="2px" d="M 66.6667 86.6 L 77.7778 105.8444"></path><path stroke="#000000" stroke-width="2px" d="M 77.7778 105.8444 L 66.6667 125.0889"></path><path stroke="#000000" stroke-width="2px" d="M 66.6667 125.0889 L 88.8889 125.0889"></path><path stroke="#000000" stroke-width="2px" d="M 88.8889 125.0889 L 100 144.3333"></path><path stroke="#000000" stroke-width="2px" d="M 100 144.3333 L 111.1111 125.0889"></path><path stroke="#000000" stroke-width="2px" d="M 111.1111 125.0889 L 133.3333 125.0889"></path><path stroke="#000000" stroke-width="2px" d="M 133.3333 125.0889 L 122.2222 105.8444"></path><path stroke="#000000" stroke-width="2px" d="M 122.2222 105.8444 L 133.3333 86.6"></path><path stroke="#000000" stroke-width="2px" d="M 133.3333 86.6 L 155.5556 86.6"></path><path stroke="#000000" stroke-width="2px" d="M 155.5556 86.6 L 166.6667 105.8444"></path><path stroke="#000000" stroke-width="2px" d="M 166.6667 105.8444 L 177.7778 86.6"></path><path stroke="#000000" stroke-width="2px" d="M 177.7778 86.6 L 200 86.6"></path><path stroke="#000000" stroke-width="2px" d="M 200 86.6 L 211.1111 105.8444"></path><path stroke="#000000" stroke-width="2px" d="M 211.1111 105.8444 L 200 125.0889"></path><path stroke="#000000" stroke-width="2px" d="M 200 125.0889 L 222.2222 125.0889"></path><path stroke="#000000" stroke-width="2px" d="M 222.2222 125.0889 L 233.3333 144.3333"></path><path stroke="#000000" stroke-width="2px" d="M 233.3333 144.3333 L 222.2222 163.5778"></path><path stroke="#000000" stroke-width="2px" d="M 222.2222 163.5778 L 200 163.5778"></path><path stroke="#000000" stroke-width="2px" d="M 200 163.5778 L 211.1111 182.8222"></path><path stroke="#000000" stroke-width="2px" d="M 211.1111 182.8222 L 200 202.0667"></path><path stroke="#000000" stroke-width="2px" d="M 200 202.0667 L 222.2222 202.0667"></path><path stroke="#000000" stroke-width="2px" d="M 222.2222 202.0667 L 233.3333 221.3111"></path><path stroke="#000000" stroke-width="2px" d="M 233.3333 221.3111 L 244.4444 202.0667"></path><path stroke="#000000" stroke-width="2px" d="M 244.4444 202.0667 L 266.6667 202.0667"></path><path stroke="#000000" stroke-width="2px" d="M 266.6667 202.0667 L 277.7778 221.3111"></path><path stroke="#000000" stroke-width="2px" d="M 277.7778 221.3111 L 266.6667 240.5556"></path><path stroke="#000000" stroke-width="2px" d="M 266.6667 240.5556 L 288.8889 240.5556"></path><path stroke="#000000" stroke-width="2px" d="M 288.8889 240.5556 L 300 259.8"></path><path stroke="#000000" stroke-width="2px" d="M 300 259.8 L 288.8889 279.0444"></path><path stroke="#000000" stroke-width="2px" d="M 288.8889 279.0444 L 266.6667 279.0444"></path><path stroke="#000000" stroke-width="2px" d="M 266.6667 279.0444 L 277.7778 298.2889"></path><path stroke="#000000" stroke-width="2px" d="M 277.7778 298.2889 L 266.6667 317.5333"></path><path stroke="#000000" stroke-width="2px" d="M 266.6667 317.5333 L 244.4444 317.5333"></path><path stroke="#000000" stroke-width="2px" d="M 244.4444 317.5333 L 233.3333 298.2889"></path><path stroke="#000000" stroke-width="2px" d="M 233.3333 298.2889 L 222.2222 317.5333"></path><path stroke="#000000" stroke-width="2px" d="M 222.2222 317.5333 L 200 317.5333"></path><path stroke="#000000" stroke-width="2px" d="M 200 317.5333 L 211.1111 336.7778"></path><path stroke="#000000" stroke-width="2px" d="M 211.1111 336.7778 L 200 356.0222"></path><path stroke="#000000" stroke-width="2px" d="M 200 356.0222 L 222.2222 356.0222"></path><path stroke="#000000" stroke-width="2px" d="M 222.2222 356.0222 L 233.3333 375.2667"></path><path stroke="#000000" stroke-width="2px" d="M 233.3333 375.2667 L 222.2222 394.5111"></path><path stroke="#000000" stroke-width="2px" d="M 222.2222 394.5111 L 200 394.5111"></path><path stroke="#000000" stroke-width="2px" d="M 200 394.5111 L 211.1111 413.7556"></path><path stroke="#000000" stroke-width="2px" d="M 211.1111 413.7556 L 200 433"></path><path stroke="#000000" stroke-width="2px" d="M 200 433 L 177.7778 433"></path><path stroke="#000000" stroke-width="2px" d="M 177.7778 433 L 166.6667 413.7556"></path><path stroke="#000000" stroke-width="2px" d="M 166.6667 413.7556 L 155.5556 433"></path><path stroke="#000000" stroke-width="2px" d="M 155.5556 433 L 133.3333 433"></path><path stroke="#000000" stroke-width="2px" d="M 133.3333 433 L 122.2222 413.7556"></path><path stroke="#000000" stroke-width="2px" d="M 122.2222 413.7556 L 133.3333 394.5111"></path><path stroke="#000000" stroke-width="2px" d="M 133.3333 394.5111 L 111.1111 394.5111"></path><path stroke="#000000" stroke-width="2px" d="M 111.1111 394.5111 L 100 375.2667"></path><path stroke="#000000" stroke-width="2px" d="M 100 375.2667 L 88.8889 394.5111"></path><path stroke="#000000" stroke-width="2px" d="M 88.8889 394.5111 L 66.6667 394.5111"></path><path stroke="#000000" stroke-width="2px" d="M 66.6667 394.5111 L 77.7778 413.7556"></path><path stroke="#000000" stroke-width="2px" d="M 77.7778 413.7556 L 66.6667 433"></path><path stroke="#000000" stroke-width="2px" d="M 66.6667 433 L 44.4444 433"></path><path stroke="#000000" stroke-width="2px" d="M 44.4444 433 L 33.3333 413.7556"></path><path stroke="#000000" stroke-width="2px" d="M 33.3333 413.7556 L 22.2222 433"></path><path stroke="#000000" stroke-width="2px" d="M 22.2222 433 L 0 433"></path><path stroke="#000000" stroke-width="2px" d="M 0 433 L 11.1111 452.2444"></path><path stroke="#000000" stroke-width="2px" d="M 11.1111 452.2444 L 0 471.4889"></path><path stroke="#000000" stroke-width="2px" d="M 0 471.4889 L 22.2222 471.4889"></path><path stroke="#000000" stroke-width="2px" d="M 22.2222 471.4889 L 33.3333 490.7333"></path><path stroke="#000000" stroke-width="2px" d="M 33.3333 490.7333 L 22.2222 509.9778"></path><path stroke="#000000" stroke-width="2px" d="M 22.2222 509.9778 L 0 509.9778"></path><path stroke="#000000" stroke-width="2px" d="M 0 509.9778 L 11.1111 529.2222"></path><path stroke="#000000" stroke-width="2px" d="M 11.1111 529.2222 L 0 548.4667"></path><path stroke="#000000" stroke-width="2px" d="M 0 548.4667 L 22.2222 548.4667"></path><path stroke="#000000" stroke-width="2px" d="M 22.2222 548.4667 L 33.3333 567.7111"></path><path stroke="#000000" stroke-width="2px" d="M 33.3333 567.7111 L 44.4444 548.4667"></path><path stroke="#000000" stroke-width="2px" d="M 44.4444 548.4667 L 66.6667 548.4667"></path><path stroke="#000000" stroke-width="2px" d="M 66.6667 548.4667 L 77.7778 567.7111"></path><path stroke="#000000" stroke-width="2px" d="M 77.7778 567.7111 L 66.6667 586.9556"></path><path stroke="#000000" stroke-width="2px" d="M 66.6667 586.9556 L 88.8889 586.9556"></path><path stroke="#000000" stroke-width="2px" d="M 88.8889 586.9556 L 100 606.2"></path><path stroke="#000000" stroke-width="2px" d="M 100 606.2 L 88.8889 625.4444"></path><path stroke="#000000" stroke-width="2px" d="M 88.8889 625.4444 L 66.6667 625.4444"></path><path stroke="#000000" stroke-width="2px" d="M 66.6667 625.4444 L 77.7778 644.6889"></path><path stroke="#000000" stroke-width="2px" d="M 77.7778 644.6889 L 66.6667 663.9333"></path><path stroke="#000000" stroke-width="2px" d="M 66.6667 663.9333 L 44.4444 663.9333"></path><path stroke="#000000" stroke-width="2px" d="M 44.4444 663.9333 L 33.3333 644.6889"></path><path stroke="#000000" stroke-width="2px" d="M 33.3333 644.6889 L 22.2222 663.9333"></path><path stroke="#000000" stroke-width="2px" d="M 22.2222 663.9333 L 0 663.9333"></path><path stroke="#000000" stroke-width="2px" d="M 0 663.9333 L 11.1111 683.1778"></path><path stroke="#000000" stroke-width="2px" d="M 11.1111 683.1778 L 0 702.4222"></path><path stroke="#000000" stroke-width="2px" d="M 0 702.4222 L 22.2222 702.4222"></path><path stroke="#000000" stroke-width="2px" d="M 22.2222 702.4222 L 33.3333 721.6667"></path><path stroke="#000000" stroke-width="2px" d="M 33.3333 721.6667 L 22.2222 740.9111"></path><path stroke="#000000" stroke-width="2px" d="M 22.2222 740.9111 L 0 740.9111"></path><path stroke="#000000" stroke-width="2px" d="M 0 740.9111 L 11.1111 760.1556"></path><path stroke="#000000" stroke-width="2px" d="M 11.1111 760.1556 L 0 779.4"></path><path stroke="#000000" stroke-width="2px" d="M 0 779.4 L -11.1111 760.1556"></path><path stroke="#000000" stroke-width="2px" d="M -11.1111 760.1556 L 0 740.9111"></path><path stroke="#000000" stroke-width="2px" d="M 0 740.9111 L -22.2222 740.9111"></path><path stroke="#000000" stroke-width="2px" d="M -22.2222 740.9111 L -33.3333 721.6667"></path><path stroke="#000000" stroke-width="2px" d="M -33.3333 721.6667 L -22.2222 702.4222"></path><path stroke="#000000" stroke-width="2px" d="M -22.2222 702.4222 L 0 702.4222"></path><path stroke="#000000" stroke-width="2px" d="M 0 702.4222 L -11.1111 683.1778"></path><path stroke="#000000" stroke-width="2px" d="M -11.1111 683.1778 L 0 663.9333"></path><path stroke="#000000" stroke-width="2px" d="M 0 663.9333 L -22.2222 663.9333"></path><path stroke="#000000" stroke-width="2px" d="M -22.2222 663.9333 L -33.3333 644.6889"></path><path stroke="#000000" stroke-width="2px" d="M -33.3333 644.6889 L -44.4444 663.9333"></path><path stroke="#000000" stroke-width="2px" d="M -44.4444 663.9333 L -66.6667 663.9333"></path><path stroke="#000000" stroke-width="2px" d="M -66.6667 663.9333 L -77.7778 644.6889"></path><path stroke="#000000" stroke-width="2px" d="M -77.7778 644.6889 L -66.6667 625.4444"></path><path stroke="#000000" stroke-width="2px" d="M -66.6667 625.4444 L -88.8889 625.4444"></path><path stroke="#000000" stroke-width="2px" d="M -88.8889 625.4444 L -100 606.2"></path><path stroke="#000000" stroke-width="2px" d="M -100 606.2 L -88.8889 586.9556"></path><path stroke="#000000" stroke-width="2px" d="M -88.8889 586.9556 L -66.6667 586.9556"></path><path stroke="#000000" stroke-width="2px" d="M -66.6667 586.9556 L -77.7778 567.7111"></path><path stroke="#000000" stroke-width="2px" d="M -77.7778 567.7111 L -66.6667 548.4667"></path><path stroke="#000000" stroke-width="2px" d="M -66.6667 548.4667 L -44.4444 548.4667"></path><path stroke="#000000" stroke-width="2px" d="M -44.4444 548.4667 L -33.3333 567.7111"></path><path stroke="#000000" stroke-width="2px" d="M -33.3333 567.7111 L -22.2222 548.4667"></path><path stroke="#000000" stroke-width="2px" d="M -22.2222 548.4667 L 0 548.4667"></path><path stroke="#000000" stroke-width="2px" d="M 0 548.4667 L -11.1111 529.2222"></path><path stroke="#000000" stroke-width="2px" d="M -11.1111 529.2222 L 0 509.9778"></path><path stroke="#000000" stroke-width="2px" d="M 0 509.9778 L -22.2222 509.9778"></path><path stroke="#000000" stroke-width="2px" d="M -22.2222 509.9778 L -33.3333 490.7333"></path><path stroke="#000000" stroke-width="2px" d="M -33.3333 490.7333 L -22.2222 471.4889"></path><path stroke="#000000" stroke-width="2px" d="M -22.2222 471.4889 L 0 471.4889"></path><path stroke="#000000" stroke-width="2px" d="M 0 471.4889 L -11.1111 452.2444"></path><path stroke="#000000" stroke-width="2px" d="M -11.1111 452.2444 L 0 433"></path><path stroke="#000000" stroke-width="2px" d="M 0 433 L -22.2222 433"></path><path stroke="#000000" stroke-width="2px" d="M -22.2222 433 L -33.3333 413.7556"></path><path stroke="#000000" stroke-width="2px" d="M -33.3333 413.7556 L -44.4444 433"></path><path stroke="#000000" stroke-width="2px" d="M -44.4444 433 L -66.6667 433"></path><path stroke="#000000" stroke-width="2px" d="M -66.6667 433 L -77.7778 413.7556"></path><path stroke="#000000" stroke-width="2px" d="M -77.7778 413.7556 L -66.6667 394.5111"></path><path stroke="#000000" stroke-width="2px" d="M -66.6667 394.5111 L -88.8889 394.5111"></path><path stroke="#000000" stroke-width="2px" d="M -88.8889 394.5111 L -100 375.2667"></path><path stroke="#000000" stroke-width="2px" d="M -100 375.2667 L -111.1111 394.5111"></path><path stroke="#000000" stroke-width="2px" d="M -111.1111 394.5111 L -133.3333 394.5111"></path><path stroke="#000000" stroke-width="2px" d="M -133.3333 394.5111 L -122.2222 413.7556"></path><path stroke="#000000" stroke-width="2px" d="M -122.2222 413.7556 L -133.3333 433"></path><path stroke="#000000" stroke-width="2px" d="M -133.3333 433 L -155.5556 433"></path><path stroke="#000000" stroke-width="2px" d="M -155.5556 433 L -166.6667 413.7556"></path><path stroke="#000000" stroke-width="2px" d="M -166.6667 413.7556 L -177.7778 433"></path><path stroke="#000000" stroke-width="2px" d="M -177.7778 433 L -200 433"></path><path stroke="#000000" stroke-width="2px" d="M -200 433 L -211.1111 413.7556"></path><path stroke="#000000" stroke-width="2px" d="M -211.1111 413.7556 L -200 394.5111"></path><path stroke="#000000" stroke-width="2px" d="M -200 394.5111 L -222.2222 394.5111"></path><path stroke="#000000" stroke-width="2px" d="M -222.2222 394.5111 L -233.3333 375.2667"></path><path stroke="#000000" stroke-width="2px" d="M -233.3333 375.2667 L -222.2222 356.0222"></path><path stroke="#000000" stroke-width="2px" d="M -222.2222 356.0222 L -200 356.0222"></path><path stroke="#000000" stroke-width="2px" d="M -200 356.0222 L -211.1111 336.7778"></path><path stroke="#000000" stroke-width="2px" d="M -211.1111 336.7778 L -200 317.5333"></path><path stroke="#000000" stroke-width="2px" d="M -200 317.5333 L -222.2222 317.5333"></path><path stroke="#000000" stroke-width="2px" d="M -222.2222 317.5333 L -233.3333 298.2889"></path><path stroke="#000000" stroke-width="2px" d="M -233.3333 298.2889 L -244.4444 317.5333"></path><path stroke="#000000" stroke-width="2px" d="M -244.4444 317.5333 L -266.6667 317.5333"></path><path stroke="#000000" stroke-width="2px" d="M -266.6667 317.5333 L -277.7778 298.2889"></path><path stroke="#000000" stroke-width="2px" d="M -277.7778 298.2889 L -266.6667 279.0444"></path><path stroke="#000000" stroke-width="2px" d="M -266.6667 279.0444 L -288.8889 279.0444"></path><path stroke="#000000" stroke-width="2px" d="M -288.8889 279.0444 L -300 259.8"></path><path stroke="#000000" stroke-width="2px" d="M -300 259.8 L -288.8889 240.5556"></path><path stroke="#000000" stroke-width="2px" d="M -288.8889 240.5556 L -266.6667 240.5556"></path><path stroke="#000000" stroke-width="2px" d="M -266.6667 240.5556 L -277.7778 221.3111"></path><path stroke="#000000" stroke-width="2px" d="M -277.7778 221.3111 L -266.6667 202.0667"></path><path stroke="#000000" stroke-width="2px" d="M -266.6667 202.0667 L -244.4444 202.0667"></path><path stroke="#000000" stroke-width="2px" d="M -244.4444 202.0667 L -233.3333 221.3111"></path><path stroke="#000000" stroke-width="2px" d="M -233.3333 221.3111 L -222.2222 202.0667"></path><path stroke="#000000" stroke-width="2px" d="M -222.2222 202.0667 L -200 202.0667"></path><path stroke="#000000" stroke-width="2px" d="M -200 202.0667 L -211.1111 182.8222"></path><path stroke="#000000" stroke-width="2px" d="M -211.1111 182.8222 L -200 163.5778"></path><path stroke="#000000" stroke-width="2px" d="M -200 163.5778 L -222.2222 163.5778"></path><path stroke="#000000" stroke-width="2px" d="M -222.2222 163.5778 L -233.3333 144.3333"></path><path stroke="#000000" stroke-width="2px" d="M -233.3333 144.3333 L -222.2222 125.0889"></path><path stroke="#000000" stroke-width="2px" d="M -222.2222 125.0889 L -200 125.0889"></path><path stroke="#000000" stroke-width="2px" d="M -200 125.0889 L -211.1111 105.8444"></path><path stroke="#000000" stroke-width="2px" d="M -211.1111 105.8444 L -200 86.6"></path><path stroke="#000000" stroke-width="2px" d="M -200 86.6 L -177.7778 86.6"></path><path stroke="#000000" stroke-width="2px" d="M -177.7778 86.6 L -166.6667 105.8444"></path><path stroke="#000000" stroke-width="2px" d="M -166.6667 105.8444 L -155.5556 86.6"></path><path stroke="#000000" stroke-width="2px" d="M -155.5556 86.6 L -133.3333 86.6"></path><path stroke="#000000" stroke-width="2px" d="M -133.3333 86.6 L -122.2222 105.8444"></path><path stroke="#000000" stroke-width="2px" d="M -122.2222 105.8444 L -133.3333 125.0889"></path><path stroke="#000000" stroke-width="2px" d="M -133.3333 125.0889 L -111.1111 125.0889"></path><path stroke="#000000" stroke-width="2px" d="M -111.1111 125.0889 L -100 144.3333"></path><path stroke="#000000" stroke-width="2px" d="M -100 144.3333 L -88.8889 125.0889"></path><path stroke="#000000" stroke-width="2px" d="M -88.8889 125.0889 L -66.6667 125.0889"></path><path stroke="#000000" stroke-width="2px" d="M -66.6667 125.0889 L -77.7778 105.8444"></path><path stroke="#000000" stroke-width="2px" d="M -77.7778 105.8444 L -66.6667 86.6"></path><path stroke="#000000" stroke-width="2px" d="M -66.6667 86.6 L -44.4444 86.6"></path><path stroke="#000000" stroke-width="2px" d="M -44.4444 86.6 L -33.3333 105.8444"></path><path stroke="#000000" stroke-width="2px" d="M -33.3333 105.8444 L -22.2222 86.6"></path><path stroke="#000000" stroke-width="2px" d="M -22.2222 86.6 L 0 86.6"></path><path stroke="#000000" stroke-width="2px" d="M 0 86.6 L -11.1111 67.3556"></path><path stroke="#000000" stroke-width="2px" d="M -11.1111 67.3556 L 0 48.1111"></path><path stroke="#000000" stroke-width="2px" d="M 0 48.1111 L -22.2222 48.1111"></path><path stroke="#000000" stroke-width="2px" d="M -22.2222 48.1111 L -33.3333 28.8667"></path><path stroke="#000000" stroke-width="2px" d="M -33.3333 28.8667 L -22.2222 9.6222"></path><path stroke="#000000" stroke-width="2px" d="M -22.2222 9.6222 L 0 9.6222"></path><path stroke="#000000" stroke-width="2px" d="M 0 9.6222 L -11.1111 -9.6222"></path><path stroke="#000000" stroke-width="2px" d="M -11.1111 -9.6222 L 0 -28.8667"></path><path stroke="#000000" stroke-width="2px" d="M 0 -28.8667 L -22.2222 -28.8667"></path><path stroke="#000000" stroke-width="2px" d="M -22.2222 -28.8667 L -33.3333 -48.1111"></path><path stroke="#000000" stroke-width="2px" d="M -33.3333 -48.1111 L -44.4444 -28.8667"></path><path stroke="#000000" stroke-width="2px" d="M -44.4444 -28.8667 L -66.6667 -28.8667"></path><path stroke="#000000" stroke-width="2px" d="M -66.6667 -28.8667 L -77.7778 -48.1111"></path><path stroke="#000000" stroke-width="2px" d="M -77.7778 -48.1111 L -66.6667 -67.3556"></path><path stroke="#000000" stroke-width="2px" d="M -66.6667 -67.3556 L -88.8889 -67.3556"></path><path stroke="#000000" stroke-width="2px" d="M -88.8889 -67.3556 L -100 -86.6"></path><path stroke="#000000" stroke-width="2px" d="M -100 -86.6 L -88.8889 -105.8444"></path><path stroke="#000000" stroke-width="2px" d="M -88.8889 -105.8444 L -66.6667 -105.8444"></path><path stroke="#000000" stroke-width="2px" d="M -66.6667 -105.8444 L -77.7778 -125.0889"></path><path stroke="#000000" stroke-width="2px" d="M -77.7778 -125.0889 L -66.6667 -144.3333"></path><path stroke="#000000" stroke-width="2px" d="M -66.6667 -144.3333 L -44.4444 -144.3333"></path><path stroke="#000000" stroke-width="2px" d="M -44.4444 -144.3333 L -33.3333 -125.0889"></path><path stroke="#000000" stroke-width="2px" d="M -33.3333 -125.0889 L -22.2222 -144.3333"></path><path stroke="#000000" stroke-width="2px" d="M -22.2222 -144.3333 L 0 -144.3333"></path><path stroke="#000000" stroke-width="2px" d="M 0 -144.3333 L -11.1111 -163.5778"></path><path stroke="#000000" stroke-width="2px" d="M -11.1111 -163.5778 L 0 -182.8222"></path><path stroke="#000000" stroke-width="2px" d="M 0 -182.8222 L -22.2222 -182.8222"></path><path stroke="#000000" stroke-width="2px" d="M -22.2222 -182.8222 L -33.3333 -202.0667"></path><path stroke="#000000" stroke-width="2px" d="M -33.3333 -202.0667 L -22.2222 -221.3111"></path><path stroke="#000000" stroke-width="2px" d="M -22.2222 -221.3111 L 0 -221.3111"></path><path stroke="#000000" stroke-width="2px" d="M 0 -221.3111 L -11.1111 -240.5556"></path><path stroke="#000000" stroke-width="2px" d="M -11.1111 -240.5556 L 0 -259.8"></path><path stroke="#000000" stroke-width="2px" d="M 0 -259.8 L -22.2222 -259.8"></path><path stroke="#000000" stroke-width="2px" d="M -22.2222 -259.8 L -33.3333 -279.0444"></path><path stroke="#000000" stroke-width="2px" d="M -33.3333 -279.0444 L -44.4444 -259.8"></path><path stroke="#000000" stroke-width="2px" d="M -44.4444 -259.8 L -66.6667 -259.8"></path><path stroke="#000000" stroke-width="2px" d="M -66.6667 -259.8 L -77.7778 -279.0444"></path><path stroke="#000000" stroke-width="2px" d="M -77.7778 -279.0444 L -66.6667 -298.2889"></path><path stroke="#000000" stroke-width="2px" d="M -66.6667 -298.2889 L -88.8889 -298.2889"></path><path stroke="#000000" stroke-width="2px" d="M -88.8889 -298.2889 L -100 -317.5333"></path><path stroke="#000000" stroke-width="2px" d="M -100 -317.5333 L -111.1111 -298.2889"></path><path stroke="#000000" stroke-width="2px" d="M -111.1111 -298.2889 L -133.3333 -298.2889"></path><path stroke="#000000" stroke-width="2px" d="M -133.3333 -298.2889 L -122.2222 -279.0444"></path><path stroke="#000000" stroke-width="2px" d="M -122.2222 -279.0444 L -133.3333 -259.8"></path><path stroke="#000000" stroke-width="2px" d="M -133.3333 -259.8 L -155.5556 -259.8"></path><path stroke="#000000" stroke-width="2px" d="M -155.5556 -259.8 L -166.6667 -279.0444"></path><path stroke="#000000" stroke-width="2px" d="M -166.6667 -279.0444 L -177.7778 -259.8"></path><path stroke="#000000" stroke-width="2px" d="M -177.7778 -259.8 L -200 -259.8"></path><path stroke="#000000" stroke-width="2px" d="M -200 -259.8 L -211.1111 -279.0444"></path><path stroke="#000000" stroke-width="2px" d="M -211.1111 -279.0444 L -200 -298.2889"></path><path stroke="#000000" stroke-width="2px" d="M -200 -298.2889 L -222.2222 -298.2889"></path><path stroke="#000000" stroke-width="2px" d="M -222.2222 -298.2889 L -233.3333 -317.5333"></path><path stroke="#000000" stroke-width="2px" d="M -233.3333 -317.5333 L -222.2222 -336.7778"></path><path stroke="#000000" stroke-width="2px" d="M -222.2222 -336.7778 L -200 -336.7778"></path><path stroke="#000000" stroke-width="2px" d="M -200 -336.7778 L -211.1111 -356.0222"></path><path stroke="#000000" stroke-width="2px" d="M -211.1111 -356.0222 L -200 -375.2667"></path><path stroke="#000000" stroke-width="2px" d="M -200 -375.2667 L -222.2222 -375.2667"></path><path stroke="#000000" stroke-width="2px" d="M -222.2222 -375.2667 L -233.3333 -394.5111"></path><path stroke="#000000" stroke-width="2px" d="M -233.3333 -394.5111 L -244.4444 -375.2667"></path><path stroke="#000000" stroke-width="2px" d="M -244.4444 -375.2667 L -266.6667 -375.2667"></path><path stroke="#000000" stroke-width="2px" d="M -266.6667 -375.2667 L -277.7778 -394.5111"></path><path stroke="#000000" stroke-width="2px" d="M -277.7778 -394.5111 L -266.6667 -413.7556"></path><path stroke="#000000" stroke-width="2px" d="M -266.6667 -413.7556 L -288.8889 -413.7556"></path><path stroke="#000000" stroke-width="2px" d="M -288.8889 -413.7556 L -300 -433"></path><path stroke="#000000" stroke-width="2px" d="M -300 -433 L -311.1111 -413.7556"></path><path stroke="#000000" stroke-width="2px" d="M -311.1111 -413.7556 L -333.3333 -413.7556"></path><path stroke="#000000" stroke-width="2px" d="M -333.3333 -413.7556 L -322.2222 -394.5111"></path><path stroke="#000000" stroke-width="2px" d="M -322.2222 -394.5111 L -333.3333 -375.2667"></path><path stroke="#000000" stroke-width="2px" d="M -333.3333 -375.2667 L -355.5556 -375.2667"></path><path stroke="#000000" stroke-width="2px" d="M -355.5556 -375.2667 L -366.6667 -394.5111"></path><path stroke="#000000" stroke-width="2px" d="M -366.6667 -394.5111 L -377.7778 -375.2667"></path><path stroke="#000000" stroke-width="2px" d="M -377.7778 -375.2667 L -400 -375.2667"></path><path stroke="#000000" stroke-width="2px" d="M -400 -375.2667 L -388.8889 -356.0222"></path><path stroke="#000000" stroke-width="2px" d="M -388.8889 -356.0222 L -400 -336.7778"></path><path stroke="#000000" stroke-width="2px" d="M -400 -336.7778 L -377.7778 -336.7778"></path><path stroke="#000000" stroke-width="2px" d="M -377.7778 -336.7778 L -366.6667 -317.5333"></path><path stroke="#000000" stroke-width="2px" d="M -366.6667 -317.5333 L -377.7778 -298.2889"></path><path stroke="#000000" stroke-width="2px" d="M -377.7778 -298.2889 L -400 -298.2889"></path><path stroke="#000000" stroke-width="2px" d="M -400 -298.2889 L -388.8889 -279.0444"></path><path stroke="#000000" stroke-width="2px" d="M -388.8889 -279.0444 L -400 -259.8"></path><path stroke="#000000" stroke-width="2px" d="M -400 -259.8 L -422.2222 -259.8"></path><path stroke="#000000" stroke-width="2px" d="M -422.2222 -259.8 L -433.3333 -279.0444"></path><path stroke="#000000" stroke-width="2px" d="M -433.3333 -279.0444 L -444.4444 -259.8"></path><path stroke="#000000" stroke-width="2px" d="M -444.4444 -259.8 L -466.6667 -259.8"></path><path stroke="#000000" stroke-width="2px" d="M -466.6667 -259.8 L -477.7778 -279.0444"></path><path stroke="#000000" stroke-width="2px" d="M -477.7778 -279.0444 L -466.6667 -298.2889"></path><path stroke="#000000" stroke-width="2px" d="M -466.6667 -298.2889 L -488.8889 -298.2889"></path><path stroke="#000000" stroke-width="2px" d="M -488.8889 -298.2889 L -500 -317.5333"></path><path stroke="#000000" stroke-width="2px" d="M -500 -317.5333 L -511.1111 -298.2889"></path><path stroke="#000000" stroke-width="2px" d="M -511.1111 -298.2889 L -533.3333 -298.2889"></path><path stroke="#000000" stroke-width="2px" d="M -533.3333 -298.2889 L -522.2222 -279.0444"></path><path stroke="#000000" stroke-width="2px" d="M -522.2222 -279.0444 L -533.3333 -259.8"></path><path stroke="#000000" stroke-width="2px" d="M -533.3333 -259.8 L -555.5556 -259.8"></path><path stroke="#000000" stroke-width="2px" d="M -555.5556 -259.8 L -566.6667 -279.0444"></path><path stroke="#000000" stroke-width="2px" d="M -566.6667 -279.0444 L -577.7778 -259.8"></path><path stroke="#000000" stroke-width="2px" d="M -577.7778 -259.8 L -600 -259.8"></path><path stroke="#000000" stroke-width="2px" d="M -600 -259.8 L -611.1111 -279.0444"></path><path stroke="#000000" stroke-width="2px" d="M -611.1111 -279.0444 L -600 -298.2889"></path><path stroke="#000000" stroke-width="2px" d="M -600 -298.2889 L -622.2222 -298.2889"></path><path stroke="#000000" stroke-width="2px" d="M -622.2222 -298.2889 L -633.3333 -317.5333"></path><path stroke="#000000" stroke-width="2px" d="M -633.3333 -317.5333 L -622.2222 -336.7778"></path><path stroke="#000000" stroke-width="2px" d="M -622.2222 -336.7778 L -600 -336.7778"></path><path stroke="#000000" stroke-width="2px" d="M -600 -336.7778 L -611.1111 -356.0222"></path><path stroke="#000000" stroke-width="2px" d="M -611.1111 -356.0222 L -600 -375.2667"></path><path stroke="#000000" stroke-width="2px" d="M -600 -375.2667 L -622.2222 -375.2667"></path><path stroke="#000000" stroke-width="2px" d="M -622.2222 -375.2667 L -633.3333 -394.5111"></path><path stroke="#000000" stroke-width="2px" d="M -633.3333 -394.5111 L -644.4444 -375.2667"></path><path stroke="#000000" stroke-width="2px" d="M -644.4444 -375.2667 L -666.6667 -375.2667"></path><path stroke="#000000" stroke-width="2px" d="M -666.6667 -375.2667 L -677.7778 -394.5111"></path><path stroke="#000000" stroke-width="2px" d="M -677.7778 -394.5111 L -666.6667 -413.7556"></path><path stroke="#000000" stroke-width="2px" d="M -666.6667 -413.7556 L -688.8889 -413.7556"></path><path stroke="#000000" stroke-width="2px" d="M -688.8889 -413.7556 L -700 -433"></path><path stroke="#000000" stroke-width="2px" d="M -700 -433 L -688.8889 -452.2444"></path><path stroke="#000000" stroke-width="2px" d="M -688.8889 -452.2444 L -666.6667 -452.2444"></path><path stroke="#000000" stroke-width="2px" d="M -666.6667 -452.2444 L -677.7778 -471.4889"></path><path stroke="#000000" stroke-width="2px" d="M -677.7778 -471.4889 L -666.6667 -490.7333"></path><path stroke="#000000" stroke-width="2px" d="M -666.6667 -490.7333 L -644.4444 -490.7333"></path><path stroke="#000000" stroke-width="2px" d="M -644.4444 -490.7333 L -633.3333 -471.4889"></path><path stroke="#000000" stroke-width="2px" d="M -633.3333 -471.4889 L -622.2222 -490.7333"></path><path stroke="#000000" stroke-width="2px" d="M -622.2222 -490.7333 L -600 -490.7333"></path><path stroke="#000000" stroke-width="2px" d="M -600 -490.7333 L -611.1111 -509.9778"></path><path stroke="#000000" stroke-width="2px" d="M -611.1111 -509.9778 L -600 -529.2222"></path><path stroke="#000000" stroke-width="2px" d="M -600 -529.2222 L -622.2222 -529.2222"></path><path stroke="#000000" stroke-width="2px" d="M -622.2222 -529.2222 L -633.3333 -548.4667"></path><path stroke="#000000" stroke-width="2px" d="M -633.3333 -548.4667 L -622.2222 -567.7111"></path><path stroke="#000000" stroke-width="2px" d="M -622.2222 -567.7111 L -600 -567.7111"></path><path stroke="#000000" stroke-width="2px" d="M -600 -567.7111 L -611.1111 -586.9556"></path><path stroke="#000000" stroke-width="2px" d="M -611.1111 -586.9556 L -600 -606.2"></path><path stroke="#000000" stroke-width="2px" d="M -600 -606.2 L -622.2222 -606.2"></path><path stroke="#000000" stroke-width="2px" d="M -622.2222 -606.2 L -633.3333 -625.4444"></path><path stroke="#000000" stroke-width="2px" d="M -633.3333 -625.4444 L -644.4444 -606.2"></path><path stroke="#000000" stroke-width="2px" d="M -644.4444 -606.2 L -666.6667 -606.2"></path><path stroke="#000000" stroke-width="2px" d="M -666.6667 -606.2 L -677.7778 -625.4444"></path><path stroke="#000000" stroke-width="2px" d="M -677.7778 -625.4444 L -666.6667 -644.6889"></path><path stroke="#000000" stroke-width="2px" d="M -666.6667 -644.6889 L -688.8889 -644.6889"></path><path stroke="#000000" stroke-width="2px" d="M -688.8889 -644.6889 L -700 -663.9333"></path><path stroke="#000000" stroke-width="2px" d="M -700 -663.9333 L -711.1111 -644.6889"></path><path stroke="#000000" stroke-width="2px" d="M -711.1111 -644.6889 L -733.3333 -644.6889"></path><path stroke="#000000" stroke-width="2px" d="M -733.3333 -644.6889 L -722.2222 -625.4444"></path><path stroke="#000000" stroke-width="2px" d="M -722.2222 -625.4444 L -733.3333 -606.2"></path><path stroke="#000000" stroke-width="2px" d="M -733.3333 -606.2 L -755.5556 -606.2"></path><path stroke="#000000" stroke-width="2px" d="M -755.5556 -606.2 L -766.6667 -625.4444"></path><path stroke="#000000" stroke-width="2px" d="M -766.6667 -625.4444 L -777.7778 -606.2"></path><path stroke="#000000" stroke-width="2px" d="M -777.7778 -606.2 L -800 -606.2"></path><path stroke="#000000" stroke-width="2px" d="M -800 -606.2 L -811.1111 -625.4444"></path><path stroke="#000000" stroke-width="2px" d="M -811.1111 -625.4444 L -800 -644.6889"></path><path stroke="#000000" stroke-width="2px" d="M -800 -644.6889 L -822.2222 -644.6889"></path><path stroke="#000000" stroke-width="2px" d="M -822.2222 -644.6889 L -833.3333 -663.9333"></path><path stroke="#000000" stroke-width="2px" d="M -833.3333 -663.9333 L -822.2222 -683.1778"></path><path stroke="#000000" stroke-width="2px" d="M -822.2222 -683.1778 L -800 -683.1778"></path><path stroke="#000000" stroke-width="2px" d="M -800 -683.1778 L -811.1111 -702.4222"></path><path stroke="#000000" stroke-width="2px" d="M -811.1111 -702.4222 L -800 -721.6667"></path><path stroke="#000000" stroke-width="2px" d="M -800 -721.6667 L -822.2222 -721.6667"></path><path stroke="#000000" stroke-width="2px" d="M -822.2222 -721.6667 L -833.3333 -740.9111"></path><path stroke="#000000" stroke-width="2px" d="M -833.3333 -740.9111 L -844.4444 -721.6667"></path><path stroke="#000000" stroke-width="2px" d="M -844.4444 -721.6667 L -866.6667 -721.6667"></path><path stroke="#000000" stroke-width="2px" d="M -866.6667 -721.6667 L -877.7778 -740.9111"></path><path stroke="#000000" stroke-width="2px" d="M -877.7778 -740.9111 L -866.6667 -760.1556"></path><path stroke="#000000" stroke-width="2px" d="M -866.6667 -760.1556 L -888.8889 -760.1556"></path><path stroke="#000000" stroke-width="2px" d="M -888.8889 -760.1556 L -900 -779.4"></path></g></svg>