<svg
	xmlns="http://www.w3.org/2000/svg"
	viewBox="0 0 1600 1600"
	xml:space="preserve"
	stroke-linecap="round"
	stroke-linejoin="round"
	stroke="#000"
	stroke-width="4px"
	fill="transparent"
>
<polyline points="30.5,133.59275 49.5,133.59275 59,150.04725 68.5,133.59275 87.5,133.59275 97,150.04725 87.5,166.50175 106.5,166.50175 116,182.95625 125.5,166.50175 144.5,166.50175 135,150.04725 144.5,133.59275 163.5,133.59275 173,150.04725 182.5,133.59275 201.5,133.59275 211,150.04725 201.5,166.50175 220.5,166.50175 230,182.95625 220.5,199.41075 201.5,199.41075 211,215.86525 201.5,232.31975 220.5,232.31975 230,248.77425 239.5,232.31975 258.5,232.31975 268,248.77425 258.5,265.22875 277.5,265.22875 287,281.68325 296.5,265.22875 315.5,265.22875 306,248.77425 315.5,232.31975 334.5,232.31975 344,248.77425 353.5,232.31975 372.5,232.31975 363,215.86525 372.5,199.41075 353.5,199.41075 344,182.95625 353.5,166.50175 372.5,166.50175 363,150.04725 372.5,133.59275 391.5,133.59275 401,150.04725 410.5,133.59275 429.5,133.59275 439,150.04725 429.5,166.50175 448.5,166.50175 458,182.95625 467.5,166.50175 486.5,166.50175 477,150.04725 486.5,133.59275 505.5,133.59275 515,150.04725 524.5,133.59275 543.5,133.59275 553,150.04725 543.5,166.50175 562.5,166.50175 572,182.95625 562.5,199.41075 543.5,199.41075 553,215.86525 543.5,232.31975 562.5,232.31975 572,248.77425 581.5,232.31975 600.5,232.31975 610,248.77425 600.5,265.22875 619.5,265.22875 629,281.68325 619.5,298.13775 600.5,298.13775 610,314.59225 600.5,331.04675 581.5,331.04675 572,314.59225 562.5,331.04675 543.5,331.04675 553,347.50125 543.5,363.95575 562.5,363.95575 572,380.41025 562.5,396.86475 543.5,396.86475 553,413.31925 543.5,429.77375 562.5,429.77375 572,446.22825 581.5,429.77375 600.5,429.77375 610,446.22825 600.5,462.68275 619.5,462.68275 629,479.13725 638.5,462.68275 657.5,462.68275 648,446.22825 657.5,429.77375 676.5,429.77375 686,446.22825 695.5,429.77375 714.5,429.77375 724,446.22825 714.5,462.68275 733.5,462.68275 743,479.13725 733.5,495.59175 714.5,495.59175 724,512.04625 714.5,528.50075 733.5,528.50075 743,544.95525 752.5,528.50075 771.5,528.50075 781,544.95525 771.5,561.40975 790.5,561.40975 800,577.86425 809.5,561.40975 828.5,561.40975 819,544.95525 828.5,528.50075 847.5,528.50075 857,544.95525 866.5,528.50075 885.5,528.50075 876,512.04625 885.5,495.59175 866.5,495.59175 857,479.13725 866.5,462.68275 885.5,462.68275 876,446.22825 885.5,429.77375 904.5,429.77375 914,446.22825 923.5,429.77375 942.5,429.77375 952,446.22825 942.5,462.68275 961.5,462.68275 971,479.13725 980.5,462.68275 999.5,462.68275 990,446.22825 999.5,429.77375 1018.5,429.77375 1028,446.22825 1037.5,429.77375 1056.5,429.77375 1047,413.31925 1056.5,396.86475 1037.5,396.86475 1028,380.41025 1037.5,363.95575 1056.5,363.95575 1047,347.50125 1056.5,331.04675 1037.5,331.04675 1028,314.59225 1018.5,331.04675 999.5,331.04675 990,314.59225 999.5,298.13775 980.5,298.13775 971,281.68325 980.5,265.22875 999.5,265.22875 990,248.77425 999.5,232.31975 1018.5,232.31975 1028,248.77425 1037.5,232.31975 1056.5,232.31975 1047,215.86525 1056.5,199.41075 1037.5,199.41075 1028,182.95625 1037.5,166.50175 1056.5,166.50175 1047,150.04725 1056.5,133.59275 1075.5,133.59275 1085,150.04725 1094.5,133.59275 1113.5,133.59275 1123,150.04725 1113.5,166.50175 1132.5,166.50175 1142,182.95625 1151.5,166.50175 1170.5,166.50175 1161,150.04725 1170.5,133.59275 1189.5,133.59275 1199,150.04725 1208.5,133.59275 1227.5,133.59275 1237,150.04725 1227.5,166.50175 1246.5,166.50175 1256,182.95625 1246.5,199.41075 1227.5,199.41075 1237,215.86525 1227.5,232.31975 1246.5,232.31975 1256,248.77425 1265.5,232.31975 1284.5,232.31975 1294,248.77425 1284.5,265.22875 1303.5,265.22875 1313,281.68325 1322.5,265.22875 1341.5,265.22875 1332,248.77425 1341.5,232.31975 1360.5,232.31975 1370,248.77425 1379.5,232.31975 1398.5,232.31975 1389,215.86525 1398.5,199.41075 1379.5,199.41075 1370,182.95625 1379.5,166.50175 1398.5,166.50175 1389,150.04725 1398.5,133.59275 1417.5,133.59275 1427,150.04725 1436.5,133.59275 1455.5,133.59275 1465,150.04725 1455.5,166.50175 1474.5,166.50175 1484,182.95625 1493.5,166.50175 1512.5,166.50175 1503,150.04725 1512.5,133.59275 1531.5,133.59275 1541,150.04725 1550.5,133.59275 1569.5,133.59275 1560,150.04725 1541,150.04725 1550.5,166.50175 1541,182.95625 1522,182.95625 1512.5,166.50175 1503,182.95625 1484,182.95625 1493.5,199.41075 1484,215.86525 1503,215.86525 1512.5,232.31975 1503,248.77425 1484,248.77425 1493.5,265.22875 1484,281.68325 1465,281.68325 1455.5,265.22875 1446,281.68325 1427,281.68325 1417.5,265.22875 1427,248.77425 1408,248.77425 1398.5,232.31975 1389,248.77425 1370,248.77425 1379.5,265.22875 1370,281.68325 1351,281.68325 1341.5,265.22875 1332,281.68325 1313,281.68325 1322.5,298.13775 1313,314.59225 1332,314.59225 1341.5,331.04675 1332,347.50125 1313,347.50125 1322.5,363.95575 1313,380.41025 1332,380.41025 1341.5,396.86475 1351,380.41025 1370,380.41025 1379.5,396.86475 1370,413.31925 1389,413.31925 1398.5,429.77375 1389,446.22825 1370,446.22825 1379.5,462.68275 1370,479.13725 1351,479.13725 1341.5,462.68275 1332,479.13725 1313,479.13725 1322.5,495.59175 1313,512.04625 1332,512.04625 1341.5,528.50075 1332,544.95525 1313,544.95525 1322.5,561.40975 1313,577.86425 1294,577.86425 1284.5,561.40975 1275,577.86425 1256,577.86425 1246.5,561.40975 1256,544.95525 1237,544.95525 1227.5,528.50075 1218,544.95525 1199,544.95525 1208.5,561.40975 1199,577.86425 1180,577.86425 1170.5,561.40975 1161,577.86425 1142,577.86425 1132.5,561.40975 1142,544.95525 1123,544.95525 1113.5,528.50075 1123,512.04625 1142,512.04625 1132.5,495.59175 1142,479.13725 1123,479.13725 1113.5,462.68275 1104,479.13725 1085,479.13725 1075.5,462.68275 1085,446.22825 1066,446.22825 1056.5,429.77375 1047,446.22825 1028,446.22825 1037.5,462.68275 1028,479.13725 1009,479.13725 999.5,462.68275 990,479.13725 971,479.13725 980.5,495.59175 971,512.04625 990,512.04625 999.5,528.50075 990,544.95525 971,544.95525 980.5,561.40975 971,577.86425 952,577.86425 942.5,561.40975 933,577.86425 914,577.86425 904.5,561.40975 914,544.95525 895,544.95525 885.5,528.50075 876,544.95525 857,544.95525 866.5,561.40975 857,577.86425 838,577.86425 828.5,561.40975 819,577.86425 800,577.86425 809.5,594.31875 800,610.77325 819,610.77325 828.5,627.22775 819,643.68225 800,643.68225 809.5,660.13675 800,676.59125 819,676.59125 828.5,693.04575 838,676.59125 857,676.59125 866.5,693.04575 857,709.50025 876,709.50025 885.5,725.95475 876,742.40925 857,742.40925 866.5,758.86375 857,775.31825 838,775.31825 828.5,758.86375 819,775.31825 800,775.31825 809.5,791.77275 800,808.22725 819,808.22725 828.5,824.68175 819,841.13625 800,841.13625 809.5,857.59075 800,874.04525 819,874.04525 828.5,890.49975 838,874.04525 857,874.04525 866.5,890.49975 857,906.95425 876,906.95425 885.5,923.40875 895,906.95425 914,906.95425 904.5,890.49975 914,874.04525 933,874.04525 942.5,890.49975 952,874.04525 971,874.04525 980.5,890.49975 971,906.95425 990,906.95425 999.5,923.40875 990,939.86325 971,939.86325 980.5,956.31775 971,972.77225 990,972.77225 999.5,989.22675 1009,972.77225 1028,972.77225 1037.5,989.22675 1028,1005.68125 1047,1005.68125 1056.5,1022.13575 1047,1038.59025 1028,1038.59025 1037.5,1055.04475 1028,1071.49925 1009,1071.49925 999.5,1055.04475 990,1071.49925 971,1071.49925 980.5,1087.95375 971,1104.40825 990,1104.40825 999.5,1120.86275 990,1137.31725 971,1137.31725 980.5,1153.77175 971,1170.22625 952,1170.22625 942.5,1153.77175 933,1170.22625 914,1170.22625 904.5,1153.77175 914,1137.31725 895,1137.31725 885.5,1120.86275 876,1137.31725 857,1137.31725 866.5,1153.77175 857,1170.22625 838,1170.22625 828.5,1153.77175 819,1170.22625 800,1170.22625 809.5,1186.68075 800,1203.13525 819,1203.13525 828.5,1219.58975 819,1236.04425 800,1236.04425 809.5,1252.49875 800,1268.95325 819,1268.95325 828.5,1285.40775 838,1268.95325 857,1268.95325 866.5,1285.40775 857,1301.86225 876,1301.86225 885.5,1318.31675 876,1334.77125 857,1334.77125 866.5,1351.22575 857,1367.68025 838,1367.68025 828.5,1351.22575 819,1367.68025 800,1367.68025 809.5,1384.13475 800,1400.58925 819,1400.58925 828.5,1417.04375 819,1433.49825 800,1433.49825 809.5,1449.95275 800,1466.40725 790.5,1449.95275 800,1433.49825 781,1433.49825 771.5,1417.04375 781,1400.58925 800,1400.58925 790.5,1384.13475 800,1367.68025 781,1367.68025 771.5,1351.22575 762,1367.68025 743,1367.68025 733.5,1351.22575 743,1334.77125 724,1334.77125 714.5,1318.31675 724,1301.86225 743,1301.86225 733.5,1285.40775 743,1268.95325 762,1268.95325 771.5,1285.40775 781,1268.95325 800,1268.95325 790.5,1252.49875 800,1236.04425 781,1236.04425 771.5,1219.58975 781,1203.13525 800,1203.13525 790.5,1186.68075 800,1170.22625 781,1170.22625 771.5,1153.77175 762,1170.22625 743,1170.22625 733.5,1153.77175 743,1137.31725 724,1137.31725 714.5,1120.86275 705,1137.31725 686,1137.31725 695.5,1153.77175 686,1170.22625 667,1170.22625 657.5,1153.77175 648,1170.22625 629,1170.22625 619.5,1153.77175 629,1137.31725 610,1137.31725 600.5,1120.86275 610,1104.40825 629,1104.40825 619.5,1087.95375 629,1071.49925 610,1071.49925 600.5,1055.04475 591,1071.49925 572,1071.49925 562.5,1055.04475 572,1038.59025 553,1038.59025 543.5,1022.13575 553,1005.68125 572,1005.68125 562.5,989.22675 572,972.77225 591,972.77225 600.5,989.22675 610,972.77225 629,972.77225 619.5,956.31775 629,939.86325 610,939.86325 600.5,923.40875 610,906.95425 629,906.95425 619.5,890.49975 629,874.04525 648,874.04525 657.5,890.49975 667,874.04525 686,874.04525 695.5,890.49975 686,906.95425 705,906.95425 714.5,923.40875 724,906.95425 743,906.95425 733.5,890.49975 743,874.04525 762,874.04525 771.5,890.49975 781,874.04525 800,874.04525 790.5,857.59075 800,841.13625 781,841.13625 771.5,824.68175 781,808.22725 800,808.22725 790.5,791.77275 800,775.31825 781,775.31825 771.5,758.86375 762,775.31825 743,775.31825 733.5,758.86375 743,742.40925 724,742.40925 714.5,725.95475 724,709.50025 743,709.50025 733.5,693.04575 743,676.59125 762,676.59125 771.5,693.04575 781,676.59125 800,676.59125 790.5,660.13675 800,643.68225 781,643.68225 771.5,627.22775 781,610.77325 800,610.77325 790.5,594.31875 800,577.86425 781,577.86425 771.5,561.40975 762,577.86425 743,577.86425 733.5,561.40975 743,544.95525 724,544.95525 714.5,528.50075 705,544.95525 686,544.95525 695.5,561.40975 686,577.86425 667,577.86425 657.5,561.40975 648,577.86425 629,577.86425 619.5,561.40975 629,544.95525 610,544.95525 600.5,528.50075 610,512.04625 629,512.04625 619.5,495.59175 629,479.13725 610,479.13725 600.5,462.68275 591,479.13725 572,479.13725 562.5,462.68275 572,446.22825 553,446.22825 543.5,429.77375 534,446.22825 515,446.22825 524.5,462.68275 515,479.13725 496,479.13725 486.5,462.68275 477,479.13725 458,479.13725 467.5,495.59175 458,512.04625 477,512.04625 486.5,528.50075 477,544.95525 458,544.95525 467.5,561.40975 458,577.86425 439,577.86425 429.5,561.40975 420,577.86425 401,577.86425 391.5,561.40975 401,544.95525 382,544.95525 372.5,528.50075 363,544.95525 344,544.95525 353.5,561.40975 344,577.86425 325,577.86425 315.5,561.40975 306,577.86425 287,577.86425 277.5,561.40975 287,544.95525 268,544.95525 258.5,528.50075 268,512.04625 287,512.04625 277.5,495.59175 287,479.13725 268,479.13725 258.5,462.68275 249,479.13725 230,479.13725 220.5,462.68275 230,446.22825 211,446.22825 201.5,429.77375 211,413.31925 230,413.31925 220.5,396.86475 230,380.41025 249,380.41025 258.5,396.86475 268,380.41025 287,380.41025 277.5,363.95575 287,347.50125 268,347.50125 258.5,331.04675 268,314.59225 287,314.59225 277.5,298.13775 287,281.68325 268,281.68325 258.5,265.22875 249,281.68325 230,281.68325 220.5,265.22875 230,248.77425 211,248.77425 201.5,232.31975 192,248.77425 173,248.77425 182.5,265.22875 173,281.68325 154,281.68325 144.5,265.22875 135,281.68325 116,281.68325 106.5,265.22875 116,248.77425 97,248.77425 87.5,232.31975 97,215.86525 116,215.86525 106.5,199.41075 116,182.95625 97,182.95625 87.5,166.50175 78,182.95625 59,182.95625 49.5,166.50175 59,150.04725 40,150.04725 30.5,133.59275" />
</svg>