<svg xmlns="http://www.w3.org/2000/svg" viewBox="-1000 -1000 2000 2000" width="100%" height="100%"
	xml:space="preserve" xmlns:xlink="http://wwww3.org/1999/xlink" stroke-linecap="round"
	stroke-linejoin="round"><g><path stroke="#000000" stroke-width="2px" d="M -779.4457 -450 L -760.2002 -450"></path><path stroke="#000000" stroke-width="2px" d="M -760.2002 -450 L -750.5774 -466.6667"></path><path stroke="#000000" stroke-width="2px" d="M -750.5774 -466.6667 L -740.9546 -450"></path><path stroke="#000000" stroke-width="2px" d="M -740.9546 -450 L -721.709 -450"></path><path stroke="#000000" stroke-width="2px" d="M -721.709 -450 L -712.0862 -466.6667"></path><path stroke="#000000" stroke-width="2px" d="M -712.0862 -466.6667 L -721.709 -483.3333"></path><path stroke="#000000" stroke-width="2px" d="M -721.709 -483.3333 L -702.4634 -483.3333"></path><path stroke="#000000" stroke-width="2px" d="M -702.4634 -483.3333 L -692.8406 -500"></path><path stroke="#000000" stroke-width="2px" d="M -692.8406 -500 L -683.2179 -483.3333"></path><path stroke="#000000" stroke-width="2px" d="M -683.2179 -483.3333 L -663.9723 -483.3333"></path><path stroke="#000000" stroke-width="2px" d="M -663.9723 -483.3333 L -673.5951 -466.6667"></path><path stroke="#000000" stroke-width="2px" d="M -673.5951 -466.6667 L -663.9723 -450"></path><path stroke="#000000" stroke-width="2px" d="M -663.9723 -450 L -644.7267 -450"></path><path stroke="#000000" stroke-width="2px" d="M -644.7267 -450 L -635.1039 -466.6667"></path><path stroke="#000000" stroke-width="2px" d="M -635.1039 -466.6667 L -625.4811 -450"></path><path stroke="#000000" stroke-width="2px" d="M -625.4811 -450 L -606.2356 -450"></path><path stroke="#000000" stroke-width="2px" d="M -606.2356 -450 L -596.6128 -466.6667"></path><path stroke="#000000" stroke-width="2px" d="M -596.6128 -466.6667 L -606.2356 -483.3333"></path><path stroke="#000000" stroke-width="2px" d="M -606.2356 -483.3333 L -586.99 -483.3333"></path><path stroke="#000000" stroke-width="2px" d="M -586.99 -483.3333 L -577.3672 -500"></path><path stroke="#000000" stroke-width="2px" d="M -577.3672 -500 L -586.99 -516.6667"></path><path stroke="#000000" stroke-width="2px" d="M -586.99 -516.6667 L -606.2356 -516.6667"></path><path stroke="#000000" stroke-width="2px" d="M -606.2356 -516.6667 L -596.6128 -533.3333"></path><path stroke="#000000" stroke-width="2px" d="M -596.6128 -533.3333 L -606.2356 -550"></path><path stroke="#000000" stroke-width="2px" d="M -606.2356 -550 L -586.99 -550"></path><path stroke="#000000" stroke-width="2px" d="M -586.99 -550 L -577.3672 -566.6667"></path><path stroke="#000000" stroke-width="2px" d="M -577.3672 -566.6667 L -567.7444 -550"></path><path stroke="#000000" stroke-width="2px" d="M -567.7444 -550 L -548.4988 -550"></path><path stroke="#000000" stroke-width="2px" d="M -548.4988 -550 L -538.8761 -566.6667"></path><path stroke="#000000" stroke-width="2px" d="M -538.8761 -566.6667 L -548.4988 -583.3333"></path><path stroke="#000000" stroke-width="2px" d="M -548.4988 -583.3333 L -529.2533 -583.3333"></path><path stroke="#000000" stroke-width="2px" d="M -529.2533 -583.3333 L -519.6305 -600"></path><path stroke="#000000" stroke-width="2px" d="M -519.6305 -600 L -510.0077 -583.3333"></path><path stroke="#000000" stroke-width="2px" d="M -510.0077 -583.3333 L -490.7621 -583.3333"></path><path stroke="#000000" stroke-width="2px" d="M -490.7621 -583.3333 L -500.3849 -566.6667"></path><path stroke="#000000" stroke-width="2px" d="M -500.3849 -566.6667 L -490.7621 -550"></path><path stroke="#000000" stroke-width="2px" d="M -490.7621 -550 L -471.5166 -550"></path><path stroke="#000000" stroke-width="2px" d="M -471.5166 -550 L -461.8938 -566.6667"></path><path stroke="#000000" stroke-width="2px" d="M -461.8938 -566.6667 L -452.271 -550"></path><path stroke="#000000" stroke-width="2px" d="M -452.271 -550 L -433.0254 -550"></path><path stroke="#000000" stroke-width="2px" d="M -433.0254 -550 L -442.6482 -533.3333"></path><path stroke="#000000" stroke-width="2px" d="M -442.6482 -533.3333 L -433.0254 -516.6667"></path><path stroke="#000000" stroke-width="2px" d="M -433.0254 -516.6667 L -452.271 -516.6667"></path><path stroke="#000000" stroke-width="2px" d="M -452.271 -516.6667 L -461.8938 -500"></path><path stroke="#000000" stroke-width="2px" d="M -461.8938 -500 L -452.271 -483.3333"></path><path stroke="#000000" stroke-width="2px" d="M -452.271 -483.3333 L -433.0254 -483.3333"></path><path stroke="#000000" stroke-width="2px" d="M -433.0254 -483.3333 L -442.6482 -466.6667"></path><path stroke="#000000" stroke-width="2px" d="M -442.6482 -466.6667 L -433.0254 -450"></path><path stroke="#000000" stroke-width="2px" d="M -433.0254 -450 L -413.7798 -450"></path><path stroke="#000000" stroke-width="2px" d="M -413.7798 -450 L -404.157 -466.6667"></path><path stroke="#000000" stroke-width="2px" d="M -404.157 -466.6667 L -394.5343 -450"></path><path stroke="#000000" stroke-width="2px" d="M -394.5343 -450 L -375.2887 -450"></path><path stroke="#000000" stroke-width="2px" d="M -375.2887 -450 L -365.6659 -466.6667"></path><path stroke="#000000" stroke-width="2px" d="M -365.6659 -466.6667 L -375.2887 -483.3333"></path><path stroke="#000000" stroke-width="2px" d="M -375.2887 -483.3333 L -356.0431 -483.3333"></path><path stroke="#000000" stroke-width="2px" d="M -356.0431 -483.3333 L -346.4203 -500"></path><path stroke="#000000" stroke-width="2px" d="M -346.4203 -500 L -336.7975 -483.3333"></path><path stroke="#000000" stroke-width="2px" d="M -336.7975 -483.3333 L -317.552 -483.3333"></path><path stroke="#000000" stroke-width="2px" d="M -317.552 -483.3333 L -327.1747 -466.6667"></path><path stroke="#000000" stroke-width="2px" d="M -327.1747 -466.6667 L -317.552 -450"></path><path stroke="#000000" stroke-width="2px" d="M -317.552 -450 L -298.3064 -450"></path><path stroke="#000000" stroke-width="2px" d="M -298.3064 -450 L -288.6836 -466.6667"></path><path stroke="#000000" stroke-width="2px" d="M -288.6836 -466.6667 L -279.0608 -450"></path><path stroke="#000000" stroke-width="2px" d="M -279.0608 -450 L -259.8152 -450"></path><path stroke="#000000" stroke-width="2px" d="M -259.8152 -450 L -250.1925 -466.6667"></path><path stroke="#000000" stroke-width="2px" d="M -250.1925 -466.6667 L -259.8152 -483.3333"></path><path stroke="#000000" stroke-width="2px" d="M -259.8152 -483.3333 L -240.5697 -483.3333"></path><path stroke="#000000" stroke-width="2px" d="M -240.5697 -483.3333 L -230.9469 -500"></path><path stroke="#000000" stroke-width="2px" d="M -230.9469 -500 L -240.5697 -516.6667"></path><path stroke="#000000" stroke-width="2px" d="M -240.5697 -516.6667 L -259.8152 -516.6667"></path><path stroke="#000000" stroke-width="2px" d="M -259.8152 -516.6667 L -250.1925 -533.3333"></path><path stroke="#000000" stroke-width="2px" d="M -250.1925 -533.3333 L -259.8152 -550"></path><path stroke="#000000" stroke-width="2px" d="M -259.8152 -550 L -240.5697 -550"></path><path stroke="#000000" stroke-width="2px" d="M -240.5697 -550 L -230.9469 -566.6667"></path><path stroke="#000000" stroke-width="2px" d="M -230.9469 -566.6667 L -221.3241 -550"></path><path stroke="#000000" stroke-width="2px" d="M -221.3241 -550 L -202.0785 -550"></path><path stroke="#000000" stroke-width="2px" d="M -202.0785 -550 L -192.4557 -566.6667"></path><path stroke="#000000" stroke-width="2px" d="M -192.4557 -566.6667 L -202.0785 -583.3333"></path><path stroke="#000000" stroke-width="2px" d="M -202.0785 -583.3333 L -182.8329 -583.3333"></path><path stroke="#000000" stroke-width="2px" d="M -182.8329 -583.3333 L -173.2102 -600"></path><path stroke="#000000" stroke-width="2px" d="M -173.2102 -600 L -182.8329 -616.6667"></path><path stroke="#000000" stroke-width="2px" d="M -182.8329 -616.6667 L -202.0785 -616.6667"></path><path stroke="#000000" stroke-width="2px" d="M -202.0785 -616.6667 L -192.4557 -633.3333"></path><path stroke="#000000" stroke-width="2px" d="M -192.4557 -633.3333 L -202.0785 -650"></path><path stroke="#000000" stroke-width="2px" d="M -202.0785 -650 L -221.3241 -650"></path><path stroke="#000000" stroke-width="2px" d="M -221.3241 -650 L -230.9469 -633.3333"></path><path stroke="#000000" stroke-width="2px" d="M -230.9469 -633.3333 L -240.5697 -650"></path><path stroke="#000000" stroke-width="2px" d="M -240.5697 -650 L -259.8152 -650"></path><path stroke="#000000" stroke-width="2px" d="M -259.8152 -650 L -250.1925 -666.6667"></path><path stroke="#000000" stroke-width="2px" d="M -250.1925 -666.6667 L -259.8152 -683.3333"></path><path stroke="#000000" stroke-width="2px" d="M -259.8152 -683.3333 L -240.5697 -683.3333"></path><path stroke="#000000" stroke-width="2px" d="M -240.5697 -683.3333 L -230.9469 -700"></path><path stroke="#000000" stroke-width="2px" d="M -230.9469 -700 L -240.5697 -716.6667"></path><path stroke="#000000" stroke-width="2px" d="M -240.5697 -716.6667 L -259.8152 -716.6667"></path><path stroke="#000000" stroke-width="2px" d="M -259.8152 -716.6667 L -250.1925 -733.3333"></path><path stroke="#000000" stroke-width="2px" d="M -250.1925 -733.3333 L -259.8152 -750"></path><path stroke="#000000" stroke-width="2px" d="M -259.8152 -750 L -240.5697 -750"></path><path stroke="#000000" stroke-width="2px" d="M -240.5697 -750 L -230.9469 -766.6667"></path><path stroke="#000000" stroke-width="2px" d="M -230.9469 -766.6667 L -221.3241 -750"></path><path stroke="#000000" stroke-width="2px" d="M -221.3241 -750 L -202.0785 -750"></path><path stroke="#000000" stroke-width="2px" d="M -202.0785 -750 L -192.4557 -766.6667"></path><path stroke="#000000" stroke-width="2px" d="M -192.4557 -766.6667 L -202.0785 -783.3333"></path><path stroke="#000000" stroke-width="2px" d="M -202.0785 -783.3333 L -182.8329 -783.3333"></path><path stroke="#000000" stroke-width="2px" d="M -182.8329 -783.3333 L -173.2102 -800"></path><path stroke="#000000" stroke-width="2px" d="M -173.2102 -800 L -163.5874 -783.3333"></path><path stroke="#000000" stroke-width="2px" d="M -163.5874 -783.3333 L -144.3418 -783.3333"></path><path stroke="#000000" stroke-width="2px" d="M -144.3418 -783.3333 L -153.9646 -766.6667"></path><path stroke="#000000" stroke-width="2px" d="M -153.9646 -766.6667 L -144.3418 -750"></path><path stroke="#000000" stroke-width="2px" d="M -144.3418 -750 L -125.0962 -750"></path><path stroke="#000000" stroke-width="2px" d="M -125.0962 -750 L -115.4734 -766.6667"></path><path stroke="#000000" stroke-width="2px" d="M -115.4734 -766.6667 L -105.8507 -750"></path><path stroke="#000000" stroke-width="2px" d="M -105.8507 -750 L -86.6051 -750"></path><path stroke="#000000" stroke-width="2px" d="M -86.6051 -750 L -76.9823 -766.6667"></path><path stroke="#000000" stroke-width="2px" d="M -76.9823 -766.6667 L -86.6051 -783.3333"></path><path stroke="#000000" stroke-width="2px" d="M -86.6051 -783.3333 L -67.3595 -783.3333"></path><path stroke="#000000" stroke-width="2px" d="M -67.3595 -783.3333 L -57.7367 -800"></path><path stroke="#000000" stroke-width="2px" d="M -57.7367 -800 L -67.3595 -816.6667"></path><path stroke="#000000" stroke-width="2px" d="M -67.3595 -816.6667 L -86.6051 -816.6667"></path><path stroke="#000000" stroke-width="2px" d="M -86.6051 -816.6667 L -76.9823 -833.3333"></path><path stroke="#000000" stroke-width="2px" d="M -76.9823 -833.3333 L -86.6051 -850"></path><path stroke="#000000" stroke-width="2px" d="M -86.6051 -850 L -67.3595 -850"></path><path stroke="#000000" stroke-width="2px" d="M -67.3595 -850 L -57.7367 -866.6667"></path><path stroke="#000000" stroke-width="2px" d="M -57.7367 -866.6667 L -48.1139 -850"></path><path stroke="#000000" stroke-width="2px" d="M -48.1139 -850 L -28.8684 -850"></path><path stroke="#000000" stroke-width="2px" d="M -28.8684 -850 L -19.2456 -866.6667"></path><path stroke="#000000" stroke-width="2px" d="M -19.2456 -866.6667 L -28.8684 -883.3333"></path><path stroke="#000000" stroke-width="2px" d="M -28.8684 -883.3333 L -9.6228 -883.3333"></path><path stroke="#000000" stroke-width="2px" d="M -9.6228 -883.3333 L 0 -900"></path><path stroke="#000000" stroke-width="2px" d="M 0 -900 L 9.6228 -883.3333"></path><path stroke="#000000" stroke-width="2px" d="M 9.6228 -883.3333 L 28.8684 -883.3333"></path><path stroke="#000000" stroke-width="2px" d="M 28.8684 -883.3333 L 19.2456 -866.6667"></path><path stroke="#000000" stroke-width="2px" d="M 19.2456 -866.6667 L 28.8684 -850"></path><path stroke="#000000" stroke-width="2px" d="M 28.8684 -850 L 48.1139 -850"></path><path stroke="#000000" stroke-width="2px" d="M 48.1139 -850 L 57.7367 -866.6667"></path><path stroke="#000000" stroke-width="2px" d="M 57.7367 -866.6667 L 67.3595 -850"></path><path stroke="#000000" stroke-width="2px" d="M 67.3595 -850 L 86.6051 -850"></path><path stroke="#000000" stroke-width="2px" d="M 86.6051 -850 L 76.9823 -833.3333"></path><path stroke="#000000" stroke-width="2px" d="M 76.9823 -833.3333 L 86.6051 -816.6667"></path><path stroke="#000000" stroke-width="2px" d="M 86.6051 -816.6667 L 67.3595 -816.6667"></path><path stroke="#000000" stroke-width="2px" d="M 67.3595 -816.6667 L 57.7367 -800"></path><path stroke="#000000" stroke-width="2px" d="M 57.7367 -800 L 67.3595 -783.3333"></path><path stroke="#000000" stroke-width="2px" d="M 67.3595 -783.3333 L 86.6051 -783.3333"></path><path stroke="#000000" stroke-width="2px" d="M 86.6051 -783.3333 L 76.9823 -766.6667"></path><path stroke="#000000" stroke-width="2px" d="M 76.9823 -766.6667 L 86.6051 -750"></path><path stroke="#000000" stroke-width="2px" d="M 86.6051 -750 L 105.8507 -750"></path><path stroke="#000000" stroke-width="2px" d="M 105.8507 -750 L 115.4734 -766.6667"></path><path stroke="#000000" stroke-width="2px" d="M 115.4734 -766.6667 L 125.0962 -750"></path><path stroke="#000000" stroke-width="2px" d="M 125.0962 -750 L 144.3418 -750"></path><path stroke="#000000" stroke-width="2px" d="M 144.3418 -750 L 153.9646 -766.6667"></path><path stroke="#000000" stroke-width="2px" d="M 153.9646 -766.6667 L 144.3418 -783.3333"></path><path stroke="#000000" stroke-width="2px" d="M 144.3418 -783.3333 L 163.5874 -783.3333"></path><path stroke="#000000" stroke-width="2px" d="M 163.5874 -783.3333 L 173.2102 -800"></path><path stroke="#000000" stroke-width="2px" d="M 173.2102 -800 L 182.8329 -783.3333"></path><path stroke="#000000" stroke-width="2px" d="M 182.8329 -783.3333 L 202.0785 -783.3333"></path><path stroke="#000000" stroke-width="2px" d="M 202.0785 -783.3333 L 192.4557 -766.6667"></path><path stroke="#000000" stroke-width="2px" d="M 192.4557 -766.6667 L 202.0785 -750"></path><path stroke="#000000" stroke-width="2px" d="M 202.0785 -750 L 221.3241 -750"></path><path stroke="#000000" stroke-width="2px" d="M 221.3241 -750 L 230.9469 -766.6667"></path><path stroke="#000000" stroke-width="2px" d="M 230.9469 -766.6667 L 240.5697 -750"></path><path stroke="#000000" stroke-width="2px" d="M 240.5697 -750 L 259.8152 -750"></path><path stroke="#000000" stroke-width="2px" d="M 259.8152 -750 L 250.1925 -733.3333"></path><path stroke="#000000" stroke-width="2px" d="M 250.1925 -733.3333 L 259.8152 -716.6667"></path><path stroke="#000000" stroke-width="2px" d="M 259.8152 -716.6667 L 240.5697 -716.6667"></path><path stroke="#000000" stroke-width="2px" d="M 240.5697 -716.6667 L 230.9469 -700"></path><path stroke="#000000" stroke-width="2px" d="M 230.9469 -700 L 240.5697 -683.3333"></path><path stroke="#000000" stroke-width="2px" d="M 240.5697 -683.3333 L 259.8152 -683.3333"></path><path stroke="#000000" stroke-width="2px" d="M 259.8152 -683.3333 L 250.1925 -666.6667"></path><path stroke="#000000" stroke-width="2px" d="M 250.1925 -666.6667 L 259.8152 -650"></path><path stroke="#000000" stroke-width="2px" d="M 259.8152 -650 L 240.5697 -650"></path><path stroke="#000000" stroke-width="2px" d="M 240.5697 -650 L 230.9469 -633.3333"></path><path stroke="#000000" stroke-width="2px" d="M 230.9469 -633.3333 L 221.3241 -650"></path><path stroke="#000000" stroke-width="2px" d="M 221.3241 -650 L 202.0785 -650"></path><path stroke="#000000" stroke-width="2px" d="M 202.0785 -650 L 192.4557 -633.3333"></path><path stroke="#000000" stroke-width="2px" d="M 192.4557 -633.3333 L 202.0785 -616.6667"></path><path stroke="#000000" stroke-width="2px" d="M 202.0785 -616.6667 L 182.8329 -616.6667"></path><path stroke="#000000" stroke-width="2px" d="M 182.8329 -616.6667 L 173.2102 -600"></path><path stroke="#000000" stroke-width="2px" d="M 173.2102 -600 L 182.8329 -583.3333"></path><path stroke="#000000" stroke-width="2px" d="M 182.8329 -583.3333 L 202.0785 -583.3333"></path><path stroke="#000000" stroke-width="2px" d="M 202.0785 -583.3333 L 192.4557 -566.6667"></path><path stroke="#000000" stroke-width="2px" d="M 192.4557 -566.6667 L 202.0785 -550"></path><path stroke="#000000" stroke-width="2px" d="M 202.0785 -550 L 221.3241 -550"></path><path stroke="#000000" stroke-width="2px" d="M 221.3241 -550 L 230.9469 -566.6667"></path><path stroke="#000000" stroke-width="2px" d="M 230.9469 -566.6667 L 240.5697 -550"></path><path stroke="#000000" stroke-width="2px" d="M 240.5697 -550 L 259.8152 -550"></path><path stroke="#000000" stroke-width="2px" d="M 259.8152 -550 L 250.1925 -533.3333"></path><path stroke="#000000" stroke-width="2px" d="M 250.1925 -533.3333 L 259.8152 -516.6667"></path><path stroke="#000000" stroke-width="2px" d="M 259.8152 -516.6667 L 240.5697 -516.6667"></path><path stroke="#000000" stroke-width="2px" d="M 240.5697 -516.6667 L 230.9469 -500"></path><path stroke="#000000" stroke-width="2px" d="M 230.9469 -500 L 240.5697 -483.3333"></path><path stroke="#000000" stroke-width="2px" d="M 240.5697 -483.3333 L 259.8152 -483.3333"></path><path stroke="#000000" stroke-width="2px" d="M 259.8152 -483.3333 L 250.1925 -466.6667"></path><path stroke="#000000" stroke-width="2px" d="M 250.1925 -466.6667 L 259.8152 -450"></path><path stroke="#000000" stroke-width="2px" d="M 259.8152 -450 L 279.0608 -450"></path><path stroke="#000000" stroke-width="2px" d="M 279.0608 -450 L 288.6836 -466.6667"></path><path stroke="#000000" stroke-width="2px" d="M 288.6836 -466.6667 L 298.3064 -450"></path><path stroke="#000000" stroke-width="2px" d="M 298.3064 -450 L 317.552 -450"></path><path stroke="#000000" stroke-width="2px" d="M 317.552 -450 L 327.1747 -466.6667"></path><path stroke="#000000" stroke-width="2px" d="M 327.1747 -466.6667 L 317.552 -483.3333"></path><path stroke="#000000" stroke-width="2px" d="M 317.552 -483.3333 L 336.7975 -483.3333"></path><path stroke="#000000" stroke-width="2px" d="M 336.7975 -483.3333 L 346.4203 -500"></path><path stroke="#000000" stroke-width="2px" d="M 346.4203 -500 L 356.0431 -483.3333"></path><path stroke="#000000" stroke-width="2px" d="M 356.0431 -483.3333 L 375.2887 -483.3333"></path><path stroke="#000000" stroke-width="2px" d="M 375.2887 -483.3333 L 365.6659 -466.6667"></path><path stroke="#000000" stroke-width="2px" d="M 365.6659 -466.6667 L 375.2887 -450"></path><path stroke="#000000" stroke-width="2px" d="M 375.2887 -450 L 394.5343 -450"></path><path stroke="#000000" stroke-width="2px" d="M 394.5343 -450 L 404.157 -466.6667"></path><path stroke="#000000" stroke-width="2px" d="M 404.157 -466.6667 L 413.7798 -450"></path><path stroke="#000000" stroke-width="2px" d="M 413.7798 -450 L 433.0254 -450"></path><path stroke="#000000" stroke-width="2px" d="M 433.0254 -450 L 442.6482 -466.6667"></path><path stroke="#000000" stroke-width="2px" d="M 442.6482 -466.6667 L 433.0254 -483.3333"></path><path stroke="#000000" stroke-width="2px" d="M 433.0254 -483.3333 L 452.271 -483.3333"></path><path stroke="#000000" stroke-width="2px" d="M 452.271 -483.3333 L 461.8938 -500"></path><path stroke="#000000" stroke-width="2px" d="M 461.8938 -500 L 452.271 -516.6667"></path><path stroke="#000000" stroke-width="2px" d="M 452.271 -516.6667 L 433.0254 -516.6667"></path><path stroke="#000000" stroke-width="2px" d="M 433.0254 -516.6667 L 442.6482 -533.3333"></path><path stroke="#000000" stroke-width="2px" d="M 442.6482 -533.3333 L 433.0254 -550"></path><path stroke="#000000" stroke-width="2px" d="M 433.0254 -550 L 452.271 -550"></path><path stroke="#000000" stroke-width="2px" d="M 452.271 -550 L 461.8938 -566.6667"></path><path stroke="#000000" stroke-width="2px" d="M 461.8938 -566.6667 L 471.5166 -550"></path><path stroke="#000000" stroke-width="2px" d="M 471.5166 -550 L 490.7621 -550"></path><path stroke="#000000" stroke-width="2px" d="M 490.7621 -550 L 500.3849 -566.6667"></path><path stroke="#000000" stroke-width="2px" d="M 500.3849 -566.6667 L 490.7621 -583.3333"></path><path stroke="#000000" stroke-width="2px" d="M 490.7621 -583.3333 L 510.0077 -583.3333"></path><path stroke="#000000" stroke-width="2px" d="M 510.0077 -583.3333 L 519.6305 -600"></path><path stroke="#000000" stroke-width="2px" d="M 519.6305 -600 L 529.2533 -583.3333"></path><path stroke="#000000" stroke-width="2px" d="M 529.2533 -583.3333 L 548.4988 -583.3333"></path><path stroke="#000000" stroke-width="2px" d="M 548.4988 -583.3333 L 538.8761 -566.6667"></path><path stroke="#000000" stroke-width="2px" d="M 538.8761 -566.6667 L 548.4988 -550"></path><path stroke="#000000" stroke-width="2px" d="M 548.4988 -550 L 567.7444 -550"></path><path stroke="#000000" stroke-width="2px" d="M 567.7444 -550 L 577.3672 -566.6667"></path><path stroke="#000000" stroke-width="2px" d="M 577.3672 -566.6667 L 586.99 -550"></path><path stroke="#000000" stroke-width="2px" d="M 586.99 -550 L 606.2356 -550"></path><path stroke="#000000" stroke-width="2px" d="M 606.2356 -550 L 596.6128 -533.3333"></path><path stroke="#000000" stroke-width="2px" d="M 596.6128 -533.3333 L 606.2356 -516.6667"></path><path stroke="#000000" stroke-width="2px" d="M 606.2356 -516.6667 L 586.99 -516.6667"></path><path stroke="#000000" stroke-width="2px" d="M 586.99 -516.6667 L 577.3672 -500"></path><path stroke="#000000" stroke-width="2px" d="M 577.3672 -500 L 586.99 -483.3333"></path><path stroke="#000000" stroke-width="2px" d="M 586.99 -483.3333 L 606.2356 -483.3333"></path><path stroke="#000000" stroke-width="2px" d="M 606.2356 -483.3333 L 596.6128 -466.6667"></path><path stroke="#000000" stroke-width="2px" d="M 596.6128 -466.6667 L 606.2356 -450"></path><path stroke="#000000" stroke-width="2px" d="M 606.2356 -450 L 625.4811 -450"></path><path stroke="#000000" stroke-width="2px" d="M 625.4811 -450 L 635.1039 -466.6667"></path><path stroke="#000000" stroke-width="2px" d="M 635.1039 -466.6667 L 644.7267 -450"></path><path stroke="#000000" stroke-width="2px" d="M 644.7267 -450 L 663.9723 -450"></path><path stroke="#000000" stroke-width="2px" d="M 663.9723 -450 L 673.5951 -466.6667"></path><path stroke="#000000" stroke-width="2px" d="M 673.5951 -466.6667 L 663.9723 -483.3333"></path><path stroke="#000000" stroke-width="2px" d="M 663.9723 -483.3333 L 683.2179 -483.3333"></path><path stroke="#000000" stroke-width="2px" d="M 683.2179 -483.3333 L 692.8406 -500"></path><path stroke="#000000" stroke-width="2px" d="M 692.8406 -500 L 702.4634 -483.3333"></path><path stroke="#000000" stroke-width="2px" d="M 702.4634 -483.3333 L 721.709 -483.3333"></path><path stroke="#000000" stroke-width="2px" d="M 721.709 -483.3333 L 712.0862 -466.6667"></path><path stroke="#000000" stroke-width="2px" d="M 712.0862 -466.6667 L 721.709 -450"></path><path stroke="#000000" stroke-width="2px" d="M 721.709 -450 L 740.9546 -450"></path><path stroke="#000000" stroke-width="2px" d="M 740.9546 -450 L 750.5774 -466.6667"></path><path stroke="#000000" stroke-width="2px" d="M 750.5774 -466.6667 L 760.2002 -450"></path><path stroke="#000000" stroke-width="2px" d="M 760.2002 -450 L 779.4457 -450"></path><path stroke="#000000" stroke-width="2px" d="M 779.4457 -450 L 769.8229 -433.3333"></path><path stroke="#000000" stroke-width="2px" d="M 769.8229 -433.3333 L 779.4457 -416.6667"></path><path stroke="#000000" stroke-width="2px" d="M 779.4457 -416.6667 L 760.2002 -416.6667"></path><path stroke="#000000" stroke-width="2px" d="M 760.2002 -416.6667 L 750.5774 -400"></path><path stroke="#000000" stroke-width="2px" d="M 750.5774 -400 L 760.2002 -383.3333"></path><path stroke="#000000" stroke-width="2px" d="M 760.2002 -383.3333 L 779.4457 -383.3333"></path><path stroke="#000000" stroke-width="2px" d="M 779.4457 -383.3333 L 769.8229 -366.6667"></path><path stroke="#000000" stroke-width="2px" d="M 769.8229 -366.6667 L 779.4457 -350"></path><path stroke="#000000" stroke-width="2px" d="M 779.4457 -350 L 760.2002 -350"></path><path stroke="#000000" stroke-width="2px" d="M 760.2002 -350 L 750.5774 -333.3333"></path><path stroke="#000000" stroke-width="2px" d="M 750.5774 -333.3333 L 740.9546 -350"></path><path stroke="#000000" stroke-width="2px" d="M 740.9546 -350 L 721.709 -350"></path><path stroke="#000000" stroke-width="2px" d="M 721.709 -350 L 712.0862 -333.3333"></path><path stroke="#000000" stroke-width="2px" d="M 712.0862 -333.3333 L 721.709 -316.6667"></path><path stroke="#000000" stroke-width="2px" d="M 721.709 -316.6667 L 702.4634 -316.6667"></path><path stroke="#000000" stroke-width="2px" d="M 702.4634 -316.6667 L 692.8406 -300"></path><path stroke="#000000" stroke-width="2px" d="M 692.8406 -300 L 702.4634 -283.3333"></path><path stroke="#000000" stroke-width="2px" d="M 702.4634 -283.3333 L 721.709 -283.3333"></path><path stroke="#000000" stroke-width="2px" d="M 721.709 -283.3333 L 712.0862 -266.6667"></path><path stroke="#000000" stroke-width="2px" d="M 712.0862 -266.6667 L 721.709 -250"></path><path stroke="#000000" stroke-width="2px" d="M 721.709 -250 L 740.9546 -250"></path><path stroke="#000000" stroke-width="2px" d="M 740.9546 -250 L 750.5774 -266.6667"></path><path stroke="#000000" stroke-width="2px" d="M 750.5774 -266.6667 L 760.2002 -250"></path><path stroke="#000000" stroke-width="2px" d="M 760.2002 -250 L 779.4457 -250"></path><path stroke="#000000" stroke-width="2px" d="M 779.4457 -250 L 769.8229 -233.3333"></path><path stroke="#000000" stroke-width="2px" d="M 769.8229 -233.3333 L 779.4457 -216.6667"></path><path stroke="#000000" stroke-width="2px" d="M 779.4457 -216.6667 L 760.2002 -216.6667"></path><path stroke="#000000" stroke-width="2px" d="M 760.2002 -216.6667 L 750.5774 -200"></path><path stroke="#000000" stroke-width="2px" d="M 750.5774 -200 L 760.2002 -183.3333"></path><path stroke="#000000" stroke-width="2px" d="M 760.2002 -183.3333 L 779.4457 -183.3333"></path><path stroke="#000000" stroke-width="2px" d="M 779.4457 -183.3333 L 769.8229 -166.6667"></path><path stroke="#000000" stroke-width="2px" d="M 769.8229 -166.6667 L 779.4457 -150"></path><path stroke="#000000" stroke-width="2px" d="M 779.4457 -150 L 760.2002 -150"></path><path stroke="#000000" stroke-width="2px" d="M 760.2002 -150 L 750.5774 -133.3333"></path><path stroke="#000000" stroke-width="2px" d="M 750.5774 -133.3333 L 740.9546 -150"></path><path stroke="#000000" stroke-width="2px" d="M 740.9546 -150 L 721.709 -150"></path><path stroke="#000000" stroke-width="2px" d="M 721.709 -150 L 712.0862 -133.3333"></path><path stroke="#000000" stroke-width="2px" d="M 712.0862 -133.3333 L 721.709 -116.6667"></path><path stroke="#000000" stroke-width="2px" d="M 721.709 -116.6667 L 702.4634 -116.6667"></path><path stroke="#000000" stroke-width="2px" d="M 702.4634 -116.6667 L 692.8406 -100"></path><path stroke="#000000" stroke-width="2px" d="M 692.8406 -100 L 683.2179 -116.6667"></path><path stroke="#000000" stroke-width="2px" d="M 683.2179 -116.6667 L 663.9723 -116.6667"></path><path stroke="#000000" stroke-width="2px" d="M 663.9723 -116.6667 L 673.5951 -133.3333"></path><path stroke="#000000" stroke-width="2px" d="M 673.5951 -133.3333 L 663.9723 -150"></path><path stroke="#000000" stroke-width="2px" d="M 663.9723 -150 L 644.7267 -150"></path><path stroke="#000000" stroke-width="2px" d="M 644.7267 -150 L 635.1039 -133.3333"></path><path stroke="#000000" stroke-width="2px" d="M 635.1039 -133.3333 L 625.4811 -150"></path><path stroke="#000000" stroke-width="2px" d="M 625.4811 -150 L 606.2356 -150"></path><path stroke="#000000" stroke-width="2px" d="M 606.2356 -150 L 596.6128 -133.3333"></path><path stroke="#000000" stroke-width="2px" d="M 596.6128 -133.3333 L 606.2356 -116.6667"></path><path stroke="#000000" stroke-width="2px" d="M 606.2356 -116.6667 L 586.99 -116.6667"></path><path stroke="#000000" stroke-width="2px" d="M 586.99 -116.6667 L 577.3672 -100"></path><path stroke="#000000" stroke-width="2px" d="M 577.3672 -100 L 586.99 -83.3333"></path><path stroke="#000000" stroke-width="2px" d="M 586.99 -83.3333 L 606.2356 -83.3333"></path><path stroke="#000000" stroke-width="2px" d="M 606.2356 -83.3333 L 596.6128 -66.6667"></path><path stroke="#000000" stroke-width="2px" d="M 596.6128 -66.6667 L 606.2356 -50"></path><path stroke="#000000" stroke-width="2px" d="M 606.2356 -50 L 586.99 -50"></path><path stroke="#000000" stroke-width="2px" d="M 586.99 -50 L 577.3672 -33.3333"></path><path stroke="#000000" stroke-width="2px" d="M 577.3672 -33.3333 L 567.7444 -50"></path><path stroke="#000000" stroke-width="2px" d="M 567.7444 -50 L 548.4988 -50"></path><path stroke="#000000" stroke-width="2px" d="M 548.4988 -50 L 538.8761 -33.3333"></path><path stroke="#000000" stroke-width="2px" d="M 538.8761 -33.3333 L 548.4988 -16.6667"></path><path stroke="#000000" stroke-width="2px" d="M 548.4988 -16.6667 L 529.2533 -16.6667"></path><path stroke="#000000" stroke-width="2px" d="M 529.2533 -16.6667 L 519.6305 0"></path><path stroke="#000000" stroke-width="2px" d="M 519.6305 0 L 529.2533 16.6667"></path><path stroke="#000000" stroke-width="2px" d="M 529.2533 16.6667 L 548.4988 16.6667"></path><path stroke="#000000" stroke-width="2px" d="M 548.4988 16.6667 L 538.8761 33.3333"></path><path stroke="#000000" stroke-width="2px" d="M 538.8761 33.3333 L 548.4988 50"></path><path stroke="#000000" stroke-width="2px" d="M 548.4988 50 L 567.7444 50"></path><path stroke="#000000" stroke-width="2px" d="M 567.7444 50 L 577.3672 33.3333"></path><path stroke="#000000" stroke-width="2px" d="M 577.3672 33.3333 L 586.99 50"></path><path stroke="#000000" stroke-width="2px" d="M 586.99 50 L 606.2356 50"></path><path stroke="#000000" stroke-width="2px" d="M 606.2356 50 L 596.6128 66.6667"></path><path stroke="#000000" stroke-width="2px" d="M 596.6128 66.6667 L 606.2356 83.3333"></path><path stroke="#000000" stroke-width="2px" d="M 606.2356 83.3333 L 586.99 83.3333"></path><path stroke="#000000" stroke-width="2px" d="M 586.99 83.3333 L 577.3672 100"></path><path stroke="#000000" stroke-width="2px" d="M 577.3672 100 L 586.99 116.6667"></path><path stroke="#000000" stroke-width="2px" d="M 586.99 116.6667 L 606.2356 116.6667"></path><path stroke="#000000" stroke-width="2px" d="M 606.2356 116.6667 L 596.6128 133.3333"></path><path stroke="#000000" stroke-width="2px" d="M 596.6128 133.3333 L 606.2356 150"></path><path stroke="#000000" stroke-width="2px" d="M 606.2356 150 L 625.4811 150"></path><path stroke="#000000" stroke-width="2px" d="M 625.4811 150 L 635.1039 133.3333"></path><path stroke="#000000" stroke-width="2px" d="M 635.1039 133.3333 L 644.7267 150"></path><path stroke="#000000" stroke-width="2px" d="M 644.7267 150 L 663.9723 150"></path><path stroke="#000000" stroke-width="2px" d="M 663.9723 150 L 673.5951 133.3333"></path><path stroke="#000000" stroke-width="2px" d="M 673.5951 133.3333 L 663.9723 116.6667"></path><path stroke="#000000" stroke-width="2px" d="M 663.9723 116.6667 L 683.2179 116.6667"></path><path stroke="#000000" stroke-width="2px" d="M 683.2179 116.6667 L 692.8406 100"></path><path stroke="#000000" stroke-width="2px" d="M 692.8406 100 L 702.4634 116.6667"></path><path stroke="#000000" stroke-width="2px" d="M 702.4634 116.6667 L 721.709 116.6667"></path><path stroke="#000000" stroke-width="2px" d="M 721.709 116.6667 L 712.0862 133.3333"></path><path stroke="#000000" stroke-width="2px" d="M 712.0862 133.3333 L 721.709 150"></path><path stroke="#000000" stroke-width="2px" d="M 721.709 150 L 740.9546 150"></path><path stroke="#000000" stroke-width="2px" d="M 740.9546 150 L 750.5774 133.3333"></path><path stroke="#000000" stroke-width="2px" d="M 750.5774 133.3333 L 760.2002 150"></path><path stroke="#000000" stroke-width="2px" d="M 760.2002 150 L 779.4457 150"></path><path stroke="#000000" stroke-width="2px" d="M 779.4457 150 L 769.8229 166.6667"></path><path stroke="#000000" stroke-width="2px" d="M 769.8229 166.6667 L 779.4457 183.3333"></path><path stroke="#000000" stroke-width="2px" d="M 779.4457 183.3333 L 760.2002 183.3333"></path><path stroke="#000000" stroke-width="2px" d="M 760.2002 183.3333 L 750.5774 200"></path><path stroke="#000000" stroke-width="2px" d="M 750.5774 200 L 760.2002 216.6667"></path><path stroke="#000000" stroke-width="2px" d="M 760.2002 216.6667 L 779.4457 216.6667"></path><path stroke="#000000" stroke-width="2px" d="M 779.4457 216.6667 L 769.8229 233.3333"></path><path stroke="#000000" stroke-width="2px" d="M 769.8229 233.3333 L 779.4457 250"></path><path stroke="#000000" stroke-width="2px" d="M 779.4457 250 L 760.2002 250"></path><path stroke="#000000" stroke-width="2px" d="M 760.2002 250 L 750.5774 266.6667"></path><path stroke="#000000" stroke-width="2px" d="M 750.5774 266.6667 L 740.9546 250"></path><path stroke="#000000" stroke-width="2px" d="M 740.9546 250 L 721.709 250"></path><path stroke="#000000" stroke-width="2px" d="M 721.709 250 L 712.0862 266.6667"></path><path stroke="#000000" stroke-width="2px" d="M 712.0862 266.6667 L 721.709 283.3333"></path><path stroke="#000000" stroke-width="2px" d="M 721.709 283.3333 L 702.4634 283.3333"></path><path stroke="#000000" stroke-width="2px" d="M 702.4634 283.3333 L 692.8406 300"></path><path stroke="#000000" stroke-width="2px" d="M 692.8406 300 L 702.4634 316.6667"></path><path stroke="#000000" stroke-width="2px" d="M 702.4634 316.6667 L 721.709 316.6667"></path><path stroke="#000000" stroke-width="2px" d="M 721.709 316.6667 L 712.0862 333.3333"></path><path stroke="#000000" stroke-width="2px" d="M 712.0862 333.3333 L 721.709 350"></path><path stroke="#000000" stroke-width="2px" d="M 721.709 350 L 740.9546 350"></path><path stroke="#000000" stroke-width="2px" d="M 740.9546 350 L 750.5774 333.3333"></path><path stroke="#000000" stroke-width="2px" d="M 750.5774 333.3333 L 760.2002 350"></path><path stroke="#000000" stroke-width="2px" d="M 760.2002 350 L 779.4457 350"></path><path stroke="#000000" stroke-width="2px" d="M 779.4457 350 L 769.8229 366.6667"></path><path stroke="#000000" stroke-width="2px" d="M 769.8229 366.6667 L 779.4457 383.3333"></path><path stroke="#000000" stroke-width="2px" d="M 779.4457 383.3333 L 760.2002 383.3333"></path><path stroke="#000000" stroke-width="2px" d="M 760.2002 383.3333 L 750.5774 400"></path><path stroke="#000000" stroke-width="2px" d="M 750.5774 400 L 760.2002 416.6667"></path><path stroke="#000000" stroke-width="2px" d="M 760.2002 416.6667 L 779.4457 416.6667"></path><path stroke="#000000" stroke-width="2px" d="M 779.4457 416.6667 L 769.8229 433.3333"></path><path stroke="#000000" stroke-width="2px" d="M 769.8229 433.3333 L 779.4457 450"></path><path stroke="#000000" stroke-width="2px" d="M 779.4457 450 L 760.2002 450"></path><path stroke="#000000" stroke-width="2px" d="M 760.2002 450 L 750.5774 466.6667"></path><path stroke="#000000" stroke-width="2px" d="M 750.5774 466.6667 L 740.9546 450"></path><path stroke="#000000" stroke-width="2px" d="M 740.9546 450 L 721.709 450"></path><path stroke="#000000" stroke-width="2px" d="M 721.709 450 L 712.0862 466.6667"></path><path stroke="#000000" stroke-width="2px" d="M 712.0862 466.6667 L 721.709 483.3333"></path><path stroke="#000000" stroke-width="2px" d="M 721.709 483.3333 L 702.4634 483.3333"></path><path stroke="#000000" stroke-width="2px" d="M 702.4634 483.3333 L 692.8406 500"></path><path stroke="#000000" stroke-width="2px" d="M 692.8406 500 L 683.2179 483.3333"></path><path stroke="#000000" stroke-width="2px" d="M 683.2179 483.3333 L 663.9723 483.3333"></path><path stroke="#000000" stroke-width="2px" d="M 663.9723 483.3333 L 673.5951 466.6667"></path><path stroke="#000000" stroke-width="2px" d="M 673.5951 466.6667 L 663.9723 450"></path><path stroke="#000000" stroke-width="2px" d="M 663.9723 450 L 644.7267 450"></path><path stroke="#000000" stroke-width="2px" d="M 644.7267 450 L 635.1039 466.6667"></path><path stroke="#000000" stroke-width="2px" d="M 635.1039 466.6667 L 625.4811 450"></path><path stroke="#000000" stroke-width="2px" d="M 625.4811 450 L 606.2356 450"></path><path stroke="#000000" stroke-width="2px" d="M 606.2356 450 L 596.6128 466.6667"></path><path stroke="#000000" stroke-width="2px" d="M 596.6128 466.6667 L 606.2356 483.3333"></path><path stroke="#000000" stroke-width="2px" d="M 606.2356 483.3333 L 586.99 483.3333"></path><path stroke="#000000" stroke-width="2px" d="M 586.99 483.3333 L 577.3672 500"></path><path stroke="#000000" stroke-width="2px" d="M 577.3672 500 L 586.99 516.6667"></path><path stroke="#000000" stroke-width="2px" d="M 586.99 516.6667 L 606.2356 516.6667"></path><path stroke="#000000" stroke-width="2px" d="M 606.2356 516.6667 L 596.6128 533.3333"></path><path stroke="#000000" stroke-width="2px" d="M 596.6128 533.3333 L 606.2356 550"></path><path stroke="#000000" stroke-width="2px" d="M 606.2356 550 L 586.99 550"></path><path stroke="#000000" stroke-width="2px" d="M 586.99 550 L 577.3672 566.6667"></path><path stroke="#000000" stroke-width="2px" d="M 577.3672 566.6667 L 567.7444 550"></path><path stroke="#000000" stroke-width="2px" d="M 567.7444 550 L 548.4988 550"></path><path stroke="#000000" stroke-width="2px" d="M 548.4988 550 L 538.8761 566.6667"></path><path stroke="#000000" stroke-width="2px" d="M 538.8761 566.6667 L 548.4988 583.3333"></path><path stroke="#000000" stroke-width="2px" d="M 548.4988 583.3333 L 529.2533 583.3333"></path><path stroke="#000000" stroke-width="2px" d="M 529.2533 583.3333 L 519.6305 600"></path><path stroke="#000000" stroke-width="2px" d="M 519.6305 600 L 510.0077 583.3333"></path><path stroke="#000000" stroke-width="2px" d="M 510.0077 583.3333 L 490.7621 583.3333"></path><path stroke="#000000" stroke-width="2px" d="M 490.7621 583.3333 L 500.3849 566.6667"></path><path stroke="#000000" stroke-width="2px" d="M 500.3849 566.6667 L 490.7621 550"></path><path stroke="#000000" stroke-width="2px" d="M 490.7621 550 L 471.5166 550"></path><path stroke="#000000" stroke-width="2px" d="M 471.5166 550 L 461.8938 566.6667"></path><path stroke="#000000" stroke-width="2px" d="M 461.8938 566.6667 L 452.271 550"></path><path stroke="#000000" stroke-width="2px" d="M 452.271 550 L 433.0254 550"></path><path stroke="#000000" stroke-width="2px" d="M 433.0254 550 L 442.6482 533.3333"></path><path stroke="#000000" stroke-width="2px" d="M 442.6482 533.3333 L 433.0254 516.6667"></path><path stroke="#000000" stroke-width="2px" d="M 433.0254 516.6667 L 452.271 516.6667"></path><path stroke="#000000" stroke-width="2px" d="M 452.271 516.6667 L 461.8938 500"></path><path stroke="#000000" stroke-width="2px" d="M 461.8938 500 L 452.271 483.3333"></path><path stroke="#000000" stroke-width="2px" d="M 452.271 483.3333 L 433.0254 483.3333"></path><path stroke="#000000" stroke-width="2px" d="M 433.0254 483.3333 L 442.6482 466.6667"></path><path stroke="#000000" stroke-width="2px" d="M 442.6482 466.6667 L 433.0254 450"></path><path stroke="#000000" stroke-width="2px" d="M 433.0254 450 L 413.7798 450"></path><path stroke="#000000" stroke-width="2px" d="M 413.7798 450 L 404.157 466.6667"></path><path stroke="#000000" stroke-width="2px" d="M 404.157 466.6667 L 394.5343 450"></path><path stroke="#000000" stroke-width="2px" d="M 394.5343 450 L 375.2887 450"></path><path stroke="#000000" stroke-width="2px" d="M 375.2887 450 L 365.6659 466.6667"></path><path stroke="#000000" stroke-width="2px" d="M 365.6659 466.6667 L 375.2887 483.3333"></path><path stroke="#000000" stroke-width="2px" d="M 375.2887 483.3333 L 356.0431 483.3333"></path><path stroke="#000000" stroke-width="2px" d="M 356.0431 483.3333 L 346.4203 500"></path><path stroke="#000000" stroke-width="2px" d="M 346.4203 500 L 336.7975 483.3333"></path><path stroke="#000000" stroke-width="2px" d="M 336.7975 483.3333 L 317.552 483.3333"></path><path stroke="#000000" stroke-width="2px" d="M 317.552 483.3333 L 327.1747 466.6667"></path><path stroke="#000000" stroke-width="2px" d="M 327.1747 466.6667 L 317.552 450"></path><path stroke="#000000" stroke-width="2px" d="M 317.552 450 L 298.3064 450"></path><path stroke="#000000" stroke-width="2px" d="M 298.3064 450 L 288.6836 466.6667"></path><path stroke="#000000" stroke-width="2px" d="M 288.6836 466.6667 L 279.0608 450"></path><path stroke="#000000" stroke-width="2px" d="M 279.0608 450 L 259.8152 450"></path><path stroke="#000000" stroke-width="2px" d="M 259.8152 450 L 250.1925 466.6667"></path><path stroke="#000000" stroke-width="2px" d="M 250.1925 466.6667 L 259.8152 483.3333"></path><path stroke="#000000" stroke-width="2px" d="M 259.8152 483.3333 L 240.5697 483.3333"></path><path stroke="#000000" stroke-width="2px" d="M 240.5697 483.3333 L 230.9469 500"></path><path stroke="#000000" stroke-width="2px" d="M 230.9469 500 L 240.5697 516.6667"></path><path stroke="#000000" stroke-width="2px" d="M 240.5697 516.6667 L 259.8152 516.6667"></path><path stroke="#000000" stroke-width="2px" d="M 259.8152 516.6667 L 250.1925 533.3333"></path><path stroke="#000000" stroke-width="2px" d="M 250.1925 533.3333 L 259.8152 550"></path><path stroke="#000000" stroke-width="2px" d="M 259.8152 550 L 240.5697 550"></path><path stroke="#000000" stroke-width="2px" d="M 240.5697 550 L 230.9469 566.6667"></path><path stroke="#000000" stroke-width="2px" d="M 230.9469 566.6667 L 221.3241 550"></path><path stroke="#000000" stroke-width="2px" d="M 221.3241 550 L 202.0785 550"></path><path stroke="#000000" stroke-width="2px" d="M 202.0785 550 L 192.4557 566.6667"></path><path stroke="#000000" stroke-width="2px" d="M 192.4557 566.6667 L 202.0785 583.3333"></path><path stroke="#000000" stroke-width="2px" d="M 202.0785 583.3333 L 182.8329 583.3333"></path><path stroke="#000000" stroke-width="2px" d="M 182.8329 583.3333 L 173.2102 600"></path><path stroke="#000000" stroke-width="2px" d="M 173.2102 600 L 182.8329 616.6667"></path><path stroke="#000000" stroke-width="2px" d="M 182.8329 616.6667 L 202.0785 616.6667"></path><path stroke="#000000" stroke-width="2px" d="M 202.0785 616.6667 L 192.4557 633.3333"></path><path stroke="#000000" stroke-width="2px" d="M 192.4557 633.3333 L 202.0785 650"></path><path stroke="#000000" stroke-width="2px" d="M 202.0785 650 L 221.3241 650"></path><path stroke="#000000" stroke-width="2px" d="M 221.3241 650 L 230.9469 633.3333"></path><path stroke="#000000" stroke-width="2px" d="M 230.9469 633.3333 L 240.5697 650"></path><path stroke="#000000" stroke-width="2px" d="M 240.5697 650 L 259.8152 650"></path><path stroke="#000000" stroke-width="2px" d="M 259.8152 650 L 250.1925 666.6667"></path><path stroke="#000000" stroke-width="2px" d="M 250.1925 666.6667 L 259.8152 683.3333"></path><path stroke="#000000" stroke-width="2px" d="M 259.8152 683.3333 L 240.5697 683.3333"></path><path stroke="#000000" stroke-width="2px" d="M 240.5697 683.3333 L 230.9469 700"></path><path stroke="#000000" stroke-width="2px" d="M 230.9469 700 L 240.5697 716.6667"></path><path stroke="#000000" stroke-width="2px" d="M 240.5697 716.6667 L 259.8152 716.6667"></path><path stroke="#000000" stroke-width="2px" d="M 259.8152 716.6667 L 250.1925 733.3333"></path><path stroke="#000000" stroke-width="2px" d="M 250.1925 733.3333 L 259.8152 750"></path><path stroke="#000000" stroke-width="2px" d="M 259.8152 750 L 240.5697 750"></path><path stroke="#000000" stroke-width="2px" d="M 240.5697 750 L 230.9469 766.6667"></path><path stroke="#000000" stroke-width="2px" d="M 230.9469 766.6667 L 221.3241 750"></path><path stroke="#000000" stroke-width="2px" d="M 221.3241 750 L 202.0785 750"></path><path stroke="#000000" stroke-width="2px" d="M 202.0785 750 L 192.4557 766.6667"></path><path stroke="#000000" stroke-width="2px" d="M 192.4557 766.6667 L 202.0785 783.3333"></path><path stroke="#000000" stroke-width="2px" d="M 202.0785 783.3333 L 182.8329 783.3333"></path><path stroke="#000000" stroke-width="2px" d="M 182.8329 783.3333 L 173.2102 800"></path><path stroke="#000000" stroke-width="2px" d="M 173.2102 800 L 163.5874 783.3333"></path><path stroke="#000000" stroke-width="2px" d="M 163.5874 783.3333 L 144.3418 783.3333"></path><path stroke="#000000" stroke-width="2px" d="M 144.3418 783.3333 L 153.9646 766.6667"></path><path stroke="#000000" stroke-width="2px" d="M 153.9646 766.6667 L 144.3418 750"></path><path stroke="#000000" stroke-width="2px" d="M 144.3418 750 L 125.0962 750"></path><path stroke="#000000" stroke-width="2px" d="M 125.0962 750 L 115.4734 766.6667"></path><path stroke="#000000" stroke-width="2px" d="M 115.4734 766.6667 L 105.8507 750"></path><path stroke="#000000" stroke-width="2px" d="M 105.8507 750 L 86.6051 750"></path><path stroke="#000000" stroke-width="2px" d="M 86.6051 750 L 76.9823 766.6667"></path><path stroke="#000000" stroke-width="2px" d="M 76.9823 766.6667 L 86.6051 783.3333"></path><path stroke="#000000" stroke-width="2px" d="M 86.6051 783.3333 L 67.3595 783.3333"></path><path stroke="#000000" stroke-width="2px" d="M 67.3595 783.3333 L 57.7367 800"></path><path stroke="#000000" stroke-width="2px" d="M 57.7367 800 L 67.3595 816.6667"></path><path stroke="#000000" stroke-width="2px" d="M 67.3595 816.6667 L 86.6051 816.6667"></path><path stroke="#000000" stroke-width="2px" d="M 86.6051 816.6667 L 76.9823 833.3333"></path><path stroke="#000000" stroke-width="2px" d="M 76.9823 833.3333 L 86.6051 850"></path><path stroke="#000000" stroke-width="2px" d="M 86.6051 850 L 67.3595 850"></path><path stroke="#000000" stroke-width="2px" d="M 67.3595 850 L 57.7367 866.6667"></path><path stroke="#000000" stroke-width="2px" d="M 57.7367 866.6667 L 48.1139 850"></path><path stroke="#000000" stroke-width="2px" d="M 48.1139 850 L 28.8684 850"></path><path stroke="#000000" stroke-width="2px" d="M 28.8684 850 L 19.2456 866.6667"></path><path stroke="#000000" stroke-width="2px" d="M 19.2456 866.6667 L 28.8684 883.3333"></path><path stroke="#000000" stroke-width="2px" d="M 28.8684 883.3333 L 9.6228 883.3333"></path><path stroke="#000000" stroke-width="2px" d="M 9.6228 883.3333 L 0 900"></path><path stroke="#000000" stroke-width="2px" d="M 0 900 L -9.6228 883.3333"></path><path stroke="#000000" stroke-width="2px" d="M -9.6228 883.3333 L -28.8684 883.3333"></path><path stroke="#000000" stroke-width="2px" d="M -28.8684 883.3333 L -19.2456 866.6667"></path><path stroke="#000000" stroke-width="2px" d="M -19.2456 866.6667 L -28.8684 850"></path><path stroke="#000000" stroke-width="2px" d="M -28.8684 850 L -48.1139 850"></path><path stroke="#000000" stroke-width="2px" d="M -48.1139 850 L -57.7367 866.6667"></path><path stroke="#000000" stroke-width="2px" d="M -57.7367 866.6667 L -67.3595 850"></path><path stroke="#000000" stroke-width="2px" d="M -67.3595 850 L -86.6051 850"></path><path stroke="#000000" stroke-width="2px" d="M -86.6051 850 L -76.9823 833.3333"></path><path stroke="#000000" stroke-width="2px" d="M -76.9823 833.3333 L -86.6051 816.6667"></path><path stroke="#000000" stroke-width="2px" d="M -86.6051 816.6667 L -67.3595 816.6667"></path><path stroke="#000000" stroke-width="2px" d="M -67.3595 816.6667 L -57.7367 800"></path><path stroke="#000000" stroke-width="2px" d="M -57.7367 800 L -67.3595 783.3333"></path><path stroke="#000000" stroke-width="2px" d="M -67.3595 783.3333 L -86.6051 783.3333"></path><path stroke="#000000" stroke-width="2px" d="M -86.6051 783.3333 L -76.9823 766.6667"></path><path stroke="#000000" stroke-width="2px" d="M -76.9823 766.6667 L -86.6051 750"></path><path stroke="#000000" stroke-width="2px" d="M -86.6051 750 L -105.8507 750"></path><path stroke="#000000" stroke-width="2px" d="M -105.8507 750 L -115.4734 766.6667"></path><path stroke="#000000" stroke-width="2px" d="M -115.4734 766.6667 L -125.0962 750"></path><path stroke="#000000" stroke-width="2px" d="M -125.0962 750 L -144.3418 750"></path><path stroke="#000000" stroke-width="2px" d="M -144.3418 750 L -153.9646 766.6667"></path><path stroke="#000000" stroke-width="2px" d="M -153.9646 766.6667 L -144.3418 783.3333"></path><path stroke="#000000" stroke-width="2px" d="M -144.3418 783.3333 L -163.5874 783.3333"></path><path stroke="#000000" stroke-width="2px" d="M -163.5874 783.3333 L -173.2102 800"></path><path stroke="#000000" stroke-width="2px" d="M -173.2102 800 L -182.8329 783.3333"></path><path stroke="#000000" stroke-width="2px" d="M -182.8329 783.3333 L -202.0785 783.3333"></path><path stroke="#000000" stroke-width="2px" d="M -202.0785 783.3333 L -192.4557 766.6667"></path><path stroke="#000000" stroke-width="2px" d="M -192.4557 766.6667 L -202.0785 750"></path><path stroke="#000000" stroke-width="2px" d="M -202.0785 750 L -221.3241 750"></path><path stroke="#000000" stroke-width="2px" d="M -221.3241 750 L -230.9469 766.6667"></path><path stroke="#000000" stroke-width="2px" d="M -230.9469 766.6667 L -240.5697 750"></path><path stroke="#000000" stroke-width="2px" d="M -240.5697 750 L -259.8152 750"></path><path stroke="#000000" stroke-width="2px" d="M -259.8152 750 L -250.1925 733.3333"></path><path stroke="#000000" stroke-width="2px" d="M -250.1925 733.3333 L -259.8152 716.6667"></path><path stroke="#000000" stroke-width="2px" d="M -259.8152 716.6667 L -240.5697 716.6667"></path><path stroke="#000000" stroke-width="2px" d="M -240.5697 716.6667 L -230.9469 700"></path><path stroke="#000000" stroke-width="2px" d="M -230.9469 700 L -240.5697 683.3333"></path><path stroke="#000000" stroke-width="2px" d="M -240.5697 683.3333 L -259.8152 683.3333"></path><path stroke="#000000" stroke-width="2px" d="M -259.8152 683.3333 L -250.1925 666.6667"></path><path stroke="#000000" stroke-width="2px" d="M -250.1925 666.6667 L -259.8152 650"></path><path stroke="#000000" stroke-width="2px" d="M -259.8152 650 L -240.5697 650"></path><path stroke="#000000" stroke-width="2px" d="M -240.5697 650 L -230.9469 633.3333"></path><path stroke="#000000" stroke-width="2px" d="M -230.9469 633.3333 L -221.3241 650"></path><path stroke="#000000" stroke-width="2px" d="M -221.3241 650 L -202.0785 650"></path><path stroke="#000000" stroke-width="2px" d="M -202.0785 650 L -192.4557 633.3333"></path><path stroke="#000000" stroke-width="2px" d="M -192.4557 633.3333 L -202.0785 616.6667"></path><path stroke="#000000" stroke-width="2px" d="M -202.0785 616.6667 L -182.8329 616.6667"></path><path stroke="#000000" stroke-width="2px" d="M -182.8329 616.6667 L -173.2102 600"></path><path stroke="#000000" stroke-width="2px" d="M -173.2102 600 L -182.8329 583.3333"></path><path stroke="#000000" stroke-width="2px" d="M -182.8329 583.3333 L -202.0785 583.3333"></path><path stroke="#000000" stroke-width="2px" d="M -202.0785 583.3333 L -192.4557 566.6667"></path><path stroke="#000000" stroke-width="2px" d="M -192.4557 566.6667 L -202.0785 550"></path><path stroke="#000000" stroke-width="2px" d="M -202.0785 550 L -221.3241 550"></path><path stroke="#000000" stroke-width="2px" d="M -221.3241 550 L -230.9469 566.6667"></path><path stroke="#000000" stroke-width="2px" d="M -230.9469 566.6667 L -240.5697 550"></path><path stroke="#000000" stroke-width="2px" d="M -240.5697 550 L -259.8152 550"></path><path stroke="#000000" stroke-width="2px" d="M -259.8152 550 L -250.1925 533.3333"></path><path stroke="#000000" stroke-width="2px" d="M -250.1925 533.3333 L -259.8152 516.6667"></path><path stroke="#000000" stroke-width="2px" d="M -259.8152 516.6667 L -240.5697 516.6667"></path><path stroke="#000000" stroke-width="2px" d="M -240.5697 516.6667 L -230.9469 500"></path><path stroke="#000000" stroke-width="2px" d="M -230.9469 500 L -240.5697 483.3333"></path><path stroke="#000000" stroke-width="2px" d="M -240.5697 483.3333 L -259.8152 483.3333"></path><path stroke="#000000" stroke-width="2px" d="M -259.8152 483.3333 L -250.1925 466.6667"></path><path stroke="#000000" stroke-width="2px" d="M -250.1925 466.6667 L -259.8152 450"></path><path stroke="#000000" stroke-width="2px" d="M -259.8152 450 L -279.0608 450"></path><path stroke="#000000" stroke-width="2px" d="M -279.0608 450 L -288.6836 466.6667"></path><path stroke="#000000" stroke-width="2px" d="M -288.6836 466.6667 L -298.3064 450"></path><path stroke="#000000" stroke-width="2px" d="M -298.3064 450 L -317.552 450"></path><path stroke="#000000" stroke-width="2px" d="M -317.552 450 L -327.1747 466.6667"></path><path stroke="#000000" stroke-width="2px" d="M -327.1747 466.6667 L -317.552 483.3333"></path><path stroke="#000000" stroke-width="2px" d="M -317.552 483.3333 L -336.7975 483.3333"></path><path stroke="#000000" stroke-width="2px" d="M -336.7975 483.3333 L -346.4203 500"></path><path stroke="#000000" stroke-width="2px" d="M -346.4203 500 L -356.0431 483.3333"></path><path stroke="#000000" stroke-width="2px" d="M -356.0431 483.3333 L -375.2887 483.3333"></path><path stroke="#000000" stroke-width="2px" d="M -375.2887 483.3333 L -365.6659 466.6667"></path><path stroke="#000000" stroke-width="2px" d="M -365.6659 466.6667 L -375.2887 450"></path><path stroke="#000000" stroke-width="2px" d="M -375.2887 450 L -394.5343 450"></path><path stroke="#000000" stroke-width="2px" d="M -394.5343 450 L -404.157 466.6667"></path><path stroke="#000000" stroke-width="2px" d="M -404.157 466.6667 L -413.7798 450"></path><path stroke="#000000" stroke-width="2px" d="M -413.7798 450 L -433.0254 450"></path><path stroke="#000000" stroke-width="2px" d="M -433.0254 450 L -442.6482 466.6667"></path><path stroke="#000000" stroke-width="2px" d="M -442.6482 466.6667 L -433.0254 483.3333"></path><path stroke="#000000" stroke-width="2px" d="M -433.0254 483.3333 L -452.271 483.3333"></path><path stroke="#000000" stroke-width="2px" d="M -452.271 483.3333 L -461.8938 500"></path><path stroke="#000000" stroke-width="2px" d="M -461.8938 500 L -452.271 516.6667"></path><path stroke="#000000" stroke-width="2px" d="M -452.271 516.6667 L -433.0254 516.6667"></path><path stroke="#000000" stroke-width="2px" d="M -433.0254 516.6667 L -442.6482 533.3333"></path><path stroke="#000000" stroke-width="2px" d="M -442.6482 533.3333 L -433.0254 550"></path><path stroke="#000000" stroke-width="2px" d="M -433.0254 550 L -452.271 550"></path><path stroke="#000000" stroke-width="2px" d="M -452.271 550 L -461.8938 566.6667"></path><path stroke="#000000" stroke-width="2px" d="M -461.8938 566.6667 L -471.5166 550"></path><path stroke="#000000" stroke-width="2px" d="M -471.5166 550 L -490.7621 550"></path><path stroke="#000000" stroke-width="2px" d="M -490.7621 550 L -500.3849 566.6667"></path><path stroke="#000000" stroke-width="2px" d="M -500.3849 566.6667 L -490.7621 583.3333"></path><path stroke="#000000" stroke-width="2px" d="M -490.7621 583.3333 L -510.0077 583.3333"></path><path stroke="#000000" stroke-width="2px" d="M -510.0077 583.3333 L -519.6305 600"></path><path stroke="#000000" stroke-width="2px" d="M -519.6305 600 L -529.2533 583.3333"></path><path stroke="#000000" stroke-width="2px" d="M -529.2533 583.3333 L -548.4988 583.3333"></path><path stroke="#000000" stroke-width="2px" d="M -548.4988 583.3333 L -538.8761 566.6667"></path><path stroke="#000000" stroke-width="2px" d="M -538.8761 566.6667 L -548.4988 550"></path><path stroke="#000000" stroke-width="2px" d="M -548.4988 550 L -567.7444 550"></path><path stroke="#000000" stroke-width="2px" d="M -567.7444 550 L -577.3672 566.6667"></path><path stroke="#000000" stroke-width="2px" d="M -577.3672 566.6667 L -586.99 550"></path><path stroke="#000000" stroke-width="2px" d="M -586.99 550 L -606.2356 550"></path><path stroke="#000000" stroke-width="2px" d="M -606.2356 550 L -596.6128 533.3333"></path><path stroke="#000000" stroke-width="2px" d="M -596.6128 533.3333 L -606.2356 516.6667"></path><path stroke="#000000" stroke-width="2px" d="M -606.2356 516.6667 L -586.99 516.6667"></path><path stroke="#000000" stroke-width="2px" d="M -586.99 516.6667 L -577.3672 500"></path><path stroke="#000000" stroke-width="2px" d="M -577.3672 500 L -586.99 483.3333"></path><path stroke="#000000" stroke-width="2px" d="M -586.99 483.3333 L -606.2356 483.3333"></path><path stroke="#000000" stroke-width="2px" d="M -606.2356 483.3333 L -596.6128 466.6667"></path><path stroke="#000000" stroke-width="2px" d="M -596.6128 466.6667 L -606.2356 450"></path><path stroke="#000000" stroke-width="2px" d="M -606.2356 450 L -625.4811 450"></path><path stroke="#000000" stroke-width="2px" d="M -625.4811 450 L -635.1039 466.6667"></path><path stroke="#000000" stroke-width="2px" d="M -635.1039 466.6667 L -644.7267 450"></path><path stroke="#000000" stroke-width="2px" d="M -644.7267 450 L -663.9723 450"></path><path stroke="#000000" stroke-width="2px" d="M -663.9723 450 L -673.5951 466.6667"></path><path stroke="#000000" stroke-width="2px" d="M -673.5951 466.6667 L -663.9723 483.3333"></path><path stroke="#000000" stroke-width="2px" d="M -663.9723 483.3333 L -683.2179 483.3333"></path><path stroke="#000000" stroke-width="2px" d="M -683.2179 483.3333 L -692.8406 500"></path><path stroke="#000000" stroke-width="2px" d="M -692.8406 500 L -702.4634 483.3333"></path><path stroke="#000000" stroke-width="2px" d="M -702.4634 483.3333 L -721.709 483.3333"></path><path stroke="#000000" stroke-width="2px" d="M -721.709 483.3333 L -712.0862 466.6667"></path><path stroke="#000000" stroke-width="2px" d="M -712.0862 466.6667 L -721.709 450"></path><path stroke="#000000" stroke-width="2px" d="M -721.709 450 L -740.9546 450"></path><path stroke="#000000" stroke-width="2px" d="M -740.9546 450 L -750.5774 466.6667"></path><path stroke="#000000" stroke-width="2px" d="M -750.5774 466.6667 L -760.2002 450"></path><path stroke="#000000" stroke-width="2px" d="M -760.2002 450 L -779.4457 450"></path><path stroke="#000000" stroke-width="2px" d="M -779.4457 450 L -769.8229 433.3333"></path><path stroke="#000000" stroke-width="2px" d="M -769.8229 433.3333 L -779.4457 416.6667"></path><path stroke="#000000" stroke-width="2px" d="M -779.4457 416.6667 L -760.2002 416.6667"></path><path stroke="#000000" stroke-width="2px" d="M -760.2002 416.6667 L -750.5774 400"></path><path stroke="#000000" stroke-width="2px" d="M -750.5774 400 L -760.2002 383.3333"></path><path stroke="#000000" stroke-width="2px" d="M -760.2002 383.3333 L -779.4457 383.3333"></path><path stroke="#000000" stroke-width="2px" d="M -779.4457 383.3333 L -769.8229 366.6667"></path><path stroke="#000000" stroke-width="2px" d="M -769.8229 366.6667 L -779.4457 350"></path><path stroke="#000000" stroke-width="2px" d="M -779.4457 350 L -760.2002 350"></path><path stroke="#000000" stroke-width="2px" d="M -760.2002 350 L -750.5774 333.3333"></path><path stroke="#000000" stroke-width="2px" d="M -750.5774 333.3333 L -740.9546 350"></path><path stroke="#000000" stroke-width="2px" d="M -740.9546 350 L -721.709 350"></path><path stroke="#000000" stroke-width="2px" d="M -721.709 350 L -712.0862 333.3333"></path><path stroke="#000000" stroke-width="2px" d="M -712.0862 333.3333 L -721.709 316.6667"></path><path stroke="#000000" stroke-width="2px" d="M -721.709 316.6667 L -702.4634 316.6667"></path><path stroke="#000000" stroke-width="2px" d="M -702.4634 316.6667 L -692.8406 300"></path><path stroke="#000000" stroke-width="2px" d="M -692.8406 300 L -702.4634 283.3333"></path><path stroke="#000000" stroke-width="2px" d="M -702.4634 283.3333 L -721.709 283.3333"></path><path stroke="#000000" stroke-width="2px" d="M -721.709 283.3333 L -712.0862 266.6667"></path><path stroke="#000000" stroke-width="2px" d="M -712.0862 266.6667 L -721.709 250"></path><path stroke="#000000" stroke-width="2px" d="M -721.709 250 L -740.9546 250"></path><path stroke="#000000" stroke-width="2px" d="M -740.9546 250 L -750.5774 266.6667"></path><path stroke="#000000" stroke-width="2px" d="M -750.5774 266.6667 L -760.2002 250"></path><path stroke="#000000" stroke-width="2px" d="M -760.2002 250 L -779.4457 250"></path><path stroke="#000000" stroke-width="2px" d="M -779.4457 250 L -769.8229 233.3333"></path><path stroke="#000000" stroke-width="2px" d="M -769.8229 233.3333 L -779.4457 216.6667"></path><path stroke="#000000" stroke-width="2px" d="M -779.4457 216.6667 L -760.2002 216.6667"></path><path stroke="#000000" stroke-width="2px" d="M -760.2002 216.6667 L -750.5774 200"></path><path stroke="#000000" stroke-width="2px" d="M -750.5774 200 L -760.2002 183.3333"></path><path stroke="#000000" stroke-width="2px" d="M -760.2002 183.3333 L -779.4457 183.3333"></path><path stroke="#000000" stroke-width="2px" d="M -779.4457 183.3333 L -769.8229 166.6667"></path><path stroke="#000000" stroke-width="2px" d="M -769.8229 166.6667 L -779.4457 150"></path><path stroke="#000000" stroke-width="2px" d="M -779.4457 150 L -760.2002 150"></path><path stroke="#000000" stroke-width="2px" d="M -760.2002 150 L -750.5774 133.3333"></path><path stroke="#000000" stroke-width="2px" d="M -750.5774 133.3333 L -740.9546 150"></path><path stroke="#000000" stroke-width="2px" d="M -740.9546 150 L -721.709 150"></path><path stroke="#000000" stroke-width="2px" d="M -721.709 150 L -712.0862 133.3333"></path><path stroke="#000000" stroke-width="2px" d="M -712.0862 133.3333 L -721.709 116.6667"></path><path stroke="#000000" stroke-width="2px" d="M -721.709 116.6667 L -702.4634 116.6667"></path><path stroke="#000000" stroke-width="2px" d="M -702.4634 116.6667 L -692.8406 100"></path><path stroke="#000000" stroke-width="2px" d="M -692.8406 100 L -683.2179 116.6667"></path><path stroke="#000000" stroke-width="2px" d="M -683.2179 116.6667 L -663.9723 116.6667"></path><path stroke="#000000" stroke-width="2px" d="M -663.9723 116.6667 L -673.5951 133.3333"></path><path stroke="#000000" stroke-width="2px" d="M -673.5951 133.3333 L -663.9723 150"></path><path stroke="#000000" stroke-width="2px" d="M -663.9723 150 L -644.7267 150"></path><path stroke="#000000" stroke-width="2px" d="M -644.7267 150 L -635.1039 133.3333"></path><path stroke="#000000" stroke-width="2px" d="M -635.1039 133.3333 L -625.4811 150"></path><path stroke="#000000" stroke-width="2px" d="M -625.4811 150 L -606.2356 150"></path><path stroke="#000000" stroke-width="2px" d="M -606.2356 150 L -596.6128 133.3333"></path><path stroke="#000000" stroke-width="2px" d="M -596.6128 133.3333 L -606.2356 116.6667"></path><path stroke="#000000" stroke-width="2px" d="M -606.2356 116.6667 L -586.99 116.6667"></path><path stroke="#000000" stroke-width="2px" d="M -586.99 116.6667 L -577.3672 100"></path><path stroke="#000000" stroke-width="2px" d="M -577.3672 100 L -586.99 83.3333"></path><path stroke="#000000" stroke-width="2px" d="M -586.99 83.3333 L -606.2356 83.3333"></path><path stroke="#000000" stroke-width="2px" d="M -606.2356 83.3333 L -596.6128 66.6667"></path><path stroke="#000000" stroke-width="2px" d="M -596.6128 66.6667 L -606.2356 50"></path><path stroke="#000000" stroke-width="2px" d="M -606.2356 50 L -586.99 50"></path><path stroke="#000000" stroke-width="2px" d="M -586.99 50 L -577.3672 33.3333"></path><path stroke="#000000" stroke-width="2px" d="M -577.3672 33.3333 L -567.7444 50"></path><path stroke="#000000" stroke-width="2px" d="M -567.7444 50 L -548.4988 50"></path><path stroke="#000000" stroke-width="2px" d="M -548.4988 50 L -538.8761 33.3333"></path><path stroke="#000000" stroke-width="2px" d="M -538.8761 33.3333 L -548.4988 16.6667"></path><path stroke="#000000" stroke-width="2px" d="M -548.4988 16.6667 L -529.2533 16.6667"></path><path stroke="#000000" stroke-width="2px" d="M -529.2533 16.6667 L -519.6305 0"></path><path stroke="#000000" stroke-width="2px" d="M -519.6305 0 L -529.2533 -16.6667"></path><path stroke="#000000" stroke-width="2px" d="M -529.2533 -16.6667 L -548.4988 -16.6667"></path><path stroke="#000000" stroke-width="2px" d="M -548.4988 -16.6667 L -538.8761 -33.3333"></path><path stroke="#000000" stroke-width="2px" d="M -538.8761 -33.3333 L -548.4988 -50"></path><path stroke="#000000" stroke-width="2px" d="M -548.4988 -50 L -567.7444 -50"></path><path stroke="#000000" stroke-width="2px" d="M -567.7444 -50 L -577.3672 -33.3333"></path><path stroke="#000000" stroke-width="2px" d="M -577.3672 -33.3333 L -586.99 -50"></path><path stroke="#000000" stroke-width="2px" d="M -586.99 -50 L -606.2356 -50"></path><path stroke="#000000" stroke-width="2px" d="M -606.2356 -50 L -596.6128 -66.6667"></path><path stroke="#000000" stroke-width="2px" d="M -596.6128 -66.6667 L -606.2356 -83.3333"></path><path stroke="#000000" stroke-width="2px" d="M -606.2356 -83.3333 L -586.99 -83.3333"></path><path stroke="#000000" stroke-width="2px" d="M -586.99 -83.3333 L -577.3672 -100"></path><path stroke="#000000" stroke-width="2px" d="M -577.3672 -100 L -586.99 -116.6667"></path><path stroke="#000000" stroke-width="2px" d="M -586.99 -116.6667 L -606.2356 -116.6667"></path><path stroke="#000000" stroke-width="2px" d="M -606.2356 -116.6667 L -596.6128 -133.3333"></path><path stroke="#000000" stroke-width="2px" d="M -596.6128 -133.3333 L -606.2356 -150"></path><path stroke="#000000" stroke-width="2px" d="M -606.2356 -150 L -625.4811 -150"></path><path stroke="#000000" stroke-width="2px" d="M -625.4811 -150 L -635.1039 -133.3333"></path><path stroke="#000000" stroke-width="2px" d="M -635.1039 -133.3333 L -644.7267 -150"></path><path stroke="#000000" stroke-width="2px" d="M -644.7267 -150 L -663.9723 -150"></path><path stroke="#000000" stroke-width="2px" d="M -663.9723 -150 L -673.5951 -133.3333"></path><path stroke="#000000" stroke-width="2px" d="M -673.5951 -133.3333 L -663.9723 -116.6667"></path><path stroke="#000000" stroke-width="2px" d="M -663.9723 -116.6667 L -683.2179 -116.6667"></path><path stroke="#000000" stroke-width="2px" d="M -683.2179 -116.6667 L -692.8406 -100"></path><path stroke="#000000" stroke-width="2px" d="M -692.8406 -100 L -702.4634 -116.6667"></path><path stroke="#000000" stroke-width="2px" d="M -702.4634 -116.6667 L -721.709 -116.6667"></path><path stroke="#000000" stroke-width="2px" d="M -721.709 -116.6667 L -712.0862 -133.3333"></path><path stroke="#000000" stroke-width="2px" d="M -712.0862 -133.3333 L -721.709 -150"></path><path stroke="#000000" stroke-width="2px" d="M -721.709 -150 L -740.9546 -150"></path><path stroke="#000000" stroke-width="2px" d="M -740.9546 -150 L -750.5774 -133.3333"></path><path stroke="#000000" stroke-width="2px" d="M -750.5774 -133.3333 L -760.2002 -150"></path><path stroke="#000000" stroke-width="2px" d="M -760.2002 -150 L -779.4457 -150"></path><path stroke="#000000" stroke-width="2px" d="M -779.4457 -150 L -769.8229 -166.6667"></path><path stroke="#000000" stroke-width="2px" d="M -769.8229 -166.6667 L -779.4457 -183.3333"></path><path stroke="#000000" stroke-width="2px" d="M -779.4457 -183.3333 L -760.2002 -183.3333"></path><path stroke="#000000" stroke-width="2px" d="M -760.2002 -183.3333 L -750.5774 -200"></path><path stroke="#000000" stroke-width="2px" d="M -750.5774 -200 L -760.2002 -216.6667"></path><path stroke="#000000" stroke-width="2px" d="M -760.2002 -216.6667 L -779.4457 -216.6667"></path><path stroke="#000000" stroke-width="2px" d="M -779.4457 -216.6667 L -769.8229 -233.3333"></path><path stroke="#000000" stroke-width="2px" d="M -769.8229 -233.3333 L -779.4457 -250"></path><path stroke="#000000" stroke-width="2px" d="M -779.4457 -250 L -760.2002 -250"></path><path stroke="#000000" stroke-width="2px" d="M -760.2002 -250 L -750.5774 -266.6667"></path><path stroke="#000000" stroke-width="2px" d="M -750.5774 -266.6667 L -740.9546 -250"></path><path stroke="#000000" stroke-width="2px" d="M -740.9546 -250 L -721.709 -250"></path><path stroke="#000000" stroke-width="2px" d="M -721.709 -250 L -712.0862 -266.6667"></path><path stroke="#000000" stroke-width="2px" d="M -712.0862 -266.6667 L -721.709 -283.3333"></path><path stroke="#000000" stroke-width="2px" d="M -721.709 -283.3333 L -702.4634 -283.3333"></path><path stroke="#000000" stroke-width="2px" d="M -702.4634 -283.3333 L -692.8406 -300"></path><path stroke="#000000" stroke-width="2px" d="M -692.8406 -300 L -702.4634 -316.6667"></path><path stroke="#000000" stroke-width="2px" d="M -702.4634 -316.6667 L -721.709 -316.6667"></path><path stroke="#000000" stroke-width="2px" d="M -721.709 -316.6667 L -712.0862 -333.3333"></path><path stroke="#000000" stroke-width="2px" d="M -712.0862 -333.3333 L -721.709 -350"></path><path stroke="#000000" stroke-width="2px" d="M -721.709 -350 L -740.9546 -350"></path><path stroke="#000000" stroke-width="2px" d="M -740.9546 -350 L -750.5774 -333.3333"></path><path stroke="#000000" stroke-width="2px" d="M -750.5774 -333.3333 L -760.2002 -350"></path><path stroke="#000000" stroke-width="2px" d="M -760.2002 -350 L -779.4457 -350"></path><path stroke="#000000" stroke-width="2px" d="M -779.4457 -350 L -769.8229 -366.6667"></path><path stroke="#000000" stroke-width="2px" d="M -769.8229 -366.6667 L -779.4457 -383.3333"></path><path stroke="#000000" stroke-width="2px" d="M -779.4457 -383.3333 L -760.2002 -383.3333"></path><path stroke="#000000" stroke-width="2px" d="M -760.2002 -383.3333 L -750.5774 -400"></path><path stroke="#000000" stroke-width="2px" d="M -750.5774 -400 L -760.2002 -416.6667"></path><path stroke="#000000" stroke-width="2px" d="M -760.2002 -416.6667 L -779.4457 -416.6667"></path><path stroke="#000000" stroke-width="2px" d="M -779.4457 -416.6667 L -769.8229 -433.3333"></path><path stroke="#000000" stroke-width="2px" d="M -769.8229 -433.3333 L -779.4457 -450"></path></g></svg>