<svg xmlns="http://www.w3.org/2000/svg" xmlns:xlink="http://wwww3.org/1999/xlink" width="100%" height="100%" stroke-linecap="round" stroke-linejoin="round" viewBox="-1000 -1000 2000 2000" xml:space="preserve"><g><path fill="#000" stroke-width="0" d="M 0 -900 L 28.8675 -883.3334 L 28.8675 -850.0001 L 0.0001 -833.3334 L -28.8674 -850 L -28.8675 -883.3333 Z"/><path fill="#000" stroke-width="0" d="M 57.7351 -866.6667 L 86.6026 -850.0001 L 86.6026 -816.6668 L 57.735200000000006 -800.0001 L 28.867700000000003 -816.6667 L 28.867600000000003 -850 Z"/><path fill="#000" stroke-width="0" d="M 57.7351 -799.9999 L 86.6026 -783.3333 L 86.6026 -750 L 57.735200000000006 -733.3333 L 28.867700000000003 -749.9999 L 28.867600000000003 -783.3332 Z"/><path fill="#000" stroke-width="0" d="M 0 -766.6665 L 28.8675 -749.9999 L 28.8675 -716.6666 L 0.0001 -699.9999 L -28.8674 -716.6665 L -28.8675 -749.9998 Z"/><path fill="#000" stroke-width="0" d="M -57.7351 -799.9999 L -28.867600000000003 -783.3333 L -28.867600000000003 -750 L -57.735 -733.3333 L -86.6025 -749.9999 L -86.6026 -783.3332 Z"/><path fill="#000" stroke-width="0" d="M -57.7351 -866.6667 L -28.867600000000003 -850.0001 L -28.867600000000003 -816.6668 L -57.735 -800.0001 L -86.6025 -816.6667 L -86.6026 -850 Z"/><path fill="#000" stroke-width="0" d="M 173.2051 -800 L 202.0726 -783.3334 L 202.0726 -750.0001 L 173.2052 -733.3334 L 144.33769999999998 -750 L 144.33759999999998 -783.3333 Z"/><path fill="#000" stroke-width="0" d="M 230.9402 -766.6667 L 259.8077 -750.0001 L 259.8077 -716.6668 L 230.9403 -700.0001 L 202.0728 -716.6667 L 202.0727 -750 Z"/><path fill="#000" stroke-width="0" d="M 230.9402 -699.9999 L 259.8077 -683.3333 L 259.8077 -650 L 230.9403 -633.3333 L 202.0728 -649.9999 L 202.0727 -683.3332 Z"/><path fill="#000" stroke-width="0" d="M 173.2051 -666.6665 L 202.0726 -649.9999 L 202.0726 -616.6666 L 173.2052 -599.9999 L 144.33769999999998 -616.6665 L 144.33759999999998 -649.9998 Z"/><path fill="#000" stroke-width="0" d="M 115.46999999999998 -699.9999 L 144.33749999999998 -683.3333 L 144.33749999999998 -650 L 115.47009999999999 -633.3333 L 86.60259999999998 -649.9999 L 86.60249999999999 -683.3332 Z"/><path fill="#000" stroke-width="0" d="M 115.46999999999998 -766.6667 L 144.33749999999998 -750.0001 L 144.33749999999998 -716.6668 L 115.47009999999999 -700.0001 L 86.60259999999998 -716.6667 L 86.60249999999999 -750 Z"/><path fill="#000" stroke-width="0" d="M 173.2051 -600 L 202.0726 -583.3334 L 202.0726 -550.0001 L 173.2052 -533.3334 L 144.33769999999998 -550 L 144.33759999999998 -583.3333 Z"/><path fill="#000" stroke-width="0" d="M 230.9402 -566.6667 L 259.8077 -550.0001 L 259.8077 -516.6668 L 230.9403 -500.0001 L 202.0728 -516.6667 L 202.0727 -550 Z"/><path fill="#000" stroke-width="0" d="M 230.9402 -499.9999 L 259.8077 -483.3333 L 259.8077 -450 L 230.9403 -433.3333 L 202.0728 -449.9999 L 202.0727 -483.33320000000003 Z"/><path fill="#000" stroke-width="0" d="M 173.2051 -466.66650000000004 L 202.0726 -449.9999 L 202.0726 -416.6666 L 173.2052 -399.9999 L 144.33769999999998 -416.66650000000004 L 144.33759999999998 -449.99980000000005 Z"/><path fill="#000" stroke-width="0" d="M 115.46999999999998 -499.9999 L 144.33749999999998 -483.3333 L 144.33749999999998 -450 L 115.47009999999999 -433.3333 L 86.60259999999998 -449.9999 L 86.60249999999999 -483.33320000000003 Z"/><path fill="#000" stroke-width="0" d="M 115.46999999999998 -566.6667 L 144.33749999999998 -550.0001 L 144.33749999999998 -516.6668 L 115.47009999999999 -500.0001 L 86.60259999999998 -516.6667 L 86.60249999999999 -550 Z"/><path fill="#000" stroke-width="0" d="M 0 -500 L 28.8675 -483.3334 L 28.8675 -450.0001 L 0.0001 -433.3334 L -28.8674 -450 L -28.8675 -483.3333 Z"/><path fill="#000" stroke-width="0" d="M 57.7351 -466.6667 L 86.6026 -450.0001 L 86.6026 -416.66679999999997 L 57.735200000000006 -400.0001 L 28.867700000000003 -416.6667 L 28.867600000000003 -450 Z"/><path fill="#000" stroke-width="0" d="M 57.7351 -399.9999 L 86.6026 -383.3333 L 86.6026 -350 L 57.735200000000006 -333.3333 L 28.867700000000003 -349.9999 L 28.867600000000003 -383.33320000000003 Z"/><path fill="#000" stroke-width="0" d="M 0 -366.66650000000004 L 28.8675 -349.9999 L 28.8675 -316.6666 L 0.0001 -299.9999 L -28.8674 -316.66650000000004 L -28.8675 -349.99980000000005 Z"/><path fill="#000" stroke-width="0" d="M -57.7351 -399.9999 L -28.867600000000003 -383.3333 L -28.867600000000003 -350 L -57.735 -333.3333 L -86.6025 -349.9999 L -86.6026 -383.33320000000003 Z"/><path fill="#000" stroke-width="0" d="M -57.7351 -466.6667 L -28.867600000000003 -450.0001 L -28.867600000000003 -416.66679999999997 L -57.735 -400.0001 L -86.6025 -416.6667 L -86.6026 -450 Z"/><path fill="#000" stroke-width="0" d="M -173.2051 -600 L -144.33759999999998 -583.3334 L -144.33759999999998 -550.0001 L -173.20499999999998 -533.3334 L -202.0725 -550 L -202.0726 -583.3333 Z"/><path fill="#000" stroke-width="0" d="M -115.46999999999998 -566.6667 L -86.60249999999999 -550.0001 L -86.60249999999999 -516.6668 L -115.46989999999998 -500.0001 L -144.33739999999997 -516.6667 L -144.33749999999998 -550 Z"/><path fill="#000" stroke-width="0" d="M -115.46999999999998 -499.9999 L -86.60249999999999 -483.3333 L -86.60249999999999 -450 L -115.46989999999998 -433.3333 L -144.33739999999997 -449.9999 L -144.33749999999998 -483.33320000000003 Z"/><path fill="#000" stroke-width="0" d="M -173.2051 -466.66650000000004 L -144.33759999999998 -449.9999 L -144.33759999999998 -416.6666 L -173.20499999999998 -399.9999 L -202.0725 -416.66650000000004 L -202.0726 -449.99980000000005 Z"/><path fill="#000" stroke-width="0" d="M -230.9402 -499.9999 L -202.0727 -483.3333 L -202.0727 -450 L -230.9401 -433.3333 L -259.8076 -449.9999 L -259.8077 -483.33320000000003 Z"/><path fill="#000" stroke-width="0" d="M -230.9402 -566.6667 L -202.0727 -550.0001 L -202.0727 -516.6668 L -230.9401 -500.0001 L -259.8076 -516.6667 L -259.8077 -550 Z"/><path fill="#000" stroke-width="0" d="M -173.2051 -800 L -144.33759999999998 -783.3334 L -144.33759999999998 -750.0001 L -173.20499999999998 -733.3334 L -202.0725 -750 L -202.0726 -783.3333 Z"/><path fill="#000" stroke-width="0" d="M -115.46999999999998 -766.6667 L -86.60249999999999 -750.0001 L -86.60249999999999 -716.6668 L -115.46989999999998 -700.0001 L -144.33739999999997 -716.6667 L -144.33749999999998 -750 Z"/><path fill="#000" stroke-width="0" d="M -115.46999999999998 -699.9999 L -86.60249999999999 -683.3333 L -86.60249999999999 -650 L -115.46989999999998 -633.3333 L -144.33739999999997 -649.9999 L -144.33749999999998 -683.3332 Z"/><path fill="#000" stroke-width="0" d="M -173.2051 -666.6665 L -144.33759999999998 -649.9999 L -144.33759999999998 -616.6666 L -173.20499999999998 -599.9999 L -202.0725 -616.6665 L -202.0726 -649.9998 Z"/><path fill="#000" stroke-width="0" d="M -230.9402 -699.9999 L -202.0727 -683.3333 L -202.0727 -650 L -230.9401 -633.3333 L -259.8076 -649.9999 L -259.8077 -683.3332 Z"/><path fill="#000" stroke-width="0" d="M -230.9402 -766.6667 L -202.0727 -750.0001 L -202.0727 -716.6668 L -230.9401 -700.0001 L -259.8076 -716.6667 L -259.8077 -750 Z"/><path fill="#000" stroke-width="0" d="M 519.6152 -600 L 548.4826999999999 -583.3334 L 548.4826999999999 -550.0001 L 519.6152999999999 -533.3334 L 490.7478 -550 L 490.74769999999995 -583.3333 Z"/><path fill="#000" stroke-width="0" d="M 577.3503 -566.6667 L 606.2177999999999 -550.0001 L 606.2177999999999 -516.6668 L 577.3503999999999 -500.0001 L 548.4829 -516.6667 L 548.4828 -550 Z"/><path fill="#000" stroke-width="0" d="M 577.3503 -499.9999 L 606.2177999999999 -483.3333 L 606.2177999999999 -450 L 577.3503999999999 -433.3333 L 548.4829 -449.9999 L 548.4828 -483.33320000000003 Z"/><path fill="#000" stroke-width="0" d="M 519.6152 -466.66650000000004 L 548.4826999999999 -449.9999 L 548.4826999999999 -416.6666 L 519.6152999999999 -399.9999 L 490.7478 -416.66650000000004 L 490.74769999999995 -449.99980000000005 Z"/><path fill="#000" stroke-width="0" d="M 461.88009999999997 -499.9999 L 490.7476 -483.3333 L 490.7476 -450 L 461.88019999999995 -433.3333 L 433.0127 -449.9999 L 433.01259999999996 -483.33320000000003 Z"/><path fill="#000" stroke-width="0" d="M 461.88009999999997 -566.6667 L 490.7476 -550.0001 L 490.7476 -516.6668 L 461.88019999999995 -500.0001 L 433.0127 -516.6667 L 433.01259999999996 -550 Z"/><path fill="#000" stroke-width="0" d="M 692.8203 -500 L 721.6877999999999 -483.3334 L 721.6877999999999 -450.0001 L 692.8204 -433.3334 L 663.9529 -450 L 663.9528 -483.3333 Z"/><path fill="#000" stroke-width="0" d="M 750.5554 -466.6667 L 779.4228999999999 -450.0001 L 779.4228999999999 -416.66679999999997 L 750.5554999999999 -400.0001 L 721.688 -416.6667 L 721.6879 -450 Z"/><path fill="#000" stroke-width="0" d="M 750.5554 -399.9999 L 779.4228999999999 -383.3333 L 779.4228999999999 -350 L 750.5554999999999 -333.3333 L 721.688 -349.9999 L 721.6879 -383.33320000000003 Z"/><path fill="#000" stroke-width="0" d="M 692.8203 -366.66650000000004 L 721.6877999999999 -349.9999 L 721.6877999999999 -316.6666 L 692.8204 -299.9999 L 663.9529 -316.66650000000004 L 663.9528 -349.99980000000005 Z"/><path fill="#000" stroke-width="0" d="M 635.0852 -399.9999 L 663.9526999999999 -383.3333 L 663.9526999999999 -350 L 635.0853 -333.3333 L 606.2178 -349.9999 L 606.2177 -383.33320000000003 Z"/><path fill="#000" stroke-width="0" d="M 635.0852 -466.6667 L 663.9526999999999 -450.0001 L 663.9526999999999 -416.66679999999997 L 635.0853 -400.0001 L 606.2178 -416.6667 L 606.2177 -450 Z"/><path fill="#000" stroke-width="0" d="M 692.8203 -300 L 721.6877999999999 -283.3334 L 721.6877999999999 -250.0001 L 692.8204 -233.33339999999998 L 663.9529 -250 L 663.9528 -283.3333 Z"/><path fill="#000" stroke-width="0" d="M 750.5554 -266.6667 L 779.4228999999999 -250.00009999999997 L 779.4228999999999 -216.6668 L 750.5554999999999 -200.00009999999997 L 721.688 -216.6667 L 721.6879 -249.99999999999997 Z"/><path fill="#000" stroke-width="0" d="M 750.5554 -199.99990000000003 L 779.4228999999999 -183.3333 L 779.4228999999999 -150.00000000000003 L 750.5554999999999 -133.3333 L 721.688 -149.99990000000003 L 721.6879 -183.3332 Z"/><path fill="#000" stroke-width="0" d="M 692.8203 -166.6665 L 721.6877999999999 -149.9999 L 721.6877999999999 -116.6666 L 692.8204 -99.9999 L 663.9529 -116.66650000000001 L 663.9528 -149.9998 Z"/><path fill="#000" stroke-width="0" d="M 635.0852 -199.99990000000003 L 663.9526999999999 -183.3333 L 663.9526999999999 -150.00000000000003 L 635.0853 -133.3333 L 606.2178 -149.99990000000003 L 606.2177 -183.3332 Z"/><path fill="#000" stroke-width="0" d="M 635.0852 -266.6667 L 663.9526999999999 -250.00009999999997 L 663.9526999999999 -216.6668 L 635.0853 -200.00009999999997 L 606.2178 -216.6667 L 606.2177 -249.99999999999997 Z"/><path fill="#000" stroke-width="0" d="M 519.6152 -200 L 548.4826999999999 -183.33339999999998 L 548.4826999999999 -150.0001 L 519.6152999999999 -133.33339999999998 L 490.7478 -150 L 490.74769999999995 -183.33329999999998 Z"/><path fill="#000" stroke-width="0" d="M 577.3503 -166.6667 L 606.2177999999999 -150.00009999999997 L 606.2177999999999 -116.66679999999998 L 577.3503999999999 -100.00009999999997 L 548.4829 -116.66669999999999 L 548.4828 -149.99999999999997 Z"/><path fill="#000" stroke-width="0" d="M 577.3503 -99.9999 L 606.2177999999999 -83.33330000000001 L 606.2177999999999 -50 L 577.3503999999999 -33.3333 L 548.4829 -49.999900000000004 L 548.4828 -83.3332 Z"/><path fill="#000" stroke-width="0" d="M 519.6152 -66.66650000000001 L 548.4826999999999 -49.999900000000004 L 548.4826999999999 -16.666600000000006 L 519.6152999999999 0.00009999999999621423 L 490.7478 -16.666500000000006 L 490.74769999999995 -49.99980000000001 Z"/><path fill="#000" stroke-width="0" d="M 461.88009999999997 -99.9999 L 490.7476 -83.33330000000001 L 490.7476 -50 L 461.88019999999995 -33.3333 L 433.0127 -49.999900000000004 L 433.01259999999996 -83.3332 Z"/><path fill="#000" stroke-width="0" d="M 461.88009999999997 -166.6667 L 490.7476 -150.00009999999997 L 490.7476 -116.66679999999998 L 461.88019999999995 -100.00009999999997 L 433.0127 -116.66669999999999 L 433.01259999999996 -149.99999999999997 Z"/><path fill="#000" stroke-width="0" d="M 346.41009999999994 -300 L 375.27759999999995 -283.3334 L 375.27759999999995 -250.0001 L 346.4101999999999 -233.33339999999998 L 317.54269999999997 -250 L 317.54259999999994 -283.3333 Z"/><path fill="#000" stroke-width="0" d="M 404.14519999999993 -266.6667 L 433.01269999999994 -250.00009999999997 L 433.01269999999994 -216.6668 L 404.1452999999999 -200.00009999999997 L 375.27779999999996 -216.6667 L 375.2776999999999 -249.99999999999997 Z"/><path fill="#000" stroke-width="0" d="M 404.14519999999993 -199.99990000000003 L 433.01269999999994 -183.3333 L 433.01269999999994 -150.00000000000003 L 404.1452999999999 -133.3333 L 375.27779999999996 -149.99990000000003 L 375.2776999999999 -183.3332 Z"/><path fill="#000" stroke-width="0" d="M 346.41009999999994 -166.6665 L 375.27759999999995 -149.9999 L 375.27759999999995 -116.6666 L 346.4101999999999 -99.9999 L 317.54269999999997 -116.66650000000001 L 317.54259999999994 -149.9998 Z"/><path fill="#000" stroke-width="0" d="M 288.67499999999995 -199.99990000000003 L 317.54249999999996 -183.3333 L 317.54249999999996 -150.00000000000003 L 288.67509999999993 -133.3333 L 259.8076 -149.99990000000003 L 259.80749999999995 -183.3332 Z"/><path fill="#000" stroke-width="0" d="M 288.67499999999995 -266.6667 L 317.54249999999996 -250.00009999999997 L 317.54249999999996 -216.6668 L 288.67509999999993 -200.00009999999997 L 259.8076 -216.6667 L 259.80749999999995 -249.99999999999997 Z"/><path fill="#000" stroke-width="0" d="M 346.41009999999994 -500 L 375.27759999999995 -483.3334 L 375.27759999999995 -450.0001 L 346.4101999999999 -433.3334 L 317.54269999999997 -450 L 317.54259999999994 -483.3333 Z"/><path fill="#000" stroke-width="0" d="M 404.14519999999993 -466.6667 L 433.01269999999994 -450.0001 L 433.01269999999994 -416.66679999999997 L 404.1452999999999 -400.0001 L 375.27779999999996 -416.6667 L 375.2776999999999 -450 Z"/><path fill="#000" stroke-width="0" d="M 404.14519999999993 -399.9999 L 433.01269999999994 -383.3333 L 433.01269999999994 -350 L 404.1452999999999 -333.3333 L 375.27779999999996 -349.9999 L 375.2776999999999 -383.33320000000003 Z"/><path fill="#000" stroke-width="0" d="M 346.41009999999994 -366.66650000000004 L 375.27759999999995 -349.9999 L 375.27759999999995 -316.6666 L 346.4101999999999 -299.9999 L 317.54269999999997 -316.66650000000004 L 317.54259999999994 -349.99980000000005 Z"/><path fill="#000" stroke-width="0" d="M 288.67499999999995 -399.9999 L 317.54249999999996 -383.3333 L 317.54249999999996 -350 L 288.67509999999993 -333.3333 L 259.8076 -349.9999 L 259.80749999999995 -383.33320000000003 Z"/><path fill="#000" stroke-width="0" d="M 288.67499999999995 -466.6667 L 317.54249999999996 -450.0001 L 317.54249999999996 -416.66679999999997 L 288.67509999999993 -400.0001 L 259.8076 -416.6667 L 259.80749999999995 -450 Z"/><path fill="#000" stroke-width="0" d="M 519.6152 -7.105427357601002e-15 L 548.4826999999999 16.666599999999995 L 548.4826999999999 49.9999 L 519.6152999999999 66.66659999999999 L 490.7478 49.99999999999999 L 490.74769999999995 16.666699999999995 Z"/><path fill="#000" stroke-width="0" d="M 577.3503 33.3333 L 606.2177999999999 49.999900000000004 L 606.2177999999999 83.3332 L 577.3503999999999 99.9999 L 548.4829 83.33330000000001 L 548.4828 50 Z"/><path fill="#000" stroke-width="0" d="M 577.3503 100.00009999999997 L 606.2177999999999 116.66669999999999 L 606.2177999999999 149.99999999999997 L 577.3503999999999 166.6667 L 548.4829 150.00009999999997 L 548.4828 116.66679999999998 Z"/><path fill="#000" stroke-width="0" d="M 519.6152 133.3335 L 548.4826999999999 150.0001 L 548.4826999999999 183.33339999999998 L 519.6152999999999 200.0001 L 490.7478 183.3335 L 490.74769999999995 150.0002 Z"/><path fill="#000" stroke-width="0" d="M 461.88009999999997 100.00009999999997 L 490.7476 116.66669999999999 L 490.7476 149.99999999999997 L 461.88019999999995 166.6667 L 433.0127 150.00009999999997 L 433.01259999999996 116.66679999999998 Z"/><path fill="#000" stroke-width="0" d="M 461.88009999999997 33.3333 L 490.7476 49.999900000000004 L 490.7476 83.3332 L 461.88019999999995 99.9999 L 433.0127 83.33330000000001 L 433.01259999999996 50 Z"/><path fill="#000" stroke-width="0" d="M 692.8203 100 L 721.6877999999999 116.66660000000002 L 721.6877999999999 149.9999 L 692.8204 166.66660000000002 L 663.9529 150 L 663.9528 116.6667 Z"/><path fill="#000" stroke-width="0" d="M 750.5554 133.3333 L 779.4228999999999 149.99990000000003 L 779.4228999999999 183.3332 L 750.5554999999999 199.99990000000003 L 721.688 183.3333 L 721.6879 150.00000000000003 Z"/><path fill="#000" stroke-width="0" d="M 750.5554 200.00009999999997 L 779.4228999999999 216.6667 L 779.4228999999999 249.99999999999997 L 750.5554999999999 266.6667 L 721.688 250.00009999999997 L 721.6879 216.6668 Z"/><path fill="#000" stroke-width="0" d="M 692.8203 233.33349999999996 L 721.6877999999999 250.00009999999997 L 721.6877999999999 283.3334 L 692.8204 300.0001 L 663.9529 283.33349999999996 L 663.9528 250.00019999999998 Z"/><path fill="#000" stroke-width="0" d="M 635.0852 200.00009999999997 L 663.9526999999999 216.6667 L 663.9526999999999 249.99999999999997 L 635.0853 266.6667 L 606.2178 250.00009999999997 L 606.2177 216.6668 Z"/><path fill="#000" stroke-width="0" d="M 635.0852 133.3333 L 663.9526999999999 149.99990000000003 L 663.9526999999999 183.3332 L 635.0853 199.99990000000003 L 606.2178 183.3333 L 606.2177 150.00000000000003 Z"/><path fill="#000" stroke-width="0" d="M 692.8203 300 L 721.6877999999999 316.6666 L 721.6877999999999 349.9999 L 692.8204 366.6666 L 663.9529 350 L 663.9528 316.6667 Z"/><path fill="#000" stroke-width="0" d="M 750.5554 333.3333 L 779.4228999999999 349.9999 L 779.4228999999999 383.33320000000003 L 750.5554999999999 399.9999 L 721.688 383.3333 L 721.6879 350 Z"/><path fill="#000" stroke-width="0" d="M 750.5554 400.0001 L 779.4228999999999 416.6667 L 779.4228999999999 450 L 750.5554999999999 466.6667 L 721.688 450.0001 L 721.6879 416.66679999999997 Z"/><path fill="#000" stroke-width="0" d="M 692.8203 433.33349999999996 L 721.6877999999999 450.0001 L 721.6877999999999 483.3334 L 692.8204 500.0001 L 663.9529 483.33349999999996 L 663.9528 450.00019999999995 Z"/><path fill="#000" stroke-width="0" d="M 635.0852 400.0001 L 663.9526999999999 416.6667 L 663.9526999999999 450 L 635.0853 466.6667 L 606.2178 450.0001 L 606.2177 416.66679999999997 Z"/><path fill="#000" stroke-width="0" d="M 635.0852 333.3333 L 663.9526999999999 349.9999 L 663.9526999999999 383.33320000000003 L 635.0853 399.9999 L 606.2178 383.3333 L 606.2177 350 Z"/><path fill="#000" stroke-width="0" d="M 519.6152 400 L 548.4826999999999 416.6666 L 548.4826999999999 449.9999 L 519.6152999999999 466.6666 L 490.7478 450 L 490.74769999999995 416.6667 Z"/><path fill="#000" stroke-width="0" d="M 577.3503 433.3333 L 606.2177999999999 449.9999 L 606.2177999999999 483.33320000000003 L 577.3503999999999 499.9999 L 548.4829 483.3333 L 548.4828 450 Z"/><path fill="#000" stroke-width="0" d="M 577.3503 500.0001 L 606.2177999999999 516.6667 L 606.2177999999999 550 L 577.3503999999999 566.6667 L 548.4829 550.0001 L 548.4828 516.6668 Z"/><path fill="#000" stroke-width="0" d="M 519.6152 533.3335 L 548.4826999999999 550.0001 L 548.4826999999999 583.3334 L 519.6152999999999 600.0001 L 490.7478 583.3335 L 490.74769999999995 550.0002 Z"/><path fill="#000" stroke-width="0" d="M 461.88009999999997 500.0001 L 490.7476 516.6667 L 490.7476 550 L 461.88019999999995 566.6667 L 433.0127 550.0001 L 433.01259999999996 516.6668 Z"/><path fill="#000" stroke-width="0" d="M 461.88009999999997 433.3333 L 490.7476 449.9999 L 490.7476 483.33320000000003 L 461.88019999999995 499.9999 L 433.0127 483.3333 L 433.01259999999996 450 Z"/><path fill="#000" stroke-width="0" d="M 346.41009999999994 300 L 375.27759999999995 316.6666 L 375.27759999999995 349.9999 L 346.4101999999999 366.6666 L 317.54269999999997 350 L 317.54259999999994 316.6667 Z"/><path fill="#000" stroke-width="0" d="M 404.14519999999993 333.3333 L 433.01269999999994 349.9999 L 433.01269999999994 383.33320000000003 L 404.1452999999999 399.9999 L 375.27779999999996 383.3333 L 375.2776999999999 350 Z"/><path fill="#000" stroke-width="0" d="M 404.14519999999993 400.0001 L 433.01269999999994 416.6667 L 433.01269999999994 450 L 404.1452999999999 466.6667 L 375.27779999999996 450.0001 L 375.2776999999999 416.66679999999997 Z"/><path fill="#000" stroke-width="0" d="M 346.41009999999994 433.33349999999996 L 375.27759999999995 450.0001 L 375.27759999999995 483.3334 L 346.4101999999999 500.0001 L 317.54269999999997 483.33349999999996 L 317.54259999999994 450.00019999999995 Z"/><path fill="#000" stroke-width="0" d="M 288.67499999999995 400.0001 L 317.54249999999996 416.6667 L 317.54249999999996 450 L 288.67509999999993 466.6667 L 259.8076 450.0001 L 259.80749999999995 416.66679999999997 Z"/><path fill="#000" stroke-width="0" d="M 288.67499999999995 333.3333 L 317.54249999999996 349.9999 L 317.54249999999996 383.33320000000003 L 288.67509999999993 399.9999 L 259.8076 383.3333 L 259.80749999999995 350 Z"/><path fill="#000" stroke-width="0" d="M 346.41009999999994 100 L 375.27759999999995 116.66660000000002 L 375.27759999999995 149.9999 L 346.4101999999999 166.66660000000002 L 317.54269999999997 150 L 317.54259999999994 116.6667 Z"/><path fill="#000" stroke-width="0" d="M 404.14519999999993 133.3333 L 433.01269999999994 149.99990000000003 L 433.01269999999994 183.3332 L 404.1452999999999 199.99990000000003 L 375.27779999999996 183.3333 L 375.2776999999999 150.00000000000003 Z"/><path fill="#000" stroke-width="0" d="M 404.14519999999993 200.00009999999997 L 433.01269999999994 216.6667 L 433.01269999999994 249.99999999999997 L 404.1452999999999 266.6667 L 375.27779999999996 250.00009999999997 L 375.2776999999999 216.6668 Z"/><path fill="#000" stroke-width="0" d="M 346.41009999999994 233.33349999999996 L 375.27759999999995 250.00009999999997 L 375.27759999999995 283.3334 L 346.4101999999999 300.0001 L 317.54269999999997 283.33349999999996 L 317.54259999999994 250.00019999999998 Z"/><path fill="#000" stroke-width="0" d="M 288.67499999999995 200.00009999999997 L 317.54249999999996 216.6667 L 317.54249999999996 249.99999999999997 L 288.67509999999993 266.6667 L 259.8076 250.00009999999997 L 259.80749999999995 216.6668 Z"/><path fill="#000" stroke-width="0" d="M 288.67499999999995 133.3333 L 317.54249999999996 149.99990000000003 L 317.54249999999996 183.3332 L 288.67509999999993 199.99990000000003 L 259.8076 183.3333 L 259.80749999999995 150.00000000000003 Z"/><path fill="#000" stroke-width="0" d="M 0 300 L 28.8675 316.6666 L 28.8675 349.9999 L 0.0001 366.6666 L -28.8674 350 L -28.8675 316.6667 Z"/><path fill="#000" stroke-width="0" d="M 57.7351 333.3333 L 86.6026 349.9999 L 86.6026 383.33320000000003 L 57.735200000000006 399.9999 L 28.867700000000003 383.3333 L 28.867600000000003 350 Z"/><path fill="#000" stroke-width="0" d="M 57.7351 400.0001 L 86.6026 416.6667 L 86.6026 450 L 57.735200000000006 466.6667 L 28.867700000000003 450.0001 L 28.867600000000003 416.66679999999997 Z"/><path fill="#000" stroke-width="0" d="M 0 433.33349999999996 L 28.8675 450.0001 L 28.8675 483.3334 L 0.0001 500.0001 L -28.8674 483.33349999999996 L -28.8675 450.00019999999995 Z"/><path fill="#000" stroke-width="0" d="M -57.7351 400.0001 L -28.867600000000003 416.6667 L -28.867600000000003 450 L -57.735 466.6667 L -86.6025 450.0001 L -86.6026 416.66679999999997 Z"/><path fill="#000" stroke-width="0" d="M -57.7351 333.3333 L -28.867600000000003 349.9999 L -28.867600000000003 383.33320000000003 L -57.735 399.9999 L -86.6025 383.3333 L -86.6026 350 Z"/><path fill="#000" stroke-width="0" d="M 173.2051 400 L 202.0726 416.6666 L 202.0726 449.9999 L 173.2052 466.6666 L 144.33769999999998 450 L 144.33759999999998 416.6667 Z"/><path fill="#000" stroke-width="0" d="M 230.9402 433.3333 L 259.8077 449.9999 L 259.8077 483.33320000000003 L 230.9403 499.9999 L 202.0728 483.3333 L 202.0727 450 Z"/><path fill="#000" stroke-width="0" d="M 230.9402 500.0001 L 259.8077 516.6667 L 259.8077 550 L 230.9403 566.6667 L 202.0728 550.0001 L 202.0727 516.6668 Z"/><path fill="#000" stroke-width="0" d="M 173.2051 533.3335 L 202.0726 550.0001 L 202.0726 583.3334 L 173.2052 600.0001 L 144.33769999999998 583.3335 L 144.33759999999998 550.0002 Z"/><path fill="#000" stroke-width="0" d="M 115.46999999999998 500.0001 L 144.33749999999998 516.6667 L 144.33749999999998 550 L 115.47009999999999 566.6667 L 86.60259999999998 550.0001 L 86.60249999999999 516.6668 Z"/><path fill="#000" stroke-width="0" d="M 115.46999999999998 433.3333 L 144.33749999999998 449.9999 L 144.33749999999998 483.33320000000003 L 115.47009999999999 499.9999 L 86.60259999999998 483.3333 L 86.60249999999999 450 Z"/><path fill="#000" stroke-width="0" d="M 173.2051 600 L 202.0726 616.6666 L 202.0726 649.9999 L 173.2052 666.6666 L 144.33769999999998 650 L 144.33759999999998 616.6667 Z"/><path fill="#000" stroke-width="0" d="M 230.9402 633.3333 L 259.8077 649.9999 L 259.8077 683.3332 L 230.9403 699.9999 L 202.0728 683.3333 L 202.0727 650 Z"/><path fill="#000" stroke-width="0" d="M 230.9402 700.0001 L 259.8077 716.6667 L 259.8077 750 L 230.9403 766.6667 L 202.0728 750.0001 L 202.0727 716.6668 Z"/><path fill="#000" stroke-width="0" d="M 173.2051 733.3335 L 202.0726 750.0001 L 202.0726 783.3334 L 173.2052 800.0001 L 144.33769999999998 783.3335 L 144.33759999999998 750.0002 Z"/><path fill="#000" stroke-width="0" d="M 115.46999999999998 700.0001 L 144.33749999999998 716.6667 L 144.33749999999998 750 L 115.47009999999999 766.6667 L 86.60259999999998 750.0001 L 86.60249999999999 716.6668 Z"/><path fill="#000" stroke-width="0" d="M 115.46999999999998 633.3333 L 144.33749999999998 649.9999 L 144.33749999999998 683.3332 L 115.47009999999999 699.9999 L 86.60259999999998 683.3333 L 86.60249999999999 650 Z"/><path fill="#000" stroke-width="0" d="M 0 700 L 28.8675 716.6666 L 28.8675 749.9999 L 0.0001 766.6666 L -28.8674 750 L -28.8675 716.6667 Z"/><path fill="#000" stroke-width="0" d="M 57.7351 733.3333 L 86.6026 749.9999 L 86.6026 783.3332 L 57.735200000000006 799.9999 L 28.867700000000003 783.3333 L 28.867600000000003 750 Z"/><path fill="#000" stroke-width="0" d="M 57.7351 800.0001 L 86.6026 816.6667 L 86.6026 850 L 57.735200000000006 866.6667 L 28.867700000000003 850.0001 L 28.867600000000003 816.6668 Z"/><path fill="#000" stroke-width="0" d="M 0 833.3335 L 28.8675 850.0001 L 28.8675 883.3334 L 0.0001 900.0001 L -28.8674 883.3335 L -28.8675 850.0002 Z"/><path fill="#000" stroke-width="0" d="M -57.7351 800.0001 L -28.867600000000003 816.6667 L -28.867600000000003 850 L -57.735 866.6667 L -86.6025 850.0001 L -86.6026 816.6668 Z"/><path fill="#000" stroke-width="0" d="M -57.7351 733.3333 L -28.867600000000003 749.9999 L -28.867600000000003 783.3332 L -57.735 799.9999 L -86.6025 783.3333 L -86.6026 750 Z"/><path fill="#000" stroke-width="0" d="M -173.2051 600 L -144.33759999999998 616.6666 L -144.33759999999998 649.9999 L -173.20499999999998 666.6666 L -202.0725 650 L -202.0726 616.6667 Z"/><path fill="#000" stroke-width="0" d="M -115.46999999999998 633.3333 L -86.60249999999999 649.9999 L -86.60249999999999 683.3332 L -115.46989999999998 699.9999 L -144.33739999999997 683.3333 L -144.33749999999998 650 Z"/><path fill="#000" stroke-width="0" d="M -115.46999999999998 700.0001 L -86.60249999999999 716.6667 L -86.60249999999999 750 L -115.46989999999998 766.6667 L -144.33739999999997 750.0001 L -144.33749999999998 716.6668 Z"/><path fill="#000" stroke-width="0" d="M -173.2051 733.3335 L -144.33759999999998 750.0001 L -144.33759999999998 783.3334 L -173.20499999999998 800.0001 L -202.0725 783.3335 L -202.0726 750.0002 Z"/><path fill="#000" stroke-width="0" d="M -230.9402 700.0001 L -202.0727 716.6667 L -202.0727 750 L -230.9401 766.6667 L -259.8076 750.0001 L -259.8077 716.6668 Z"/><path fill="#000" stroke-width="0" d="M -230.9402 633.3333 L -202.0727 649.9999 L -202.0727 683.3332 L -230.9401 699.9999 L -259.8076 683.3333 L -259.8077 650 Z"/><path fill="#000" stroke-width="0" d="M -173.2051 400 L -144.33759999999998 416.6666 L -144.33759999999998 449.9999 L -173.20499999999998 466.6666 L -202.0725 450 L -202.0726 416.6667 Z"/><path fill="#000" stroke-width="0" d="M -115.46999999999998 433.3333 L -86.60249999999999 449.9999 L -86.60249999999999 483.33320000000003 L -115.46989999999998 499.9999 L -144.33739999999997 483.3333 L -144.33749999999998 450 Z"/><path fill="#000" stroke-width="0" d="M -115.46999999999998 500.0001 L -86.60249999999999 516.6667 L -86.60249999999999 550 L -115.46989999999998 566.6667 L -144.33739999999997 550.0001 L -144.33749999999998 516.6668 Z"/><path fill="#000" stroke-width="0" d="M -173.2051 533.3335 L -144.33759999999998 550.0001 L -144.33759999999998 583.3334 L -173.20499999999998 600.0001 L -202.0725 583.3335 L -202.0726 550.0002 Z"/><path fill="#000" stroke-width="0" d="M -230.9402 500.0001 L -202.0727 516.6667 L -202.0727 550 L -230.9401 566.6667 L -259.8076 550.0001 L -259.8077 516.6668 Z"/><path fill="#000" stroke-width="0" d="M -230.9402 433.3333 L -202.0727 449.9999 L -202.0727 483.33320000000003 L -230.9401 499.9999 L -259.8076 483.3333 L -259.8077 450 Z"/><path fill="#000" stroke-width="0" d="M -519.6152 -7.105427357601002e-15 L -490.74769999999995 16.666599999999995 L -490.74769999999995 49.9999 L -519.6151 66.66659999999999 L -548.4825999999999 49.99999999999999 L -548.4826999999999 16.666699999999995 Z"/><path fill="#000" stroke-width="0" d="M -461.88009999999997 33.3333 L -433.01259999999996 49.999900000000004 L -433.01259999999996 83.3332 L -461.88 99.9999 L -490.74749999999995 83.33330000000001 L -490.7476 50 Z"/><path fill="#000" stroke-width="0" d="M -461.88009999999997 100.00009999999997 L -433.01259999999996 116.66669999999999 L -433.01259999999996 149.99999999999997 L -461.88 166.6667 L -490.74749999999995 150.00009999999997 L -490.7476 116.66679999999998 Z"/><path fill="#000" stroke-width="0" d="M -519.6152 133.3335 L -490.74769999999995 150.0001 L -490.74769999999995 183.33339999999998 L -519.6151 200.0001 L -548.4825999999999 183.3335 L -548.4826999999999 150.0002 Z"/><path fill="#000" stroke-width="0" d="M -577.3503 100.00009999999997 L -548.4828 116.66669999999999 L -548.4828 149.99999999999997 L -577.3502 166.6667 L -606.2176999999999 150.00009999999997 L -606.2177999999999 116.66679999999998 Z"/><path fill="#000" stroke-width="0" d="M -577.3503 33.3333 L -548.4828 49.999900000000004 L -548.4828 83.3332 L -577.3502 99.9999 L -606.2176999999999 83.33330000000001 L -606.2177999999999 50 Z"/><path fill="#000" stroke-width="0" d="M -346.41009999999994 100 L -317.54259999999994 116.66660000000002 L -317.54259999999994 149.9999 L -346.40999999999997 166.66660000000002 L -375.2774999999999 150 L -375.27759999999995 116.6667 Z"/><path fill="#000" stroke-width="0" d="M -288.67499999999995 133.3333 L -259.80749999999995 149.99990000000003 L -259.80749999999995 183.3332 L -288.6749 199.99990000000003 L -317.54239999999993 183.3333 L -317.54249999999996 150.00000000000003 Z"/><path fill="#000" stroke-width="0" d="M -288.67499999999995 200.00009999999997 L -259.80749999999995 216.6667 L -259.80749999999995 249.99999999999997 L -288.6749 266.6667 L -317.54239999999993 250.00009999999997 L -317.54249999999996 216.6668 Z"/><path fill="#000" stroke-width="0" d="M -346.41009999999994 233.33349999999996 L -317.54259999999994 250.00009999999997 L -317.54259999999994 283.3334 L -346.40999999999997 300.0001 L -375.2774999999999 283.33349999999996 L -375.27759999999995 250.00019999999998 Z"/><path fill="#000" stroke-width="0" d="M -404.14519999999993 200.00009999999997 L -375.2776999999999 216.6667 L -375.2776999999999 249.99999999999997 L -404.14509999999996 266.6667 L -433.0125999999999 250.00009999999997 L -433.01269999999994 216.6668 Z"/><path fill="#000" stroke-width="0" d="M -404.14519999999993 133.3333 L -375.2776999999999 149.99990000000003 L -375.2776999999999 183.3332 L -404.14509999999996 199.99990000000003 L -433.0125999999999 183.3333 L -433.01269999999994 150.00000000000003 Z"/><path fill="#000" stroke-width="0" d="M -346.41009999999994 300 L -317.54259999999994 316.6666 L -317.54259999999994 349.9999 L -346.40999999999997 366.6666 L -375.2774999999999 350 L -375.27759999999995 316.6667 Z"/><path fill="#000" stroke-width="0" d="M -288.67499999999995 333.3333 L -259.80749999999995 349.9999 L -259.80749999999995 383.33320000000003 L -288.6749 399.9999 L -317.54239999999993 383.3333 L -317.54249999999996 350 Z"/><path fill="#000" stroke-width="0" d="M -288.67499999999995 400.0001 L -259.80749999999995 416.6667 L -259.80749999999995 450 L -288.6749 466.6667 L -317.54239999999993 450.0001 L -317.54249999999996 416.66679999999997 Z"/><path fill="#000" stroke-width="0" d="M -346.41009999999994 433.33349999999996 L -317.54259999999994 450.0001 L -317.54259999999994 483.3334 L -346.40999999999997 500.0001 L -375.2774999999999 483.33349999999996 L -375.27759999999995 450.00019999999995 Z"/><path fill="#000" stroke-width="0" d="M -404.14519999999993 400.0001 L -375.2776999999999 416.6667 L -375.2776999999999 450 L -404.14509999999996 466.6667 L -433.0125999999999 450.0001 L -433.01269999999994 416.66679999999997 Z"/><path fill="#000" stroke-width="0" d="M -404.14519999999993 333.3333 L -375.2776999999999 349.9999 L -375.2776999999999 383.33320000000003 L -404.14509999999996 399.9999 L -433.0125999999999 383.3333 L -433.01269999999994 350 Z"/><path fill="#000" stroke-width="0" d="M -519.6152 400 L -490.74769999999995 416.6666 L -490.74769999999995 449.9999 L -519.6151 466.6666 L -548.4825999999999 450 L -548.4826999999999 416.6667 Z"/><path fill="#000" stroke-width="0" d="M -461.88009999999997 433.3333 L -433.01259999999996 449.9999 L -433.01259999999996 483.33320000000003 L -461.88 499.9999 L -490.74749999999995 483.3333 L -490.7476 450 Z"/><path fill="#000" stroke-width="0" d="M -461.88009999999997 500.0001 L -433.01259999999996 516.6667 L -433.01259999999996 550 L -461.88 566.6667 L -490.74749999999995 550.0001 L -490.7476 516.6668 Z"/><path fill="#000" stroke-width="0" d="M -519.6152 533.3335 L -490.74769999999995 550.0001 L -490.74769999999995 583.3334 L -519.6151 600.0001 L -548.4825999999999 583.3335 L -548.4826999999999 550.0002 Z"/><path fill="#000" stroke-width="0" d="M -577.3503 500.0001 L -548.4828 516.6667 L -548.4828 550 L -577.3502 566.6667 L -606.2176999999999 550.0001 L -606.2177999999999 516.6668 Z"/><path fill="#000" stroke-width="0" d="M -577.3503 433.3333 L -548.4828 449.9999 L -548.4828 483.33320000000003 L -577.3502 499.9999 L -606.2176999999999 483.3333 L -606.2177999999999 450 Z"/><path fill="#000" stroke-width="0" d="M -692.8203 300 L -663.9528 316.6666 L -663.9528 349.9999 L -692.8202 366.6666 L -721.6877 350 L -721.6877999999999 316.6667 Z"/><path fill="#000" stroke-width="0" d="M -635.0852 333.3333 L -606.2177 349.9999 L -606.2177 383.33320000000003 L -635.0851 399.9999 L -663.9526 383.3333 L -663.9526999999999 350 Z"/><path fill="#000" stroke-width="0" d="M -635.0852 400.0001 L -606.2177 416.6667 L -606.2177 450 L -635.0851 466.6667 L -663.9526 450.0001 L -663.9526999999999 416.66679999999997 Z"/><path fill="#000" stroke-width="0" d="M -692.8203 433.33349999999996 L -663.9528 450.0001 L -663.9528 483.3334 L -692.8202 500.0001 L -721.6877 483.33349999999996 L -721.6877999999999 450.00019999999995 Z"/><path fill="#000" stroke-width="0" d="M -750.5554 400.0001 L -721.6879 416.6667 L -721.6879 450 L -750.5553 466.6667 L -779.4227999999999 450.0001 L -779.4228999999999 416.66679999999997 Z"/><path fill="#000" stroke-width="0" d="M -750.5554 333.3333 L -721.6879 349.9999 L -721.6879 383.33320000000003 L -750.5553 399.9999 L -779.4227999999999 383.3333 L -779.4228999999999 350 Z"/><path fill="#000" stroke-width="0" d="M -692.8203 100 L -663.9528 116.66660000000002 L -663.9528 149.9999 L -692.8202 166.66660000000002 L -721.6877 150 L -721.6877999999999 116.6667 Z"/><path fill="#000" stroke-width="0" d="M -635.0852 133.3333 L -606.2177 149.99990000000003 L -606.2177 183.3332 L -635.0851 199.99990000000003 L -663.9526 183.3333 L -663.9526999999999 150.00000000000003 Z"/><path fill="#000" stroke-width="0" d="M -635.0852 200.00009999999997 L -606.2177 216.6667 L -606.2177 249.99999999999997 L -635.0851 266.6667 L -663.9526 250.00009999999997 L -663.9526999999999 216.6668 Z"/><path fill="#000" stroke-width="0" d="M -692.8203 233.33349999999996 L -663.9528 250.00009999999997 L -663.9528 283.3334 L -692.8202 300.0001 L -721.6877 283.33349999999996 L -721.6877999999999 250.00019999999998 Z"/><path fill="#000" stroke-width="0" d="M -750.5554 200.00009999999997 L -721.6879 216.6667 L -721.6879 249.99999999999997 L -750.5553 266.6667 L -779.4227999999999 250.00009999999997 L -779.4228999999999 216.6668 Z"/><path fill="#000" stroke-width="0" d="M -750.5554 133.3333 L -721.6879 149.99990000000003 L -721.6879 183.3332 L -750.5553 199.99990000000003 L -779.4227999999999 183.3333 L -779.4228999999999 150.00000000000003 Z"/><path fill="#000" stroke-width="0" d="M -519.6152 -600 L -490.74769999999995 -583.3334 L -490.74769999999995 -550.0001 L -519.6151 -533.3334 L -548.4825999999999 -550 L -548.4826999999999 -583.3333 Z"/><path fill="#000" stroke-width="0" d="M -461.88009999999997 -566.6667 L -433.01259999999996 -550.0001 L -433.01259999999996 -516.6668 L -461.88 -500.0001 L -490.74749999999995 -516.6667 L -490.7476 -550 Z"/><path fill="#000" stroke-width="0" d="M -461.88009999999997 -499.9999 L -433.01259999999996 -483.3333 L -433.01259999999996 -450 L -461.88 -433.3333 L -490.74749999999995 -449.9999 L -490.7476 -483.33320000000003 Z"/><path fill="#000" stroke-width="0" d="M -519.6152 -466.66650000000004 L -490.74769999999995 -449.9999 L -490.74769999999995 -416.6666 L -519.6151 -399.9999 L -548.4825999999999 -416.66650000000004 L -548.4826999999999 -449.99980000000005 Z"/><path fill="#000" stroke-width="0" d="M -577.3503 -499.9999 L -548.4828 -483.3333 L -548.4828 -450 L -577.3502 -433.3333 L -606.2176999999999 -449.9999 L -606.2177999999999 -483.33320000000003 Z"/><path fill="#000" stroke-width="0" d="M -577.3503 -566.6667 L -548.4828 -550.0001 L -548.4828 -516.6668 L -577.3502 -500.0001 L -606.2176999999999 -516.6667 L -606.2177999999999 -550 Z"/><path fill="#000" stroke-width="0" d="M -346.41009999999994 -500 L -317.54259999999994 -483.3334 L -317.54259999999994 -450.0001 L -346.40999999999997 -433.3334 L -375.2774999999999 -450 L -375.27759999999995 -483.3333 Z"/><path fill="#000" stroke-width="0" d="M -288.67499999999995 -466.6667 L -259.80749999999995 -450.0001 L -259.80749999999995 -416.66679999999997 L -288.6749 -400.0001 L -317.54239999999993 -416.6667 L -317.54249999999996 -450 Z"/><path fill="#000" stroke-width="0" d="M -288.67499999999995 -399.9999 L -259.80749999999995 -383.3333 L -259.80749999999995 -350 L -288.6749 -333.3333 L -317.54239999999993 -349.9999 L -317.54249999999996 -383.33320000000003 Z"/><path fill="#000" stroke-width="0" d="M -346.41009999999994 -366.66650000000004 L -317.54259999999994 -349.9999 L -317.54259999999994 -316.6666 L -346.40999999999997 -299.9999 L -375.2774999999999 -316.66650000000004 L -375.27759999999995 -349.99980000000005 Z"/><path fill="#000" stroke-width="0" d="M -404.14519999999993 -399.9999 L -375.2776999999999 -383.3333 L -375.2776999999999 -350 L -404.14509999999996 -333.3333 L -433.0125999999999 -349.9999 L -433.01269999999994 -383.33320000000003 Z"/><path fill="#000" stroke-width="0" d="M -404.14519999999993 -466.6667 L -375.2776999999999 -450.0001 L -375.2776999999999 -416.66679999999997 L -404.14509999999996 -400.0001 L -433.0125999999999 -416.6667 L -433.01269999999994 -450 Z"/><path fill="#000" stroke-width="0" d="M -346.41009999999994 -300 L -317.54259999999994 -283.3334 L -317.54259999999994 -250.0001 L -346.40999999999997 -233.33339999999998 L -375.2774999999999 -250 L -375.27759999999995 -283.3333 Z"/><path fill="#000" stroke-width="0" d="M -288.67499999999995 -266.6667 L -259.80749999999995 -250.00009999999997 L -259.80749999999995 -216.6668 L -288.6749 -200.00009999999997 L -317.54239999999993 -216.6667 L -317.54249999999996 -249.99999999999997 Z"/><path fill="#000" stroke-width="0" d="M -288.67499999999995 -199.99990000000003 L -259.80749999999995 -183.3333 L -259.80749999999995 -150.00000000000003 L -288.6749 -133.3333 L -317.54239999999993 -149.99990000000003 L -317.54249999999996 -183.3332 Z"/><path fill="#000" stroke-width="0" d="M -346.41009999999994 -166.6665 L -317.54259999999994 -149.9999 L -317.54259999999994 -116.6666 L -346.40999999999997 -99.9999 L -375.2774999999999 -116.66650000000001 L -375.27759999999995 -149.9998 Z"/><path fill="#000" stroke-width="0" d="M -404.14519999999993 -199.99990000000003 L -375.2776999999999 -183.3333 L -375.2776999999999 -150.00000000000003 L -404.14509999999996 -133.3333 L -433.0125999999999 -149.99990000000003 L -433.01269999999994 -183.3332 Z"/><path fill="#000" stroke-width="0" d="M -404.14519999999993 -266.6667 L -375.2776999999999 -250.00009999999997 L -375.2776999999999 -216.6668 L -404.14509999999996 -200.00009999999997 L -433.0125999999999 -216.6667 L -433.01269999999994 -249.99999999999997 Z"/><path fill="#000" stroke-width="0" d="M -519.6152 -200 L -490.74769999999995 -183.33339999999998 L -490.74769999999995 -150.0001 L -519.6151 -133.33339999999998 L -548.4825999999999 -150 L -548.4826999999999 -183.33329999999998 Z"/><path fill="#000" stroke-width="0" d="M -461.88009999999997 -166.6667 L -433.01259999999996 -150.00009999999997 L -433.01259999999996 -116.66679999999998 L -461.88 -100.00009999999997 L -490.74749999999995 -116.66669999999999 L -490.7476 -149.99999999999997 Z"/><path fill="#000" stroke-width="0" d="M -461.88009999999997 -99.9999 L -433.01259999999996 -83.33330000000001 L -433.01259999999996 -50 L -461.88 -33.3333 L -490.74749999999995 -49.999900000000004 L -490.7476 -83.3332 Z"/><path fill="#000" stroke-width="0" d="M -519.6152 -66.66650000000001 L -490.74769999999995 -49.999900000000004 L -490.74769999999995 -16.666600000000006 L -519.6151 0.00009999999999621423 L -548.4825999999999 -16.666500000000006 L -548.4826999999999 -49.99980000000001 Z"/><path fill="#000" stroke-width="0" d="M -577.3503 -99.9999 L -548.4828 -83.33330000000001 L -548.4828 -50 L -577.3502 -33.3333 L -606.2176999999999 -49.999900000000004 L -606.2177999999999 -83.3332 Z"/><path fill="#000" stroke-width="0" d="M -577.3503 -166.6667 L -548.4828 -150.00009999999997 L -548.4828 -116.66679999999998 L -577.3502 -100.00009999999997 L -606.2176999999999 -116.66669999999999 L -606.2177999999999 -149.99999999999997 Z"/><path fill="#000" stroke-width="0" d="M -692.8203 -300 L -663.9528 -283.3334 L -663.9528 -250.0001 L -692.8202 -233.33339999999998 L -721.6877 -250 L -721.6877999999999 -283.3333 Z"/><path fill="#000" stroke-width="0" d="M -635.0852 -266.6667 L -606.2177 -250.00009999999997 L -606.2177 -216.6668 L -635.0851 -200.00009999999997 L -663.9526 -216.6667 L -663.9526999999999 -249.99999999999997 Z"/><path fill="#000" stroke-width="0" d="M -635.0852 -199.99990000000003 L -606.2177 -183.3333 L -606.2177 -150.00000000000003 L -635.0851 -133.3333 L -663.9526 -149.99990000000003 L -663.9526999999999 -183.3332 Z"/><path fill="#000" stroke-width="0" d="M -692.8203 -166.6665 L -663.9528 -149.9999 L -663.9528 -116.6666 L -692.8202 -99.9999 L -721.6877 -116.66650000000001 L -721.6877999999999 -149.9998 Z"/><path fill="#000" stroke-width="0" d="M -750.5554 -199.99990000000003 L -721.6879 -183.3333 L -721.6879 -150.00000000000003 L -750.5553 -133.3333 L -779.4227999999999 -149.99990000000003 L -779.4228999999999 -183.3332 Z"/><path fill="#000" stroke-width="0" d="M -750.5554 -266.6667 L -721.6879 -250.00009999999997 L -721.6879 -216.6668 L -750.5553 -200.00009999999997 L -779.4227999999999 -216.6667 L -779.4228999999999 -249.99999999999997 Z"/><path fill="#000" stroke-width="0" d="M -692.8203 -500 L -663.9528 -483.3334 L -663.9528 -450.0001 L -692.8202 -433.3334 L -721.6877 -450 L -721.6877999999999 -483.3333 Z"/><path fill="#000" stroke-width="0" d="M -635.0852 -466.6667 L -606.2177 -450.0001 L -606.2177 -416.66679999999997 L -635.0851 -400.0001 L -663.9526 -416.6667 L -663.9526999999999 -450 Z"/><path fill="#000" stroke-width="0" d="M -635.0852 -399.9999 L -606.2177 -383.3333 L -606.2177 -350 L -635.0851 -333.3333 L -663.9526 -349.9999 L -663.9526999999999 -383.33320000000003 Z"/><path fill="#000" stroke-width="0" d="M -692.8203 -366.66650000000004 L -663.9528 -349.9999 L -663.9528 -316.6666 L -692.8202 -299.9999 L -721.6877 -316.66650000000004 L -721.6877999999999 -349.99980000000005 Z"/><path fill="#000" stroke-width="0" d="M -750.5554 -399.9999 L -721.6879 -383.3333 L -721.6879 -350 L -750.5553 -333.3333 L -779.4227999999999 -349.9999 L -779.4228999999999 -383.33320000000003 Z"/><path fill="#000" stroke-width="0" d="M -750.5554 -466.6667 L -721.6879 -450.0001 L -721.6879 -416.66679999999997 L -750.5553 -400.0001 L -779.4227999999999 -416.6667 L -779.4228999999999 -450 Z"/></g></svg>