<svg xmlns="http://www.w3.org/2000/svg" viewBox="-1000 -1000 2000 2000" width="100%" height="100%"
	xml:space="preserve" xmlns:xlink="http://wwww3.org/1999/xlink" stroke-linecap="round"
	stroke-linejoin="round"><g><path stroke="#000000" stroke-width="2px" d="M -900 767.2219 L -871.875 767.2219"></path><path stroke="#000000" stroke-width="2px" d="M -871.875 767.2219 L -857.8125 742.8656"></path><path stroke="#000000" stroke-width="2px" d="M -857.8125 742.8656 L -871.875 718.5094"></path><path stroke="#000000" stroke-width="2px" d="M -871.875 718.5094 L -857.8125 694.1531"></path><path stroke="#000000" stroke-width="2px" d="M -857.8125 694.1531 L -829.6875 694.1531"></path><path stroke="#000000" stroke-width="2px" d="M -829.6875 694.1531 L -815.625 718.5094"></path><path stroke="#000000" stroke-width="2px" d="M -815.625 718.5094 L -829.6875 742.8656"></path><path stroke="#000000" stroke-width="2px" d="M -829.6875 742.8656 L -815.625 767.2219"></path><path stroke="#000000" stroke-width="2px" d="M -815.625 767.2219 L -787.5 767.2219"></path><path stroke="#000000" stroke-width="2px" d="M -787.5 767.2219 L -773.4375 742.8656"></path><path stroke="#000000" stroke-width="2px" d="M -773.4375 742.8656 L -745.3125 742.8656"></path><path stroke="#000000" stroke-width="2px" d="M -745.3125 742.8656 L -731.25 767.2219"></path><path stroke="#000000" stroke-width="2px" d="M -731.25 767.2219 L -703.125 767.2219"></path><path stroke="#000000" stroke-width="2px" d="M -703.125 767.2219 L -689.0625 742.8656"></path><path stroke="#000000" stroke-width="2px" d="M -689.0625 742.8656 L -703.125 718.5094"></path><path stroke="#000000" stroke-width="2px" d="M -703.125 718.5094 L -731.25 718.5094"></path><path stroke="#000000" stroke-width="2px" d="M -731.25 718.5094 L -745.3125 694.1531"></path><path stroke="#000000" stroke-width="2px" d="M -745.3125 694.1531 L -731.25 669.7969"></path><path stroke="#000000" stroke-width="2px" d="M -731.25 669.7969 L -745.3125 645.4406"></path><path stroke="#000000" stroke-width="2px" d="M -745.3125 645.4406 L -773.4375 645.4406"></path><path stroke="#000000" stroke-width="2px" d="M -773.4375 645.4406 L -787.5 669.7969"></path><path stroke="#000000" stroke-width="2px" d="M -787.5 669.7969 L -815.625 669.7969"></path><path stroke="#000000" stroke-width="2px" d="M -815.625 669.7969 L -829.6875 645.4406"></path><path stroke="#000000" stroke-width="2px" d="M -829.6875 645.4406 L -815.625 621.0844"></path><path stroke="#000000" stroke-width="2px" d="M -815.625 621.0844 L -787.5 621.0844"></path><path stroke="#000000" stroke-width="2px" d="M -787.5 621.0844 L -773.4375 596.7281"></path><path stroke="#000000" stroke-width="2px" d="M -773.4375 596.7281 L -787.5 572.3719"></path><path stroke="#000000" stroke-width="2px" d="M -787.5 572.3719 L -773.4375 548.0156"></path><path stroke="#000000" stroke-width="2px" d="M -773.4375 548.0156 L -745.3125 548.0156"></path><path stroke="#000000" stroke-width="2px" d="M -745.3125 548.0156 L -731.25 572.3719"></path><path stroke="#000000" stroke-width="2px" d="M -731.25 572.3719 L -703.125 572.3719"></path><path stroke="#000000" stroke-width="2px" d="M -703.125 572.3719 L -689.0625 548.0156"></path><path stroke="#000000" stroke-width="2px" d="M -689.0625 548.0156 L -703.125 523.6594"></path><path stroke="#000000" stroke-width="2px" d="M -703.125 523.6594 L -731.25 523.6594"></path><path stroke="#000000" stroke-width="2px" d="M -731.25 523.6594 L -745.3125 499.3031"></path><path stroke="#000000" stroke-width="2px" d="M -745.3125 499.3031 L -731.25 474.9469"></path><path stroke="#000000" stroke-width="2px" d="M -731.25 474.9469 L -703.125 474.9469"></path><path stroke="#000000" stroke-width="2px" d="M -703.125 474.9469 L -689.0625 450.5906"></path><path stroke="#000000" stroke-width="2px" d="M -689.0625 450.5906 L -703.125 426.2344"></path><path stroke="#000000" stroke-width="2px" d="M -703.125 426.2344 L -689.0625 401.8781"></path><path stroke="#000000" stroke-width="2px" d="M -689.0625 401.8781 L -660.9375 401.8781"></path><path stroke="#000000" stroke-width="2px" d="M -660.9375 401.8781 L -646.875 426.2344"></path><path stroke="#000000" stroke-width="2px" d="M -646.875 426.2344 L -660.9375 450.5906"></path><path stroke="#000000" stroke-width="2px" d="M -660.9375 450.5906 L -646.875 474.9469"></path><path stroke="#000000" stroke-width="2px" d="M -646.875 474.9469 L -618.75 474.9469"></path><path stroke="#000000" stroke-width="2px" d="M -618.75 474.9469 L -604.6875 499.3031"></path><path stroke="#000000" stroke-width="2px" d="M -604.6875 499.3031 L -618.75 523.6594"></path><path stroke="#000000" stroke-width="2px" d="M -618.75 523.6594 L -646.875 523.6594"></path><path stroke="#000000" stroke-width="2px" d="M -646.875 523.6594 L -660.9375 548.0156"></path><path stroke="#000000" stroke-width="2px" d="M -660.9375 548.0156 L -646.875 572.3719"></path><path stroke="#000000" stroke-width="2px" d="M -646.875 572.3719 L -618.75 572.3719"></path><path stroke="#000000" stroke-width="2px" d="M -618.75 572.3719 L -604.6875 548.0156"></path><path stroke="#000000" stroke-width="2px" d="M -604.6875 548.0156 L -576.5625 548.0156"></path><path stroke="#000000" stroke-width="2px" d="M -576.5625 548.0156 L -562.5 572.3719"></path><path stroke="#000000" stroke-width="2px" d="M -562.5 572.3719 L -576.5625 596.7281"></path><path stroke="#000000" stroke-width="2px" d="M -576.5625 596.7281 L -562.5 621.0844"></path><path stroke="#000000" stroke-width="2px" d="M -562.5 621.0844 L -534.375 621.0844"></path><path stroke="#000000" stroke-width="2px" d="M -534.375 621.0844 L -520.3125 645.4406"></path><path stroke="#000000" stroke-width="2px" d="M -520.3125 645.4406 L -534.375 669.7969"></path><path stroke="#000000" stroke-width="2px" d="M -534.375 669.7969 L -562.5 669.7969"></path><path stroke="#000000" stroke-width="2px" d="M -562.5 669.7969 L -576.5625 645.4406"></path><path stroke="#000000" stroke-width="2px" d="M -576.5625 645.4406 L -604.6875 645.4406"></path><path stroke="#000000" stroke-width="2px" d="M -604.6875 645.4406 L -618.75 669.7969"></path><path stroke="#000000" stroke-width="2px" d="M -618.75 669.7969 L -604.6875 694.1531"></path><path stroke="#000000" stroke-width="2px" d="M -604.6875 694.1531 L -618.75 718.5094"></path><path stroke="#000000" stroke-width="2px" d="M -618.75 718.5094 L -646.875 718.5094"></path><path stroke="#000000" stroke-width="2px" d="M -646.875 718.5094 L -660.9375 742.8656"></path><path stroke="#000000" stroke-width="2px" d="M -660.9375 742.8656 L -646.875 767.2219"></path><path stroke="#000000" stroke-width="2px" d="M -646.875 767.2219 L -618.75 767.2219"></path><path stroke="#000000" stroke-width="2px" d="M -618.75 767.2219 L -604.6875 742.8656"></path><path stroke="#000000" stroke-width="2px" d="M -604.6875 742.8656 L -576.5625 742.8656"></path><path stroke="#000000" stroke-width="2px" d="M -576.5625 742.8656 L -562.5 767.2219"></path><path stroke="#000000" stroke-width="2px" d="M -562.5 767.2219 L -534.375 767.2219"></path><path stroke="#000000" stroke-width="2px" d="M -534.375 767.2219 L -520.3125 742.8656"></path><path stroke="#000000" stroke-width="2px" d="M -520.3125 742.8656 L -534.375 718.5094"></path><path stroke="#000000" stroke-width="2px" d="M -534.375 718.5094 L -520.3125 694.1531"></path><path stroke="#000000" stroke-width="2px" d="M -520.3125 694.1531 L -492.1875 694.1531"></path><path stroke="#000000" stroke-width="2px" d="M -492.1875 694.1531 L -478.125 718.5094"></path><path stroke="#000000" stroke-width="2px" d="M -478.125 718.5094 L -492.1875 742.8656"></path><path stroke="#000000" stroke-width="2px" d="M -492.1875 742.8656 L -478.125 767.2219"></path><path stroke="#000000" stroke-width="2px" d="M -478.125 767.2219 L -450 767.2219"></path><path stroke="#000000" stroke-width="2px" d="M -450 767.2219 L -435.9375 742.8656"></path><path stroke="#000000" stroke-width="2px" d="M -435.9375 742.8656 L -407.8125 742.8656"></path><path stroke="#000000" stroke-width="2px" d="M -407.8125 742.8656 L -393.75 767.2219"></path><path stroke="#000000" stroke-width="2px" d="M -393.75 767.2219 L -365.625 767.2219"></path><path stroke="#000000" stroke-width="2px" d="M -365.625 767.2219 L -351.5625 742.8656"></path><path stroke="#000000" stroke-width="2px" d="M -351.5625 742.8656 L -365.625 718.5094"></path><path stroke="#000000" stroke-width="2px" d="M -365.625 718.5094 L -393.75 718.5094"></path><path stroke="#000000" stroke-width="2px" d="M -393.75 718.5094 L -407.8125 694.1531"></path><path stroke="#000000" stroke-width="2px" d="M -407.8125 694.1531 L -393.75 669.7969"></path><path stroke="#000000" stroke-width="2px" d="M -393.75 669.7969 L -365.625 669.7969"></path><path stroke="#000000" stroke-width="2px" d="M -365.625 669.7969 L -351.5625 645.4406"></path><path stroke="#000000" stroke-width="2px" d="M -351.5625 645.4406 L -365.625 621.0844"></path><path stroke="#000000" stroke-width="2px" d="M -365.625 621.0844 L -351.5625 596.7281"></path><path stroke="#000000" stroke-width="2px" d="M -351.5625 596.7281 L -323.4375 596.7281"></path><path stroke="#000000" stroke-width="2px" d="M -323.4375 596.7281 L -309.375 621.0844"></path><path stroke="#000000" stroke-width="2px" d="M -309.375 621.0844 L -323.4375 645.4406"></path><path stroke="#000000" stroke-width="2px" d="M -323.4375 645.4406 L -309.375 669.7969"></path><path stroke="#000000" stroke-width="2px" d="M -309.375 669.7969 L -281.25 669.7969"></path><path stroke="#000000" stroke-width="2px" d="M -281.25 669.7969 L -267.1875 694.1531"></path><path stroke="#000000" stroke-width="2px" d="M -267.1875 694.1531 L -281.25 718.5094"></path><path stroke="#000000" stroke-width="2px" d="M -281.25 718.5094 L -309.375 718.5094"></path><path stroke="#000000" stroke-width="2px" d="M -309.375 718.5094 L -323.4375 742.8656"></path><path stroke="#000000" stroke-width="2px" d="M -323.4375 742.8656 L -309.375 767.2219"></path><path stroke="#000000" stroke-width="2px" d="M -309.375 767.2219 L -281.25 767.2219"></path><path stroke="#000000" stroke-width="2px" d="M -281.25 767.2219 L -267.1875 742.8656"></path><path stroke="#000000" stroke-width="2px" d="M -267.1875 742.8656 L -239.0625 742.8656"></path><path stroke="#000000" stroke-width="2px" d="M -239.0625 742.8656 L -225 767.2219"></path><path stroke="#000000" stroke-width="2px" d="M -225 767.2219 L -196.875 767.2219"></path><path stroke="#000000" stroke-width="2px" d="M -196.875 767.2219 L -182.8125 742.8656"></path><path stroke="#000000" stroke-width="2px" d="M -182.8125 742.8656 L -196.875 718.5094"></path><path stroke="#000000" stroke-width="2px" d="M -196.875 718.5094 L -182.8125 694.1531"></path><path stroke="#000000" stroke-width="2px" d="M -182.8125 694.1531 L -154.6875 694.1531"></path><path stroke="#000000" stroke-width="2px" d="M -154.6875 694.1531 L -140.625 718.5094"></path><path stroke="#000000" stroke-width="2px" d="M -140.625 718.5094 L -154.6875 742.8656"></path><path stroke="#000000" stroke-width="2px" d="M -154.6875 742.8656 L -140.625 767.2219"></path><path stroke="#000000" stroke-width="2px" d="M -140.625 767.2219 L -112.5 767.2219"></path><path stroke="#000000" stroke-width="2px" d="M -112.5 767.2219 L -98.4375 742.8656"></path><path stroke="#000000" stroke-width="2px" d="M -98.4375 742.8656 L -70.3125 742.8656"></path><path stroke="#000000" stroke-width="2px" d="M -70.3125 742.8656 L -56.25 767.2219"></path><path stroke="#000000" stroke-width="2px" d="M -56.25 767.2219 L -28.125 767.2219"></path><path stroke="#000000" stroke-width="2px" d="M -28.125 767.2219 L -14.0625 742.8656"></path><path stroke="#000000" stroke-width="2px" d="M -14.0625 742.8656 L -28.125 718.5094"></path><path stroke="#000000" stroke-width="2px" d="M -28.125 718.5094 L -56.25 718.5094"></path><path stroke="#000000" stroke-width="2px" d="M -56.25 718.5094 L -70.3125 694.1531"></path><path stroke="#000000" stroke-width="2px" d="M -70.3125 694.1531 L -56.25 669.7969"></path><path stroke="#000000" stroke-width="2px" d="M -56.25 669.7969 L -70.3125 645.4406"></path><path stroke="#000000" stroke-width="2px" d="M -70.3125 645.4406 L -98.4375 645.4406"></path><path stroke="#000000" stroke-width="2px" d="M -98.4375 645.4406 L -112.5 669.7969"></path><path stroke="#000000" stroke-width="2px" d="M -112.5 669.7969 L -140.625 669.7969"></path><path stroke="#000000" stroke-width="2px" d="M -140.625 669.7969 L -154.6875 645.4406"></path><path stroke="#000000" stroke-width="2px" d="M -154.6875 645.4406 L -140.625 621.0844"></path><path stroke="#000000" stroke-width="2px" d="M -140.625 621.0844 L -112.5 621.0844"></path><path stroke="#000000" stroke-width="2px" d="M -112.5 621.0844 L -98.4375 596.7281"></path><path stroke="#000000" stroke-width="2px" d="M -98.4375 596.7281 L -112.5 572.3719"></path><path stroke="#000000" stroke-width="2px" d="M -112.5 572.3719 L -140.625 572.3719"></path><path stroke="#000000" stroke-width="2px" d="M -140.625 572.3719 L -154.6875 548.0156"></path><path stroke="#000000" stroke-width="2px" d="M -154.6875 548.0156 L -140.625 523.6594"></path><path stroke="#000000" stroke-width="2px" d="M -140.625 523.6594 L -154.6875 499.3031"></path><path stroke="#000000" stroke-width="2px" d="M -154.6875 499.3031 L -182.8125 499.3031"></path><path stroke="#000000" stroke-width="2px" d="M -182.8125 499.3031 L -196.875 523.6594"></path><path stroke="#000000" stroke-width="2px" d="M -196.875 523.6594 L -182.8125 548.0156"></path><path stroke="#000000" stroke-width="2px" d="M -182.8125 548.0156 L -196.875 572.3719"></path><path stroke="#000000" stroke-width="2px" d="M -196.875 572.3719 L -225 572.3719"></path><path stroke="#000000" stroke-width="2px" d="M -225 572.3719 L -239.0625 548.0156"></path><path stroke="#000000" stroke-width="2px" d="M -239.0625 548.0156 L -267.1875 548.0156"></path><path stroke="#000000" stroke-width="2px" d="M -267.1875 548.0156 L -281.25 572.3719"></path><path stroke="#000000" stroke-width="2px" d="M -281.25 572.3719 L -309.375 572.3719"></path><path stroke="#000000" stroke-width="2px" d="M -309.375 572.3719 L -323.4375 548.0156"></path><path stroke="#000000" stroke-width="2px" d="M -323.4375 548.0156 L -309.375 523.6594"></path><path stroke="#000000" stroke-width="2px" d="M -309.375 523.6594 L -281.25 523.6594"></path><path stroke="#000000" stroke-width="2px" d="M -281.25 523.6594 L -267.1875 499.3031"></path><path stroke="#000000" stroke-width="2px" d="M -267.1875 499.3031 L -281.25 474.9469"></path><path stroke="#000000" stroke-width="2px" d="M -281.25 474.9469 L -267.1875 450.5906"></path><path stroke="#000000" stroke-width="2px" d="M -267.1875 450.5906 L -239.0625 450.5906"></path><path stroke="#000000" stroke-width="2px" d="M -239.0625 450.5906 L -225 474.9469"></path><path stroke="#000000" stroke-width="2px" d="M -225 474.9469 L -196.875 474.9469"></path><path stroke="#000000" stroke-width="2px" d="M -196.875 474.9469 L -182.8125 450.5906"></path><path stroke="#000000" stroke-width="2px" d="M -182.8125 450.5906 L -196.875 426.2344"></path><path stroke="#000000" stroke-width="2px" d="M -196.875 426.2344 L -225 426.2344"></path><path stroke="#000000" stroke-width="2px" d="M -225 426.2344 L -239.0625 401.8781"></path><path stroke="#000000" stroke-width="2px" d="M -239.0625 401.8781 L -225 377.5219"></path><path stroke="#000000" stroke-width="2px" d="M -225 377.5219 L -239.0625 353.1656"></path><path stroke="#000000" stroke-width="2px" d="M -239.0625 353.1656 L -267.1875 353.1656"></path><path stroke="#000000" stroke-width="2px" d="M -267.1875 353.1656 L -281.25 377.5219"></path><path stroke="#000000" stroke-width="2px" d="M -281.25 377.5219 L -309.375 377.5219"></path><path stroke="#000000" stroke-width="2px" d="M -309.375 377.5219 L -323.4375 353.1656"></path><path stroke="#000000" stroke-width="2px" d="M -323.4375 353.1656 L -309.375 328.8094"></path><path stroke="#000000" stroke-width="2px" d="M -309.375 328.8094 L -281.25 328.8094"></path><path stroke="#000000" stroke-width="2px" d="M -281.25 328.8094 L -267.1875 304.4531"></path><path stroke="#000000" stroke-width="2px" d="M -267.1875 304.4531 L -281.25 280.0969"></path><path stroke="#000000" stroke-width="2px" d="M -281.25 280.0969 L -309.375 280.0969"></path><path stroke="#000000" stroke-width="2px" d="M -309.375 280.0969 L -323.4375 255.7406"></path><path stroke="#000000" stroke-width="2px" d="M -323.4375 255.7406 L -309.375 231.3844"></path><path stroke="#000000" stroke-width="2px" d="M -309.375 231.3844 L -323.4375 207.0281"></path><path stroke="#000000" stroke-width="2px" d="M -323.4375 207.0281 L -351.5625 207.0281"></path><path stroke="#000000" stroke-width="2px" d="M -351.5625 207.0281 L -365.625 231.3844"></path><path stroke="#000000" stroke-width="2px" d="M -365.625 231.3844 L -351.5625 255.7406"></path><path stroke="#000000" stroke-width="2px" d="M -351.5625 255.7406 L -365.625 280.0969"></path><path stroke="#000000" stroke-width="2px" d="M -365.625 280.0969 L -393.75 280.0969"></path><path stroke="#000000" stroke-width="2px" d="M -393.75 280.0969 L -407.8125 304.4531"></path><path stroke="#000000" stroke-width="2px" d="M -407.8125 304.4531 L -393.75 328.8094"></path><path stroke="#000000" stroke-width="2px" d="M -393.75 328.8094 L -365.625 328.8094"></path><path stroke="#000000" stroke-width="2px" d="M -365.625 328.8094 L -351.5625 353.1656"></path><path stroke="#000000" stroke-width="2px" d="M -351.5625 353.1656 L -365.625 377.5219"></path><path stroke="#000000" stroke-width="2px" d="M -365.625 377.5219 L -393.75 377.5219"></path><path stroke="#000000" stroke-width="2px" d="M -393.75 377.5219 L -407.8125 353.1656"></path><path stroke="#000000" stroke-width="2px" d="M -407.8125 353.1656 L -435.9375 353.1656"></path><path stroke="#000000" stroke-width="2px" d="M -435.9375 353.1656 L -450 377.5219"></path><path stroke="#000000" stroke-width="2px" d="M -450 377.5219 L -478.125 377.5219"></path><path stroke="#000000" stroke-width="2px" d="M -478.125 377.5219 L -492.1875 353.1656"></path><path stroke="#000000" stroke-width="2px" d="M -492.1875 353.1656 L -478.125 328.8094"></path><path stroke="#000000" stroke-width="2px" d="M -478.125 328.8094 L -492.1875 304.4531"></path><path stroke="#000000" stroke-width="2px" d="M -492.1875 304.4531 L -520.3125 304.4531"></path><path stroke="#000000" stroke-width="2px" d="M -520.3125 304.4531 L -534.375 328.8094"></path><path stroke="#000000" stroke-width="2px" d="M -534.375 328.8094 L -520.3125 353.1656"></path><path stroke="#000000" stroke-width="2px" d="M -520.3125 353.1656 L -534.375 377.5219"></path><path stroke="#000000" stroke-width="2px" d="M -534.375 377.5219 L -562.5 377.5219"></path><path stroke="#000000" stroke-width="2px" d="M -562.5 377.5219 L -576.5625 353.1656"></path><path stroke="#000000" stroke-width="2px" d="M -576.5625 353.1656 L -604.6875 353.1656"></path><path stroke="#000000" stroke-width="2px" d="M -604.6875 353.1656 L -618.75 377.5219"></path><path stroke="#000000" stroke-width="2px" d="M -618.75 377.5219 L -646.875 377.5219"></path><path stroke="#000000" stroke-width="2px" d="M -646.875 377.5219 L -660.9375 353.1656"></path><path stroke="#000000" stroke-width="2px" d="M -660.9375 353.1656 L -646.875 328.8094"></path><path stroke="#000000" stroke-width="2px" d="M -646.875 328.8094 L -618.75 328.8094"></path><path stroke="#000000" stroke-width="2px" d="M -618.75 328.8094 L -604.6875 304.4531"></path><path stroke="#000000" stroke-width="2px" d="M -604.6875 304.4531 L -618.75 280.0969"></path><path stroke="#000000" stroke-width="2px" d="M -618.75 280.0969 L -604.6875 255.7406"></path><path stroke="#000000" stroke-width="2px" d="M -604.6875 255.7406 L -576.5625 255.7406"></path><path stroke="#000000" stroke-width="2px" d="M -576.5625 255.7406 L -562.5 280.0969"></path><path stroke="#000000" stroke-width="2px" d="M -562.5 280.0969 L -534.375 280.0969"></path><path stroke="#000000" stroke-width="2px" d="M -534.375 280.0969 L -520.3125 255.7406"></path><path stroke="#000000" stroke-width="2px" d="M -520.3125 255.7406 L -534.375 231.3844"></path><path stroke="#000000" stroke-width="2px" d="M -534.375 231.3844 L -562.5 231.3844"></path><path stroke="#000000" stroke-width="2px" d="M -562.5 231.3844 L -576.5625 207.0281"></path><path stroke="#000000" stroke-width="2px" d="M -576.5625 207.0281 L -562.5 182.6719"></path><path stroke="#000000" stroke-width="2px" d="M -562.5 182.6719 L -534.375 182.6719"></path><path stroke="#000000" stroke-width="2px" d="M -534.375 182.6719 L -520.3125 158.3156"></path><path stroke="#000000" stroke-width="2px" d="M -520.3125 158.3156 L -534.375 133.9594"></path><path stroke="#000000" stroke-width="2px" d="M -534.375 133.9594 L -520.3125 109.6031"></path><path stroke="#000000" stroke-width="2px" d="M -520.3125 109.6031 L -492.1875 109.6031"></path><path stroke="#000000" stroke-width="2px" d="M -492.1875 109.6031 L -478.125 133.9594"></path><path stroke="#000000" stroke-width="2px" d="M -478.125 133.9594 L -492.1875 158.3156"></path><path stroke="#000000" stroke-width="2px" d="M -492.1875 158.3156 L -478.125 182.6719"></path><path stroke="#000000" stroke-width="2px" d="M -478.125 182.6719 L -450 182.6719"></path><path stroke="#000000" stroke-width="2px" d="M -450 182.6719 L -435.9375 158.3156"></path><path stroke="#000000" stroke-width="2px" d="M -435.9375 158.3156 L -407.8125 158.3156"></path><path stroke="#000000" stroke-width="2px" d="M -407.8125 158.3156 L -393.75 182.6719"></path><path stroke="#000000" stroke-width="2px" d="M -393.75 182.6719 L -365.625 182.6719"></path><path stroke="#000000" stroke-width="2px" d="M -365.625 182.6719 L -351.5625 158.3156"></path><path stroke="#000000" stroke-width="2px" d="M -351.5625 158.3156 L -365.625 133.9594"></path><path stroke="#000000" stroke-width="2px" d="M -365.625 133.9594 L -393.75 133.9594"></path><path stroke="#000000" stroke-width="2px" d="M -393.75 133.9594 L -407.8125 109.6031"></path><path stroke="#000000" stroke-width="2px" d="M -407.8125 109.6031 L -393.75 85.2469"></path><path stroke="#000000" stroke-width="2px" d="M -393.75 85.2469 L -407.8125 60.8906"></path><path stroke="#000000" stroke-width="2px" d="M -407.8125 60.8906 L -435.9375 60.8906"></path><path stroke="#000000" stroke-width="2px" d="M -435.9375 60.8906 L -450 85.2469"></path><path stroke="#000000" stroke-width="2px" d="M -450 85.2469 L -478.125 85.2469"></path><path stroke="#000000" stroke-width="2px" d="M -478.125 85.2469 L -492.1875 60.8906"></path><path stroke="#000000" stroke-width="2px" d="M -492.1875 60.8906 L -478.125 36.5344"></path><path stroke="#000000" stroke-width="2px" d="M -478.125 36.5344 L -450 36.5344"></path><path stroke="#000000" stroke-width="2px" d="M -450 36.5344 L -435.9375 12.1781"></path><path stroke="#000000" stroke-width="2px" d="M -435.9375 12.1781 L -450 -12.1781"></path><path stroke="#000000" stroke-width="2px" d="M -450 -12.1781 L -435.9375 -36.5344"></path><path stroke="#000000" stroke-width="2px" d="M -435.9375 -36.5344 L -407.8125 -36.5344"></path><path stroke="#000000" stroke-width="2px" d="M -407.8125 -36.5344 L -393.75 -12.1781"></path><path stroke="#000000" stroke-width="2px" d="M -393.75 -12.1781 L -365.625 -12.1781"></path><path stroke="#000000" stroke-width="2px" d="M -365.625 -12.1781 L -351.5625 -36.5344"></path><path stroke="#000000" stroke-width="2px" d="M -351.5625 -36.5344 L -365.625 -60.8906"></path><path stroke="#000000" stroke-width="2px" d="M -365.625 -60.8906 L -393.75 -60.8906"></path><path stroke="#000000" stroke-width="2px" d="M -393.75 -60.8906 L -407.8125 -85.2469"></path><path stroke="#000000" stroke-width="2px" d="M -407.8125 -85.2469 L -393.75 -109.6031"></path><path stroke="#000000" stroke-width="2px" d="M -393.75 -109.6031 L -365.625 -109.6031"></path><path stroke="#000000" stroke-width="2px" d="M -365.625 -109.6031 L -351.5625 -133.9594"></path><path stroke="#000000" stroke-width="2px" d="M -351.5625 -133.9594 L -365.625 -158.3156"></path><path stroke="#000000" stroke-width="2px" d="M -365.625 -158.3156 L -351.5625 -182.6719"></path><path stroke="#000000" stroke-width="2px" d="M -351.5625 -182.6719 L -323.4375 -182.6719"></path><path stroke="#000000" stroke-width="2px" d="M -323.4375 -182.6719 L -309.375 -158.3156"></path><path stroke="#000000" stroke-width="2px" d="M -309.375 -158.3156 L -323.4375 -133.9594"></path><path stroke="#000000" stroke-width="2px" d="M -323.4375 -133.9594 L -309.375 -109.6031"></path><path stroke="#000000" stroke-width="2px" d="M -309.375 -109.6031 L -281.25 -109.6031"></path><path stroke="#000000" stroke-width="2px" d="M -281.25 -109.6031 L -267.1875 -85.2469"></path><path stroke="#000000" stroke-width="2px" d="M -267.1875 -85.2469 L -281.25 -60.8906"></path><path stroke="#000000" stroke-width="2px" d="M -281.25 -60.8906 L -309.375 -60.8906"></path><path stroke="#000000" stroke-width="2px" d="M -309.375 -60.8906 L -323.4375 -36.5344"></path><path stroke="#000000" stroke-width="2px" d="M -323.4375 -36.5344 L -309.375 -12.1781"></path><path stroke="#000000" stroke-width="2px" d="M -309.375 -12.1781 L -281.25 -12.1781"></path><path stroke="#000000" stroke-width="2px" d="M -281.25 -12.1781 L -267.1875 -36.5344"></path><path stroke="#000000" stroke-width="2px" d="M -267.1875 -36.5344 L -239.0625 -36.5344"></path><path stroke="#000000" stroke-width="2px" d="M -239.0625 -36.5344 L -225 -12.1781"></path><path stroke="#000000" stroke-width="2px" d="M -225 -12.1781 L -196.875 -12.1781"></path><path stroke="#000000" stroke-width="2px" d="M -196.875 -12.1781 L -182.8125 -36.5344"></path><path stroke="#000000" stroke-width="2px" d="M -182.8125 -36.5344 L -196.875 -60.8906"></path><path stroke="#000000" stroke-width="2px" d="M -196.875 -60.8906 L -182.8125 -85.2469"></path><path stroke="#000000" stroke-width="2px" d="M -182.8125 -85.2469 L -154.6875 -85.2469"></path><path stroke="#000000" stroke-width="2px" d="M -154.6875 -85.2469 L -140.625 -60.8906"></path><path stroke="#000000" stroke-width="2px" d="M -140.625 -60.8906 L -154.6875 -36.5344"></path><path stroke="#000000" stroke-width="2px" d="M -154.6875 -36.5344 L -140.625 -12.1781"></path><path stroke="#000000" stroke-width="2px" d="M -140.625 -12.1781 L -112.5 -12.1781"></path><path stroke="#000000" stroke-width="2px" d="M -112.5 -12.1781 L -98.4375 -36.5344"></path><path stroke="#000000" stroke-width="2px" d="M -98.4375 -36.5344 L -70.3125 -36.5344"></path><path stroke="#000000" stroke-width="2px" d="M -70.3125 -36.5344 L -56.25 -12.1781"></path><path stroke="#000000" stroke-width="2px" d="M -56.25 -12.1781 L -28.125 -12.1781"></path><path stroke="#000000" stroke-width="2px" d="M -28.125 -12.1781 L -14.0625 -36.5344"></path><path stroke="#000000" stroke-width="2px" d="M -14.0625 -36.5344 L -28.125 -60.8906"></path><path stroke="#000000" stroke-width="2px" d="M -28.125 -60.8906 L -56.25 -60.8906"></path><path stroke="#000000" stroke-width="2px" d="M -56.25 -60.8906 L -70.3125 -85.2469"></path><path stroke="#000000" stroke-width="2px" d="M -70.3125 -85.2469 L -56.25 -109.6031"></path><path stroke="#000000" stroke-width="2px" d="M -56.25 -109.6031 L -70.3125 -133.9594"></path><path stroke="#000000" stroke-width="2px" d="M -70.3125 -133.9594 L -98.4375 -133.9594"></path><path stroke="#000000" stroke-width="2px" d="M -98.4375 -133.9594 L -112.5 -109.6031"></path><path stroke="#000000" stroke-width="2px" d="M -112.5 -109.6031 L -140.625 -109.6031"></path><path stroke="#000000" stroke-width="2px" d="M -140.625 -109.6031 L -154.6875 -133.9594"></path><path stroke="#000000" stroke-width="2px" d="M -154.6875 -133.9594 L -140.625 -158.3156"></path><path stroke="#000000" stroke-width="2px" d="M -140.625 -158.3156 L -112.5 -158.3156"></path><path stroke="#000000" stroke-width="2px" d="M -112.5 -158.3156 L -98.4375 -182.6719"></path><path stroke="#000000" stroke-width="2px" d="M -98.4375 -182.6719 L -112.5 -207.0281"></path><path stroke="#000000" stroke-width="2px" d="M -112.5 -207.0281 L -140.625 -207.0281"></path><path stroke="#000000" stroke-width="2px" d="M -140.625 -207.0281 L -154.6875 -231.3844"></path><path stroke="#000000" stroke-width="2px" d="M -154.6875 -231.3844 L -140.625 -255.7406"></path><path stroke="#000000" stroke-width="2px" d="M -140.625 -255.7406 L -154.6875 -280.0969"></path><path stroke="#000000" stroke-width="2px" d="M -154.6875 -280.0969 L -182.8125 -280.0969"></path><path stroke="#000000" stroke-width="2px" d="M -182.8125 -280.0969 L -196.875 -255.7406"></path><path stroke="#000000" stroke-width="2px" d="M -196.875 -255.7406 L -182.8125 -231.3844"></path><path stroke="#000000" stroke-width="2px" d="M -182.8125 -231.3844 L -196.875 -207.0281"></path><path stroke="#000000" stroke-width="2px" d="M -196.875 -207.0281 L -225 -207.0281"></path><path stroke="#000000" stroke-width="2px" d="M -225 -207.0281 L -239.0625 -231.3844"></path><path stroke="#000000" stroke-width="2px" d="M -239.0625 -231.3844 L -267.1875 -231.3844"></path><path stroke="#000000" stroke-width="2px" d="M -267.1875 -231.3844 L -281.25 -207.0281"></path><path stroke="#000000" stroke-width="2px" d="M -281.25 -207.0281 L -309.375 -207.0281"></path><path stroke="#000000" stroke-width="2px" d="M -309.375 -207.0281 L -323.4375 -231.3844"></path><path stroke="#000000" stroke-width="2px" d="M -323.4375 -231.3844 L -309.375 -255.7406"></path><path stroke="#000000" stroke-width="2px" d="M -309.375 -255.7406 L -281.25 -255.7406"></path><path stroke="#000000" stroke-width="2px" d="M -281.25 -255.7406 L -267.1875 -280.0969"></path><path stroke="#000000" stroke-width="2px" d="M -267.1875 -280.0969 L -281.25 -304.4531"></path><path stroke="#000000" stroke-width="2px" d="M -281.25 -304.4531 L -267.1875 -328.8094"></path><path stroke="#000000" stroke-width="2px" d="M -267.1875 -328.8094 L -239.0625 -328.8094"></path><path stroke="#000000" stroke-width="2px" d="M -239.0625 -328.8094 L -225 -304.4531"></path><path stroke="#000000" stroke-width="2px" d="M -225 -304.4531 L -196.875 -304.4531"></path><path stroke="#000000" stroke-width="2px" d="M -196.875 -304.4531 L -182.8125 -328.8094"></path><path stroke="#000000" stroke-width="2px" d="M -182.8125 -328.8094 L -196.875 -353.1656"></path><path stroke="#000000" stroke-width="2px" d="M -196.875 -353.1656 L -225 -353.1656"></path><path stroke="#000000" stroke-width="2px" d="M -225 -353.1656 L -239.0625 -377.5219"></path><path stroke="#000000" stroke-width="2px" d="M -239.0625 -377.5219 L -225 -401.8781"></path><path stroke="#000000" stroke-width="2px" d="M -225 -401.8781 L -196.875 -401.8781"></path><path stroke="#000000" stroke-width="2px" d="M -196.875 -401.8781 L -182.8125 -426.2344"></path><path stroke="#000000" stroke-width="2px" d="M -182.8125 -426.2344 L -196.875 -450.5906"></path><path stroke="#000000" stroke-width="2px" d="M -196.875 -450.5906 L -182.8125 -474.9469"></path><path stroke="#000000" stroke-width="2px" d="M -182.8125 -474.9469 L -154.6875 -474.9469"></path><path stroke="#000000" stroke-width="2px" d="M -154.6875 -474.9469 L -140.625 -450.5906"></path><path stroke="#000000" stroke-width="2px" d="M -140.625 -450.5906 L -154.6875 -426.2344"></path><path stroke="#000000" stroke-width="2px" d="M -154.6875 -426.2344 L -140.625 -401.8781"></path><path stroke="#000000" stroke-width="2px" d="M -140.625 -401.8781 L -112.5 -401.8781"></path><path stroke="#000000" stroke-width="2px" d="M -112.5 -401.8781 L -98.4375 -426.2344"></path><path stroke="#000000" stroke-width="2px" d="M -98.4375 -426.2344 L -70.3125 -426.2344"></path><path stroke="#000000" stroke-width="2px" d="M -70.3125 -426.2344 L -56.25 -401.8781"></path><path stroke="#000000" stroke-width="2px" d="M -56.25 -401.8781 L -28.125 -401.8781"></path><path stroke="#000000" stroke-width="2px" d="M -28.125 -401.8781 L -14.0625 -426.2344"></path><path stroke="#000000" stroke-width="2px" d="M -14.0625 -426.2344 L -28.125 -450.5906"></path><path stroke="#000000" stroke-width="2px" d="M -28.125 -450.5906 L -56.25 -450.5906"></path><path stroke="#000000" stroke-width="2px" d="M -56.25 -450.5906 L -70.3125 -474.9469"></path><path stroke="#000000" stroke-width="2px" d="M -70.3125 -474.9469 L -56.25 -499.3031"></path><path stroke="#000000" stroke-width="2px" d="M -56.25 -499.3031 L -70.3125 -523.6594"></path><path stroke="#000000" stroke-width="2px" d="M -70.3125 -523.6594 L -98.4375 -523.6594"></path><path stroke="#000000" stroke-width="2px" d="M -98.4375 -523.6594 L -112.5 -499.3031"></path><path stroke="#000000" stroke-width="2px" d="M -112.5 -499.3031 L -140.625 -499.3031"></path><path stroke="#000000" stroke-width="2px" d="M -140.625 -499.3031 L -154.6875 -523.6594"></path><path stroke="#000000" stroke-width="2px" d="M -154.6875 -523.6594 L -140.625 -548.0156"></path><path stroke="#000000" stroke-width="2px" d="M -140.625 -548.0156 L -112.5 -548.0156"></path><path stroke="#000000" stroke-width="2px" d="M -112.5 -548.0156 L -98.4375 -572.3719"></path><path stroke="#000000" stroke-width="2px" d="M -98.4375 -572.3719 L -112.5 -596.7281"></path><path stroke="#000000" stroke-width="2px" d="M -112.5 -596.7281 L -98.4375 -621.0844"></path><path stroke="#000000" stroke-width="2px" d="M -98.4375 -621.0844 L -70.3125 -621.0844"></path><path stroke="#000000" stroke-width="2px" d="M -70.3125 -621.0844 L -56.25 -596.7281"></path><path stroke="#000000" stroke-width="2px" d="M -56.25 -596.7281 L -28.125 -596.7281"></path><path stroke="#000000" stroke-width="2px" d="M -28.125 -596.7281 L -14.0625 -621.0844"></path><path stroke="#000000" stroke-width="2px" d="M -14.0625 -621.0844 L -28.125 -645.4406"></path><path stroke="#000000" stroke-width="2px" d="M -28.125 -645.4406 L -56.25 -645.4406"></path><path stroke="#000000" stroke-width="2px" d="M -56.25 -645.4406 L -70.3125 -669.7969"></path><path stroke="#000000" stroke-width="2px" d="M -70.3125 -669.7969 L -56.25 -694.1531"></path><path stroke="#000000" stroke-width="2px" d="M -56.25 -694.1531 L -28.125 -694.1531"></path><path stroke="#000000" stroke-width="2px" d="M -28.125 -694.1531 L -14.0625 -718.5094"></path><path stroke="#000000" stroke-width="2px" d="M -14.0625 -718.5094 L -28.125 -742.8656"></path><path stroke="#000000" stroke-width="2px" d="M -28.125 -742.8656 L -14.0625 -767.2219"></path><path stroke="#000000" stroke-width="2px" d="M -14.0625 -767.2219 L 14.0625 -767.2219"></path><path stroke="#000000" stroke-width="2px" d="M 14.0625 -767.2219 L 28.125 -742.8656"></path><path stroke="#000000" stroke-width="2px" d="M 28.125 -742.8656 L 14.0625 -718.5094"></path><path stroke="#000000" stroke-width="2px" d="M 14.0625 -718.5094 L 28.125 -694.1531"></path><path stroke="#000000" stroke-width="2px" d="M 28.125 -694.1531 L 56.25 -694.1531"></path><path stroke="#000000" stroke-width="2px" d="M 56.25 -694.1531 L 70.3125 -669.7969"></path><path stroke="#000000" stroke-width="2px" d="M 70.3125 -669.7969 L 56.25 -645.4406"></path><path stroke="#000000" stroke-width="2px" d="M 56.25 -645.4406 L 28.125 -645.4406"></path><path stroke="#000000" stroke-width="2px" d="M 28.125 -645.4406 L 14.0625 -621.0844"></path><path stroke="#000000" stroke-width="2px" d="M 14.0625 -621.0844 L 28.125 -596.7281"></path><path stroke="#000000" stroke-width="2px" d="M 28.125 -596.7281 L 56.25 -596.7281"></path><path stroke="#000000" stroke-width="2px" d="M 56.25 -596.7281 L 70.3125 -621.0844"></path><path stroke="#000000" stroke-width="2px" d="M 70.3125 -621.0844 L 98.4375 -621.0844"></path><path stroke="#000000" stroke-width="2px" d="M 98.4375 -621.0844 L 112.5 -596.7281"></path><path stroke="#000000" stroke-width="2px" d="M 112.5 -596.7281 L 98.4375 -572.3719"></path><path stroke="#000000" stroke-width="2px" d="M 98.4375 -572.3719 L 112.5 -548.0156"></path><path stroke="#000000" stroke-width="2px" d="M 112.5 -548.0156 L 140.625 -548.0156"></path><path stroke="#000000" stroke-width="2px" d="M 140.625 -548.0156 L 154.6875 -523.6594"></path><path stroke="#000000" stroke-width="2px" d="M 154.6875 -523.6594 L 140.625 -499.3031"></path><path stroke="#000000" stroke-width="2px" d="M 140.625 -499.3031 L 112.5 -499.3031"></path><path stroke="#000000" stroke-width="2px" d="M 112.5 -499.3031 L 98.4375 -523.6594"></path><path stroke="#000000" stroke-width="2px" d="M 98.4375 -523.6594 L 70.3125 -523.6594"></path><path stroke="#000000" stroke-width="2px" d="M 70.3125 -523.6594 L 56.25 -499.3031"></path><path stroke="#000000" stroke-width="2px" d="M 56.25 -499.3031 L 70.3125 -474.9469"></path><path stroke="#000000" stroke-width="2px" d="M 70.3125 -474.9469 L 56.25 -450.5906"></path><path stroke="#000000" stroke-width="2px" d="M 56.25 -450.5906 L 28.125 -450.5906"></path><path stroke="#000000" stroke-width="2px" d="M 28.125 -450.5906 L 14.0625 -426.2344"></path><path stroke="#000000" stroke-width="2px" d="M 14.0625 -426.2344 L 28.125 -401.8781"></path><path stroke="#000000" stroke-width="2px" d="M 28.125 -401.8781 L 56.25 -401.8781"></path><path stroke="#000000" stroke-width="2px" d="M 56.25 -401.8781 L 70.3125 -426.2344"></path><path stroke="#000000" stroke-width="2px" d="M 70.3125 -426.2344 L 98.4375 -426.2344"></path><path stroke="#000000" stroke-width="2px" d="M 98.4375 -426.2344 L 112.5 -401.8781"></path><path stroke="#000000" stroke-width="2px" d="M 112.5 -401.8781 L 140.625 -401.8781"></path><path stroke="#000000" stroke-width="2px" d="M 140.625 -401.8781 L 154.6875 -426.2344"></path><path stroke="#000000" stroke-width="2px" d="M 154.6875 -426.2344 L 140.625 -450.5906"></path><path stroke="#000000" stroke-width="2px" d="M 140.625 -450.5906 L 154.6875 -474.9469"></path><path stroke="#000000" stroke-width="2px" d="M 154.6875 -474.9469 L 182.8125 -474.9469"></path><path stroke="#000000" stroke-width="2px" d="M 182.8125 -474.9469 L 196.875 -450.5906"></path><path stroke="#000000" stroke-width="2px" d="M 196.875 -450.5906 L 182.8125 -426.2344"></path><path stroke="#000000" stroke-width="2px" d="M 182.8125 -426.2344 L 196.875 -401.8781"></path><path stroke="#000000" stroke-width="2px" d="M 196.875 -401.8781 L 225 -401.8781"></path><path stroke="#000000" stroke-width="2px" d="M 225 -401.8781 L 239.0625 -377.5219"></path><path stroke="#000000" stroke-width="2px" d="M 239.0625 -377.5219 L 225 -353.1656"></path><path stroke="#000000" stroke-width="2px" d="M 225 -353.1656 L 196.875 -353.1656"></path><path stroke="#000000" stroke-width="2px" d="M 196.875 -353.1656 L 182.8125 -328.8094"></path><path stroke="#000000" stroke-width="2px" d="M 182.8125 -328.8094 L 196.875 -304.4531"></path><path stroke="#000000" stroke-width="2px" d="M 196.875 -304.4531 L 225 -304.4531"></path><path stroke="#000000" stroke-width="2px" d="M 225 -304.4531 L 239.0625 -328.8094"></path><path stroke="#000000" stroke-width="2px" d="M 239.0625 -328.8094 L 267.1875 -328.8094"></path><path stroke="#000000" stroke-width="2px" d="M 267.1875 -328.8094 L 281.25 -304.4531"></path><path stroke="#000000" stroke-width="2px" d="M 281.25 -304.4531 L 267.1875 -280.0969"></path><path stroke="#000000" stroke-width="2px" d="M 267.1875 -280.0969 L 281.25 -255.7406"></path><path stroke="#000000" stroke-width="2px" d="M 281.25 -255.7406 L 309.375 -255.7406"></path><path stroke="#000000" stroke-width="2px" d="M 309.375 -255.7406 L 323.4375 -231.3844"></path><path stroke="#000000" stroke-width="2px" d="M 323.4375 -231.3844 L 309.375 -207.0281"></path><path stroke="#000000" stroke-width="2px" d="M 309.375 -207.0281 L 281.25 -207.0281"></path><path stroke="#000000" stroke-width="2px" d="M 281.25 -207.0281 L 267.1875 -231.3844"></path><path stroke="#000000" stroke-width="2px" d="M 267.1875 -231.3844 L 239.0625 -231.3844"></path><path stroke="#000000" stroke-width="2px" d="M 239.0625 -231.3844 L 225 -207.0281"></path><path stroke="#000000" stroke-width="2px" d="M 225 -207.0281 L 196.875 -207.0281"></path><path stroke="#000000" stroke-width="2px" d="M 196.875 -207.0281 L 182.8125 -231.3844"></path><path stroke="#000000" stroke-width="2px" d="M 182.8125 -231.3844 L 196.875 -255.7406"></path><path stroke="#000000" stroke-width="2px" d="M 196.875 -255.7406 L 182.8125 -280.0969"></path><path stroke="#000000" stroke-width="2px" d="M 182.8125 -280.0969 L 154.6875 -280.0969"></path><path stroke="#000000" stroke-width="2px" d="M 154.6875 -280.0969 L 140.625 -255.7406"></path><path stroke="#000000" stroke-width="2px" d="M 140.625 -255.7406 L 154.6875 -231.3844"></path><path stroke="#000000" stroke-width="2px" d="M 154.6875 -231.3844 L 140.625 -207.0281"></path><path stroke="#000000" stroke-width="2px" d="M 140.625 -207.0281 L 112.5 -207.0281"></path><path stroke="#000000" stroke-width="2px" d="M 112.5 -207.0281 L 98.4375 -182.6719"></path><path stroke="#000000" stroke-width="2px" d="M 98.4375 -182.6719 L 112.5 -158.3156"></path><path stroke="#000000" stroke-width="2px" d="M 112.5 -158.3156 L 140.625 -158.3156"></path><path stroke="#000000" stroke-width="2px" d="M 140.625 -158.3156 L 154.6875 -133.9594"></path><path stroke="#000000" stroke-width="2px" d="M 154.6875 -133.9594 L 140.625 -109.6031"></path><path stroke="#000000" stroke-width="2px" d="M 140.625 -109.6031 L 112.5 -109.6031"></path><path stroke="#000000" stroke-width="2px" d="M 112.5 -109.6031 L 98.4375 -133.9594"></path><path stroke="#000000" stroke-width="2px" d="M 98.4375 -133.9594 L 70.3125 -133.9594"></path><path stroke="#000000" stroke-width="2px" d="M 70.3125 -133.9594 L 56.25 -109.6031"></path><path stroke="#000000" stroke-width="2px" d="M 56.25 -109.6031 L 70.3125 -85.2469"></path><path stroke="#000000" stroke-width="2px" d="M 70.3125 -85.2469 L 56.25 -60.8906"></path><path stroke="#000000" stroke-width="2px" d="M 56.25 -60.8906 L 28.125 -60.8906"></path><path stroke="#000000" stroke-width="2px" d="M 28.125 -60.8906 L 14.0625 -36.5344"></path><path stroke="#000000" stroke-width="2px" d="M 14.0625 -36.5344 L 28.125 -12.1781"></path><path stroke="#000000" stroke-width="2px" d="M 28.125 -12.1781 L 56.25 -12.1781"></path><path stroke="#000000" stroke-width="2px" d="M 56.25 -12.1781 L 70.3125 -36.5344"></path><path stroke="#000000" stroke-width="2px" d="M 70.3125 -36.5344 L 98.4375 -36.5344"></path><path stroke="#000000" stroke-width="2px" d="M 98.4375 -36.5344 L 112.5 -12.1781"></path><path stroke="#000000" stroke-width="2px" d="M 112.5 -12.1781 L 140.625 -12.1781"></path><path stroke="#000000" stroke-width="2px" d="M 140.625 -12.1781 L 154.6875 -36.5344"></path><path stroke="#000000" stroke-width="2px" d="M 154.6875 -36.5344 L 140.625 -60.8906"></path><path stroke="#000000" stroke-width="2px" d="M 140.625 -60.8906 L 154.6875 -85.2469"></path><path stroke="#000000" stroke-width="2px" d="M 154.6875 -85.2469 L 182.8125 -85.2469"></path><path stroke="#000000" stroke-width="2px" d="M 182.8125 -85.2469 L 196.875 -60.8906"></path><path stroke="#000000" stroke-width="2px" d="M 196.875 -60.8906 L 182.8125 -36.5344"></path><path stroke="#000000" stroke-width="2px" d="M 182.8125 -36.5344 L 196.875 -12.1781"></path><path stroke="#000000" stroke-width="2px" d="M 196.875 -12.1781 L 225 -12.1781"></path><path stroke="#000000" stroke-width="2px" d="M 225 -12.1781 L 239.0625 -36.5344"></path><path stroke="#000000" stroke-width="2px" d="M 239.0625 -36.5344 L 267.1875 -36.5344"></path><path stroke="#000000" stroke-width="2px" d="M 267.1875 -36.5344 L 281.25 -12.1781"></path><path stroke="#000000" stroke-width="2px" d="M 281.25 -12.1781 L 309.375 -12.1781"></path><path stroke="#000000" stroke-width="2px" d="M 309.375 -12.1781 L 323.4375 -36.5344"></path><path stroke="#000000" stroke-width="2px" d="M 323.4375 -36.5344 L 309.375 -60.8906"></path><path stroke="#000000" stroke-width="2px" d="M 309.375 -60.8906 L 281.25 -60.8906"></path><path stroke="#000000" stroke-width="2px" d="M 281.25 -60.8906 L 267.1875 -85.2469"></path><path stroke="#000000" stroke-width="2px" d="M 267.1875 -85.2469 L 281.25 -109.6031"></path><path stroke="#000000" stroke-width="2px" d="M 281.25 -109.6031 L 309.375 -109.6031"></path><path stroke="#000000" stroke-width="2px" d="M 309.375 -109.6031 L 323.4375 -133.9594"></path><path stroke="#000000" stroke-width="2px" d="M 323.4375 -133.9594 L 309.375 -158.3156"></path><path stroke="#000000" stroke-width="2px" d="M 309.375 -158.3156 L 323.4375 -182.6719"></path><path stroke="#000000" stroke-width="2px" d="M 323.4375 -182.6719 L 351.5625 -182.6719"></path><path stroke="#000000" stroke-width="2px" d="M 351.5625 -182.6719 L 365.625 -158.3156"></path><path stroke="#000000" stroke-width="2px" d="M 365.625 -158.3156 L 351.5625 -133.9594"></path><path stroke="#000000" stroke-width="2px" d="M 351.5625 -133.9594 L 365.625 -109.6031"></path><path stroke="#000000" stroke-width="2px" d="M 365.625 -109.6031 L 393.75 -109.6031"></path><path stroke="#000000" stroke-width="2px" d="M 393.75 -109.6031 L 407.8125 -85.2469"></path><path stroke="#000000" stroke-width="2px" d="M 407.8125 -85.2469 L 393.75 -60.8906"></path><path stroke="#000000" stroke-width="2px" d="M 393.75 -60.8906 L 365.625 -60.8906"></path><path stroke="#000000" stroke-width="2px" d="M 365.625 -60.8906 L 351.5625 -36.5344"></path><path stroke="#000000" stroke-width="2px" d="M 351.5625 -36.5344 L 365.625 -12.1781"></path><path stroke="#000000" stroke-width="2px" d="M 365.625 -12.1781 L 393.75 -12.1781"></path><path stroke="#000000" stroke-width="2px" d="M 393.75 -12.1781 L 407.8125 -36.5344"></path><path stroke="#000000" stroke-width="2px" d="M 407.8125 -36.5344 L 435.9375 -36.5344"></path><path stroke="#000000" stroke-width="2px" d="M 435.9375 -36.5344 L 450 -12.1781"></path><path stroke="#000000" stroke-width="2px" d="M 450 -12.1781 L 435.9375 12.1781"></path><path stroke="#000000" stroke-width="2px" d="M 435.9375 12.1781 L 450 36.5344"></path><path stroke="#000000" stroke-width="2px" d="M 450 36.5344 L 478.125 36.5344"></path><path stroke="#000000" stroke-width="2px" d="M 478.125 36.5344 L 492.1875 60.8906"></path><path stroke="#000000" stroke-width="2px" d="M 492.1875 60.8906 L 478.125 85.2469"></path><path stroke="#000000" stroke-width="2px" d="M 478.125 85.2469 L 450 85.2469"></path><path stroke="#000000" stroke-width="2px" d="M 450 85.2469 L 435.9375 60.8906"></path><path stroke="#000000" stroke-width="2px" d="M 435.9375 60.8906 L 407.8125 60.8906"></path><path stroke="#000000" stroke-width="2px" d="M 407.8125 60.8906 L 393.75 85.2469"></path><path stroke="#000000" stroke-width="2px" d="M 393.75 85.2469 L 407.8125 109.6031"></path><path stroke="#000000" stroke-width="2px" d="M 407.8125 109.6031 L 393.75 133.9594"></path><path stroke="#000000" stroke-width="2px" d="M 393.75 133.9594 L 365.625 133.9594"></path><path stroke="#000000" stroke-width="2px" d="M 365.625 133.9594 L 351.5625 158.3156"></path><path stroke="#000000" stroke-width="2px" d="M 351.5625 158.3156 L 365.625 182.6719"></path><path stroke="#000000" stroke-width="2px" d="M 365.625 182.6719 L 393.75 182.6719"></path><path stroke="#000000" stroke-width="2px" d="M 393.75 182.6719 L 407.8125 158.3156"></path><path stroke="#000000" stroke-width="2px" d="M 407.8125 158.3156 L 435.9375 158.3156"></path><path stroke="#000000" stroke-width="2px" d="M 435.9375 158.3156 L 450 182.6719"></path><path stroke="#000000" stroke-width="2px" d="M 450 182.6719 L 478.125 182.6719"></path><path stroke="#000000" stroke-width="2px" d="M 478.125 182.6719 L 492.1875 158.3156"></path><path stroke="#000000" stroke-width="2px" d="M 492.1875 158.3156 L 478.125 133.9594"></path><path stroke="#000000" stroke-width="2px" d="M 478.125 133.9594 L 492.1875 109.6031"></path><path stroke="#000000" stroke-width="2px" d="M 492.1875 109.6031 L 520.3125 109.6031"></path><path stroke="#000000" stroke-width="2px" d="M 520.3125 109.6031 L 534.375 133.9594"></path><path stroke="#000000" stroke-width="2px" d="M 534.375 133.9594 L 520.3125 158.3156"></path><path stroke="#000000" stroke-width="2px" d="M 520.3125 158.3156 L 534.375 182.6719"></path><path stroke="#000000" stroke-width="2px" d="M 534.375 182.6719 L 562.5 182.6719"></path><path stroke="#000000" stroke-width="2px" d="M 562.5 182.6719 L 576.5625 207.0281"></path><path stroke="#000000" stroke-width="2px" d="M 576.5625 207.0281 L 562.5 231.3844"></path><path stroke="#000000" stroke-width="2px" d="M 562.5 231.3844 L 534.375 231.3844"></path><path stroke="#000000" stroke-width="2px" d="M 534.375 231.3844 L 520.3125 255.7406"></path><path stroke="#000000" stroke-width="2px" d="M 520.3125 255.7406 L 534.375 280.0969"></path><path stroke="#000000" stroke-width="2px" d="M 534.375 280.0969 L 562.5 280.0969"></path><path stroke="#000000" stroke-width="2px" d="M 562.5 280.0969 L 576.5625 255.7406"></path><path stroke="#000000" stroke-width="2px" d="M 576.5625 255.7406 L 604.6875 255.7406"></path><path stroke="#000000" stroke-width="2px" d="M 604.6875 255.7406 L 618.75 280.0969"></path><path stroke="#000000" stroke-width="2px" d="M 618.75 280.0969 L 604.6875 304.4531"></path><path stroke="#000000" stroke-width="2px" d="M 604.6875 304.4531 L 618.75 328.8094"></path><path stroke="#000000" stroke-width="2px" d="M 618.75 328.8094 L 646.875 328.8094"></path><path stroke="#000000" stroke-width="2px" d="M 646.875 328.8094 L 660.9375 353.1656"></path><path stroke="#000000" stroke-width="2px" d="M 660.9375 353.1656 L 646.875 377.5219"></path><path stroke="#000000" stroke-width="2px" d="M 646.875 377.5219 L 618.75 377.5219"></path><path stroke="#000000" stroke-width="2px" d="M 618.75 377.5219 L 604.6875 353.1656"></path><path stroke="#000000" stroke-width="2px" d="M 604.6875 353.1656 L 576.5625 353.1656"></path><path stroke="#000000" stroke-width="2px" d="M 576.5625 353.1656 L 562.5 377.5219"></path><path stroke="#000000" stroke-width="2px" d="M 562.5 377.5219 L 534.375 377.5219"></path><path stroke="#000000" stroke-width="2px" d="M 534.375 377.5219 L 520.3125 353.1656"></path><path stroke="#000000" stroke-width="2px" d="M 520.3125 353.1656 L 534.375 328.8094"></path><path stroke="#000000" stroke-width="2px" d="M 534.375 328.8094 L 520.3125 304.4531"></path><path stroke="#000000" stroke-width="2px" d="M 520.3125 304.4531 L 492.1875 304.4531"></path><path stroke="#000000" stroke-width="2px" d="M 492.1875 304.4531 L 478.125 328.8094"></path><path stroke="#000000" stroke-width="2px" d="M 478.125 328.8094 L 492.1875 353.1656"></path><path stroke="#000000" stroke-width="2px" d="M 492.1875 353.1656 L 478.125 377.5219"></path><path stroke="#000000" stroke-width="2px" d="M 478.125 377.5219 L 450 377.5219"></path><path stroke="#000000" stroke-width="2px" d="M 450 377.5219 L 435.9375 353.1656"></path><path stroke="#000000" stroke-width="2px" d="M 435.9375 353.1656 L 407.8125 353.1656"></path><path stroke="#000000" stroke-width="2px" d="M 407.8125 353.1656 L 393.75 377.5219"></path><path stroke="#000000" stroke-width="2px" d="M 393.75 377.5219 L 365.625 377.5219"></path><path stroke="#000000" stroke-width="2px" d="M 365.625 377.5219 L 351.5625 353.1656"></path><path stroke="#000000" stroke-width="2px" d="M 351.5625 353.1656 L 365.625 328.8094"></path><path stroke="#000000" stroke-width="2px" d="M 365.625 328.8094 L 393.75 328.8094"></path><path stroke="#000000" stroke-width="2px" d="M 393.75 328.8094 L 407.8125 304.4531"></path><path stroke="#000000" stroke-width="2px" d="M 407.8125 304.4531 L 393.75 280.0969"></path><path stroke="#000000" stroke-width="2px" d="M 393.75 280.0969 L 365.625 280.0969"></path><path stroke="#000000" stroke-width="2px" d="M 365.625 280.0969 L 351.5625 255.7406"></path><path stroke="#000000" stroke-width="2px" d="M 351.5625 255.7406 L 365.625 231.3844"></path><path stroke="#000000" stroke-width="2px" d="M 365.625 231.3844 L 351.5625 207.0281"></path><path stroke="#000000" stroke-width="2px" d="M 351.5625 207.0281 L 323.4375 207.0281"></path><path stroke="#000000" stroke-width="2px" d="M 323.4375 207.0281 L 309.375 231.3844"></path><path stroke="#000000" stroke-width="2px" d="M 309.375 231.3844 L 323.4375 255.7406"></path><path stroke="#000000" stroke-width="2px" d="M 323.4375 255.7406 L 309.375 280.0969"></path><path stroke="#000000" stroke-width="2px" d="M 309.375 280.0969 L 281.25 280.0969"></path><path stroke="#000000" stroke-width="2px" d="M 281.25 280.0969 L 267.1875 304.4531"></path><path stroke="#000000" stroke-width="2px" d="M 267.1875 304.4531 L 281.25 328.8094"></path><path stroke="#000000" stroke-width="2px" d="M 281.25 328.8094 L 309.375 328.8094"></path><path stroke="#000000" stroke-width="2px" d="M 309.375 328.8094 L 323.4375 353.1656"></path><path stroke="#000000" stroke-width="2px" d="M 323.4375 353.1656 L 309.375 377.5219"></path><path stroke="#000000" stroke-width="2px" d="M 309.375 377.5219 L 281.25 377.5219"></path><path stroke="#000000" stroke-width="2px" d="M 281.25 377.5219 L 267.1875 353.1656"></path><path stroke="#000000" stroke-width="2px" d="M 267.1875 353.1656 L 239.0625 353.1656"></path><path stroke="#000000" stroke-width="2px" d="M 239.0625 353.1656 L 225 377.5219"></path><path stroke="#000000" stroke-width="2px" d="M 225 377.5219 L 239.0625 401.8781"></path><path stroke="#000000" stroke-width="2px" d="M 239.0625 401.8781 L 225 426.2344"></path><path stroke="#000000" stroke-width="2px" d="M 225 426.2344 L 196.875 426.2344"></path><path stroke="#000000" stroke-width="2px" d="M 196.875 426.2344 L 182.8125 450.5906"></path><path stroke="#000000" stroke-width="2px" d="M 182.8125 450.5906 L 196.875 474.9469"></path><path stroke="#000000" stroke-width="2px" d="M 196.875 474.9469 L 225 474.9469"></path><path stroke="#000000" stroke-width="2px" d="M 225 474.9469 L 239.0625 450.5906"></path><path stroke="#000000" stroke-width="2px" d="M 239.0625 450.5906 L 267.1875 450.5906"></path><path stroke="#000000" stroke-width="2px" d="M 267.1875 450.5906 L 281.25 474.9469"></path><path stroke="#000000" stroke-width="2px" d="M 281.25 474.9469 L 267.1875 499.3031"></path><path stroke="#000000" stroke-width="2px" d="M 267.1875 499.3031 L 281.25 523.6594"></path><path stroke="#000000" stroke-width="2px" d="M 281.25 523.6594 L 309.375 523.6594"></path><path stroke="#000000" stroke-width="2px" d="M 309.375 523.6594 L 323.4375 548.0156"></path><path stroke="#000000" stroke-width="2px" d="M 323.4375 548.0156 L 309.375 572.3719"></path><path stroke="#000000" stroke-width="2px" d="M 309.375 572.3719 L 281.25 572.3719"></path><path stroke="#000000" stroke-width="2px" d="M 281.25 572.3719 L 267.1875 548.0156"></path><path stroke="#000000" stroke-width="2px" d="M 267.1875 548.0156 L 239.0625 548.0156"></path><path stroke="#000000" stroke-width="2px" d="M 239.0625 548.0156 L 225 572.3719"></path><path stroke="#000000" stroke-width="2px" d="M 225 572.3719 L 196.875 572.3719"></path><path stroke="#000000" stroke-width="2px" d="M 196.875 572.3719 L 182.8125 548.0156"></path><path stroke="#000000" stroke-width="2px" d="M 182.8125 548.0156 L 196.875 523.6594"></path><path stroke="#000000" stroke-width="2px" d="M 196.875 523.6594 L 182.8125 499.3031"></path><path stroke="#000000" stroke-width="2px" d="M 182.8125 499.3031 L 154.6875 499.3031"></path><path stroke="#000000" stroke-width="2px" d="M 154.6875 499.3031 L 140.625 523.6594"></path><path stroke="#000000" stroke-width="2px" d="M 140.625 523.6594 L 154.6875 548.0156"></path><path stroke="#000000" stroke-width="2px" d="M 154.6875 548.0156 L 140.625 572.3719"></path><path stroke="#000000" stroke-width="2px" d="M 140.625 572.3719 L 112.5 572.3719"></path><path stroke="#000000" stroke-width="2px" d="M 112.5 572.3719 L 98.4375 596.7281"></path><path stroke="#000000" stroke-width="2px" d="M 98.4375 596.7281 L 112.5 621.0844"></path><path stroke="#000000" stroke-width="2px" d="M 112.5 621.0844 L 140.625 621.0844"></path><path stroke="#000000" stroke-width="2px" d="M 140.625 621.0844 L 154.6875 645.4406"></path><path stroke="#000000" stroke-width="2px" d="M 154.6875 645.4406 L 140.625 669.7969"></path><path stroke="#000000" stroke-width="2px" d="M 140.625 669.7969 L 112.5 669.7969"></path><path stroke="#000000" stroke-width="2px" d="M 112.5 669.7969 L 98.4375 645.4406"></path><path stroke="#000000" stroke-width="2px" d="M 98.4375 645.4406 L 70.3125 645.4406"></path><path stroke="#000000" stroke-width="2px" d="M 70.3125 645.4406 L 56.25 669.7969"></path><path stroke="#000000" stroke-width="2px" d="M 56.25 669.7969 L 70.3125 694.1531"></path><path stroke="#000000" stroke-width="2px" d="M 70.3125 694.1531 L 56.25 718.5094"></path><path stroke="#000000" stroke-width="2px" d="M 56.25 718.5094 L 28.125 718.5094"></path><path stroke="#000000" stroke-width="2px" d="M 28.125 718.5094 L 14.0625 742.8656"></path><path stroke="#000000" stroke-width="2px" d="M 14.0625 742.8656 L 28.125 767.2219"></path><path stroke="#000000" stroke-width="2px" d="M 28.125 767.2219 L 56.25 767.2219"></path><path stroke="#000000" stroke-width="2px" d="M 56.25 767.2219 L 70.3125 742.8656"></path><path stroke="#000000" stroke-width="2px" d="M 70.3125 742.8656 L 98.4375 742.8656"></path><path stroke="#000000" stroke-width="2px" d="M 98.4375 742.8656 L 112.5 767.2219"></path><path stroke="#000000" stroke-width="2px" d="M 112.5 767.2219 L 140.625 767.2219"></path><path stroke="#000000" stroke-width="2px" d="M 140.625 767.2219 L 154.6875 742.8656"></path><path stroke="#000000" stroke-width="2px" d="M 154.6875 742.8656 L 140.625 718.5094"></path><path stroke="#000000" stroke-width="2px" d="M 140.625 718.5094 L 154.6875 694.1531"></path><path stroke="#000000" stroke-width="2px" d="M 154.6875 694.1531 L 182.8125 694.1531"></path><path stroke="#000000" stroke-width="2px" d="M 182.8125 694.1531 L 196.875 718.5094"></path><path stroke="#000000" stroke-width="2px" d="M 196.875 718.5094 L 182.8125 742.8656"></path><path stroke="#000000" stroke-width="2px" d="M 182.8125 742.8656 L 196.875 767.2219"></path><path stroke="#000000" stroke-width="2px" d="M 196.875 767.2219 L 225 767.2219"></path><path stroke="#000000" stroke-width="2px" d="M 225 767.2219 L 239.0625 742.8656"></path><path stroke="#000000" stroke-width="2px" d="M 239.0625 742.8656 L 267.1875 742.8656"></path><path stroke="#000000" stroke-width="2px" d="M 267.1875 742.8656 L 281.25 767.2219"></path><path stroke="#000000" stroke-width="2px" d="M 281.25 767.2219 L 309.375 767.2219"></path><path stroke="#000000" stroke-width="2px" d="M 309.375 767.2219 L 323.4375 742.8656"></path><path stroke="#000000" stroke-width="2px" d="M 323.4375 742.8656 L 309.375 718.5094"></path><path stroke="#000000" stroke-width="2px" d="M 309.375 718.5094 L 281.25 718.5094"></path><path stroke="#000000" stroke-width="2px" d="M 281.25 718.5094 L 267.1875 694.1531"></path><path stroke="#000000" stroke-width="2px" d="M 267.1875 694.1531 L 281.25 669.7969"></path><path stroke="#000000" stroke-width="2px" d="M 281.25 669.7969 L 309.375 669.7969"></path><path stroke="#000000" stroke-width="2px" d="M 309.375 669.7969 L 323.4375 645.4406"></path><path stroke="#000000" stroke-width="2px" d="M 323.4375 645.4406 L 309.375 621.0844"></path><path stroke="#000000" stroke-width="2px" d="M 309.375 621.0844 L 323.4375 596.7281"></path><path stroke="#000000" stroke-width="2px" d="M 323.4375 596.7281 L 351.5625 596.7281"></path><path stroke="#000000" stroke-width="2px" d="M 351.5625 596.7281 L 365.625 621.0844"></path><path stroke="#000000" stroke-width="2px" d="M 365.625 621.0844 L 351.5625 645.4406"></path><path stroke="#000000" stroke-width="2px" d="M 351.5625 645.4406 L 365.625 669.7969"></path><path stroke="#000000" stroke-width="2px" d="M 365.625 669.7969 L 393.75 669.7969"></path><path stroke="#000000" stroke-width="2px" d="M 393.75 669.7969 L 407.8125 694.1531"></path><path stroke="#000000" stroke-width="2px" d="M 407.8125 694.1531 L 393.75 718.5094"></path><path stroke="#000000" stroke-width="2px" d="M 393.75 718.5094 L 365.625 718.5094"></path><path stroke="#000000" stroke-width="2px" d="M 365.625 718.5094 L 351.5625 742.8656"></path><path stroke="#000000" stroke-width="2px" d="M 351.5625 742.8656 L 365.625 767.2219"></path><path stroke="#000000" stroke-width="2px" d="M 365.625 767.2219 L 393.75 767.2219"></path><path stroke="#000000" stroke-width="2px" d="M 393.75 767.2219 L 407.8125 742.8656"></path><path stroke="#000000" stroke-width="2px" d="M 407.8125 742.8656 L 435.9375 742.8656"></path><path stroke="#000000" stroke-width="2px" d="M 435.9375 742.8656 L 450 767.2219"></path><path stroke="#000000" stroke-width="2px" d="M 450 767.2219 L 478.125 767.2219"></path><path stroke="#000000" stroke-width="2px" d="M 478.125 767.2219 L 492.1875 742.8656"></path><path stroke="#000000" stroke-width="2px" d="M 492.1875 742.8656 L 478.125 718.5094"></path><path stroke="#000000" stroke-width="2px" d="M 478.125 718.5094 L 492.1875 694.1531"></path><path stroke="#000000" stroke-width="2px" d="M 492.1875 694.1531 L 520.3125 694.1531"></path><path stroke="#000000" stroke-width="2px" d="M 520.3125 694.1531 L 534.375 718.5094"></path><path stroke="#000000" stroke-width="2px" d="M 534.375 718.5094 L 520.3125 742.8656"></path><path stroke="#000000" stroke-width="2px" d="M 520.3125 742.8656 L 534.375 767.2219"></path><path stroke="#000000" stroke-width="2px" d="M 534.375 767.2219 L 562.5 767.2219"></path><path stroke="#000000" stroke-width="2px" d="M 562.5 767.2219 L 576.5625 742.8656"></path><path stroke="#000000" stroke-width="2px" d="M 576.5625 742.8656 L 604.6875 742.8656"></path><path stroke="#000000" stroke-width="2px" d="M 604.6875 742.8656 L 618.75 767.2219"></path><path stroke="#000000" stroke-width="2px" d="M 618.75 767.2219 L 646.875 767.2219"></path><path stroke="#000000" stroke-width="2px" d="M 646.875 767.2219 L 660.9375 742.8656"></path><path stroke="#000000" stroke-width="2px" d="M 660.9375 742.8656 L 646.875 718.5094"></path><path stroke="#000000" stroke-width="2px" d="M 646.875 718.5094 L 618.75 718.5094"></path><path stroke="#000000" stroke-width="2px" d="M 618.75 718.5094 L 604.6875 694.1531"></path><path stroke="#000000" stroke-width="2px" d="M 604.6875 694.1531 L 618.75 669.7969"></path><path stroke="#000000" stroke-width="2px" d="M 618.75 669.7969 L 604.6875 645.4406"></path><path stroke="#000000" stroke-width="2px" d="M 604.6875 645.4406 L 576.5625 645.4406"></path><path stroke="#000000" stroke-width="2px" d="M 576.5625 645.4406 L 562.5 669.7969"></path><path stroke="#000000" stroke-width="2px" d="M 562.5 669.7969 L 534.375 669.7969"></path><path stroke="#000000" stroke-width="2px" d="M 534.375 669.7969 L 520.3125 645.4406"></path><path stroke="#000000" stroke-width="2px" d="M 520.3125 645.4406 L 534.375 621.0844"></path><path stroke="#000000" stroke-width="2px" d="M 534.375 621.0844 L 562.5 621.0844"></path><path stroke="#000000" stroke-width="2px" d="M 562.5 621.0844 L 576.5625 596.7281"></path><path stroke="#000000" stroke-width="2px" d="M 576.5625 596.7281 L 562.5 572.3719"></path><path stroke="#000000" stroke-width="2px" d="M 562.5 572.3719 L 576.5625 548.0156"></path><path stroke="#000000" stroke-width="2px" d="M 576.5625 548.0156 L 604.6875 548.0156"></path><path stroke="#000000" stroke-width="2px" d="M 604.6875 548.0156 L 618.75 572.3719"></path><path stroke="#000000" stroke-width="2px" d="M 618.75 572.3719 L 646.875 572.3719"></path><path stroke="#000000" stroke-width="2px" d="M 646.875 572.3719 L 660.9375 548.0156"></path><path stroke="#000000" stroke-width="2px" d="M 660.9375 548.0156 L 646.875 523.6594"></path><path stroke="#000000" stroke-width="2px" d="M 646.875 523.6594 L 618.75 523.6594"></path><path stroke="#000000" stroke-width="2px" d="M 618.75 523.6594 L 604.6875 499.3031"></path><path stroke="#000000" stroke-width="2px" d="M 604.6875 499.3031 L 618.75 474.9469"></path><path stroke="#000000" stroke-width="2px" d="M 618.75 474.9469 L 646.875 474.9469"></path><path stroke="#000000" stroke-width="2px" d="M 646.875 474.9469 L 660.9375 450.5906"></path><path stroke="#000000" stroke-width="2px" d="M 660.9375 450.5906 L 646.875 426.2344"></path><path stroke="#000000" stroke-width="2px" d="M 646.875 426.2344 L 660.9375 401.8781"></path><path stroke="#000000" stroke-width="2px" d="M 660.9375 401.8781 L 689.0625 401.8781"></path><path stroke="#000000" stroke-width="2px" d="M 689.0625 401.8781 L 703.125 426.2344"></path><path stroke="#000000" stroke-width="2px" d="M 703.125 426.2344 L 689.0625 450.5906"></path><path stroke="#000000" stroke-width="2px" d="M 689.0625 450.5906 L 703.125 474.9469"></path><path stroke="#000000" stroke-width="2px" d="M 703.125 474.9469 L 731.25 474.9469"></path><path stroke="#000000" stroke-width="2px" d="M 731.25 474.9469 L 745.3125 499.3031"></path><path stroke="#000000" stroke-width="2px" d="M 745.3125 499.3031 L 731.25 523.6594"></path><path stroke="#000000" stroke-width="2px" d="M 731.25 523.6594 L 703.125 523.6594"></path><path stroke="#000000" stroke-width="2px" d="M 703.125 523.6594 L 689.0625 548.0156"></path><path stroke="#000000" stroke-width="2px" d="M 689.0625 548.0156 L 703.125 572.3719"></path><path stroke="#000000" stroke-width="2px" d="M 703.125 572.3719 L 731.25 572.3719"></path><path stroke="#000000" stroke-width="2px" d="M 731.25 572.3719 L 745.3125 548.0156"></path><path stroke="#000000" stroke-width="2px" d="M 745.3125 548.0156 L 773.4375 548.0156"></path><path stroke="#000000" stroke-width="2px" d="M 773.4375 548.0156 L 787.5 572.3719"></path><path stroke="#000000" stroke-width="2px" d="M 787.5 572.3719 L 773.4375 596.7281"></path><path stroke="#000000" stroke-width="2px" d="M 773.4375 596.7281 L 787.5 621.0844"></path><path stroke="#000000" stroke-width="2px" d="M 787.5 621.0844 L 815.625 621.0844"></path><path stroke="#000000" stroke-width="2px" d="M 815.625 621.0844 L 829.6875 645.4406"></path><path stroke="#000000" stroke-width="2px" d="M 829.6875 645.4406 L 815.625 669.7969"></path><path stroke="#000000" stroke-width="2px" d="M 815.625 669.7969 L 787.5 669.7969"></path><path stroke="#000000" stroke-width="2px" d="M 787.5 669.7969 L 773.4375 645.4406"></path><path stroke="#000000" stroke-width="2px" d="M 773.4375 645.4406 L 745.3125 645.4406"></path><path stroke="#000000" stroke-width="2px" d="M 745.3125 645.4406 L 731.25 669.7969"></path><path stroke="#000000" stroke-width="2px" d="M 731.25 669.7969 L 745.3125 694.1531"></path><path stroke="#000000" stroke-width="2px" d="M 745.3125 694.1531 L 731.25 718.5094"></path><path stroke="#000000" stroke-width="2px" d="M 731.25 718.5094 L 703.125 718.5094"></path><path stroke="#000000" stroke-width="2px" d="M 703.125 718.5094 L 689.0625 742.8656"></path><path stroke="#000000" stroke-width="2px" d="M 689.0625 742.8656 L 703.125 767.2219"></path><path stroke="#000000" stroke-width="2px" d="M 703.125 767.2219 L 731.25 767.2219"></path><path stroke="#000000" stroke-width="2px" d="M 731.25 767.2219 L 745.3125 742.8656"></path><path stroke="#000000" stroke-width="2px" d="M 745.3125 742.8656 L 773.4375 742.8656"></path><path stroke="#000000" stroke-width="2px" d="M 773.4375 742.8656 L 787.5 767.2219"></path><path stroke="#000000" stroke-width="2px" d="M 787.5 767.2219 L 815.625 767.2219"></path><path stroke="#000000" stroke-width="2px" d="M 815.625 767.2219 L 829.6875 742.8656"></path><path stroke="#000000" stroke-width="2px" d="M 829.6875 742.8656 L 815.625 718.5094"></path><path stroke="#000000" stroke-width="2px" d="M 815.625 718.5094 L 829.6875 694.1531"></path><path stroke="#000000" stroke-width="2px" d="M 829.6875 694.1531 L 857.8125 694.1531"></path><path stroke="#000000" stroke-width="2px" d="M 857.8125 694.1531 L 871.875 718.5094"></path><path stroke="#000000" stroke-width="2px" d="M 871.875 718.5094 L 857.8125 742.8656"></path><path stroke="#000000" stroke-width="2px" d="M 857.8125 742.8656 L 871.875 767.2219"></path><path stroke="#000000" stroke-width="2px" d="M 871.875 767.2219 L 900 767.2219"></path></g></svg>