<svg xmlns="http://www.w3.org/2000/svg" viewBox="-1000 -1000 2000 2000" width="100%" height="100%"
	xml:space="preserve" xmlns:xlink="http://wwww3.org/1999/xlink" stroke-linecap="round"
	stroke-linejoin="round"><g><path stroke="#000000" stroke-width="2px" d="M -900 900 L -833.3333 900"></path><path stroke="#000000" stroke-width="2px" d="M -833.3333 900 L -833.3333 833.3333"></path><path stroke="#000000" stroke-width="2px" d="M -833.3333 833.3333 L -766.6667 833.3333"></path><path stroke="#000000" stroke-width="2px" d="M -766.6667 833.3333 L -766.6667 900"></path><path stroke="#000000" stroke-width="2px" d="M -766.6667 900 L -700 900"></path><path stroke="#000000" stroke-width="2px" d="M -700 900 L -700 833.3333"></path><path stroke="#000000" stroke-width="2px" d="M -700 833.3333 L -766.6667 833.3333"></path><path stroke="#000000" stroke-width="2px" d="M -766.6667 833.3333 L -766.6667 766.6667"></path><path stroke="#000000" stroke-width="2px" d="M -766.6667 766.6667 L -700 766.6667"></path><path stroke="#000000" stroke-width="2px" d="M -700 766.6667 L -700 700"></path><path stroke="#000000" stroke-width="2px" d="M -700 700 L -633.3333 700"></path><path stroke="#000000" stroke-width="2px" d="M -633.3333 700 L -633.3333 633.3333"></path><path stroke="#000000" stroke-width="2px" d="M -633.3333 633.3333 L -566.6667 633.3333"></path><path stroke="#000000" stroke-width="2px" d="M -566.6667 633.3333 L -566.6667 700"></path><path stroke="#000000" stroke-width="2px" d="M -566.6667 700 L -500 700"></path><path stroke="#000000" stroke-width="2px" d="M -500 700 L -500 766.6667"></path><path stroke="#000000" stroke-width="2px" d="M -500 766.6667 L -433.3333 766.6667"></path><path stroke="#000000" stroke-width="2px" d="M -433.3333 766.6667 L -433.3333 833.3333"></path><path stroke="#000000" stroke-width="2px" d="M -433.3333 833.3333 L -500 833.3333"></path><path stroke="#000000" stroke-width="2px" d="M -500 833.3333 L -500 900"></path><path stroke="#000000" stroke-width="2px" d="M -500 900 L -433.3333 900"></path><path stroke="#000000" stroke-width="2px" d="M -433.3333 900 L -433.3333 833.3333"></path><path stroke="#000000" stroke-width="2px" d="M -433.3333 833.3333 L -366.6667 833.3333"></path><path stroke="#000000" stroke-width="2px" d="M -366.6667 833.3333 L -366.6667 900"></path><path stroke="#000000" stroke-width="2px" d="M -366.6667 900 L -300 900"></path><path stroke="#000000" stroke-width="2px" d="M -300 900 L -300 833.3333"></path><path stroke="#000000" stroke-width="2px" d="M -300 833.3333 L -366.6667 833.3333"></path><path stroke="#000000" stroke-width="2px" d="M -366.6667 833.3333 L -366.6667 766.6667"></path><path stroke="#000000" stroke-width="2px" d="M -366.6667 766.6667 L -300 766.6667"></path><path stroke="#000000" stroke-width="2px" d="M -300 766.6667 L -300 700"></path><path stroke="#000000" stroke-width="2px" d="M -300 700 L -366.6667 700"></path><path stroke="#000000" stroke-width="2px" d="M -366.6667 700 L -366.6667 766.6667"></path><path stroke="#000000" stroke-width="2px" d="M -366.6667 766.6667 L -433.3333 766.6667"></path><path stroke="#000000" stroke-width="2px" d="M -433.3333 766.6667 L -433.3333 700"></path><path stroke="#000000" stroke-width="2px" d="M -433.3333 700 L -500 700"></path><path stroke="#000000" stroke-width="2px" d="M -500 700 L -500 633.3333"></path><path stroke="#000000" stroke-width="2px" d="M -500 633.3333 L -566.6667 633.3333"></path><path stroke="#000000" stroke-width="2px" d="M -566.6667 633.3333 L -566.6667 566.6667"></path><path stroke="#000000" stroke-width="2px" d="M -566.6667 566.6667 L -500 566.6667"></path><path stroke="#000000" stroke-width="2px" d="M -500 566.6667 L -500 500"></path><path stroke="#000000" stroke-width="2px" d="M -500 500 L -433.3333 500"></path><path stroke="#000000" stroke-width="2px" d="M -433.3333 500 L -433.3333 433.3333"></path><path stroke="#000000" stroke-width="2px" d="M -433.3333 433.3333 L -366.6667 433.3333"></path><path stroke="#000000" stroke-width="2px" d="M -366.6667 433.3333 L -366.6667 500"></path><path stroke="#000000" stroke-width="2px" d="M -366.6667 500 L -300 500"></path><path stroke="#000000" stroke-width="2px" d="M -300 500 L -300 433.3333"></path><path stroke="#000000" stroke-width="2px" d="M -300 433.3333 L -366.6667 433.3333"></path><path stroke="#000000" stroke-width="2px" d="M -366.6667 433.3333 L -366.6667 366.6667"></path><path stroke="#000000" stroke-width="2px" d="M -366.6667 366.6667 L -300 366.6667"></path><path stroke="#000000" stroke-width="2px" d="M -300 366.6667 L -300 300"></path><path stroke="#000000" stroke-width="2px" d="M -300 300 L -233.3333 300"></path><path stroke="#000000" stroke-width="2px" d="M -233.3333 300 L -233.3333 233.3333"></path><path stroke="#000000" stroke-width="2px" d="M -233.3333 233.3333 L -166.6667 233.3333"></path><path stroke="#000000" stroke-width="2px" d="M -166.6667 233.3333 L -166.6667 300"></path><path stroke="#000000" stroke-width="2px" d="M -166.6667 300 L -100 300"></path><path stroke="#000000" stroke-width="2px" d="M -100 300 L -100 233.3333"></path><path stroke="#000000" stroke-width="2px" d="M -100 233.3333 L -166.6667 233.3333"></path><path stroke="#000000" stroke-width="2px" d="M -166.6667 233.3333 L -166.6667 166.6667"></path><path stroke="#000000" stroke-width="2px" d="M -166.6667 166.6667 L -100 166.6667"></path><path stroke="#000000" stroke-width="2px" d="M -100 166.6667 L -100 100"></path><path stroke="#000000" stroke-width="2px" d="M -100 100 L -33.3333 100"></path><path stroke="#000000" stroke-width="2px" d="M -33.3333 100 L -33.3333 33.3333"></path><path stroke="#000000" stroke-width="2px" d="M -33.3333 33.3333 L 33.3333 33.3333"></path><path stroke="#000000" stroke-width="2px" d="M 33.3333 33.3333 L 33.3333 100"></path><path stroke="#000000" stroke-width="2px" d="M 33.3333 100 L 100 100"></path><path stroke="#000000" stroke-width="2px" d="M 100 100 L 100 166.6667"></path><path stroke="#000000" stroke-width="2px" d="M 100 166.6667 L 166.6667 166.6667"></path><path stroke="#000000" stroke-width="2px" d="M 166.6667 166.6667 L 166.6667 233.3333"></path><path stroke="#000000" stroke-width="2px" d="M 166.6667 233.3333 L 100 233.3333"></path><path stroke="#000000" stroke-width="2px" d="M 100 233.3333 L 100 300"></path><path stroke="#000000" stroke-width="2px" d="M 100 300 L 166.6667 300"></path><path stroke="#000000" stroke-width="2px" d="M 166.6667 300 L 166.6667 233.3333"></path><path stroke="#000000" stroke-width="2px" d="M 166.6667 233.3333 L 233.3333 233.3333"></path><path stroke="#000000" stroke-width="2px" d="M 233.3333 233.3333 L 233.3333 300"></path><path stroke="#000000" stroke-width="2px" d="M 233.3333 300 L 300 300"></path><path stroke="#000000" stroke-width="2px" d="M 300 300 L 300 366.6667"></path><path stroke="#000000" stroke-width="2px" d="M 300 366.6667 L 366.6667 366.6667"></path><path stroke="#000000" stroke-width="2px" d="M 366.6667 366.6667 L 366.6667 433.3333"></path><path stroke="#000000" stroke-width="2px" d="M 366.6667 433.3333 L 300 433.3333"></path><path stroke="#000000" stroke-width="2px" d="M 300 433.3333 L 300 500"></path><path stroke="#000000" stroke-width="2px" d="M 300 500 L 366.6667 500"></path><path stroke="#000000" stroke-width="2px" d="M 366.6667 500 L 366.6667 433.3333"></path><path stroke="#000000" stroke-width="2px" d="M 366.6667 433.3333 L 433.3333 433.3333"></path><path stroke="#000000" stroke-width="2px" d="M 433.3333 433.3333 L 433.3333 500"></path><path stroke="#000000" stroke-width="2px" d="M 433.3333 500 L 500 500"></path><path stroke="#000000" stroke-width="2px" d="M 500 500 L 500 566.6667"></path><path stroke="#000000" stroke-width="2px" d="M 500 566.6667 L 566.6667 566.6667"></path><path stroke="#000000" stroke-width="2px" d="M 566.6667 566.6667 L 566.6667 633.3333"></path><path stroke="#000000" stroke-width="2px" d="M 566.6667 633.3333 L 500 633.3333"></path><path stroke="#000000" stroke-width="2px" d="M 500 633.3333 L 500 700"></path><path stroke="#000000" stroke-width="2px" d="M 500 700 L 433.3333 700"></path><path stroke="#000000" stroke-width="2px" d="M 433.3333 700 L 433.3333 766.6667"></path><path stroke="#000000" stroke-width="2px" d="M 433.3333 766.6667 L 366.6667 766.6667"></path><path stroke="#000000" stroke-width="2px" d="M 366.6667 766.6667 L 366.6667 700"></path><path stroke="#000000" stroke-width="2px" d="M 366.6667 700 L 300 700"></path><path stroke="#000000" stroke-width="2px" d="M 300 700 L 300 766.6667"></path><path stroke="#000000" stroke-width="2px" d="M 300 766.6667 L 366.6667 766.6667"></path><path stroke="#000000" stroke-width="2px" d="M 366.6667 766.6667 L 366.6667 833.3333"></path><path stroke="#000000" stroke-width="2px" d="M 366.6667 833.3333 L 300 833.3333"></path><path stroke="#000000" stroke-width="2px" d="M 300 833.3333 L 300 900"></path><path stroke="#000000" stroke-width="2px" d="M 300 900 L 366.6667 900"></path><path stroke="#000000" stroke-width="2px" d="M 366.6667 900 L 366.6667 833.3333"></path><path stroke="#000000" stroke-width="2px" d="M 366.6667 833.3333 L 433.3333 833.3333"></path><path stroke="#000000" stroke-width="2px" d="M 433.3333 833.3333 L 433.3333 900"></path><path stroke="#000000" stroke-width="2px" d="M 433.3333 900 L 500 900"></path><path stroke="#000000" stroke-width="2px" d="M 500 900 L 500 833.3333"></path><path stroke="#000000" stroke-width="2px" d="M 500 833.3333 L 433.3333 833.3333"></path><path stroke="#000000" stroke-width="2px" d="M 433.3333 833.3333 L 433.3333 766.6667"></path><path stroke="#000000" stroke-width="2px" d="M 433.3333 766.6667 L 500 766.6667"></path><path stroke="#000000" stroke-width="2px" d="M 500 766.6667 L 500 700"></path><path stroke="#000000" stroke-width="2px" d="M 500 700 L 566.6667 700"></path><path stroke="#000000" stroke-width="2px" d="M 566.6667 700 L 566.6667 633.3333"></path><path stroke="#000000" stroke-width="2px" d="M 566.6667 633.3333 L 633.3333 633.3333"></path><path stroke="#000000" stroke-width="2px" d="M 633.3333 633.3333 L 633.3333 700"></path><path stroke="#000000" stroke-width="2px" d="M 633.3333 700 L 700 700"></path><path stroke="#000000" stroke-width="2px" d="M 700 700 L 700 766.6667"></path><path stroke="#000000" stroke-width="2px" d="M 700 766.6667 L 766.6667 766.6667"></path><path stroke="#000000" stroke-width="2px" d="M 766.6667 766.6667 L 766.6667 833.3333"></path><path stroke="#000000" stroke-width="2px" d="M 766.6667 833.3333 L 700 833.3333"></path><path stroke="#000000" stroke-width="2px" d="M 700 833.3333 L 700 900"></path><path stroke="#000000" stroke-width="2px" d="M 700 900 L 766.6667 900"></path><path stroke="#000000" stroke-width="2px" d="M 766.6667 900 L 766.6667 833.3333"></path><path stroke="#000000" stroke-width="2px" d="M 766.6667 833.3333 L 833.3333 833.3333"></path><path stroke="#000000" stroke-width="2px" d="M 833.3333 833.3333 L 833.3333 900"></path><path stroke="#000000" stroke-width="2px" d="M 833.3333 900 L 900 900"></path><path stroke="#000000" stroke-width="2px" d="M 900 900 L 900 833.3333"></path><path stroke="#000000" stroke-width="2px" d="M 900 833.3333 L 833.3333 833.3333"></path><path stroke="#000000" stroke-width="2px" d="M 833.3333 833.3333 L 833.3333 766.6667"></path><path stroke="#000000" stroke-width="2px" d="M 833.3333 766.6667 L 900 766.6667"></path><path stroke="#000000" stroke-width="2px" d="M 900 766.6667 L 900 700"></path><path stroke="#000000" stroke-width="2px" d="M 900 700 L 833.3333 700"></path><path stroke="#000000" stroke-width="2px" d="M 833.3333 700 L 833.3333 766.6667"></path><path stroke="#000000" stroke-width="2px" d="M 833.3333 766.6667 L 766.6667 766.6667"></path><path stroke="#000000" stroke-width="2px" d="M 766.6667 766.6667 L 766.6667 700"></path><path stroke="#000000" stroke-width="2px" d="M 766.6667 700 L 700 700"></path><path stroke="#000000" stroke-width="2px" d="M 700 700 L 700 633.3333"></path><path stroke="#000000" stroke-width="2px" d="M 700 633.3333 L 633.3333 633.3333"></path><path stroke="#000000" stroke-width="2px" d="M 633.3333 633.3333 L 633.3333 566.6667"></path><path stroke="#000000" stroke-width="2px" d="M 633.3333 566.6667 L 700 566.6667"></path><path stroke="#000000" stroke-width="2px" d="M 700 566.6667 L 700 500"></path><path stroke="#000000" stroke-width="2px" d="M 700 500 L 766.6667 500"></path><path stroke="#000000" stroke-width="2px" d="M 766.6667 500 L 766.6667 433.3333"></path><path stroke="#000000" stroke-width="2px" d="M 766.6667 433.3333 L 833.3333 433.3333"></path><path stroke="#000000" stroke-width="2px" d="M 833.3333 433.3333 L 833.3333 500"></path><path stroke="#000000" stroke-width="2px" d="M 833.3333 500 L 900 500"></path><path stroke="#000000" stroke-width="2px" d="M 900 500 L 900 433.3333"></path><path stroke="#000000" stroke-width="2px" d="M 900 433.3333 L 833.3333 433.3333"></path><path stroke="#000000" stroke-width="2px" d="M 833.3333 433.3333 L 833.3333 366.6667"></path><path stroke="#000000" stroke-width="2px" d="M 833.3333 366.6667 L 900 366.6667"></path><path stroke="#000000" stroke-width="2px" d="M 900 366.6667 L 900 300"></path><path stroke="#000000" stroke-width="2px" d="M 900 300 L 833.3333 300"></path><path stroke="#000000" stroke-width="2px" d="M 833.3333 300 L 833.3333 366.6667"></path><path stroke="#000000" stroke-width="2px" d="M 833.3333 366.6667 L 766.6667 366.6667"></path><path stroke="#000000" stroke-width="2px" d="M 766.6667 366.6667 L 766.6667 300"></path><path stroke="#000000" stroke-width="2px" d="M 766.6667 300 L 700 300"></path><path stroke="#000000" stroke-width="2px" d="M 700 300 L 700 366.6667"></path><path stroke="#000000" stroke-width="2px" d="M 700 366.6667 L 766.6667 366.6667"></path><path stroke="#000000" stroke-width="2px" d="M 766.6667 366.6667 L 766.6667 433.3333"></path><path stroke="#000000" stroke-width="2px" d="M 766.6667 433.3333 L 700 433.3333"></path><path stroke="#000000" stroke-width="2px" d="M 700 433.3333 L 700 500"></path><path stroke="#000000" stroke-width="2px" d="M 700 500 L 633.3333 500"></path><path stroke="#000000" stroke-width="2px" d="M 633.3333 500 L 633.3333 566.6667"></path><path stroke="#000000" stroke-width="2px" d="M 633.3333 566.6667 L 566.6667 566.6667"></path><path stroke="#000000" stroke-width="2px" d="M 566.6667 566.6667 L 566.6667 500"></path><path stroke="#000000" stroke-width="2px" d="M 566.6667 500 L 500 500"></path><path stroke="#000000" stroke-width="2px" d="M 500 500 L 500 433.3333"></path><path stroke="#000000" stroke-width="2px" d="M 500 433.3333 L 433.3333 433.3333"></path><path stroke="#000000" stroke-width="2px" d="M 433.3333 433.3333 L 433.3333 366.6667"></path><path stroke="#000000" stroke-width="2px" d="M 433.3333 366.6667 L 500 366.6667"></path><path stroke="#000000" stroke-width="2px" d="M 500 366.6667 L 500 300"></path><path stroke="#000000" stroke-width="2px" d="M 500 300 L 433.3333 300"></path><path stroke="#000000" stroke-width="2px" d="M 433.3333 300 L 433.3333 366.6667"></path><path stroke="#000000" stroke-width="2px" d="M 433.3333 366.6667 L 366.6667 366.6667"></path><path stroke="#000000" stroke-width="2px" d="M 366.6667 366.6667 L 366.6667 300"></path><path stroke="#000000" stroke-width="2px" d="M 366.6667 300 L 300 300"></path><path stroke="#000000" stroke-width="2px" d="M 300 300 L 300 233.3333"></path><path stroke="#000000" stroke-width="2px" d="M 300 233.3333 L 233.3333 233.3333"></path><path stroke="#000000" stroke-width="2px" d="M 233.3333 233.3333 L 233.3333 166.6667"></path><path stroke="#000000" stroke-width="2px" d="M 233.3333 166.6667 L 300 166.6667"></path><path stroke="#000000" stroke-width="2px" d="M 300 166.6667 L 300 100"></path><path stroke="#000000" stroke-width="2px" d="M 300 100 L 233.3333 100"></path><path stroke="#000000" stroke-width="2px" d="M 233.3333 100 L 233.3333 166.6667"></path><path stroke="#000000" stroke-width="2px" d="M 233.3333 166.6667 L 166.6667 166.6667"></path><path stroke="#000000" stroke-width="2px" d="M 166.6667 166.6667 L 166.6667 100"></path><path stroke="#000000" stroke-width="2px" d="M 166.6667 100 L 100 100"></path><path stroke="#000000" stroke-width="2px" d="M 100 100 L 100 33.3333"></path><path stroke="#000000" stroke-width="2px" d="M 100 33.3333 L 33.3333 33.3333"></path><path stroke="#000000" stroke-width="2px" d="M 33.3333 33.3333 L 33.3333 -33.3333"></path><path stroke="#000000" stroke-width="2px" d="M 33.3333 -33.3333 L 100 -33.3333"></path><path stroke="#000000" stroke-width="2px" d="M 100 -33.3333 L 100 -100"></path><path stroke="#000000" stroke-width="2px" d="M 100 -100 L 166.6667 -100"></path><path stroke="#000000" stroke-width="2px" d="M 166.6667 -100 L 166.6667 -166.6667"></path><path stroke="#000000" stroke-width="2px" d="M 166.6667 -166.6667 L 233.3333 -166.6667"></path><path stroke="#000000" stroke-width="2px" d="M 233.3333 -166.6667 L 233.3333 -100"></path><path stroke="#000000" stroke-width="2px" d="M 233.3333 -100 L 300 -100"></path><path stroke="#000000" stroke-width="2px" d="M 300 -100 L 300 -166.6667"></path><path stroke="#000000" stroke-width="2px" d="M 300 -166.6667 L 233.3333 -166.6667"></path><path stroke="#000000" stroke-width="2px" d="M 233.3333 -166.6667 L 233.3333 -233.3333"></path><path stroke="#000000" stroke-width="2px" d="M 233.3333 -233.3333 L 300 -233.3333"></path><path stroke="#000000" stroke-width="2px" d="M 300 -233.3333 L 300 -300"></path><path stroke="#000000" stroke-width="2px" d="M 300 -300 L 366.6667 -300"></path><path stroke="#000000" stroke-width="2px" d="M 366.6667 -300 L 366.6667 -366.6667"></path><path stroke="#000000" stroke-width="2px" d="M 366.6667 -366.6667 L 433.3333 -366.6667"></path><path stroke="#000000" stroke-width="2px" d="M 433.3333 -366.6667 L 433.3333 -300"></path><path stroke="#000000" stroke-width="2px" d="M 433.3333 -300 L 500 -300"></path><path stroke="#000000" stroke-width="2px" d="M 500 -300 L 500 -366.6667"></path><path stroke="#000000" stroke-width="2px" d="M 500 -366.6667 L 433.3333 -366.6667"></path><path stroke="#000000" stroke-width="2px" d="M 433.3333 -366.6667 L 433.3333 -433.3333"></path><path stroke="#000000" stroke-width="2px" d="M 433.3333 -433.3333 L 500 -433.3333"></path><path stroke="#000000" stroke-width="2px" d="M 500 -433.3333 L 500 -500"></path><path stroke="#000000" stroke-width="2px" d="M 500 -500 L 566.6667 -500"></path><path stroke="#000000" stroke-width="2px" d="M 566.6667 -500 L 566.6667 -566.6667"></path><path stroke="#000000" stroke-width="2px" d="M 566.6667 -566.6667 L 633.3333 -566.6667"></path><path stroke="#000000" stroke-width="2px" d="M 633.3333 -566.6667 L 633.3333 -500"></path><path stroke="#000000" stroke-width="2px" d="M 633.3333 -500 L 700 -500"></path><path stroke="#000000" stroke-width="2px" d="M 700 -500 L 700 -433.3333"></path><path stroke="#000000" stroke-width="2px" d="M 700 -433.3333 L 766.6667 -433.3333"></path><path stroke="#000000" stroke-width="2px" d="M 766.6667 -433.3333 L 766.6667 -366.6667"></path><path stroke="#000000" stroke-width="2px" d="M 766.6667 -366.6667 L 700 -366.6667"></path><path stroke="#000000" stroke-width="2px" d="M 700 -366.6667 L 700 -300"></path><path stroke="#000000" stroke-width="2px" d="M 700 -300 L 766.6667 -300"></path><path stroke="#000000" stroke-width="2px" d="M 766.6667 -300 L 766.6667 -366.6667"></path><path stroke="#000000" stroke-width="2px" d="M 766.6667 -366.6667 L 833.3333 -366.6667"></path><path stroke="#000000" stroke-width="2px" d="M 833.3333 -366.6667 L 833.3333 -300"></path><path stroke="#000000" stroke-width="2px" d="M 833.3333 -300 L 900 -300"></path><path stroke="#000000" stroke-width="2px" d="M 900 -300 L 900 -366.6667"></path><path stroke="#000000" stroke-width="2px" d="M 900 -366.6667 L 833.3333 -366.6667"></path><path stroke="#000000" stroke-width="2px" d="M 833.3333 -366.6667 L 833.3333 -433.3333"></path><path stroke="#000000" stroke-width="2px" d="M 833.3333 -433.3333 L 900 -433.3333"></path><path stroke="#000000" stroke-width="2px" d="M 900 -433.3333 L 900 -500"></path><path stroke="#000000" stroke-width="2px" d="M 900 -500 L 833.3333 -500"></path><path stroke="#000000" stroke-width="2px" d="M 833.3333 -500 L 833.3333 -433.3333"></path><path stroke="#000000" stroke-width="2px" d="M 833.3333 -433.3333 L 766.6667 -433.3333"></path><path stroke="#000000" stroke-width="2px" d="M 766.6667 -433.3333 L 766.6667 -500"></path><path stroke="#000000" stroke-width="2px" d="M 766.6667 -500 L 700 -500"></path><path stroke="#000000" stroke-width="2px" d="M 700 -500 L 700 -566.6667"></path><path stroke="#000000" stroke-width="2px" d="M 700 -566.6667 L 633.3333 -566.6667"></path><path stroke="#000000" stroke-width="2px" d="M 633.3333 -566.6667 L 633.3333 -633.3333"></path><path stroke="#000000" stroke-width="2px" d="M 633.3333 -633.3333 L 700 -633.3333"></path><path stroke="#000000" stroke-width="2px" d="M 700 -633.3333 L 700 -700"></path><path stroke="#000000" stroke-width="2px" d="M 700 -700 L 766.6667 -700"></path><path stroke="#000000" stroke-width="2px" d="M 766.6667 -700 L 766.6667 -766.6667"></path><path stroke="#000000" stroke-width="2px" d="M 766.6667 -766.6667 L 833.3333 -766.6667"></path><path stroke="#000000" stroke-width="2px" d="M 833.3333 -766.6667 L 833.3333 -700"></path><path stroke="#000000" stroke-width="2px" d="M 833.3333 -700 L 900 -700"></path><path stroke="#000000" stroke-width="2px" d="M 900 -700 L 900 -766.6667"></path><path stroke="#000000" stroke-width="2px" d="M 900 -766.6667 L 833.3333 -766.6667"></path><path stroke="#000000" stroke-width="2px" d="M 833.3333 -766.6667 L 833.3333 -833.3333"></path><path stroke="#000000" stroke-width="2px" d="M 833.3333 -833.3333 L 900 -833.3333"></path><path stroke="#000000" stroke-width="2px" d="M 900 -833.3333 L 900 -900"></path><path stroke="#000000" stroke-width="2px" d="M 900 -900 L 833.3333 -900"></path><path stroke="#000000" stroke-width="2px" d="M 833.3333 -900 L 833.3333 -833.3333"></path><path stroke="#000000" stroke-width="2px" d="M 833.3333 -833.3333 L 766.6667 -833.3333"></path><path stroke="#000000" stroke-width="2px" d="M 766.6667 -833.3333 L 766.6667 -900"></path><path stroke="#000000" stroke-width="2px" d="M 766.6667 -900 L 700 -900"></path><path stroke="#000000" stroke-width="2px" d="M 700 -900 L 700 -833.3333"></path><path stroke="#000000" stroke-width="2px" d="M 700 -833.3333 L 766.6667 -833.3333"></path><path stroke="#000000" stroke-width="2px" d="M 766.6667 -833.3333 L 766.6667 -766.6667"></path><path stroke="#000000" stroke-width="2px" d="M 766.6667 -766.6667 L 700 -766.6667"></path><path stroke="#000000" stroke-width="2px" d="M 700 -766.6667 L 700 -700"></path><path stroke="#000000" stroke-width="2px" d="M 700 -700 L 633.3333 -700"></path><path stroke="#000000" stroke-width="2px" d="M 633.3333 -700 L 633.3333 -633.3333"></path><path stroke="#000000" stroke-width="2px" d="M 633.3333 -633.3333 L 566.6667 -633.3333"></path><path stroke="#000000" stroke-width="2px" d="M 566.6667 -633.3333 L 566.6667 -700"></path><path stroke="#000000" stroke-width="2px" d="M 566.6667 -700 L 500 -700"></path><path stroke="#000000" stroke-width="2px" d="M 500 -700 L 500 -766.6667"></path><path stroke="#000000" stroke-width="2px" d="M 500 -766.6667 L 433.3333 -766.6667"></path><path stroke="#000000" stroke-width="2px" d="M 433.3333 -766.6667 L 433.3333 -833.3333"></path><path stroke="#000000" stroke-width="2px" d="M 433.3333 -833.3333 L 500 -833.3333"></path><path stroke="#000000" stroke-width="2px" d="M 500 -833.3333 L 500 -900"></path><path stroke="#000000" stroke-width="2px" d="M 500 -900 L 433.3333 -900"></path><path stroke="#000000" stroke-width="2px" d="M 433.3333 -900 L 433.3333 -833.3333"></path><path stroke="#000000" stroke-width="2px" d="M 433.3333 -833.3333 L 366.6667 -833.3333"></path><path stroke="#000000" stroke-width="2px" d="M 366.6667 -833.3333 L 366.6667 -900"></path><path stroke="#000000" stroke-width="2px" d="M 366.6667 -900 L 300 -900"></path><path stroke="#000000" stroke-width="2px" d="M 300 -900 L 300 -833.3333"></path><path stroke="#000000" stroke-width="2px" d="M 300 -833.3333 L 366.6667 -833.3333"></path><path stroke="#000000" stroke-width="2px" d="M 366.6667 -833.3333 L 366.6667 -766.6667"></path><path stroke="#000000" stroke-width="2px" d="M 366.6667 -766.6667 L 300 -766.6667"></path><path stroke="#000000" stroke-width="2px" d="M 300 -766.6667 L 300 -700"></path><path stroke="#000000" stroke-width="2px" d="M 300 -700 L 366.6667 -700"></path><path stroke="#000000" stroke-width="2px" d="M 366.6667 -700 L 366.6667 -766.6667"></path><path stroke="#000000" stroke-width="2px" d="M 366.6667 -766.6667 L 433.3333 -766.6667"></path><path stroke="#000000" stroke-width="2px" d="M 433.3333 -766.6667 L 433.3333 -700"></path><path stroke="#000000" stroke-width="2px" d="M 433.3333 -700 L 500 -700"></path><path stroke="#000000" stroke-width="2px" d="M 500 -700 L 500 -633.3333"></path><path stroke="#000000" stroke-width="2px" d="M 500 -633.3333 L 566.6667 -633.3333"></path><path stroke="#000000" stroke-width="2px" d="M 566.6667 -633.3333 L 566.6667 -566.6667"></path><path stroke="#000000" stroke-width="2px" d="M 566.6667 -566.6667 L 500 -566.6667"></path><path stroke="#000000" stroke-width="2px" d="M 500 -566.6667 L 500 -500"></path><path stroke="#000000" stroke-width="2px" d="M 500 -500 L 433.3333 -500"></path><path stroke="#000000" stroke-width="2px" d="M 433.3333 -500 L 433.3333 -433.3333"></path><path stroke="#000000" stroke-width="2px" d="M 433.3333 -433.3333 L 366.6667 -433.3333"></path><path stroke="#000000" stroke-width="2px" d="M 366.6667 -433.3333 L 366.6667 -500"></path><path stroke="#000000" stroke-width="2px" d="M 366.6667 -500 L 300 -500"></path><path stroke="#000000" stroke-width="2px" d="M 300 -500 L 300 -433.3333"></path><path stroke="#000000" stroke-width="2px" d="M 300 -433.3333 L 366.6667 -433.3333"></path><path stroke="#000000" stroke-width="2px" d="M 366.6667 -433.3333 L 366.6667 -366.6667"></path><path stroke="#000000" stroke-width="2px" d="M 366.6667 -366.6667 L 300 -366.6667"></path><path stroke="#000000" stroke-width="2px" d="M 300 -366.6667 L 300 -300"></path><path stroke="#000000" stroke-width="2px" d="M 300 -300 L 233.3333 -300"></path><path stroke="#000000" stroke-width="2px" d="M 233.3333 -300 L 233.3333 -233.3333"></path><path stroke="#000000" stroke-width="2px" d="M 233.3333 -233.3333 L 166.6667 -233.3333"></path><path stroke="#000000" stroke-width="2px" d="M 166.6667 -233.3333 L 166.6667 -300"></path><path stroke="#000000" stroke-width="2px" d="M 166.6667 -300 L 100 -300"></path><path stroke="#000000" stroke-width="2px" d="M 100 -300 L 100 -233.3333"></path><path stroke="#000000" stroke-width="2px" d="M 100 -233.3333 L 166.6667 -233.3333"></path><path stroke="#000000" stroke-width="2px" d="M 166.6667 -233.3333 L 166.6667 -166.6667"></path><path stroke="#000000" stroke-width="2px" d="M 166.6667 -166.6667 L 100 -166.6667"></path><path stroke="#000000" stroke-width="2px" d="M 100 -166.6667 L 100 -100"></path><path stroke="#000000" stroke-width="2px" d="M 100 -100 L 33.3333 -100"></path><path stroke="#000000" stroke-width="2px" d="M 33.3333 -100 L 33.3333 -33.3333"></path><path stroke="#000000" stroke-width="2px" d="M 33.3333 -33.3333 L -33.3333 -33.3333"></path><path stroke="#000000" stroke-width="2px" d="M -33.3333 -33.3333 L -33.3333 -100"></path><path stroke="#000000" stroke-width="2px" d="M -33.3333 -100 L -100 -100"></path><path stroke="#000000" stroke-width="2px" d="M -100 -100 L -100 -166.6667"></path><path stroke="#000000" stroke-width="2px" d="M -100 -166.6667 L -166.6667 -166.6667"></path><path stroke="#000000" stroke-width="2px" d="M -166.6667 -166.6667 L -166.6667 -233.3333"></path><path stroke="#000000" stroke-width="2px" d="M -166.6667 -233.3333 L -100 -233.3333"></path><path stroke="#000000" stroke-width="2px" d="M -100 -233.3333 L -100 -300"></path><path stroke="#000000" stroke-width="2px" d="M -100 -300 L -166.6667 -300"></path><path stroke="#000000" stroke-width="2px" d="M -166.6667 -300 L -166.6667 -233.3333"></path><path stroke="#000000" stroke-width="2px" d="M -166.6667 -233.3333 L -233.3333 -233.3333"></path><path stroke="#000000" stroke-width="2px" d="M -233.3333 -233.3333 L -233.3333 -300"></path><path stroke="#000000" stroke-width="2px" d="M -233.3333 -300 L -300 -300"></path><path stroke="#000000" stroke-width="2px" d="M -300 -300 L -300 -366.6667"></path><path stroke="#000000" stroke-width="2px" d="M -300 -366.6667 L -366.6667 -366.6667"></path><path stroke="#000000" stroke-width="2px" d="M -366.6667 -366.6667 L -366.6667 -433.3333"></path><path stroke="#000000" stroke-width="2px" d="M -366.6667 -433.3333 L -300 -433.3333"></path><path stroke="#000000" stroke-width="2px" d="M -300 -433.3333 L -300 -500"></path><path stroke="#000000" stroke-width="2px" d="M -300 -500 L -366.6667 -500"></path><path stroke="#000000" stroke-width="2px" d="M -366.6667 -500 L -366.6667 -433.3333"></path><path stroke="#000000" stroke-width="2px" d="M -366.6667 -433.3333 L -433.3333 -433.3333"></path><path stroke="#000000" stroke-width="2px" d="M -433.3333 -433.3333 L -433.3333 -500"></path><path stroke="#000000" stroke-width="2px" d="M -433.3333 -500 L -500 -500"></path><path stroke="#000000" stroke-width="2px" d="M -500 -500 L -500 -566.6667"></path><path stroke="#000000" stroke-width="2px" d="M -500 -566.6667 L -566.6667 -566.6667"></path><path stroke="#000000" stroke-width="2px" d="M -566.6667 -566.6667 L -566.6667 -633.3333"></path><path stroke="#000000" stroke-width="2px" d="M -566.6667 -633.3333 L -500 -633.3333"></path><path stroke="#000000" stroke-width="2px" d="M -500 -633.3333 L -500 -700"></path><path stroke="#000000" stroke-width="2px" d="M -500 -700 L -433.3333 -700"></path><path stroke="#000000" stroke-width="2px" d="M -433.3333 -700 L -433.3333 -766.6667"></path><path stroke="#000000" stroke-width="2px" d="M -433.3333 -766.6667 L -366.6667 -766.6667"></path><path stroke="#000000" stroke-width="2px" d="M -366.6667 -766.6667 L -366.6667 -700"></path><path stroke="#000000" stroke-width="2px" d="M -366.6667 -700 L -300 -700"></path><path stroke="#000000" stroke-width="2px" d="M -300 -700 L -300 -766.6667"></path><path stroke="#000000" stroke-width="2px" d="M -300 -766.6667 L -366.6667 -766.6667"></path><path stroke="#000000" stroke-width="2px" d="M -366.6667 -766.6667 L -366.6667 -833.3333"></path><path stroke="#000000" stroke-width="2px" d="M -366.6667 -833.3333 L -300 -833.3333"></path><path stroke="#000000" stroke-width="2px" d="M -300 -833.3333 L -300 -900"></path><path stroke="#000000" stroke-width="2px" d="M -300 -900 L -366.6667 -900"></path><path stroke="#000000" stroke-width="2px" d="M -366.6667 -900 L -366.6667 -833.3333"></path><path stroke="#000000" stroke-width="2px" d="M -366.6667 -833.3333 L -433.3333 -833.3333"></path><path stroke="#000000" stroke-width="2px" d="M -433.3333 -833.3333 L -433.3333 -900"></path><path stroke="#000000" stroke-width="2px" d="M -433.3333 -900 L -500 -900"></path><path stroke="#000000" stroke-width="2px" d="M -500 -900 L -500 -833.3333"></path><path stroke="#000000" stroke-width="2px" d="M -500 -833.3333 L -433.3333 -833.3333"></path><path stroke="#000000" stroke-width="2px" d="M -433.3333 -833.3333 L -433.3333 -766.6667"></path><path stroke="#000000" stroke-width="2px" d="M -433.3333 -766.6667 L -500 -766.6667"></path><path stroke="#000000" stroke-width="2px" d="M -500 -766.6667 L -500 -700"></path><path stroke="#000000" stroke-width="2px" d="M -500 -700 L -566.6667 -700"></path><path stroke="#000000" stroke-width="2px" d="M -566.6667 -700 L -566.6667 -633.3333"></path><path stroke="#000000" stroke-width="2px" d="M -566.6667 -633.3333 L -633.3333 -633.3333"></path><path stroke="#000000" stroke-width="2px" d="M -633.3333 -633.3333 L -633.3333 -700"></path><path stroke="#000000" stroke-width="2px" d="M -633.3333 -700 L -700 -700"></path><path stroke="#000000" stroke-width="2px" d="M -700 -700 L -700 -766.6667"></path><path stroke="#000000" stroke-width="2px" d="M -700 -766.6667 L -766.6667 -766.6667"></path><path stroke="#000000" stroke-width="2px" d="M -766.6667 -766.6667 L -766.6667 -833.3333"></path><path stroke="#000000" stroke-width="2px" d="M -766.6667 -833.3333 L -700 -833.3333"></path><path stroke="#000000" stroke-width="2px" d="M -700 -833.3333 L -700 -900"></path><path stroke="#000000" stroke-width="2px" d="M -700 -900 L -766.6667 -900"></path><path stroke="#000000" stroke-width="2px" d="M -766.6667 -900 L -766.6667 -833.3333"></path><path stroke="#000000" stroke-width="2px" d="M -766.6667 -833.3333 L -833.3333 -833.3333"></path><path stroke="#000000" stroke-width="2px" d="M -833.3333 -833.3333 L -833.3333 -900"></path><path stroke="#000000" stroke-width="2px" d="M -833.3333 -900 L -900 -900"></path><path stroke="#000000" stroke-width="2px" d="M -900 -900 L -900 -833.3333"></path><path stroke="#000000" stroke-width="2px" d="M -900 -833.3333 L -833.3333 -833.3333"></path><path stroke="#000000" stroke-width="2px" d="M -833.3333 -833.3333 L -833.3333 -766.6667"></path><path stroke="#000000" stroke-width="2px" d="M -833.3333 -766.6667 L -900 -766.6667"></path><path stroke="#000000" stroke-width="2px" d="M -900 -766.6667 L -900 -700"></path><path stroke="#000000" stroke-width="2px" d="M -900 -700 L -833.3333 -700"></path><path stroke="#000000" stroke-width="2px" d="M -833.3333 -700 L -833.3333 -766.6667"></path><path stroke="#000000" stroke-width="2px" d="M -833.3333 -766.6667 L -766.6667 -766.6667"></path><path stroke="#000000" stroke-width="2px" d="M -766.6667 -766.6667 L -766.6667 -700"></path><path stroke="#000000" stroke-width="2px" d="M -766.6667 -700 L -700 -700"></path><path stroke="#000000" stroke-width="2px" d="M -700 -700 L -700 -633.3333"></path><path stroke="#000000" stroke-width="2px" d="M -700 -633.3333 L -633.3333 -633.3333"></path><path stroke="#000000" stroke-width="2px" d="M -633.3333 -633.3333 L -633.3333 -566.6667"></path><path stroke="#000000" stroke-width="2px" d="M -633.3333 -566.6667 L -700 -566.6667"></path><path stroke="#000000" stroke-width="2px" d="M -700 -566.6667 L -700 -500"></path><path stroke="#000000" stroke-width="2px" d="M -700 -500 L -766.6667 -500"></path><path stroke="#000000" stroke-width="2px" d="M -766.6667 -500 L -766.6667 -433.3333"></path><path stroke="#000000" stroke-width="2px" d="M -766.6667 -433.3333 L -833.3333 -433.3333"></path><path stroke="#000000" stroke-width="2px" d="M -833.3333 -433.3333 L -833.3333 -500"></path><path stroke="#000000" stroke-width="2px" d="M -833.3333 -500 L -900 -500"></path><path stroke="#000000" stroke-width="2px" d="M -900 -500 L -900 -433.3333"></path><path stroke="#000000" stroke-width="2px" d="M -900 -433.3333 L -833.3333 -433.3333"></path><path stroke="#000000" stroke-width="2px" d="M -833.3333 -433.3333 L -833.3333 -366.6667"></path><path stroke="#000000" stroke-width="2px" d="M -833.3333 -366.6667 L -900 -366.6667"></path><path stroke="#000000" stroke-width="2px" d="M -900 -366.6667 L -900 -300"></path><path stroke="#000000" stroke-width="2px" d="M -900 -300 L -833.3333 -300"></path><path stroke="#000000" stroke-width="2px" d="M -833.3333 -300 L -833.3333 -366.6667"></path><path stroke="#000000" stroke-width="2px" d="M -833.3333 -366.6667 L -766.6667 -366.6667"></path><path stroke="#000000" stroke-width="2px" d="M -766.6667 -366.6667 L -766.6667 -300"></path><path stroke="#000000" stroke-width="2px" d="M -766.6667 -300 L -700 -300"></path><path stroke="#000000" stroke-width="2px" d="M -700 -300 L -700 -366.6667"></path><path stroke="#000000" stroke-width="2px" d="M -700 -366.6667 L -766.6667 -366.6667"></path><path stroke="#000000" stroke-width="2px" d="M -766.6667 -366.6667 L -766.6667 -433.3333"></path><path stroke="#000000" stroke-width="2px" d="M -766.6667 -433.3333 L -700 -433.3333"></path><path stroke="#000000" stroke-width="2px" d="M -700 -433.3333 L -700 -500"></path><path stroke="#000000" stroke-width="2px" d="M -700 -500 L -633.3333 -500"></path><path stroke="#000000" stroke-width="2px" d="M -633.3333 -500 L -633.3333 -566.6667"></path><path stroke="#000000" stroke-width="2px" d="M -633.3333 -566.6667 L -566.6667 -566.6667"></path><path stroke="#000000" stroke-width="2px" d="M -566.6667 -566.6667 L -566.6667 -500"></path><path stroke="#000000" stroke-width="2px" d="M -566.6667 -500 L -500 -500"></path><path stroke="#000000" stroke-width="2px" d="M -500 -500 L -500 -433.3333"></path><path stroke="#000000" stroke-width="2px" d="M -500 -433.3333 L -433.3333 -433.3333"></path><path stroke="#000000" stroke-width="2px" d="M -433.3333 -433.3333 L -433.3333 -366.6667"></path><path stroke="#000000" stroke-width="2px" d="M -433.3333 -366.6667 L -500 -366.6667"></path><path stroke="#000000" stroke-width="2px" d="M -500 -366.6667 L -500 -300"></path><path stroke="#000000" stroke-width="2px" d="M -500 -300 L -433.3333 -300"></path><path stroke="#000000" stroke-width="2px" d="M -433.3333 -300 L -433.3333 -366.6667"></path><path stroke="#000000" stroke-width="2px" d="M -433.3333 -366.6667 L -366.6667 -366.6667"></path><path stroke="#000000" stroke-width="2px" d="M -366.6667 -366.6667 L -366.6667 -300"></path><path stroke="#000000" stroke-width="2px" d="M -366.6667 -300 L -300 -300"></path><path stroke="#000000" stroke-width="2px" d="M -300 -300 L -300 -233.3333"></path><path stroke="#000000" stroke-width="2px" d="M -300 -233.3333 L -233.3333 -233.3333"></path><path stroke="#000000" stroke-width="2px" d="M -233.3333 -233.3333 L -233.3333 -166.6667"></path><path stroke="#000000" stroke-width="2px" d="M -233.3333 -166.6667 L -300 -166.6667"></path><path stroke="#000000" stroke-width="2px" d="M -300 -166.6667 L -300 -100"></path><path stroke="#000000" stroke-width="2px" d="M -300 -100 L -233.3333 -100"></path><path stroke="#000000" stroke-width="2px" d="M -233.3333 -100 L -233.3333 -166.6667"></path><path stroke="#000000" stroke-width="2px" d="M -233.3333 -166.6667 L -166.6667 -166.6667"></path><path stroke="#000000" stroke-width="2px" d="M -166.6667 -166.6667 L -166.6667 -100"></path><path stroke="#000000" stroke-width="2px" d="M -166.6667 -100 L -100 -100"></path><path stroke="#000000" stroke-width="2px" d="M -100 -100 L -100 -33.3333"></path><path stroke="#000000" stroke-width="2px" d="M -100 -33.3333 L -33.3333 -33.3333"></path><path stroke="#000000" stroke-width="2px" d="M -33.3333 -33.3333 L -33.3333 33.3333"></path><path stroke="#000000" stroke-width="2px" d="M -33.3333 33.3333 L -100 33.3333"></path><path stroke="#000000" stroke-width="2px" d="M -100 33.3333 L -100 100"></path><path stroke="#000000" stroke-width="2px" d="M -100 100 L -166.6667 100"></path><path stroke="#000000" stroke-width="2px" d="M -166.6667 100 L -166.6667 166.6667"></path><path stroke="#000000" stroke-width="2px" d="M -166.6667 166.6667 L -233.3333 166.6667"></path><path stroke="#000000" stroke-width="2px" d="M -233.3333 166.6667 L -233.3333 100"></path><path stroke="#000000" stroke-width="2px" d="M -233.3333 100 L -300 100"></path><path stroke="#000000" stroke-width="2px" d="M -300 100 L -300 166.6667"></path><path stroke="#000000" stroke-width="2px" d="M -300 166.6667 L -233.3333 166.6667"></path><path stroke="#000000" stroke-width="2px" d="M -233.3333 166.6667 L -233.3333 233.3333"></path><path stroke="#000000" stroke-width="2px" d="M -233.3333 233.3333 L -300 233.3333"></path><path stroke="#000000" stroke-width="2px" d="M -300 233.3333 L -300 300"></path><path stroke="#000000" stroke-width="2px" d="M -300 300 L -366.6667 300"></path><path stroke="#000000" stroke-width="2px" d="M -366.6667 300 L -366.6667 366.6667"></path><path stroke="#000000" stroke-width="2px" d="M -366.6667 366.6667 L -433.3333 366.6667"></path><path stroke="#000000" stroke-width="2px" d="M -433.3333 366.6667 L -433.3333 300"></path><path stroke="#000000" stroke-width="2px" d="M -433.3333 300 L -500 300"></path><path stroke="#000000" stroke-width="2px" d="M -500 300 L -500 366.6667"></path><path stroke="#000000" stroke-width="2px" d="M -500 366.6667 L -433.3333 366.6667"></path><path stroke="#000000" stroke-width="2px" d="M -433.3333 366.6667 L -433.3333 433.3333"></path><path stroke="#000000" stroke-width="2px" d="M -433.3333 433.3333 L -500 433.3333"></path><path stroke="#000000" stroke-width="2px" d="M -500 433.3333 L -500 500"></path><path stroke="#000000" stroke-width="2px" d="M -500 500 L -566.6667 500"></path><path stroke="#000000" stroke-width="2px" d="M -566.6667 500 L -566.6667 566.6667"></path><path stroke="#000000" stroke-width="2px" d="M -566.6667 566.6667 L -633.3333 566.6667"></path><path stroke="#000000" stroke-width="2px" d="M -633.3333 566.6667 L -633.3333 500"></path><path stroke="#000000" stroke-width="2px" d="M -633.3333 500 L -700 500"></path><path stroke="#000000" stroke-width="2px" d="M -700 500 L -700 433.3333"></path><path stroke="#000000" stroke-width="2px" d="M -700 433.3333 L -766.6667 433.3333"></path><path stroke="#000000" stroke-width="2px" d="M -766.6667 433.3333 L -766.6667 366.6667"></path><path stroke="#000000" stroke-width="2px" d="M -766.6667 366.6667 L -700 366.6667"></path><path stroke="#000000" stroke-width="2px" d="M -700 366.6667 L -700 300"></path><path stroke="#000000" stroke-width="2px" d="M -700 300 L -766.6667 300"></path><path stroke="#000000" stroke-width="2px" d="M -766.6667 300 L -766.6667 366.6667"></path><path stroke="#000000" stroke-width="2px" d="M -766.6667 366.6667 L -833.3333 366.6667"></path><path stroke="#000000" stroke-width="2px" d="M -833.3333 366.6667 L -833.3333 300"></path><path stroke="#000000" stroke-width="2px" d="M -833.3333 300 L -900 300"></path><path stroke="#000000" stroke-width="2px" d="M -900 300 L -900 366.6667"></path><path stroke="#000000" stroke-width="2px" d="M -900 366.6667 L -833.3333 366.6667"></path><path stroke="#000000" stroke-width="2px" d="M -833.3333 366.6667 L -833.3333 433.3333"></path><path stroke="#000000" stroke-width="2px" d="M -833.3333 433.3333 L -900 433.3333"></path><path stroke="#000000" stroke-width="2px" d="M -900 433.3333 L -900 500"></path><path stroke="#000000" stroke-width="2px" d="M -900 500 L -833.3333 500"></path><path stroke="#000000" stroke-width="2px" d="M -833.3333 500 L -833.3333 433.3333"></path><path stroke="#000000" stroke-width="2px" d="M -833.3333 433.3333 L -766.6667 433.3333"></path><path stroke="#000000" stroke-width="2px" d="M -766.6667 433.3333 L -766.6667 500"></path><path stroke="#000000" stroke-width="2px" d="M -766.6667 500 L -700 500"></path><path stroke="#000000" stroke-width="2px" d="M -700 500 L -700 566.6667"></path><path stroke="#000000" stroke-width="2px" d="M -700 566.6667 L -633.3333 566.6667"></path><path stroke="#000000" stroke-width="2px" d="M -633.3333 566.6667 L -633.3333 633.3333"></path><path stroke="#000000" stroke-width="2px" d="M -633.3333 633.3333 L -700 633.3333"></path><path stroke="#000000" stroke-width="2px" d="M -700 633.3333 L -700 700"></path><path stroke="#000000" stroke-width="2px" d="M -700 700 L -766.6667 700"></path><path stroke="#000000" stroke-width="2px" d="M -766.6667 700 L -766.6667 766.6667"></path><path stroke="#000000" stroke-width="2px" d="M -766.6667 766.6667 L -833.3333 766.6667"></path><path stroke="#000000" stroke-width="2px" d="M -833.3333 766.6667 L -833.3333 700"></path><path stroke="#000000" stroke-width="2px" d="M -833.3333 700 L -900 700"></path><path stroke="#000000" stroke-width="2px" d="M -900 700 L -900 766.6667"></path><path stroke="#000000" stroke-width="2px" d="M -900 766.6667 L -833.3333 766.6667"></path><path stroke="#000000" stroke-width="2px" d="M -833.3333 766.6667 L -833.3333 833.3333"></path><path stroke="#000000" stroke-width="2px" d="M -833.3333 833.3333 L -900 833.3333"></path><path stroke="#000000" stroke-width="2px" d="M -900 833.3333 L -900 900"></path></g></svg>