<svg
	xmlns="http://www.w3.org/2000/svg"
	viewBox="0 0 1600 1600"
	xml:space="preserve"
	stroke-linecap="round"
	stroke-linejoin="round"
	stroke="#000"
	stroke-width="4px"
	fill="transparent"
>
<polyline points="1224,968 1240,968 1240,952 1224,952 1224,936 1208,936 1208,952 1192,952 1192,936 1176,936 1176,952 1192,952 1192,968 1176,968 1176,984 1160,984 1160,968 1144,968 1144,984 1160,984 1160,1000 1176,1000 1176,984 1192,984 1192,1000 1176,1000 1176,1016 1192,1016 1192,1032 1176,1032 1176,1048 1160,1048 1160,1032 1144,1032 1144,1048 1160,1048 1160,1064 1176,1064 1176,1048 1192,1048 1192,1064 1208,1064 1208,1048 1192,1048 1192,1032 1208,1032 1208,1016 1224,1016 1224,1032 1208,1032 1208,1048 1224,1048 1224,1064 1240,1064 1240,1048 1256,1048 1256,1064 1240,1064 1240,1080 1256,1080 1256,1096 1240,1096 1240,1112 1224,1112 1224,1096 1208,1096 1208,1112 1224,1112 1224,1128 1240,1128 1240,1112 1256,1112 1256,1128 1272,1128 1272,1112 1256,1112 1256,1096 1272,1096 1272,1080 1288,1080 1288,1096 1304,1096 1304,1080 1288,1080 1288,1064 1272,1064 1272,1080 1256,1080 1256,1064 1272,1064 1272,1048 1256,1048 1256,1032 1272,1032 1272,1016 1288,1016 1288,1032 1272,1032 1272,1048 1288,1048 1288,1064 1304,1064 1304,1048 1320,1048 1320,1064 1336,1064 1336,1048 1320,1048 1320,1032 1336,1032 1336,1016 1352,1016 1352,1032 1336,1032 1336,1048 1352,1048 1352,1064 1368,1064 1368,1048 1384,1048 1384,1064 1368,1064 1368,1080 1384,1080 1384,1096 1368,1096 1368,1112 1352,1112 1352,1096 1336,1096 1336,1112 1352,1112 1352,1128 1368,1128 1368,1112 1384,1112 1384,1128 1400,1128 1400,1112 1384,1112 1384,1096 1400,1096 1400,1080 1416,1080 1416,1096 1432,1096 1432,1080 1416,1080 1416,1064 1400,1064 1400,1080 1384,1080 1384,1064 1400,1064 1400,1048 1384,1048 1384,1032 1400,1032 1400,1016 1416,1016 1416,1032 1432,1032 1432,1016 1416,1016 1416,1000 1400,1000 1400,1016 1384,1016 1384,1000 1368,1000 1368,1016 1384,1016 1384,1032 1368,1032 1368,1048 1352,1048 1352,1032 1368,1032 1368,1016 1352,1016 1352,1000 1336,1000 1336,1016 1320,1016 1320,1000 1336,1000 1336,984 1320,984 1320,968 1336,968 1336,952 1352,952 1352,968 1336,968 1336,984 1352,984 1352,1000 1368,1000 1368,984 1384,984 1384,1000 1400,1000 1400,984 1384,984 1384,968 1400,968 1400,952 1416,952 1416,968 1432,968 1432,952 1416,952 1416,936 1400,936 1400,952 1384,952 1384,936 1400,936 1400,920 1384,920 1384,904 1400,904 1400,888 1416,888 1416,904 1400,904 1400,920 1416,920 1416,936 1432,936 1432,920 1448,920 1448,936 1464,936 1464,920 1448,920 1448,904 1464,904 1464,888 1480,888 1480,904 1464,904 1464,920 1480,920 1480,936 1496,936 1496,920 1512,920 1512,936 1496,936 1496,952 1512,952 1512,968 1496,968 1496,984 1480,984 1480,968 1464,968 1464,984 1480,984 1480,1000 1496,1000 1496,984 1512,984 1512,1000 1528,1000 1528,984 1512,984 1512,968 1528,968 1528,952 1544,952 1544,968 1560,968 1560,952 1544,952 1544,936 1528,936 1528,952 1512,952 1512,936 1528,936 1528,920 1512,920 1512,904 1528,904 1528,888 1544,888 1544,904 1560,904 1560,888 1544,888 1544,872 1528,872 1528,888 1512,888 1512,872 1496,872 1496,888 1512,888 1512,904 1496,904 1496,920 1480,920 1480,904 1496,904 1496,888 1480,888 1480,872 1464,872 1464,888 1448,888 1448,872 1464,872 1464,856 1448,856 1448,840 1464,840 1464,824 1480,824 1480,840 1496,840 1496,824 1480,824 1480,808 1464,808 1464,824 1448,824 1448,808 1432,808 1432,824 1448,824 1448,840 1432,840 1432,856 1416,856 1416,840 1400,840 1400,856 1416,856 1416,872 1432,872 1432,856 1448,856 1448,872 1432,872 1432,888 1448,888 1448,904 1432,904 1432,920 1416,920 1416,904 1432,904 1432,888 1416,888 1416,872 1400,872 1400,888 1384,888 1384,872 1368,872 1368,888 1384,888 1384,904 1368,904 1368,920 1352,920 1352,904 1368,904 1368,888 1352,888 1352,872 1336,872 1336,888 1320,888 1320,872 1336,872 1336,856 1320,856 1320,840 1336,840 1336,824 1352,824 1352,840 1336,840 1336,856 1352,856 1352,872 1368,872 1368,856 1384,856 1384,872 1400,872 1400,856 1384,856 1384,840 1400,840 1400,824 1416,824 1416,840 1432,840 1432,824 1416,824 1416,808 1400,808 1400,824 1384,824 1384,808 1400,808 1400,792 1384,792 1384,776 1400,776 1400,760 1416,760 1416,776 1432,776 1432,760 1416,760 1416,744 1400,744 1400,760 1384,760 1384,744 1368,744 1368,760 1384,760 1384,776 1368,776 1368,792 1352,792 1352,776 1368,776 1368,760 1352,760 1352,744 1336,744 1336,760 1320,760 1320,744 1336,744 1336,728 1320,728 1320,712 1336,712 1336,696 1352,696 1352,712 1336,712 1336,728 1352,728 1352,744 1368,744 1368,728 1384,728 1384,744 1400,744 1400,728 1384,728 1384,712 1400,712 1400,696 1416,696 1416,712 1432,712 1432,696 1416,696 1416,680 1400,680 1400,696 1384,696 1384,680 1400,680 1400,664 1384,664 1384,648 1400,648 1400,632 1416,632 1416,648 1400,648 1400,664 1416,664 1416,680 1432,680 1432,664 1448,664 1448,680 1464,680 1464,664 1448,664 1448,648 1464,648 1464,632 1480,632 1480,648 1464,648 1464,664 1480,664 1480,680 1496,680 1496,664 1512,664 1512,680 1496,680 1496,696 1512,696 1512,712 1496,712 1496,728 1480,728 1480,712 1464,712 1464,728 1480,728 1480,744 1496,744 1496,728 1512,728 1512,744 1528,744 1528,728 1512,728 1512,712 1528,712 1528,696 1544,696 1544,712 1560,712 1560,696 1544,696 1544,680 1528,680 1528,696 1512,696 1512,680 1528,680 1528,664 1512,664 1512,648 1528,648 1528,632 1544,632 1544,648 1560,648 1560,632 1544,632 1544,616 1528,616 1528,632 1512,632 1512,616 1496,616 1496,632 1512,632 1512,648 1496,648 1496,664 1480,664 1480,648 1496,648 1496,632 1480,632 1480,616 1464,616 1464,632 1448,632 1448,616 1464,616 1464,600 1448,600 1448,584 1464,584 1464,568 1480,568 1480,584 1496,584 1496,568 1480,568 1480,552 1464,552 1464,568 1448,568 1448,552 1432,552 1432,568 1448,568 1448,584 1432,584 1432,600 1416,600 1416,584 1400,584 1400,600 1416,600 1416,616 1432,616 1432,600 1448,600 1448,616 1432,616 1432,632 1448,632 1448,648 1432,648 1432,664 1416,664 1416,648 1432,648 1432,632 1416,632 1416,616 1400,616 1400,632 1384,632 1384,616 1368,616 1368,632 1384,632 1384,648 1368,648 1368,664 1352,664 1352,648 1368,648 1368,632 1352,632 1352,616 1336,616 1336,632 1320,632 1320,616 1336,616 1336,600 1320,600 1320,584 1336,584 1336,568 1352,568 1352,584 1368,584 1368,568 1352,568 1352,552 1336,552 1336,568 1320,568 1320,552 1304,552 1304,568 1320,568 1320,584 1304,584 1304,600 1288,600 1288,584 1272,584 1272,600 1288,600 1288,616 1304,616 1304,600 1320,600 1320,616 1304,616 1304,632 1320,632 1320,648 1304,648 1304,664 1288,664 1288,648 1272,648 1272,664 1288,664 1288,680 1304,680 1304,664 1320,664 1320,680 1336,680 1336,664 1320,664 1320,648 1336,648 1336,632 1352,632 1352,648 1336,648 1336,664 1352,664 1352,680 1368,680 1368,664 1384,664 1384,680 1368,680 1368,696 1384,696 1384,712 1368,712 1368,728 1352,728 1352,712 1368,712 1368,696 1352,696 1352,680 1336,680 1336,696 1320,696 1320,680 1304,680 1304,696 1320,696 1320,712 1304,712 1304,728 1288,728 1288,712 1272,712 1272,728 1288,728 1288,744 1304,744 1304,728 1320,728 1320,744 1304,744 1304,760 1320,760 1320,776 1304,776 1304,792 1288,792 1288,776 1304,776 1304,760 1288,760 1288,744 1272,744 1272,760 1256,760 1256,744 1240,744 1240,760 1256,760 1256,776 1240,776 1240,792 1224,792 1224,776 1240,776 1240,760 1224,760 1224,744 1208,744 1208,760 1192,760 1192,744 1208,744 1208,728 1192,728 1192,712 1208,712 1208,696 1224,696 1224,712 1208,712 1208,728 1224,728 1224,744 1240,744 1240,728 1256,728 1256,744 1272,744 1272,728 1256,728 1256,712 1272,712 1272,696 1288,696 1288,712 1304,712 1304,696 1288,696 1288,680 1272,680 1272,696 1256,696 1256,680 1272,680 1272,664 1256,664 1256,648 1272,648 1272,632 1288,632 1288,648 1304,648 1304,632 1288,632 1288,616 1272,616 1272,632 1256,632 1256,616 1240,616 1240,632 1256,632 1256,648 1240,648 1240,664 1224,664 1224,648 1240,648 1240,632 1224,632 1224,616 1208,616 1208,632 1192,632 1192,616 1208,616 1208,600 1192,600 1192,584 1208,584 1208,568 1224,568 1224,584 1240,584 1240,568 1224,568 1224,552 1208,552 1208,568 1192,568 1192,552 1176,552 1176,568 1192,568 1192,584 1176,584 1176,600 1160,600 1160,584 1144,584 1144,600 1160,600 1160,616 1176,616 1176,600 1192,600 1192,616 1176,616 1176,632 1192,632 1192,648 1176,648 1176,664 1160,664 1160,648 1176,648 1176,632 1160,632 1160,616 1144,616 1144,632 1128,632 1128,616 1112,616 1112,632 1128,632 1128,648 1112,648 1112,664 1096,664 1096,648 1112,648 1112,632 1096,632 1096,616 1080,616 1080,632 1064,632 1064,616 1080,616 1080,600 1064,600 1064,584 1080,584 1080,568 1096,568 1096,584 1080,584 1080,600 1096,600 1096,616 1112,616 1112,600 1128,600 1128,616 1144,616 1144,600 1128,600 1128,584 1144,584 1144,568 1160,568 1160,584 1176,584 1176,568 1160,568 1160,552 1144,552 1144,568 1128,568 1128,552 1144,552 1144,536 1128,536 1128,520 1144,520 1144,504 1160,504 1160,520 1176,520 1176,504 1160,504 1160,488 1144,488 1144,504 1128,504 1128,488 1112,488 1112,504 1128,504 1128,520 1112,520 1112,536 1096,536 1096,520 1112,520 1112,504 1096,504 1096,488 1080,488 1080,504 1064,504 1064,488 1080,488 1080,472 1064,472 1064,456 1080,456 1080,440 1096,440 1096,456 1080,456 1080,472 1096,472 1096,488 1112,488 1112,472 1128,472 1128,488 1144,488 1144,472 1128,472 1128,456 1144,456 1144,440 1160,440 1160,456 1176,456 1176,440 1160,440 1160,424 1144,424 1144,440 1128,440 1128,424 1144,424 1144,408 1128,408 1128,392 1144,392 1144,376 1160,376 1160,392 1144,392 1144,408 1160,408 1160,424 1176,424 1176,408 1192,408 1192,424 1208,424 1208,408 1192,408 1192,392 1208,392 1208,376 1224,376 1224,392 1208,392 1208,408 1224,408 1224,424 1240,424 1240,408 1256,408 1256,424 1240,424 1240,440 1256,440 1256,456 1240,456 1240,472 1224,472 1224,456 1208,456 1208,472 1224,472 1224,488 1240,488 1240,472 1256,472 1256,488 1272,488 1272,472 1256,472 1256,456 1272,456 1272,440 1288,440 1288,456 1304,456 1304,440 1288,440 1288,424 1272,424 1272,440 1256,440 1256,424 1272,424 1272,408 1256,408 1256,392 1272,392 1272,376 1288,376 1288,392 1304,392 1304,376 1288,376 1288,360 1272,360 1272,376 1256,376 1256,360 1240,360 1240,376 1256,376 1256,392 1240,392 1240,408 1224,408 1224,392 1240,392 1240,376 1224,376 1224,360 1208,360 1208,376 1192,376 1192,360 1208,360 1208,344 1192,344 1192,328 1208,328 1208,312 1224,312 1224,328 1240,328 1240,312 1224,312 1224,296 1208,296 1208,312 1192,312 1192,296 1176,296 1176,312 1192,312 1192,328 1176,328 1176,344 1160,344 1160,328 1144,328 1144,344 1160,344 1160,360 1176,360 1176,344 1192,344 1192,360 1176,360 1176,376 1192,376 1192,392 1176,392 1176,408 1160,408 1160,392 1176,392 1176,376 1160,376 1160,360 1144,360 1144,376 1128,376 1128,360 1112,360 1112,376 1128,376 1128,392 1112,392 1112,408 1096,408 1096,392 1112,392 1112,376 1096,376 1096,360 1080,360 1080,376 1064,376 1064,360 1080,360 1080,344 1064,344 1064,328 1080,328 1080,312 1096,312 1096,328 1112,328 1112,312 1096,312 1096,296 1080,296 1080,312 1064,312 1064,296 1048,296 1048,312 1064,312 1064,328 1048,328 1048,344 1032,344 1032,328 1016,328 1016,344 1032,344 1032,360 1048,360 1048,344 1064,344 1064,360 1048,360 1048,376 1064,376 1064,392 1048,392 1048,408 1032,408 1032,392 1016,392 1016,408 1032,408 1032,424 1048,424 1048,408 1064,408 1064,424 1080,424 1080,408 1064,408 1064,392 1080,392 1080,376 1096,376 1096,392 1080,392 1080,408 1096,408 1096,424 1112,424 1112,408 1128,408 1128,424 1112,424 1112,440 1128,440 1128,456 1112,456 1112,472 1096,472 1096,456 1112,456 1112,440 1096,440 1096,424 1080,424 1080,440 1064,440 1064,424 1048,424 1048,440 1064,440 1064,456 1048,456 1048,472 1032,472 1032,456 1016,456 1016,472 1032,472 1032,488 1048,488 1048,472 1064,472 1064,488 1048,488 1048,504 1064,504 1064,520 1048,520 1048,536 1032,536 1032,520 1048,520 1048,504 1032,504 1032,488 1016,488 1016,504 1000,504 1000,488 984,488 984,504 1000,504 1000,520 984,520 984,536 968,536 968,520 984,520 984,504 968,504 968,488 952,488 952,504 936,504 936,488 952,488 952,472 936,472 936,456 952,456 952,440 968,440 968,456 984,456 984,440 968,440 968,424 952,424 952,440 936,440 936,424 920,424 920,440 936,440 936,456 920,456 920,472 904,472 904,456 888,456 888,472 904,472 904,488 920,488 920,472 936,472 936,488 920,488 920,504 936,504 936,520 920,520 920,536 904,536 904,520 888,520 888,536 904,536 904,552 920,552 920,536 936,536 936,552 952,552 952,536 936,536 936,520 952,520 952,504 968,504 968,520 952,520 952,536 968,536 968,552 984,552 984,536 1000,536 1000,552 984,552 984,568 1000,568 1000,584 984,584 984,600 968,600 968,584 952,584 952,600 968,600 968,616 984,616 984,600 1000,600 1000,616 1016,616 1016,600 1000,600 1000,584 1016,584 1016,568 1032,568 1032,584 1048,584 1048,568 1032,568 1032,552 1016,552 1016,568 1000,568 1000,552 1016,552 1016,536 1000,536 1000,520 1016,520 1016,504 1032,504 1032,520 1016,520 1016,536 1032,536 1032,552 1048,552 1048,536 1064,536 1064,552 1080,552 1080,536 1064,536 1064,520 1080,520 1080,504 1096,504 1096,520 1080,520 1080,536 1096,536 1096,552 1112,552 1112,536 1128,536 1128,552 1112,552 1112,568 1128,568 1128,584 1112,584 1112,600 1096,600 1096,584 1112,584 1112,568 1096,568 1096,552 1080,552 1080,568 1064,568 1064,552 1048,552 1048,568 1064,568 1064,584 1048,584 1048,600 1032,600 1032,584 1016,584 1016,600 1032,600 1032,616 1048,616 1048,600 1064,600 1064,616 1048,616 1048,632 1064,632 1064,648 1048,648 1048,664 1032,664 1032,648 1016,648 1016,664 1032,664 1032,680 1048,680 1048,664 1064,664 1064,680 1080,680 1080,664 1064,664 1064,648 1080,648 1080,632 1096,632 1096,648 1080,648 1080,664 1096,664 1096,680 1112,680 1112,664 1128,664 1128,680 1112,680 1112,696 1128,696 1128,712 1112,712 1112,728 1096,728 1096,712 1112,712 1112,696 1096,696 1096,680 1080,680 1080,696 1064,696 1064,680 1048,680 1048,696 1064,696 1064,712 1048,712 1048,728 1032,728 1032,712 1016,712 1016,728 1032,728 1032,744 1048,744 1048,728 1064,728 1064,744 1048,744 1048,760 1064,760 1064,776 1048,776 1048,792 1032,792 1032,776 1048,776 1048,760 1032,760 1032,744 1016,744 1016,760 1000,760 1000,744 984,744 984,760 1000,760 1000,776 984,776 984,792 968,792 968,776 984,776 984,760 968,760 968,744 952,744 952,760 936,760 936,744 952,744 952,728 936,728 936,712 952,712 952,696 968,696 968,712 952,712 952,728 968,728 968,744 984,744 984,728 1000,728 1000,744 1016,744 1016,728 1000,728 1000,712 1016,712 1016,696 1032,696 1032,712 1048,712 1048,696 1032,696 1032,680 1016,680 1016,696 1000,696 1000,680 1016,680 1016,664 1000,664 1000,648 1016,648 1016,632 1032,632 1032,648 1048,648 1048,632 1032,632 1032,616 1016,616 1016,632 1000,632 1000,616 984,616 984,632 1000,632 1000,648 984,648 984,664 968,664 968,648 984,648 984,632 968,632 968,616 952,616 952,632 936,632 936,616 952,616 952,600 936,600 936,584 952,584 952,568 968,568 968,584 984,584 984,568 968,568 968,552 952,552 952,568 936,568 936,552 920,552 920,568 936,568 936,584 920,584 920,600 904,600 904,584 888,584 888,600 904,600 904,616 920,616 920,600 936,600 936,616 920,616 920,632 936,632 936,648 920,648 920,664 904,664 904,648 920,648 920,632 904,632 904,616 888,616 888,632 872,632 872,616 856,616 856,632 872,632 872,648 856,648 856,664 840,664 840,648 856,648 856,632 840,632 840,616 824,616 824,632 808,632 808,616 824,616 824,600 808,600 808,584 824,584 824,568 840,568 840,584 856,584 856,568 840,568 840,552 824,552 824,568 808,568 808,552 792,552 792,568 808,568 808,584 792,584 792,600 776,600 776,584 760,584 760,600 776,600 776,616 792,616 792,600 808,600 808,616 792,616 792,632 808,632 808,648 792,648 792,664 776,664 776,648 760,648 760,664 776,664 776,680 792,680 792,664 808,664 808,680 824,680 824,664 808,664 808,648 824,648 824,632 840,632 840,648 824,648 824,664 840,664 840,680 856,680 856,664 872,664 872,680 856,680 856,696 872,696 872,712 856,712 856,728 840,728 840,712 856,712 856,696 840,696 840,680 824,680 824,696 808,696 808,680 792,680 792,696 808,696 808,712 792,712 792,728 776,728 776,712 760,712 760,728 776,728 776,744 792,744 792,728 808,728 808,744 792,744 792,760 808,760 808,776 792,776 792,792 776,792 776,776 792,776 792,760 776,760 776,744 760,744 760,760 744,760 744,744 728,744 728,760 744,760 744,776 728,776 728,792 712,792 712,776 728,776 728,760 712,760 712,744 696,744 696,760 680,760 680,744 696,744 696,728 680,728 680,712 696,712 696,696 712,696 712,712 696,712 696,728 712,728 712,744 728,744 728,728 744,728 744,744 760,744 760,728 744,728 744,712 760,712 760,696 776,696 776,712 792,712 792,696 776,696 776,680 760,680 760,696 744,696 744,680 760,680 760,664 744,664 744,648 760,648 760,632 776,632 776,648 792,648 792,632 776,632 776,616 760,616 760,632 744,632 744,616 728,616 728,632 744,632 744,648 728,648 728,664 712,664 712,648 728,648 728,632 712,632 712,616 696,616 696,632 680,632 680,616 696,616 696,600 680,600 680,584 696,584 696,568 712,568 712,584 728,584 728,568 712,568 712,552 696,552 696,568 680,568 680,552 664,552 664,568 680,568 680,584 664,584 664,600 648,600 648,584 632,584 632,600 648,600 648,616 664,616 664,600 680,600 680,616 664,616 664,632 680,632 680,648 664,648 664,664 648,664 648,648 664,648 664,632 648,632 648,616 632,616 632,632 616,632 616,616 600,616 600,632 616,632 616,648 600,648 600,664 584,664 584,648 600,648 600,632 584,632 584,616 568,616 568,632 552,632 552,616 568,616 568,600 552,600 552,584 568,584 568,568 584,568 584,584 568,584 568,600 584,600 584,616 600,616 600,600 616,600 616,616 632,616 632,600 616,600 616,584 632,584 632,568 648,568 648,584 664,584 664,568 648,568 648,552 632,552 632,568 616,568 616,552 632,552 632,536 616,536 616,520 632,520 632,504 648,504 648,520 664,520 664,504 648,504 648,488 632,488 632,504 616,504 616,488 600,488 600,504 616,504 616,520 600,520 600,536 584,536 584,520 600,520 600,504 584,504 584,488 568,488 568,504 552,504 552,488 568,488 568,472 552,472 552,456 568,456 568,440 584,440 584,456 568,456 568,472 584,472 584,488 600,488 600,472 616,472 616,488 632,488 632,472 616,472 616,456 632,456 632,440 648,440 648,456 664,456 664,440 648,440 648,424 632,424 632,440 616,440 616,424 632,424 632,408 616,408 616,392 632,392 632,376 648,376 648,392 632,392 632,408 648,408 648,424 664,424 664,408 680,408 680,424 696,424 696,408 680,408 680,392 696,392 696,376 712,376 712,392 696,392 696,408 712,408 712,424 728,424 728,408 744,408 744,424 728,424 728,440 744,440 744,456 728,456 728,472 712,472 712,456 696,456 696,472 712,472 712,488 728,488 728,472 744,472 744,488 760,488 760,472 744,472 744,456 760,456 760,440 776,440 776,456 792,456 792,440 776,440 776,424 760,424 760,440 744,440 744,424 760,424 760,408 744,408 744,392 760,392 760,376 776,376 776,392 792,392 792,376 776,376 776,360 760,360 760,376 744,376 744,360 728,360 728,376 744,376 744,392 728,392 728,408 712,408 712,392 728,392 728,376 712,376 712,360 696,360 696,376 680,376 680,360 696,360 696,344 680,344 680,328 696,328 696,312 712,312 712,328 728,328 728,312 712,312 712,296 696,296 696,312 680,312 680,296 664,296 664,312 680,312 680,328 664,328 664,344 648,344 648,328 632,328 632,344 648,344 648,360 664,360 664,344 680,344 680,360 664,360 664,376 680,376 680,392 664,392 664,408 648,408 648,392 664,392 664,376 648,376 648,360 632,360 632,376 616,376 616,360 600,360 600,376 616,376 616,392 600,392 600,408 584,408 584,392 600,392 600,376 584,376 584,360 568,360 568,376 552,376 552,360 568,360 568,344 552,344 552,328 568,328 568,312 584,312 584,328 600,328 600,312 584,312 584,296 568,296 568,312 552,312 552,296 536,296 536,312 552,312 552,328 536,328 536,344 520,344 520,328 504,328 504,344 520,344 520,360 536,360 536,344 552,344 552,360 536,360 536,376 552,376 552,392 536,392 536,408 520,408 520,392 504,392 504,408 520,408 520,424 536,424 536,408 552,408 552,424 568,424 568,408 552,408 552,392 568,392 568,376 584,376 584,392 568,392 568,408 584,408 584,424 600,424 600,408 616,408 616,424 600,424 600,440 616,440 616,456 600,456 600,472 584,472 584,456 600,456 600,440 584,440 584,424 568,424 568,440 552,440 552,424 536,424 536,440 552,440 552,456 536,456 536,472 520,472 520,456 504,456 504,472 520,472 520,488 536,488 536,472 552,472 552,488 536,488 536,504 552,504 552,520 536,520 536,536 520,536 520,520 536,520 536,504 520,504 520,488 504,488 504,504 488,504 488,488 472,488 472,504 488,504 488,520 472,520 472,536 456,536 456,520 472,520 472,504 456,504 456,488 440,488 440,504 424,504 424,488 440,488 440,472 424,472 424,456 440,456 440,440 456,440 456,456 472,456 472,440 456,440 456,424 440,424 440,440 424,440 424,424 408,424 408,440 424,440 424,456 408,456 408,472 392,472 392,456 376,456 376,472 392,472 392,488 408,488 408,472 424,472 424,488 408,488 408,504 424,504 424,520 408,520 408,536 392,536 392,520 376,520 376,536 392,536 392,552 408,552 408,536 424,536 424,552 440,552 440,536 424,536 424,520 440,520 440,504 456,504 456,520 440,520 440,536 456,536 456,552 472,552 472,536 488,536 488,552 472,552 472,568 488,568 488,584 472,584 472,600 456,600 456,584 440,584 440,600 456,600 456,616 472,616 472,600 488,600 488,616 504,616 504,600 488,600 488,584 504,584 504,568 520,568 520,584 536,584 536,568 520,568 520,552 504,552 504,568 488,568 488,552 504,552 504,536 488,536 488,520 504,520 504,504 520,504 520,520 504,520 504,536 520,536 520,552 536,552 536,536 552,536 552,552 568,552 568,536 552,536 552,520 568,520 568,504 584,504 584,520 568,520 568,536 584,536 584,552 600,552 600,536 616,536 616,552 600,552 600,568 616,568 616,584 600,584 600,600 584,600 584,584 600,584 600,568 584,568 584,552 568,552 568,568 552,568 552,552 536,552 536,568 552,568 552,584 536,584 536,600 520,600 520,584 504,584 504,600 520,600 520,616 536,616 536,600 552,600 552,616 536,616 536,632 552,632 552,648 536,648 536,664 520,664 520,648 504,648 504,664 520,664 520,680 536,680 536,664 552,664 552,680 568,680 568,664 552,664 552,648 568,648 568,632 584,632 584,648 568,648 568,664 584,664 584,680 600,680 600,664 616,664 616,680 600,680 600,696 616,696 616,712 600,712 600,728 584,728 584,712 600,712 600,696 584,696 584,680 568,680 568,696 552,696 552,680 536,680 536,696 552,696 552,712 536,712 536,728 520,728 520,712 504,712 504,728 520,728 520,744 536,744 536,728 552,728 552,744 536,744 536,760 552,760 552,776 536,776 536,792 520,792 520,776 536,776 536,760 520,760 520,744 504,744 504,760 488,760 488,744 472,744 472,760 488,760 488,776 472,776 472,792 456,792 456,776 472,776 472,760 456,760 456,744 440,744 440,760 424,760 424,744 440,744 440,728 424,728 424,712 440,712 440,696 456,696 456,712 472,712 472,696 456,696 456,680 440,680 440,696 424,696 424,680 408,680 408,696 424,696 424,712 408,712 408,728 392,728 392,712 376,712 376,728 392,728 392,744 408,744 408,728 424,728 424,744 408,744 408,760 424,760 424,776 408,776 408,792 392,792 392,776 376,776 376,792 392,792 392,808 408,808 408,792 424,792 424,808 440,808 440,792 424,792 424,776 440,776 440,760 456,760 456,776 440,776 440,792 456,792 456,808 472,808 472,792 488,792 488,808 472,808 472,824 488,824 488,840 472,840 472,856 456,856 456,840 440,840 440,856 456,856 456,872 472,872 472,856 488,856 488,872 504,872 504,856 488,856 488,840 504,840 504,824 520,824 520,840 536,840 536,824 520,824 520,808 504,808 504,824 488,824 488,808 504,808 504,792 488,792 488,776 504,776 504,760 520,760 520,776 504,776 504,792 520,792 520,808 536,808 536,792 552,792 552,808 568,808 568,792 552,792 552,776 568,776 568,760 584,760 584,776 568,776 568,792 584,792 584,808 600,808 600,792 616,792 616,808 600,808 600,824 616,824 616,840 600,840 600,856 584,856 584,840 568,840 568,856 584,856 584,872 600,872 600,856 616,856 616,872 632,872 632,856 616,856 616,840 632,840 632,824 648,824 648,840 664,840 664,824 648,824 648,808 632,808 632,824 616,824 616,808 632,808 632,792 616,792 616,776 632,776 632,760 648,760 648,776 664,776 664,760 648,760 648,744 632,744 632,760 616,760 616,744 600,744 600,760 616,760 616,776 600,776 600,792 584,792 584,776 600,776 600,760 584,760 584,744 568,744 568,760 552,760 552,744 568,744 568,728 552,728 552,712 568,712 568,696 584,696 584,712 568,712 568,728 584,728 584,744 600,744 600,728 616,728 616,744 632,744 632,728 616,728 616,712 632,712 632,696 648,696 648,712 664,712 664,696 648,696 648,680 632,680 632,696 616,696 616,680 632,680 632,664 616,664 616,648 632,648 632,632 648,632 648,648 632,648 632,664 648,664 648,680 664,680 664,664 680,664 680,680 696,680 696,664 680,664 680,648 696,648 696,632 712,632 712,648 696,648 696,664 712,664 712,680 728,680 728,664 744,664 744,680 728,680 728,696 744,696 744,712 728,712 728,728 712,728 712,712 728,712 728,696 712,696 712,680 696,680 696,696 680,696 680,680 664,680 664,696 680,696 680,712 664,712 664,728 648,728 648,712 632,712 632,728 648,728 648,744 664,744 664,728 680,728 680,744 664,744 664,760 680,760 680,776 664,776 664,792 648,792 648,776 632,776 632,792 648,792 648,808 664,808 664,792 680,792 680,808 696,808 696,792 680,792 680,776 696,776 696,760 712,760 712,776 696,776 696,792 712,792 712,808 728,808 728,792 744,792 744,808 728,808 728,824 744,824 744,840 728,840 728,856 712,856 712,840 696,840 696,856 712,856 712,872 728,872 728,856 744,856 744,872 760,872 760,856 744,856 744,840 760,840 760,824 776,824 776,840 792,840 792,824 776,824 776,808 760,808 760,824 744,824 744,808 760,808 760,792 744,792 744,776 760,776 760,760 776,760 776,776 760,776 760,792 776,792 776,808 792,808 792,792 808,792 808,808 824,808 824,792 808,792 808,776 824,776 824,760 840,760 840,776 824,776 824,792 840,792 840,808 856,808 856,792 872,792 872,808 856,808 856,824 872,824 872,840 856,840 856,856 840,856 840,840 856,840 856,824 840,824 840,808 824,808 824,824 808,824 808,808 792,808 792,824 808,824 808,840 792,840 792,856 776,856 776,840 760,840 760,856 776,856 776,872 792,872 792,856 808,856 808,872 792,872 792,888 808,888 808,904 792,904 792,920 776,920 776,904 760,904 760,920 776,920 776,936 792,936 792,920 808,920 808,936 824,936 824,920 808,920 808,904 824,904 824,888 840,888 840,904 824,904 824,920 840,920 840,936 856,936 856,920 872,920 872,936 856,936 856,952 872,952 872,968 856,968 856,984 840,984 840,968 856,968 856,952 840,952 840,936 824,936 824,952 808,952 808,936 792,936 792,952 808,952 808,968 792,968 792,984 776,984 776,968 760,968 760,984 776,984 776,1000 792,1000 792,984 808,984 808,1000 792,1000 792,1016 808,1016 808,1032 792,1032 792,1048 776,1048 776,1032 792,1032 792,1016 776,1016 776,1000 760,1000 760,1016 744,1016 744,1000 728,1000 728,1016 744,1016 744,1032 728,1032 728,1048 712,1048 712,1032 728,1032 728,1016 712,1016 712,1000 696,1000 696,1016 680,1016 680,1000 696,1000 696,984 680,984 680,968 696,968 696,952 712,952 712,968 696,968 696,984 712,984 712,1000 728,1000 728,984 744,984 744,1000 760,1000 760,984 744,984 744,968 760,968 760,952 776,952 776,968 792,968 792,952 776,952 776,936 760,936 760,952 744,952 744,936 760,936 760,920 744,920 744,904 760,904 760,888 776,888 776,904 792,904 792,888 776,888 776,872 760,872 760,888 744,888 744,872 728,872 728,888 744,888 744,904 728,904 728,920 712,920 712,904 728,904 728,888 712,888 712,872 696,872 696,888 680,888 680,872 696,872 696,856 680,856 680,840 696,840 696,824 712,824 712,840 728,840 728,824 712,824 712,808 696,808 696,824 680,824 680,808 664,808 664,824 680,824 680,840 664,840 664,856 648,856 648,840 632,840 632,856 648,856 648,872 664,872 664,856 680,856 680,872 664,872 664,888 680,888 680,904 664,904 664,920 648,920 648,904 664,904 664,888 648,888 648,872 632,872 632,888 616,888 616,872 600,872 600,888 616,888 616,904 600,904 600,920 584,920 584,904 600,904 600,888 584,888 584,872 568,872 568,888 552,888 552,872 568,872 568,856 552,856 552,840 568,840 568,824 584,824 584,840 600,840 600,824 584,824 584,808 568,808 568,824 552,824 552,808 536,808 536,824 552,824 552,840 536,840 536,856 520,856 520,840 504,840 504,856 520,856 520,872 536,872 536,856 552,856 552,872 536,872 536,888 552,888 552,904 536,904 536,920 520,920 520,904 504,904 504,920 520,920 520,936 536,936 536,920 552,920 552,936 568,936 568,920 552,920 552,904 568,904 568,888 584,888 584,904 568,904 568,920 584,920 584,936 600,936 600,920 616,920 616,936 600,936 600,952 616,952 616,968 600,968 600,984 584,984 584,968 600,968 600,952 584,952 584,936 568,936 568,952 552,952 552,936 536,936 536,952 552,952 552,968 536,968 536,984 520,984 520,968 504,968 504,984 520,984 520,1000 536,1000 536,984 552,984 552,1000 536,1000 536,1016 552,1016 552,1032 536,1032 536,1048 520,1048 520,1032 536,1032 536,1016 520,1016 520,1000 504,1000 504,1016 488,1016 488,1000 472,1000 472,1016 488,1016 488,1032 472,1032 472,1048 456,1048 456,1032 472,1032 472,1016 456,1016 456,1000 440,1000 440,1016 424,1016 424,1000 440,1000 440,984 424,984 424,968 440,968 440,952 456,952 456,968 472,968 472,952 456,952 456,936 440,936 440,952 424,952 424,936 408,936 408,952 424,952 424,968 408,968 408,984 392,984 392,968 376,968 376,984 392,984 392,1000 408,1000 408,984 424,984 424,1000 408,1000 408,1016 424,1016 424,1032 408,1032 408,1048 392,1048 392,1032 376,1032 376,1048 392,1048 392,1064 408,1064 408,1048 424,1048 424,1064 440,1064 440,1048 424,1048 424,1032 440,1032 440,1016 456,1016 456,1032 440,1032 440,1048 456,1048 456,1064 472,1064 472,1048 488,1048 488,1064 472,1064 472,1080 488,1080 488,1096 472,1096 472,1112 456,1112 456,1096 440,1096 440,1112 456,1112 456,1128 472,1128 472,1112 488,1112 488,1128 504,1128 504,1112 488,1112 488,1096 504,1096 504,1080 520,1080 520,1096 536,1096 536,1080 520,1080 520,1064 504,1064 504,1080 488,1080 488,1064 504,1064 504,1048 488,1048 488,1032 504,1032 504,1016 520,1016 520,1032 504,1032 504,1048 520,1048 520,1064 536,1064 536,1048 552,1048 552,1064 568,1064 568,1048 552,1048 552,1032 568,1032 568,1016 584,1016 584,1032 568,1032 568,1048 584,1048 584,1064 600,1064 600,1048 616,1048 616,1064 600,1064 600,1080 616,1080 616,1096 600,1096 600,1112 584,1112 584,1096 600,1096 600,1080 584,1080 584,1064 568,1064 568,1080 552,1080 552,1064 536,1064 536,1080 552,1080 552,1096 536,1096 536,1112 520,1112 520,1096 504,1096 504,1112 520,1112 520,1128 536,1128 536,1112 552,1112 552,1128 536,1128 536,1144 552,1144 552,1160 536,1160 536,1176 520,1176 520,1160 504,1160 504,1176 520,1176 520,1192 536,1192 536,1176 552,1176 552,1192 568,1192 568,1176 552,1176 552,1160 568,1160 568,1144 584,1144 584,1160 568,1160 568,1176 584,1176 584,1192 600,1192 600,1176 616,1176 616,1192 600,1192 600,1208 616,1208 616,1224 600,1224 600,1240 584,1240 584,1224 600,1224 600,1208 584,1208 584,1192 568,1192 568,1208 552,1208 552,1192 536,1192 536,1208 552,1208 552,1224 536,1224 536,1240 520,1240 520,1224 504,1224 504,1240 520,1240 520,1256 536,1256 536,1240 552,1240 552,1256 536,1256 536,1272 552,1272 552,1288 536,1288 536,1304 520,1304 520,1288 536,1288 536,1272 520,1272 520,1256 504,1256 504,1272 488,1272 488,1256 472,1256 472,1272 488,1272 488,1288 472,1288 472,1304 456,1304 456,1288 472,1288 472,1272 456,1272 456,1256 440,1256 440,1272 424,1272 424,1256 440,1256 440,1240 424,1240 424,1224 440,1224 440,1208 456,1208 456,1224 440,1224 440,1240 456,1240 456,1256 472,1256 472,1240 488,1240 488,1256 504,1256 504,1240 488,1240 488,1224 504,1224 504,1208 520,1208 520,1224 536,1224 536,1208 520,1208 520,1192 504,1192 504,1208 488,1208 488,1192 504,1192 504,1176 488,1176 488,1160 504,1160 504,1144 520,1144 520,1160 536,1160 536,1144 520,1144 520,1128 504,1128 504,1144 488,1144 488,1128 472,1128 472,1144 488,1144 488,1160 472,1160 472,1176 456,1176 456,1160 472,1160 472,1144 456,1144 456,1128 440,1128 440,1144 424,1144 424,1128 440,1128 440,1112 424,1112 424,1096 440,1096 440,1080 456,1080 456,1096 472,1096 472,1080 456,1080 456,1064 440,1064 440,1080 424,1080 424,1064 408,1064 408,1080 424,1080 424,1096 408,1096 408,1112 392,1112 392,1096 376,1096 376,1112 392,1112 392,1128 408,1128 408,1112 424,1112 424,1128 408,1128 408,1144 424,1144 424,1160 408,1160 408,1176 392,1176 392,1160 408,1160 408,1144 392,1144 392,1128 376,1128 376,1144 360,1144 360,1128 344,1128 344,1144 360,1144 360,1160 344,1160 344,1176 328,1176 328,1160 344,1160 344,1144 328,1144 328,1128 312,1128 312,1144 296,1144 296,1128 312,1128 312,1112 296,1112 296,1096 312,1096 312,1080 328,1080 328,1096 344,1096 344,1080 328,1080 328,1064 312,1064 312,1080 296,1080 296,1064 280,1064 280,1080 296,1080 296,1096 280,1096 280,1112 264,1112 264,1096 248,1096 248,1112 264,1112 264,1128 280,1128 280,1112 296,1112 296,1128 280,1128 280,1144 296,1144 296,1160 280,1160 280,1176 264,1176 264,1160 248,1160 248,1176 264,1176 264,1192 280,1192 280,1176 296,1176 296,1192 312,1192 312,1176 296,1176 296,1160 312,1160 312,1144 328,1144 328,1160 312,1160 312,1176 328,1176 328,1192 344,1192 344,1176 360,1176 360,1192 344,1192 344,1208 360,1208 360,1224 344,1224 344,1240 328,1240 328,1224 344,1224 344,1208 328,1208 328,1192 312,1192 312,1208 296,1208 296,1192 280,1192 280,1208 296,1208 296,1224 280,1224 280,1240 264,1240 264,1224 248,1224 248,1240 264,1240 264,1256 280,1256 280,1240 296,1240 296,1256 280,1256 280,1272 296,1272 296,1288 280,1288 280,1304 264,1304 264,1288 280,1288 280,1272 264,1272 264,1256 248,1256 248,1272 232,1272 232,1256 216,1256 216,1272 232,1272 232,1288 216,1288 216,1304 200,1304 200,1288 216,1288 216,1272 200,1272 200,1256 184,1256 184,1272 168,1272 168,1256 184,1256 184,1240 168,1240 168,1224 184,1224 184,1208 200,1208 200,1224 184,1224 184,1240 200,1240 200,1256 216,1256 216,1240 232,1240 232,1256 248,1256 248,1240 232,1240 232,1224 248,1224 248,1208 264,1208 264,1224 280,1224 280,1208 264,1208 264,1192 248,1192 248,1208 232,1208 232,1192 248,1192 248,1176 232,1176 232,1160 248,1160 248,1144 264,1144 264,1160 280,1160 280,1144 264,1144 264,1128 248,1128 248,1144 232,1144 232,1128 216,1128 216,1144 232,1144 232,1160 216,1160 216,1176 200,1176 200,1160 216,1160 216,1144 200,1144 200,1128 184,1128 184,1144 168,1144 168,1128 184,1128 184,1112 168,1112 168,1096 184,1096 184,1080 200,1080 200,1096 216,1096 216,1080 200,1080 200,1064 184,1064 184,1080 168,1080 168,1064 152,1064 152,1080 168,1080 168,1096 152,1096 152,1112 136,1112 136,1096 120,1096 120,1112 136,1112 136,1128 152,1128 152,1112 168,1112 168,1128 152,1128 152,1144 168,1144 168,1160 152,1160 152,1176 136,1176 136,1160 152,1160 152,1144 136,1144 136,1128 120,1128 120,1144 104,1144 104,1128 88,1128 88,1144 104,1144 104,1160 88,1160 88,1176 72,1176 72,1160 88,1160 88,1144 72,1144 72,1128 56,1128 56,1144 40,1144 40,1128 56,1128 56,1112 40,1112 40,1096 56,1096 56,1080 72,1080 72,1096 56,1096 56,1112 72,1112 72,1128 88,1128 88,1112 104,1112 104,1128 120,1128 120,1112 104,1112 104,1096 120,1096 120,1080 136,1080 136,1096 152,1096 152,1080 136,1080 136,1064 120,1064 120,1080 104,1080 104,1064 120,1064 120,1048 104,1048 104,1032 120,1032 120,1016 136,1016 136,1032 152,1032 152,1016 136,1016 136,1000 120,1000 120,1016 104,1016 104,1000 88,1000 88,1016 104,1016 104,1032 88,1032 88,1048 72,1048 72,1032 88,1032 88,1016 72,1016 72,1000 56,1000 56,1016 40,1016 40,1000 56,1000 56,984 40,984 40,968 56,968 56,952 72,952 72,968 56,968 56,984 72,984 72,1000 88,1000 88,984 104,984 104,1000 120,1000 120,984 104,984 104,968 120,968 120,952 136,952 136,968 152,968 152,952 136,952 136,936 120,936 120,952 104,952 104,936 120,936 120,920 104,920 104,904 120,904 120,888 136,888 136,904 120,904 120,920 136,920 136,936 152,936 152,920 168,920 168,936 184,936 184,920 168,920 168,904 184,904 184,888 200,888 200,904 184,904 184,920 200,920 200,936 216,936 216,920 232,920 232,936 216,936 216,952 232,952 232,968 216,968 216,984 200,984 200,968" />
</svg>