<svg
	xmlns="http://www.w3.org/2000/svg"
	viewBox="0 0 1600 1600"
	xml:space="preserve"
	stroke-linecap="round"
	stroke-linejoin="round"
	stroke="#000"
	stroke-width="4px"
	fill="transparent"
>
<polyline points="320,320 335,320 335,305 350,305 350,320 350,335 365,335 365,320 380,320 380,305 365,305 365,290 380,290 395,290 395,275 380,275 380,260 395,260 395,245 410,245 410,260 410,275 425,275 425,260 440,260 440,275 455,275 455,290 440,290 425,290 425,305 440,305 440,320 440,335 455,335 455,350 440,350 425,350 425,365 440,365 440,380 455,380 455,365 470,365 470,380 470,395 485,395 485,380 500,380 500,365 485,365 485,350 500,350 515,350 515,335 500,335 500,320 515,320 515,305 530,305 530,320 530,335 545,335 545,320 560,320 560,305 545,305 545,290 560,290 575,290 575,275 560,275 560,260 545,260 545,275 530,275 530,260 530,245 515,245 515,260 500,260 500,245 485,245 485,230 500,230 515,230 515,215 500,215 500,200 515,200 515,185 530,185 530,200 530,215 545,215 545,200 560,200 575,200 575,185 590,185 590,200 590,215 605,215 605,200 620,200 620,185 605,185 605,170 620,170 635,170 635,155 620,155 620,140 605,140 605,155 590,155 590,140 590,125 575,125 575,140 560,140 560,125 545,125 545,110 560,110 575,110 575,95 560,95 560,80 575,80 575,65 590,65 590,80 590,95 605,95 605,80 620,80 620,65 605,65 605,50 620,50 635,50 635,35 620,35 620,20 635,20 635,5 650,5 650,20 650,35 665,35 665,20 680,20 680,35 695,35 695,50 680,50 665,50 665,65 680,65 680,80 680,95 695,95 695,110 680,110 665,110 665,125 680,125 680,140 695,140 695,125 710,125 710,140 710,155 725,155 725,140 740,140 740,125 725,125 725,110 740,110 755,110 755,95 740,95 740,80 755,80 755,65 770,65 770,80 770,95 785,95 785,80 800,80 800,95 815,95 815,110 800,110 785,110 785,125 800,125 800,140 815,140 815,125 830,125 830,140 830,155 845,155 845,140 860,140 860,155 875,155 875,170 860,170 845,170 845,185 860,185 860,200 845,200 845,215 830,215 830,200 830,185 815,185 815,200 800,200 785,200 785,215 770,215 770,200 770,185 755,185 755,200 740,200 740,215 755,215 755,230 740,230 725,230 725,245 740,245 740,260 755,260 755,245 770,245 770,260 770,275 785,275 785,260 800,260 800,275 815,275 815,290 800,290 785,290 785,305 800,305 800,320 800,335 815,335 815,350 800,350 785,350 785,365 800,365 800,380 815,380 815,365 830,365 830,380 830,395 845,395 845,380 860,380 860,395 875,395 875,410 860,410 845,410 845,425 860,425 860,440 845,440 845,455 830,455 830,440 830,425 815,425 815,440 800,440 785,440 785,455 770,455 770,440 770,425 755,425 755,440 740,440 740,455 755,455 755,470 740,470 725,470 725,485 740,485 740,500 755,500 755,485 770,485 770,500 770,515 785,515 785,500 800,500 800,515 815,515 815,530 800,530 785,530 785,545 800,545 800,560 815,560 815,545 830,545 830,560 830,575 845,575 845,560 860,560 860,545 845,545 845,530 860,530 875,530 875,515 860,515 860,500 875,500 875,485 890,485 890,500 890,515 905,515 905,500 920,500 920,515 935,515 935,530 920,530 905,530 905,545 920,545 920,560 920,575 935,575 935,590 920,590 905,590 905,605 920,605 920,620 935,620 935,605 950,605 950,620 950,635 965,635 965,620 980,620 980,605 965,605 965,590 980,590 995,590 995,575 980,575 980,560 995,560 995,545 1010,545 1010,560 1010,575 1025,575 1025,560 1040,560 1040,545 1025,545 1025,530 1040,530 1055,530 1055,515 1040,515 1040,500 1025,500 1025,515 1010,515 1010,500 1010,485 995,485 995,500 980,500 980,485 965,485 965,470 980,470 995,470 995,455 980,455 980,440 995,440 995,425 1010,425 1010,440 1010,455 1025,455 1025,440 1040,440 1055,440 1055,425 1070,425 1070,440 1070,455 1085,455 1085,440 1100,440 1100,425 1085,425 1085,410 1100,410 1115,410 1115,395 1100,395 1100,380 1085,380 1085,395 1070,395 1070,380 1070,365 1055,365 1055,380 1040,380 1040,365 1025,365 1025,350 1040,350 1055,350 1055,335 1040,335 1040,320 1055,320 1055,305 1070,305 1070,320 1070,335 1085,335 1085,320 1100,320 1100,305 1085,305 1085,290 1100,290 1115,290 1115,275 1100,275 1100,260 1115,260 1115,245 1130,245 1130,260 1130,275 1145,275 1145,260 1160,260 1160,275 1175,275 1175,290 1160,290 1145,290 1145,305 1160,305 1160,320 1160,335 1175,335 1175,350 1160,350 1145,350 1145,365 1160,365 1160,380 1175,380 1175,365 1190,365 1190,380 1190,395 1205,395 1205,380 1220,380 1220,365 1205,365 1205,350 1220,350 1235,350 1235,335 1220,335 1220,320 1235,320 1235,305 1250,305 1250,320 1250,335 1265,335 1265,320 1280,320 1280,335 1295,335 1295,350 1280,350 1265,350 1265,365 1280,365 1280,380 1295,380 1295,365 1310,365 1310,380 1310,395 1325,395 1325,380 1340,380 1340,395 1355,395 1355,410 1340,410 1325,410 1325,425 1340,425 1340,440 1325,440 1325,455 1310,455 1310,440 1310,425 1295,425 1295,440 1280,440 1265,440 1265,455 1250,455 1250,440 1250,425 1235,425 1235,440 1220,440 1220,455 1235,455 1235,470 1220,470 1205,470 1205,485 1220,485 1220,500 1235,500 1235,485 1250,485 1250,500 1250,515 1265,515 1265,500 1280,500 1280,515 1295,515 1295,530 1280,530 1265,530 1265,545 1280,545 1280,560 1295,560 1295,545 1310,545 1310,560 1310,575 1325,575 1325,560 1340,560 1340,545 1325,545 1325,530 1340,530 1355,530 1355,515 1340,515 1340,500 1355,500 1355,485 1370,485 1370,500 1370,515 1385,515 1385,500 1400,500 1400,515 1415,515 1415,530 1400,530 1385,530 1385,545 1400,545 1400,560 1400,575 1415,575 1415,590 1400,590 1385,590 1385,605 1400,605 1400,620 1415,620 1415,605 1430,605 1430,620 1430,635 1445,635 1445,620 1460,620 1460,605 1445,605 1445,590 1460,590 1475,590 1475,575 1460,575 1460,560 1475,560 1475,545 1490,545 1490,560 1490,575 1505,575 1505,560 1520,560 1520,575 1535,575 1535,590 1520,590 1505,590 1505,605 1520,605 1520,620 1535,620 1535,605 1550,605 1550,620 1550,635 1565,635 1565,620 1580,620 1580,635 1595,635 1595,650 1580,650 1565,650 1565,665 1580,665 1580,680 1565,680 1565,695 1550,695 1550,680 1550,665 1535,665 1535,680 1520,680 1505,680 1505,695 1490,695 1490,680 1490,665 1475,665 1475,680 1460,680 1460,695 1475,695 1475,710 1460,710 1445,710 1445,725 1460,725 1460,740 1475,740 1475,725 1490,725 1490,740 1490,755 1505,755 1505,740 1520,740 1520,755 1535,755 1535,770 1520,770 1505,770 1505,785 1520,785 1520,800 1505,800 1505,815 1490,815 1490,800 1490,785 1475,785 1475,800 1460,800 1460,815 1475,815 1475,830 1460,830 1445,830 1445,845 1460,845 1460,860 1445,860 1445,875 1430,875 1430,860 1430,845 1415,845 1415,860 1400,860 1400,845 1385,845 1385,830 1400,830 1415,830 1415,815 1400,815 1400,800 1400,785 1385,785 1385,770 1400,770 1415,770 1415,755 1400,755 1400,740 1385,740 1385,755 1370,755 1370,740 1370,725 1355,725 1355,740 1340,740 1340,755 1355,755 1355,770 1340,770 1325,770 1325,785 1340,785 1340,800 1325,800 1325,815 1310,815 1310,800 1310,785 1295,785 1295,800 1280,800 1265,800 1265,815 1250,815 1250,800 1250,785 1235,785 1235,800 1220,800 1220,815 1235,815 1235,830 1220,830 1205,830 1205,845 1220,845 1220,860 1205,860 1205,875 1190,875 1190,860 1190,845 1175,845 1175,860 1160,860 1160,845 1145,845 1145,830 1160,830 1175,830 1175,815 1160,815 1160,800 1160,785 1145,785 1145,770 1160,770 1175,770 1175,755 1160,755 1160,740 1145,740 1145,755 1130,755 1130,740 1130,725 1115,725 1115,740 1100,740 1100,755 1115,755 1115,770 1100,770 1085,770 1085,785 1100,785 1100,800 1085,800 1085,815 1070,815 1070,800 1070,785 1055,785 1055,800 1040,800 1040,815 1055,815 1055,830 1040,830 1025,830 1025,845 1040,845 1040,860 1055,860 1055,845 1070,845 1070,860 1070,875 1085,875 1085,860 1100,860 1100,875 1115,875 1115,890 1100,890 1085,890 1085,905 1100,905 1100,920 1085,920 1085,935 1070,935 1070,920 1070,905 1055,905 1055,920 1040,920 1025,920 1025,935 1010,935 1010,920 1010,905 995,905 995,920 980,920 980,935 995,935 995,950 980,950 965,950 965,965 980,965 980,980 995,980 995,965 1010,965 1010,980 1010,995 1025,995 1025,980 1040,980 1040,995 1055,995 1055,1010 1040,1010 1025,1010 1025,1025 1040,1025 1040,1040 1055,1040 1055,1025 1070,1025 1070,1040 1070,1055 1085,1055 1085,1040 1100,1040 1100,1025 1085,1025 1085,1010 1100,1010 1115,1010 1115,995 1100,995 1100,980 1115,980 1115,965 1130,965 1130,980 1130,995 1145,995 1145,980 1160,980 1160,995 1175,995 1175,1010 1160,1010 1145,1010 1145,1025 1160,1025 1160,1040 1160,1055 1175,1055 1175,1070 1160,1070 1145,1070 1145,1085 1160,1085 1160,1100 1175,1100 1175,1085 1190,1085 1190,1100 1190,1115 1205,1115 1205,1100 1220,1100 1220,1085 1205,1085 1205,1070 1220,1070 1235,1070 1235,1055 1220,1055 1220,1040 1235,1040 1235,1025 1250,1025 1250,1040 1250,1055 1265,1055 1265,1040 1280,1040 1280,1055 1295,1055 1295,1070 1280,1070 1265,1070 1265,1085 1280,1085 1280,1100 1295,1100 1295,1085 1310,1085 1310,1100 1310,1115 1325,1115 1325,1100 1340,1100 1340,1115 1355,1115 1355,1130 1340,1130 1325,1130 1325,1145 1340,1145 1340,1160 1325,1160 1325,1175 1310,1175 1310,1160 1310,1145 1295,1145 1295,1160 1280,1160 1265,1160 1265,1175 1250,1175 1250,1160 1250,1145 1235,1145 1235,1160 1220,1160 1220,1175 1235,1175 1235,1190 1220,1190 1205,1190 1205,1205 1220,1205 1220,1220 1235,1220 1235,1205 1250,1205 1250,1220 1250,1235 1265,1235 1265,1220 1280,1220 1280,1235 1295,1235 1295,1250 1280,1250 1265,1250 1265,1265 1280,1265 1280,1280 1265,1280 1265,1295 1250,1295 1250,1280 1250,1265 1235,1265 1235,1280 1220,1280 1220,1295 1235,1295 1235,1310 1220,1310 1205,1310 1205,1325 1220,1325 1220,1340 1205,1340 1205,1355 1190,1355 1190,1340 1190,1325 1175,1325 1175,1340 1160,1340 1160,1325 1145,1325 1145,1310 1160,1310 1175,1310 1175,1295 1160,1295 1160,1280 1160,1265 1145,1265 1145,1250 1160,1250 1175,1250 1175,1235 1160,1235 1160,1220 1145,1220 1145,1235 1130,1235 1130,1220 1130,1205 1115,1205 1115,1220 1100,1220 1100,1235 1115,1235 1115,1250 1100,1250 1085,1250 1085,1265 1100,1265 1100,1280 1085,1280 1085,1295 1070,1295 1070,1280 1070,1265 1055,1265 1055,1280 1040,1280 1040,1295 1055,1295 1055,1310 1040,1310 1025,1310 1025,1325 1040,1325 1040,1340 1055,1340 1055,1325 1070,1325 1070,1340 1070,1355 1085,1355 1085,1340 1100,1340 1100,1355 1115,1355 1115,1370 1100,1370 1085,1370 1085,1385 1100,1385 1100,1400 1085,1400 1085,1415 1070,1415 1070,1400 1070,1385 1055,1385 1055,1400 1040,1400 1025,1400 1025,1415 1010,1415 1010,1400 1010,1385 995,1385 995,1400 980,1400 980,1415 995,1415 995,1430 980,1430 965,1430 965,1445 980,1445 980,1460 995,1460 995,1445 1010,1445 1010,1460 1010,1475 1025,1475 1025,1460 1040,1460 1040,1475 1055,1475 1055,1490 1040,1490 1025,1490 1025,1505 1040,1505 1040,1520 1025,1520 1025,1535 1010,1535 1010,1520 1010,1505 995,1505 995,1520 980,1520 980,1535 995,1535 995,1550 980,1550 965,1550 965,1565 980,1565 980,1580 965,1580 965,1595 950,1595 950,1580 950,1565 935,1565 935,1580 920,1580 920,1565 905,1565 905,1550 920,1550 935,1550 935,1535 920,1535 920,1520 920,1505 905,1505 905,1490 920,1490 935,1490 935,1475 920,1475 920,1460 905,1460 905,1475 890,1475 890,1460 890,1445 875,1445 875,1460 860,1460 860,1475 875,1475 875,1490 860,1490 845,1490 845,1505 860,1505 860,1520 845,1520 845,1535 830,1535 830,1520 830,1505 815,1505 815,1520 800,1520 800,1505 785,1505 785,1490 800,1490 815,1490 815,1475 800,1475 800,1460 785,1460 785,1475 770,1475 770,1460 770,1445 755,1445 755,1460 740,1460 740,1445 725,1445 725,1430 740,1430 755,1430 755,1415 740,1415 740,1400 755,1400 755,1385 770,1385 770,1400 770,1415 785,1415 785,1400 800,1400 815,1400 815,1385 830,1385 830,1400 830,1415 845,1415 845,1400 860,1400 860,1385 845,1385 845,1370 860,1370 875,1370 875,1355 860,1355 860,1340 845,1340 845,1355 830,1355 830,1340 830,1325 815,1325 815,1340 800,1340 800,1325 785,1325 785,1310 800,1310 815,1310 815,1295 800,1295 800,1280 800,1265 785,1265 785,1250 800,1250 815,1250 815,1235 800,1235 800,1220 785,1220 785,1235 770,1235 770,1220 770,1205 755,1205 755,1220 740,1220 740,1205 725,1205 725,1190 740,1190 755,1190 755,1175 740,1175 740,1160 755,1160 755,1145 770,1145 770,1160 770,1175 785,1175 785,1160 800,1160 815,1160 815,1145 830,1145 830,1160 830,1175 845,1175 845,1160 860,1160 860,1145 845,1145 845,1130 860,1130 875,1130 875,1115 860,1115 860,1100 845,1100 845,1115 830,1115 830,1100 830,1085 815,1085 815,1100 800,1100 800,1085 785,1085 785,1070 800,1070 815,1070 815,1055 800,1055 800,1040 785,1040 785,1055 770,1055 770,1040 770,1025 755,1025 755,1040 740,1040 740,1055 755,1055 755,1070 740,1070 725,1070 725,1085 740,1085 740,1100 725,1100 725,1115 710,1115 710,1100 710,1085 695,1085 695,1100 680,1100 680,1085 665,1085 665,1070 680,1070 695,1070 695,1055 680,1055 680,1040 680,1025 665,1025 665,1010 680,1010 695,1010 695,995 680,995 680,980 665,980 665,995 650,995 650,980 650,965 635,965 635,980 620,980 620,995 635,995 635,1010 620,1010 605,1010 605,1025 620,1025 620,1040 605,1040 605,1055 590,1055 590,1040 590,1025 575,1025 575,1040 560,1040 560,1055 575,1055 575,1070 560,1070 545,1070 545,1085 560,1085 560,1100 575,1100 575,1085 590,1085 590,1100 590,1115 605,1115 605,1100 620,1100 620,1115 635,1115 635,1130 620,1130 605,1130 605,1145 620,1145 620,1160 605,1160 605,1175 590,1175 590,1160 590,1145 575,1145 575,1160 560,1160 545,1160 545,1175 530,1175 530,1160 530,1145 515,1145 515,1160 500,1160 500,1175 515,1175 515,1190 500,1190 485,1190 485,1205 500,1205 500,1220 515,1220 515,1205 530,1205 530,1220 530,1235 545,1235 545,1220 560,1220 560,1235 575,1235 575,1250 560,1250 545,1250 545,1265 560,1265 560,1280 545,1280 545,1295 530,1295 530,1280 530,1265 515,1265 515,1280 500,1280 500,1295 515,1295 515,1310 500,1310 485,1310 485,1325 500,1325 500,1340 485,1340 485,1355 470,1355 470,1340 470,1325 455,1325 455,1340 440,1340 440,1325 425,1325 425,1310 440,1310 455,1310 455,1295 440,1295 440,1280 440,1265 425,1265 425,1250 440,1250 455,1250 455,1235 440,1235 440,1220 425,1220 425,1235 410,1235 410,1220 410,1205 395,1205 395,1220 380,1220 380,1235 395,1235 395,1250 380,1250 365,1250 365,1265 380,1265 380,1280 365,1280 365,1295 350,1295 350,1280 350,1265 335,1265 335,1280 320,1280 320,1265 305,1265 305,1250 320,1250 335,1250 335,1235 320,1235 320,1220 305,1220 305,1235 290,1235 290,1220 290,1205 275,1205 275,1220 260,1220 260,1205 245,1205 245,1190 260,1190 275,1190 275,1175 260,1175 260,1160 275,1160 275,1145 290,1145 290,1160 290,1175 305,1175 305,1160 320,1160 335,1160 335,1145 350,1145 350,1160 350,1175 365,1175 365,1160 380,1160 380,1145 365,1145 365,1130 380,1130 395,1130 395,1115 380,1115 380,1100 365,1100 365,1115 350,1115 350,1100 350,1085 335,1085 335,1100 320,1100 320,1085 305,1085 305,1070 320,1070 335,1070 335,1055 320,1055 320,1040 305,1040 305,1055 290,1055 290,1040 290,1025 275,1025 275,1040 260,1040 260,1055 275,1055 275,1070 260,1070 245,1070 245,1085 260,1085 260,1100 245,1100 245,1115 230,1115 230,1100 230,1085 215,1085 215,1100 200,1100 200,1085 185,1085 185,1070 200,1070 215,1070 215,1055 200,1055 200,1040 200,1025 185,1025 185,1010 200,1010 215,1010 215,995 200,995 200,980 185,980 185,995 170,995 170,980 170,965 155,965 155,980 140,980 140,995 155,995 155,1010 140,1010 125,1010 125,1025 140,1025 140,1040 125,1040 125,1055 110,1055 110,1040 110,1025 95,1025 95,1040 80,1040 80,1025 65,1025 65,1010 80,1010 95,1010 95,995 80,995 80,980 65,980 65,995 50,995 50,980 50,965 35,965 35,980 20,980 20,965 5,965 5,950 20,950 35,950 35,935 20,935 20,920 35,920 35,905 50,905 50,920 50,935 65,935 65,920 80,920 95,920 95,905 110,905 110,920 110,935 125,935 125,920 140,920 140,905 125,905 125,890 140,890 155,890 155,875 140,875 140,860 125,860 125,875 110,875 110,860 110,845 95,845 95,860 80,860 80,845 65,845 65,830 80,830 95,830 95,815 80,815 80,800 95,800 95,785 110,785 110,800 110,815 125,815 125,800 140,800 140,785 125,785 125,770 140,770 155,770 155,755 140,755 140,740 155,740 155,725 170,725 170,740 170,755 185,755 185,740 200,740 200,755 215,755 215,770 200,770 185,770 185,785 200,785 200,800 200,815 215,815 215,830 200,830 185,830 185,845 200,845 200,860 215,860 215,845 230,845 230,860 230,875 245,875 245,860 260,860 260,845 245,845 245,830 260,830 275,830 275,815 260,815 260,800 275,800 275,785 290,785 290,800 290,815 305,815 305,800 320,800 335,800 335,785 350,785 350,800 350,815 365,815 365,800 380,800 380,785 365,785 365,770 380,770 395,770 395,755 380,755 380,740 395,740 395,725 410,725 410,740 410,755 425,755 425,740 440,740 440,755 455,755 455,770 440,770 425,770 425,785 440,785 440,800 440,815 455,815 455,830 440,830 425,830 425,845 440,845 440,860 455,860 455,845 470,845 470,860 470,875 485,875 485,860 500,860 500,845 485,845 485,830 500,830 515,830 515,815 500,815 500,800 515,800 515,785 530,785 530,800 530,815 545,815 545,800 560,800 560,785 545,785 545,770 560,770 575,770 575,755 560,755 560,740 545,740 545,755 530,755 530,740 530,725 515,725 515,740 500,740 500,725 485,725 485,710 500,710 515,710 515,695 500,695 500,680 515,680 515,665 530,665 530,680 530,695 545,695 545,680 560,680 575,680 575,665 590,665 590,680 590,695 605,695 605,680 620,680 620,665 605,665 605,650 620,650 635,650 635,635 620,635 620,620 605,620 605,635 590,635 590,620 590,605 575,605 575,620 560,620 560,605 545,605 545,590 560,590 575,590 575,575 560,575 560,560 545,560 545,575 530,575 530,560 530,545 515,545 515,560 500,560 500,575 515,575 515,590 500,590 485,590 485,605 500,605 500,620 485,620 485,635 470,635 470,620 470,605 455,605 455,620 440,620 440,605 425,605 425,590 440,590 455,590 455,575 440,575 440,560 440,545 425,545 425,530 440,530 455,530 455,515 440,515 440,500 425,500 425,515 410,515 410,500 410,485 395,485 395,500 380,500 380,515 395,515 395,530 380,530 365,530 365,545 380,545 380,560 365,560 365,575 350,575 350,560 350,545 335,545 335,560 320,560 320,545 305,545 305,530 320,530 335,530 335,515 320,515 320,500 305,500 305,515 290,515 290,500 290,485 275,485 275,500 260,500 260,485 245,485 245,470 260,470 275,470 275,455 260,455 260,440 275,440 275,425 290,425 290,440 290,455 305,455 305,440 320,440 335,440 335,425 350,425 350,440 350,455 365,455 365,440 380,440 380,425 365,425 365,410 380,410 395,410 395,395 380,395 380,380 365,380 365,395 350,395 350,380 350,365 335,365 335,380 320,380 320,365 305,365 305,350 320,350 335,350 335,335 320,335 320,320" />
</svg>